<svg width="32" height="32" viewBox="0 0 32 32" fill="none" xmlns="http://www.w3.org/2000/svg">
<path fill-rule="evenodd" clip-rule="evenodd" d="M12.4068 2.32125C14.0795 -0.792536 18.4559 -0.768731 20.0962 2.36307L21.5402 5.12012L24.8228 4.76606C28.1286 4.40951 30.6 7.80996 29.3182 10.9514L28.108 13.9173L30.7031 16.3708C32.9776 18.5213 32.1303 22.3869 29.1765 23.3351L25.7855 24.4237L25.6041 28.0399C25.4456 31.2005 22.0137 33.0074 19.4122 31.3001L16.03 29.0804L12.5457 31.3504C9.95326 33.0393 6.54372 31.2509 6.36642 28.1092L6.15763 24.4094L2.84513 23.367C-0.167248 22.4191 -0.996158 18.4537 1.37321 16.3255L3.94382 14.0166L2.7155 10.8485C1.50318 7.7216 3.96151 4.39239 7.22902 4.73601L10.9021 5.12229L12.4068 2.32125ZM9.98584 6.82805L7.05026 6.51934C5.08976 6.31317 3.61476 8.31069 4.34215 10.1868L5.34059 12.762L6.42306 11.7898C7.57038 10.7592 8.53348 9.5317 9.2691 8.1623L9.98584 6.82805ZM6.02625 14.5305L7.57702 13.1376C8.87731 11.9697 9.96883 10.5785 10.8025 9.0265L11.8767 7.0269L14.7416 7.32818C15.7647 7.43578 16.7961 7.43441 17.819 7.32409L20.5538 7.02911L21.6396 9.10217C22.422 10.596 23.4424 11.9457 24.6585 13.0956L26.0208 14.3836L25.3268 16.0845C24.6663 17.7032 24.2837 19.4265 24.1958 21.1786L24.1001 23.086L21.7767 23.8319C20.5314 24.2316 19.3428 24.7975 18.2417 25.5149L16.0334 26.9536L13.9056 25.5571C12.7691 24.8113 11.5389 24.2274 10.2487 23.8214L7.83471 23.0617L7.71799 20.9935C7.62614 19.3659 7.27988 17.7639 6.69242 16.2487L6.02625 14.5305ZM4.62948 15.7851L2.52717 17.6734C1.18796 18.8763 1.65647 21.1176 3.35912 21.6534L6.04987 22.5001L5.97069 21.0969C5.88964 19.6608 5.58412 18.2473 5.06577 16.9104L4.62948 15.7851ZM7.94247 24.971L8.11373 28.0057C8.21394 29.7815 10.1411 30.7923 11.6063 29.8377L14.4053 28.0142L12.9614 27.0666C11.9586 26.4085 10.8731 25.8933 9.73469 25.535L7.94247 24.971ZM17.658 28.0197L20.3564 29.7906C21.8268 30.7556 23.7666 29.7343 23.8562 27.9479L24.0043 24.9955L22.3002 25.5425C21.2013 25.8953 20.1526 26.3946 19.181 27.0276L17.658 28.0197ZM25.8813 22.5142L28.6531 21.6245C30.3226 21.0885 30.8015 18.9036 29.5159 17.6881L27.3897 15.6778L26.9416 16.7758C26.3588 18.2041 26.0212 19.7247 25.9437 21.2706L25.8813 22.5142ZM26.7392 12.6231L27.7033 10.2601C28.4724 8.37525 26.9896 6.33498 25.0061 6.54891L22.4338 6.82635L23.1819 8.25469C23.8723 9.57282 24.7726 10.7637 25.8457 11.7783L26.7392 12.6231ZM19.6602 5.32288L17.6357 5.54124C16.7331 5.63859 15.8231 5.6398 14.9203 5.54486L12.793 5.32114L13.9403 3.18545C14.9439 1.31718 17.5697 1.33146 18.5538 3.21055L19.6602 5.32288Z" fill="url(#paint0_linear_7159_5286)"/>
<path fill-rule="evenodd" clip-rule="evenodd" d="M12.4068 2.32125C14.0795 -0.792536 18.4559 -0.768731 20.0962 2.36307L21.5402 5.12012L24.8228 4.76606C28.1286 4.40951 30.6 7.80996 29.3182 10.9514L28.108 13.9173L30.7031 16.3708C32.9776 18.5213 32.1303 22.3869 29.1765 23.3351L25.7855 24.4237L25.6041 28.0399C25.4456 31.2005 22.0137 33.0074 19.4122 31.3001L16.03 29.0804L12.5457 31.3504C9.95326 33.0393 6.54372 31.2509 6.36642 28.1092L6.15763 24.4094L2.84513 23.367C-0.167248 22.4191 -0.996158 18.4537 1.37321 16.3255L3.94382 14.0166L2.7155 10.8485C1.50318 7.7216 3.96151 4.39239 7.22902 4.73601L10.9021 5.12229L12.4068 2.32125ZM9.98584 6.82805L7.05026 6.51934C5.08976 6.31317 3.61476 8.31069 4.34215 10.1868L5.34059 12.762L6.42306 11.7898C7.57038 10.7592 8.53348 9.5317 9.2691 8.1623L9.98584 6.82805ZM6.02625 14.5305L7.57702 13.1376C8.87731 11.9697 9.96883 10.5785 10.8025 9.0265L11.8767 7.0269L14.7416 7.32818C15.7647 7.43578 16.7961 7.43441 17.819 7.32409L20.5538 7.02911L21.6396 9.10217C22.422 10.596 23.4424 11.9457 24.6585 13.0956L26.0208 14.3836L25.3268 16.0845C24.6663 17.7032 24.2837 19.4265 24.1958 21.1786L24.1001 23.086L21.7767 23.8319C20.5314 24.2316 19.3428 24.7975 18.2417 25.5149L16.0334 26.9536L13.9056 25.5571C12.7691 24.8113 11.5389 24.2274 10.2487 23.8214L7.83471 23.0617L7.71799 20.9935C7.62614 19.3659 7.27988 17.7639 6.69242 16.2487L6.02625 14.5305ZM4.62948 15.7851L2.52717 17.6734C1.18796 18.8763 1.65647 21.1176 3.35912 21.6534L6.04987 22.5001L5.97069 21.0969C5.88964 19.6608 5.58412 18.2473 5.06577 16.9104L4.62948 15.7851ZM7.94247 24.971L8.11373 28.0057C8.21394 29.7815 10.1411 30.7923 11.6063 29.8377L14.4053 28.0142L12.9614 27.0666C11.9586 26.4085 10.8731 25.8933 9.73469 25.535L7.94247 24.971ZM17.658 28.0197L20.3564 29.7906C21.8268 30.7556 23.7666 29.7343 23.8562 27.9479L24.0043 24.9955L22.3002 25.5425C21.2013 25.8953 20.1526 26.3946 19.181 27.0276L17.658 28.0197ZM25.8813 22.5142L28.6531 21.6245C30.3226 21.0885 30.8015 18.9036 29.5159 17.6881L27.3897 15.6778L26.9416 16.7758C26.3588 18.2041 26.0212 19.7247 25.9437 21.2706L25.8813 22.5142ZM26.7392 12.6231L27.7033 10.2601C28.4724 8.37525 26.9896 6.33498 25.0061 6.54891L22.4338 6.82635L23.1819 8.25469C23.8723 9.57282 24.7726 10.7637 25.8457 11.7783L26.7392 12.6231ZM19.6602 5.32288L17.6357 5.54124C16.7331 5.63859 15.8231 5.6398 14.9203 5.54486L12.793 5.32114L13.9403 3.18545C14.9439 1.31718 17.5697 1.33146 18.5538 3.21055L19.6602 5.32288Z" fill="url(#paint1_linear_7159_5286)"/>
<defs>
<linearGradient id="paint0_linear_7159_5286" x1="24.5333" y1="2.72727" x2="8.61898" y2="30.9704" gradientUnits="userSpaceOnUse">
<stop stop-color="#FF1080"/>
<stop offset="0.963543" stop-color="#42C4FF"/>
</linearGradient>
<linearGradient id="paint1_linear_7159_5286" x1="6.93333" y1="4" x2="32.4017" y2="22.6327" gradientUnits="userSpaceOnUse">
<stop stop-color="#FF9124"/>
<stop offset="0.225429" stop-color="#FF9798" stop-opacity="0.519085"/>
<stop offset="0.375" stop-color="#EE988B" stop-opacity="0.2"/>
<stop offset="0.515" stop-color="#ED90A9" stop-opacity="0"/>
<stop offset="0.610586" stop-color="#EC88C5" stop-opacity="0.2"/>
<stop offset="1" stop-color="#EA7AFA"/>
</linearGradient>
</defs>
</svg>
