<svg width="32" height="32" viewBox="0 0 32 32" fill="none" xmlns="http://www.w3.org/2000/svg">
<g clip-path="url(#clip0_7159_5289)">
<path d="M0 8C0 3.58172 3.58172 0 8 0H24C28.4183 0 32 3.58172 32 8V24C32 28.4183 28.4183 32 24 32H8C3.58172 32 0 28.4183 0 24V8Z" fill="white"/>
<path d="M0 8C0 3.58172 3.58172 0 8 0H24C28.4183 0 32 3.58172 32 8V24C32 28.4183 28.4183 32 24 32H8C3.58172 32 0 28.4183 0 24V8Z" fill="url(#paint0_radial_7159_5289)"/>
<path d="M0 8C0 3.58172 3.58172 0 8 0H24C28.4183 0 32 3.58172 32 8V24C32 28.4183 28.4183 32 24 32H8C3.58172 32 0 28.4183 0 24V8Z" fill="url(#paint1_radial_7159_5289)"/>
<path d="M0 8C0 3.58172 3.58172 0 8 0H24C28.4183 0 32 3.58172 32 8V24C32 28.4183 28.4183 32 24 32H8C3.58172 32 0 28.4183 0 24V8Z" fill="url(#paint2_radial_7159_5289)"/>
<path d="M0 8C0 3.58172 3.58172 0 8 0H24C28.4183 0 32 3.58172 32 8V24C32 28.4183 28.4183 32 24 32H8C3.58172 32 0 28.4183 0 24V8Z" fill="url(#paint3_radial_7159_5289)"/>
<path d="M0 8C0 3.58172 3.58172 0 8 0H24C28.4183 0 32 3.58172 32 8V24C32 28.4183 28.4183 32 24 32H8C3.58172 32 0 28.4183 0 24V8Z" fill="url(#paint4_radial_7159_5289)"/>
<path d="M0 8C0 3.58172 3.58172 0 8 0H24C28.4183 0 32 3.58172 32 8V24C32 28.4183 28.4183 32 24 32H8C3.58172 32 0 28.4183 0 24V8Z" fill="url(#paint5_radial_7159_5289)"/>
<path d="M0 8C0 3.58172 3.58172 0 8 0H24C28.4183 0 32 3.58172 32 8V24C32 28.4183 28.4183 32 24 32H8C3.58172 32 0 28.4183 0 24V8Z" fill="url(#paint6_radial_7159_5289)"/>
<path d="M0 8C0 3.58172 3.58172 0 8 0H24C28.4183 0 32 3.58172 32 8V24C32 28.4183 28.4183 32 24 32H8C3.58172 32 0 28.4183 0 24V8Z" fill="url(#paint7_radial_7159_5289)" style="mix-blend-mode:soft-light"/>
<path d="M27.9901 15.4927C27.8562 12.3568 26.5 9.39811 24.2119 7.25041C21.9238 5.10271 18.8859 3.93686 15.749 4.00264C12.6121 4.06841 9.62572 5.36058 7.42962 7.6023C5.23352 9.84403 4.0024 12.857 4 15.9958C4 16.0186 4.03677 17.3656 4.12919 18.0257C4.22856 18.7216 4.69264 20.1313 4.74134 20.1591C5.71478 22.7913 7.57924 24.9993 10.0108 26.3993C12.4423 27.7994 15.2873 28.3031 18.0515 27.823C20.8157 27.3428 23.3245 25.9092 25.1419 23.771C26.9593 21.6329 27.9706 18.9255 28 16.119C28 16.0942 27.9921 15.5325 27.9901 15.4927ZM16.0104 26.2361C14.2927 26.2374 12.6022 25.8062 11.0948 24.9822C9.58734 24.1582 8.31147 22.9679 7.3847 21.521C7.99505 21.77 8.64656 21.9025 9.30562 21.9117C11.6906 21.8879 13.7566 21.1642 15.6904 19.8907C16.3225 19.4752 17.2029 18.7504 17.8131 18.3061L16.3712 16.9938C14.9471 18.0078 12.6873 19.6263 10.9195 19.9106C8.97967 20.2227 7.1154 19.7545 6.21308 17.9224C5.96754 17.4128 5.817 16.8626 5.76887 16.299C5.76887 16.1995 5.7639 16.0942 5.7639 15.9908C5.7639 15.7065 5.77682 15.4241 5.79968 15.1458C5.9875 13.8117 6.72088 12.579 8.04455 12.0432C9.4358 11.4805 10.8201 11.6266 12.1557 12.242C13.7834 12.9876 15.0127 14.262 16.3145 15.4391C17.5229 16.5326 18.7989 17.5466 19.9695 18.6809C21.8437 20.5041 23.8451 20.68 25.3735 20.1541C24.5678 21.965 23.2545 23.5033 21.5927 24.5828C19.9309 25.6622 17.9918 26.2365 16.0104 26.2361ZM25.3278 18.0844L25.3189 18.0914C24.9624 18.3632 24.5214 18.5002 24.0737 18.4781H24.0429C23.856 18.4784 23.6697 18.4557 23.4884 18.4105H23.4775C22.0932 18.1351 21.0607 17.2583 20.048 16.3596C18.4849 14.9678 16.9774 13.5194 15.3635 12.1953C13.9285 11.0123 12.2829 10.2537 10.3769 10.041C9.29966 9.91972 7.89251 10.4078 7.22869 10.7031C8.22418 9.04838 9.66658 7.70857 11.3898 6.83793C13.1131 5.96728 15.0471 5.60121 16.9692 5.78185C18.8913 5.9625 20.7233 6.68252 22.2543 7.85901C23.7853 9.0355 24.953 10.6206 25.623 12.4319C24.6839 12.0958 23.3045 11.9189 22.119 12.6118C21.2197 13.1367 20.3879 13.6556 19.415 14.3296C19.889 14.7829 20.8271 15.6011 20.8271 15.6011C21.2574 15.2889 23.0919 13.8117 24.1771 13.8574C24.4535 13.8572 24.7267 13.9163 24.9783 14.0307C25.23 14.1451 25.4542 14.3121 25.6359 14.5205C25.8834 14.7581 26.0745 15.0482 26.1953 15.3694C26.3161 15.6906 26.3635 16.0347 26.3339 16.3766C26.3044 16.7185 26.1987 17.0495 26.0246 17.3451C25.8505 17.6408 25.6124 17.8938 25.3278 18.0854V18.0844Z" fill="white"/>
</g>
<defs>
<radialGradient id="paint0_radial_7159_5289" cx="0" cy="0" r="1" gradientUnits="userSpaceOnUse" gradientTransform="translate(28.3556 2.71111) rotate(137.811) scale(26.2731)">
<stop stop-color="#F7306E"/>
<stop offset="1" stop-color="#F7306E" stop-opacity="0"/>
</radialGradient>
<radialGradient id="paint1_radial_7159_5289" cx="0" cy="0" r="1" gradientUnits="userSpaceOnUse" gradientTransform="translate(28.3556 2.71111) rotate(137.811) scale(26.2731)">
<stop stop-color="#F7306E"/>
<stop offset="1" stop-color="#F7306E" stop-opacity="0"/>
</radialGradient>
<radialGradient id="paint2_radial_7159_5289" cx="0" cy="0" r="1" gradientUnits="userSpaceOnUse" gradientTransform="translate(27.6889 27.3778) rotate(-130.284) scale(21.7898)">
<stop stop-color="#EB78F9"/>
<stop offset="1" stop-color="#EB78F9" stop-opacity="0"/>
</radialGradient>
<radialGradient id="paint3_radial_7159_5289" cx="0" cy="0" r="1" gradientUnits="userSpaceOnUse" gradientTransform="translate(27.6889 27.3778) rotate(-130.284) scale(21.7898)">
<stop stop-color="#EB78F9"/>
<stop offset="1" stop-color="#EB78F9" stop-opacity="0"/>
</radialGradient>
<radialGradient id="paint4_radial_7159_5289" cx="0" cy="0" r="1" gradientTransform="matrix(24.5333 -25.5556 26.8408 24.6776 4.13333 29.4667)" gradientUnits="userSpaceOnUse">
<stop stop-color="#00AEFF"/>
<stop offset="1" stop-color="#3963F9" stop-opacity="0"/>
</radialGradient>
<radialGradient id="paint5_radial_7159_5289" cx="0" cy="0" r="1" gradientUnits="userSpaceOnUse" gradientTransform="translate(3.33333 2.4) rotate(42.3246) scale(20.1981)">
<stop stop-color="#F1A455"/>
<stop offset="1" stop-color="#F1A455" stop-opacity="0"/>
</radialGradient>
<radialGradient id="paint6_radial_7159_5289" cx="0" cy="0" r="1" gradientUnits="userSpaceOnUse" gradientTransform="translate(3.33333 2.4) rotate(42.3246) scale(20.1981)">
<stop stop-color="#F1A455"/>
<stop offset="1" stop-color="#F1A455" stop-opacity="0"/>
</radialGradient>
<radialGradient id="paint7_radial_7159_5289" cx="0" cy="0" r="1" gradientTransform="matrix(32 -9.37778 10.3596 32.7197 -0.755554 19.8222)" gradientUnits="userSpaceOnUse">
<stop stop-color="#FFF8E4"/>
<stop offset="1" stop-color="#FFF8E4" stop-opacity="0"/>
</radialGradient>
<clipPath id="clip0_7159_5289">
<rect width="32" height="32" fill="white"/>
</clipPath>
</defs>
</svg>
