<svg width="32" height="32" viewBox="0 0 32 32" fill="none" xmlns="http://www.w3.org/2000/svg">
<g clip-path="url(#clip0_7159_5287)">
<path d="M0 8C0 3.58172 3.58172 0 8 0H24C28.4183 0 32 3.58172 32 8V24C32 28.4183 28.4183 32 24 32H8C3.58172 32 0 28.4183 0 24V8Z" fill="white"/>
<path d="M0 8C0 3.58172 3.58172 0 8 0H24C28.4183 0 32 3.58172 32 8V24C32 28.4183 28.4183 32 24 32H8C3.58172 32 0 28.4183 0 24V8Z" fill="url(#paint0_radial_7159_5287)"/>
<path d="M0 8C0 3.58172 3.58172 0 8 0H24C28.4183 0 32 3.58172 32 8V24C32 28.4183 28.4183 32 24 32H8C3.58172 32 0 28.4183 0 24V8Z" fill="url(#paint1_radial_7159_5287)"/>
<path d="M0 8C0 3.58172 3.58172 0 8 0H24C28.4183 0 32 3.58172 32 8V24C32 28.4183 28.4183 32 24 32H8C3.58172 32 0 28.4183 0 24V8Z" fill="url(#paint2_radial_7159_5287)"/>
<path d="M0 8C0 3.58172 3.58172 0 8 0H24C28.4183 0 32 3.58172 32 8V24C32 28.4183 28.4183 32 24 32H8C3.58172 32 0 28.4183 0 24V8Z" fill="url(#paint3_radial_7159_5287)"/>
<path d="M0 8C0 3.58172 3.58172 0 8 0H24C28.4183 0 32 3.58172 32 8V24C32 28.4183 28.4183 32 24 32H8C3.58172 32 0 28.4183 0 24V8Z" fill="url(#paint4_radial_7159_5287)"/>
<path d="M0 8C0 3.58172 3.58172 0 8 0H24C28.4183 0 32 3.58172 32 8V24C32 28.4183 28.4183 32 24 32H8C3.58172 32 0 28.4183 0 24V8Z" fill="url(#paint5_radial_7159_5287)"/>
<path d="M0 8C0 3.58172 3.58172 0 8 0H24C28.4183 0 32 3.58172 32 8V24C32 28.4183 28.4183 32 24 32H8C3.58172 32 0 28.4183 0 24V8Z" fill="url(#paint6_radial_7159_5287)"/>
<path d="M0 8C0 3.58172 3.58172 0 8 0H24C28.4183 0 32 3.58172 32 8V24C32 28.4183 28.4183 32 24 32H8C3.58172 32 0 28.4183 0 24V8Z" fill="url(#paint7_radial_7159_5287)" style="mix-blend-mode:soft-light"/>
<path fill-rule="evenodd" clip-rule="evenodd" d="M13.3051 5.74094C14.5596 3.4056 17.8419 3.42345 19.0721 5.7723L20.1551 7.84009L22.6171 7.57455C25.0965 7.30713 26.95 9.85747 25.9886 12.2136L25.081 14.438L27.0273 16.2781C28.7332 17.891 28.0977 20.7902 25.8824 21.5013L23.3391 22.3178L23.2031 25.03C23.0842 27.4004 20.5103 28.7555 18.5591 27.4751L16.0225 25.8103L13.4092 27.5128C11.4649 28.7795 8.90779 27.4382 8.77482 25.0819L8.61822 22.3071L6.13385 21.5253C3.87456 20.8143 3.25288 17.8403 5.02991 16.2442L6.95786 14.5125L6.03662 12.1364C5.12738 9.7912 6.97113 7.29429 9.42177 7.55201L12.1766 7.84172L13.3051 5.74094ZM11.4894 9.12104L9.2877 8.88951C7.81732 8.73487 6.71107 10.233 7.25661 11.6401L8.00544 13.5715L8.8173 12.8423C9.67779 12.0694 10.4001 11.1488 10.9518 10.1217L11.4894 9.12104ZM8.51969 14.8979L9.68277 13.8532C10.658 12.9773 11.4766 11.9339 12.1019 10.7699L12.9075 9.27018L15.0562 9.49614C15.8236 9.57684 16.597 9.57581 17.3642 9.49306L19.4154 9.27183L20.2297 10.8266C20.8165 11.947 21.5818 12.9593 22.4939 13.8217L23.5156 14.7877L22.9951 16.0634C22.4997 17.2774 22.2128 18.5699 22.1468 19.8839L22.0751 21.3145L20.3326 21.8739C19.3986 22.1737 18.5071 22.5981 17.6812 23.1362L16.0251 24.2152L14.4292 23.1679C13.5769 22.6085 12.6542 22.1705 11.6865 21.866L9.87604 21.2963L9.78849 19.7451C9.7196 18.5244 9.45991 17.323 9.01932 16.1866L8.51969 14.8979ZM7.47211 15.8388L5.89538 17.2551C4.89097 18.1572 5.24235 19.8382 6.51934 20.24L8.53741 20.8751L8.47801 19.8227C8.41723 18.7456 8.18809 17.6855 7.79933 16.6828L7.47211 15.8388ZM9.95685 22.7283L10.0853 25.0043C10.1605 26.3361 11.6058 27.0942 12.7048 26.3783L14.804 25.0107L13.721 24.2999C12.969 23.8064 12.1548 23.4199 11.301 23.1513L9.95685 22.7283ZM17.2435 25.0148L19.2673 26.343C20.3701 27.0667 21.8249 26.3007 21.8921 24.961L22.0032 22.7466L20.7251 23.1569C19.901 23.4214 19.1145 23.7959 18.3857 24.2707L17.2435 25.0148ZM23.411 20.8857L25.4898 20.2184C26.742 19.8164 27.1011 18.1777 26.1369 17.2661L24.5422 15.7583L24.2062 16.5819C23.7691 17.6531 23.5159 18.7935 23.4578 19.9529L23.411 20.8857ZM24.0544 13.4673L24.7775 11.6951C25.3543 10.2814 24.2422 8.75123 22.7546 8.91168L20.8254 9.11976L21.3864 10.191C21.9042 11.1796 22.5794 12.0728 23.3842 12.8337L24.0544 13.4673ZM18.7451 7.99216L17.2267 8.15593C16.5498 8.22894 15.8674 8.22985 15.1903 8.15864L13.5947 7.99085L14.4552 6.38909C15.2079 4.98789 17.1773 4.9986 17.9154 6.40791L18.7451 7.99216Z" fill="white"/>
</g>
<defs>
<radialGradient id="paint0_radial_7159_5287" cx="0" cy="0" r="1" gradientUnits="userSpaceOnUse" gradientTransform="translate(28.3556 2.71111) rotate(137.811) scale(26.2731)">
<stop stop-color="#F7306E"/>
<stop offset="1" stop-color="#F7306E" stop-opacity="0"/>
</radialGradient>
<radialGradient id="paint1_radial_7159_5287" cx="0" cy="0" r="1" gradientUnits="userSpaceOnUse" gradientTransform="translate(28.3556 2.71111) rotate(137.811) scale(26.2731)">
<stop stop-color="#F7306E"/>
<stop offset="1" stop-color="#F7306E" stop-opacity="0"/>
</radialGradient>
<radialGradient id="paint2_radial_7159_5287" cx="0" cy="0" r="1" gradientUnits="userSpaceOnUse" gradientTransform="translate(27.6889 27.3778) rotate(-130.284) scale(21.7898)">
<stop stop-color="#EB78F9"/>
<stop offset="1" stop-color="#EB78F9" stop-opacity="0"/>
</radialGradient>
<radialGradient id="paint3_radial_7159_5287" cx="0" cy="0" r="1" gradientUnits="userSpaceOnUse" gradientTransform="translate(27.6889 27.3778) rotate(-130.284) scale(21.7898)">
<stop stop-color="#EB78F9"/>
<stop offset="1" stop-color="#EB78F9" stop-opacity="0"/>
</radialGradient>
<radialGradient id="paint4_radial_7159_5287" cx="0" cy="0" r="1" gradientTransform="matrix(24.5333 -25.5556 26.8408 24.6776 4.13333 29.4667)" gradientUnits="userSpaceOnUse">
<stop stop-color="#00AEFF"/>
<stop offset="1" stop-color="#3963F9" stop-opacity="0"/>
</radialGradient>
<radialGradient id="paint5_radial_7159_5287" cx="0" cy="0" r="1" gradientUnits="userSpaceOnUse" gradientTransform="translate(3.33333 2.4) rotate(42.3246) scale(20.1981)">
<stop stop-color="#F1A455"/>
<stop offset="1" stop-color="#F1A455" stop-opacity="0"/>
</radialGradient>
<radialGradient id="paint6_radial_7159_5287" cx="0" cy="0" r="1" gradientUnits="userSpaceOnUse" gradientTransform="translate(3.33333 2.4) rotate(42.3246) scale(20.1981)">
<stop stop-color="#F1A455"/>
<stop offset="1" stop-color="#F1A455" stop-opacity="0"/>
</radialGradient>
<radialGradient id="paint7_radial_7159_5287" cx="0" cy="0" r="1" gradientTransform="matrix(32 -9.37778 10.3596 32.7197 -0.755554 19.8222)" gradientUnits="userSpaceOnUse">
<stop stop-color="#FFF8E4"/>
<stop offset="1" stop-color="#FFF8E4" stop-opacity="0"/>
</radialGradient>
<clipPath id="clip0_7159_5287">
<rect width="32" height="32" fill="white"/>
</clipPath>
</defs>
</svg>
