<svg width="32" height="32" viewBox="0 0 32 32" fill="none" xmlns="http://www.w3.org/2000/svg">
<path d="M31.9868 15.3236C31.8083 11.1425 29.9999 7.19749 26.9492 4.33388C23.8984 1.47028 19.8479 -0.0841801 15.6654 0.00351903C11.4828 0.0912182 7.50096 1.8141 4.57283 4.80307C1.6447 7.79204 0.00319882 11.8093 0 15.9943C0 16.0248 0.0490249 17.8209 0.17225 18.701C0.304749 19.6288 0.923523 21.5084 0.988448 21.5455C2.28638 25.0551 4.77231 27.999 8.01438 29.8658C11.2565 31.7325 15.0498 32.4041 18.7354 31.764C22.421 31.1238 25.766 29.2122 28.1892 26.3614C30.6124 23.5106 31.9608 19.9006 32 16.1587C32 16.1256 31.9894 15.3767 31.9868 15.3236ZM16.0139 29.6482C13.7235 29.6499 11.4696 29.0749 9.45968 27.9762C7.44979 26.8776 5.74863 25.2906 4.51294 23.3614C5.32674 23.6933 6.19542 23.87 7.07416 23.8823C10.2542 23.8505 13.0088 22.8855 15.5873 21.1876C16.43 20.6335 17.6039 19.6673 18.4175 19.0748L16.4949 17.3251C14.5962 18.6771 11.5831 20.835 9.22595 21.2141C6.63956 21.6303 4.15387 21.006 2.95077 18.5631C2.62338 17.8837 2.42267 17.1502 2.35849 16.3986C2.35849 16.2661 2.35187 16.1256 2.35187 15.9877C2.35187 15.6086 2.36909 15.2322 2.39957 14.861C2.64999 13.0822 3.62784 11.4386 5.39274 10.7242C7.24773 9.97398 9.09345 10.1688 10.8742 10.9893C13.0446 11.9834 14.6836 13.6827 16.4194 15.2521C18.0306 16.7101 19.7319 18.0621 21.2927 19.5745C23.7916 22.0054 26.4602 22.24 28.498 21.5389C27.4237 23.9533 25.6726 26.0044 23.4569 27.4437C21.2412 28.883 18.6558 29.6487 16.0139 29.6482ZM28.4371 18.7792L28.4252 18.7885C27.9499 19.1509 27.3618 19.3336 26.7649 19.3041H26.7239C26.4746 19.3046 26.2263 19.2743 25.9845 19.2139H25.9699C24.1242 18.8468 22.7475 17.6777 21.3974 16.4795C19.3132 14.6238 17.3031 12.6926 15.1513 10.927C13.238 9.34968 11.0438 8.33833 8.50251 8.05468C7.06621 7.89297 5.19001 8.54378 4.30492 8.93745C5.63224 6.73117 7.55545 4.94476 9.85311 3.7839C12.1508 2.62304 14.7294 2.13495 17.2922 2.37581C19.855 2.61667 22.2977 3.57669 24.339 5.14535C26.3803 6.714 27.9373 8.82749 28.8306 11.2425C27.5785 10.7945 25.7394 10.5585 24.1587 11.4824C22.9595 12.1822 21.8505 12.8741 20.5534 13.7728C21.1854 14.3772 22.4362 15.4681 22.4362 15.4681C23.0099 15.0519 25.4558 13.0822 26.9027 13.1432C27.2713 13.143 27.6356 13.2217 27.9711 13.3743C28.3067 13.5268 28.6056 13.7495 28.8478 14.0273C29.1778 14.3442 29.4327 14.7309 29.5937 15.1592C29.7548 15.5874 29.8179 16.0463 29.7786 16.5022C29.7392 16.958 29.5982 17.3993 29.3661 17.7935C29.134 18.1878 28.8165 18.525 28.4371 18.7805V18.7792Z" fill="url(#paint0_linear_7159_5288)"/>
<path d="M31.9868 15.3236C31.8083 11.1425 29.9999 7.19749 26.9492 4.33388C23.8984 1.47028 19.8479 -0.0841801 15.6654 0.00351903C11.4828 0.0912182 7.50096 1.8141 4.57283 4.80307C1.6447 7.79204 0.00319882 11.8093 0 15.9943C0 16.0248 0.0490249 17.8209 0.17225 18.701C0.304749 19.6288 0.923523 21.5084 0.988448 21.5455C2.28638 25.0551 4.77231 27.999 8.01438 29.8658C11.2565 31.7325 15.0498 32.4041 18.7354 31.764C22.421 31.1238 25.766 29.2122 28.1892 26.3614C30.6124 23.5106 31.9608 19.9006 32 16.1587C32 16.1256 31.9894 15.3767 31.9868 15.3236ZM16.0139 29.6482C13.7235 29.6499 11.4696 29.0749 9.45968 27.9762C7.44979 26.8776 5.74863 25.2906 4.51294 23.3614C5.32674 23.6933 6.19542 23.87 7.07416 23.8823C10.2542 23.8505 13.0088 22.8855 15.5873 21.1876C16.43 20.6335 17.6039 19.6673 18.4175 19.0748L16.4949 17.3251C14.5962 18.6771 11.5831 20.835 9.22595 21.2141C6.63956 21.6303 4.15387 21.006 2.95077 18.5631C2.62338 17.8837 2.42267 17.1502 2.35849 16.3986C2.35849 16.2661 2.35187 16.1256 2.35187 15.9877C2.35187 15.6086 2.36909 15.2322 2.39957 14.861C2.64999 13.0822 3.62784 11.4386 5.39274 10.7242C7.24773 9.97398 9.09345 10.1688 10.8742 10.9893C13.0446 11.9834 14.6836 13.6827 16.4194 15.2521C18.0306 16.7101 19.7319 18.0621 21.2927 19.5745C23.7916 22.0054 26.4602 22.24 28.498 21.5389C27.4237 23.9533 25.6726 26.0044 23.4569 27.4437C21.2412 28.883 18.6558 29.6487 16.0139 29.6482ZM28.4371 18.7792L28.4252 18.7885C27.9499 19.1509 27.3618 19.3336 26.7649 19.3041H26.7239C26.4746 19.3046 26.2263 19.2743 25.9845 19.2139H25.9699C24.1242 18.8468 22.7475 17.6777 21.3974 16.4795C19.3132 14.6238 17.3031 12.6926 15.1513 10.927C13.238 9.34968 11.0438 8.33833 8.50251 8.05468C7.06621 7.89297 5.19001 8.54378 4.30492 8.93745C5.63224 6.73117 7.55545 4.94476 9.85311 3.7839C12.1508 2.62304 14.7294 2.13495 17.2922 2.37581C19.855 2.61667 22.2977 3.57669 24.339 5.14535C26.3803 6.714 27.9373 8.82749 28.8306 11.2425C27.5785 10.7945 25.7394 10.5585 24.1587 11.4824C22.9595 12.1822 21.8505 12.8741 20.5534 13.7728C21.1854 14.3772 22.4362 15.4681 22.4362 15.4681C23.0099 15.0519 25.4558 13.0822 26.9027 13.1432C27.2713 13.143 27.6356 13.2217 27.9711 13.3743C28.3067 13.5268 28.6056 13.7495 28.8478 14.0273C29.1778 14.3442 29.4327 14.7309 29.5937 15.1592C29.7548 15.5874 29.8179 16.0463 29.7786 16.5022C29.7392 16.958 29.5982 17.3993 29.3661 17.7935C29.134 18.1878 28.8165 18.525 28.4371 18.7805V18.7792Z" fill="url(#paint1_linear_7159_5288)"/>
<defs>
<linearGradient id="paint0_linear_7159_5288" x1="24.5333" y1="2.72727" x2="8.61898" y2="30.9704" gradientUnits="userSpaceOnUse">
<stop stop-color="#FF1080"/>
<stop offset="0.963543" stop-color="#42C4FF"/>
</linearGradient>
<linearGradient id="paint1_linear_7159_5288" x1="6.93333" y1="4" x2="32.4017" y2="22.6327" gradientUnits="userSpaceOnUse">
<stop stop-color="#FF9124"/>
<stop offset="0.225429" stop-color="#FF9798" stop-opacity="0.519085"/>
<stop offset="0.375" stop-color="#EE988B" stop-opacity="0.2"/>
<stop offset="0.515" stop-color="#ED90A9" stop-opacity="0"/>
<stop offset="0.610586" stop-color="#EC88C5" stop-opacity="0.2"/>
<stop offset="1" stop-color="#EA7AFA"/>
</linearGradient>
</defs>
</svg>
