<svg width="32" height="32" viewBox="0 0 32 32" fill="none" xmlns="http://www.w3.org/2000/svg">
<path fill-rule="evenodd" clip-rule="evenodd" d="M27.903 3.16377C27.9071 3.10624 27.8924 3.04873 27.8559 3.00409C27.6127 2.70694 27.0088 2.23891 26.2449 2.27986C26.1826 2.2832 26.1251 2.31336 26.0832 2.35973L25.9943 2.45831C25.8563 2.61132 25.768 2.80261 25.741 3.00689L25.6656 3.57911C25.6312 3.83988 25.2538 3.83988 25.2194 3.57911L25.144 3.00689C25.117 2.80261 25.0287 2.61132 24.8907 2.45831L24.8018 2.35973C24.76 2.31336 24.7025 2.2832 24.6401 2.27986C23.8762 2.23891 23.2724 2.70694 23.0291 3.00409C22.9926 3.04873 22.9779 3.10624 22.982 3.16377L22.9908 3.28711C23.0043 3.47585 23.0701 3.65709 23.1809 3.81049L23.5821 4.36604C23.7509 4.59968 23.4556 4.88627 23.2271 4.71062L22.8004 4.38262C22.6371 4.25704 22.4394 4.18401 22.2337 4.17317L22.1011 4.16619C22.0387 4.1629 21.9767 4.18217 21.9302 4.22385C21.3606 4.7344 21.2637 5.49223 21.3014 5.87437C21.307 5.93177 21.3372 5.98289 21.3808 6.02071L21.4741 6.10181C21.617 6.22589 21.7916 6.30769 21.9784 6.33803L22.4658 6.41721C22.7457 6.46268 22.7457 6.86528 22.4658 6.91074L21.9784 6.98992C21.7916 7.02026 21.617 7.10207 21.4741 7.22615L21.3808 7.30724C21.3372 7.34507 21.307 7.39619 21.3014 7.45358C21.2637 7.83573 21.3606 8.59356 21.9302 9.1041C21.9767 9.14579 22.0387 9.16505 22.1011 9.16177L22.2337 9.15479C22.4394 9.14395 22.6371 9.07091 22.8004 8.94533L23.2271 8.61734C23.4556 8.44169 23.7509 8.72827 23.5821 8.96191L23.1809 9.51746C23.0701 9.67086 23.0043 9.85211 22.9908 10.0408L22.982 10.1642C22.9779 10.2217 22.9926 10.2792 23.0291 10.3239C23.2724 10.621 23.8762 11.089 24.6401 11.0481C24.7025 11.0448 24.76 11.0146 24.8018 10.9682L24.8907 10.8696C25.0287 10.7166 25.117 10.5253 25.144 10.3211L25.1947 9.93677C25.2329 9.64702 25.6521 9.64702 25.6904 9.93677L25.741 10.3211C25.768 10.5253 25.8563 10.7166 25.9943 10.8696L26.0832 10.9682C26.1251 11.0146 26.1826 11.0448 26.2449 11.0481C27.0088 11.089 27.6127 10.621 27.8559 10.3239C27.8924 10.2792 27.9071 10.2217 27.903 10.1642L27.8942 10.0408C27.8807 9.85211 27.8149 9.67086 27.7041 9.51746L27.3029 8.96191C27.1342 8.72827 27.4294 8.44169 27.6579 8.61734L28.0846 8.94533C28.248 9.07091 28.4456 9.14395 28.6514 9.15479L28.7839 9.16177C28.8463 9.16505 28.9083 9.14579 28.9548 9.1041C29.5245 8.59356 29.6214 7.83573 29.5837 7.45358C29.578 7.39619 29.5478 7.34507 29.5043 7.30724L29.4109 7.22615C29.2681 7.10207 29.0934 7.02026 28.9067 6.98992L28.4192 6.91074C28.1393 6.86528 28.1393 6.46268 28.4192 6.41721L28.9067 6.33803C29.0934 6.30769 29.2681 6.22589 29.4109 6.10181L29.5043 6.02071C29.5478 5.98289 29.578 5.93177 29.5837 5.87437C29.6214 5.49223 29.5245 4.7344 28.9548 4.22385C28.9083 4.18217 28.8463 4.1629 28.7839 4.16619L28.6514 4.17317C28.4456 4.18401 28.248 4.25704 28.0846 4.38262L27.6579 4.71062C27.4294 4.88627 27.1342 4.59968 27.3029 4.36604L27.7041 3.81049C27.8149 3.65709 27.8807 3.47585 27.8942 3.28711L27.903 3.16377Z" fill="url(#paint0_linear_7159_2158)"/>
<path fill-rule="evenodd" clip-rule="evenodd" d="M27.903 3.16377C27.9071 3.10624 27.8924 3.04873 27.8559 3.00409C27.6127 2.70694 27.0088 2.23891 26.2449 2.27986C26.1826 2.2832 26.1251 2.31336 26.0832 2.35973L25.9943 2.45831C25.8563 2.61132 25.768 2.80261 25.741 3.00689L25.6656 3.57911C25.6312 3.83988 25.2538 3.83988 25.2194 3.57911L25.144 3.00689C25.117 2.80261 25.0287 2.61132 24.8907 2.45831L24.8018 2.35973C24.76 2.31336 24.7025 2.2832 24.6401 2.27986C23.8762 2.23891 23.2724 2.70694 23.0291 3.00409C22.9926 3.04873 22.9779 3.10624 22.982 3.16377L22.9908 3.28711C23.0043 3.47585 23.0701 3.65709 23.1809 3.81049L23.5821 4.36604C23.7509 4.59968 23.4556 4.88627 23.2271 4.71062L22.8004 4.38262C22.6371 4.25704 22.4394 4.18401 22.2337 4.17317L22.1011 4.16619C22.0387 4.1629 21.9767 4.18217 21.9302 4.22385C21.3606 4.7344 21.2637 5.49223 21.3014 5.87437C21.307 5.93177 21.3372 5.98289 21.3808 6.02071L21.4741 6.10181C21.617 6.22589 21.7916 6.30769 21.9784 6.33803L22.4658 6.41721C22.7457 6.46268 22.7457 6.86528 22.4658 6.91074L21.9784 6.98992C21.7916 7.02026 21.617 7.10207 21.4741 7.22615L21.3808 7.30724C21.3372 7.34507 21.307 7.39619 21.3014 7.45358C21.2637 7.83573 21.3606 8.59356 21.9302 9.1041C21.9767 9.14579 22.0387 9.16505 22.1011 9.16177L22.2337 9.15479C22.4394 9.14395 22.6371 9.07091 22.8004 8.94533L23.2271 8.61734C23.4556 8.44169 23.7509 8.72827 23.5821 8.96191L23.1809 9.51746C23.0701 9.67086 23.0043 9.85211 22.9908 10.0408L22.982 10.1642C22.9779 10.2217 22.9926 10.2792 23.0291 10.3239C23.2724 10.621 23.8762 11.089 24.6401 11.0481C24.7025 11.0448 24.76 11.0146 24.8018 10.9682L24.8907 10.8696C25.0287 10.7166 25.117 10.5253 25.144 10.3211L25.1947 9.93677C25.2329 9.64702 25.6521 9.64702 25.6904 9.93677L25.741 10.3211C25.768 10.5253 25.8563 10.7166 25.9943 10.8696L26.0832 10.9682C26.1251 11.0146 26.1826 11.0448 26.2449 11.0481C27.0088 11.089 27.6127 10.621 27.8559 10.3239C27.8924 10.2792 27.9071 10.2217 27.903 10.1642L27.8942 10.0408C27.8807 9.85211 27.8149 9.67086 27.7041 9.51746L27.3029 8.96191C27.1342 8.72827 27.4294 8.44169 27.6579 8.61734L28.0846 8.94533C28.248 9.07091 28.4456 9.14395 28.6514 9.15479L28.7839 9.16177C28.8463 9.16505 28.9083 9.14579 28.9548 9.1041C29.5245 8.59356 29.6214 7.83573 29.5837 7.45358C29.578 7.39619 29.5478 7.34507 29.5043 7.30724L29.4109 7.22615C29.2681 7.10207 29.0934 7.02026 28.9067 6.98992L28.4192 6.91074C28.1393 6.86528 28.1393 6.46268 28.4192 6.41721L28.9067 6.33803C29.0934 6.30769 29.2681 6.22589 29.4109 6.10181L29.5043 6.02071C29.5478 5.98289 29.578 5.93177 29.5837 5.87437C29.6214 5.49223 29.5245 4.7344 28.9548 4.22385C28.9083 4.18217 28.8463 4.1629 28.7839 4.16619L28.6514 4.17317C28.4456 4.18401 28.248 4.25704 28.0846 4.38262L27.6579 4.71062C27.4294 4.88627 27.1342 4.59968 27.3029 4.36604L27.7041 3.81049C27.8149 3.65709 27.8807 3.47585 27.8942 3.28711L27.903 3.16377Z" fill="url(#paint1_linear_7159_2158)"/>
<path fill-rule="evenodd" clip-rule="evenodd" d="M27.903 3.16377C27.9071 3.10624 27.8924 3.04873 27.8559 3.00409C27.6127 2.70694 27.0088 2.23891 26.2449 2.27986C26.1826 2.2832 26.1251 2.31336 26.0832 2.35973L25.9943 2.45831C25.8563 2.61132 25.768 2.80261 25.741 3.00689L25.6656 3.57911C25.6312 3.83988 25.2538 3.83988 25.2194 3.57911L25.144 3.00689C25.117 2.80261 25.0287 2.61132 24.8907 2.45831L24.8018 2.35973C24.76 2.31336 24.7025 2.2832 24.6401 2.27986C23.8762 2.23891 23.2724 2.70694 23.0291 3.00409C22.9926 3.04873 22.9779 3.10624 22.982 3.16377L22.9908 3.28711C23.0043 3.47585 23.0701 3.65709 23.1809 3.81049L23.5821 4.36604C23.7509 4.59968 23.4556 4.88627 23.2271 4.71062L22.8004 4.38262C22.6371 4.25704 22.4394 4.18401 22.2337 4.17317L22.1011 4.16619C22.0387 4.1629 21.9767 4.18217 21.9302 4.22385C21.3606 4.7344 21.2637 5.49223 21.3014 5.87437C21.307 5.93177 21.3372 5.98289 21.3808 6.02071L21.4741 6.10181C21.617 6.22589 21.7916 6.30769 21.9784 6.33803L22.4658 6.41721C22.7457 6.46268 22.7457 6.86528 22.4658 6.91074L21.9784 6.98992C21.7916 7.02026 21.617 7.10207 21.4741 7.22615L21.3808 7.30724C21.3372 7.34507 21.307 7.39619 21.3014 7.45358C21.2637 7.83573 21.3606 8.59356 21.9302 9.1041C21.9767 9.14579 22.0387 9.16505 22.1011 9.16177L22.2337 9.15479C22.4394 9.14395 22.6371 9.07091 22.8004 8.94533L23.2271 8.61734C23.4556 8.44169 23.7509 8.72827 23.5821 8.96191L23.1809 9.51746C23.0701 9.67086 23.0043 9.85211 22.9908 10.0408L22.982 10.1642C22.9779 10.2217 22.9926 10.2792 23.0291 10.3239C23.2724 10.621 23.8762 11.089 24.6401 11.0481C24.7025 11.0448 24.76 11.0146 24.8018 10.9682L24.8907 10.8696C25.0287 10.7166 25.117 10.5253 25.144 10.3211L25.1947 9.93677C25.2329 9.64702 25.6521 9.64702 25.6904 9.93677L25.741 10.3211C25.768 10.5253 25.8563 10.7166 25.9943 10.8696L26.0832 10.9682C26.1251 11.0146 26.1826 11.0448 26.2449 11.0481C27.0088 11.089 27.6127 10.621 27.8559 10.3239C27.8924 10.2792 27.9071 10.2217 27.903 10.1642L27.8942 10.0408C27.8807 9.85211 27.8149 9.67086 27.7041 9.51746L27.3029 8.96191C27.1342 8.72827 27.4294 8.44169 27.6579 8.61734L28.0846 8.94533C28.248 9.07091 28.4456 9.14395 28.6514 9.15479L28.7839 9.16177C28.8463 9.16505 28.9083 9.14579 28.9548 9.1041C29.5245 8.59356 29.6214 7.83573 29.5837 7.45358C29.578 7.39619 29.5478 7.34507 29.5043 7.30724L29.4109 7.22615C29.2681 7.10207 29.0934 7.02026 28.9067 6.98992L28.4192 6.91074C28.1393 6.86528 28.1393 6.46268 28.4192 6.41721L28.9067 6.33803C29.0934 6.30769 29.2681 6.22589 29.4109 6.10181L29.5043 6.02071C29.5478 5.98289 29.578 5.93177 29.5837 5.87437C29.6214 5.49223 29.5245 4.7344 28.9548 4.22385C28.9083 4.18217 28.8463 4.1629 28.7839 4.16619L28.6514 4.17317C28.4456 4.18401 28.248 4.25704 28.0846 4.38262L27.6579 4.71062C27.4294 4.88627 27.1342 4.59968 27.3029 4.36604L27.7041 3.81049C27.8149 3.65709 27.8807 3.47585 27.8942 3.28711L27.903 3.16377Z" fill="url(#paint2_radial_7159_2158)"/>
<path fill-rule="evenodd" clip-rule="evenodd" d="M27.903 3.16377C27.9071 3.10624 27.8924 3.04873 27.8559 3.00409C27.6127 2.70694 27.0088 2.23891 26.2449 2.27986C26.1826 2.2832 26.1251 2.31336 26.0832 2.35973L25.9943 2.45831C25.8563 2.61132 25.768 2.80261 25.741 3.00689L25.6656 3.57911C25.6312 3.83988 25.2538 3.83988 25.2194 3.57911L25.144 3.00689C25.117 2.80261 25.0287 2.61132 24.8907 2.45831L24.8018 2.35973C24.76 2.31336 24.7025 2.2832 24.6401 2.27986C23.8762 2.23891 23.2724 2.70694 23.0291 3.00409C22.9926 3.04873 22.9779 3.10624 22.982 3.16377L22.9908 3.28711C23.0043 3.47585 23.0701 3.65709 23.1809 3.81049L23.5821 4.36604C23.7509 4.59968 23.4556 4.88627 23.2271 4.71062L22.8004 4.38262C22.6371 4.25704 22.4394 4.18401 22.2337 4.17317L22.1011 4.16619C22.0387 4.1629 21.9767 4.18217 21.9302 4.22385C21.3606 4.7344 21.2637 5.49223 21.3014 5.87437C21.307 5.93177 21.3372 5.98289 21.3808 6.02071L21.4741 6.10181C21.617 6.22589 21.7916 6.30769 21.9784 6.33803L22.4658 6.41721C22.7457 6.46268 22.7457 6.86528 22.4658 6.91074L21.9784 6.98992C21.7916 7.02026 21.617 7.10207 21.4741 7.22615L21.3808 7.30724C21.3372 7.34507 21.307 7.39619 21.3014 7.45358C21.2637 7.83573 21.3606 8.59356 21.9302 9.1041C21.9767 9.14579 22.0387 9.16505 22.1011 9.16177L22.2337 9.15479C22.4394 9.14395 22.6371 9.07091 22.8004 8.94533L23.2271 8.61734C23.4556 8.44169 23.7509 8.72827 23.5821 8.96191L23.1809 9.51746C23.0701 9.67086 23.0043 9.85211 22.9908 10.0408L22.982 10.1642C22.9779 10.2217 22.9926 10.2792 23.0291 10.3239C23.2724 10.621 23.8762 11.089 24.6401 11.0481C24.7025 11.0448 24.76 11.0146 24.8018 10.9682L24.8907 10.8696C25.0287 10.7166 25.117 10.5253 25.144 10.3211L25.1947 9.93677C25.2329 9.64702 25.6521 9.64702 25.6904 9.93677L25.741 10.3211C25.768 10.5253 25.8563 10.7166 25.9943 10.8696L26.0832 10.9682C26.1251 11.0146 26.1826 11.0448 26.2449 11.0481C27.0088 11.089 27.6127 10.621 27.8559 10.3239C27.8924 10.2792 27.9071 10.2217 27.903 10.1642L27.8942 10.0408C27.8807 9.85211 27.8149 9.67086 27.7041 9.51746L27.3029 8.96191C27.1342 8.72827 27.4294 8.44169 27.6579 8.61734L28.0846 8.94533C28.248 9.07091 28.4456 9.14395 28.6514 9.15479L28.7839 9.16177C28.8463 9.16505 28.9083 9.14579 28.9548 9.1041C29.5245 8.59356 29.6214 7.83573 29.5837 7.45358C29.578 7.39619 29.5478 7.34507 29.5043 7.30724L29.4109 7.22615C29.2681 7.10207 29.0934 7.02026 28.9067 6.98992L28.4192 6.91074C28.1393 6.86528 28.1393 6.46268 28.4192 6.41721L28.9067 6.33803C29.0934 6.30769 29.2681 6.22589 29.4109 6.10181L29.5043 6.02071C29.5478 5.98289 29.578 5.93177 29.5837 5.87437C29.6214 5.49223 29.5245 4.7344 28.9548 4.22385C28.9083 4.18217 28.8463 4.1629 28.7839 4.16619L28.6514 4.17317C28.4456 4.18401 28.248 4.25704 28.0846 4.38262L27.6579 4.71062C27.4294 4.88627 27.1342 4.59968 27.3029 4.36604L27.7041 3.81049C27.8149 3.65709 27.8807 3.47585 27.8942 3.28711L27.903 3.16377Z" fill="url(#paint3_radial_7159_2158)"/>
<path fill-rule="evenodd" clip-rule="evenodd" d="M27.903 3.16377C27.9071 3.10624 27.8924 3.04873 27.8559 3.00409C27.6127 2.70694 27.0088 2.23891 26.2449 2.27986C26.1826 2.2832 26.1251 2.31336 26.0832 2.35973L25.9943 2.45831C25.8563 2.61132 25.768 2.80261 25.741 3.00689L25.6656 3.57911C25.6312 3.83988 25.2538 3.83988 25.2194 3.57911L25.144 3.00689C25.117 2.80261 25.0287 2.61132 24.8907 2.45831L24.8018 2.35973C24.76 2.31336 24.7025 2.2832 24.6401 2.27986C23.8762 2.23891 23.2724 2.70694 23.0291 3.00409C22.9926 3.04873 22.9779 3.10624 22.982 3.16377L22.9908 3.28711C23.0043 3.47585 23.0701 3.65709 23.1809 3.81049L23.5821 4.36604C23.7509 4.59968 23.4556 4.88627 23.2271 4.71062L22.8004 4.38262C22.6371 4.25704 22.4394 4.18401 22.2337 4.17317L22.1011 4.16619C22.0387 4.1629 21.9767 4.18217 21.9302 4.22385C21.3606 4.7344 21.2637 5.49223 21.3014 5.87437C21.307 5.93177 21.3372 5.98289 21.3808 6.02071L21.4741 6.10181C21.617 6.22589 21.7916 6.30769 21.9784 6.33803L22.4658 6.41721C22.7457 6.46268 22.7457 6.86528 22.4658 6.91074L21.9784 6.98992C21.7916 7.02026 21.617 7.10207 21.4741 7.22615L21.3808 7.30724C21.3372 7.34507 21.307 7.39619 21.3014 7.45358C21.2637 7.83573 21.3606 8.59356 21.9302 9.1041C21.9767 9.14579 22.0387 9.16505 22.1011 9.16177L22.2337 9.15479C22.4394 9.14395 22.6371 9.07091 22.8004 8.94533L23.2271 8.61734C23.4556 8.44169 23.7509 8.72827 23.5821 8.96191L23.1809 9.51746C23.0701 9.67086 23.0043 9.85211 22.9908 10.0408L22.982 10.1642C22.9779 10.2217 22.9926 10.2792 23.0291 10.3239C23.2724 10.621 23.8762 11.089 24.6401 11.0481C24.7025 11.0448 24.76 11.0146 24.8018 10.9682L24.8907 10.8696C25.0287 10.7166 25.117 10.5253 25.144 10.3211L25.1947 9.93677C25.2329 9.64702 25.6521 9.64702 25.6904 9.93677L25.741 10.3211C25.768 10.5253 25.8563 10.7166 25.9943 10.8696L26.0832 10.9682C26.1251 11.0146 26.1826 11.0448 26.2449 11.0481C27.0088 11.089 27.6127 10.621 27.8559 10.3239C27.8924 10.2792 27.9071 10.2217 27.903 10.1642L27.8942 10.0408C27.8807 9.85211 27.8149 9.67086 27.7041 9.51746L27.3029 8.96191C27.1342 8.72827 27.4294 8.44169 27.6579 8.61734L28.0846 8.94533C28.248 9.07091 28.4456 9.14395 28.6514 9.15479L28.7839 9.16177C28.8463 9.16505 28.9083 9.14579 28.9548 9.1041C29.5245 8.59356 29.6214 7.83573 29.5837 7.45358C29.578 7.39619 29.5478 7.34507 29.5043 7.30724L29.4109 7.22615C29.2681 7.10207 29.0934 7.02026 28.9067 6.98992L28.4192 6.91074C28.1393 6.86528 28.1393 6.46268 28.4192 6.41721L28.9067 6.33803C29.0934 6.30769 29.2681 6.22589 29.4109 6.10181L29.5043 6.02071C29.5478 5.98289 29.578 5.93177 29.5837 5.87437C29.6214 5.49223 29.5245 4.7344 28.9548 4.22385C28.9083 4.18217 28.8463 4.1629 28.7839 4.16619L28.6514 4.17317C28.4456 4.18401 28.248 4.25704 28.0846 4.38262L27.6579 4.71062C27.4294 4.88627 27.1342 4.59968 27.3029 4.36604L27.7041 3.81049C27.8149 3.65709 27.8807 3.47585 27.8942 3.28711L27.903 3.16377Z" fill="url(#paint4_radial_7159_2158)"/>
<path fill-rule="evenodd" clip-rule="evenodd" d="M27.903 3.16377C27.9071 3.10624 27.8924 3.04873 27.8559 3.00409C27.6127 2.70694 27.0088 2.23891 26.2449 2.27986C26.1826 2.2832 26.1251 2.31336 26.0832 2.35973L25.9943 2.45831C25.8563 2.61132 25.768 2.80261 25.741 3.00689L25.6656 3.57911C25.6312 3.83988 25.2538 3.83988 25.2194 3.57911L25.144 3.00689C25.117 2.80261 25.0287 2.61132 24.8907 2.45831L24.8018 2.35973C24.76 2.31336 24.7025 2.2832 24.6401 2.27986C23.8762 2.23891 23.2724 2.70694 23.0291 3.00409C22.9926 3.04873 22.9779 3.10624 22.982 3.16377L22.9908 3.28711C23.0043 3.47585 23.0701 3.65709 23.1809 3.81049L23.5821 4.36604C23.7509 4.59968 23.4556 4.88627 23.2271 4.71062L22.8004 4.38262C22.6371 4.25704 22.4394 4.18401 22.2337 4.17317L22.1011 4.16619C22.0387 4.1629 21.9767 4.18217 21.9302 4.22385C21.3606 4.7344 21.2637 5.49223 21.3014 5.87437C21.307 5.93177 21.3372 5.98289 21.3808 6.02071L21.4741 6.10181C21.617 6.22589 21.7916 6.30769 21.9784 6.33803L22.4658 6.41721C22.7457 6.46268 22.7457 6.86528 22.4658 6.91074L21.9784 6.98992C21.7916 7.02026 21.617 7.10207 21.4741 7.22615L21.3808 7.30724C21.3372 7.34507 21.307 7.39619 21.3014 7.45358C21.2637 7.83573 21.3606 8.59356 21.9302 9.1041C21.9767 9.14579 22.0387 9.16505 22.1011 9.16177L22.2337 9.15479C22.4394 9.14395 22.6371 9.07091 22.8004 8.94533L23.2271 8.61734C23.4556 8.44169 23.7509 8.72827 23.5821 8.96191L23.1809 9.51746C23.0701 9.67086 23.0043 9.85211 22.9908 10.0408L22.982 10.1642C22.9779 10.2217 22.9926 10.2792 23.0291 10.3239C23.2724 10.621 23.8762 11.089 24.6401 11.0481C24.7025 11.0448 24.76 11.0146 24.8018 10.9682L24.8907 10.8696C25.0287 10.7166 25.117 10.5253 25.144 10.3211L25.1947 9.93677C25.2329 9.64702 25.6521 9.64702 25.6904 9.93677L25.741 10.3211C25.768 10.5253 25.8563 10.7166 25.9943 10.8696L26.0832 10.9682C26.1251 11.0146 26.1826 11.0448 26.2449 11.0481C27.0088 11.089 27.6127 10.621 27.8559 10.3239C27.8924 10.2792 27.9071 10.2217 27.903 10.1642L27.8942 10.0408C27.8807 9.85211 27.8149 9.67086 27.7041 9.51746L27.3029 8.96191C27.1342 8.72827 27.4294 8.44169 27.6579 8.61734L28.0846 8.94533C28.248 9.07091 28.4456 9.14395 28.6514 9.15479L28.7839 9.16177C28.8463 9.16505 28.9083 9.14579 28.9548 9.1041C29.5245 8.59356 29.6214 7.83573 29.5837 7.45358C29.578 7.39619 29.5478 7.34507 29.5043 7.30724L29.4109 7.22615C29.2681 7.10207 29.0934 7.02026 28.9067 6.98992L28.4192 6.91074C28.1393 6.86528 28.1393 6.46268 28.4192 6.41721L28.9067 6.33803C29.0934 6.30769 29.2681 6.22589 29.4109 6.10181L29.5043 6.02071C29.5478 5.98289 29.578 5.93177 29.5837 5.87437C29.6214 5.49223 29.5245 4.7344 28.9548 4.22385C28.9083 4.18217 28.8463 4.1629 28.7839 4.16619L28.6514 4.17317C28.4456 4.18401 28.248 4.25704 28.0846 4.38262L27.6579 4.71062C27.4294 4.88627 27.1342 4.59968 27.3029 4.36604L27.7041 3.81049C27.8149 3.65709 27.8807 3.47585 27.8942 3.28711L27.903 3.16377Z" fill="url(#paint5_radial_7159_2158)"/>
<path fill-rule="evenodd" clip-rule="evenodd" d="M27.903 3.16377C27.9071 3.10624 27.8924 3.04873 27.8559 3.00409C27.6127 2.70694 27.0088 2.23891 26.2449 2.27986C26.1826 2.2832 26.1251 2.31336 26.0832 2.35973L25.9943 2.45831C25.8563 2.61132 25.768 2.80261 25.741 3.00689L25.6656 3.57911C25.6312 3.83988 25.2538 3.83988 25.2194 3.57911L25.144 3.00689C25.117 2.80261 25.0287 2.61132 24.8907 2.45831L24.8018 2.35973C24.76 2.31336 24.7025 2.2832 24.6401 2.27986C23.8762 2.23891 23.2724 2.70694 23.0291 3.00409C22.9926 3.04873 22.9779 3.10624 22.982 3.16377L22.9908 3.28711C23.0043 3.47585 23.0701 3.65709 23.1809 3.81049L23.5821 4.36604C23.7509 4.59968 23.4556 4.88627 23.2271 4.71062L22.8004 4.38262C22.6371 4.25704 22.4394 4.18401 22.2337 4.17317L22.1011 4.16619C22.0387 4.1629 21.9767 4.18217 21.9302 4.22385C21.3606 4.7344 21.2637 5.49223 21.3014 5.87437C21.307 5.93177 21.3372 5.98289 21.3808 6.02071L21.4741 6.10181C21.617 6.22589 21.7916 6.30769 21.9784 6.33803L22.4658 6.41721C22.7457 6.46268 22.7457 6.86528 22.4658 6.91074L21.9784 6.98992C21.7916 7.02026 21.617 7.10207 21.4741 7.22615L21.3808 7.30724C21.3372 7.34507 21.307 7.39619 21.3014 7.45358C21.2637 7.83573 21.3606 8.59356 21.9302 9.1041C21.9767 9.14579 22.0387 9.16505 22.1011 9.16177L22.2337 9.15479C22.4394 9.14395 22.6371 9.07091 22.8004 8.94533L23.2271 8.61734C23.4556 8.44169 23.7509 8.72827 23.5821 8.96191L23.1809 9.51746C23.0701 9.67086 23.0043 9.85211 22.9908 10.0408L22.982 10.1642C22.9779 10.2217 22.9926 10.2792 23.0291 10.3239C23.2724 10.621 23.8762 11.089 24.6401 11.0481C24.7025 11.0448 24.76 11.0146 24.8018 10.9682L24.8907 10.8696C25.0287 10.7166 25.117 10.5253 25.144 10.3211L25.1947 9.93677C25.2329 9.64702 25.6521 9.64702 25.6904 9.93677L25.741 10.3211C25.768 10.5253 25.8563 10.7166 25.9943 10.8696L26.0832 10.9682C26.1251 11.0146 26.1826 11.0448 26.2449 11.0481C27.0088 11.089 27.6127 10.621 27.8559 10.3239C27.8924 10.2792 27.9071 10.2217 27.903 10.1642L27.8942 10.0408C27.8807 9.85211 27.8149 9.67086 27.7041 9.51746L27.3029 8.96191C27.1342 8.72827 27.4294 8.44169 27.6579 8.61734L28.0846 8.94533C28.248 9.07091 28.4456 9.14395 28.6514 9.15479L28.7839 9.16177C28.8463 9.16505 28.9083 9.14579 28.9548 9.1041C29.5245 8.59356 29.6214 7.83573 29.5837 7.45358C29.578 7.39619 29.5478 7.34507 29.5043 7.30724L29.4109 7.22615C29.2681 7.10207 29.0934 7.02026 28.9067 6.98992L28.4192 6.91074C28.1393 6.86528 28.1393 6.46268 28.4192 6.41721L28.9067 6.33803C29.0934 6.30769 29.2681 6.22589 29.4109 6.10181L29.5043 6.02071C29.5478 5.98289 29.578 5.93177 29.5837 5.87437C29.6214 5.49223 29.5245 4.7344 28.9548 4.22385C28.9083 4.18217 28.8463 4.1629 28.7839 4.16619L28.6514 4.17317C28.4456 4.18401 28.248 4.25704 28.0846 4.38262L27.6579 4.71062C27.4294 4.88627 27.1342 4.59968 27.3029 4.36604L27.7041 3.81049C27.8149 3.65709 27.8807 3.47585 27.8942 3.28711L27.903 3.16377Z" fill="url(#paint6_radial_7159_2158)"/>
<path fill-rule="evenodd" clip-rule="evenodd" d="M27.903 3.16377C27.9071 3.10624 27.8924 3.04873 27.8559 3.00409C27.6127 2.70694 27.0088 2.23891 26.2449 2.27986C26.1826 2.2832 26.1251 2.31336 26.0832 2.35973L25.9943 2.45831C25.8563 2.61132 25.768 2.80261 25.741 3.00689L25.6656 3.57911C25.6312 3.83988 25.2538 3.83988 25.2194 3.57911L25.144 3.00689C25.117 2.80261 25.0287 2.61132 24.8907 2.45831L24.8018 2.35973C24.76 2.31336 24.7025 2.2832 24.6401 2.27986C23.8762 2.23891 23.2724 2.70694 23.0291 3.00409C22.9926 3.04873 22.9779 3.10624 22.982 3.16377L22.9908 3.28711C23.0043 3.47585 23.0701 3.65709 23.1809 3.81049L23.5821 4.36604C23.7509 4.59968 23.4556 4.88627 23.2271 4.71062L22.8004 4.38262C22.6371 4.25704 22.4394 4.18401 22.2337 4.17317L22.1011 4.16619C22.0387 4.1629 21.9767 4.18217 21.9302 4.22385C21.3606 4.7344 21.2637 5.49223 21.3014 5.87437C21.307 5.93177 21.3372 5.98289 21.3808 6.02071L21.4741 6.10181C21.617 6.22589 21.7916 6.30769 21.9784 6.33803L22.4658 6.41721C22.7457 6.46268 22.7457 6.86528 22.4658 6.91074L21.9784 6.98992C21.7916 7.02026 21.617 7.10207 21.4741 7.22615L21.3808 7.30724C21.3372 7.34507 21.307 7.39619 21.3014 7.45358C21.2637 7.83573 21.3606 8.59356 21.9302 9.1041C21.9767 9.14579 22.0387 9.16505 22.1011 9.16177L22.2337 9.15479C22.4394 9.14395 22.6371 9.07091 22.8004 8.94533L23.2271 8.61734C23.4556 8.44169 23.7509 8.72827 23.5821 8.96191L23.1809 9.51746C23.0701 9.67086 23.0043 9.85211 22.9908 10.0408L22.982 10.1642C22.9779 10.2217 22.9926 10.2792 23.0291 10.3239C23.2724 10.621 23.8762 11.089 24.6401 11.0481C24.7025 11.0448 24.76 11.0146 24.8018 10.9682L24.8907 10.8696C25.0287 10.7166 25.117 10.5253 25.144 10.3211L25.1947 9.93677C25.2329 9.64702 25.6521 9.64702 25.6904 9.93677L25.741 10.3211C25.768 10.5253 25.8563 10.7166 25.9943 10.8696L26.0832 10.9682C26.1251 11.0146 26.1826 11.0448 26.2449 11.0481C27.0088 11.089 27.6127 10.621 27.8559 10.3239C27.8924 10.2792 27.9071 10.2217 27.903 10.1642L27.8942 10.0408C27.8807 9.85211 27.8149 9.67086 27.7041 9.51746L27.3029 8.96191C27.1342 8.72827 27.4294 8.44169 27.6579 8.61734L28.0846 8.94533C28.248 9.07091 28.4456 9.14395 28.6514 9.15479L28.7839 9.16177C28.8463 9.16505 28.9083 9.14579 28.9548 9.1041C29.5245 8.59356 29.6214 7.83573 29.5837 7.45358C29.578 7.39619 29.5478 7.34507 29.5043 7.30724L29.4109 7.22615C29.2681 7.10207 29.0934 7.02026 28.9067 6.98992L28.4192 6.91074C28.1393 6.86528 28.1393 6.46268 28.4192 6.41721L28.9067 6.33803C29.0934 6.30769 29.2681 6.22589 29.4109 6.10181L29.5043 6.02071C29.5478 5.98289 29.578 5.93177 29.5837 5.87437C29.6214 5.49223 29.5245 4.7344 28.9548 4.22385C28.9083 4.18217 28.8463 4.1629 28.7839 4.16619L28.6514 4.17317C28.4456 4.18401 28.248 4.25704 28.0846 4.38262L27.6579 4.71062C27.4294 4.88627 27.1342 4.59968 27.3029 4.36604L27.7041 3.81049C27.8149 3.65709 27.8807 3.47585 27.8942 3.28711L27.903 3.16377Z" fill="url(#paint7_radial_7159_2158)"/>
<path fill-rule="evenodd" clip-rule="evenodd" d="M27.903 3.16377C27.9071 3.10624 27.8924 3.04873 27.8559 3.00409C27.6127 2.70694 27.0088 2.23891 26.2449 2.27986C26.1826 2.2832 26.1251 2.31336 26.0832 2.35973L25.9943 2.45831C25.8563 2.61132 25.768 2.80261 25.741 3.00689L25.6656 3.57911C25.6312 3.83988 25.2538 3.83988 25.2194 3.57911L25.144 3.00689C25.117 2.80261 25.0287 2.61132 24.8907 2.45831L24.8018 2.35973C24.76 2.31336 24.7025 2.2832 24.6401 2.27986C23.8762 2.23891 23.2724 2.70694 23.0291 3.00409C22.9926 3.04873 22.9779 3.10624 22.982 3.16377L22.9908 3.28711C23.0043 3.47585 23.0701 3.65709 23.1809 3.81049L23.5821 4.36604C23.7509 4.59968 23.4556 4.88627 23.2271 4.71062L22.8004 4.38262C22.6371 4.25704 22.4394 4.18401 22.2337 4.17317L22.1011 4.16619C22.0387 4.1629 21.9767 4.18217 21.9302 4.22385C21.3606 4.7344 21.2637 5.49223 21.3014 5.87437C21.307 5.93177 21.3372 5.98289 21.3808 6.02071L21.4741 6.10181C21.617 6.22589 21.7916 6.30769 21.9784 6.33803L22.4658 6.41721C22.7457 6.46268 22.7457 6.86528 22.4658 6.91074L21.9784 6.98992C21.7916 7.02026 21.617 7.10207 21.4741 7.22615L21.3808 7.30724C21.3372 7.34507 21.307 7.39619 21.3014 7.45358C21.2637 7.83573 21.3606 8.59356 21.9302 9.1041C21.9767 9.14579 22.0387 9.16505 22.1011 9.16177L22.2337 9.15479C22.4394 9.14395 22.6371 9.07091 22.8004 8.94533L23.2271 8.61734C23.4556 8.44169 23.7509 8.72827 23.5821 8.96191L23.1809 9.51746C23.0701 9.67086 23.0043 9.85211 22.9908 10.0408L22.982 10.1642C22.9779 10.2217 22.9926 10.2792 23.0291 10.3239C23.2724 10.621 23.8762 11.089 24.6401 11.0481C24.7025 11.0448 24.76 11.0146 24.8018 10.9682L24.8907 10.8696C25.0287 10.7166 25.117 10.5253 25.144 10.3211L25.1947 9.93677C25.2329 9.64702 25.6521 9.64702 25.6904 9.93677L25.741 10.3211C25.768 10.5253 25.8563 10.7166 25.9943 10.8696L26.0832 10.9682C26.1251 11.0146 26.1826 11.0448 26.2449 11.0481C27.0088 11.089 27.6127 10.621 27.8559 10.3239C27.8924 10.2792 27.9071 10.2217 27.903 10.1642L27.8942 10.0408C27.8807 9.85211 27.8149 9.67086 27.7041 9.51746L27.3029 8.96191C27.1342 8.72827 27.4294 8.44169 27.6579 8.61734L28.0846 8.94533C28.248 9.07091 28.4456 9.14395 28.6514 9.15479L28.7839 9.16177C28.8463 9.16505 28.9083 9.14579 28.9548 9.1041C29.5245 8.59356 29.6214 7.83573 29.5837 7.45358C29.578 7.39619 29.5478 7.34507 29.5043 7.30724L29.4109 7.22615C29.2681 7.10207 29.0934 7.02026 28.9067 6.98992L28.4192 6.91074C28.1393 6.86528 28.1393 6.46268 28.4192 6.41721L28.9067 6.33803C29.0934 6.30769 29.2681 6.22589 29.4109 6.10181L29.5043 6.02071C29.5478 5.98289 29.578 5.93177 29.5837 5.87437C29.6214 5.49223 29.5245 4.7344 28.9548 4.22385C28.9083 4.18217 28.8463 4.1629 28.7839 4.16619L28.6514 4.17317C28.4456 4.18401 28.248 4.25704 28.0846 4.38262L27.6579 4.71062C27.4294 4.88627 27.1342 4.59968 27.3029 4.36604L27.7041 3.81049C27.8149 3.65709 27.8807 3.47585 27.8942 3.28711L27.903 3.16377Z" fill="url(#paint8_radial_7159_2158)"/>
<path fill-rule="evenodd" clip-rule="evenodd" d="M27.903 3.16377C27.9071 3.10624 27.8924 3.04873 27.8559 3.00409C27.6127 2.70694 27.0088 2.23891 26.2449 2.27986C26.1826 2.2832 26.1251 2.31336 26.0832 2.35973L25.9943 2.45831C25.8563 2.61132 25.768 2.80261 25.741 3.00689L25.6656 3.57911C25.6312 3.83988 25.2538 3.83988 25.2194 3.57911L25.144 3.00689C25.117 2.80261 25.0287 2.61132 24.8907 2.45831L24.8018 2.35973C24.76 2.31336 24.7025 2.2832 24.6401 2.27986C23.8762 2.23891 23.2724 2.70694 23.0291 3.00409C22.9926 3.04873 22.9779 3.10624 22.982 3.16377L22.9908 3.28711C23.0043 3.47585 23.0701 3.65709 23.1809 3.81049L23.5821 4.36604C23.7509 4.59968 23.4556 4.88627 23.2271 4.71062L22.8004 4.38262C22.6371 4.25704 22.4394 4.18401 22.2337 4.17317L22.1011 4.16619C22.0387 4.1629 21.9767 4.18217 21.9302 4.22385C21.3606 4.7344 21.2637 5.49223 21.3014 5.87437C21.307 5.93177 21.3372 5.98289 21.3808 6.02071L21.4741 6.10181C21.617 6.22589 21.7916 6.30769 21.9784 6.33803L22.4658 6.41721C22.7457 6.46268 22.7457 6.86528 22.4658 6.91074L21.9784 6.98992C21.7916 7.02026 21.617 7.10207 21.4741 7.22615L21.3808 7.30724C21.3372 7.34507 21.307 7.39619 21.3014 7.45358C21.2637 7.83573 21.3606 8.59356 21.9302 9.1041C21.9767 9.14579 22.0387 9.16505 22.1011 9.16177L22.2337 9.15479C22.4394 9.14395 22.6371 9.07091 22.8004 8.94533L23.2271 8.61734C23.4556 8.44169 23.7509 8.72827 23.5821 8.96191L23.1809 9.51746C23.0701 9.67086 23.0043 9.85211 22.9908 10.0408L22.982 10.1642C22.9779 10.2217 22.9926 10.2792 23.0291 10.3239C23.2724 10.621 23.8762 11.089 24.6401 11.0481C24.7025 11.0448 24.76 11.0146 24.8018 10.9682L24.8907 10.8696C25.0287 10.7166 25.117 10.5253 25.144 10.3211L25.1947 9.93677C25.2329 9.64702 25.6521 9.64702 25.6904 9.93677L25.741 10.3211C25.768 10.5253 25.8563 10.7166 25.9943 10.8696L26.0832 10.9682C26.1251 11.0146 26.1826 11.0448 26.2449 11.0481C27.0088 11.089 27.6127 10.621 27.8559 10.3239C27.8924 10.2792 27.9071 10.2217 27.903 10.1642L27.8942 10.0408C27.8807 9.85211 27.8149 9.67086 27.7041 9.51746L27.3029 8.96191C27.1342 8.72827 27.4294 8.44169 27.6579 8.61734L28.0846 8.94533C28.248 9.07091 28.4456 9.14395 28.6514 9.15479L28.7839 9.16177C28.8463 9.16505 28.9083 9.14579 28.9548 9.1041C29.5245 8.59356 29.6214 7.83573 29.5837 7.45358C29.578 7.39619 29.5478 7.34507 29.5043 7.30724L29.4109 7.22615C29.2681 7.10207 29.0934 7.02026 28.9067 6.98992L28.4192 6.91074C28.1393 6.86528 28.1393 6.46268 28.4192 6.41721L28.9067 6.33803C29.0934 6.30769 29.2681 6.22589 29.4109 6.10181L29.5043 6.02071C29.5478 5.98289 29.578 5.93177 29.5837 5.87437C29.6214 5.49223 29.5245 4.7344 28.9548 4.22385C28.9083 4.18217 28.8463 4.1629 28.7839 4.16619L28.6514 4.17317C28.4456 4.18401 28.248 4.25704 28.0846 4.38262L27.6579 4.71062C27.4294 4.88627 27.1342 4.59968 27.3029 4.36604L27.7041 3.81049C27.8149 3.65709 27.8807 3.47585 27.8942 3.28711L27.903 3.16377Z" fill="url(#paint9_radial_7159_2158)"/>
<path fill-rule="evenodd" clip-rule="evenodd" d="M27.903 3.16377C27.9071 3.10624 27.8924 3.04873 27.8559 3.00409C27.6127 2.70694 27.0088 2.23891 26.2449 2.27986C26.1826 2.2832 26.1251 2.31336 26.0832 2.35973L25.9943 2.45831C25.8563 2.61132 25.768 2.80261 25.741 3.00689L25.6656 3.57911C25.6312 3.83988 25.2538 3.83988 25.2194 3.57911L25.144 3.00689C25.117 2.80261 25.0287 2.61132 24.8907 2.45831L24.8018 2.35973C24.76 2.31336 24.7025 2.2832 24.6401 2.27986C23.8762 2.23891 23.2724 2.70694 23.0291 3.00409C22.9926 3.04873 22.9779 3.10624 22.982 3.16377L22.9908 3.28711C23.0043 3.47585 23.0701 3.65709 23.1809 3.81049L23.5821 4.36604C23.7509 4.59968 23.4556 4.88627 23.2271 4.71062L22.8004 4.38262C22.6371 4.25704 22.4394 4.18401 22.2337 4.17317L22.1011 4.16619C22.0387 4.1629 21.9767 4.18217 21.9302 4.22385C21.3606 4.7344 21.2637 5.49223 21.3014 5.87437C21.307 5.93177 21.3372 5.98289 21.3808 6.02071L21.4741 6.10181C21.617 6.22589 21.7916 6.30769 21.9784 6.33803L22.4658 6.41721C22.7457 6.46268 22.7457 6.86528 22.4658 6.91074L21.9784 6.98992C21.7916 7.02026 21.617 7.10207 21.4741 7.22615L21.3808 7.30724C21.3372 7.34507 21.307 7.39619 21.3014 7.45358C21.2637 7.83573 21.3606 8.59356 21.9302 9.1041C21.9767 9.14579 22.0387 9.16505 22.1011 9.16177L22.2337 9.15479C22.4394 9.14395 22.6371 9.07091 22.8004 8.94533L23.2271 8.61734C23.4556 8.44169 23.7509 8.72827 23.5821 8.96191L23.1809 9.51746C23.0701 9.67086 23.0043 9.85211 22.9908 10.0408L22.982 10.1642C22.9779 10.2217 22.9926 10.2792 23.0291 10.3239C23.2724 10.621 23.8762 11.089 24.6401 11.0481C24.7025 11.0448 24.76 11.0146 24.8018 10.9682L24.8907 10.8696C25.0287 10.7166 25.117 10.5253 25.144 10.3211L25.1947 9.93677C25.2329 9.64702 25.6521 9.64702 25.6904 9.93677L25.741 10.3211C25.768 10.5253 25.8563 10.7166 25.9943 10.8696L26.0832 10.9682C26.1251 11.0146 26.1826 11.0448 26.2449 11.0481C27.0088 11.089 27.6127 10.621 27.8559 10.3239C27.8924 10.2792 27.9071 10.2217 27.903 10.1642L27.8942 10.0408C27.8807 9.85211 27.8149 9.67086 27.7041 9.51746L27.3029 8.96191C27.1342 8.72827 27.4294 8.44169 27.6579 8.61734L28.0846 8.94533C28.248 9.07091 28.4456 9.14395 28.6514 9.15479L28.7839 9.16177C28.8463 9.16505 28.9083 9.14579 28.9548 9.1041C29.5245 8.59356 29.6214 7.83573 29.5837 7.45358C29.578 7.39619 29.5478 7.34507 29.5043 7.30724L29.4109 7.22615C29.2681 7.10207 29.0934 7.02026 28.9067 6.98992L28.4192 6.91074C28.1393 6.86528 28.1393 6.46268 28.4192 6.41721L28.9067 6.33803C29.0934 6.30769 29.2681 6.22589 29.4109 6.10181L29.5043 6.02071C29.5478 5.98289 29.578 5.93177 29.5837 5.87437C29.6214 5.49223 29.5245 4.7344 28.9548 4.22385C28.9083 4.18217 28.8463 4.1629 28.7839 4.16619L28.6514 4.17317C28.4456 4.18401 28.248 4.25704 28.0846 4.38262L27.6579 4.71062C27.4294 4.88627 27.1342 4.59968 27.3029 4.36604L27.7041 3.81049C27.8149 3.65709 27.8807 3.47585 27.8942 3.28711L27.903 3.16377Z" fill="url(#paint10_radial_7159_2158)"/>
<path fill-rule="evenodd" clip-rule="evenodd" d="M27.903 3.16377C27.9071 3.10624 27.8924 3.04873 27.8559 3.00409C27.6127 2.70694 27.0088 2.23891 26.2449 2.27986C26.1826 2.2832 26.1251 2.31336 26.0832 2.35973L25.9943 2.45831C25.8563 2.61132 25.768 2.80261 25.741 3.00689L25.6656 3.57911C25.6312 3.83988 25.2538 3.83988 25.2194 3.57911L25.144 3.00689C25.117 2.80261 25.0287 2.61132 24.8907 2.45831L24.8018 2.35973C24.76 2.31336 24.7025 2.2832 24.6401 2.27986C23.8762 2.23891 23.2724 2.70694 23.0291 3.00409C22.9926 3.04873 22.9779 3.10624 22.982 3.16377L22.9908 3.28711C23.0043 3.47585 23.0701 3.65709 23.1809 3.81049L23.5821 4.36604C23.7509 4.59968 23.4556 4.88627 23.2271 4.71062L22.8004 4.38262C22.6371 4.25704 22.4394 4.18401 22.2337 4.17317L22.1011 4.16619C22.0387 4.1629 21.9767 4.18217 21.9302 4.22385C21.3606 4.7344 21.2637 5.49223 21.3014 5.87437C21.307 5.93177 21.3372 5.98289 21.3808 6.02071L21.4741 6.10181C21.617 6.22589 21.7916 6.30769 21.9784 6.33803L22.4658 6.41721C22.7457 6.46268 22.7457 6.86528 22.4658 6.91074L21.9784 6.98992C21.7916 7.02026 21.617 7.10207 21.4741 7.22615L21.3808 7.30724C21.3372 7.34507 21.307 7.39619 21.3014 7.45358C21.2637 7.83573 21.3606 8.59356 21.9302 9.1041C21.9767 9.14579 22.0387 9.16505 22.1011 9.16177L22.2337 9.15479C22.4394 9.14395 22.6371 9.07091 22.8004 8.94533L23.2271 8.61734C23.4556 8.44169 23.7509 8.72827 23.5821 8.96191L23.1809 9.51746C23.0701 9.67086 23.0043 9.85211 22.9908 10.0408L22.982 10.1642C22.9779 10.2217 22.9926 10.2792 23.0291 10.3239C23.2724 10.621 23.8762 11.089 24.6401 11.0481C24.7025 11.0448 24.76 11.0146 24.8018 10.9682L24.8907 10.8696C25.0287 10.7166 25.117 10.5253 25.144 10.3211L25.1947 9.93677C25.2329 9.64702 25.6521 9.64702 25.6904 9.93677L25.741 10.3211C25.768 10.5253 25.8563 10.7166 25.9943 10.8696L26.0832 10.9682C26.1251 11.0146 26.1826 11.0448 26.2449 11.0481C27.0088 11.089 27.6127 10.621 27.8559 10.3239C27.8924 10.2792 27.9071 10.2217 27.903 10.1642L27.8942 10.0408C27.8807 9.85211 27.8149 9.67086 27.7041 9.51746L27.3029 8.96191C27.1342 8.72827 27.4294 8.44169 27.6579 8.61734L28.0846 8.94533C28.248 9.07091 28.4456 9.14395 28.6514 9.15479L28.7839 9.16177C28.8463 9.16505 28.9083 9.14579 28.9548 9.1041C29.5245 8.59356 29.6214 7.83573 29.5837 7.45358C29.578 7.39619 29.5478 7.34507 29.5043 7.30724L29.4109 7.22615C29.2681 7.10207 29.0934 7.02026 28.9067 6.98992L28.4192 6.91074C28.1393 6.86528 28.1393 6.46268 28.4192 6.41721L28.9067 6.33803C29.0934 6.30769 29.2681 6.22589 29.4109 6.10181L29.5043 6.02071C29.5478 5.98289 29.578 5.93177 29.5837 5.87437C29.6214 5.49223 29.5245 4.7344 28.9548 4.22385C28.9083 4.18217 28.8463 4.1629 28.7839 4.16619L28.6514 4.17317C28.4456 4.18401 28.248 4.25704 28.0846 4.38262L27.6579 4.71062C27.4294 4.88627 27.1342 4.59968 27.3029 4.36604L27.7041 3.81049C27.8149 3.65709 27.8807 3.47585 27.8942 3.28711L27.903 3.16377Z" fill="url(#paint11_radial_7159_2158)"/>
<path fill-rule="evenodd" clip-rule="evenodd" d="M27.903 3.16377C27.9071 3.10624 27.8924 3.04873 27.8559 3.00409C27.6127 2.70694 27.0088 2.23891 26.2449 2.27986C26.1826 2.2832 26.1251 2.31336 26.0832 2.35973L25.9943 2.45831C25.8563 2.61132 25.768 2.80261 25.741 3.00689L25.6656 3.57911C25.6312 3.83988 25.2538 3.83988 25.2194 3.57911L25.144 3.00689C25.117 2.80261 25.0287 2.61132 24.8907 2.45831L24.8018 2.35973C24.76 2.31336 24.7025 2.2832 24.6401 2.27986C23.8762 2.23891 23.2724 2.70694 23.0291 3.00409C22.9926 3.04873 22.9779 3.10624 22.982 3.16377L22.9908 3.28711C23.0043 3.47585 23.0701 3.65709 23.1809 3.81049L23.5821 4.36604C23.7509 4.59968 23.4556 4.88627 23.2271 4.71062L22.8004 4.38262C22.6371 4.25704 22.4394 4.18401 22.2337 4.17317L22.1011 4.16619C22.0387 4.1629 21.9767 4.18217 21.9302 4.22385C21.3606 4.7344 21.2637 5.49223 21.3014 5.87437C21.307 5.93177 21.3372 5.98289 21.3808 6.02071L21.4741 6.10181C21.617 6.22589 21.7916 6.30769 21.9784 6.33803L22.4658 6.41721C22.7457 6.46268 22.7457 6.86528 22.4658 6.91074L21.9784 6.98992C21.7916 7.02026 21.617 7.10207 21.4741 7.22615L21.3808 7.30724C21.3372 7.34507 21.307 7.39619 21.3014 7.45358C21.2637 7.83573 21.3606 8.59356 21.9302 9.1041C21.9767 9.14579 22.0387 9.16505 22.1011 9.16177L22.2337 9.15479C22.4394 9.14395 22.6371 9.07091 22.8004 8.94533L23.2271 8.61734C23.4556 8.44169 23.7509 8.72827 23.5821 8.96191L23.1809 9.51746C23.0701 9.67086 23.0043 9.85211 22.9908 10.0408L22.982 10.1642C22.9779 10.2217 22.9926 10.2792 23.0291 10.3239C23.2724 10.621 23.8762 11.089 24.6401 11.0481C24.7025 11.0448 24.76 11.0146 24.8018 10.9682L24.8907 10.8696C25.0287 10.7166 25.117 10.5253 25.144 10.3211L25.1947 9.93677C25.2329 9.64702 25.6521 9.64702 25.6904 9.93677L25.741 10.3211C25.768 10.5253 25.8563 10.7166 25.9943 10.8696L26.0832 10.9682C26.1251 11.0146 26.1826 11.0448 26.2449 11.0481C27.0088 11.089 27.6127 10.621 27.8559 10.3239C27.8924 10.2792 27.9071 10.2217 27.903 10.1642L27.8942 10.0408C27.8807 9.85211 27.8149 9.67086 27.7041 9.51746L27.3029 8.96191C27.1342 8.72827 27.4294 8.44169 27.6579 8.61734L28.0846 8.94533C28.248 9.07091 28.4456 9.14395 28.6514 9.15479L28.7839 9.16177C28.8463 9.16505 28.9083 9.14579 28.9548 9.1041C29.5245 8.59356 29.6214 7.83573 29.5837 7.45358C29.578 7.39619 29.5478 7.34507 29.5043 7.30724L29.4109 7.22615C29.2681 7.10207 29.0934 7.02026 28.9067 6.98992L28.4192 6.91074C28.1393 6.86528 28.1393 6.46268 28.4192 6.41721L28.9067 6.33803C29.0934 6.30769 29.2681 6.22589 29.4109 6.10181L29.5043 6.02071C29.5478 5.98289 29.578 5.93177 29.5837 5.87437C29.6214 5.49223 29.5245 4.7344 28.9548 4.22385C28.9083 4.18217 28.8463 4.1629 28.7839 4.16619L28.6514 4.17317C28.4456 4.18401 28.248 4.25704 28.0846 4.38262L27.6579 4.71062C27.4294 4.88627 27.1342 4.59968 27.3029 4.36604L27.7041 3.81049C27.8149 3.65709 27.8807 3.47585 27.8942 3.28711L27.903 3.16377Z" fill="url(#paint12_radial_7159_2158)"/>
<path fill-rule="evenodd" clip-rule="evenodd" d="M27.903 3.16377C27.9071 3.10624 27.8924 3.04873 27.8559 3.00409C27.6127 2.70694 27.0088 2.23891 26.2449 2.27986C26.1826 2.2832 26.1251 2.31336 26.0832 2.35973L25.9943 2.45831C25.8563 2.61132 25.768 2.80261 25.741 3.00689L25.6656 3.57911C25.6312 3.83988 25.2538 3.83988 25.2194 3.57911L25.144 3.00689C25.117 2.80261 25.0287 2.61132 24.8907 2.45831L24.8018 2.35973C24.76 2.31336 24.7025 2.2832 24.6401 2.27986C23.8762 2.23891 23.2724 2.70694 23.0291 3.00409C22.9926 3.04873 22.9779 3.10624 22.982 3.16377L22.9908 3.28711C23.0043 3.47585 23.0701 3.65709 23.1809 3.81049L23.5821 4.36604C23.7509 4.59968 23.4556 4.88627 23.2271 4.71062L22.8004 4.38262C22.6371 4.25704 22.4394 4.18401 22.2337 4.17317L22.1011 4.16619C22.0387 4.1629 21.9767 4.18217 21.9302 4.22385C21.3606 4.7344 21.2637 5.49223 21.3014 5.87437C21.307 5.93177 21.3372 5.98289 21.3808 6.02071L21.4741 6.10181C21.617 6.22589 21.7916 6.30769 21.9784 6.33803L22.4658 6.41721C22.7457 6.46268 22.7457 6.86528 22.4658 6.91074L21.9784 6.98992C21.7916 7.02026 21.617 7.10207 21.4741 7.22615L21.3808 7.30724C21.3372 7.34507 21.307 7.39619 21.3014 7.45358C21.2637 7.83573 21.3606 8.59356 21.9302 9.1041C21.9767 9.14579 22.0387 9.16505 22.1011 9.16177L22.2337 9.15479C22.4394 9.14395 22.6371 9.07091 22.8004 8.94533L23.2271 8.61734C23.4556 8.44169 23.7509 8.72827 23.5821 8.96191L23.1809 9.51746C23.0701 9.67086 23.0043 9.85211 22.9908 10.0408L22.982 10.1642C22.9779 10.2217 22.9926 10.2792 23.0291 10.3239C23.2724 10.621 23.8762 11.089 24.6401 11.0481C24.7025 11.0448 24.76 11.0146 24.8018 10.9682L24.8907 10.8696C25.0287 10.7166 25.117 10.5253 25.144 10.3211L25.1947 9.93677C25.2329 9.64702 25.6521 9.64702 25.6904 9.93677L25.741 10.3211C25.768 10.5253 25.8563 10.7166 25.9943 10.8696L26.0832 10.9682C26.1251 11.0146 26.1826 11.0448 26.2449 11.0481C27.0088 11.089 27.6127 10.621 27.8559 10.3239C27.8924 10.2792 27.9071 10.2217 27.903 10.1642L27.8942 10.0408C27.8807 9.85211 27.8149 9.67086 27.7041 9.51746L27.3029 8.96191C27.1342 8.72827 27.4294 8.44169 27.6579 8.61734L28.0846 8.94533C28.248 9.07091 28.4456 9.14395 28.6514 9.15479L28.7839 9.16177C28.8463 9.16505 28.9083 9.14579 28.9548 9.1041C29.5245 8.59356 29.6214 7.83573 29.5837 7.45358C29.578 7.39619 29.5478 7.34507 29.5043 7.30724L29.4109 7.22615C29.2681 7.10207 29.0934 7.02026 28.9067 6.98992L28.4192 6.91074C28.1393 6.86528 28.1393 6.46268 28.4192 6.41721L28.9067 6.33803C29.0934 6.30769 29.2681 6.22589 29.4109 6.10181L29.5043 6.02071C29.5478 5.98289 29.578 5.93177 29.5837 5.87437C29.6214 5.49223 29.5245 4.7344 28.9548 4.22385C28.9083 4.18217 28.8463 4.1629 28.7839 4.16619L28.6514 4.17317C28.4456 4.18401 28.248 4.25704 28.0846 4.38262L27.6579 4.71062C27.4294 4.88627 27.1342 4.59968 27.3029 4.36604L27.7041 3.81049C27.8149 3.65709 27.8807 3.47585 27.8942 3.28711L27.903 3.16377Z" fill="url(#paint13_radial_7159_2158)"/>
<path fill-rule="evenodd" clip-rule="evenodd" d="M27.903 3.16377C27.9071 3.10624 27.8924 3.04873 27.8559 3.00409C27.6127 2.70694 27.0088 2.23891 26.2449 2.27986C26.1826 2.2832 26.1251 2.31336 26.0832 2.35973L25.9943 2.45831C25.8563 2.61132 25.768 2.80261 25.741 3.00689L25.6656 3.57911C25.6312 3.83988 25.2538 3.83988 25.2194 3.57911L25.144 3.00689C25.117 2.80261 25.0287 2.61132 24.8907 2.45831L24.8018 2.35973C24.76 2.31336 24.7025 2.2832 24.6401 2.27986C23.8762 2.23891 23.2724 2.70694 23.0291 3.00409C22.9926 3.04873 22.9779 3.10624 22.982 3.16377L22.9908 3.28711C23.0043 3.47585 23.0701 3.65709 23.1809 3.81049L23.5821 4.36604C23.7509 4.59968 23.4556 4.88627 23.2271 4.71062L22.8004 4.38262C22.6371 4.25704 22.4394 4.18401 22.2337 4.17317L22.1011 4.16619C22.0387 4.1629 21.9767 4.18217 21.9302 4.22385C21.3606 4.7344 21.2637 5.49223 21.3014 5.87437C21.307 5.93177 21.3372 5.98289 21.3808 6.02071L21.4741 6.10181C21.617 6.22589 21.7916 6.30769 21.9784 6.33803L22.4658 6.41721C22.7457 6.46268 22.7457 6.86528 22.4658 6.91074L21.9784 6.98992C21.7916 7.02026 21.617 7.10207 21.4741 7.22615L21.3808 7.30724C21.3372 7.34507 21.307 7.39619 21.3014 7.45358C21.2637 7.83573 21.3606 8.59356 21.9302 9.1041C21.9767 9.14579 22.0387 9.16505 22.1011 9.16177L22.2337 9.15479C22.4394 9.14395 22.6371 9.07091 22.8004 8.94533L23.2271 8.61734C23.4556 8.44169 23.7509 8.72827 23.5821 8.96191L23.1809 9.51746C23.0701 9.67086 23.0043 9.85211 22.9908 10.0408L22.982 10.1642C22.9779 10.2217 22.9926 10.2792 23.0291 10.3239C23.2724 10.621 23.8762 11.089 24.6401 11.0481C24.7025 11.0448 24.76 11.0146 24.8018 10.9682L24.8907 10.8696C25.0287 10.7166 25.117 10.5253 25.144 10.3211L25.1947 9.93677C25.2329 9.64702 25.6521 9.64702 25.6904 9.93677L25.741 10.3211C25.768 10.5253 25.8563 10.7166 25.9943 10.8696L26.0832 10.9682C26.1251 11.0146 26.1826 11.0448 26.2449 11.0481C27.0088 11.089 27.6127 10.621 27.8559 10.3239C27.8924 10.2792 27.9071 10.2217 27.903 10.1642L27.8942 10.0408C27.8807 9.85211 27.8149 9.67086 27.7041 9.51746L27.3029 8.96191C27.1342 8.72827 27.4294 8.44169 27.6579 8.61734L28.0846 8.94533C28.248 9.07091 28.4456 9.14395 28.6514 9.15479L28.7839 9.16177C28.8463 9.16505 28.9083 9.14579 28.9548 9.1041C29.5245 8.59356 29.6214 7.83573 29.5837 7.45358C29.578 7.39619 29.5478 7.34507 29.5043 7.30724L29.4109 7.22615C29.2681 7.10207 29.0934 7.02026 28.9067 6.98992L28.4192 6.91074C28.1393 6.86528 28.1393 6.46268 28.4192 6.41721L28.9067 6.33803C29.0934 6.30769 29.2681 6.22589 29.4109 6.10181L29.5043 6.02071C29.5478 5.98289 29.578 5.93177 29.5837 5.87437C29.6214 5.49223 29.5245 4.7344 28.9548 4.22385C28.9083 4.18217 28.8463 4.1629 28.7839 4.16619L28.6514 4.17317C28.4456 4.18401 28.248 4.25704 28.0846 4.38262L27.6579 4.71062C27.4294 4.88627 27.1342 4.59968 27.3029 4.36604L27.7041 3.81049C27.8149 3.65709 27.8807 3.47585 27.8942 3.28711L27.903 3.16377Z" fill="url(#paint14_radial_7159_2158)"/>
<path fill-rule="evenodd" clip-rule="evenodd" d="M27.903 3.16377C27.9071 3.10624 27.8924 3.04873 27.8559 3.00409C27.6127 2.70694 27.0088 2.23891 26.2449 2.27986C26.1826 2.2832 26.1251 2.31336 26.0832 2.35973L25.9943 2.45831C25.8563 2.61132 25.768 2.80261 25.741 3.00689L25.6656 3.57911C25.6312 3.83988 25.2538 3.83988 25.2194 3.57911L25.144 3.00689C25.117 2.80261 25.0287 2.61132 24.8907 2.45831L24.8018 2.35973C24.76 2.31336 24.7025 2.2832 24.6401 2.27986C23.8762 2.23891 23.2724 2.70694 23.0291 3.00409C22.9926 3.04873 22.9779 3.10624 22.982 3.16377L22.9908 3.28711C23.0043 3.47585 23.0701 3.65709 23.1809 3.81049L23.5821 4.36604C23.7509 4.59968 23.4556 4.88627 23.2271 4.71062L22.8004 4.38262C22.6371 4.25704 22.4394 4.18401 22.2337 4.17317L22.1011 4.16619C22.0387 4.1629 21.9767 4.18217 21.9302 4.22385C21.3606 4.7344 21.2637 5.49223 21.3014 5.87437C21.307 5.93177 21.3372 5.98289 21.3808 6.02071L21.4741 6.10181C21.617 6.22589 21.7916 6.30769 21.9784 6.33803L22.4658 6.41721C22.7457 6.46268 22.7457 6.86528 22.4658 6.91074L21.9784 6.98992C21.7916 7.02026 21.617 7.10207 21.4741 7.22615L21.3808 7.30724C21.3372 7.34507 21.307 7.39619 21.3014 7.45358C21.2637 7.83573 21.3606 8.59356 21.9302 9.1041C21.9767 9.14579 22.0387 9.16505 22.1011 9.16177L22.2337 9.15479C22.4394 9.14395 22.6371 9.07091 22.8004 8.94533L23.2271 8.61734C23.4556 8.44169 23.7509 8.72827 23.5821 8.96191L23.1809 9.51746C23.0701 9.67086 23.0043 9.85211 22.9908 10.0408L22.982 10.1642C22.9779 10.2217 22.9926 10.2792 23.0291 10.3239C23.2724 10.621 23.8762 11.089 24.6401 11.0481C24.7025 11.0448 24.76 11.0146 24.8018 10.9682L24.8907 10.8696C25.0287 10.7166 25.117 10.5253 25.144 10.3211L25.1947 9.93677C25.2329 9.64702 25.6521 9.64702 25.6904 9.93677L25.741 10.3211C25.768 10.5253 25.8563 10.7166 25.9943 10.8696L26.0832 10.9682C26.1251 11.0146 26.1826 11.0448 26.2449 11.0481C27.0088 11.089 27.6127 10.621 27.8559 10.3239C27.8924 10.2792 27.9071 10.2217 27.903 10.1642L27.8942 10.0408C27.8807 9.85211 27.8149 9.67086 27.7041 9.51746L27.3029 8.96191C27.1342 8.72827 27.4294 8.44169 27.6579 8.61734L28.0846 8.94533C28.248 9.07091 28.4456 9.14395 28.6514 9.15479L28.7839 9.16177C28.8463 9.16505 28.9083 9.14579 28.9548 9.1041C29.5245 8.59356 29.6214 7.83573 29.5837 7.45358C29.578 7.39619 29.5478 7.34507 29.5043 7.30724L29.4109 7.22615C29.2681 7.10207 29.0934 7.02026 28.9067 6.98992L28.4192 6.91074C28.1393 6.86528 28.1393 6.46268 28.4192 6.41721L28.9067 6.33803C29.0934 6.30769 29.2681 6.22589 29.4109 6.10181L29.5043 6.02071C29.5478 5.98289 29.578 5.93177 29.5837 5.87437C29.6214 5.49223 29.5245 4.7344 28.9548 4.22385C28.9083 4.18217 28.8463 4.1629 28.7839 4.16619L28.6514 4.17317C28.4456 4.18401 28.248 4.25704 28.0846 4.38262L27.6579 4.71062C27.4294 4.88627 27.1342 4.59968 27.3029 4.36604L27.7041 3.81049C27.8149 3.65709 27.8807 3.47585 27.8942 3.28711L27.903 3.16377Z" fill="url(#paint15_radial_7159_2158)"/>
<path fill-rule="evenodd" clip-rule="evenodd" d="M27.903 3.16377C27.9071 3.10624 27.8924 3.04873 27.8559 3.00409C27.6127 2.70694 27.0088 2.23891 26.2449 2.27986C26.1826 2.2832 26.1251 2.31336 26.0832 2.35973L25.9943 2.45831C25.8563 2.61132 25.768 2.80261 25.741 3.00689L25.6656 3.57911C25.6312 3.83988 25.2538 3.83988 25.2194 3.57911L25.144 3.00689C25.117 2.80261 25.0287 2.61132 24.8907 2.45831L24.8018 2.35973C24.76 2.31336 24.7025 2.2832 24.6401 2.27986C23.8762 2.23891 23.2724 2.70694 23.0291 3.00409C22.9926 3.04873 22.9779 3.10624 22.982 3.16377L22.9908 3.28711C23.0043 3.47585 23.0701 3.65709 23.1809 3.81049L23.5821 4.36604C23.7509 4.59968 23.4556 4.88627 23.2271 4.71062L22.8004 4.38262C22.6371 4.25704 22.4394 4.18401 22.2337 4.17317L22.1011 4.16619C22.0387 4.1629 21.9767 4.18217 21.9302 4.22385C21.3606 4.7344 21.2637 5.49223 21.3014 5.87437C21.307 5.93177 21.3372 5.98289 21.3808 6.02071L21.4741 6.10181C21.617 6.22589 21.7916 6.30769 21.9784 6.33803L22.4658 6.41721C22.7457 6.46268 22.7457 6.86528 22.4658 6.91074L21.9784 6.98992C21.7916 7.02026 21.617 7.10207 21.4741 7.22615L21.3808 7.30724C21.3372 7.34507 21.307 7.39619 21.3014 7.45358C21.2637 7.83573 21.3606 8.59356 21.9302 9.1041C21.9767 9.14579 22.0387 9.16505 22.1011 9.16177L22.2337 9.15479C22.4394 9.14395 22.6371 9.07091 22.8004 8.94533L23.2271 8.61734C23.4556 8.44169 23.7509 8.72827 23.5821 8.96191L23.1809 9.51746C23.0701 9.67086 23.0043 9.85211 22.9908 10.0408L22.982 10.1642C22.9779 10.2217 22.9926 10.2792 23.0291 10.3239C23.2724 10.621 23.8762 11.089 24.6401 11.0481C24.7025 11.0448 24.76 11.0146 24.8018 10.9682L24.8907 10.8696C25.0287 10.7166 25.117 10.5253 25.144 10.3211L25.1947 9.93677C25.2329 9.64702 25.6521 9.64702 25.6904 9.93677L25.741 10.3211C25.768 10.5253 25.8563 10.7166 25.9943 10.8696L26.0832 10.9682C26.1251 11.0146 26.1826 11.0448 26.2449 11.0481C27.0088 11.089 27.6127 10.621 27.8559 10.3239C27.8924 10.2792 27.9071 10.2217 27.903 10.1642L27.8942 10.0408C27.8807 9.85211 27.8149 9.67086 27.7041 9.51746L27.3029 8.96191C27.1342 8.72827 27.4294 8.44169 27.6579 8.61734L28.0846 8.94533C28.248 9.07091 28.4456 9.14395 28.6514 9.15479L28.7839 9.16177C28.8463 9.16505 28.9083 9.14579 28.9548 9.1041C29.5245 8.59356 29.6214 7.83573 29.5837 7.45358C29.578 7.39619 29.5478 7.34507 29.5043 7.30724L29.4109 7.22615C29.2681 7.10207 29.0934 7.02026 28.9067 6.98992L28.4192 6.91074C28.1393 6.86528 28.1393 6.46268 28.4192 6.41721L28.9067 6.33803C29.0934 6.30769 29.2681 6.22589 29.4109 6.10181L29.5043 6.02071C29.5478 5.98289 29.578 5.93177 29.5837 5.87437C29.6214 5.49223 29.5245 4.7344 28.9548 4.22385C28.9083 4.18217 28.8463 4.1629 28.7839 4.16619L28.6514 4.17317C28.4456 4.18401 28.248 4.25704 28.0846 4.38262L27.6579 4.71062C27.4294 4.88627 27.1342 4.59968 27.3029 4.36604L27.7041 3.81049C27.8149 3.65709 27.8807 3.47585 27.8942 3.28711L27.903 3.16377Z" fill="url(#paint16_radial_7159_2158)"/>
<path fill-rule="evenodd" clip-rule="evenodd" d="M25.5214 6.48804C25.8921 6.81915 25.9242 7.38809 25.5931 7.75881L23.0462 10.6104C22.7151 10.9811 22.1462 11.0132 21.7755 10.6821C21.4047 10.351 21.3726 9.78204 21.7037 9.41132L24.2506 6.55976C24.5817 6.18904 25.1507 6.15693 25.5214 6.48804Z" fill="url(#paint17_radial_7159_2158)"/>
<path fill-rule="evenodd" clip-rule="evenodd" d="M25.5214 6.48804C25.8921 6.81915 25.9242 7.38809 25.5931 7.75881L23.0462 10.6104C22.7151 10.9811 22.1462 11.0132 21.7755 10.6821C21.4047 10.351 21.3726 9.78204 21.7037 9.41132L24.2506 6.55976C24.5817 6.18904 25.1507 6.15693 25.5214 6.48804Z" fill="url(#paint18_linear_7159_2158)"/>
<path d="M15.3281 30.082C8.59716 30.082 3.14063 24.6255 3.14063 17.8945C3.14063 11.1636 8.59716 5.70703 15.3281 5.70703C22.0591 5.70703 27.5156 11.1636 27.5156 17.8945C27.5156 24.6255 22.0591 30.082 15.3281 30.082Z" fill="url(#paint19_radial_7159_2158)"/>
<path d="M15.3281 30.082C8.59716 30.082 3.14063 24.6255 3.14063 17.8945C3.14063 11.1636 8.59716 5.70703 15.3281 5.70703C22.0591 5.70703 27.5156 11.1636 27.5156 17.8945C27.5156 24.6255 22.0591 30.082 15.3281 30.082Z" fill="url(#paint20_radial_7159_2158)"/>
<path d="M15.3281 30.082C8.59716 30.082 3.14063 24.6255 3.14063 17.8945C3.14063 11.1636 8.59716 5.70703 15.3281 5.70703C22.0591 5.70703 27.5156 11.1636 27.5156 17.8945C27.5156 24.6255 22.0591 30.082 15.3281 30.082Z" fill="url(#paint21_radial_7159_2158)"/>
<path d="M15.3281 30.082C8.59716 30.082 3.14063 24.6255 3.14063 17.8945C3.14063 11.1636 8.59716 5.70703 15.3281 5.70703C22.0591 5.70703 27.5156 11.1636 27.5156 17.8945C27.5156 24.6255 22.0591 30.082 15.3281 30.082Z" fill="url(#paint22_radial_7159_2158)"/>
<defs>
<linearGradient id="paint0_linear_7159_2158" x1="29.1875" y1="4.76974" x2="21.875" y2="8.95724" gradientUnits="userSpaceOnUse">
<stop stop-color="#FFC709"/>
<stop offset="0.7556" stop-color="#EE4C27"/>
</linearGradient>
<linearGradient id="paint1_linear_7159_2158" x1="24.1875" y1="11.3947" x2="26.9375" y2="8.95724" gradientUnits="userSpaceOnUse">
<stop stop-color="#D3390D"/>
<stop offset="1" stop-color="#D3390D" stop-opacity="0"/>
</linearGradient>
<radialGradient id="paint2_radial_7159_2158" cx="0" cy="0" r="1" gradientUnits="userSpaceOnUse" gradientTransform="translate(22.0625 5.2228) rotate(32.1523) scale(0.645938 1.00458)">
<stop stop-color="#FFE975" stop-opacity="0.3"/>
<stop offset="1" stop-color="#FFE975" stop-opacity="0"/>
</radialGradient>
<radialGradient id="paint3_radial_7159_2158" cx="0" cy="0" r="1" gradientUnits="userSpaceOnUse" gradientTransform="translate(24.0781 3.1603) rotate(69.6236) scale(0.58338 0.907283)">
<stop stop-color="#FFE975" stop-opacity="0.3"/>
<stop offset="1" stop-color="#FFE975" stop-opacity="0"/>
</radialGradient>
<radialGradient id="paint4_radial_7159_2158" cx="0" cy="0" r="1" gradientUnits="userSpaceOnUse" gradientTransform="translate(26.8008 3.14858) rotate(116.068) scale(0.60446 0.940067)">
<stop stop-color="#FFE975" stop-opacity="0.3"/>
<stop offset="1" stop-color="#FFE975" stop-opacity="0"/>
</radialGradient>
<radialGradient id="paint5_radial_7159_2158" cx="0" cy="0" r="1" gradientUnits="userSpaceOnUse" gradientTransform="translate(28.75 5.23843) rotate(160.017) scale(0.548658 0.853283)">
<stop stop-color="white" stop-opacity="0.3"/>
<stop offset="1" stop-color="white" stop-opacity="0"/>
</radialGradient>
<radialGradient id="paint6_radial_7159_2158" cx="0" cy="0" r="1" gradientUnits="userSpaceOnUse" gradientTransform="translate(28.8594 8.08218) rotate(-156.448) scale(0.664751 1.03383)">
<stop stop-color="white" stop-opacity="0.3"/>
<stop offset="1" stop-color="white" stop-opacity="0"/>
</radialGradient>
<radialGradient id="paint7_radial_7159_2158" cx="0" cy="0" r="1" gradientUnits="userSpaceOnUse" gradientTransform="translate(26.8594 10.2228) rotate(-118.61) scale(0.587343 0.913446)">
<stop stop-color="#FFE975" stop-opacity="0.3"/>
<stop offset="1" stop-color="#FFE975" stop-opacity="0"/>
</radialGradient>
<radialGradient id="paint8_radial_7159_2158" cx="0" cy="0" r="1" gradientUnits="userSpaceOnUse" gradientTransform="translate(25.4425 6.66398) rotate(90) scale(7.07445 6.69011)">
<stop offset="0.491788" stop-color="#D3390D" stop-opacity="0"/>
<stop offset="1" stop-color="#D3390D"/>
</radialGradient>
<radialGradient id="paint9_radial_7159_2158" cx="0" cy="0" r="1" gradientUnits="userSpaceOnUse" gradientTransform="translate(25.4425 6.66398) rotate(90) scale(7.07445 6.69011)">
<stop stop-color="#D3390D" stop-opacity="0.7"/>
<stop offset="0.317708" stop-color="#D3390D" stop-opacity="0"/>
</radialGradient>
<radialGradient id="paint10_radial_7159_2158" cx="0" cy="0" r="1" gradientUnits="userSpaceOnUse" gradientTransform="translate(25.4425 9.7228) rotate(90) scale(3.54688 0.523213)">
<stop stop-color="#D3390D" stop-opacity="0.7"/>
<stop offset="1" stop-color="#D3390D" stop-opacity="0"/>
</radialGradient>
<radialGradient id="paint11_radial_7159_2158" cx="0" cy="0" r="1" gradientUnits="userSpaceOnUse" gradientTransform="translate(23.5312 4.69155) rotate(-128.973) scale(3.10533 0.45808)">
<stop stop-color="#D3390D" stop-opacity="0.4"/>
<stop offset="1" stop-color="#D3390D" stop-opacity="0"/>
</radialGradient>
<radialGradient id="paint12_radial_7159_2158" cx="0" cy="0" r="1" gradientUnits="userSpaceOnUse" gradientTransform="translate(22.6875 6.66398) rotate(-180) scale(3.03125 0.447151)">
<stop stop-color="#D3390D" stop-opacity="0.4"/>
<stop offset="1" stop-color="#D3390D" stop-opacity="0"/>
</radialGradient>
<radialGradient id="paint13_radial_7159_2158" cx="0" cy="0" r="1" gradientUnits="userSpaceOnUse" gradientTransform="translate(25.4425 3.7853) rotate(-90) scale(2.8125 0.414883)">
<stop stop-color="#D3390D" stop-opacity="0.3"/>
<stop offset="1" stop-color="#D3390D" stop-opacity="0"/>
</radialGradient>
<radialGradient id="paint14_radial_7159_2158" cx="0" cy="0" r="1" gradientUnits="userSpaceOnUse" gradientTransform="translate(27.3594 4.69155) rotate(-48.4373) scale(3.22656 0.475962)">
<stop stop-color="#D3390D" stop-opacity="0.2"/>
<stop offset="1" stop-color="#D3390D" stop-opacity="0"/>
</radialGradient>
<radialGradient id="paint15_radial_7159_2158" cx="0" cy="0" r="1" gradientUnits="userSpaceOnUse" gradientTransform="translate(28.2344 6.66398) rotate(-2.3346) scale(3.15887 0.465977)">
<stop stop-color="#D3390D" stop-opacity="0.2"/>
<stop offset="1" stop-color="#D3390D" stop-opacity="0"/>
</radialGradient>
<radialGradient id="paint16_radial_7159_2158" cx="0" cy="0" r="1" gradientUnits="userSpaceOnUse" gradientTransform="translate(27.3906 8.5978) rotate(39.4007) scale(3.39706 0.501114)">
<stop stop-color="#D3390D" stop-opacity="0.3"/>
<stop offset="1" stop-color="#D3390D" stop-opacity="0"/>
</radialGradient>
<radialGradient id="paint17_radial_7159_2158" cx="0" cy="0" r="1" gradientUnits="userSpaceOnUse" gradientTransform="translate(25.75 6.62901) rotate(136.679) scale(3.39336 2.12789)">
<stop stop-color="#E1DFE1"/>
<stop offset="0.394388" stop-color="#C1BEC5"/>
</radialGradient>
<linearGradient id="paint18_linear_7159_2158" x1="23.5469" y1="7.31651" x2="23.7969" y2="7.51964" gradientUnits="userSpaceOnUse">
<stop stop-color="#A3A1A7"/>
<stop offset="1" stop-color="#B8B6BD" stop-opacity="0"/>
</linearGradient>
<radialGradient id="paint19_radial_7159_2158" cx="0" cy="0" r="1" gradientUnits="userSpaceOnUse" gradientTransform="translate(18.375 28.457) rotate(-119.386) scale(21.0166 34.5675)">
<stop offset="0.00558659" stop-color="#5C0F71"/>
<stop offset="1" stop-color="#2E255B"/>
</radialGradient>
<radialGradient id="paint20_radial_7159_2158" cx="0" cy="0" r="1" gradientUnits="userSpaceOnUse" gradientTransform="translate(20.75 23.7695) rotate(-131.465) scale(22.9362 26.3218)">
<stop offset="0.71875" stop-color="#29233A" stop-opacity="0"/>
<stop offset="1" stop-color="#29233A"/>
</radialGradient>
<radialGradient id="paint21_radial_7159_2158" cx="0" cy="0" r="1" gradientUnits="userSpaceOnUse" gradientTransform="translate(13.375 12.8945) rotate(67.5499) scale(19.476 16.5325)">
<stop offset="0.809845" stop-color="#662B81" stop-opacity="0"/>
<stop offset="1" stop-color="#662B81"/>
</radialGradient>
<radialGradient id="paint22_radial_7159_2158" cx="0" cy="0" r="1" gradientUnits="userSpaceOnUse" gradientTransform="translate(20.5 14.457) rotate(135.649) scale(9.0055 7.2044)">
<stop stop-color="#66558E"/>
<stop offset="0.727773" stop-color="#66558E" stop-opacity="0"/>
</radialGradient>
</defs>
</svg>
