<svg width="32" height="32" viewBox="0 0 32 32" fill="none" xmlns="http://www.w3.org/2000/svg">
<g clip-path="url(#clip0_7159_2151)">
<path d="M16.4989 29.9978C25.8333 29.9978 30.4978 23.7303 30.4978 15.9989C30.4978 8.26751 25.8333 2 16.4989 2C7.16443 2 2.5 8.26751 2.5 15.9989C2.5 23.7303 7.16443 29.9978 16.4989 29.9978Z" fill="url(#paint0_radial_7159_2151)"/>
<path d="M16.4989 29.9978C25.8333 29.9978 30.4978 23.7303 30.4978 15.9989C30.4978 8.26751 25.8333 2 16.4989 2C7.16443 2 2.5 8.26751 2.5 15.9989C2.5 23.7303 7.16443 29.9978 16.4989 29.9978Z" fill="url(#paint1_radial_7159_2151)"/>
<path d="M16.4989 29.9978C25.8333 29.9978 30.4978 23.7303 30.4978 15.9989C30.4978 8.26751 25.8333 2 16.4989 2C7.16443 2 2.5 8.26751 2.5 15.9989C2.5 23.7303 7.16443 29.9978 16.4989 29.9978Z" fill="url(#paint2_radial_7159_2151)" fill-opacity="0.6"/>
<path d="M16.4989 29.9978C25.8333 29.9978 30.4978 23.7303 30.4978 15.9989C30.4978 8.26751 25.8333 2 16.4989 2C7.16443 2 2.5 8.26751 2.5 15.9989C2.5 23.7303 7.16443 29.9978 16.4989 29.9978Z" fill="url(#paint3_radial_7159_2151)"/>
<path d="M16.4989 29.9978C25.8333 29.9978 30.4978 23.7303 30.4978 15.9989C30.4978 8.26751 25.8333 2 16.4989 2C7.16443 2 2.5 8.26751 2.5 15.9989C2.5 23.7303 7.16443 29.9978 16.4989 29.9978Z" fill="url(#paint4_radial_7159_2151)"/>
<path d="M16.4989 29.9978C25.8333 29.9978 30.4978 23.7303 30.4978 15.9989C30.4978 8.26751 25.8333 2 16.4989 2C7.16443 2 2.5 8.26751 2.5 15.9989C2.5 23.7303 7.16443 29.9978 16.4989 29.9978Z" fill="url(#paint5_radial_7159_2151)"/>
<path d="M16.4989 29.9978C25.8333 29.9978 30.4978 23.7303 30.4978 15.9989C30.4978 8.26751 25.8333 2 16.4989 2C7.16443 2 2.5 8.26751 2.5 15.9989C2.5 23.7303 7.16443 29.9978 16.4989 29.9978Z" fill="url(#paint6_radial_7159_2151)"/>
<path d="M16.4989 29.9978C25.8333 29.9978 30.4978 23.7303 30.4978 15.9989C30.4978 8.26751 25.8333 2 16.4989 2C7.16443 2 2.5 8.26751 2.5 15.9989C2.5 23.7303 7.16443 29.9978 16.4989 29.9978Z" fill="url(#paint7_radial_7159_2151)"/>
<path d="M16.4989 29.9978C25.8333 29.9978 30.4978 23.7303 30.4978 15.9989C30.4978 8.26751 25.8333 2 16.4989 2C7.16443 2 2.5 8.26751 2.5 15.9989C2.5 23.7303 7.16443 29.9978 16.4989 29.9978Z" fill="url(#paint8_radial_7159_2151)"/>
<path d="M16.4989 29.9978C25.8333 29.9978 30.4978 23.7303 30.4978 15.9989C30.4978 8.26751 25.8333 2 16.4989 2C7.16443 2 2.5 8.26751 2.5 15.9989C2.5 23.7303 7.16443 29.9978 16.4989 29.9978Z" fill="url(#paint9_radial_7159_2151)"/>
<path d="M16.4989 29.9978C25.8333 29.9978 30.4978 23.7303 30.4978 15.9989C30.4978 8.26751 25.8333 2 16.4989 2C7.16443 2 2.5 8.26751 2.5 15.9989C2.5 23.7303 7.16443 29.9978 16.4989 29.9978Z" fill="url(#paint10_radial_7159_2151)"/>
<path d="M16.4989 29.9978C25.8333 29.9978 30.4978 23.7303 30.4978 15.9989C30.4978 8.26751 25.8333 2 16.4989 2C7.16443 2 2.5 8.26751 2.5 15.9989C2.5 23.7303 7.16443 29.9978 16.4989 29.9978Z" fill="url(#paint11_radial_7159_2151)"/>
<path d="M16.4989 29.9978C25.8333 29.9978 30.4978 23.7303 30.4978 15.9989C30.4978 8.26751 25.8333 2 16.4989 2C7.16443 2 2.5 8.26751 2.5 15.9989C2.5 23.7303 7.16443 29.9978 16.4989 29.9978Z" fill="url(#paint12_radial_7159_2151)"/>
<path d="M16.4989 29.9978C25.8333 29.9978 30.4978 23.7303 30.4978 15.9989C30.4978 8.26751 25.8333 2 16.4989 2C7.16443 2 2.5 8.26751 2.5 15.9989C2.5 23.7303 7.16443 29.9978 16.4989 29.9978Z" fill="url(#paint13_radial_7159_2151)"/>
<path d="M16.4989 29.9978C25.8333 29.9978 30.4978 23.7303 30.4978 15.9989C30.4978 8.26751 25.8333 2 16.4989 2C7.16443 2 2.5 8.26751 2.5 15.9989C2.5 23.7303 7.16443 29.9978 16.4989 29.9978Z" fill="url(#paint14_radial_7159_2151)"/>
<path d="M16.4989 29.9978C25.8333 29.9978 30.4978 23.7303 30.4978 15.9989C30.4978 8.26751 25.8333 2 16.4989 2C7.16443 2 2.5 8.26751 2.5 15.9989C2.5 23.7303 7.16443 29.9978 16.4989 29.9978Z" fill="url(#paint15_radial_7159_2151)"/>
<path d="M16.4989 29.9978C25.8333 29.9978 30.4978 23.7303 30.4978 15.9989C30.4978 8.26751 25.8333 2 16.4989 2C7.16443 2 2.5 8.26751 2.5 15.9989C2.5 23.7303 7.16443 29.9978 16.4989 29.9978Z" fill="url(#paint16_radial_7159_2151)"/>
<path d="M16.4989 29.9978C25.8333 29.9978 30.4978 23.7303 30.4978 15.9989C30.4978 8.26751 25.8333 2 16.4989 2C7.16443 2 2.5 8.26751 2.5 15.9989C2.5 23.7303 7.16443 29.9978 16.4989 29.9978Z" fill="url(#paint17_radial_7159_2151)"/>
<path d="M16.4989 29.9978C25.8333 29.9978 30.4978 23.7303 30.4978 15.9989C30.4978 8.26751 25.8333 2 16.4989 2C7.16443 2 2.5 8.26751 2.5 15.9989C2.5 23.7303 7.16443 29.9978 16.4989 29.9978Z" fill="url(#paint18_radial_7159_2151)"/>
<path d="M16.4989 29.9978C25.8333 29.9978 30.4978 23.7303 30.4978 15.9989C30.4978 8.26751 25.8333 2 16.4989 2C7.16443 2 2.5 8.26751 2.5 15.9989C2.5 23.7303 7.16443 29.9978 16.4989 29.9978Z" fill="url(#paint19_radial_7159_2151)"/>
<path d="M16.4989 29.9978C25.8333 29.9978 30.4978 23.7303 30.4978 15.9989C30.4978 8.26751 25.8333 2 16.4989 2C7.16443 2 2.5 8.26751 2.5 15.9989C2.5 23.7303 7.16443 29.9978 16.4989 29.9978Z" fill="url(#paint20_radial_7159_2151)"/>
<path d="M16.4989 29.9978C25.8333 29.9978 30.4978 23.7303 30.4978 15.9989C30.4978 8.26751 25.8333 2 16.4989 2C7.16443 2 2.5 8.26751 2.5 15.9989C2.5 23.7303 7.16443 29.9978 16.4989 29.9978Z" fill="url(#paint21_radial_7159_2151)"/>
<path fill-rule="evenodd" clip-rule="evenodd" d="M20.7455 21.6997C18.397 19.3684 14.5992 19.3765 12.2584 21.7259C11.8686 22.1171 11.2355 22.1183 10.8442 21.7284C10.453 21.3386 10.4518 20.7055 10.8417 20.3142C13.9609 17.1836 19.0231 17.1717 22.1546 20.2804C22.5465 20.6694 22.5488 21.3026 22.1597 21.6946C21.7706 22.0865 21.1375 22.0888 20.7455 21.6997Z" fill="url(#paint22_linear_7159_2151)"/>
<path fill-rule="evenodd" clip-rule="evenodd" d="M14.0547 10.1681C14.5142 10.4744 14.6384 11.0953 14.332 11.5548C13.6516 12.5754 12.5157 13.1918 11.3836 13.4182C10.2515 13.6446 8.96589 13.5126 7.94528 12.8322C7.48576 12.5258 7.36158 11.9049 7.66793 11.4454C7.97429 10.9859 8.59516 10.8617 9.05468 11.1681C9.53408 11.4877 10.2485 11.6056 10.9914 11.457C11.7342 11.3085 12.3483 10.9248 12.6679 10.4454C12.9743 9.98588 13.5952 9.8617 14.0547 10.1681Z" fill="url(#paint23_radial_7159_2151)"/>
<path fill-rule="evenodd" clip-rule="evenodd" d="M18.9453 10.1681C18.4858 10.4744 18.3616 11.0953 18.668 11.5548C19.3484 12.5754 20.4843 13.1918 21.6164 13.4182C22.7485 13.6446 24.0341 13.5126 25.0547 12.8322C25.5142 12.5258 25.6384 11.9049 25.3321 11.4454C25.0257 10.9859 24.4048 10.8617 23.9453 11.1681C23.4659 11.4877 22.7515 11.6056 22.0086 11.457C21.2658 11.3085 20.6517 10.9248 20.3321 10.4454C20.0257 9.98588 19.4048 9.8617 18.9453 10.1681Z" fill="url(#paint24_linear_7159_2151)"/>
<path fill-rule="evenodd" clip-rule="evenodd" d="M13.5181 7.63344C13.1443 6.28355 11.7037 5.57534 10.2143 6.28173C9.96475 6.40006 9.66656 6.29373 9.54823 6.04423C9.4299 5.79472 9.53623 5.49653 9.78573 5.3782C11.7963 4.42463 13.9307 5.37636 14.4819 7.36655C14.5556 7.63268 14.3996 7.90816 14.1334 7.98186C13.8673 8.05556 13.5918 7.89957 13.5181 7.63344Z" fill="url(#paint25_radial_7159_2151)"/>
<path fill-rule="evenodd" clip-rule="evenodd" d="M19.4819 7.63344C19.8557 6.28355 21.2963 5.57534 22.7857 6.28173C23.0352 6.40006 23.3334 6.29373 23.4518 6.04423C23.5701 5.79472 23.4638 5.49653 23.2143 5.3782C21.2037 4.42463 19.0693 5.37636 18.5181 7.36655C18.4444 7.63268 18.6004 7.90816 18.8666 7.98186C19.1327 8.05556 19.4082 7.89957 19.4819 7.63344Z" fill="url(#paint26_radial_7159_2151)"/>
<path d="M13.3516 16.1157C13.9582 15.7384 14.6988 16.3431 14.4512 17.0132L12.0732 23.4487C12.9285 23.9772 13.5 24.9212 13.5 26.0005C13.4998 27.6571 12.1567 29.0005 10.5 29.0005C8.8433 29.0005 7.50024 27.6571 7.5 26.0005C7.5 25.6496 7.56315 25.3134 7.67383 25.0005H5.5V24.0005L5.3457 23.9966C3.76069 23.9163 2.50024 22.6054 2.5 21.0005C2.5 19.3436 3.84315 18.0005 5.5 18.0005C6.57472 18.0005 7.51416 18.5672 8.04395 19.4165L13.3516 16.1157Z" fill="url(#paint27_radial_7159_2151)"/>
<path d="M13.3516 16.1157C13.9582 15.7384 14.6988 16.3431 14.4512 17.0132L12.0732 23.4487C12.9285 23.9772 13.5 24.9212 13.5 26.0005C13.4998 27.6571 12.1567 29.0005 10.5 29.0005C8.8433 29.0005 7.50024 27.6571 7.5 26.0005C7.5 25.6496 7.56315 25.3134 7.67383 25.0005H5.5V24.0005L5.3457 23.9966C3.76069 23.9163 2.50024 22.6054 2.5 21.0005C2.5 19.3436 3.84315 18.0005 5.5 18.0005C6.57472 18.0005 7.51416 18.5672 8.04395 19.4165L13.3516 16.1157Z" fill="url(#paint28_radial_7159_2151)"/>
<path d="M13.3516 16.1157C13.9582 15.7384 14.6988 16.3431 14.4512 17.0132L12.0732 23.4487C12.9285 23.9772 13.5 24.9212 13.5 26.0005C13.4998 27.6571 12.1567 29.0005 10.5 29.0005C8.8433 29.0005 7.50024 27.6571 7.5 26.0005C7.5 25.6496 7.56315 25.3134 7.67383 25.0005H5.5V24.0005L5.3457 23.9966C3.76069 23.9163 2.50024 22.6054 2.5 21.0005C2.5 19.3436 3.84315 18.0005 5.5 18.0005C6.57472 18.0005 7.51416 18.5672 8.04395 19.4165L13.3516 16.1157Z" fill="url(#paint29_radial_7159_2151)"/>
<path d="M13.3516 16.1157C13.9582 15.7384 14.6988 16.3431 14.4512 17.0132L12.0732 23.4487C12.9285 23.9772 13.5 24.9212 13.5 26.0005C13.4998 27.6571 12.1567 29.0005 10.5 29.0005C8.8433 29.0005 7.50024 27.6571 7.5 26.0005C7.5 25.6496 7.56315 25.3134 7.67383 25.0005H5.5V24.0005L5.3457 23.9966C3.76069 23.9163 2.50024 22.6054 2.5 21.0005C2.5 19.3436 3.84315 18.0005 5.5 18.0005C6.57472 18.0005 7.51416 18.5672 8.04395 19.4165L13.3516 16.1157Z" fill="url(#paint30_radial_7159_2151)"/>
<path d="M5.5 24C7.15685 24 8.5 22.6569 8.5 21C8.5 19.3431 7.15685 18 5.5 18C3.84315 18 2.5 19.3431 2.5 21C2.5 22.6569 3.84315 24 5.5 24Z" fill="url(#paint31_radial_7159_2151)"/>
<path d="M10.5 29C12.1569 29 13.5 27.6569 13.5 26C13.5 24.3431 12.1569 23 10.5 23C8.84315 23 7.5 24.3431 7.5 26C7.5 27.6569 8.84315 29 10.5 29Z" fill="url(#paint32_radial_7159_2151)"/>
<path d="M7 29C9.48528 29 11.5 26.9853 11.5 24.5C11.5 22.0147 9.48528 20 7 20C4.51472 20 2.5 22.0147 2.5 24.5C2.5 26.9853 4.51472 29 7 29Z" fill="url(#paint33_radial_7159_2151)"/>
<path d="M7 29C9.48528 29 11.5 26.9853 11.5 24.5C11.5 22.0147 9.48528 20 7 20C4.51472 20 2.5 22.0147 2.5 24.5C2.5 26.9853 4.51472 29 7 29Z" fill="url(#paint34_radial_7159_2151)"/>
<path d="M7 29C9.48528 29 11.5 26.9853 11.5 24.5C11.5 22.0147 9.48528 20 7 20C4.51472 20 2.5 22.0147 2.5 24.5C2.5 26.9853 4.51472 29 7 29Z" fill="url(#paint35_radial_7159_2151)"/>
<path d="M19.6489 16.1157C19.0423 15.7384 18.3017 16.3431 18.5493 17.0132L20.9272 23.4487C20.072 23.9772 19.5005 24.9212 19.5005 26.0005C19.5007 27.6571 20.8438 29.0005 22.5005 29.0005C24.1572 29.0005 25.5002 27.6571 25.5005 26.0005C25.5005 25.6496 25.4373 25.3134 25.3267 25.0005H27.5005V24.0005L27.6548 23.9966C29.2398 23.9163 30.5003 22.6054 30.5005 21.0005C30.5005 19.3436 29.1573 18.0005 27.5005 18.0005C26.4258 18.0005 25.4863 18.5672 24.9565 19.4165L19.6489 16.1157Z" fill="url(#paint36_linear_7159_2151)"/>
<path d="M27.5005 24C29.1573 24 30.5005 22.6569 30.5005 21C30.5005 19.3431 29.1573 18 27.5005 18C25.8436 18 24.5005 19.3431 24.5005 21C24.5005 22.6569 25.8436 24 27.5005 24Z" fill="url(#paint37_radial_7159_2151)"/>
<path d="M22.5005 29C24.1573 29 25.5005 27.6569 25.5005 26C25.5005 24.3431 24.1573 23 22.5005 23C20.8436 23 19.5005 24.3431 19.5005 26C19.5005 27.6569 20.8436 29 22.5005 29Z" fill="url(#paint38_radial_7159_2151)"/>
<path d="M26.0005 29C28.4858 29 30.5005 26.9853 30.5005 24.5C30.5005 22.0147 28.4858 20 26.0005 20C23.5152 20 21.5005 22.0147 21.5005 24.5C21.5005 26.9853 23.5152 29 26.0005 29Z" fill="url(#paint39_radial_7159_2151)"/>
<path d="M26.0005 29C28.4858 29 30.5005 26.9853 30.5005 24.5C30.5005 22.0147 28.4858 20 26.0005 20C23.5152 20 21.5005 22.0147 21.5005 24.5C21.5005 26.9853 23.5152 29 26.0005 29Z" fill="url(#paint40_radial_7159_2151)"/>
<path d="M26.0005 29C28.4858 29 30.5005 26.9853 30.5005 24.5C30.5005 22.0147 28.4858 20 26.0005 20C23.5152 20 21.5005 22.0147 21.5005 24.5C21.5005 26.9853 23.5152 29 26.0005 29Z" fill="url(#paint41_radial_7159_2151)"/>
</g>
<defs>
<radialGradient id="paint0_radial_7159_2151" cx="0" cy="0" r="1" gradientUnits="userSpaceOnUse" gradientTransform="translate(26 9) rotate(131.878) scale(38.9487)">
<stop stop-color="#FFF478"/>
<stop offset="0.474827" stop-color="#FFB02E"/>
<stop offset="1" stop-color="#F70A8D"/>
</radialGradient>
<radialGradient id="paint1_radial_7159_2151" cx="0" cy="0" r="1" gradientUnits="userSpaceOnUse" gradientTransform="translate(16.5 12.5) rotate(101.31) scale(17.8466 22.8581)">
<stop offset="0.787821" stop-color="#F59639" stop-opacity="0"/>
<stop offset="0.972509" stop-color="#FF7DCE"/>
</radialGradient>
<radialGradient id="paint2_radial_7159_2151" cx="0" cy="0" r="1" gradientUnits="userSpaceOnUse" gradientTransform="translate(18.5 14) rotate(135) scale(41.0122)">
<stop offset="0.314853" stop-opacity="0"/>
<stop offset="1"/>
</radialGradient>
<radialGradient id="paint3_radial_7159_2151" cx="0" cy="0" r="1" gradientUnits="userSpaceOnUse" gradientTransform="translate(16.5 17) rotate(77.692) scale(28.1469)">
<stop offset="0.507903" stop-color="#7D6133" stop-opacity="0"/>
<stop offset="1" stop-color="#715B32"/>
</radialGradient>
<radialGradient id="paint4_radial_7159_2151" cx="0" cy="0" r="1" gradientUnits="userSpaceOnUse" gradientTransform="translate(17 16.5) rotate(55.7131) scale(13.3135 9.65032)">
<stop stop-color="#FFB849"/>
<stop offset="1" stop-color="#FFB847" stop-opacity="0"/>
</radialGradient>
<radialGradient id="paint5_radial_7159_2151" cx="0" cy="0" r="1" gradientUnits="userSpaceOnUse" gradientTransform="translate(21 18) rotate(9.86581) scale(11.6726)">
<stop stop-color="#FFA64B"/>
<stop offset="0.900412" stop-color="#FFAE46" stop-opacity="0"/>
</radialGradient>
<radialGradient id="paint6_radial_7159_2151" cx="0" cy="0" r="1" gradientUnits="userSpaceOnUse" gradientTransform="translate(18 15) rotate(43.9708) scale(59.0529)">
<stop offset="0.185425" stop-opacity="0"/>
<stop offset="1" stop-opacity="0.4"/>
</radialGradient>
<radialGradient id="paint7_radial_7159_2151" cx="0" cy="0" r="1" gradientUnits="userSpaceOnUse" gradientTransform="translate(19.5581 12.416) rotate(114.444) scale(1.18068 2.01363)">
<stop offset="0.201211" stop-color="#F4B158"/>
<stop offset="1" stop-color="#F4B158" stop-opacity="0"/>
</radialGradient>
<radialGradient id="paint8_radial_7159_2151" cx="0" cy="0" r="1" gradientUnits="userSpaceOnUse" gradientTransform="translate(22.32 13.3196) rotate(88.1817) scale(1.20012 2.04678)">
<stop offset="0.0760139" stop-color="#F4B158"/>
<stop offset="1" stop-color="#F4B158" stop-opacity="0"/>
</radialGradient>
<radialGradient id="paint9_radial_7159_2151" cx="0" cy="0" r="1" gradientUnits="userSpaceOnUse" gradientTransform="translate(8.38192 12.3344) rotate(65.5664) scale(2.57407 2.19625)">
<stop stop-color="#CE7C25"/>
<stop offset="0.394186" stop-color="#CE7C25" stop-opacity="0.56"/>
<stop offset="0.764134" stop-color="#CE7C25" stop-opacity="0.107129"/>
<stop offset="0.975834" stop-color="#CE7C25" stop-opacity="0"/>
</radialGradient>
<radialGradient id="paint10_radial_7159_2151" cx="0" cy="0" r="1" gradientUnits="userSpaceOnUse" gradientTransform="translate(13.2306 11.5995) rotate(84.6107) scale(1.70713)">
<stop stop-color="#CE7C25"/>
<stop offset="0.566211" stop-color="#CE7C25" stop-opacity="0.320011"/>
<stop offset="0.825281" stop-color="#CE7C25" stop-opacity="0.107129"/>
<stop offset="1" stop-color="#CE7C25" stop-opacity="0"/>
</radialGradient>
<radialGradient id="paint11_radial_7159_2151" cx="0" cy="0" r="1" gradientUnits="userSpaceOnUse" gradientTransform="translate(12.5572 12.2408) rotate(111.615) scale(1.82813)">
<stop stop-color="#CE7C25"/>
<stop offset="0.566211" stop-color="#CE7C25" stop-opacity="0.320011"/>
<stop offset="0.825281" stop-color="#CE7C25" stop-opacity="0.107129"/>
<stop offset="1" stop-color="#CE7C25" stop-opacity="0"/>
</radialGradient>
<radialGradient id="paint12_radial_7159_2151" cx="0" cy="0" r="1" gradientUnits="userSpaceOnUse" gradientTransform="translate(11.1462 12.7218) rotate(43.6981) scale(1.99593)">
<stop stop-color="#CE7C25"/>
<stop offset="0.566211" stop-color="#CE7C25" stop-opacity="0.320011"/>
<stop offset="0.825281" stop-color="#CE7C25" stop-opacity="0.107129"/>
<stop offset="1" stop-color="#CE7C25" stop-opacity="0"/>
</radialGradient>
<radialGradient id="paint13_radial_7159_2151" cx="0" cy="0" r="1" gradientUnits="userSpaceOnUse" gradientTransform="translate(9.94338 12.7054) rotate(55.0034) scale(1.96383)">
<stop stop-color="#CE7C25"/>
<stop offset="0.566211" stop-color="#CE7C25" stop-opacity="0.320011"/>
<stop offset="0.825281" stop-color="#CE7C25" stop-opacity="0.107129"/>
<stop offset="1" stop-color="#CE7C25" stop-opacity="0"/>
</radialGradient>
<radialGradient id="paint14_radial_7159_2151" cx="0" cy="0" r="1" gradientUnits="userSpaceOnUse" gradientTransform="translate(19.2851 7.46572) rotate(30.4258) scale(1.41246 1.57072)">
<stop stop-color="#D49A25" stop-opacity="0.38"/>
<stop offset="0.545885" stop-color="#D49A25" stop-opacity="0.26"/>
<stop offset="1" stop-color="#D49A25" stop-opacity="0"/>
</radialGradient>
<radialGradient id="paint15_radial_7159_2151" cx="0" cy="0" r="1" gradientUnits="userSpaceOnUse" gradientTransform="translate(20.1414 6.39044) rotate(42.1661) scale(1.43189 1.73877)">
<stop stop-color="#D49A25" stop-opacity="0.52"/>
<stop offset="0.155366" stop-color="#D49A25" stop-opacity="0.368665"/>
<stop offset="0.496017" stop-color="#D49A25" stop-opacity="0.269753"/>
<stop offset="0.64878" stop-color="#D49A25" stop-opacity="0.17"/>
<stop offset="1" stop-color="#D49A25" stop-opacity="0"/>
</radialGradient>
<radialGradient id="paint16_radial_7159_2151" cx="0" cy="0" r="1" gradientUnits="userSpaceOnUse" gradientTransform="translate(22.4758 6.2114) rotate(78.158) scale(1.11319 1.78055)">
<stop stop-color="#D49A25" stop-opacity="0.62"/>
<stop stop-color="#D49A25" stop-opacity="0.368665"/>
<stop offset="1" stop-color="#D49A25" stop-opacity="0"/>
</radialGradient>
<radialGradient id="paint17_radial_7159_2151" cx="0" cy="0" r="1" gradientUnits="userSpaceOnUse" gradientTransform="translate(21.0992 5.86401) rotate(72.613) scale(1.17277 2.11892)">
<stop stop-color="#D49A25" stop-opacity="0.03"/>
<stop offset="0.451429" stop-color="#D49A25" stop-opacity="0.21"/>
<stop offset="1" stop-color="#D49A25" stop-opacity="0"/>
</radialGradient>
<radialGradient id="paint18_radial_7159_2151" cx="0" cy="0" r="1" gradientUnits="userSpaceOnUse" gradientTransform="translate(13.5078 7.39923) rotate(151.618) scale(1.64787)">
<stop stop-color="#AA7013" stop-opacity="0.38"/>
<stop offset="0.332164" stop-color="#AA7013" stop-opacity="0.21"/>
<stop offset="0.830568" stop-color="#AA7013" stop-opacity="0"/>
</radialGradient>
<radialGradient id="paint19_radial_7159_2151" cx="0" cy="0" r="1" gradientUnits="userSpaceOnUse" gradientTransform="translate(12.6999 6.28453) rotate(97.6696) scale(1.3126 1.9851)">
<stop stop-color="#AA7013" stop-opacity="0.2"/>
<stop offset="0.0131026" stop-color="#AA7013" stop-opacity="0.5"/>
<stop offset="0.225374" stop-color="#AA7013" stop-opacity="0.284251"/>
<stop offset="0.574937" stop-color="#AA7013" stop-opacity="0.119276"/>
<stop offset="1" stop-color="#AA7013" stop-opacity="0"/>
</radialGradient>
<radialGradient id="paint20_radial_7159_2151" cx="0" cy="0" r="1" gradientUnits="userSpaceOnUse" gradientTransform="translate(11.3786 5.95014) rotate(82.8186) scale(1.24409 2.10576)">
<stop stop-color="#AA7013" stop-opacity="0.34"/>
<stop offset="0.479082" stop-color="#AA7013" stop-opacity="0.16"/>
<stop offset="1" stop-color="#AA7013" stop-opacity="0"/>
</radialGradient>
<radialGradient id="paint21_radial_7159_2151" cx="0" cy="0" r="1" gradientUnits="userSpaceOnUse" gradientTransform="translate(10.1505 6.15417) rotate(44.8554) scale(1.4432)">
<stop stop-color="#AA7013" stop-opacity="0.35"/>
<stop offset="0.442228" stop-color="#AA7013" stop-opacity="0.184651"/>
<stop offset="1" stop-color="#AA7013" stop-opacity="0"/>
</radialGradient>
<linearGradient id="paint22_linear_7159_2151" x1="16.5" y1="17.9263" x2="16.5" y2="19.9888" gradientUnits="userSpaceOnUse">
<stop stop-color="#4F3C43"/>
<stop offset="1" stop-color="#512756"/>
</linearGradient>
<radialGradient id="paint23_radial_7159_2151" cx="0" cy="0" r="1" gradientUnits="userSpaceOnUse" gradientTransform="translate(11 10.0001) rotate(90) scale(3.5 4.7996)">
<stop stop-color="#52383E"/>
<stop offset="0.651042" stop-color="#5C4553"/>
<stop offset="1" stop-color="#432A35"/>
</radialGradient>
<linearGradient id="paint24_linear_7159_2151" x1="22" y1="10.5001" x2="21.5381" y2="12.9116" gradientUnits="userSpaceOnUse">
<stop stop-color="#52383E"/>
<stop offset="1" stop-color="#432A35"/>
</linearGradient>
<radialGradient id="paint25_radial_7159_2151" cx="0" cy="0" r="1" gradientUnits="userSpaceOnUse" gradientTransform="translate(12 6.99998) rotate(-63.435) scale(2.23607 3.35294)">
<stop stop-color="#301E26"/>
<stop offset="1" stop-color="#52383E"/>
</radialGradient>
<radialGradient id="paint26_radial_7159_2151" cx="0" cy="0" r="1" gradientUnits="userSpaceOnUse" gradientTransform="translate(21 6.99998) rotate(-116.565) scale(2.23607 3.35294)">
<stop stop-color="#301E26"/>
<stop offset="1" stop-color="#52383E"/>
</radialGradient>
<radialGradient id="paint27_radial_7159_2151" cx="0" cy="0" r="1" gradientTransform="matrix(5.31674 8.00034 -15.7525 10.47 7.68298 22.0003)" gradientUnits="userSpaceOnUse">
<stop offset="0.336345" stop-color="#FEF4FF"/>
<stop offset="1" stop-color="#F8B1FF"/>
</radialGradient>
<radialGradient id="paint28_radial_7159_2151" cx="0" cy="0" r="1" gradientTransform="matrix(1.09027 1.47517 -4.29553 3.17518 10.5688 17.4999)" gradientUnits="userSpaceOnUse">
<stop offset="0.131229" stop-color="#C8BEC3" stop-opacity="0.93"/>
<stop offset="0.658446" stop-color="#C8BEC3" stop-opacity="0.239583"/>
<stop offset="0.796875" stop-color="#C8BEC3" stop-opacity="0.0876813"/>
<stop offset="1" stop-color="#C8BEC3" stop-opacity="0"/>
</radialGradient>
<radialGradient id="paint29_radial_7159_2151" cx="0" cy="0" r="1" gradientTransform="matrix(0.154973 2.2642 -5.27236 0.360917 13.2357 16.0695)" gradientUnits="userSpaceOnUse">
<stop stop-color="#C8BEC3" stop-opacity="0.87"/>
<stop offset="0.718696" stop-color="#C8BEC3" stop-opacity="0.239583"/>
<stop offset="1" stop-color="#C8BEC3" stop-opacity="0"/>
</radialGradient>
<radialGradient id="paint30_radial_7159_2151" cx="0" cy="0" r="1" gradientTransform="matrix(-0.434071 0.793357 -2.40925 -1.31836 6.79176 18.27)" gradientUnits="userSpaceOnUse">
<stop stop-color="#C8BEC3"/>
<stop offset="0.662069" stop-color="#C8BEC3" stop-opacity="0.239583"/>
<stop offset="1" stop-color="#C8BEC3" stop-opacity="0"/>
</radialGradient>
<radialGradient id="paint31_radial_7159_2151" cx="0" cy="0" r="1" gradientUnits="userSpaceOnUse" gradientTransform="translate(7.5 19.5) rotate(139.399) scale(4.60977)">
<stop stop-color="#EEEAF9" stop-opacity="0"/>
<stop offset="0.910262" stop-color="#C39ED9"/>
</radialGradient>
<radialGradient id="paint32_radial_7159_2151" cx="0" cy="0" r="1" gradientUnits="userSpaceOnUse" gradientTransform="translate(12.5 24.5) rotate(95.1944) scale(5.52268)">
<stop stop-color="#FAE8FF" stop-opacity="0"/>
<stop offset="0.910262" stop-color="#EC94FF"/>
</radialGradient>
<radialGradient id="paint33_radial_7159_2151" cx="0" cy="0" r="1" gradientUnits="userSpaceOnUse" gradientTransform="translate(10 22) rotate(135) scale(11.3137)">
<stop offset="0.15664" stop-color="#FFF6FF"/>
<stop offset="0.741349" stop-color="#E88DFF"/>
</radialGradient>
<radialGradient id="paint34_radial_7159_2151" cx="0" cy="0" r="1" gradientUnits="userSpaceOnUse" gradientTransform="translate(11.4998 24.6438) rotate(-178.196) scale(9.08641 6.85716)">
<stop offset="0.356643" stop-color="#BFA2E0" stop-opacity="0"/>
<stop offset="0.689714" stop-color="#BFA2E0" stop-opacity="0.2"/>
<stop offset="0.81985" stop-color="#BFA2E0" stop-opacity="0.41"/>
<stop offset="1" stop-color="#BFA2E0"/>
</radialGradient>
<radialGradient id="paint35_radial_7159_2151" cx="0" cy="0" r="1" gradientUnits="userSpaceOnUse" gradientTransform="translate(9.45034 27.8662) rotate(-107.571) scale(8.64749 6.52593)">
<stop offset="0.624338" stop-color="#BFA2E0" stop-opacity="0"/>
<stop offset="0.754395" stop-color="#BFA2E0" stop-opacity="0.2"/>
<stop offset="0.833746" stop-color="#BFA2E0" stop-opacity="0.41"/>
<stop offset="1" stop-color="#BFA2E0"/>
</radialGradient>
<linearGradient id="paint36_linear_7159_2151" x1="27.0001" y1="19.0002" x2="21.9998" y2="25.0001" gradientUnits="userSpaceOnUse">
<stop stop-color="#FFF8FF"/>
<stop offset="0.455337" stop-color="#D0C1DB"/>
<stop offset="0.873798" stop-color="#C28EEC"/>
</linearGradient>
<radialGradient id="paint37_radial_7159_2151" cx="0" cy="0" r="1" gradientUnits="userSpaceOnUse" gradientTransform="translate(29.5005 19.5) rotate(135.003) scale(5.6572)">
<stop stop-color="#EEEAF9" stop-opacity="0"/>
<stop offset="0.910262" stop-color="#C39ED9"/>
</radialGradient>
<radialGradient id="paint38_radial_7159_2151" cx="0" cy="0" r="1" gradientUnits="userSpaceOnUse" gradientTransform="translate(21.5 23.5) rotate(108.435) scale(6.32456)">
<stop stop-color="#C38EEC"/>
<stop offset="0.910262" stop-color="#EC94FF"/>
</radialGradient>
<radialGradient id="paint39_radial_7159_2151" cx="0" cy="0" r="1" gradientUnits="userSpaceOnUse" gradientTransform="translate(29.0005 22) rotate(135) scale(11.3137)">
<stop offset="0.15664" stop-color="#FFF6FF"/>
<stop offset="0.741349" stop-color="#E88DFF"/>
</radialGradient>
<radialGradient id="paint40_radial_7159_2151" cx="0" cy="0" r="1" gradientUnits="userSpaceOnUse" gradientTransform="translate(30.1107 24.6253) rotate(-177.546) scale(8.7475 9.2841)">
<stop offset="0.395181" stop-color="#BFA2E0" stop-opacity="0"/>
<stop offset="0.656796" stop-color="#BFA2E0" stop-opacity="0.112447"/>
<stop offset="0.790884" stop-color="#BFA2E0" stop-opacity="0.367954"/>
<stop offset="1" stop-color="#BFA2E0" stop-opacity="0.8"/>
</radialGradient>
<radialGradient id="paint41_radial_7159_2151" cx="0" cy="0" r="1" gradientUnits="userSpaceOnUse" gradientTransform="translate(27.4475 28.1649) rotate(-105.689) scale(8.99197 9.54357)">
<stop offset="0.524535" stop-color="#BFA2E0" stop-opacity="0"/>
<stop offset="0.702451" stop-color="#BFA2E0" stop-opacity="0.112447"/>
<stop offset="0.836533" stop-color="#BFA2E0" stop-opacity="0.367954"/>
<stop offset="1" stop-color="#BFA2E0" stop-opacity="0.8"/>
</radialGradient>
<clipPath id="clip0_7159_2151">
<rect width="32" height="32" fill="white"/>
</clipPath>
</defs>
</svg>
