<svg width="32" height="32" viewBox="0 0 32 32" fill="none" xmlns="http://www.w3.org/2000/svg">
<circle cx="11" cy="14.25" r="2" fill="#D9D9D9"/>
<path d="M15.9989 29.9978C25.3333 29.9978 29.9978 23.7303 29.9978 15.9989C29.9978 8.26751 25.3333 2 15.9989 2C6.66443 2 2 8.26751 2 15.9989C2 23.7303 6.66443 29.9978 15.9989 29.9978Z" fill="url(#paint0_radial_7159_2147)"/>
<path d="M15.9989 29.9978C25.3333 29.9978 29.9978 23.7303 29.9978 15.9989C29.9978 8.26751 25.3333 2 15.9989 2C6.66443 2 2 8.26751 2 15.9989C2 23.7303 6.66443 29.9978 15.9989 29.9978Z" fill="url(#paint1_radial_7159_2147)"/>
<path d="M15.9989 29.9978C25.3333 29.9978 29.9978 23.7303 29.9978 15.9989C29.9978 8.26751 25.3333 2 15.9989 2C6.66443 2 2 8.26751 2 15.9989C2 23.7303 6.66443 29.9978 15.9989 29.9978Z" fill="url(#paint2_radial_7159_2147)"/>
<path d="M15.9989 29.9978C25.3333 29.9978 29.9978 23.7303 29.9978 15.9989C29.9978 8.26751 25.3333 2 15.9989 2C6.66443 2 2 8.26751 2 15.9989C2 23.7303 6.66443 29.9978 15.9989 29.9978Z" fill="url(#paint3_radial_7159_2147)" fill-opacity="0.6"/>
<path d="M15.9989 29.9978C25.3333 29.9978 29.9978 23.7303 29.9978 15.9989C29.9978 8.26751 25.3333 2 15.9989 2C6.66443 2 2 8.26751 2 15.9989C2 23.7303 6.66443 29.9978 15.9989 29.9978Z" fill="url(#paint4_radial_7159_2147)"/>
<path d="M15.9989 29.9978C25.3333 29.9978 29.9978 23.7303 29.9978 15.9989C29.9978 8.26751 25.3333 2 15.9989 2C6.66443 2 2 8.26751 2 15.9989C2 23.7303 6.66443 29.9978 15.9989 29.9978Z" fill="url(#paint5_radial_7159_2147)"/>
<path d="M15.9989 29.9978C25.3333 29.9978 29.9978 23.7303 29.9978 15.9989C29.9978 8.26751 25.3333 2 15.9989 2C6.66443 2 2 8.26751 2 15.9989C2 23.7303 6.66443 29.9978 15.9989 29.9978Z" fill="url(#paint6_radial_7159_2147)"/>
<path d="M15.9989 29.9978C25.3333 29.9978 29.9978 23.7303 29.9978 15.9989C29.9978 8.26751 25.3333 2 15.9989 2C6.66443 2 2 8.26751 2 15.9989C2 23.7303 6.66443 29.9978 15.9989 29.9978Z" fill="url(#paint7_radial_7159_2147)"/>
<path d="M15.9989 29.9978C25.3333 29.9978 29.9978 23.7303 29.9978 15.9989C29.9978 8.26751 25.3333 2 15.9989 2C6.66443 2 2 8.26751 2 15.9989C2 23.7303 6.66443 29.9978 15.9989 29.9978Z" fill="url(#paint8_radial_7159_2147)"/>
<path d="M15.9989 29.9978C25.3333 29.9978 29.9978 23.7303 29.9978 15.9989C29.9978 8.26751 25.3333 2 15.9989 2C6.66443 2 2 8.26751 2 15.9989C2 23.7303 6.66443 29.9978 15.9989 29.9978Z" fill="url(#paint9_radial_7159_2147)"/>
<path d="M15.9989 29.9978C25.3333 29.9978 29.9978 23.7303 29.9978 15.9989C29.9978 8.26751 25.3333 2 15.9989 2C6.66443 2 2 8.26751 2 15.9989C2 23.7303 6.66443 29.9978 15.9989 29.9978Z" fill="url(#paint10_radial_7159_2147)"/>
<path d="M15.9989 29.9978C25.3333 29.9978 29.9978 23.7303 29.9978 15.9989C29.9978 8.26751 25.3333 2 15.9989 2C6.66443 2 2 8.26751 2 15.9989C2 23.7303 6.66443 29.9978 15.9989 29.9978Z" fill="url(#paint11_radial_7159_2147)"/>
<path d="M15.9989 29.9978C25.3333 29.9978 29.9978 23.7303 29.9978 15.9989C29.9978 8.26751 25.3333 2 15.9989 2C6.66443 2 2 8.26751 2 15.9989C2 23.7303 6.66443 29.9978 15.9989 29.9978Z" fill="url(#paint12_radial_7159_2147)"/>
<path d="M15.9989 29.9978C25.3333 29.9978 29.9978 23.7303 29.9978 15.9989C29.9978 8.26751 25.3333 2 15.9989 2C6.66443 2 2 8.26751 2 15.9989C2 23.7303 6.66443 29.9978 15.9989 29.9978Z" fill="url(#paint13_radial_7159_2147)"/>
<path d="M15.9989 29.9978C25.3333 29.9978 29.9978 23.7303 29.9978 15.9989C29.9978 8.26751 25.3333 2 15.9989 2C6.66443 2 2 8.26751 2 15.9989C2 23.7303 6.66443 29.9978 15.9989 29.9978Z" fill="url(#paint14_radial_7159_2147)"/>
<path d="M15.9989 29.9978C25.3333 29.9978 29.9978 23.7303 29.9978 15.9989C29.9978 8.26751 25.3333 2 15.9989 2C6.66443 2 2 8.26751 2 15.9989C2 23.7303 6.66443 29.9978 15.9989 29.9978Z" fill="url(#paint15_radial_7159_2147)"/>
<path d="M15.9989 29.9978C25.3333 29.9978 29.9978 23.7303 29.9978 15.9989C29.9978 8.26751 25.3333 2 15.9989 2C6.66443 2 2 8.26751 2 15.9989C2 23.7303 6.66443 29.9978 15.9989 29.9978Z" fill="url(#paint16_radial_7159_2147)"/>
<path d="M15.9989 29.9978C25.3333 29.9978 29.9978 23.7303 29.9978 15.9989C29.9978 8.26751 25.3333 2 15.9989 2C6.66443 2 2 8.26751 2 15.9989C2 23.7303 6.66443 29.9978 15.9989 29.9978Z" fill="url(#paint17_radial_7159_2147)"/>
<path d="M15.9989 29.9978C25.3333 29.9978 29.9978 23.7303 29.9978 15.9989C29.9978 8.26751 25.3333 2 15.9989 2C6.66443 2 2 8.26751 2 15.9989C2 23.7303 6.66443 29.9978 15.9989 29.9978Z" fill="url(#paint18_radial_7159_2147)"/>
<path d="M15.9989 29.9978C25.3333 29.9978 29.9978 23.7303 29.9978 15.9989C29.9978 8.26751 25.3333 2 15.9989 2C6.66443 2 2 8.26751 2 15.9989C2 23.7303 6.66443 29.9978 15.9989 29.9978Z" fill="url(#paint19_radial_7159_2147)"/>
<path d="M15.9989 29.9978C25.3333 29.9978 29.9978 23.7303 29.9978 15.9989C29.9978 8.26751 25.3333 2 15.9989 2C6.66443 2 2 8.26751 2 15.9989C2 23.7303 6.66443 29.9978 15.9989 29.9978Z" fill="url(#paint20_radial_7159_2147)"/>
<path d="M13.5 18C13.5 18 15 16.5 15 14.5C15 12.0147 12.9853 10 10.5 10C8.01472 10 6 12.0147 6 14.5C6 16.5 7.04226 17.3801 7.04226 17.3801C7.04226 17.3801 9.05528 16.8367 10.5 17C12.5 17.226 13.5 18 13.5 18Z" fill="white"/>
<path d="M13 14.25C13 15.3546 12.1046 16.25 11 16.25C9.89543 16.25 9 15.3546 9 14.25C9 13.1454 9.89543 12.25 11 12.25C12.1046 12.25 13 13.1454 13 14.25Z" fill="url(#paint21_linear_7159_2147)"/>
<path fill-rule="evenodd" clip-rule="evenodd" d="M22.7719 14.5649C22.5633 14.2853 22.2176 13.995 21.5388 14.0001C20.852 14.0051 20.5109 14.2989 20.3105 14.5712C20.1997 14.7217 20.127 14.8766 20.0825 14.995C20.0608 15.0529 20.0473 15.0983 20.04 15.1248C20.0368 15.1366 20.035 15.1444 20.0342 15.1475C19.9238 15.6832 19.4024 16.0316 18.8641 15.9269C18.322 15.8216 17.9679 15.2967 18.0732 14.7545C18.1101 14.5999 18.1101 14.5999 18.1101 14.5999C18.1316 14.5209 18.1638 14.4154 18.2101 14.2922C18.3016 14.0482 18.4539 13.7197 18.6997 13.3858C19.2122 12.6894 20.1093 12.0106 21.524 12.0001C22.9468 11.9896 23.855 12.672 24.375 13.369C24.6246 13.7036 24.7811 14.0338 24.8757 14.2789C24.9236 14.4028 24.9572 14.5087 24.9797 14.5881C25.1128 15.0569 24.9237 15.7834 24.2421 15.9246C23.7049 16.0359 23.1791 15.6937 23.0623 15.159C23.0615 15.1558 23.0594 15.1473 23.0557 15.1343C23.0478 15.1064 23.0332 15.0594 23.0101 14.9996C22.9629 14.8775 22.8865 14.7185 22.7719 14.5649Z" fill="url(#paint22_radial_7159_2147)"/>
<path fill-rule="evenodd" clip-rule="evenodd" d="M23.9306 9.98761C24.5235 10.5505 24.8821 11.2277 25.0255 11.6581C25.1128 11.9201 25.396 12.0617 25.658 11.9743C25.9199 11.887 26.0615 11.6039 25.9742 11.3419C25.7843 10.7723 25.3429 9.94951 24.6191 9.26239C23.8869 8.5672 22.852 8 21.4999 8C21.2237 8 20.9999 8.22386 20.9999 8.5C20.9999 8.77614 21.2237 9 21.4999 9C22.5478 9 23.3462 9.4328 23.9306 9.98761Z" fill="url(#paint23_radial_7159_2147)"/>
<path fill-rule="evenodd" clip-rule="evenodd" d="M23.9306 9.98761C24.5235 10.5505 24.8821 11.2277 25.0255 11.6581C25.1128 11.9201 25.396 12.0617 25.658 11.9743C25.9199 11.887 26.0615 11.6039 25.9742 11.3419C25.7843 10.7723 25.3429 9.94951 24.6191 9.26239C23.8869 8.5672 22.852 8 21.4999 8C21.2237 8 20.9999 8.22386 20.9999 8.5C20.9999 8.77614 21.2237 9 21.4999 9C22.5478 9 23.3462 9.4328 23.9306 9.98761Z" fill="url(#paint24_radial_7159_2147)"/>
<path fill-rule="evenodd" clip-rule="evenodd" d="M8.06939 7.98761C7.47649 8.55049 7.11794 9.22774 6.97448 9.65811C6.88715 9.92009 6.60399 10.0617 6.34202 9.97434C6.08005 9.88702 5.93847 9.60386 6.02579 9.34189C6.21567 8.77226 6.65711 7.94951 7.38088 7.26239C8.11314 6.5672 9.14804 6 10.5001 6C10.7763 6 11.0001 6.22386 11.0001 6.5C11.0001 6.77614 10.7763 7 10.5001 7C9.45223 7 8.65379 7.4328 8.06939 7.98761Z" fill="url(#paint25_radial_7159_2147)"/>
<path fill-rule="evenodd" clip-rule="evenodd" d="M8.06939 7.98761C7.47649 8.55049 7.11794 9.22774 6.97448 9.65811C6.88715 9.92009 6.60399 10.0617 6.34202 9.97434C6.08005 9.88702 5.93847 9.60386 6.02579 9.34189C6.21567 8.77226 6.65711 7.94951 7.38088 7.26239C8.11314 6.5672 9.14804 6 10.5001 6C10.7763 6 11.0001 6.22386 11.0001 6.5C11.0001 6.77614 10.7763 7 10.5001 7C9.45223 7 8.65379 7.4328 8.06939 7.98761Z" fill="url(#paint26_radial_7159_2147)"/>
<path d="M23.742 26.5689C24.8387 26.5518 26.7406 26.3377 28.479 25.2311C31.1718 23.5169 30.2894 19.6488 26.259 20.2545C25.4833 17.3388 21.4614 17.1317 21.0678 20.2711C20.8042 22.3733 21.7583 24.5855 22.3615 25.7344C22.6338 26.253 23.1563 26.578 23.742 26.5689Z" fill="#DD2263"/>
<path d="M23.742 26.5689C24.8387 26.5518 26.7406 26.3377 28.479 25.2311C31.1718 23.5169 30.2894 19.6488 26.259 20.2545C25.4833 17.3388 21.4614 17.1317 21.0678 20.2711C20.8042 22.3733 21.7583 24.5855 22.3615 25.7344C22.6338 26.253 23.1563 26.578 23.742 26.5689Z" fill="url(#paint27_radial_7159_2147)"/>
<path d="M23.742 26.5689C24.8387 26.5518 26.7406 26.3377 28.479 25.2311C31.1718 23.5169 30.2894 19.6488 26.259 20.2545C25.4833 17.3388 21.4614 17.1317 21.0678 20.2711C20.8042 22.3733 21.7583 24.5855 22.3615 25.7344C22.6338 26.253 23.1563 26.578 23.742 26.5689Z" fill="url(#paint28_linear_7159_2147)"/>
<path d="M23.742 26.5689C24.8387 26.5518 26.7406 26.3377 28.479 25.2311C31.1718 23.5169 30.2894 19.6488 26.259 20.2545C25.4833 17.3388 21.4614 17.1317 21.0678 20.2711C20.8042 22.3733 21.7583 24.5855 22.3615 25.7344C22.6338 26.253 23.1563 26.578 23.742 26.5689Z" fill="url(#paint29_linear_7159_2147)"/>
<path d="M23.742 26.5689C24.8387 26.5518 26.7406 26.3377 28.479 25.2311C31.1718 23.5169 30.2894 19.6488 26.259 20.2545C25.4833 17.3388 21.4614 17.1317 21.0678 20.2711C20.8042 22.3733 21.7583 24.5855 22.3615 25.7344C22.6338 26.253 23.1563 26.578 23.742 26.5689Z" fill="url(#paint30_linear_7159_2147)"/>
<path d="M23.742 26.5689C24.8387 26.5518 26.7406 26.3377 28.479 25.2311C31.1718 23.5169 30.2894 19.6488 26.259 20.2545C25.4833 17.3388 21.4614 17.1317 21.0678 20.2711C20.8042 22.3733 21.7583 24.5855 22.3615 25.7344C22.6338 26.253 23.1563 26.578 23.742 26.5689Z" fill="url(#paint31_linear_7159_2147)"/>
<path d="M23.742 26.5689C24.8387 26.5518 26.7406 26.3377 28.479 25.2311C31.1718 23.5169 30.2894 19.6488 26.259 20.2545C25.4833 17.3388 21.4614 17.1317 21.0678 20.2711C20.8042 22.3733 21.7583 24.5855 22.3615 25.7344C22.6338 26.253 23.1563 26.578 23.742 26.5689Z" fill="url(#paint32_radial_7159_2147)"/>
<path d="M23.742 26.5689C24.8387 26.5518 26.7406 26.3377 28.479 25.2311C31.1718 23.5169 30.2894 19.6488 26.259 20.2545C25.4833 17.3388 21.4614 17.1317 21.0678 20.2711C20.8042 22.3733 21.7583 24.5855 22.3615 25.7344C22.6338 26.253 23.1563 26.578 23.742 26.5689Z" fill="url(#paint33_radial_7159_2147)"/>
<path d="M23.742 26.5689C24.8387 26.5518 26.7406 26.3377 28.479 25.2311C31.1718 23.5169 30.2894 19.6488 26.259 20.2545C25.4833 17.3388 21.4614 17.1317 21.0678 20.2711C20.8042 22.3733 21.7583 24.5855 22.3615 25.7344C22.6338 26.253 23.1563 26.578 23.742 26.5689Z" fill="url(#paint34_radial_7159_2147)"/>
<path d="M23.742 26.5689C24.8387 26.5518 26.7406 26.3377 28.479 25.2311C31.1718 23.5169 30.2894 19.6488 26.259 20.2545C25.4833 17.3388 21.4614 17.1317 21.0678 20.2711C20.8042 22.3733 21.7583 24.5855 22.3615 25.7344C22.6338 26.253 23.1563 26.578 23.742 26.5689Z" fill="url(#paint35_radial_7159_2147)"/>
<path d="M23.742 26.5689C24.8387 26.5518 26.7406 26.3377 28.479 25.2311C31.1718 23.5169 30.2894 19.6488 26.259 20.2545C25.4833 17.3388 21.4614 17.1317 21.0678 20.2711C20.8042 22.3733 21.7583 24.5855 22.3615 25.7344C22.6338 26.253 23.1563 26.578 23.742 26.5689Z" fill="url(#paint36_radial_7159_2147)"/>
<path d="M23.742 26.5689C24.8387 26.5518 26.7406 26.3377 28.479 25.2311C31.1718 23.5169 30.2894 19.6488 26.259 20.2545C25.4833 17.3388 21.4614 17.1317 21.0678 20.2711C20.8042 22.3733 21.7583 24.5855 22.3615 25.7344C22.6338 26.253 23.1563 26.578 23.742 26.5689Z" fill="url(#paint37_radial_7159_2147)"/>
<path d="M23.742 26.5689C24.8387 26.5518 26.7406 26.3377 28.479 25.2311C31.1718 23.5169 30.2894 19.6488 26.259 20.2545C25.4833 17.3388 21.4614 17.1317 21.0678 20.2711C20.8042 22.3733 21.7583 24.5855 22.3615 25.7344C22.6338 26.253 23.1563 26.578 23.742 26.5689Z" fill="url(#paint38_radial_7159_2147)"/>
<path d="M23.742 26.5689C24.8387 26.5518 26.7406 26.3377 28.479 25.2311C31.1718 23.5169 30.2894 19.6488 26.259 20.2545C25.4833 17.3388 21.4614 17.1317 21.0678 20.2711C20.8042 22.3733 21.7583 24.5855 22.3615 25.7344C22.6338 26.253 23.1563 26.578 23.742 26.5689Z" fill="url(#paint39_radial_7159_2147)"/>
<path d="M23.742 26.5689C24.8387 26.5518 26.7406 26.3377 28.479 25.2311C31.1718 23.5169 30.2894 19.6488 26.259 20.2545C25.4833 17.3388 21.4614 17.1317 21.0678 20.2711C20.8042 22.3733 21.7583 24.5855 22.3615 25.7344C22.6338 26.253 23.1563 26.578 23.742 26.5689Z" fill="url(#paint40_radial_7159_2147)"/>
<path d="M23.742 26.5689C24.8387 26.5518 26.7406 26.3377 28.479 25.2311C31.1718 23.5169 30.2894 19.6488 26.259 20.2545C25.4833 17.3388 21.4614 17.1317 21.0678 20.2711C20.8042 22.3733 21.7583 24.5855 22.3615 25.7344C22.6338 26.253 23.1563 26.578 23.742 26.5689Z" fill="url(#paint41_radial_7159_2147)"/>
<path d="M23.742 26.5689C24.8387 26.5518 26.7406 26.3377 28.479 25.2311C31.1718 23.5169 30.2894 19.6488 26.259 20.2545C25.4833 17.3388 21.4614 17.1317 21.0678 20.2711C20.8042 22.3733 21.7583 24.5855 22.3615 25.7344C22.6338 26.253 23.1563 26.578 23.742 26.5689Z" fill="url(#paint42_radial_7159_2147)"/>
<path d="M23.742 26.5689C24.8387 26.5518 26.7406 26.3377 28.479 25.2311C31.1718 23.5169 30.2894 19.6488 26.259 20.2545C25.4833 17.3388 21.4614 17.1317 21.0678 20.2711C20.8042 22.3733 21.7583 24.5855 22.3615 25.7344C22.6338 26.253 23.1563 26.578 23.742 26.5689Z" fill="url(#paint43_radial_7159_2147)"/>
<path d="M23.742 26.5689C24.8387 26.5518 26.7406 26.3377 28.479 25.2311C31.1718 23.5169 30.2894 19.6488 26.259 20.2545C25.4833 17.3388 21.4614 17.1317 21.0678 20.2711C20.8042 22.3733 21.7583 24.5855 22.3615 25.7344C22.6338 26.253 23.1563 26.578 23.742 26.5689Z" fill="url(#paint44_radial_7159_2147)"/>
<path d="M16.6699 17.9199C16.1176 17.9199 15.6699 18.3676 15.6699 18.9199C15.6699 19.4722 16.1176 19.9199 16.6699 19.9199C16.9576 19.9199 17.1899 20.1522 17.1899 20.4399C17.1899 20.7276 16.9576 20.9599 16.6699 20.9599C16.1176 20.9599 15.6699 21.4076 15.6699 21.9599C15.6699 21.9599 15.6699 21.9599 15.6699 21.9599C15.6699 22.5122 16.1176 22.96 16.6699 22.96C16.9576 22.96 17.1899 23.1922 17.1899 23.48C17.1899 23.7677 16.9576 24 16.6699 24C16.1176 24 15.6699 24.4477 15.6699 25C15.6699 25.5522 16.1176 26 16.6699 26C18.0622 26 19.1899 24.8722 19.1899 23.48C19.1899 22.9089 19.0002 22.3824 18.6804 21.9599C19.0002 21.5375 19.1899 21.0109 19.1899 20.4399C19.1899 19.0476 18.0622 17.9199 16.6699 17.9199Z" fill="url(#paint45_radial_7159_2147)"/>
<path d="M16.6699 17.9199C16.1176 17.9199 15.6699 18.3676 15.6699 18.9199C15.6699 19.4722 16.1176 19.9199 16.6699 19.9199C16.9576 19.9199 17.1899 20.1522 17.1899 20.4399C17.1899 20.7276 16.9576 20.9599 16.6699 20.9599C16.1176 20.9599 15.6699 21.4076 15.6699 21.9599C15.6699 21.9599 15.6699 21.9599 15.6699 21.9599C15.6699 22.5122 16.1176 22.96 16.6699 22.96C16.9576 22.96 17.1899 23.1922 17.1899 23.48C17.1899 23.7677 16.9576 24 16.6699 24C16.1176 24 15.6699 24.4477 15.6699 25C15.6699 25.5522 16.1176 26 16.6699 26C18.0622 26 19.1899 24.8722 19.1899 23.48C19.1899 22.9089 19.0002 22.3824 18.6804 21.9599C19.0002 21.5375 19.1899 21.0109 19.1899 20.4399C19.1899 19.0476 18.0622 17.9199 16.6699 17.9199Z" fill="url(#paint46_radial_7159_2147)"/>
<path d="M16.6699 17.9199C16.1176 17.9199 15.6699 18.3676 15.6699 18.9199C15.6699 19.4722 16.1176 19.9199 16.6699 19.9199C16.9576 19.9199 17.1899 20.1522 17.1899 20.4399C17.1899 20.7276 16.9576 20.9599 16.6699 20.9599C16.1176 20.9599 15.6699 21.4076 15.6699 21.9599C15.6699 21.9599 15.6699 21.9599 15.6699 21.9599C15.6699 22.5122 16.1176 22.96 16.6699 22.96C16.9576 22.96 17.1899 23.1922 17.1899 23.48C17.1899 23.7677 16.9576 24 16.6699 24C16.1176 24 15.6699 24.4477 15.6699 25C15.6699 25.5522 16.1176 26 16.6699 26C18.0622 26 19.1899 24.8722 19.1899 23.48C19.1899 22.9089 19.0002 22.3824 18.6804 21.9599C19.0002 21.5375 19.1899 21.0109 19.1899 20.4399C19.1899 19.0476 18.0622 17.9199 16.6699 17.9199Z" fill="url(#paint47_linear_7159_2147)"/>
<path d="M16.6699 17.9199C16.1176 17.9199 15.6699 18.3676 15.6699 18.9199C15.6699 19.4722 16.1176 19.9199 16.6699 19.9199C16.9576 19.9199 17.1899 20.1522 17.1899 20.4399C17.1899 20.7276 16.9576 20.9599 16.6699 20.9599C16.1176 20.9599 15.6699 21.4076 15.6699 21.9599C15.6699 21.9599 15.6699 21.9599 15.6699 21.9599C15.6699 22.5122 16.1176 22.96 16.6699 22.96C16.9576 22.96 17.1899 23.1922 17.1899 23.48C17.1899 23.7677 16.9576 24 16.6699 24C16.1176 24 15.6699 24.4477 15.6699 25C15.6699 25.5522 16.1176 26 16.6699 26C18.0622 26 19.1899 24.8722 19.1899 23.48C19.1899 22.9089 19.0002 22.3824 18.6804 21.9599C19.0002 21.5375 19.1899 21.0109 19.1899 20.4399C19.1899 19.0476 18.0622 17.9199 16.6699 17.9199Z" fill="url(#paint48_radial_7159_2147)"/>
<path d="M16.6699 17.9199C16.1176 17.9199 15.6699 18.3676 15.6699 18.9199C15.6699 19.4722 16.1176 19.9199 16.6699 19.9199C16.9576 19.9199 17.1899 20.1522 17.1899 20.4399C17.1899 20.7276 16.9576 20.9599 16.6699 20.9599C16.1176 20.9599 15.6699 21.4076 15.6699 21.9599C15.6699 21.9599 15.6699 21.9599 15.6699 21.9599C15.6699 22.5122 16.1176 22.96 16.6699 22.96C16.9576 22.96 17.1899 23.1922 17.1899 23.48C17.1899 23.7677 16.9576 24 16.6699 24C16.1176 24 15.6699 24.4477 15.6699 25C15.6699 25.5522 16.1176 26 16.6699 26C18.0622 26 19.1899 24.8722 19.1899 23.48C19.1899 22.9089 19.0002 22.3824 18.6804 21.9599C19.0002 21.5375 19.1899 21.0109 19.1899 20.4399C19.1899 19.0476 18.0622 17.9199 16.6699 17.9199Z" fill="url(#paint49_radial_7159_2147)"/>
<defs>
<radialGradient id="paint0_radial_7159_2147" cx="0" cy="0" r="1" gradientUnits="userSpaceOnUse" gradientTransform="translate(25.5 9) rotate(132.839) scale(37.5033)">
<stop stop-color="#FFF478"/>
<stop offset="0.474827" stop-color="#FFB02E"/>
<stop offset="1" stop-color="#F70A8D"/>
</radialGradient>
<radialGradient id="paint1_radial_7159_2147" cx="0" cy="0" r="1" gradientUnits="userSpaceOnUse" gradientTransform="translate(25.5 9) rotate(131.878) scale(38.9487)">
<stop stop-color="#FFF478"/>
<stop offset="0.474827" stop-color="#FFB02E"/>
<stop offset="1" stop-color="#F70A8D"/>
</radialGradient>
<radialGradient id="paint2_radial_7159_2147" cx="0" cy="0" r="1" gradientUnits="userSpaceOnUse" gradientTransform="translate(16 12.5) rotate(101.31) scale(17.8466 22.8581)">
<stop offset="0.787821" stop-color="#F59639" stop-opacity="0"/>
<stop offset="0.972509" stop-color="#FF7DCE"/>
</radialGradient>
<radialGradient id="paint3_radial_7159_2147" cx="0" cy="0" r="1" gradientUnits="userSpaceOnUse" gradientTransform="translate(18 14) rotate(135) scale(41.0122)">
<stop offset="0.314853" stop-opacity="0"/>
<stop offset="1"/>
</radialGradient>
<radialGradient id="paint4_radial_7159_2147" cx="0" cy="0" r="1" gradientUnits="userSpaceOnUse" gradientTransform="translate(16 17) rotate(77.692) scale(28.1469)">
<stop offset="0.507903" stop-color="#7D6133" stop-opacity="0"/>
<stop offset="1" stop-color="#715B32"/>
</radialGradient>
<radialGradient id="paint5_radial_7159_2147" cx="0" cy="0" r="1" gradientUnits="userSpaceOnUse" gradientTransform="translate(16.5 16.5) rotate(55.7131) scale(13.3135 9.65032)">
<stop stop-color="#FFB849"/>
<stop offset="1" stop-color="#FFB847" stop-opacity="0"/>
</radialGradient>
<radialGradient id="paint6_radial_7159_2147" cx="0" cy="0" r="1" gradientUnits="userSpaceOnUse" gradientTransform="translate(20.5 18) rotate(9.86581) scale(11.6726)">
<stop stop-color="#FFA64B"/>
<stop offset="0.900412" stop-color="#FFAE46" stop-opacity="0"/>
</radialGradient>
<radialGradient id="paint7_radial_7159_2147" cx="0" cy="0" r="1" gradientUnits="userSpaceOnUse" gradientTransform="translate(17.5 15) rotate(43.9708) scale(59.0529)">
<stop offset="0.185425" stop-opacity="0"/>
<stop offset="1" stop-opacity="0.4"/>
</radialGradient>
<radialGradient id="paint8_radial_7159_2147" cx="0" cy="0" r="1" gradientUnits="userSpaceOnUse" gradientTransform="translate(11.6725 14.7697) rotate(86.5467) scale(3.7592 3.81207)">
<stop stop-color="#B3671F"/>
<stop offset="0.392157" stop-color="#B3671F"/>
<stop offset="0.643397" stop-color="#B3671F" stop-opacity="0.446091"/>
<stop offset="0.806763" stop-color="#B3671F" stop-opacity="0.179254"/>
<stop offset="1" stop-color="#B3671F" stop-opacity="0"/>
</radialGradient>
<radialGradient id="paint9_radial_7159_2147" cx="0" cy="0" r="1" gradientUnits="userSpaceOnUse" gradientTransform="translate(8.91035 14.1463) rotate(89.9138) scale(4.77181 4.11178)">
<stop offset="0.47452" stop-color="#B3671F"/>
<stop offset="0.781916" stop-color="#B3671F" stop-opacity="0.236695"/>
<stop offset="0.873485" stop-color="#B3671F" stop-opacity="0.0865443"/>
<stop offset="0.948588" stop-color="#B3671F" stop-opacity="0"/>
</radialGradient>
<radialGradient id="paint10_radial_7159_2147" cx="0" cy="0" r="1" gradientUnits="userSpaceOnUse" gradientTransform="translate(23.3599 15.1272) rotate(46.1017) scale(1.74373 1.41318)">
<stop stop-color="#D0782E"/>
<stop offset="1" stop-color="#D0782E" stop-opacity="0"/>
</radialGradient>
<radialGradient id="paint11_radial_7159_2147" cx="0" cy="0" r="1" gradientUnits="userSpaceOnUse" gradientTransform="translate(22.0797 14.1552) rotate(34.5742) scale(2.13061 0.729976)">
<stop stop-color="#D0782E"/>
<stop offset="1" stop-color="#D0782E" stop-opacity="0"/>
</radialGradient>
<radialGradient id="paint12_radial_7159_2147" cx="0" cy="0" r="1" gradientUnits="userSpaceOnUse" gradientTransform="translate(20.9417 13.5388) rotate(24.7395) scale(2.66249 1.09297)">
<stop stop-color="#D0782E"/>
<stop offset="1" stop-color="#D0782E" stop-opacity="0"/>
</radialGradient>
<radialGradient id="paint13_radial_7159_2147" cx="0" cy="0" r="1" gradientUnits="userSpaceOnUse" gradientTransform="translate(17.6732 14.9747) rotate(105.124) scale(1.59522 1.17734)">
<stop stop-color="#E7982E"/>
<stop offset="1" stop-color="#E39632" stop-opacity="0"/>
</radialGradient>
<radialGradient id="paint14_radial_7159_2147" cx="0" cy="0" r="1" gradientUnits="userSpaceOnUse" gradientTransform="translate(24.9927 11.8214) rotate(54.1967) scale(0.949407)">
<stop stop-color="#E7982E"/>
<stop offset="1" stop-color="#E39632" stop-opacity="0"/>
</radialGradient>
<radialGradient id="paint15_radial_7159_2147" cx="0" cy="0" r="1" gradientUnits="userSpaceOnUse" gradientTransform="translate(24.2101 10.5717) rotate(67.5573) scale(1.88471 0.7789)">
<stop stop-color="#E7982E"/>
<stop offset="1" stop-color="#E39632" stop-opacity="0"/>
</radialGradient>
<radialGradient id="paint16_radial_7159_2147" cx="0" cy="0" r="1" gradientUnits="userSpaceOnUse" gradientTransform="translate(22.8721 9.43566) rotate(35.24) scale(3.10649 1.35087)">
<stop stop-color="#E2981B"/>
<stop offset="1" stop-color="#FFDC64" stop-opacity="0"/>
</radialGradient>
<radialGradient id="paint17_radial_7159_2147" cx="0" cy="0" r="1" gradientUnits="userSpaceOnUse" gradientTransform="translate(21.6981 9.00648) rotate(28.8386) scale(2.27678 0.992083)">
<stop stop-color="#E2981B"/>
<stop offset="1" stop-color="#FFDC64" stop-opacity="0"/>
</radialGradient>
<radialGradient id="paint18_radial_7159_2147" cx="0" cy="0" r="1" gradientUnits="userSpaceOnUse" gradientTransform="translate(8.22454 9.98363) rotate(-8.56089) scale(4.4529)">
<stop stop-color="#D59A13"/>
<stop offset="1" stop-color="#D59A13" stop-opacity="0"/>
</radialGradient>
<radialGradient id="paint19_radial_7159_2147" cx="0" cy="0" r="1" gradientUnits="userSpaceOnUse" gradientTransform="translate(22.3427 21.8353) rotate(180) scale(4.01959)">
<stop stop-color="#CE5635"/>
<stop offset="1" stop-color="#CE5635" stop-opacity="0"/>
</radialGradient>
<radialGradient id="paint20_radial_7159_2147" cx="0" cy="0" r="1" gradientUnits="userSpaceOnUse" gradientTransform="translate(22.1802 23.5673) rotate(176.934) scale(4.61463 5.33247)">
<stop stop-color="#CE5635"/>
<stop offset="1" stop-color="#CE5635" stop-opacity="0"/>
</radialGradient>
<linearGradient id="paint21_linear_7159_2147" x1="12.5385" y1="12.25" x2="10.8542" y2="15.5342" gradientUnits="userSpaceOnUse">
<stop stop-color="#553B3E"/>
<stop offset="1" stop-color="#3D2432"/>
</linearGradient>
<radialGradient id="paint22_radial_7159_2147" cx="0" cy="0" r="1" gradientUnits="userSpaceOnUse" gradientTransform="translate(21.5371 14.8359) rotate(90) scale(3.1875 4.31047)">
<stop offset="0.307692" stop-color="#452A3D"/>
<stop offset="0.626374" stop-color="#594052"/>
<stop offset="1" stop-color="#482C40"/>
</radialGradient>
<radialGradient id="paint23_radial_7159_2147" cx="0" cy="0" r="1" gradientUnits="userSpaceOnUse" gradientTransform="translate(22.2234 11.498) rotate(-145.524) scale(3.94156 3.60988)">
<stop offset="0.641397" stop-color="#2F1F2A"/>
<stop offset="0.822285" stop-color="#51394C"/>
<stop offset="0.881253" stop-color="#50394C"/>
<stop offset="1" stop-color="#442E3E"/>
</radialGradient>
<radialGradient id="paint24_radial_7159_2147" cx="0" cy="0" r="1" gradientUnits="userSpaceOnUse" gradientTransform="translate(23.3118 10.0001) rotate(129.805) scale(4.05269 3.26964)">
<stop offset="0.645531" stop-color="#362530" stop-opacity="0"/>
<stop offset="1" stop-color="#342330"/>
</radialGradient>
<radialGradient id="paint25_radial_7159_2147" cx="0" cy="0" r="1" gradientUnits="userSpaceOnUse" gradientTransform="translate(9.85664 9.81565) rotate(-124.747) scale(3.41018 4.28513)">
<stop offset="0.552138" stop-color="#4A2F37"/>
<stop offset="0.822285" stop-color="#51394C"/>
<stop offset="0.881253" stop-color="#50394C"/>
<stop offset="1" stop-color="#4D3635"/>
</radialGradient>
<radialGradient id="paint26_radial_7159_2147" cx="0" cy="0" r="1" gradientUnits="userSpaceOnUse" gradientTransform="translate(10.7528 6.62374) rotate(-176.165) scale(0.413982 0.778569)">
<stop stop-color="#5A4950"/>
<stop offset="1" stop-color="#5D4C4F" stop-opacity="0"/>
</radialGradient>
<radialGradient id="paint27_radial_7159_2147" cx="0" cy="0" r="1" gradientUnits="userSpaceOnUse" gradientTransform="translate(25.1774 20.3892) rotate(98.5732) scale(2.83298 3.16524)">
<stop offset="0.536968" stop-color="#F75C84"/>
<stop offset="1" stop-color="#F97291" stop-opacity="0"/>
</radialGradient>
<linearGradient id="paint28_linear_7159_2147" x1="25.9674" y1="21.1307" x2="25.2753" y2="20.4732" gradientUnits="userSpaceOnUse">
<stop stop-color="#F9718F"/>
<stop offset="1" stop-color="#F9718F" stop-opacity="0"/>
</linearGradient>
<linearGradient id="paint29_linear_7159_2147" x1="24.0884" y1="18.7084" x2="25.1774" y2="20.756" gradientUnits="userSpaceOnUse">
<stop stop-color="#DD2263"/>
<stop offset="0.439099" stop-color="#DD2263" stop-opacity="0"/>
</linearGradient>
<linearGradient id="paint30_linear_7159_2147" x1="23.3913" y1="20.9709" x2="25.3655" y2="20.4536" gradientUnits="userSpaceOnUse">
<stop offset="0.131444" stop-color="#DD2263"/>
<stop offset="0.654349" stop-color="#DD2263" stop-opacity="0"/>
</linearGradient>
<linearGradient id="paint31_linear_7159_2147" x1="27.0465" y1="21.3712" x2="25.0019" y2="20.5057" gradientUnits="userSpaceOnUse">
<stop offset="0.375696" stop-color="#DD2263"/>
<stop offset="0.601476" stop-color="#DD2263" stop-opacity="0"/>
</linearGradient>
<radialGradient id="paint32_radial_7159_2147" cx="0" cy="0" r="1" gradientUnits="userSpaceOnUse" gradientTransform="translate(25 20.4998) rotate(78.6901) scale(7.64853 8.54557)">
<stop stop-color="#DA2856" stop-opacity="0"/>
<stop offset="0.6229" stop-color="#DF2162" stop-opacity="0.53"/>
<stop offset="0.940932" stop-color="#FF67C6"/>
</radialGradient>
<radialGradient id="paint33_radial_7159_2147" cx="0" cy="0" r="1" gradientUnits="userSpaceOnUse" gradientTransform="translate(22.4313 18.1529) rotate(140.194) scale(1.40716 0.417791)">
<stop stop-color="#A41B36"/>
<stop offset="1" stop-color="#A41B36" stop-opacity="0"/>
</radialGradient>
<radialGradient id="paint34_radial_7159_2147" cx="0" cy="0" r="1" gradientUnits="userSpaceOnUse" gradientTransform="translate(21.5906 18.7335) rotate(113.448) scale(1.81111 0.533929)">
<stop stop-color="#A41B36"/>
<stop offset="1" stop-color="#A41B36" stop-opacity="0"/>
</radialGradient>
<radialGradient id="paint35_radial_7159_2147" cx="0" cy="0" r="1" gradientUnits="userSpaceOnUse" gradientTransform="translate(20.97 20.0747) rotate(91.0609) scale(3.24358 0.526504)">
<stop stop-color="#A41B36"/>
<stop offset="1" stop-color="#A41B36" stop-opacity="0"/>
</radialGradient>
<radialGradient id="paint36_radial_7159_2147" cx="0" cy="0" r="1" gradientUnits="userSpaceOnUse" gradientTransform="translate(20.9708 21.9787) rotate(83.019) scale(2.02553 0.480054)">
<stop stop-color="#A41B36"/>
<stop offset="1" stop-color="#A41B36" stop-opacity="0"/>
</radialGradient>
<radialGradient id="paint37_radial_7159_2147" cx="0" cy="0" r="1" gradientUnits="userSpaceOnUse" gradientTransform="translate(21.3937 23.5608) rotate(72.5746) scale(1.83078 0.313143)">
<stop stop-color="#A41B36"/>
<stop offset="1" stop-color="#A41B36" stop-opacity="0"/>
</radialGradient>
<radialGradient id="paint38_radial_7159_2147" cx="0" cy="0" r="1" gradientUnits="userSpaceOnUse" gradientTransform="translate(21.6614 24.4151) rotate(68.3691) scale(1.59106 0.27214)">
<stop stop-color="#A41B36"/>
<stop offset="1" stop-color="#A41B36" stop-opacity="0"/>
</radialGradient>
<radialGradient id="paint39_radial_7159_2147" cx="0" cy="0" r="1" gradientUnits="userSpaceOnUse" gradientTransform="translate(25.5992 26.7555) rotate(-94.2715) scale(5.66235 6.32645)">
<stop stop-color="#E71C86"/>
<stop offset="1" stop-color="#E92584" stop-opacity="0"/>
</radialGradient>
<radialGradient id="paint40_radial_7159_2147" cx="0" cy="0" r="1" gradientUnits="userSpaceOnUse" gradientTransform="translate(25.4763 26.3781) rotate(170.538) scale(3.10315 0.502349)">
<stop stop-color="#F07BC0"/>
<stop offset="1" stop-color="#F07BC0" stop-opacity="0"/>
</radialGradient>
<radialGradient id="paint41_radial_7159_2147" cx="0" cy="0" r="1" gradientUnits="userSpaceOnUse" gradientTransform="translate(27.5006 25.8147) rotate(164.276) scale(2.55237 0.574494)">
<stop stop-color="#F07BC0"/>
<stop offset="1" stop-color="#F07BC0" stop-opacity="0"/>
</radialGradient>
<radialGradient id="paint42_radial_7159_2147" cx="0" cy="0" r="1" gradientUnits="userSpaceOnUse" gradientTransform="translate(23.1426 26.493) rotate(-180) scale(1.83475 0.360397)">
<stop stop-color="#F07BC0"/>
<stop offset="1" stop-color="#F07BC0" stop-opacity="0"/>
</radialGradient>
<radialGradient id="paint43_radial_7159_2147" cx="0" cy="0" r="1" gradientUnits="userSpaceOnUse" gradientTransform="translate(26.4378 19.4517) rotate(135) scale(3.96807 0.623832)">
<stop stop-color="#EE5579"/>
<stop offset="1" stop-color="#EE5579" stop-opacity="0"/>
</radialGradient>
<radialGradient id="paint44_radial_7159_2147" cx="0" cy="0" r="1" gradientUnits="userSpaceOnUse" gradientTransform="translate(28.6717 21.7101) rotate(151.39) scale(1.74595 0.958067)">
<stop stop-color="#FE7392"/>
<stop offset="1" stop-color="#FE7292" stop-opacity="0"/>
</radialGradient>
<radialGradient id="paint45_radial_7159_2147" cx="0" cy="0" r="1" gradientUnits="userSpaceOnUse" gradientTransform="translate(16.4578 23.187) scale(3.19201 2.85852)">
<stop stop-color="#3D1837"/>
<stop offset="0.660606" stop-color="#5B4950"/>
<stop offset="0.751515" stop-color="#5B4950"/>
<stop offset="1" stop-color="#553445"/>
</radialGradient>
<radialGradient id="paint46_radial_7159_2147" cx="0" cy="0" r="1" gradientUnits="userSpaceOnUse" gradientTransform="translate(16.4812 20.2532) rotate(3.24734) scale(3.31469 2.62313)">
<stop stop-color="#4D254F"/>
<stop offset="0.660606" stop-color="#5B4950"/>
<stop offset="0.751515" stop-color="#5B4950"/>
<stop offset="1" stop-color="#553445" stop-opacity="0"/>
</radialGradient>
<linearGradient id="paint47_linear_7159_2147" x1="15.5189" y1="21.96" x2="17.5844" y2="21.96" gradientUnits="userSpaceOnUse">
<stop stop-color="#462A3A"/>
<stop offset="1" stop-color="#462A3A" stop-opacity="0"/>
</linearGradient>
<radialGradient id="paint48_radial_7159_2147" cx="0" cy="0" r="1" gradientUnits="userSpaceOnUse" gradientTransform="translate(16.6102 23.1295) rotate(90.5729) scale(1.46527)">
<stop stop-color="#472A35"/>
<stop offset="1" stop-color="#472A35" stop-opacity="0"/>
</radialGradient>
<radialGradient id="paint49_radial_7159_2147" cx="0" cy="0" r="1" gradientUnits="userSpaceOnUse" gradientTransform="translate(18.6875 21.96) rotate(90) scale(0.0594941 0.900173)">
<stop stop-color="#472E46"/>
<stop offset="1" stop-color="#533552" stop-opacity="0"/>
</radialGradient>
</defs>
</svg>
