<svg width="32" height="32" viewBox="0 0 32 32" fill="none" xmlns="http://www.w3.org/2000/svg">
<path d="M15.9989 29.9978C25.3333 29.9978 29.9978 23.7303 29.9978 15.9989C29.9978 8.26751 25.3333 2 15.9989 2C6.66443 2 2 8.26751 2 15.9989C2 23.7303 6.66443 29.9978 15.9989 29.9978Z" fill="url(#paint0_radial_7159_2143)"/>
<path d="M15.9989 29.9978C25.3333 29.9978 29.9978 23.7303 29.9978 15.9989C29.9978 8.26751 25.3333 2 15.9989 2C6.66443 2 2 8.26751 2 15.9989C2 23.7303 6.66443 29.9978 15.9989 29.9978Z" fill="url(#paint1_radial_7159_2143)"/>
<path d="M15.9989 29.9978C25.3333 29.9978 29.9978 23.7303 29.9978 15.9989C29.9978 8.26751 25.3333 2 15.9989 2C6.66443 2 2 8.26751 2 15.9989C2 23.7303 6.66443 29.9978 15.9989 29.9978Z" fill="url(#paint2_radial_7159_2143)" fill-opacity="0.6"/>
<path d="M15.9989 29.9978C25.3333 29.9978 29.9978 23.7303 29.9978 15.9989C29.9978 8.26751 25.3333 2 15.9989 2C6.66443 2 2 8.26751 2 15.9989C2 23.7303 6.66443 29.9978 15.9989 29.9978Z" fill="url(#paint3_radial_7159_2143)"/>
<path d="M15.9989 29.9978C25.3333 29.9978 29.9978 23.7303 29.9978 15.9989C29.9978 8.26751 25.3333 2 15.9989 2C6.66443 2 2 8.26751 2 15.9989C2 23.7303 6.66443 29.9978 15.9989 29.9978Z" fill="url(#paint4_radial_7159_2143)"/>
<path d="M15.9989 29.9978C25.3333 29.9978 29.9978 23.7303 29.9978 15.9989C29.9978 8.26751 25.3333 2 15.9989 2C6.66443 2 2 8.26751 2 15.9989C2 23.7303 6.66443 29.9978 15.9989 29.9978Z" fill="url(#paint5_radial_7159_2143)"/>
<path d="M15.9989 29.9978C25.3333 29.9978 29.9978 23.7303 29.9978 15.9989C29.9978 8.26751 25.3333 2 15.9989 2C6.66443 2 2 8.26751 2 15.9989C2 23.7303 6.66443 29.9978 15.9989 29.9978Z" fill="url(#paint6_radial_7159_2143)"/>
<path d="M15.9989 29.9978C25.3333 29.9978 29.9978 23.7303 29.9978 15.9989C29.9978 8.26751 25.3333 2 15.9989 2C6.66443 2 2 8.26751 2 15.9989C2 23.7303 6.66443 29.9978 15.9989 29.9978Z" fill="url(#paint7_radial_7159_2143)"/>
<path d="M15.9989 29.9978C25.3333 29.9978 29.9978 23.7303 29.9978 15.9989C29.9978 8.26751 25.3333 2 15.9989 2C6.66443 2 2 8.26751 2 15.9989C2 23.7303 6.66443 29.9978 15.9989 29.9978Z" fill="url(#paint8_radial_7159_2143)"/>
<path d="M15.9989 29.9978C25.3333 29.9978 29.9978 23.7303 29.9978 15.9989C29.9978 8.26751 25.3333 2 15.9989 2C6.66443 2 2 8.26751 2 15.9989C2 23.7303 6.66443 29.9978 15.9989 29.9978Z" fill="url(#paint9_radial_7159_2143)"/>
<path d="M15.9989 29.9978C25.3333 29.9978 29.9978 23.7303 29.9978 15.9989C29.9978 8.26751 25.3333 2 15.9989 2C6.66443 2 2 8.26751 2 15.9989C2 23.7303 6.66443 29.9978 15.9989 29.9978Z" fill="url(#paint10_radial_7159_2143)"/>
<path d="M15.9989 29.9978C25.3333 29.9978 29.9978 23.7303 29.9978 15.9989C29.9978 8.26751 25.3333 2 15.9989 2C6.66443 2 2 8.26751 2 15.9989C2 23.7303 6.66443 29.9978 15.9989 29.9978Z" fill="url(#paint11_radial_7159_2143)"/>
<path d="M15.9989 29.9978C25.3333 29.9978 29.9978 23.7303 29.9978 15.9989C29.9978 8.26751 25.3333 2 15.9989 2C6.66443 2 2 8.26751 2 15.9989C2 23.7303 6.66443 29.9978 15.9989 29.9978Z" fill="url(#paint12_radial_7159_2143)"/>
<path d="M15.9989 29.9978C25.3333 29.9978 29.9978 23.7303 29.9978 15.9989C29.9978 8.26751 25.3333 2 15.9989 2C6.66443 2 2 8.26751 2 15.9989C2 23.7303 6.66443 29.9978 15.9989 29.9978Z" fill="url(#paint13_radial_7159_2143)"/>
<path d="M15.9989 29.9978C25.3333 29.9978 29.9978 23.7303 29.9978 15.9989C29.9978 8.26751 25.3333 2 15.9989 2C6.66443 2 2 8.26751 2 15.9989C2 23.7303 6.66443 29.9978 15.9989 29.9978Z" fill="url(#paint14_radial_7159_2143)"/>
<path d="M15.9989 29.9978C25.3333 29.9978 29.9978 23.7303 29.9978 15.9989C29.9978 8.26751 25.3333 2 15.9989 2C6.66443 2 2 8.26751 2 15.9989C2 23.7303 6.66443 29.9978 15.9989 29.9978Z" fill="url(#paint15_radial_7159_2143)"/>
<path d="M15.9989 29.9978C25.3333 29.9978 29.9978 23.7303 29.9978 15.9989C29.9978 8.26751 25.3333 2 15.9989 2C6.66443 2 2 8.26751 2 15.9989C2 23.7303 6.66443 29.9978 15.9989 29.9978Z" fill="url(#paint16_radial_7159_2143)"/>
<path fill-rule="evenodd" clip-rule="evenodd" d="M21.7719 12.5649C21.5633 12.2853 21.2176 11.995 20.5388 12.0001C19.852 12.0051 19.5109 12.2989 19.3105 12.5712C19.1997 12.7217 19.127 12.8766 19.0825 12.995C19.0608 13.0529 19.0473 13.0983 19.04 13.1248C19.0368 13.1366 19.035 13.1444 19.0342 13.1475C18.9238 13.6832 18.4024 14.0316 17.8641 13.9269C17.322 13.8216 16.9679 13.2967 17.0732 12.7545C17.1101 12.5999 17.1101 12.5999 17.1101 12.5999C17.1316 12.5209 17.1638 12.4154 17.2101 12.2922C17.3016 12.0482 17.4539 11.7197 17.6997 11.3858C18.2122 10.6894 19.1093 10.0106 20.524 10.0001C21.9468 9.9896 22.855 10.672 23.375 11.369C23.6246 11.7036 23.7811 12.0338 23.8757 12.2789C23.9236 12.4028 23.9572 12.5087 23.9797 12.5881C24.1128 13.0569 23.9237 13.7834 23.2421 13.9246C22.7049 14.0359 22.1791 13.6937 22.0623 13.159C22.0615 13.1558 22.0594 13.1473 22.0557 13.1343C22.0478 13.1064 22.0332 13.0594 22.0101 12.9996C21.9629 12.8775 21.8865 12.7185 21.7719 12.5649Z" fill="url(#paint17_radial_7159_2143)"/>
<path fill-rule="evenodd" clip-rule="evenodd" d="M12.7407 12.5649C12.5321 12.2853 12.1864 11.995 11.5076 12.0001C10.8208 12.0051 10.4796 12.2989 10.2792 12.5712C10.1685 12.7217 10.0957 12.8766 10.0513 12.995C10.0295 13.0529 10.016 13.0983 10.0088 13.1248C10.0056 13.1366 10.0037 13.1444 10.003 13.1475C9.89254 13.6832 9.3712 14.0316 8.83286 13.9269C8.29072 13.8216 7.93663 13.2967 8.04199 12.7545C8.07889 12.5999 8.07889 12.5999 8.07889 12.5999C8.10039 12.5209 8.13257 12.4154 8.17883 12.2922C8.27039 12.0482 8.4227 11.7197 8.6684 11.3858C9.18091 10.6894 10.078 10.0106 11.4928 10.0001C12.9156 9.9896 13.8238 10.672 14.3437 11.369C14.5934 11.7036 14.7498 12.0338 14.8445 12.2789C14.8923 12.4028 14.9259 12.5087 14.9484 12.5881C15.0815 13.0569 14.8924 13.7834 14.2109 13.9246C13.6736 14.0359 13.1478 13.6937 13.0311 13.159C13.0303 13.1558 13.0282 13.1473 13.0245 13.1343C13.0165 13.1064 13.0019 13.0594 12.9789 12.9996C12.9317 12.8775 12.8553 12.7185 12.7407 12.5649Z" fill="url(#paint18_radial_7159_2143)"/>
<path d="M16 25C7 25 7 16 7 16H25C25 16 25 25 16 25Z" fill="url(#paint19_radial_7159_2143)"/>
<path d="M8 16.5V16H24V16.5C24 17.0523 23.5523 17.5 23 17.5H9C8.44772 17.5 8 17.0523 8 16.5Z" fill="url(#paint20_linear_7159_2143)"/>
<rect x="24" y="2" width="5" height="10" rx="2.5" fill="url(#paint21_radial_7159_2143)"/>
<defs>
<radialGradient id="paint0_radial_7159_2143" cx="0" cy="0" r="1" gradientUnits="userSpaceOnUse" gradientTransform="translate(25.5 9) rotate(131.878) scale(38.9487)">
<stop stop-color="#FFF478"/>
<stop offset="0.474827" stop-color="#FFB02E"/>
<stop offset="1" stop-color="#F70A8D"/>
</radialGradient>
<radialGradient id="paint1_radial_7159_2143" cx="0" cy="0" r="1" gradientUnits="userSpaceOnUse" gradientTransform="translate(16 12.5) rotate(101.31) scale(17.8466 22.8581)">
<stop offset="0.787821" stop-color="#F59639" stop-opacity="0"/>
<stop offset="0.972509" stop-color="#FF7DCE"/>
</radialGradient>
<radialGradient id="paint2_radial_7159_2143" cx="0" cy="0" r="1" gradientUnits="userSpaceOnUse" gradientTransform="translate(18 14) rotate(135) scale(41.0122)">
<stop offset="0.314853" stop-opacity="0"/>
<stop offset="1"/>
</radialGradient>
<radialGradient id="paint3_radial_7159_2143" cx="0" cy="0" r="1" gradientUnits="userSpaceOnUse" gradientTransform="translate(16 17) rotate(77.692) scale(28.1469)">
<stop offset="0.507903" stop-color="#7D6133" stop-opacity="0"/>
<stop offset="1" stop-color="#715B32"/>
</radialGradient>
<radialGradient id="paint4_radial_7159_2143" cx="0" cy="0" r="1" gradientUnits="userSpaceOnUse" gradientTransform="translate(17.6937 13.9495) rotate(65.0429) scale(14.9461 10.8337)">
<stop stop-color="#FFB849"/>
<stop offset="1" stop-color="#FFB847" stop-opacity="0"/>
</radialGradient>
<radialGradient id="paint5_radial_7159_2143" cx="0" cy="0" r="1" gradientUnits="userSpaceOnUse" gradientTransform="translate(20.5 18) rotate(9.86581) scale(11.6726)">
<stop stop-color="#FFA64B"/>
<stop offset="0.900412" stop-color="#FFAE46" stop-opacity="0"/>
</radialGradient>
<radialGradient id="paint6_radial_7159_2143" cx="0" cy="0" r="1" gradientUnits="userSpaceOnUse" gradientTransform="translate(17.5 15) rotate(43.9708) scale(59.0529)">
<stop offset="0.185425" stop-opacity="0"/>
<stop offset="1" stop-opacity="0.4"/>
</radialGradient>
<radialGradient id="paint7_radial_7159_2143" cx="0" cy="0" r="1" gradientUnits="userSpaceOnUse" gradientTransform="translate(9.30232 13.0752) rotate(-10.3912) scale(7.07095 5.21865)">
<stop stop-color="#F1A227"/>
<stop offset="1" stop-color="#F5A72C" stop-opacity="0"/>
</radialGradient>
<radialGradient id="paint8_radial_7159_2143" cx="0" cy="0" r="1" gradientUnits="userSpaceOnUse" gradientTransform="translate(22.4121 13.4465) rotate(-17.354) scale(1.19221)">
<stop stop-color="#D28118"/>
<stop offset="1" stop-color="#D68623" stop-opacity="0"/>
</radialGradient>
<radialGradient id="paint9_radial_7159_2143" cx="0" cy="0" r="1" gradientUnits="userSpaceOnUse" gradientTransform="translate(21.1556 11.9056) rotate(48.6215) scale(2.65393 0.909271)">
<stop stop-color="#D28118"/>
<stop offset="1" stop-color="#D68623" stop-opacity="0"/>
</radialGradient>
<radialGradient id="paint10_radial_7159_2143" cx="0" cy="0" r="1" gradientUnits="userSpaceOnUse" gradientTransform="translate(20.4681 11.7396) rotate(-1.21886) scale(2.22898 0.915009)">
<stop stop-color="#D28118"/>
<stop offset="1" stop-color="#D68623" stop-opacity="0"/>
</radialGradient>
<radialGradient id="paint11_radial_7159_2143" cx="0" cy="0" r="1" gradientUnits="userSpaceOnUse" gradientTransform="translate(13.238 12.9502) rotate(49.3987) scale(1.96577 0.985215)">
<stop stop-color="#BE7227"/>
<stop offset="1" stop-color="#C67A2A" stop-opacity="0"/>
</radialGradient>
<radialGradient id="paint12_radial_7159_2143" cx="0" cy="0" r="1" gradientUnits="userSpaceOnUse" gradientTransform="translate(11.9282 11.5186) rotate(42.5104) scale(1.48754 1.09901)">
<stop stop-color="#D07E2D"/>
<stop offset="1" stop-color="#D98833" stop-opacity="0"/>
</radialGradient>
<radialGradient id="paint13_radial_7159_2143" cx="0" cy="0" r="1" gradientUnits="userSpaceOnUse" gradientTransform="translate(11.5932 11.549) rotate(18.0478) scale(2.8512 2.18179)">
<stop stop-color="#D88431"/>
<stop offset="1" stop-color="#CF8231" stop-opacity="0"/>
</radialGradient>
<radialGradient id="paint14_radial_7159_2143" cx="0" cy="0" r="1" gradientUnits="userSpaceOnUse" gradientTransform="translate(8.87366 12.9312) rotate(-80.8376) scale(2.39561 1.6433)">
<stop stop-color="#DA8924"/>
<stop offset="1" stop-color="#DC8924" stop-opacity="0"/>
</radialGradient>
<radialGradient id="paint15_radial_7159_2143" cx="0" cy="0" r="1" gradientUnits="userSpaceOnUse" gradientTransform="translate(24.059 7.49255) rotate(77.2886) scale(5.83101 5.46501)">
<stop stop-color="#AB7A2A"/>
<stop offset="1" stop-color="#FFD45B" stop-opacity="0"/>
</radialGradient>
<radialGradient id="paint16_radial_7159_2143" cx="0" cy="0" r="1" gradientUnits="userSpaceOnUse" gradientTransform="translate(24.862 10.627) rotate(57.0347) scale(4.00358 2.25894)">
<stop stop-color="#AB7A2A"/>
<stop offset="1" stop-color="#AB7A2A" stop-opacity="0"/>
</radialGradient>
<radialGradient id="paint17_radial_7159_2143" cx="0" cy="0" r="1" gradientUnits="userSpaceOnUse" gradientTransform="translate(20.5371 12.8359) rotate(90) scale(3.1875 4.31047)">
<stop offset="0.307692" stop-color="#452A3D"/>
<stop offset="0.626374" stop-color="#594052"/>
<stop offset="1" stop-color="#482C40"/>
</radialGradient>
<radialGradient id="paint18_radial_7159_2143" cx="0" cy="0" r="1" gradientUnits="userSpaceOnUse" gradientTransform="translate(11.5059 12.8359) rotate(90) scale(3.1875 4.31047)">
<stop offset="0.307692" stop-color="#452A3D"/>
<stop offset="0.626374" stop-color="#594052"/>
<stop offset="1" stop-color="#482C40"/>
</radialGradient>
<radialGradient id="paint19_radial_7159_2143" cx="0" cy="0" r="1" gradientUnits="userSpaceOnUse" gradientTransform="translate(16 27) rotate(-90) scale(11 22)">
<stop stop-color="#F70A8D"/>
<stop offset="1" stop-color="#89029C"/>
</radialGradient>
<linearGradient id="paint20_linear_7159_2143" x1="16" y1="16" x2="16" y2="17.5" gradientUnits="userSpaceOnUse">
<stop stop-color="#ECCDFF"/>
<stop offset="1" stop-color="white"/>
</linearGradient>
<radialGradient id="paint21_radial_7159_2143" cx="0" cy="0" r="1" gradientTransform="matrix(-2.5 10.4545 -3.58144 -1.01922 28.1667 2.45455)" gradientUnits="userSpaceOnUse">
<stop stop-color="#5C98FF"/>
<stop offset="0.805982" stop-color="#3D5BF1"/>
<stop offset="0.962238" stop-color="#6065CA"/>
</radialGradient>
</defs>
</svg>
