<svg width="32" height="32" viewBox="0 0 32 32" fill="none" xmlns="http://www.w3.org/2000/svg">
<path d="M4 25.942C4 28.1739 5.76327 30 7.91837 30H24.0816C26.2367 30 28 28.0725 28 25.8406V6.4297C28 5.1297 26.4099 4.5297 25.5155 5.4297L20.9736 10H11.1617L6.5 5.4297C5.6 4.5297 4 5.1297 4 6.4297V25.942Z" fill="url(#paint0_linear_7159_2155)"/>
<path d="M4 25.942C4 28.1739 5.76327 30 7.91837 30H24.0816C26.2367 30 28 28.0725 28 25.8406V6.4297C28 5.1297 26.4099 4.5297 25.5155 5.4297L20.9736 10H11.1617L6.5 5.4297C5.6 4.5297 4 5.1297 4 6.4297V25.942Z" fill="url(#paint1_radial_7159_2155)"/>
<path d="M4 25.942C4 28.1739 5.76327 30 7.91837 30H24.0816C26.2367 30 28 28.0725 28 25.8406V6.4297C28 5.1297 26.4099 4.5297 25.5155 5.4297L20.9736 10H11.1617L6.5 5.4297C5.6 4.5297 4 5.1297 4 6.4297V25.942Z" fill="url(#paint2_linear_7159_2155)"/>
<path d="M4 25.942C4 28.1739 5.76327 30 7.91837 30H24.0816C26.2367 30 28 28.0725 28 25.8406V6.4297C28 5.1297 26.4099 4.5297 25.5155 5.4297L20.9736 10H11.1617L6.5 5.4297C5.6 4.5297 4 5.1297 4 6.4297V25.942Z" fill="url(#paint3_linear_7159_2155)"/>
<path d="M4 25.942C4 28.1739 5.76327 30 7.91837 30H24.0816C26.2367 30 28 28.0725 28 25.8406V6.4297C28 5.1297 26.4099 4.5297 25.5155 5.4297L20.9736 10H11.1617L6.5 5.4297C5.6 4.5297 4 5.1297 4 6.4297V25.942Z" fill="url(#paint4_linear_7159_2155)"/>
<path d="M4 25.942C4 28.1739 5.76327 30 7.91837 30H24.0816C26.2367 30 28 28.0725 28 25.8406V6.4297C28 5.1297 26.4099 4.5297 25.5155 5.4297L20.9736 10H11.1617L6.5 5.4297C5.6 4.5297 4 5.1297 4 6.4297V25.942Z" fill="url(#paint5_linear_7159_2155)"/>
<path d="M4 25.942C4 28.1739 5.76327 30 7.91837 30H24.0816C26.2367 30 28 28.0725 28 25.8406V6.4297C28 5.1297 26.4099 4.5297 25.5155 5.4297L20.9736 10H11.1617L6.5 5.4297C5.6 4.5297 4 5.1297 4 6.4297V25.942Z" fill="url(#paint6_radial_7159_2155)"/>
<path d="M4 25.942C4 28.1739 5.76327 30 7.91837 30H24.0816C26.2367 30 28 28.0725 28 25.8406V6.4297C28 5.1297 26.4099 4.5297 25.5155 5.4297L20.9736 10H11.1617L6.5 5.4297C5.6 4.5297 4 5.1297 4 6.4297V25.942Z" fill="url(#paint7_radial_7159_2155)"/>
<path d="M4 25.942C4 28.1739 5.76327 30 7.91837 30H24.0816C26.2367 30 28 28.0725 28 25.8406V6.4297C28 5.1297 26.4099 4.5297 25.5155 5.4297L20.9736 10H11.1617L6.5 5.4297C5.6 4.5297 4 5.1297 4 6.4297V25.942Z" fill="url(#paint8_radial_7159_2155)"/>
<path d="M4 25.942C4 28.1739 5.76327 30 7.91837 30H24.0816C26.2367 30 28 28.0725 28 25.8406V6.4297C28 5.1297 26.4099 4.5297 25.5155 5.4297L20.9736 10H11.1617L6.5 5.4297C5.6 4.5297 4 5.1297 4 6.4297V25.942Z" fill="url(#paint9_radial_7159_2155)"/>
<path d="M4 25.942C4 28.1739 5.76327 30 7.91837 30H24.0816C26.2367 30 28 28.0725 28 25.8406V6.4297C28 5.1297 26.4099 4.5297 25.5155 5.4297L20.9736 10H11.1617L6.5 5.4297C5.6 4.5297 4 5.1297 4 6.4297V25.942Z" fill="url(#paint10_radial_7159_2155)"/>
<path d="M4 25.942C4 28.1739 5.76327 30 7.91837 30H24.0816C26.2367 30 28 28.0725 28 25.8406V6.4297C28 5.1297 26.4099 4.5297 25.5155 5.4297L20.9736 10H11.1617L6.5 5.4297C5.6 4.5297 4 5.1297 4 6.4297V25.942Z" fill="url(#paint11_radial_7159_2155)"/>
<path d="M4 25.942C4 28.1739 5.76327 30 7.91837 30H24.0816C26.2367 30 28 28.0725 28 25.8406V6.4297C28 5.1297 26.4099 4.5297 25.5155 5.4297L20.9736 10H11.1617L6.5 5.4297C5.6 4.5297 4 5.1297 4 6.4297V25.942Z" fill="url(#paint12_radial_7159_2155)"/>
<path d="M4 25.942C4 28.1739 5.76327 30 7.91837 30H24.0816C26.2367 30 28 28.0725 28 25.8406V6.4297C28 5.1297 26.4099 4.5297 25.5155 5.4297L20.9736 10H11.1617L6.5 5.4297C5.6 4.5297 4 5.1297 4 6.4297V25.942Z" fill="url(#paint13_radial_7159_2155)"/>
<path d="M4 25.942C4 28.1739 5.76327 30 7.91837 30H24.0816C26.2367 30 28 28.0725 28 25.8406V6.4297C28 5.1297 26.4099 4.5297 25.5155 5.4297L20.9736 10H11.1617L6.5 5.4297C5.6 4.5297 4 5.1297 4 6.4297V25.942Z" fill="url(#paint14_radial_7159_2155)"/>
<path d="M4 25.942C4 28.1739 5.76327 30 7.91837 30H24.0816C26.2367 30 28 28.0725 28 25.8406V6.4297C28 5.1297 26.4099 4.5297 25.5155 5.4297L20.9736 10H11.1617L6.5 5.4297C5.6 4.5297 4 5.1297 4 6.4297V25.942Z" fill="url(#paint15_radial_7159_2155)"/>
<path d="M4 25.942C4 28.1739 5.76327 30 7.91837 30H24.0816C26.2367 30 28 28.0725 28 25.8406V6.4297C28 5.1297 26.4099 4.5297 25.5155 5.4297L20.9736 10H11.1617L6.5 5.4297C5.6 4.5297 4 5.1297 4 6.4297V25.942Z" fill="url(#paint16_radial_7159_2155)"/>
<path d="M4 25.942C4 28.1739 5.76327 30 7.91837 30H24.0816C26.2367 30 28 28.0725 28 25.8406V6.4297C28 5.1297 26.4099 4.5297 25.5155 5.4297L20.9736 10H11.1617L6.5 5.4297C5.6 4.5297 4 5.1297 4 6.4297V25.942Z" fill="url(#paint17_radial_7159_2155)"/>
<path d="M4 25.942C4 28.1739 5.76327 30 7.91837 30H24.0816C26.2367 30 28 28.0725 28 25.8406V6.4297C28 5.1297 26.4099 4.5297 25.5155 5.4297L20.9736 10H11.1617L6.5 5.4297C5.6 4.5297 4 5.1297 4 6.4297V25.942Z" fill="url(#paint18_radial_7159_2155)"/>
<path d="M4 25.942C4 28.1739 5.76327 30 7.91837 30H24.0816C26.2367 30 28 28.0725 28 25.8406V6.4297C28 5.1297 26.4099 4.5297 25.5155 5.4297L20.9736 10H11.1617L6.5 5.4297C5.6 4.5297 4 5.1297 4 6.4297V25.942Z" fill="url(#paint19_radial_7159_2155)"/>
<path d="M4 25.942C4 28.1739 5.76327 30 7.91837 30H24.0816C26.2367 30 28 28.0725 28 25.8406V6.4297C28 5.1297 26.4099 4.5297 25.5155 5.4297L20.9736 10H11.1617L6.5 5.4297C5.6 4.5297 4 5.1297 4 6.4297V25.942Z" fill="url(#paint20_radial_7159_2155)"/>
<path d="M4 25.942C4 28.1739 5.76327 30 7.91837 30H24.0816C26.2367 30 28 28.0725 28 25.8406V6.4297C28 5.1297 26.4099 4.5297 25.5155 5.4297L20.9736 10H11.1617L6.5 5.4297C5.6 4.5297 4 5.1297 4 6.4297V25.942Z" fill="url(#paint21_radial_7159_2155)"/>
<path d="M6.13255 13.5034L8.93255 10.9034C9.25255 10.6034 9.25255 10.1234 8.93255 9.83344L5.91787 7.15626C5.53505 6.82032 4.74255 6.9297 4.74255 7.76344V12.9634C4.74255 13.7969 5.62255 13.9834 6.13255 13.5034Z" fill="url(#paint22_linear_7159_2155)"/>
<path d="M6.13255 13.5034L8.93255 10.9034C9.25255 10.6034 9.25255 10.1234 8.93255 9.83344L5.91787 7.15626C5.53505 6.82032 4.74255 6.9297 4.74255 7.76344V12.9634C4.74255 13.7969 5.62255 13.9834 6.13255 13.5034Z" fill="#FBA430"/>
<path d="M6.13255 13.5034L8.93255 10.9034C9.25255 10.6034 9.25255 10.1234 8.93255 9.83344L5.91787 7.15626C5.53505 6.82032 4.74255 6.9297 4.74255 7.76344V12.9634C4.74255 13.7969 5.62255 13.9834 6.13255 13.5034Z" fill="url(#paint23_radial_7159_2155)"/>
<path d="M6.13255 13.5034L8.93255 10.9034C9.25255 10.6034 9.25255 10.1234 8.93255 9.83344L5.91787 7.15626C5.53505 6.82032 4.74255 6.9297 4.74255 7.76344V12.9634C4.74255 13.7969 5.62255 13.9834 6.13255 13.5034Z" fill="url(#paint24_radial_7159_2155)"/>
<path d="M6.13255 13.5034L8.93255 10.9034C9.25255 10.6034 9.25255 10.1234 8.93255 9.83344L5.91787 7.15626C5.53505 6.82032 4.74255 6.9297 4.74255 7.76344V12.9634C4.74255 13.7969 5.62255 13.9834 6.13255 13.5034Z" fill="url(#paint25_radial_7159_2155)"/>
<path fill-rule="evenodd" clip-rule="evenodd" d="M29.9128 20.4686C30.0553 20.7677 29.9283 21.1258 29.6292 21.2683L25.8245 23.0808C25.5253 23.2233 25.1673 23.0963 25.0248 22.7972C24.8823 22.498 25.0092 22.1399 25.3084 21.9974L29.1131 20.1849C29.4122 20.0424 29.7703 20.1694 29.9128 20.4686Z" fill="url(#paint26_linear_7159_2155)"/>
<path fill-rule="evenodd" clip-rule="evenodd" d="M29.9128 20.4686C30.0553 20.7677 29.9283 21.1258 29.6292 21.2683L25.8245 23.0808C25.5253 23.2233 25.1673 23.0963 25.0248 22.7972C24.8823 22.498 25.0092 22.1399 25.3084 21.9974L29.1131 20.1849C29.4122 20.0424 29.7703 20.1694 29.9128 20.4686Z" fill="url(#paint27_linear_7159_2155)"/>
<path fill-rule="evenodd" clip-rule="evenodd" d="M29.9128 20.4686C30.0553 20.7677 29.9283 21.1258 29.6292 21.2683L25.8245 23.0808C25.5253 23.2233 25.1673 23.0963 25.0248 22.7972C24.8823 22.498 25.0092 22.1399 25.3084 21.9974L29.1131 20.1849C29.4122 20.0424 29.7703 20.1694 29.9128 20.4686Z" fill="url(#paint28_radial_7159_2155)"/>
<path fill-rule="evenodd" clip-rule="evenodd" d="M29.9128 20.4686C30.0553 20.7677 29.9283 21.1258 29.6292 21.2683L25.8245 23.0808C25.5253 23.2233 25.1673 23.0963 25.0248 22.7972C24.8823 22.498 25.0092 22.1399 25.3084 21.9974L29.1131 20.1849C29.4122 20.0424 29.7703 20.1694 29.9128 20.4686Z" fill="url(#paint29_radial_7159_2155)"/>
<path fill-rule="evenodd" clip-rule="evenodd" d="M29.9128 20.4686C30.0553 20.7677 29.9283 21.1258 29.6292 21.2683L25.8245 23.0808C25.5253 23.2233 25.1673 23.0963 25.0248 22.7972C24.8823 22.498 25.0092 22.1399 25.3084 21.9974L29.1131 20.1849C29.4122 20.0424 29.7703 20.1694 29.9128 20.4686Z" fill="url(#paint30_radial_7159_2155)"/>
<path fill-rule="evenodd" clip-rule="evenodd" d="M29.9065 26.7472C29.7635 27.0461 29.4052 27.1724 29.1063 27.0294L25.3047 25.2104C25.0058 25.0673 24.8794 24.7091 25.0225 24.4101C25.1655 24.1112 25.5238 23.9849 25.8227 24.1279L29.6242 25.9469C29.9231 26.09 30.0495 26.4482 29.9065 26.7472Z" fill="url(#paint31_linear_7159_2155)"/>
<path fill-rule="evenodd" clip-rule="evenodd" d="M29.9065 26.7472C29.7635 27.0461 29.4052 27.1724 29.1063 27.0294L25.3047 25.2104C25.0058 25.0673 24.8794 24.7091 25.0225 24.4101C25.1655 24.1112 25.5238 23.9849 25.8227 24.1279L29.6242 25.9469C29.9231 26.09 30.0495 26.4482 29.9065 26.7472Z" fill="url(#paint32_linear_7159_2155)"/>
<path fill-rule="evenodd" clip-rule="evenodd" d="M29.9065 26.7472C29.7635 27.0461 29.4052 27.1724 29.1063 27.0294L25.3047 25.2104C25.0058 25.0673 24.8794 24.7091 25.0225 24.4101C25.1655 24.1112 25.5238 23.9849 25.8227 24.1279L29.6242 25.9469C29.9231 26.09 30.0495 26.4482 29.9065 26.7472Z" fill="url(#paint33_radial_7159_2155)"/>
<path fill-rule="evenodd" clip-rule="evenodd" d="M29.9065 26.7472C29.7635 27.0461 29.4052 27.1724 29.1063 27.0294L25.3047 25.2104C25.0058 25.0673 24.8794 24.7091 25.0225 24.4101C25.1655 24.1112 25.5238 23.9849 25.8227 24.1279L29.6242 25.9469C29.9231 26.09 30.0495 26.4482 29.9065 26.7472Z" fill="url(#paint34_radial_7159_2155)"/>
<path fill-rule="evenodd" clip-rule="evenodd" d="M29.9065 26.7472C29.7635 27.0461 29.4052 27.1724 29.1063 27.0294L25.3047 25.2104C25.0058 25.0673 24.8794 24.7091 25.0225 24.4101C25.1655 24.1112 25.5238 23.9849 25.8227 24.1279L29.6242 25.9469C29.9231 26.09 30.0495 26.4482 29.9065 26.7472Z" fill="url(#paint35_radial_7159_2155)"/>
<path fill-rule="evenodd" clip-rule="evenodd" d="M2.18531 26.7589C2.32834 27.0578 2.68661 27.1842 2.98552 27.0411L6.78708 25.2221C7.08599 25.079 7.21236 24.7208 7.06933 24.4219C6.9263 24.123 6.56804 23.9966 6.26912 24.1396L2.46756 25.9587C2.16865 26.1017 2.04228 26.46 2.18531 26.7589Z" fill="url(#paint36_linear_7159_2155)"/>
<path fill-rule="evenodd" clip-rule="evenodd" d="M2.18531 26.7589C2.32834 27.0578 2.68661 27.1842 2.98552 27.0411L6.78708 25.2221C7.08599 25.079 7.21236 24.7208 7.06933 24.4219C6.9263 24.123 6.56804 23.9966 6.26912 24.1396L2.46756 25.9587C2.16865 26.1017 2.04228 26.46 2.18531 26.7589Z" fill="url(#paint37_linear_7159_2155)"/>
<path fill-rule="evenodd" clip-rule="evenodd" d="M2.18531 26.7589C2.32834 27.0578 2.68661 27.1842 2.98552 27.0411L6.78708 25.2221C7.08599 25.079 7.21236 24.7208 7.06933 24.4219C6.9263 24.123 6.56804 23.9966 6.26912 24.1396L2.46756 25.9587C2.16865 26.1017 2.04228 26.46 2.18531 26.7589Z" fill="url(#paint38_radial_7159_2155)"/>
<path fill-rule="evenodd" clip-rule="evenodd" d="M2.18531 26.7589C2.32834 27.0578 2.68661 27.1842 2.98552 27.0411L6.78708 25.2221C7.08599 25.079 7.21236 24.7208 7.06933 24.4219C6.9263 24.123 6.56804 23.9966 6.26912 24.1396L2.46756 25.9587C2.16865 26.1017 2.04228 26.46 2.18531 26.7589Z" fill="url(#paint39_radial_7159_2155)"/>
<path fill-rule="evenodd" clip-rule="evenodd" d="M2.18531 26.7589C2.32834 27.0578 2.68661 27.1842 2.98552 27.0411L6.78708 25.2221C7.08599 25.079 7.21236 24.7208 7.06933 24.4219C6.9263 24.123 6.56804 23.9966 6.26912 24.1396L2.46756 25.9587C2.16865 26.1017 2.04228 26.46 2.18531 26.7589Z" fill="url(#paint40_radial_7159_2155)"/>
<path fill-rule="evenodd" clip-rule="evenodd" d="M2.18317 20.4754C2.04213 20.7752 2.17088 21.1326 2.47074 21.2737L6.28431 23.0674C6.58417 23.2084 6.94159 23.0797 7.08263 22.7798C7.22367 22.48 7.09492 22.1226 6.79506 21.9815L2.98149 20.1878C2.68163 20.0467 2.32421 20.1755 2.18317 20.4754Z" fill="url(#paint41_linear_7159_2155)"/>
<path fill-rule="evenodd" clip-rule="evenodd" d="M2.18317 20.4754C2.04213 20.7752 2.17088 21.1326 2.47074 21.2737L6.28431 23.0674C6.58417 23.2084 6.94159 23.0797 7.08263 22.7798C7.22367 22.48 7.09492 22.1226 6.79506 21.9815L2.98149 20.1878C2.68163 20.0467 2.32421 20.1755 2.18317 20.4754Z" fill="url(#paint42_linear_7159_2155)"/>
<path fill-rule="evenodd" clip-rule="evenodd" d="M2.18317 20.4754C2.04213 20.7752 2.17088 21.1326 2.47074 21.2737L6.28431 23.0674C6.58417 23.2084 6.94159 23.0797 7.08263 22.7798C7.22367 22.48 7.09492 22.1226 6.79506 21.9815L2.98149 20.1878C2.68163 20.0467 2.32421 20.1755 2.18317 20.4754Z" fill="url(#paint43_radial_7159_2155)"/>
<path fill-rule="evenodd" clip-rule="evenodd" d="M2.18317 20.4754C2.04213 20.7752 2.17088 21.1326 2.47074 21.2737L6.28431 23.0674C6.58417 23.2084 6.94159 23.0797 7.08263 22.7798C7.22367 22.48 7.09492 22.1226 6.79506 21.9815L2.98149 20.1878C2.68163 20.0467 2.32421 20.1755 2.18317 20.4754Z" fill="url(#paint44_radial_7159_2155)"/>
<path fill-rule="evenodd" clip-rule="evenodd" d="M2.18317 20.4754C2.04213 20.7752 2.17088 21.1326 2.47074 21.2737L6.28431 23.0674C6.58417 23.2084 6.94159 23.0797 7.08263 22.7798C7.22367 22.48 7.09492 22.1226 6.79506 21.9815L2.98149 20.1878C2.68163 20.0467 2.32421 20.1755 2.18317 20.4754Z" fill="url(#paint45_radial_7159_2155)"/>
<path d="M25.8329 13.5034L23.0329 10.9034C22.7129 10.6034 22.7129 10.1234 23.0329 9.83344L26.0476 7.15626C26.4304 6.82032 27.2229 6.9297 27.2229 7.76344V12.9634C27.2229 13.7969 26.3429 13.9834 25.8329 13.5034Z" fill="#FFCD45"/>
<path d="M25.8329 13.5034L23.0329 10.9034C22.7129 10.6034 22.7129 10.1234 23.0329 9.83344L26.0476 7.15626C26.4304 6.82032 27.2229 6.9297 27.2229 7.76344V12.9634C27.2229 13.7969 26.3429 13.9834 25.8329 13.5034Z" fill="url(#paint46_linear_7159_2155)"/>
<path d="M25.8329 13.5034L23.0329 10.9034C22.7129 10.6034 22.7129 10.1234 23.0329 9.83344L26.0476 7.15626C26.4304 6.82032 27.2229 6.9297 27.2229 7.76344V12.9634C27.2229 13.7969 26.3429 13.9834 25.8329 13.5034Z" fill="url(#paint47_radial_7159_2155)"/>
<path d="M25.8329 13.5034L23.0329 10.9034C22.7129 10.6034 22.7129 10.1234 23.0329 9.83344L26.0476 7.15626C26.4304 6.82032 27.2229 6.9297 27.2229 7.76344V12.9634C27.2229 13.7969 26.3429 13.9834 25.8329 13.5034Z" fill="url(#paint48_radial_7159_2155)"/>
<path d="M25.8329 13.5034L23.0329 10.9034C22.7129 10.6034 22.7129 10.1234 23.0329 9.83344L26.0476 7.15626C26.4304 6.82032 27.2229 6.9297 27.2229 7.76344V12.9634C27.2229 13.7969 26.3429 13.9834 25.8329 13.5034Z" fill="url(#paint49_radial_7159_2155)"/>
<path d="M25.8329 13.5034L23.0329 10.9034C22.7129 10.6034 22.7129 10.1234 23.0329 9.83344L26.0476 7.15626C26.4304 6.82032 27.2229 6.9297 27.2229 7.76344V12.9634C27.2229 13.7969 26.3429 13.9834 25.8329 13.5034Z" fill="url(#paint50_radial_7159_2155)"/>
<path d="M25.8329 13.5034L23.0329 10.9034C22.7129 10.6034 22.7129 10.1234 23.0329 9.83344L26.0476 7.15626C26.4304 6.82032 27.2229 6.9297 27.2229 7.76344V12.9634C27.2229 13.7969 26.3429 13.9834 25.8329 13.5034Z" fill="url(#paint51_radial_7159_2155)"/>
<path d="M15.2265 20.2065L15.2908 20.1915C15.7644 20.0811 16.2577 20.0862 16.7289 20.2065C17.25 20.3046 17.561 20.902 17.121 21.332L16.5703 21.9335C16.3003 22.2035 15.7075 22.2035 15.4375 21.9335L14.8945 21.332C14.4453 20.8242 14.7265 20.3164 15.2265 20.2065Z" fill="url(#paint52_radial_7159_2155)"/>
<path d="M15.2265 20.2065L15.2908 20.1915C15.7644 20.0811 16.2577 20.0862 16.7289 20.2065C17.25 20.3046 17.561 20.902 17.121 21.332L16.5703 21.9335C16.3003 22.2035 15.7075 22.2035 15.4375 21.9335L14.8945 21.332C14.4453 20.8242 14.7265 20.3164 15.2265 20.2065Z" fill="url(#paint53_radial_7159_2155)" fill-opacity="0.8"/>
<path d="M20.418 23.0547C20.418 25.4947 18.4361 27.3906 15.9961 27.3906C13.5561 27.3906 11.6836 25.4478 11.6836 23.0078C11.6836 23.0078 13.4883 25.1406 15.9961 23.0078C18.3477 25.0859 20.418 23.0547 20.418 23.0547Z" fill="url(#paint54_linear_7159_2155)"/>
<path fill-rule="evenodd" clip-rule="evenodd" d="M11.3038 18.8663C11.1628 19.0518 11.1052 19.2874 11.1004 19.4324C11.0904 19.736 10.8362 19.974 10.5326 19.964C10.229 19.954 9.99103 19.6997 10.001 19.3961C10.0119 19.0672 10.1246 18.5997 10.4282 18.2005C10.7502 17.777 11.2688 17.458 12.0039 17.458C12.7463 17.458 13.2699 17.793 13.5939 18.2209C13.9001 18.6252 14.0228 19.1016 14.0303 19.4412C14.037 19.7449 13.7962 19.9965 13.4925 20.0032C13.1888 20.0099 12.9372 19.7691 12.9306 19.4654C12.9276 19.331 12.8683 19.0849 12.717 18.885C12.5834 18.7087 12.3739 18.558 12.0039 18.558C11.6264 18.558 11.4263 18.7052 11.3038 18.8663Z" fill="url(#paint55_radial_7159_2155)"/>
<path fill-rule="evenodd" clip-rule="evenodd" d="M11.3038 18.8663C11.1628 19.0518 11.1052 19.2874 11.1004 19.4324C11.0904 19.736 10.8362 19.974 10.5326 19.964C10.229 19.954 9.99103 19.6997 10.001 19.3961C10.0119 19.0672 10.1246 18.5997 10.4282 18.2005C10.7502 17.777 11.2688 17.458 12.0039 17.458C12.7463 17.458 13.2699 17.793 13.5939 18.2209C13.9001 18.6252 14.0228 19.1016 14.0303 19.4412C14.037 19.7449 13.7962 19.9965 13.4925 20.0032C13.1888 20.0099 12.9372 19.7691 12.9306 19.4654C12.9276 19.331 12.8683 19.0849 12.717 18.885C12.5834 18.7087 12.3739 18.558 12.0039 18.558C11.6264 18.558 11.4263 18.7052 11.3038 18.8663Z" fill="url(#paint56_linear_7159_2155)"/>
<path fill-rule="evenodd" clip-rule="evenodd" d="M19.2725 18.8663C19.1315 19.0518 19.074 19.2874 19.0692 19.4324C19.0592 19.736 18.805 19.974 18.5014 19.964C18.1978 19.954 17.9598 19.6997 17.9698 19.3961C17.9806 19.0672 18.0934 18.5997 18.3969 18.2005C18.7189 17.777 19.2376 17.458 19.9726 17.458C20.715 17.458 21.2386 17.793 21.5626 18.2209C21.8688 18.6252 21.9916 19.1016 21.999 19.4412C22.0057 19.7449 21.7649 19.9965 21.4613 20.0032C21.1576 20.0099 20.906 19.7691 20.8993 19.4654C20.8964 19.331 20.8371 19.0849 20.6857 18.885C20.5522 18.7087 20.3427 18.558 19.9726 18.558C19.5951 18.558 19.3951 18.7052 19.2725 18.8663Z" fill="url(#paint57_radial_7159_2155)"/>
<path fill-rule="evenodd" clip-rule="evenodd" d="M19.2725 18.8663C19.1315 19.0518 19.074 19.2874 19.0692 19.4324C19.0592 19.736 18.805 19.974 18.5014 19.964C18.1978 19.954 17.9598 19.6997 17.9698 19.3961C17.9806 19.0672 18.0934 18.5997 18.3969 18.2005C18.7189 17.777 19.2376 17.458 19.9726 17.458C20.715 17.458 21.2386 17.793 21.5626 18.2209C21.8688 18.6252 21.9916 19.1016 21.999 19.4412C22.0057 19.7449 21.7649 19.9965 21.4613 20.0032C21.1576 20.0099 20.906 19.7691 20.8993 19.4654C20.8964 19.331 20.8371 19.0849 20.6857 18.885C20.5522 18.7087 20.3427 18.558 19.9726 18.558C19.5951 18.558 19.3951 18.7052 19.2725 18.8663Z" fill="url(#paint58_linear_7159_2155)"/>
<defs>
<linearGradient id="paint0_linear_7159_2155" x1="7.90668" y1="1.34978" x2="7.90668" y2="30.99" gradientUnits="userSpaceOnUse">
<stop offset="0.288159" stop-color="#FFCE2C"/>
<stop offset="0.762024" stop-color="#F79B22"/>
<stop offset="0.9925" stop-color="#E3821D"/>
<stop offset="1" stop-color="#E3801D"/>
</linearGradient>
<radialGradient id="paint1_radial_7159_2155" cx="0" cy="0" r="1" gradientUnits="userSpaceOnUse" gradientTransform="translate(23.9499 16.7886) rotate(90) scale(10.3023 9.89025)">
<stop stop-color="#FFDE68"/>
<stop offset="1" stop-color="#FFDD68" stop-opacity="0"/>
</radialGradient>
<linearGradient id="paint2_linear_7159_2155" x1="16.4007" y1="13.9648" x2="4" y2="12.2364" gradientUnits="userSpaceOnUse">
<stop stop-color="#E99E20" stop-opacity="0"/>
<stop offset="1" stop-color="#FF9F3D"/>
</linearGradient>
<linearGradient id="paint3_linear_7159_2155" x1="26.7911" y1="12.033" x2="30.245" y2="12.033" gradientUnits="userSpaceOnUse">
<stop stop-color="#E99E20" stop-opacity="0"/>
<stop offset="0.9925" stop-color="#E3821D"/>
<stop offset="1" stop-color="#E3801D"/>
</linearGradient>
<linearGradient id="paint4_linear_7159_2155" x1="16.001" y1="-1.59459" x2="16" y2="30.99" gradientUnits="userSpaceOnUse">
<stop offset="0.77079" stop-color="#F59639" stop-opacity="0"/>
<stop offset="1" stop-color="#FF63C4"/>
</linearGradient>
<linearGradient id="paint5_linear_7159_2155" x1="16" y1="11.2521" x2="16" y2="32.475" gradientUnits="userSpaceOnUse">
<stop offset="0.854227" stop-color="white" stop-opacity="0"/>
<stop offset="0.985362" stop-color="white"/>
</linearGradient>
<radialGradient id="paint6_radial_7159_2155" cx="0" cy="0" r="1" gradientTransform="matrix(3.04569 4.42401 -8.87254 5.92994 22.1755 4.47688)" gradientUnits="userSpaceOnUse">
<stop stop-color="#FFA720"/>
<stop offset="0.921158" stop-color="#FFA720" stop-opacity="0"/>
</radialGradient>
<radialGradient id="paint7_radial_7159_2155" cx="0" cy="0" r="1" gradientUnits="userSpaceOnUse" gradientTransform="translate(3.47479 23.6769) scale(6.09045 8.66347)">
<stop offset="0.260619" stop-color="#C57310" stop-opacity="0.8"/>
<stop offset="0.590058" stop-color="#CB750D" stop-opacity="0.37"/>
<stop offset="0.921158" stop-color="#D77A09" stop-opacity="0"/>
</radialGradient>
<radialGradient id="paint8_radial_7159_2155" cx="0" cy="0" r="1" gradientUnits="userSpaceOnUse" gradientTransform="translate(25.4052 22.6255) rotate(63.9247) scale(0.741389 1.12753)">
<stop offset="0.380208" stop-color="#D77A09"/>
<stop offset="1" stop-color="#D77A09" stop-opacity="0"/>
</radialGradient>
<radialGradient id="paint9_radial_7159_2155" cx="0" cy="0" r="1" gradientUnits="userSpaceOnUse" gradientTransform="translate(27.0729 25.879) rotate(111.218) scale(0.967272 2.82507)">
<stop offset="0.380208" stop-color="#D77A09"/>
<stop offset="1" stop-color="#D77A09" stop-opacity="0"/>
</radialGradient>
<radialGradient id="paint10_radial_7159_2155" cx="0" cy="0" r="1" gradientUnits="userSpaceOnUse" gradientTransform="translate(15.2813 21.4687) rotate(140.08) scale(0.99829 1.31398)">
<stop offset="0.493447" stop-color="#D77A09" stop-opacity="0.5"/>
<stop offset="1" stop-color="#D77A09" stop-opacity="0"/>
</radialGradient>
<radialGradient id="paint11_radial_7159_2155" cx="0" cy="0" r="1" gradientUnits="userSpaceOnUse" gradientTransform="translate(21.1019 19.3853) rotate(73.2562) scale(1.12025 0.597468)">
<stop offset="0.616663" stop-color="#D77A09" stop-opacity="0.5"/>
<stop offset="1" stop-color="#D77A09" stop-opacity="0"/>
</radialGradient>
<radialGradient id="paint12_radial_7159_2155" cx="0" cy="0" r="1" gradientUnits="userSpaceOnUse" gradientTransform="translate(20.211 18.3217) rotate(35.2367) scale(1.30784 0.697515)">
<stop offset="0.616663" stop-color="#D77A09" stop-opacity="0.5"/>
<stop offset="1" stop-color="#D77A09" stop-opacity="0"/>
</radialGradient>
<radialGradient id="paint13_radial_7159_2155" cx="0" cy="0" r="1" gradientUnits="userSpaceOnUse" gradientTransform="translate(19.1927 18.5717) rotate(-17.057) scale(1.25525 0.669465)">
<stop offset="0.616663" stop-color="#D77A09" stop-opacity="0.5"/>
<stop offset="1" stop-color="#D77A09" stop-opacity="0"/>
</radialGradient>
<radialGradient id="paint14_radial_7159_2155" cx="0" cy="0" r="1" gradientUnits="userSpaceOnUse" gradientTransform="translate(18.3516 19.2344) rotate(-84.144) scale(1.22514 0.719203)">
<stop offset="0.616663" stop-color="#D77A09" stop-opacity="0.5"/>
<stop offset="1" stop-color="#D77A09" stop-opacity="0"/>
</radialGradient>
<radialGradient id="paint15_radial_7159_2155" cx="0" cy="0" r="1" gradientUnits="userSpaceOnUse" gradientTransform="translate(13.0938 19.4844) rotate(69.6769) scale(0.899761 0.479873)">
<stop offset="0.616663" stop-color="#D77A09" stop-opacity="0.5"/>
<stop offset="1" stop-color="#D77A09" stop-opacity="0"/>
</radialGradient>
<radialGradient id="paint16_radial_7159_2155" cx="0" cy="0" r="1" gradientUnits="userSpaceOnUse" gradientTransform="translate(12.4219 18.3906) rotate(43.2986) scale(1.11639 0.595411)">
<stop offset="0.616663" stop-color="#D77A09" stop-opacity="0.5"/>
<stop offset="1" stop-color="#D77A09" stop-opacity="0"/>
</radialGradient>
<radialGradient id="paint17_radial_7159_2155" cx="0" cy="0" r="1" gradientUnits="userSpaceOnUse" gradientTransform="translate(10.9688 18.8437) rotate(-22.4794) scale(1.47116 0.784618)">
<stop offset="0.616663" stop-color="#D77A09" stop-opacity="0.5"/>
<stop offset="1" stop-color="#D77A09" stop-opacity="0"/>
</radialGradient>
<radialGradient id="paint18_radial_7159_2155" cx="0" cy="0" r="1" gradientUnits="userSpaceOnUse" gradientTransform="translate(10.3438 19.3438) rotate(-86.8202) scale(1.12674 0.661435)">
<stop offset="0.616663" stop-color="#D77A09" stop-opacity="0.5"/>
<stop offset="1" stop-color="#D77A09" stop-opacity="0"/>
</radialGradient>
<radialGradient id="paint19_radial_7159_2155" cx="0" cy="0" r="1" gradientUnits="userSpaceOnUse" gradientTransform="translate(8.10508 6.83318) rotate(44.113) scale(5.58911 1.56071)">
<stop offset="0.293395" stop-color="#FFDE68"/>
<stop offset="1" stop-color="#FFDD68" stop-opacity="0"/>
</radialGradient>
<radialGradient id="paint20_radial_7159_2155" cx="0" cy="0" r="1" gradientUnits="userSpaceOnUse" gradientTransform="translate(10.4058 8.24278) rotate(-65.2905) scale(3.21524 2.19727)">
<stop offset="0.257229" stop-color="#FFDE68"/>
<stop offset="1" stop-color="#FFDD68" stop-opacity="0"/>
</radialGradient>
<radialGradient id="paint21_radial_7159_2155" cx="0" cy="0" r="1" gradientUnits="userSpaceOnUse" gradientTransform="translate(27.5443 5.76246) rotate(101.957) scale(2.5607 1.41151)">
<stop stop-color="#FFDE68"/>
<stop offset="1" stop-color="#FFDD68" stop-opacity="0"/>
</radialGradient>
<linearGradient id="paint22_linear_7159_2155" x1="10.6023" y1="10.6172" x2="4.74255" y2="10.0703" gradientUnits="userSpaceOnUse">
<stop offset="0.437473" stop-color="#ED8C1B"/>
<stop offset="1" stop-color="#FFB03A"/>
</linearGradient>
<radialGradient id="paint23_radial_7159_2155" cx="0" cy="0" r="1" gradientUnits="userSpaceOnUse" gradientTransform="translate(5.13129 10.3713) scale(0.311177 3.07294)">
<stop stop-color="white" stop-opacity="0.3"/>
<stop offset="1" stop-color="white" stop-opacity="0"/>
</radialGradient>
<radialGradient id="paint24_radial_7159_2155" cx="0" cy="0" r="1" gradientUnits="userSpaceOnUse" gradientTransform="translate(7.66041 12.1316) rotate(46.1691) scale(0.936482 9.24798)">
<stop stop-color="#ED8C1B" stop-opacity="0.8"/>
<stop offset="1" stop-color="#ED8C1B" stop-opacity="0"/>
</radialGradient>
<radialGradient id="paint25_radial_7159_2155" cx="0" cy="0" r="1" gradientUnits="userSpaceOnUse" gradientTransform="translate(7.43558 8.4694) rotate(-49.1362) scale(0.907259 8.9594)">
<stop stop-color="#ED8C1B" stop-opacity="0.5"/>
<stop offset="1" stop-color="#ED8C1B" stop-opacity="0"/>
</radialGradient>
<linearGradient id="paint26_linear_7159_2155" x1="25.2899" y1="22.9454" x2="29.3711" y2="21.0079" gradientUnits="userSpaceOnUse">
<stop offset="0.15625" stop-color="#D64A38"/>
<stop offset="1" stop-color="#FB7425"/>
</linearGradient>
<linearGradient id="paint27_linear_7159_2155" x1="27.3247" y1="21.0379" x2="27.8471" y2="22.1229" gradientUnits="userSpaceOnUse">
<stop stop-color="white" stop-opacity="0"/>
<stop offset="0.520833" stop-color="white" stop-opacity="0.2"/>
<stop offset="1" stop-color="white" stop-opacity="0"/>
</linearGradient>
<radialGradient id="paint28_radial_7159_2155" cx="0" cy="0" r="1" gradientUnits="userSpaceOnUse" gradientTransform="translate(24.9648 22.8374) rotate(-26.8937) scale(1.04481)">
<stop stop-color="#D64A38"/>
<stop offset="1" stop-color="#D64A38" stop-opacity="0"/>
</radialGradient>
<radialGradient id="paint29_radial_7159_2155" cx="0" cy="0" r="1" gradientUnits="userSpaceOnUse" gradientTransform="translate(29.9731 20.5061) rotate(151.353) scale(0.967535)">
<stop stop-color="#FB7425"/>
<stop offset="1" stop-color="#FB7425" stop-opacity="0"/>
</radialGradient>
<radialGradient id="paint30_radial_7159_2155" cx="0" cy="0" r="1" gradientUnits="userSpaceOnUse" gradientTransform="translate(29.4461 20.5037) rotate(125.032) scale(0.468717)">
<stop stop-color="white" stop-opacity="0.3"/>
<stop offset="1" stop-color="white" stop-opacity="0"/>
</radialGradient>
<linearGradient id="paint31_linear_7159_2155" x1="25.0739" y1="24.7095" x2="29.1465" y2="26.665" gradientUnits="userSpaceOnUse">
<stop offset="0.15625" stop-color="#D64A38"/>
<stop offset="1" stop-color="#FB7425"/>
</linearGradient>
<linearGradient id="paint32_linear_7159_2155" x1="27.8366" y1="25.0925" x2="27.3213" y2="26.181" gradientUnits="userSpaceOnUse">
<stop stop-color="white" stop-opacity="0"/>
<stop offset="0.520833" stop-color="white" stop-opacity="0.2"/>
<stop offset="1" stop-color="white" stop-opacity="0"/>
</linearGradient>
<radialGradient id="paint33_radial_7159_2155" cx="0" cy="0" r="1" gradientUnits="userSpaceOnUse" gradientTransform="translate(24.9534 24.3888) rotate(24.15) scale(1.04481)">
<stop stop-color="#D64A38"/>
<stop offset="1" stop-color="#D64A38" stop-opacity="0"/>
</radialGradient>
<radialGradient id="paint34_radial_7159_2155" cx="0" cy="0" r="1" gradientUnits="userSpaceOnUse" gradientTransform="translate(29.9152 26.8177) rotate(-157.603) scale(0.967535)">
<stop stop-color="#FB7425"/>
<stop offset="1" stop-color="#FB7425" stop-opacity="0"/>
</radialGradient>
<radialGradient id="paint35_radial_7159_2155" cx="0" cy="0" r="1" gradientUnits="userSpaceOnUse" gradientTransform="translate(29.6005 26.2804) rotate(154.486) scale(0.578723)">
<stop stop-color="white" stop-opacity="0.3"/>
<stop offset="1" stop-color="white" stop-opacity="0"/>
</radialGradient>
<linearGradient id="paint36_linear_7159_2155" x1="7.01786" y1="24.7212" x2="2.94525" y2="26.6767" gradientUnits="userSpaceOnUse">
<stop offset="0.15625" stop-color="#D64A38"/>
<stop offset="1" stop-color="#FB7425"/>
</linearGradient>
<linearGradient id="paint37_linear_7159_2155" x1="4.25522" y1="25.1043" x2="4.77052" y2="26.1927" gradientUnits="userSpaceOnUse">
<stop stop-color="white" stop-opacity="0"/>
<stop offset="0.520833" stop-color="white" stop-opacity="0.2"/>
<stop offset="1" stop-color="white" stop-opacity="0"/>
</linearGradient>
<radialGradient id="paint38_radial_7159_2155" cx="0" cy="0" r="1" gradientUnits="userSpaceOnUse" gradientTransform="translate(7.13839 24.4005) rotate(155.85) scale(1.04481)">
<stop stop-color="#D64A38"/>
<stop offset="1" stop-color="#D64A38" stop-opacity="0"/>
</radialGradient>
<radialGradient id="paint39_radial_7159_2155" cx="0" cy="0" r="1" gradientUnits="userSpaceOnUse" gradientTransform="translate(2.17661 26.8294) rotate(-22.3971) scale(0.967535)">
<stop stop-color="#FB7425"/>
<stop offset="1" stop-color="#FB7425" stop-opacity="0"/>
</radialGradient>
<radialGradient id="paint40_radial_7159_2155" cx="0" cy="0" r="1" gradientUnits="userSpaceOnUse" gradientTransform="translate(6.53878 24.5666) rotate(141.872) scale(0.496749)">
<stop stop-color="white" stop-opacity="0.3"/>
<stop offset="1" stop-color="white" stop-opacity="0"/>
</radialGradient>
<linearGradient id="paint41_linear_7159_2155" x1="6.81819" y1="22.9293" x2="2.7275" y2="21.012" gradientUnits="userSpaceOnUse">
<stop offset="0.15625" stop-color="#D64A38"/>
<stop offset="1" stop-color="#FB7425"/>
</linearGradient>
<linearGradient id="paint42_linear_7159_2155" x1="4.77403" y1="21.0319" x2="4.25698" y2="22.1195" gradientUnits="userSpaceOnUse">
<stop stop-color="white" stop-opacity="0"/>
<stop offset="0.520833" stop-color="white" stop-opacity="0.2"/>
<stop offset="1" stop-color="white" stop-opacity="0"/>
</linearGradient>
<radialGradient id="paint43_radial_7159_2155" cx="0" cy="0" r="1" gradientUnits="userSpaceOnUse" gradientTransform="translate(7.14282 22.8198) rotate(-153.389) scale(1.04481)">
<stop stop-color="#D64A38"/>
<stop offset="1" stop-color="#D64A38" stop-opacity="0"/>
</radialGradient>
<radialGradient id="paint44_radial_7159_2155" cx="0" cy="0" r="1" gradientUnits="userSpaceOnUse" gradientTransform="translate(2.12305 20.5132) rotate(28.3641) scale(0.967535)">
<stop stop-color="#FB7425"/>
<stop offset="1" stop-color="#FB7425" stop-opacity="0"/>
</radialGradient>
<radialGradient id="paint45_radial_7159_2155" cx="0" cy="0" r="1" gradientUnits="userSpaceOnUse" gradientTransform="translate(6.63491 22.4605) rotate(-167.367) scale(0.496749)">
<stop stop-color="white" stop-opacity="0.3"/>
<stop offset="1" stop-color="white" stop-opacity="0"/>
</radialGradient>
<linearGradient id="paint46_linear_7159_2155" x1="26.5398" y1="15.5078" x2="25.2898" y2="12.0391" gradientUnits="userSpaceOnUse">
<stop stop-color="#EF8A47"/>
<stop offset="1" stop-color="#EF8A47" stop-opacity="0"/>
</linearGradient>
<radialGradient id="paint47_radial_7159_2155" cx="0" cy="0" r="1" gradientUnits="userSpaceOnUse" gradientTransform="translate(24.305 12.1316) rotate(133.831) scale(0.936482 9.24798)">
<stop stop-color="#FFA319"/>
<stop offset="1" stop-color="#FFBA19" stop-opacity="0"/>
</radialGradient>
<radialGradient id="paint48_radial_7159_2155" cx="0" cy="0" r="1" gradientUnits="userSpaceOnUse" gradientTransform="translate(27.2229 10.2812) scale(0.771161 7.6154)">
<stop stop-color="#FF9419"/>
<stop offset="1" stop-color="#FFBA19" stop-opacity="0"/>
</radialGradient>
<radialGradient id="paint49_radial_7159_2155" cx="0" cy="0" r="1" gradientUnits="userSpaceOnUse" gradientTransform="translate(24.5299 8.4694) rotate(-130.864) scale(0.907259 8.9594)">
<stop stop-color="#FF9B19" stop-opacity="0.5"/>
<stop offset="1" stop-color="#FFBA19" stop-opacity="0"/>
</radialGradient>
<radialGradient id="paint50_radial_7159_2155" cx="0" cy="0" r="1" gradientUnits="userSpaceOnUse" gradientTransform="translate(24.9267 11.6233) rotate(-45.7638) scale(0.502944 2.40101)">
<stop stop-color="white" stop-opacity="0.3"/>
<stop offset="1" stop-color="white" stop-opacity="0"/>
</radialGradient>
<radialGradient id="paint51_radial_7159_2155" cx="0" cy="0" r="1" gradientUnits="userSpaceOnUse" gradientTransform="translate(25.1828 8.87328) rotate(-132.184) scale(0.409519 2.45272)">
<stop stop-color="white" stop-opacity="0.2"/>
<stop offset="1" stop-color="white" stop-opacity="0"/>
</radialGradient>
<radialGradient id="paint52_radial_7159_2155" cx="0" cy="0" r="1" gradientUnits="userSpaceOnUse" gradientTransform="translate(16.4461 21.1796) rotate(-153.246) scale(2.11729 2.12981)">
<stop stop-color="#FF2BA3"/>
<stop offset="1" stop-color="#F9326A"/>
</radialGradient>
<radialGradient id="paint53_radial_7159_2155" cx="0" cy="0" r="1" gradientUnits="userSpaceOnUse" gradientTransform="translate(16.5286 20.7016) rotate(90) scale(0.467818 0.822375)">
<stop stop-color="white" stop-opacity="0.5"/>
<stop offset="1" stop-color="white" stop-opacity="0"/>
</radialGradient>
<linearGradient id="paint54_linear_7159_2155" x1="16.0467" y1="27.5225" x2="16.0467" y2="23.1004" gradientUnits="userSpaceOnUse">
<stop stop-color="#E61E27"/>
<stop offset="1" stop-color="#672A7A"/>
</linearGradient>
<radialGradient id="paint55_radial_7159_2155" cx="0" cy="0" r="1" gradientTransform="matrix(-0.109863 -5.75867 5.75679 -0.16706 12.0156 19.5888)" gradientUnits="userSpaceOnUse">
<stop offset="0.166667" stop-color="#482641"/>
<stop offset="0.276042" stop-color="#594253"/>
<stop offset="0.401042" stop-color="#483637"/>
</radialGradient>
<linearGradient id="paint56_linear_7159_2155" x1="9.98433" y1="20.1408" x2="11.75" y2="18.8596" gradientUnits="userSpaceOnUse">
<stop stop-color="#271B27"/>
<stop offset="1" stop-color="#483637" stop-opacity="0"/>
</linearGradient>
<radialGradient id="paint57_radial_7159_2155" cx="0" cy="0" r="1" gradientTransform="matrix(-0.109863 -5.75867 5.75679 -0.16706 19.9843 19.5888)" gradientUnits="userSpaceOnUse">
<stop offset="0.166667" stop-color="#482641"/>
<stop offset="0.276042" stop-color="#594253"/>
<stop offset="0.401042" stop-color="#483637"/>
</radialGradient>
<linearGradient id="paint58_linear_7159_2155" x1="17.9531" y1="20.1408" x2="19.7187" y2="18.8596" gradientUnits="userSpaceOnUse">
<stop stop-color="#271B27"/>
<stop offset="1" stop-color="#483637" stop-opacity="0"/>
</linearGradient>
</defs>
</svg>
