<svg width="32" height="32" viewBox="0 0 32 32" fill="none" xmlns="http://www.w3.org/2000/svg">
<path fill-rule="evenodd" clip-rule="evenodd" d="M3.21245 3.20549C3.60297 2.81497 4.23614 2.81497 4.62666 3.20549L12.6867 11.2655C13.0772 11.656 13.0772 12.2892 12.6867 12.6797C12.2961 13.0702 11.663 13.0702 11.2724 12.6797L3.21245 4.6197C2.82192 4.22918 2.82192 3.59602 3.21245 3.20549Z" fill="url(#paint0_linear_7159_2156)"/>
<path fill-rule="evenodd" clip-rule="evenodd" d="M3.21245 3.20549C3.60297 2.81497 4.23614 2.81497 4.62666 3.20549L12.6867 11.2655C13.0772 11.656 13.0772 12.2892 12.6867 12.6797C12.2961 13.0702 11.663 13.0702 11.2724 12.6797L3.21245 4.6197C2.82192 4.22918 2.82192 3.59602 3.21245 3.20549Z" fill="url(#paint1_radial_7159_2156)"/>
<path fill-rule="evenodd" clip-rule="evenodd" d="M3.21245 3.20549C3.60297 2.81497 4.23614 2.81497 4.62666 3.20549L12.6867 11.2655C13.0772 11.656 13.0772 12.2892 12.6867 12.6797C12.2961 13.0702 11.663 13.0702 11.2724 12.6797L3.21245 4.6197C2.82192 4.22918 2.82192 3.59602 3.21245 3.20549Z" fill="url(#paint2_radial_7159_2156)"/>
<path fill-rule="evenodd" clip-rule="evenodd" d="M3.21245 3.20549C3.60297 2.81497 4.23614 2.81497 4.62666 3.20549L12.6867 11.2655C13.0772 11.656 13.0772 12.2892 12.6867 12.6797C12.2961 13.0702 11.663 13.0702 11.2724 12.6797L3.21245 4.6197C2.82192 4.22918 2.82192 3.59602 3.21245 3.20549Z" fill="url(#paint3_linear_7159_2156)"/>
<path d="M15.145 29.7032C15.7257 30.0346 16.4305 30.0157 17.009 29.6805C20.3991 27.7157 26.1411 23.3189 28.4133 17.6289C31.7908 10.1265 23.8605 4.13767 18.3796 8.44506C17.835 8.87303 17.157 9.35988 16.6663 9.82612C16.4023 10.0769 15.9414 10.1025 15.6697 9.86015C15.0183 9.27912 14.0529 8.55983 13.4245 8.13468C8.75186 4.97336 0.249905 9.14052 3.87654 18.0342C5.19018 21.9816 11.3947 27.5633 15.145 29.7032Z" fill="url(#paint4_radial_7159_2156)"/>
<path d="M15.145 29.7032C15.7257 30.0346 16.4305 30.0157 17.009 29.6805C20.3991 27.7157 26.1411 23.3189 28.4133 17.6289C31.7908 10.1265 23.8605 4.13767 18.3796 8.44506C17.835 8.87303 17.157 9.35988 16.6663 9.82612C16.4023 10.0769 15.9414 10.1025 15.6697 9.86015C15.0183 9.27912 14.0529 8.55983 13.4245 8.13468C8.75186 4.97336 0.249905 9.14052 3.87654 18.0342C5.19018 21.9816 11.3947 27.5633 15.145 29.7032Z" fill="url(#paint5_radial_7159_2156)"/>
<path d="M15.145 29.7032C15.7257 30.0346 16.4305 30.0157 17.009 29.6805C20.3991 27.7157 26.1411 23.3189 28.4133 17.6289C31.7908 10.1265 23.8605 4.13767 18.3796 8.44506C17.835 8.87303 17.157 9.35988 16.6663 9.82612C16.4023 10.0769 15.9414 10.1025 15.6697 9.86015C15.0183 9.27912 14.0529 8.55983 13.4245 8.13468C8.75186 4.97336 0.249905 9.14052 3.87654 18.0342C5.19018 21.9816 11.3947 27.5633 15.145 29.7032Z" fill="url(#paint6_radial_7159_2156)"/>
<path d="M15.145 29.7032C15.7257 30.0346 16.4305 30.0157 17.009 29.6805C20.3991 27.7157 26.1411 23.3189 28.4133 17.6289C31.7908 10.1265 23.8605 4.13767 18.3796 8.44506C17.835 8.87303 17.157 9.35988 16.6663 9.82612C16.4023 10.0769 15.9414 10.1025 15.6697 9.86015C15.0183 9.27912 14.0529 8.55983 13.4245 8.13468C8.75186 4.97336 0.249905 9.14052 3.87654 18.0342C5.19018 21.9816 11.3947 27.5633 15.145 29.7032Z" fill="url(#paint7_radial_7159_2156)"/>
<path d="M15.145 29.7032C15.7257 30.0346 16.4305 30.0157 17.009 29.6805C20.3991 27.7157 26.1411 23.3189 28.4133 17.6289C31.7908 10.1265 23.8605 4.13767 18.3796 8.44506C17.835 8.87303 17.157 9.35988 16.6663 9.82612C16.4023 10.0769 15.9414 10.1025 15.6697 9.86015C15.0183 9.27912 14.0529 8.55983 13.4245 8.13468C8.75186 4.97336 0.249905 9.14052 3.87654 18.0342C5.19018 21.9816 11.3947 27.5633 15.145 29.7032Z" fill="url(#paint8_radial_7159_2156)"/>
<path d="M15.145 29.7032C15.7257 30.0346 16.4305 30.0157 17.009 29.6805C20.3991 27.7157 26.1411 23.3189 28.4133 17.6289C31.7908 10.1265 23.8605 4.13767 18.3796 8.44506C17.835 8.87303 17.157 9.35988 16.6663 9.82612C16.4023 10.0769 15.9414 10.1025 15.6697 9.86015C15.0183 9.27912 14.0529 8.55983 13.4245 8.13468C8.75186 4.97336 0.249905 9.14052 3.87654 18.0342C5.19018 21.9816 11.3947 27.5633 15.145 29.7032Z" fill="url(#paint9_linear_7159_2156)"/>
<path d="M15.145 29.7032C15.7257 30.0346 16.4305 30.0157 17.009 29.6805C20.3991 27.7157 26.1411 23.3189 28.4133 17.6289C31.7908 10.1265 23.8605 4.13767 18.3796 8.44506C17.835 8.87303 17.157 9.35988 16.6663 9.82612C16.4023 10.0769 15.9414 10.1025 15.6697 9.86015C15.0183 9.27912 14.0529 8.55983 13.4245 8.13468C8.75186 4.97336 0.249905 9.14052 3.87654 18.0342C5.19018 21.9816 11.3947 27.5633 15.145 29.7032Z" fill="url(#paint10_radial_7159_2156)"/>
<path d="M15.145 29.7032C15.7257 30.0346 16.4305 30.0157 17.009 29.6805C20.3991 27.7157 26.1411 23.3189 28.4133 17.6289C31.7908 10.1265 23.8605 4.13767 18.3796 8.44506C17.835 8.87303 17.157 9.35988 16.6663 9.82612C16.4023 10.0769 15.9414 10.1025 15.6697 9.86015C15.0183 9.27912 14.0529 8.55983 13.4245 8.13468C8.75186 4.97336 0.249905 9.14052 3.87654 18.0342C5.19018 21.9816 11.3947 27.5633 15.145 29.7032Z" fill="url(#paint11_radial_7159_2156)"/>
<path d="M15.145 29.7032C15.7257 30.0346 16.4305 30.0157 17.009 29.6805C20.3991 27.7157 26.1411 23.3189 28.4133 17.6289C31.7908 10.1265 23.8605 4.13767 18.3796 8.44506C17.835 8.87303 17.157 9.35988 16.6663 9.82612C16.4023 10.0769 15.9414 10.1025 15.6697 9.86015C15.0183 9.27912 14.0529 8.55983 13.4245 8.13468C8.75186 4.97336 0.249905 9.14052 3.87654 18.0342C5.19018 21.9816 11.3947 27.5633 15.145 29.7032Z" fill="url(#paint12_radial_7159_2156)"/>
<path d="M15.145 29.7032C15.7257 30.0346 16.4305 30.0157 17.009 29.6805C20.3991 27.7157 26.1411 23.3189 28.4133 17.6289C31.7908 10.1265 23.8605 4.13767 18.3796 8.44506C17.835 8.87303 17.157 9.35988 16.6663 9.82612C16.4023 10.0769 15.9414 10.1025 15.6697 9.86015C15.0183 9.27912 14.0529 8.55983 13.4245 8.13468C8.75186 4.97336 0.249905 9.14052 3.87654 18.0342C5.19018 21.9816 11.3947 27.5633 15.145 29.7032Z" fill="url(#paint13_radial_7159_2156)"/>
<path d="M15.145 29.7032C15.7257 30.0346 16.4305 30.0157 17.009 29.6805C20.3991 27.7157 26.1411 23.3189 28.4133 17.6289C31.7908 10.1265 23.8605 4.13767 18.3796 8.44506C17.835 8.87303 17.157 9.35988 16.6663 9.82612C16.4023 10.0769 15.9414 10.1025 15.6697 9.86015C15.0183 9.27912 14.0529 8.55983 13.4245 8.13468C8.75186 4.97336 0.249905 9.14052 3.87654 18.0342C5.19018 21.9816 11.3947 27.5633 15.145 29.7032Z" fill="url(#paint14_radial_7159_2156)"/>
<path d="M15.145 29.7032C15.7257 30.0346 16.4305 30.0157 17.009 29.6805C20.3991 27.7157 26.1411 23.3189 28.4133 17.6289C31.7908 10.1265 23.8605 4.13767 18.3796 8.44506C17.835 8.87303 17.157 9.35988 16.6663 9.82612C16.4023 10.0769 15.9414 10.1025 15.6697 9.86015C15.0183 9.27912 14.0529 8.55983 13.4245 8.13468C8.75186 4.97336 0.249905 9.14052 3.87654 18.0342C5.19018 21.9816 11.3947 27.5633 15.145 29.7032Z" fill="url(#paint15_radial_7159_2156)"/>
<path d="M15.145 29.7032C15.7257 30.0346 16.4305 30.0157 17.009 29.6805C20.3991 27.7157 26.1411 23.3189 28.4133 17.6289C31.7908 10.1265 23.8605 4.13767 18.3796 8.44506C17.835 8.87303 17.157 9.35988 16.6663 9.82612C16.4023 10.0769 15.9414 10.1025 15.6697 9.86015C15.0183 9.27912 14.0529 8.55983 13.4245 8.13468C8.75186 4.97336 0.249905 9.14052 3.87654 18.0342C5.19018 21.9816 11.3947 27.5633 15.145 29.7032Z" fill="url(#paint16_radial_7159_2156)"/>
<path d="M15.145 29.7032C15.7257 30.0346 16.4305 30.0157 17.009 29.6805C20.3991 27.7157 26.1411 23.3189 28.4133 17.6289C31.7908 10.1265 23.8605 4.13767 18.3796 8.44506C17.835 8.87303 17.157 9.35988 16.6663 9.82612C16.4023 10.0769 15.9414 10.1025 15.6697 9.86015C15.0183 9.27912 14.0529 8.55983 13.4245 8.13468C8.75186 4.97336 0.249905 9.14052 3.87654 18.0342C5.19018 21.9816 11.3947 27.5633 15.145 29.7032Z" fill="url(#paint17_linear_7159_2156)"/>
<path d="M15.145 29.7032C15.7257 30.0346 16.4305 30.0157 17.009 29.6805C20.3991 27.7157 26.1411 23.3189 28.4133 17.6289C31.7908 10.1265 23.8605 4.13767 18.3796 8.44506C17.835 8.87303 17.157 9.35988 16.6663 9.82612C16.4023 10.0769 15.9414 10.1025 15.6697 9.86015C15.0183 9.27912 14.0529 8.55983 13.4245 8.13468C8.75186 4.97336 0.249905 9.14052 3.87654 18.0342C5.19018 21.9816 11.3947 27.5633 15.145 29.7032Z" fill="url(#paint18_linear_7159_2156)"/>
<path d="M15.145 29.7032C15.7257 30.0346 16.4305 30.0157 17.009 29.6805C20.3991 27.7157 26.1411 23.3189 28.4133 17.6289C31.7908 10.1265 23.8605 4.13767 18.3796 8.44506C17.835 8.87303 17.157 9.35988 16.6663 9.82612C16.4023 10.0769 15.9414 10.1025 15.6697 9.86015C15.0183 9.27912 14.0529 8.55983 13.4245 8.13468C8.75186 4.97336 0.249905 9.14052 3.87654 18.0342C5.19018 21.9816 11.3947 27.5633 15.145 29.7032Z" fill="url(#paint19_radial_7159_2156)"/>
<path d="M3.59602 7.66359L2.10602 2.81359C1.98602 2.39359 2.37602 2.00359 2.79602 2.12359L7.64602 3.61359C8.03602 3.73359 8.16602 4.23359 7.87602 4.52359L4.50602 7.88359C4.21602 8.17359 3.71602 8.05359 3.59602 7.66359Z" fill="url(#paint20_linear_7159_2156)"/>
<path d="M3.51203 7.56203L2.02203 2.71203C1.90203 2.29203 2.29203 1.90203 2.71203 2.02203L7.56203 3.51203C7.95203 3.63203 8.08203 4.13203 7.79203 4.42203L4.42203 7.78203C4.13203 8.07203 3.63203 7.95203 3.51203 7.56203Z" fill="url(#paint21_linear_7159_2156)"/>
<path d="M26.1607 27.2118L21.1607 22.0918L21.1407 25.2418C21.1407 25.8118 21.3607 26.3518 21.7507 26.7618L24.5907 29.6718L24.6007 29.6818L24.6107 29.6918C24.8807 29.9618 25.2507 30.1218 25.6607 30.1218C26.4907 30.1218 27.1607 29.4518 27.1607 28.6218C27.1607 27.9718 26.7407 27.4218 26.1607 27.2118Z" fill="url(#paint22_linear_7159_2156)"/>
<path d="M27.2708 26.1216L22.1508 21.1216L25.3008 21.1016C25.8708 21.1016 26.4108 21.3216 26.8208 21.7116L29.7308 24.5516L29.7408 24.5616L29.7508 24.5716C30.0208 24.8416 30.1808 25.2116 30.1808 25.6216C30.1808 26.4516 29.5108 27.1216 28.6808 27.1216C28.0208 27.1216 27.4708 26.7016 27.2708 26.1216Z" fill="url(#paint23_linear_7159_2156)"/>
<path d="M25.942 27.0321L20.942 21.9121L20.922 25.0621C20.922 25.6321 21.142 26.1721 21.532 26.5821L24.372 29.4921L24.382 29.5021L24.392 29.5121C24.662 29.7821 25.032 29.9421 25.442 29.9421C26.272 29.9421 26.942 29.2721 26.942 28.4421C26.942 27.7921 26.522 27.2421 25.942 27.0321Z" fill="url(#paint24_linear_7159_2156)"/>
<path d="M27.052 25.9419L21.932 20.9419L25.082 20.9219C25.652 20.9219 26.192 21.1419 26.602 21.5319L29.512 24.3719L29.522 24.3819L29.532 24.3919C29.802 24.6619 29.962 25.0319 29.962 25.4419C29.962 26.2719 29.292 26.9419 28.462 26.9419C27.802 26.9419 27.252 26.5219 27.052 25.9419Z" fill="url(#paint25_linear_7159_2156)"/>
<path fill-rule="evenodd" clip-rule="evenodd" d="M17.2549 17.2548C17.6455 16.8643 18.2786 16.8643 18.6691 17.2548L26.7291 25.3148C27.1197 25.7053 27.1197 26.3385 26.7291 26.729C26.3386 27.1195 25.7055 27.1195 25.3149 26.729L17.2549 18.669C16.8644 18.2785 16.8644 17.6453 17.2549 17.2548Z" fill="url(#paint26_linear_7159_2156)"/>
<path fill-rule="evenodd" clip-rule="evenodd" d="M17.2549 17.2548C17.6455 16.8643 18.2786 16.8643 18.6691 17.2548L26.7291 25.3148C27.1197 25.7053 27.1197 26.3385 26.7291 26.729C26.3386 27.1195 25.7055 27.1195 25.3149 26.729L17.2549 18.669C16.8644 18.2785 16.8644 17.6453 17.2549 17.2548Z" fill="url(#paint27_radial_7159_2156)"/>
<path fill-rule="evenodd" clip-rule="evenodd" d="M17.2549 17.2548C17.6455 16.8643 18.2786 16.8643 18.6691 17.2548L26.7291 25.3148C27.1197 25.7053 27.1197 26.3385 26.7291 26.729C26.3386 27.1195 25.7055 27.1195 25.3149 26.729L17.2549 18.669C16.8644 18.2785 16.8644 17.6453 17.2549 17.2548Z" fill="url(#paint28_radial_7159_2156)"/>
<path fill-rule="evenodd" clip-rule="evenodd" d="M17.2549 17.2548C17.6455 16.8643 18.2786 16.8643 18.6691 17.2548L26.7291 25.3148C27.1197 25.7053 27.1197 26.3385 26.7291 26.729C26.3386 27.1195 25.7055 27.1195 25.3149 26.729L17.2549 18.669C16.8644 18.2785 16.8644 17.6453 17.2549 17.2548Z" fill="url(#paint29_radial_7159_2156)"/>
<defs>
<linearGradient id="paint0_linear_7159_2156" x1="9.23722" y1="7.79826" x2="7.84115" y2="9.19434" gradientUnits="userSpaceOnUse">
<stop stop-color="#FF9D49"/>
<stop offset="0.510417" stop-color="#FA8F3E"/>
<stop offset="1" stop-color="#FF9D49"/>
</linearGradient>
<radialGradient id="paint1_radial_7159_2156" cx="0" cy="0" r="1" gradientUnits="userSpaceOnUse" gradientTransform="translate(12.7142 12.6345) rotate(-135) scale(1.64653)">
<stop stop-color="#FF9D49"/>
<stop offset="1" stop-color="#FF9D49" stop-opacity="0"/>
</radialGradient>
<radialGradient id="paint2_radial_7159_2156" cx="0" cy="0" r="1" gradientUnits="userSpaceOnUse" gradientTransform="translate(3.27518 3.19541) rotate(45) scale(1.56889)">
<stop stop-color="#FF9D49"/>
<stop offset="1" stop-color="#FF9D49" stop-opacity="0"/>
</radialGradient>
<linearGradient id="paint3_linear_7159_2156" x1="5.17559" y1="6.82019" x2="6.08909" y2="6.82019" gradientUnits="userSpaceOnUse">
<stop stop-opacity="0.5"/>
<stop offset="1" stop-opacity="0"/>
</linearGradient>
<radialGradient id="paint4_radial_7159_2156" cx="0" cy="0" r="1" gradientUnits="userSpaceOnUse" gradientTransform="translate(16 8) rotate(90.2699) scale(21.6405 22.2845)">
<stop stop-color="#FF3482"/>
<stop offset="1" stop-color="#FF1F5F"/>
</radialGradient>
<radialGradient id="paint5_radial_7159_2156" cx="0" cy="0" r="1" gradientUnits="userSpaceOnUse" gradientTransform="translate(35 20) rotate(166.261) scale(33.0329)">
<stop offset="0.46875" stop-color="#FF5B99" stop-opacity="0"/>
<stop offset="0.625" stop-color="#B91D43"/>
</radialGradient>
<radialGradient id="paint6_radial_7159_2156" cx="0" cy="0" r="1" gradientUnits="userSpaceOnUse" gradientTransform="translate(31 11.5) rotate(43.4926) scale(26.8794 27.6793)">
<stop offset="0.436191" stop-color="#FF2C64" stop-opacity="0"/>
<stop offset="0.579111" stop-color="#FF2C64"/>
<stop offset="0.820977" stop-color="#FF2C64"/>
</radialGradient>
<radialGradient id="paint7_radial_7159_2156" cx="0" cy="0" r="1" gradientUnits="userSpaceOnUse" gradientTransform="translate(27.5 9.5) rotate(129.472) scale(11.0114 5.03872)">
<stop offset="0.285125" stop-color="#FF7AA9"/>
<stop offset="1" stop-color="#FF689F" stop-opacity="0"/>
</radialGradient>
<radialGradient id="paint8_radial_7159_2156" cx="0" cy="0" r="1" gradientUnits="userSpaceOnUse" gradientTransform="translate(11.5 9) rotate(74.876) scale(19.1638 7.25627)">
<stop stop-color="#FF94BA"/>
<stop offset="0.829857" stop-color="#FF689F" stop-opacity="0"/>
</radialGradient>
<linearGradient id="paint9_linear_7159_2156" x1="25" y1="14" x2="13.5" y2="15" gradientUnits="userSpaceOnUse">
<stop offset="0.592259" stop-color="#FF2F77" stop-opacity="0"/>
<stop offset="0.728317" stop-color="#FF2F77"/>
<stop offset="0.889416" stop-color="#FF2F77" stop-opacity="0"/>
</linearGradient>
<radialGradient id="paint10_radial_7159_2156" cx="0" cy="0" r="1" gradientUnits="userSpaceOnUse" gradientTransform="translate(12 26) rotate(114.057) scale(91.9905 72.3291)">
<stop offset="0.213872" stop-color="#FF5597" stop-opacity="0"/>
<stop offset="0.280316" stop-color="#FF5597"/>
</radialGradient>
<radialGradient id="paint11_radial_7159_2156" cx="0" cy="0" r="1" gradientUnits="userSpaceOnUse" gradientTransform="translate(17.5 18.5) rotate(114.444) scale(6.04152 2.96969)">
<stop stop-color="#CA164C"/>
<stop offset="1" stop-color="#FF2C77" stop-opacity="0"/>
</radialGradient>
<radialGradient id="paint12_radial_7159_2156" cx="0" cy="0" r="1" gradientUnits="userSpaceOnUse" gradientTransform="translate(19 16.5) rotate(111.801) scale(2.69258)">
<stop stop-color="#FE3E80"/>
<stop offset="1" stop-color="#FE3E80" stop-opacity="0"/>
</radialGradient>
<radialGradient id="paint13_radial_7159_2156" cx="0" cy="0" r="1" gradientUnits="userSpaceOnUse" gradientTransform="translate(11 6.5) rotate(75.0686) scale(7.76209)">
<stop offset="0.226211" stop-color="#FF3A8C"/>
<stop offset="1" stop-color="#FF3A8C" stop-opacity="0"/>
</radialGradient>
<radialGradient id="paint14_radial_7159_2156" cx="0" cy="0" r="1" gradientUnits="userSpaceOnUse" gradientTransform="translate(13.5 6.5) rotate(93.8141) scale(7.51665)">
<stop offset="0.226211" stop-color="#FF3A8C"/>
<stop offset="0.631601" stop-color="#FF3A8C" stop-opacity="0"/>
</radialGradient>
<radialGradient id="paint15_radial_7159_2156" cx="0" cy="0" r="1" gradientUnits="userSpaceOnUse" gradientTransform="translate(31 11.5) rotate(45.6161) scale(32.8824 33.8609)">
<stop offset="0.605375" stop-color="#D32750" stop-opacity="0"/>
<stop offset="0.760922" stop-color="#D32750"/>
</radialGradient>
<radialGradient id="paint16_radial_7159_2156" cx="0" cy="0" r="1" gradientUnits="userSpaceOnUse" gradientTransform="translate(26.5 21) rotate(26.9802) scale(30.8585 19.2391)">
<stop offset="0.734432" stop-color="#C03D60" stop-opacity="0"/>
<stop offset="0.785127" stop-color="#C03D60"/>
</radialGradient>
<linearGradient id="paint17_linear_7159_2156" x1="9" y1="32" x2="17" y2="22" gradientUnits="userSpaceOnUse">
<stop offset="0.389423" stop-color="#E3559F"/>
<stop offset="0.508449" stop-color="#E3559F" stop-opacity="0"/>
</linearGradient>
<linearGradient id="paint18_linear_7159_2156" x1="23" y1="30.5" x2="17" y2="22" gradientUnits="userSpaceOnUse">
<stop offset="0.34991" stop-color="#E3559F"/>
<stop offset="0.458081" stop-color="#E3559F" stop-opacity="0"/>
</linearGradient>
<radialGradient id="paint19_radial_7159_2156" cx="0" cy="0" r="1" gradientUnits="userSpaceOnUse" gradientTransform="translate(16.5 31) rotate(-86.8202) scale(9.01388 10.3031)">
<stop offset="0.0975182" stop-color="#E3559F"/>
<stop offset="0.250164" stop-color="#E3559F" stop-opacity="0"/>
</radialGradient>
<linearGradient id="paint20_linear_7159_2156" x1="6.20688" y1="8.04427" x2="7.53557" y2="6.34489" gradientUnits="userSpaceOnUse">
<stop stop-color="#7648EE"/>
<stop offset="1" stop-color="#8978E3"/>
</linearGradient>
<linearGradient id="paint21_linear_7159_2156" x1="2.70253" y1="2.70253" x2="7.5" y2="8.5" gradientUnits="userSpaceOnUse">
<stop stop-color="#7F5CD9"/>
<stop offset="1" stop-color="#614EAC"/>
</linearGradient>
<linearGradient id="paint22_linear_7159_2156" x1="25.3125" y1="30.1218" x2="27.1607" y2="28.3516" gradientUnits="userSpaceOnUse">
<stop stop-color="#7648EE"/>
<stop offset="1" stop-color="#8978E3"/>
</linearGradient>
<linearGradient id="paint23_linear_7159_2156" x1="27.7154" y1="27.1216" x2="28.9262" y2="25.0583" gradientUnits="userSpaceOnUse">
<stop stop-color="#7648EE"/>
<stop offset="1" stop-color="#8978E3"/>
</linearGradient>
<linearGradient id="paint24_linear_7159_2156" x1="21.904" y1="24.9065" x2="26.0121" y2="29.0146" gradientUnits="userSpaceOnUse">
<stop stop-color="#7A4ACA"/>
<stop offset="1" stop-color="#654DB7"/>
</linearGradient>
<linearGradient id="paint25_linear_7159_2156" x1="24.5" y1="21.9998" x2="25.6945" y2="26.9736" gradientUnits="userSpaceOnUse">
<stop stop-color="#7A4ACA"/>
<stop offset="1" stop-color="#654DB7"/>
</linearGradient>
<linearGradient id="paint26_linear_7159_2156" x1="23.2797" y1="21.8476" x2="21.8836" y2="23.2437" gradientUnits="userSpaceOnUse">
<stop stop-color="#FF9D49"/>
<stop offset="0.510417" stop-color="#FA8F3E"/>
<stop offset="1" stop-color="#FF9D49"/>
</linearGradient>
<radialGradient id="paint27_radial_7159_2156" cx="0" cy="0" r="1" gradientUnits="userSpaceOnUse" gradientTransform="translate(26.7567 26.6838) rotate(-135) scale(1.64653)">
<stop stop-color="#FF9D49"/>
<stop offset="1" stop-color="#FF9D49" stop-opacity="0"/>
</radialGradient>
<radialGradient id="paint28_radial_7159_2156" cx="0" cy="0" r="1" gradientUnits="userSpaceOnUse" gradientTransform="translate(26.5156 25.8007) rotate(-180) scale(0.65625)">
<stop stop-color="white" stop-opacity="0.3"/>
<stop offset="1" stop-color="white" stop-opacity="0"/>
</radialGradient>
<radialGradient id="paint29_radial_7159_2156" cx="0" cy="0" r="1" gradientUnits="userSpaceOnUse" gradientTransform="translate(17.3177 17.2447) rotate(45) scale(1.56889)">
<stop stop-color="#FF9D49"/>
<stop offset="1" stop-color="#FF9D49" stop-opacity="0"/>
</radialGradient>
</defs>
</svg>
