<svg width="32" height="32" viewBox="0 0 32 32" fill="none" xmlns="http://www.w3.org/2000/svg">
<path d="M16 0C13.8989 0 11.8183 0.413852 9.87706 1.21793C7.93586 2.022 6.17203 3.20055 4.68629 4.68629C1.68571 7.68687 0 11.7565 0 16V32H16C20.2435 32 24.3131 30.3143 27.3137 27.3137C30.3143 24.3131 32 20.2435 32 16C32 11.7565 30.3143 7.68687 27.3137 4.68629C24.3131 1.68571 20.2435 0 16 0ZM16 10.4C16.7354 10.4 17.4636 10.5448 18.143 10.8263C18.8225 11.1077 19.4398 11.5202 19.9598 12.0402C20.4798 12.5602 20.8923 13.1775 21.1737 13.857C21.4552 14.5364 21.6 15.2646 21.6 16C21.6 16.7354 21.4552 17.4636 21.1737 18.143C20.8923 18.8224 20.4798 19.4398 19.9598 19.9598C19.4398 20.4798 18.8225 20.8923 18.143 21.1737C17.4636 21.4551 16.7354 21.6 16 21.6H10.4V16C10.4 14.5148 10.99 13.0904 12.0402 12.0402C13.0904 10.99 14.5148 10.4 16 10.4Z" fill="url(#paint0_linear_7159_5252)"/>
<path d="M32 16C32 20.2435 30.3143 24.3131 27.3137 27.3137C24.3131 30.3143 20.2435 32 16 32H0C0 29.2417 1.09571 26.5965 3.04609 24.6461C4.99647 22.6957 7.64175 21.6 10.4 21.6H16C17.4852 21.6 18.9096 21.01 19.9598 19.9598C21.01 18.9096 21.6 17.4852 21.6 16H32Z" fill="url(#paint1_linear_7159_5252)"/>
<path d="M32 16C32 20.2435 30.3143 24.3131 27.3137 27.3137C24.3131 30.3143 20.2435 32 16 32H0C0 29.2417 1.09571 26.5965 3.04609 24.6461C4.99647 22.6957 7.64175 21.6 10.4 21.6H16C17.4852 21.6 18.9096 21.01 19.9598 19.9598C21.01 18.9096 21.6 17.4852 21.6 16H32Z" fill="url(#paint2_radial_7159_5252)" fill-opacity="0.56"/>
<path d="M32 16C32 20.2435 30.3143 24.3131 27.3137 27.3137C24.3131 30.3143 20.2435 32 16 32H0C0 29.2417 1.09571 26.5965 3.04609 24.6461C4.99647 22.6957 7.64175 21.6 10.4 21.6H16C17.4852 21.6 18.9096 21.01 19.9598 19.9598C21.01 18.9096 21.6 17.4852 21.6 16H32Z" fill="url(#paint3_radial_7159_5252)" fill-opacity="0.15"/>
<path d="M16 8.86314e-06C13.8989 8.86314e-06 11.8183 0.413861 9.87706 1.21794C7.93586 2.02201 6.17203 3.20056 4.68629 4.6863C1.68571 7.68688 0 11.7565 0 16V32C2.75272 32 5.39316 30.9087 7.34262 28.9652C9.29208 27.0218 10.3915 24.3847 10.4 21.632L10.432 21.6H10.4V16C10.3967 14.8861 10.7256 13.7966 11.3447 12.8706C11.9638 11.9446 12.845 11.2243 13.8756 10.8018C14.9062 10.3792 16.0394 10.2736 17.1304 10.4984C18.2213 10.7233 19.2205 11.2684 20 12.064L27.36 4.73601C25.8745 3.23362 24.1053 2.04131 22.1551 1.2283C20.205 0.415294 18.1128 -0.00221825 16 8.86314e-06Z" fill="url(#paint4_linear_7159_5252)"/>
<path d="M16 8.86314e-06C13.8989 8.86314e-06 11.8183 0.413861 9.87706 1.21794C7.93586 2.02201 6.17203 3.20056 4.68629 4.6863C1.68571 7.68688 0 11.7565 0 16V32C2.75272 32 5.39316 30.9087 7.34262 28.9652C9.29208 27.0218 10.3915 24.3847 10.4 21.632L10.432 21.6H10.4V16C10.3967 14.8861 10.7256 13.7966 11.3447 12.8706C11.9638 11.9446 12.845 11.2243 13.8756 10.8018C14.9062 10.3792 16.0394 10.2736 17.1304 10.4984C18.2213 10.7233 19.2205 11.2684 20 12.064L27.36 4.73601C25.8745 3.23362 24.1053 2.04131 22.1551 1.2283C20.205 0.415294 18.1128 -0.00221825 16 8.86314e-06Z" fill="url(#paint5_radial_7159_5252)"/>
<defs>
<linearGradient id="paint0_linear_7159_5252" x1="19.52" y1="11.36" x2="14.24" y2="32.96" gradientUnits="userSpaceOnUse">
<stop stop-color="#9237E3"/>
<stop offset="1" stop-color="#48E6F3"/>
</linearGradient>
<linearGradient id="paint1_linear_7159_5252" x1="10.4" y1="29.6" x2="24.48" y2="26.4" gradientUnits="userSpaceOnUse">
<stop stop-color="#51E6FF"/>
<stop offset="1" stop-color="#71D4FF" stop-opacity="0"/>
</linearGradient>
<radialGradient id="paint2_radial_7159_5252" cx="0" cy="0" r="1" gradientTransform="matrix(6.4 4.4 -7.73309 11.2482 5.6 25.2)" gradientUnits="userSpaceOnUse">
<stop/>
<stop offset="0.7" stop-opacity="0"/>
</radialGradient>
<radialGradient id="paint3_radial_7159_5252" cx="0" cy="0" r="1" gradientUnits="userSpaceOnUse" gradientTransform="translate(3.68 24) rotate(31.866) scale(13.9411 24.5019)">
<stop offset="0.33"/>
<stop offset="0.6" stop-opacity="0"/>
</radialGradient>
<linearGradient id="paint4_linear_7159_5252" x1="6.56" y1="17.12" x2="14.72" y2="5.60001" gradientUnits="userSpaceOnUse">
<stop stop-color="#6E06E9"/>
<stop offset="1" stop-color="#AB5ADD" stop-opacity="0"/>
</linearGradient>
<radialGradient id="paint5_radial_7159_5252" cx="0" cy="0" r="1" gradientUnits="userSpaceOnUse" gradientTransform="translate(-2.72 9.92001) rotate(-9.73941) scale(21.7536 57.1929)">
<stop stop-color="#6D05E8"/>
<stop offset="1" stop-color="#6D05E8" stop-opacity="0"/>
</radialGradient>
</defs>
</svg>
