<svg width="256" height="256" viewBox="0 0 256 256" fill="none" xmlns="http://www.w3.org/2000/svg">
<g clip-path="url(#clip0_7159_4490)">
<path d="M0 0V256H256V0H0Z" fill="white"/>
<path d="M15.36 15.3604V69.7604H69.76V15.3604H15.36ZM77.44 15.3604V23.0404H100.48V15.3604H77.44ZM115.84 15.3604V23.0404H108.16V30.7204H115.84V38.4004H108.16V46.0804H100.48V38.4004H77.44V46.0804H85.12V61.4404H77.44V69.7604H85.12V61.4404H92.8V69.7604H100.48V77.4404H108.16V69.7604H115.84V85.1204H123.52V77.4404H131.84V85.1204H139.52V77.4404H154.88V85.1204H147.2V92.8004H170.24V85.1204H162.56V77.4404H177.92V92.8004H185.6V77.4404H177.92V53.7604H170.24V46.0804H177.92V38.4004H170.24V30.7204H162.56V15.3604H154.88V30.7204H162.56V38.4004H154.88V53.7604H147.2V46.0804H139.52V38.4004H147.2V15.3604H139.52V23.0404H131.84V15.3604H115.84ZM185.6 15.3604V69.7604H240V15.3604H185.6Z" fill="black"/>
<path d="M23.04 23.04V61.44H61.44V23.04H23.04ZM123.52 23.04V30.72H131.84V23.04H123.52ZM193.92 23.04V61.44H232.32V23.04H193.92Z" fill="white"/>
<path d="M30.72 30.7197V53.7597H53.76V30.7197H30.72ZM201.6 30.7197V53.7597H224.64V30.7197H201.6Z" fill="black"/>
<path d="M115.84 38.4004V46.0804H108.16V53.7604H123.52V61.4404H115.84V69.7604H123.52V61.4404H131.84V77.4404H139.52V61.4404H147.2V69.7604H154.88V61.4404H162.56V69.7604H170.24V61.4404H162.56V53.7604H154.88V61.4404H147.2V53.7604H123.52V38.4004H115.84ZM162.56 38.4004V46.0804H170.24V38.4004H162.56ZM92.8 53.7604V61.4404H100.48V69.7604H108.16V61.4404H100.48V53.7604H92.8Z" fill="white"/>
<path d="M30.72 77.4404V100.48H23.04V108.16H15.36V115.84H23.04V108.16H30.72V147.2H23.04V131.84H15.36V147.2H23.04V154.88H15.36V162.56H23.04V170.24H15.36V177.92H23.04V170.24H30.72V162.56H23.04V154.88H38.4V177.92H77.44V185.6H85.12V177.92H92.8V170.24H100.48V177.92H108.16V185.6H123.52V193.92H115.84V209.28H108.16V193.92H100.48V185.6H92.8V193.92H77.44V209.28H85.12V216.96H77.44V224.64H92.8V232.32H108.16V240H139.52V232.32H147.2V240H162.56V216.96H170.24V224.64H177.92V232.32H170.24V240H209.28V224.64H216.96V201.6H209.28V193.92H216.96V185.6H224.64V193.92H240V147.2H232.32V139.52H240V77.4404H232.32V85.1204H224.64V92.8004H216.96V100.48H209.28V92.8004H201.6V85.1204H193.92V100.48H201.6V108.16H216.96V100.48H232.32V115.84H216.96V123.52H224.64V147.2H216.96V154.88H224.64V170.24H232.32V177.92H216.96V185.6H209.28V162.56H201.6V154.88H193.92V162.56H185.6V139.52H193.92V131.84H209.28V123.52H193.92V108.16H185.6V115.84H177.92V108.16H170.24V100.48H162.56V108.16H154.88V100.48H147.2V108.16H139.52V115.84H131.84V108.16H123.52V100.48H139.52V92.8004H92.8V77.4404H77.44V92.8004H61.44V85.1204H69.76V77.4404H46.08V85.1204H53.76V100.48H46.08V92.8004H38.4V77.4404H30.72ZM209.28 77.4404V85.1204H216.96V77.4404H209.28ZM15.36 85.1204V92.8004H23.04V85.1204H15.36Z" fill="black"/>
<path d="M85.12 92.7998V108.16H77.44V100.48H53.76V108.16H46.08V115.84H38.4V147.2H53.76V154.88H77.44V162.56H85.12V170.24H77.44V177.92H85.12V170.24H92.8V162.56H100.48V170.24H115.84V162.56H100.48V154.88H108.16V147.2H100.48V115.84H108.16V123.52H115.84V131.84H108.16V139.52H115.84V154.88H123.52V147.2H147.2V154.88H131.84V162.56H139.52V170.24H147.2V185.6H170.24V177.92H154.88V170.24H170.24V162.56H162.56V154.88H154.88V147.2H162.56V131.84H170.24V139.52H177.92V123.52H170.24V108.16H162.56V123.52H154.88V115.84H139.52V131.84H131.84V115.84H108.16V100.48H92.8V92.7998H85.12ZM30.72 100.48V108.16H38.4V100.48H30.72Z" fill="white"/>
<path d="M61.44 108.16V115.84H69.76V123.52H61.44V131.84H53.76V139.52H61.44V147.2H77.44V139.52H61.44V131.84H69.76V123.52H77.44V108.16H61.44ZM85.12 108.16V115.84H100.48V108.16H85.12ZM46.08 115.84V123.52H53.76V115.84H46.08ZM147.2 123.52V131.84H139.52V139.52H154.88V123.52H147.2Z" fill="black"/>
<path d="M185.6 123.52V131.84H193.92V123.52H185.6Z" fill="white"/>
<path d="M85.12 131.84V139.52H92.8V131.84H85.12ZM115.84 131.84V139.52H131.84V131.84H115.84ZM85.12 147.2V154.88H92.8V147.2H85.12Z" fill="black"/>
<path d="M224.64 147.2V154.88H232.32V147.2H224.64ZM61.4399 162.56V170.24H69.7599V162.56H61.4399Z" fill="white"/>
<path d="M147.2 162.56V170.24H154.88V162.56H147.2Z" fill="black"/>
<path d="M193.92 162.56V170.24H201.6V162.56H193.92ZM131.84 177.92V185.6H139.52V177.92H131.84ZM177.92 177.92V201.6H201.6V177.92H177.92Z" fill="white"/>
<path d="M15.36 185.6V240H69.76V185.6H15.36ZM185.6 185.6V193.92H193.92V185.6H185.6Z" fill="black"/>
<path d="M23.04 193.92V232.32H61.44V193.92H23.04ZM92.8 193.92V201.6H100.48V193.92H92.8ZM123.52 193.92V201.6H139.52V209.28H147.2V216.96H131.84V209.28H123.52V216.96H115.84V224.64H108.16V232.32H115.84V224.64H123.52V232.32H131.84V224.64H147.2V216.96H154.88V201.6H162.56V209.28H170.24V193.92H147.2V201.6H139.52V193.92H123.52Z" fill="white"/>
<path d="M30.72 201.6V224.64H53.76V201.6H30.72Z" fill="black"/>
<path d="M92.8 209.28V216.96H100.48V209.28H92.8ZM177.92 209.28V224.64H185.6V232.32H201.6V224.64H193.92V216.96H201.6V209.28H177.92Z" fill="white"/>
<path d="M232.32 216.96V224.64H224.64V240H240V232.32H232.32V224.64H240V216.96H232.32Z" fill="black"/>
</g>
<defs>
<clipPath id="clip0_7159_4490">
<rect width="256" height="256" fill="white"/>
</clipPath>
</defs>
</svg>
