<svg width="32" height="32" viewBox="0 0 32 32" fill="none" xmlns="http://www.w3.org/2000/svg">
<g clip-path="url(#clip0_7159_2159)">
<path d="M6.51558 20.0396C9.54456 20.0396 12 17.6226 12 14.6411C12 11.6596 9.54456 9.24268 6.51558 9.24268C3.4866 9.24268 1.03113 11.6596 1.03113 14.6411C1.03113 17.6226 3.4866 20.0396 6.51558 20.0396Z" fill="url(#paint0_linear_7159_2159)"/>
<path d="M6.51558 20.0396C9.54456 20.0396 12 17.6226 12 14.6411C12 11.6596 9.54456 9.24268 6.51558 9.24268C3.4866 9.24268 1.03113 11.6596 1.03113 14.6411C1.03113 17.6226 3.4866 20.0396 6.51558 20.0396Z" fill="url(#paint1_linear_7159_2159)"/>
<path d="M6.51558 20.0396C9.54456 20.0396 12 17.6226 12 14.6411C12 11.6596 9.54456 9.24268 6.51558 9.24268C3.4866 9.24268 1.03113 11.6596 1.03113 14.6411C1.03113 17.6226 3.4866 20.0396 6.51558 20.0396Z" fill="url(#paint2_radial_7159_2159)" fill-opacity="0.5"/>
<path d="M25.4845 20.0396C28.5134 20.0396 30.9689 17.6226 30.9689 14.6411C30.9689 11.6596 28.5134 9.24268 25.4845 9.24268C22.4555 9.24268 20 11.6596 20 14.6411C20 17.6226 22.4555 20.0396 25.4845 20.0396Z" fill="url(#paint3_linear_7159_2159)"/>
<path d="M25.4845 20.0396C28.5134 20.0396 30.9689 17.6226 30.9689 14.6411C30.9689 11.6596 28.5134 9.24268 25.4845 9.24268C22.4555 9.24268 20 11.6596 20 14.6411C20 17.6226 22.4555 20.0396 25.4845 20.0396Z" fill="url(#paint4_radial_7159_2159)"/>
<path d="M25.4845 20.0396C28.5134 20.0396 30.9689 17.6226 30.9689 14.6411C30.9689 11.6596 28.5134 9.24268 25.4845 9.24268C22.4555 9.24268 20 11.6596 20 14.6411C20 17.6226 22.4555 20.0396 25.4845 20.0396Z" fill="url(#paint5_radial_7159_2159)"/>
<path d="M25.4845 20.0396C28.5134 20.0396 30.9689 17.6226 30.9689 14.6411C30.9689 11.6596 28.5134 9.24268 25.4845 9.24268C22.4555 9.24268 20 11.6596 20 14.6411C20 17.6226 22.4555 20.0396 25.4845 20.0396Z" fill="url(#paint6_radial_7159_2159)"/>
<path d="M16 26.988C23.9663 26.988 27.9471 21.6391 27.9471 15.0409C27.9471 8.44267 23.9663 3.09375 16 3.09375C8.03365 3.09375 4.05286 8.44267 4.05286 15.0409C4.05286 21.6391 8.03365 26.988 16 26.988Z" fill="url(#paint7_radial_7159_2159)"/>
<path d="M16 26.988C23.9663 26.988 27.9471 21.6391 27.9471 15.0409C27.9471 8.44267 23.9663 3.09375 16 3.09375C8.03365 3.09375 4.05286 8.44267 4.05286 15.0409C4.05286 21.6391 8.03365 26.988 16 26.988Z" fill="url(#paint8_linear_7159_2159)"/>
<path d="M16 26.988C23.9663 26.988 27.9471 21.6391 27.9471 15.0409C27.9471 8.44267 23.9663 3.09375 16 3.09375C8.03365 3.09375 4.05286 8.44267 4.05286 15.0409C4.05286 21.6391 8.03365 26.988 16 26.988Z" fill="url(#paint9_radial_7159_2159)"/>
<path d="M16 26.988C23.9663 26.988 27.9471 21.6391 27.9471 15.0409C27.9471 8.44267 23.9663 3.09375 16 3.09375C8.03365 3.09375 4.05286 8.44267 4.05286 15.0409C4.05286 21.6391 8.03365 26.988 16 26.988Z" fill="url(#paint10_radial_7159_2159)"/>
<path d="M16 26.988C23.9663 26.988 27.9471 21.6391 27.9471 15.0409C27.9471 8.44267 23.9663 3.09375 16 3.09375C8.03365 3.09375 4.05286 8.44267 4.05286 15.0409C4.05286 21.6391 8.03365 26.988 16 26.988Z" fill="url(#paint11_radial_7159_2159)"/>
<path d="M16 26.988C23.9663 26.988 27.9471 21.6391 27.9471 15.0409C27.9471 8.44267 23.9663 3.09375 16 3.09375C8.03365 3.09375 4.05286 8.44267 4.05286 15.0409C4.05286 21.6391 8.03365 26.988 16 26.988Z" fill="url(#paint12_radial_7159_2159)"/>
<path d="M16 26.988C23.9663 26.988 27.9471 21.6391 27.9471 15.0409C27.9471 8.44267 23.9663 3.09375 16 3.09375C8.03365 3.09375 4.05286 8.44267 4.05286 15.0409C4.05286 21.6391 8.03365 26.988 16 26.988Z" fill="url(#paint13_radial_7159_2159)"/>
<path d="M16 26.988C23.9663 26.988 27.9471 21.6391 27.9471 15.0409C27.9471 8.44267 23.9663 3.09375 16 3.09375C8.03365 3.09375 4.05286 8.44267 4.05286 15.0409C4.05286 21.6391 8.03365 26.988 16 26.988Z" fill="url(#paint14_radial_7159_2159)" fill-opacity="0.7"/>
<path d="M16 26.988C23.9663 26.988 27.9471 21.6391 27.9471 15.0409C27.9471 8.44267 23.9663 3.09375 16 3.09375C8.03365 3.09375 4.05286 8.44267 4.05286 15.0409C4.05286 21.6391 8.03365 26.988 16 26.988Z" fill="url(#paint15_radial_7159_2159)" fill-opacity="0.9"/>
<path d="M16 26.988C23.9663 26.988 27.9471 21.6391 27.9471 15.0409C27.9471 8.44267 23.9663 3.09375 16 3.09375C8.03365 3.09375 4.05286 8.44267 4.05286 15.0409C4.05286 21.6391 8.03365 26.988 16 26.988Z" fill="url(#paint16_radial_7159_2159)" fill-opacity="0.9"/>
<path d="M16 26.988C23.9663 26.988 27.9471 21.6391 27.9471 15.0409C27.9471 8.44267 23.9663 3.09375 16 3.09375C8.03365 3.09375 4.05286 8.44267 4.05286 15.0409C4.05286 21.6391 8.03365 26.988 16 26.988Z" fill="url(#paint17_radial_7159_2159)" fill-opacity="0.9"/>
<path d="M16 26.988C23.9663 26.988 27.9471 21.6391 27.9471 15.0409C27.9471 8.44267 23.9663 3.09375 16 3.09375C8.03365 3.09375 4.05286 8.44267 4.05286 15.0409C4.05286 21.6391 8.03365 26.988 16 26.988Z" fill="url(#paint18_radial_7159_2159)" fill-opacity="0.9"/>
<path d="M16 26.988C23.9663 26.988 27.9471 21.6391 27.9471 15.0409C27.9471 8.44267 23.9663 3.09375 16 3.09375C8.03365 3.09375 4.05286 8.44267 4.05286 15.0409C4.05286 21.6391 8.03365 26.988 16 26.988Z" fill="url(#paint19_radial_7159_2159)" fill-opacity="0.6"/>
<path d="M16 26.988C23.9663 26.988 27.9471 21.6391 27.9471 15.0409C27.9471 8.44267 23.9663 3.09375 16 3.09375C8.03365 3.09375 4.05286 8.44267 4.05286 15.0409C4.05286 21.6391 8.03365 26.988 16 26.988Z" fill="url(#paint20_radial_7159_2159)" fill-opacity="0.6"/>
<path d="M16 26.988C23.9663 26.988 27.9471 21.6391 27.9471 15.0409C27.9471 8.44267 23.9663 3.09375 16 3.09375C8.03365 3.09375 4.05286 8.44267 4.05286 15.0409C4.05286 21.6391 8.03365 26.988 16 26.988Z" fill="url(#paint21_radial_7159_2159)"/>
<path d="M20.3021 6.35205C22.6906 6.35205 24.6268 8.35977 24.6268 10.8364V10.9771C24.6268 12.5726 23.8232 13.9735 22.6128 14.7683C22.6689 15.1314 22.698 16.2538 22.698 16.6333C22.698 20.4993 19.6755 23.6333 15.9471 23.6333C12.2187 23.6333 9.19628 20.4993 9.19628 16.6333C9.19628 16.2538 9.2254 15.1314 9.28145 14.7683C8.07104 13.9735 7.26746 12.5726 7.26746 10.9771V10.8364C7.26746 8.35977 9.20372 6.35205 11.5922 6.35205H20.3021Z" fill="url(#paint22_linear_7159_2159)"/>
<path d="M20.3021 6.35205C22.6906 6.35205 24.6268 8.35977 24.6268 10.8364V10.9771C24.6268 12.5726 23.8232 13.9735 22.6128 14.7683C22.6689 15.1314 22.698 16.2538 22.698 16.6333C22.698 20.4993 19.6755 23.6333 15.9471 23.6333C12.2187 23.6333 9.19628 20.4993 9.19628 16.6333C9.19628 16.2538 9.2254 15.1314 9.28145 14.7683C8.07104 13.9735 7.26746 12.5726 7.26746 10.9771V10.8364C7.26746 8.35977 9.20372 6.35205 11.5922 6.35205H20.3021Z" fill="url(#paint23_radial_7159_2159)"/>
<path d="M20.3021 6.35205C22.6906 6.35205 24.6268 8.35977 24.6268 10.8364V10.9771C24.6268 12.5726 23.8232 13.9735 22.6128 14.7683C22.6689 15.1314 22.698 16.2538 22.698 16.6333C22.698 20.4993 19.6755 23.6333 15.9471 23.6333C12.2187 23.6333 9.19628 20.4993 9.19628 16.6333C9.19628 16.2538 9.2254 15.1314 9.28145 14.7683C8.07104 13.9735 7.26746 12.5726 7.26746 10.9771V10.8364C7.26746 8.35977 9.20372 6.35205 11.5922 6.35205H20.3021Z" fill="url(#paint24_radial_7159_2159)"/>
<path d="M14.3733 19.2505C14.418 20.1102 15.1292 20.7935 16 20.7935C16.8708 20.7935 17.582 20.1102 17.6266 19.2505H14.3733Z" fill="url(#paint25_radial_7159_2159)"/>
<path d="M8.7973 13.751C8.21728 14.4934 8.34891 15.5654 9.09131 16.1454C9.83371 16.7255 10.9058 16.5938 11.4858 15.8514L15.1078 11.2155C15.6878 10.4731 15.5562 9.40106 14.8138 8.82103C14.0714 8.241 12.9993 8.37263 12.4193 9.11503L8.7973 13.751Z" fill="url(#paint26_linear_7159_2159)"/>
<path d="M8.7973 13.751C8.21728 14.4934 8.34891 15.5654 9.09131 16.1454C9.83371 16.7255 10.9058 16.5938 11.4858 15.8514L15.1078 11.2155C15.6878 10.4731 15.5562 9.40106 14.8138 8.82103C14.0714 8.241 12.9993 8.37263 12.4193 9.11503L8.7973 13.751Z" fill="url(#paint27_radial_7159_2159)" fill-opacity="0.6"/>
<path d="M8.7973 13.751C8.21728 14.4934 8.34891 15.5654 9.09131 16.1454C9.83371 16.7255 10.9058 16.5938 11.4858 15.8514L15.1078 11.2155C15.6878 10.4731 15.5562 9.40106 14.8138 8.82103C14.0714 8.241 12.9993 8.37263 12.4193 9.11503L8.7973 13.751Z" fill="url(#paint28_radial_7159_2159)" fill-opacity="0.6"/>
<path d="M8.7973 13.751C8.21728 14.4934 8.34891 15.5654 9.09131 16.1454C9.83371 16.7255 10.9058 16.5938 11.4858 15.8514L15.1078 11.2155C15.6878 10.4731 15.5562 9.40106 14.8138 8.82103C14.0714 8.241 12.9993 8.37263 12.4193 9.11503L8.7973 13.751Z" fill="url(#paint29_linear_7159_2159)" fill-opacity="0.2"/>
<path d="M8.7973 13.751C8.21728 14.4934 8.34891 15.5654 9.09131 16.1454C9.83371 16.7255 10.9058 16.5938 11.4858 15.8514L15.1078 11.2155C15.6878 10.4731 15.5562 9.40106 14.8138 8.82103C14.0714 8.241 12.9993 8.37263 12.4193 9.11503L8.7973 13.751Z" fill="url(#paint30_radial_7159_2159)" fill-opacity="0.2"/>
<path d="M8.7973 13.751C8.21728 14.4934 8.34891 15.5654 9.09131 16.1454C9.83371 16.7255 10.9058 16.5938 11.4858 15.8514L15.1078 11.2155C15.6878 10.4731 15.5562 9.40106 14.8138 8.82103C14.0714 8.241 12.9993 8.37263 12.4193 9.11503L8.7973 13.751Z" fill="url(#paint31_radial_7159_2159)" fill-opacity="0.2"/>
<path d="M8.7973 13.751C8.21728 14.4934 8.34891 15.5654 9.09131 16.1454C9.83371 16.7255 10.9058 16.5938 11.4858 15.8514L15.1078 11.2155C15.6878 10.4731 15.5562 9.40106 14.8138 8.82103C14.0714 8.241 12.9993 8.37263 12.4193 9.11503L8.7973 13.751Z" fill="url(#paint32_radial_7159_2159)" fill-opacity="0.2"/>
<rect width="3.26915" height="9.29482" rx="1.63457" transform="matrix(0.969661 -0.244453 -0.244453 -0.969661 9.88745 20.2197)" fill="url(#paint33_linear_7159_2159)"/>
<rect width="3.26915" height="9.29482" rx="1.63457" transform="matrix(0.969661 -0.244453 -0.244453 -0.969661 9.88745 20.2197)" fill="url(#paint34_radial_7159_2159)"/>
<rect width="3.08094" height="9.29482" rx="1.54047" transform="matrix(0.788011 0.615662 0.615662 -0.788011 11.3408 18.2891)" fill="url(#paint35_radial_7159_2159)"/>
<rect width="3.08094" height="9.29482" rx="1.54047" transform="matrix(0.788011 0.615662 0.615662 -0.788011 11.3408 18.2891)" fill="url(#paint36_linear_7159_2159)"/>
<rect width="3.08094" height="9.29482" rx="1.54047" transform="matrix(0.788011 0.615662 0.615662 -0.788011 11.3408 18.2891)" fill="url(#paint37_linear_7159_2159)"/>
<path d="M10.7321 11.2744C10.9021 11.0568 11.2163 11.0182 11.4339 11.1882L12.3534 11.9066C15.291 14.2017 15.8119 18.4437 13.5167 21.3813L8.55094 27.7373C7.12 29.5688 4.47525 29.8935 2.64373 28.4626C0.812208 27.0316 0.487473 24.3869 1.91841 22.5554L10.7321 11.2744Z" fill="url(#paint38_linear_7159_2159)"/>
<path d="M10.7321 11.2744C10.9021 11.0568 11.2163 11.0182 11.4339 11.1882L12.3534 11.9066C15.291 14.2017 15.8119 18.4437 13.5167 21.3813L8.55094 27.7373C7.12 29.5688 4.47525 29.8935 2.64373 28.4626C0.812208 27.0316 0.487473 24.3869 1.91841 22.5554L10.7321 11.2744Z" fill="url(#paint39_radial_7159_2159)"/>
<path d="M10.7321 11.2744C10.9021 11.0568 11.2163 11.0182 11.4339 11.1882L12.3534 11.9066C15.291 14.2017 15.8119 18.4437 13.5167 21.3813L8.55094 27.7373C7.12 29.5688 4.47525 29.8935 2.64373 28.4626C0.812208 27.0316 0.487473 24.3869 1.91841 22.5554L10.7321 11.2744Z" fill="url(#paint40_linear_7159_2159)"/>
<path d="M10.7321 11.2744C10.9021 11.0568 11.2163 11.0182 11.4339 11.1882L12.3534 11.9066C15.291 14.2017 15.8119 18.4437 13.5167 21.3813L8.55094 27.7373C7.12 29.5688 4.47525 29.8935 2.64373 28.4626C0.812208 27.0316 0.487473 24.3869 1.91841 22.5554L10.7321 11.2744Z" fill="url(#paint41_radial_7159_2159)"/>
<path d="M10.7321 11.2744C10.9021 11.0568 11.2163 11.0182 11.4339 11.1882L12.3534 11.9066C15.291 14.2017 15.8119 18.4437 13.5167 21.3813L8.55094 27.7373C7.12 29.5688 4.47525 29.8935 2.64373 28.4626C0.812208 27.0316 0.487473 24.3869 1.91841 22.5554L10.7321 11.2744Z" fill="url(#paint42_radial_7159_2159)"/>
<path d="M10.7321 11.2744C10.9021 11.0568 11.2163 11.0182 11.4339 11.1882L12.3534 11.9066C15.291 14.2017 15.8119 18.4437 13.5167 21.3813L8.55094 27.7373C7.12 29.5688 4.47525 29.8935 2.64373 28.4626C0.812208 27.0316 0.487473 24.3869 1.91841 22.5554L10.7321 11.2744Z" fill="url(#paint43_radial_7159_2159)"/>
<path d="M10.7321 11.2744C10.9021 11.0568 11.2163 11.0182 11.4339 11.1882L12.3534 11.9066C15.291 14.2017 15.8119 18.4437 13.5167 21.3813L8.55094 27.7373C7.12 29.5688 4.47525 29.8935 2.64373 28.4626C0.812208 27.0316 0.487473 24.3869 1.91841 22.5554L10.7321 11.2744Z" fill="url(#paint44_radial_7159_2159)"/>
<rect x="16.7841" y="13.9204" width="2.89695" height="3.12119" rx="1.44848" transform="rotate(142 16.7841 13.9204)" fill="#5A3129"/>
<path d="M13.4899 13.1826C15.4033 15.5164 15.0357 18.1557 13.3779 20.2776L12.3124 21.6414L13.2355 13.5823L13.4899 13.1826Z" fill="url(#paint45_linear_7159_2159)"/>
<rect x="24.2529" y="15.0952" width="3.08094" height="9.29482" rx="1.54047" transform="rotate(142 24.2529 15.0952)" fill="url(#paint46_radial_7159_2159)"/>
<rect x="24.2529" y="15.0952" width="3.08094" height="9.29482" rx="1.54047" transform="rotate(142 24.2529 15.0952)" fill="url(#paint47_linear_7159_2159)"/>
<rect x="24.2529" y="15.0952" width="3.08094" height="9.29482" rx="1.54047" transform="rotate(142 24.2529 15.0952)" fill="url(#paint48_linear_7159_2159)"/>
<rect x="24.2529" y="15.0952" width="3.08094" height="9.29482" rx="1.54047" transform="rotate(142 24.2529 15.0952)" fill="url(#paint49_radial_7159_2159)"/>
<rect x="24.2529" y="15.0952" width="3.08094" height="9.29482" rx="1.54047" transform="rotate(142 24.2529 15.0952)" fill="url(#paint50_radial_7159_2159)"/>
<rect x="24.2529" y="15.0952" width="3.08094" height="9.29482" rx="1.54047" transform="rotate(142 24.2529 15.0952)" fill="url(#paint51_radial_7159_2159)"/>
<rect x="22.1125" y="20.2197" width="3.26915" height="9.29482" rx="1.63457" transform="rotate(-165.85 22.1125 20.2197)" fill="url(#paint52_linear_7159_2159)"/>
<rect x="22.1125" y="20.2197" width="3.26915" height="9.29482" rx="1.63457" transform="rotate(-165.85 22.1125 20.2197)" fill="url(#paint53_radial_7159_2159)"/>
<rect x="20.6592" y="18.2891" width="3.08094" height="9.29482" rx="1.54047" transform="rotate(142 20.6592 18.2891)" fill="url(#paint54_radial_7159_2159)"/>
<rect x="20.6592" y="18.2891" width="3.08094" height="9.29482" rx="1.54047" transform="rotate(142 20.6592 18.2891)" fill="url(#paint55_linear_7159_2159)"/>
<rect x="20.6592" y="18.2891" width="3.08094" height="9.29482" rx="1.54047" transform="rotate(142 20.6592 18.2891)" fill="url(#paint56_linear_7159_2159)"/>
<rect x="20.6592" y="18.2891" width="3.08094" height="9.29482" rx="1.54047" transform="rotate(142 20.6592 18.2891)" fill="url(#paint57_linear_7159_2159)"/>
<rect x="20.6592" y="18.2891" width="3.08094" height="9.29482" rx="1.54047" transform="rotate(142 20.6592 18.2891)" fill="url(#paint58_radial_7159_2159)" fill-opacity="0.7"/>
<rect x="20.6592" y="18.2891" width="3.08094" height="9.29482" rx="1.54047" transform="rotate(142 20.6592 18.2891)" fill="url(#paint59_radial_7159_2159)"/>
<rect x="22.1904" y="16.3921" width="2.9302" height="9.29482" rx="1.4651" transform="rotate(142 22.1904 16.3921)" fill="url(#paint60_radial_7159_2159)"/>
<rect x="22.1904" y="16.3921" width="2.9302" height="9.29482" rx="1.4651" transform="rotate(142 22.1904 16.3921)" fill="url(#paint61_linear_7159_2159)"/>
<rect x="22.1904" y="16.3921" width="2.9302" height="9.29482" rx="1.4651" transform="rotate(142 22.1904 16.3921)" fill="url(#paint62_radial_7159_2159)"/>
<rect x="22.1904" y="16.3921" width="2.9302" height="9.29482" rx="1.4651" transform="rotate(142 22.1904 16.3921)" fill="url(#paint63_radial_7159_2159)"/>
<rect x="22.1904" y="16.3921" width="2.9302" height="9.29482" rx="1.4651" transform="rotate(142 22.1904 16.3921)" fill="url(#paint64_radial_7159_2159)"/>
<path d="M21.2679 11.2744C21.0979 11.0568 20.7837 11.0182 20.5661 11.1882L19.6466 11.9066C16.709 14.2017 16.1881 18.4437 18.4833 21.3813L23.4491 27.7373C24.88 29.5688 27.5247 29.8935 29.3563 28.4626C31.1878 27.0316 31.5125 24.3869 30.0816 22.5554L21.2679 11.2744Z" fill="url(#paint65_linear_7159_2159)"/>
<path d="M21.2679 11.2744C21.0979 11.0568 20.7837 11.0182 20.5661 11.1882L19.6466 11.9066C16.709 14.2017 16.1881 18.4437 18.4833 21.3813L23.4491 27.7373C24.88 29.5688 27.5247 29.8935 29.3563 28.4626C31.1878 27.0316 31.5125 24.3869 30.0816 22.5554L21.2679 11.2744Z" fill="url(#paint66_linear_7159_2159)"/>
<path d="M21.2679 11.2744C21.0979 11.0568 20.7837 11.0182 20.5661 11.1882L19.6466 11.9066C16.709 14.2017 16.1881 18.4437 18.4833 21.3813L23.4491 27.7373C24.88 29.5688 27.5247 29.8935 29.3563 28.4626C31.1878 27.0316 31.5125 24.3869 30.0816 22.5554L21.2679 11.2744Z" fill="url(#paint67_radial_7159_2159)"/>
<path d="M21.2679 11.2744C21.0979 11.0568 20.7837 11.0182 20.5661 11.1882L19.6466 11.9066C16.709 14.2017 16.1881 18.4437 18.4833 21.3813L23.4491 27.7373C24.88 29.5688 27.5247 29.8935 29.3563 28.4626C31.1878 27.0316 31.5125 24.3869 30.0816 22.5554L21.2679 11.2744Z" fill="url(#paint68_radial_7159_2159)"/>
<path d="M21.2679 11.2744C21.0979 11.0568 20.7837 11.0182 20.5661 11.1882L19.6466 11.9066C16.709 14.2017 16.1881 18.4437 18.4833 21.3813L23.4491 27.7373C24.88 29.5688 27.5247 29.8935 29.3563 28.4626C31.1878 27.0316 31.5125 24.3869 30.0816 22.5554L21.2679 11.2744Z" fill="url(#paint69_radial_7159_2159)"/>
<path d="M21.2679 11.2744C21.0979 11.0568 20.7837 11.0182 20.5661 11.1882L19.6466 11.9066C16.709 14.2017 16.1881 18.4437 18.4833 21.3813L23.4491 27.7373C24.88 29.5688 27.5247 29.8935 29.3563 28.4626C31.1878 27.0316 31.5125 24.3869 30.0816 22.5554L21.2679 11.2744Z" fill="url(#paint70_linear_7159_2159)"/>
<path d="M21.2679 11.2744C21.0979 11.0568 20.7837 11.0182 20.5661 11.1882L19.6466 11.9066C16.709 14.2017 16.1881 18.4437 18.4833 21.3813L23.4491 27.7373C24.88 29.5688 27.5247 29.8935 29.3563 28.4626C31.1878 27.0316 31.5125 24.3869 30.0816 22.5554L21.2679 11.2744Z" fill="url(#paint71_radial_7159_2159)"/>
<path d="M21.2679 11.2744C21.0979 11.0568 20.7837 11.0182 20.5661 11.1882L19.6466 11.9066C16.709 14.2017 16.1881 18.4437 18.4833 21.3813L23.4491 27.7373C24.88 29.5688 27.5247 29.8935 29.3563 28.4626C31.1878 27.0316 31.5125 24.3869 30.0816 22.5554L21.2679 11.2744Z" fill="url(#paint72_radial_7159_2159)"/>
<path d="M21.2679 11.2744C21.0979 11.0568 20.7837 11.0182 20.5661 11.1882L19.6466 11.9066C16.709 14.2017 16.1881 18.4437 18.4833 21.3813L23.4491 27.7373C24.88 29.5688 27.5247 29.8935 29.3563 28.4626C31.1878 27.0316 31.5125 24.3869 30.0816 22.5554L21.2679 11.2744Z" fill="url(#paint73_radial_7159_2159)"/>
<path opacity="0.5" d="M21.5721 11.6337L21.2679 11.2747C21.0979 11.0571 20.7836 11.0185 20.566 11.1885L19.6466 11.9069C17.4935 13.5891 16.6387 16.3171 17.2393 18.8109C17.2393 16.8993 18.0379 14.7098 19.2284 13.3524C19.856 12.6369 20.8221 11.9069 21.5721 11.6337Z" fill="url(#paint74_linear_7159_2159)"/>
</g>
<defs>
<linearGradient id="paint0_linear_7159_2159" x1="6.51558" y1="10.8208" x2="6.51558" y2="21.7583" gradientUnits="userSpaceOnUse">
<stop stop-color="#A67874"/>
<stop offset="1" stop-color="#8F5872"/>
</linearGradient>
<linearGradient id="paint1_linear_7159_2159" x1="6.51558" y1="14.0708" x2="6.51558" y2="22.2583" gradientUnits="userSpaceOnUse">
<stop stop-color="#B56595" stop-opacity="0"/>
<stop offset="1" stop-color="#CA6FA6"/>
</linearGradient>
<radialGradient id="paint2_radial_7159_2159" cx="0" cy="0" r="1" gradientUnits="userSpaceOnUse" gradientTransform="translate(10.3847 20.6958) rotate(-135.32) scale(15.8218 18.8849)">
<stop offset="0.631933" stop-color="#F39585" stop-opacity="0"/>
<stop offset="1" stop-color="#F39585"/>
</radialGradient>
<linearGradient id="paint3_linear_7159_2159" x1="25.4845" y1="12.0083" x2="25.4845" y2="22.2583" gradientUnits="userSpaceOnUse">
<stop offset="0.09375" stop-color="#FAB8A9"/>
<stop offset="1" stop-color="#B56595"/>
</linearGradient>
<radialGradient id="paint4_radial_7159_2159" cx="0" cy="0" r="1" gradientUnits="userSpaceOnUse" gradientTransform="translate(25.5678 14.5195) scale(5.42766 5.51414)">
<stop offset="0.797219" stop-color="#FFDACC" stop-opacity="0"/>
<stop offset="0.832507" stop-color="#FFDACC" stop-opacity="0.145818"/>
<stop offset="0.870455" stop-color="#FFDACC" stop-opacity="0.54"/>
<stop offset="0.890604" stop-color="#FFDACC" stop-opacity="0.64"/>
<stop offset="0.935178" stop-color="#FFDACC" stop-opacity="0.361887"/>
<stop offset="1" stop-color="#FFDACC" stop-opacity="0"/>
</radialGradient>
<radialGradient id="paint5_radial_7159_2159" cx="0" cy="0" r="1" gradientUnits="userSpaceOnUse" gradientTransform="translate(27.3653 9.98711) rotate(37.0519) scale(2.56759 2.6085)">
<stop offset="0.40048" stop-color="#FAB8A9"/>
<stop offset="1" stop-color="#FAB8A9" stop-opacity="0"/>
</radialGradient>
<radialGradient id="paint6_radial_7159_2159" cx="0" cy="0" r="1" gradientUnits="userSpaceOnUse" gradientTransform="translate(27.382 19.7364) rotate(-90) scale(7.54219 13.8906)">
<stop stop-color="#B56595"/>
<stop offset="0.619388" stop-color="#FAB8A9" stop-opacity="0.46"/>
<stop offset="1" stop-color="#FAB8A9" stop-opacity="0"/>
</radialGradient>
<radialGradient id="paint7_radial_7159_2159" cx="0" cy="0" r="1" gradientUnits="userSpaceOnUse" gradientTransform="translate(24.2596 8.57111) rotate(120.705) scale(21.4199 37.9602)">
<stop stop-color="#A06857"/>
<stop offset="1" stop-color="#5B3838"/>
</radialGradient>
<linearGradient id="paint8_linear_7159_2159" x1="16" y1="15.0409" x2="16" y2="31.8983" gradientUnits="userSpaceOnUse">
<stop stop-color="#682B5B" stop-opacity="0"/>
<stop offset="1" stop-color="#682B5B"/>
</linearGradient>
<radialGradient id="paint9_radial_7159_2159" cx="0" cy="0" r="1" gradientUnits="userSpaceOnUse" gradientTransform="translate(16.0009 12.0548) rotate(90) scale(20.6725 18.4611)">
<stop offset="0.688473" stop-color="#FF7AF2" stop-opacity="0"/>
<stop offset="1" stop-color="#FFBCE6"/>
</radialGradient>
<radialGradient id="paint10_radial_7159_2159" cx="0" cy="0" r="1" gradientUnits="userSpaceOnUse" gradientTransform="translate(24.6875 6.7088) rotate(126.103) scale(14.0013)">
<stop stop-color="#AC7463"/>
<stop offset="1" stop-color="#AC7463" stop-opacity="0"/>
</radialGradient>
<radialGradient id="paint11_radial_7159_2159" cx="0" cy="0" r="1" gradientUnits="userSpaceOnUse" gradientTransform="translate(16 5.11241) rotate(90) scale(1.68591 5.11269)">
<stop stop-color="#C58E7D" stop-opacity="0.37"/>
<stop offset="1" stop-color="#C58E7D" stop-opacity="0"/>
</radialGradient>
<radialGradient id="paint12_radial_7159_2159" cx="0" cy="0" r="1" gradientUnits="userSpaceOnUse" gradientTransform="translate(23.9136 10.0252) rotate(148.173) scale(2.86548 4.8853)">
<stop stop-color="#C58E7D"/>
<stop offset="1" stop-color="#C58E7D" stop-opacity="0"/>
</radialGradient>
<radialGradient id="paint13_radial_7159_2159" cx="0" cy="0" r="1" gradientUnits="userSpaceOnUse" gradientTransform="translate(18.1208 16.8254) rotate(9.41638) scale(6.29445 6.73342)">
<stop stop-color="#561E25"/>
<stop offset="0.81987" stop-color="#561E25" stop-opacity="0.772953"/>
<stop offset="0.937522" stop-color="#561E25" stop-opacity="0.15"/>
<stop offset="1" stop-color="#561E25" stop-opacity="0"/>
</radialGradient>
<radialGradient id="paint14_radial_7159_2159" cx="0" cy="0" r="1" gradientUnits="userSpaceOnUse" gradientTransform="translate(19.8811 11.3797) rotate(-30.3723) scale(5.91562 5.83017)">
<stop offset="0.516939" stop-color="#561E25"/>
<stop offset="0.859613" stop-color="#561E25" stop-opacity="0.360608"/>
<stop offset="0.933857" stop-color="#561E25" stop-opacity="0.08"/>
<stop offset="1" stop-color="#561E25" stop-opacity="0"/>
</radialGradient>
<radialGradient id="paint15_radial_7159_2159" cx="0" cy="0" r="1" gradientUnits="userSpaceOnUse" gradientTransform="translate(12.5286 11.7543) rotate(-152.736) scale(6.7663 6.02383)">
<stop stop-color="#561E25"/>
<stop offset="0.516939" stop-color="#561E25"/>
<stop offset="0.859613" stop-color="#561E25" stop-opacity="0.360608"/>
<stop offset="0.933857" stop-color="#561E25" stop-opacity="0.08"/>
<stop offset="1" stop-color="#561E25" stop-opacity="0"/>
</radialGradient>
<radialGradient id="paint16_radial_7159_2159" cx="0" cy="0" r="1" gradientUnits="userSpaceOnUse" gradientTransform="translate(14.0453 16.8038) rotate(-170.806) scale(6.99197 6.22474)">
<stop stop-color="#561E25"/>
<stop offset="0.71204" stop-color="#561E25"/>
<stop offset="0.859613" stop-color="#561E25" stop-opacity="0.360608"/>
<stop offset="0.933857" stop-color="#561E25" stop-opacity="0.08"/>
<stop offset="1" stop-color="#561E25" stop-opacity="0"/>
</radialGradient>
<radialGradient id="paint17_radial_7159_2159" cx="0" cy="0" r="1" gradientUnits="userSpaceOnUse" gradientTransform="translate(13.5425 7.90396) rotate(-97.0986) scale(2.19086 6.71421)">
<stop stop-color="#561E25"/>
<stop offset="0.288031" stop-color="#561E25"/>
<stop offset="0.696768" stop-color="#561E25" stop-opacity="0.360608"/>
<stop offset="0.864532" stop-color="#561E25" stop-opacity="0.08"/>
<stop offset="1" stop-color="#561E25" stop-opacity="0"/>
</radialGradient>
<radialGradient id="paint18_radial_7159_2159" cx="0" cy="0" r="1" gradientUnits="userSpaceOnUse" gradientTransform="translate(17.4017 7.15608) rotate(-93.1798) scale(1.37656 5.48966)">
<stop stop-color="#561E25"/>
<stop offset="0.288031" stop-color="#561E25"/>
<stop offset="0.458489" stop-color="#561E25" stop-opacity="0.360608"/>
<stop offset="0.715756" stop-color="#561E25" stop-opacity="0.08"/>
<stop offset="0.886281" stop-color="#561E25" stop-opacity="0"/>
</radialGradient>
<radialGradient id="paint19_radial_7159_2159" cx="0" cy="0" r="1" gradientUnits="userSpaceOnUse" gradientTransform="translate(26.3689 19.6716) rotate(-159.017) scale(0.456821 2.80867)">
<stop stop-color="#BE8B89" stop-opacity="0.47"/>
<stop offset="0.330257" stop-color="#BE8B89" stop-opacity="0.296875"/>
<stop offset="0.584427" stop-color="#BE8B89" stop-opacity="0.0890625"/>
<stop offset="0.848958" stop-color="#BE8B89" stop-opacity="0"/>
</radialGradient>
<radialGradient id="paint20_radial_7159_2159" cx="0" cy="0" r="1" gradientUnits="userSpaceOnUse" gradientTransform="translate(27.0758 17.2139) rotate(-169.695) scale(0.506882 3.54412)">
<stop stop-color="#BE8B89" stop-opacity="0.47"/>
<stop offset="0.310294" stop-color="#BE8B89" stop-opacity="0.296875"/>
<stop offset="0.570887" stop-color="#BE8B89" stop-opacity="0.0890625"/>
<stop offset="0.848958" stop-color="#BE8B89" stop-opacity="0"/>
</radialGradient>
<radialGradient id="paint21_radial_7159_2159" cx="0" cy="0" r="1" gradientUnits="userSpaceOnUse" gradientTransform="translate(29.1526 16.2187) rotate(-172.718) scale(25.9371 19.6222)">
<stop offset="0.883457" stop-color="#7C6160" stop-opacity="0"/>
<stop offset="0.923614" stop-color="#7C6160" stop-opacity="0.220375"/>
<stop offset="0.941875" stop-color="#7C6160" stop-opacity="0.45"/>
<stop offset="0.952019" stop-color="#7C6160" stop-opacity="0.4"/>
<stop offset="0.972307" stop-color="#7C6160" stop-opacity="0"/>
</radialGradient>
<linearGradient id="paint22_linear_7159_2159" x1="17.265" y1="9.70319" x2="15.9471" y2="19.0708" gradientUnits="userSpaceOnUse">
<stop stop-color="#FAB8A9"/>
<stop offset="1" stop-color="#AC628E"/>
</linearGradient>
<radialGradient id="paint23_radial_7159_2159" cx="0" cy="0" r="1" gradientUnits="userSpaceOnUse" gradientTransform="translate(9.13507 14.6548) rotate(-101.023) scale(4.34913 4.76199)">
<stop offset="0.244792" stop-color="#8F5E52"/>
<stop offset="1" stop-color="#BB6F89" stop-opacity="0"/>
</radialGradient>
<radialGradient id="paint24_radial_7159_2159" cx="0" cy="0" r="1" gradientUnits="userSpaceOnUse" gradientTransform="translate(12.6832 12.9916) rotate(-121.088) scale(4.40216 4.82006)">
<stop offset="0.244792" stop-color="#C8877A"/>
<stop offset="1" stop-color="#BB6F89" stop-opacity="0"/>
</radialGradient>
<radialGradient id="paint25_radial_7159_2159" cx="0" cy="0" r="1" gradientUnits="userSpaceOnUse" gradientTransform="translate(16 21.1364) rotate(-90) scale(3.28431 6.76451)">
<stop stop-color="#89029C"/>
<stop offset="1" stop-color="#F70A8D"/>
</radialGradient>
<linearGradient id="paint26_linear_7159_2159" x1="13.4582" y1="12.0075" x2="10.6188" y2="11.7669" gradientUnits="userSpaceOnUse">
<stop stop-color="#F9B4A9"/>
<stop offset="1" stop-color="#D19788"/>
</linearGradient>
<radialGradient id="paint27_radial_7159_2159" cx="0" cy="0" r="1" gradientTransform="matrix(-1.16922 -2.10096 -4.01023 1.83708 13.3761 12.3603)" gradientUnits="userSpaceOnUse">
<stop stop-color="#C27F6F"/>
<stop offset="1" stop-color="#C27F6F" stop-opacity="0"/>
</radialGradient>
<radialGradient id="paint28_radial_7159_2159" cx="0" cy="0" r="1" gradientTransform="matrix(-1.16922 -2.10096 -4.01023 1.83708 13.3761 12.3603)" gradientUnits="userSpaceOnUse">
<stop stop-color="#C27F6F"/>
<stop offset="1" stop-color="#C27F6F" stop-opacity="0"/>
</radialGradient>
<linearGradient id="paint29_linear_7159_2159" x1="11.6867" y1="10.5243" x2="13.0796" y2="10.9144" gradientUnits="userSpaceOnUse">
<stop stop-color="#C68778"/>
<stop offset="1" stop-color="#CC8A78" stop-opacity="0"/>
</linearGradient>
<radialGradient id="paint30_radial_7159_2159" cx="0" cy="0" r="1" gradientUnits="userSpaceOnUse" gradientTransform="translate(14.1914 9.77673) rotate(127.569) scale(1.4507 0.753931)">
<stop offset="0.239583" stop-color="#FFD7CC"/>
<stop offset="1" stop-color="#FFC9B9" stop-opacity="0"/>
</radialGradient>
<radialGradient id="paint31_radial_7159_2159" cx="0" cy="0" r="1" gradientUnits="userSpaceOnUse" gradientTransform="translate(15.1134 9.27066) rotate(144.372) scale(2.0565 2.13047)">
<stop offset="0.239583" stop-color="white"/>
<stop offset="1" stop-color="#FFD5C9" stop-opacity="0"/>
</radialGradient>
<radialGradient id="paint32_radial_7159_2159" cx="0" cy="0" r="1" gradientUnits="userSpaceOnUse" gradientTransform="translate(15.3084 9.40996) rotate(159.044) scale(1.40213 1.79404)">
<stop offset="0.239583" stop-color="white"/>
<stop offset="1" stop-color="#FFD5C9" stop-opacity="0"/>
</radialGradient>
<linearGradient id="paint33_linear_7159_2159" x1="1.76687" y1="8.10548" x2="0.985182" y2="5.24471" gradientUnits="userSpaceOnUse">
<stop stop-color="#EDADA3"/>
<stop offset="0.830888" stop-color="#C27F74"/>
</linearGradient>
<radialGradient id="paint34_radial_7159_2159" cx="0" cy="0" r="1" gradientUnits="userSpaceOnUse" gradientTransform="translate(1.92616 7.79832) rotate(133.839) scale(1.17987 0.886628)">
<stop stop-color="#F2B9AD"/>
<stop offset="1" stop-color="#F2B9AD" stop-opacity="0"/>
</radialGradient>
<radialGradient id="paint35_radial_7159_2159" cx="0" cy="0" r="1" gradientUnits="userSpaceOnUse" gradientTransform="translate(-0.512222 5.90408) rotate(-33.3154) scale(4.53594 17.2465)">
<stop stop-color="#F9B4A9"/>
<stop offset="0.664238" stop-color="#D79D95"/>
</radialGradient>
<linearGradient id="paint36_linear_7159_2159" x1="5.50577" y1="2.51586" x2="0.850031" y2="5.19699" gradientUnits="userSpaceOnUse">
<stop offset="0.386002" stop-color="#CF6ABA"/>
<stop offset="1" stop-color="#DC90CC" stop-opacity="0"/>
</linearGradient>
<linearGradient id="paint37_linear_7159_2159" x1="3.60876" y1="5.19772" x2="2.20509" y2="5.37007" gradientUnits="userSpaceOnUse">
<stop stop-color="#AA6C64"/>
<stop offset="1" stop-color="#D79D95" stop-opacity="0"/>
</linearGradient>
<linearGradient id="paint38_linear_7159_2159" x1="3.49396" y1="13.6112" x2="6.77341" y2="20.8474" gradientUnits="userSpaceOnUse">
<stop stop-color="#A06857"/>
<stop offset="1" stop-color="#6B423E"/>
</linearGradient>
<radialGradient id="paint39_radial_7159_2159" cx="0" cy="0" r="1" gradientUnits="userSpaceOnUse" gradientTransform="translate(6.42783 31.0535) rotate(-83.6359) scale(10.1491 9.53377)">
<stop offset="0.114152" stop-color="#7A326B"/>
<stop offset="1" stop-color="#682B5B" stop-opacity="0"/>
</radialGradient>
<linearGradient id="paint40_linear_7159_2159" x1="12.7782" y1="25.7998" x2="5.53797" y2="20.4475" gradientUnits="userSpaceOnUse">
<stop offset="0.114152" stop-color="#923A7F"/>
<stop offset="1" stop-color="#682B5B" stop-opacity="0"/>
</linearGradient>
<radialGradient id="paint41_radial_7159_2159" cx="0" cy="0" r="1" gradientTransform="matrix(5.20627 -3.68871 1.31925 5.68711 1.03884 27.1888)" gradientUnits="userSpaceOnUse">
<stop offset="0.114152" stop-color="#5A383A"/>
<stop offset="1" stop-color="#5A383A" stop-opacity="0"/>
</radialGradient>
<radialGradient id="paint42_radial_7159_2159" cx="0" cy="0" r="1" gradientUnits="userSpaceOnUse" gradientTransform="translate(4.27158 18.6646) rotate(34.5144) scale(3.47459 27.8317)">
<stop stop-color="#AC928F"/>
<stop offset="0.437083" stop-color="#705C5A" stop-opacity="0"/>
</radialGradient>
<radialGradient id="paint43_radial_7159_2159" cx="0" cy="0" r="1" gradientUnits="userSpaceOnUse" gradientTransform="translate(12.5528 24.2584) rotate(-139.274) scale(5.74761 42.7759)">
<stop stop-color="#915D88"/>
<stop offset="0.34375" stop-color="#7F5575" stop-opacity="0"/>
</radialGradient>
<radialGradient id="paint44_radial_7159_2159" cx="0" cy="0" r="1" gradientTransform="matrix(-8.66939 10.8105 -2.88871 -2.35266 8.49996 20.9669)" gradientUnits="userSpaceOnUse">
<stop stop-color="#BC938F" stop-opacity="0.39"/>
<stop offset="0.197917" stop-color="#BC938F" stop-opacity="0.33"/>
<stop offset="0.505623" stop-color="#BC938F" stop-opacity="0.157678"/>
<stop offset="0.671749" stop-color="#BC938F" stop-opacity="0.0504299"/>
<stop offset="0.839493" stop-color="#BC938F" stop-opacity="0"/>
</radialGradient>
<linearGradient id="paint45_linear_7159_2159" x1="16.9189" y1="13.282" x2="15.53" y2="18.4841" gradientUnits="userSpaceOnUse">
<stop offset="0.114152" stop-color="#732863"/>
<stop offset="1" stop-color="#713263" stop-opacity="0"/>
</linearGradient>
<radialGradient id="paint46_radial_7159_2159" cx="0" cy="0" r="1" gradientUnits="userSpaceOnUse" gradientTransform="translate(24.7206 20.1707) rotate(59.0131) scale(5.27251 20.0471)">
<stop offset="0.239583" stop-color="#FBBEAB"/>
<stop offset="0.90625" stop-color="#D79D95"/>
</radialGradient>
<linearGradient id="paint47_linear_7159_2159" x1="27.6721" y1="19.7843" x2="24.9306" y2="21.6092" gradientUnits="userSpaceOnUse">
<stop offset="0.259327" stop-color="#DC90CC"/>
<stop offset="1" stop-color="#DC90CC" stop-opacity="0"/>
</linearGradient>
<linearGradient id="paint48_linear_7159_2159" x1="27.7518" y1="20.1992" x2="26.2304" y2="20.3193" gradientUnits="userSpaceOnUse">
<stop stop-color="#AA6C64"/>
<stop offset="1" stop-color="#D79D95" stop-opacity="0"/>
</linearGradient>
<radialGradient id="paint49_radial_7159_2159" cx="0" cy="0" r="1" gradientUnits="userSpaceOnUse" gradientTransform="translate(25.1331 21.6188) rotate(93.4516) scale(2.06328 1.06204)">
<stop stop-color="#FFD5C9" stop-opacity="0.71"/>
<stop offset="0.392144" stop-color="#FFD5C9" stop-opacity="0.453685"/>
<stop offset="0.635669" stop-color="#FFD5C9" stop-opacity="0.204075"/>
<stop offset="1" stop-color="#FFD5C9" stop-opacity="0"/>
</radialGradient>
<radialGradient id="paint50_radial_7159_2159" cx="0" cy="0" r="1" gradientUnits="userSpaceOnUse" gradientTransform="translate(25.2826 22.5134) rotate(-94.5104) scale(0.907034 0.898477)">
<stop stop-color="#FFD5C9" stop-opacity="0.34"/>
<stop offset="0.320987" stop-color="#FFD5C9" stop-opacity="0.32"/>
<stop offset="0.516925" stop-color="#FFD5C9" stop-opacity="0.204075"/>
<stop offset="1" stop-color="#FFD5C9" stop-opacity="0"/>
</radialGradient>
<radialGradient id="paint51_radial_7159_2159" cx="0" cy="0" r="1" gradientTransform="matrix(-3.4302 -0.112027 -0.0115825 -1.70895 26.3438 19.8201)" gradientUnits="userSpaceOnUse">
<stop stop-color="#B16962"/>
<stop offset="0.667102" stop-color="#B16962" stop-opacity="0.239583"/>
<stop offset="0.777481" stop-color="#B16962" stop-opacity="0.121418"/>
<stop offset="0.965366" stop-color="#B16962" stop-opacity="0"/>
</radialGradient>
<linearGradient id="paint52_linear_7159_2159" x1="22.688" y1="27.6959" x2="24.7457" y2="28.2134" gradientUnits="userSpaceOnUse">
<stop stop-color="#FFC5B7"/>
<stop offset="0.75552" stop-color="#FFBBA3"/>
</linearGradient>
<radialGradient id="paint53_radial_7159_2159" cx="0" cy="0" r="1" gradientUnits="userSpaceOnUse" gradientTransform="translate(23.1781 28.2943) rotate(-90.4029) scale(0.939339 0.892969)">
<stop stop-color="#FFD5C9"/>
<stop offset="0.46976" stop-color="#FFD5C9" stop-opacity="0.709648"/>
<stop offset="1" stop-color="#FFD5C9" stop-opacity="0"/>
</radialGradient>
<radialGradient id="paint54_radial_7159_2159" cx="0" cy="0" r="1" gradientUnits="userSpaceOnUse" gradientTransform="translate(22.0375 23.1441) rotate(73.4879) scale(4.23632 16.1073)">
<stop stop-color="#F9B4A9"/>
<stop offset="1" stop-color="#D79D95"/>
</radialGradient>
<linearGradient id="paint55_linear_7159_2159" x1="27.2146" y1="21.0036" x2="19.6167" y2="24.7354" gradientUnits="userSpaceOnUse">
<stop offset="0.386002" stop-color="#CF6ABA"/>
<stop offset="1" stop-color="#DC90CC" stop-opacity="0"/>
</linearGradient>
<linearGradient id="paint56_linear_7159_2159" x1="24.4829" y1="23.5357" x2="21.6585" y2="23.6292" gradientUnits="userSpaceOnUse">
<stop stop-color="#AA6C64"/>
<stop offset="1" stop-color="#D79D95" stop-opacity="0"/>
</linearGradient>
<linearGradient id="paint57_linear_7159_2159" x1="20.9625" y1="23.4225" x2="22.0134" y2="23.5495" gradientUnits="userSpaceOnUse">
<stop stop-color="#AA6C64"/>
<stop offset="1" stop-color="#D79D95" stop-opacity="0"/>
</linearGradient>
<radialGradient id="paint58_radial_7159_2159" cx="0" cy="0" r="1" gradientUnits="userSpaceOnUse" gradientTransform="translate(21.8616 23.4172) rotate(90.107) scale(3.81987 0.482298)">
<stop stop-color="#FFD5C9" stop-opacity="0.37"/>
<stop offset="0.279508" stop-color="#FFD5C9" stop-opacity="0.31"/>
<stop offset="0.479374" stop-color="#FFD5C9" stop-opacity="0.21"/>
<stop offset="1" stop-color="#FFD5C9" stop-opacity="0"/>
</radialGradient>
<radialGradient id="paint59_radial_7159_2159" cx="0" cy="0" r="1" gradientTransform="matrix(-2.53877 2.01939 -1.05461 -1.22357 22.0764 21.686)" gradientUnits="userSpaceOnUse">
<stop stop-color="#B16962"/>
<stop offset="0.767383" stop-color="#B16962" stop-opacity="0.239583"/>
<stop offset="1" stop-color="#B16962" stop-opacity="0"/>
</radialGradient>
<radialGradient id="paint60_radial_7159_2159" cx="0" cy="0" r="1" gradientTransform="matrix(0.496213 6.35615 -22.9849 1.98376 23.5013 21.2471)" gradientUnits="userSpaceOnUse">
<stop stop-color="#F9B4A9"/>
<stop offset="1" stop-color="#D79D95"/>
</radialGradient>
<linearGradient id="paint61_linear_7159_2159" x1="30.1127" y1="20.1349" x2="22.6704" y2="20.9092" gradientUnits="userSpaceOnUse">
<stop offset="0.259327" stop-color="#DC90CC"/>
<stop offset="1" stop-color="#DC90CC" stop-opacity="0"/>
</linearGradient>
<radialGradient id="paint62_radial_7159_2159" cx="0" cy="0" r="1" gradientUnits="userSpaceOnUse" gradientTransform="translate(23.2751 22.5317) rotate(90.7568) scale(1.89966 0.749505)">
<stop stop-color="#FFD5C9" stop-opacity="0.33"/>
<stop offset="0.443042" stop-color="#FFD5C9" stop-opacity="0.22"/>
<stop offset="1" stop-color="#FFD5C9" stop-opacity="0"/>
</radialGradient>
<radialGradient id="paint63_radial_7159_2159" cx="0" cy="0" r="1" gradientUnits="userSpaceOnUse" gradientTransform="translate(23.3172 23.7608) rotate(90.8074) scale(1.29793 0.729608)">
<stop stop-color="#FFD5C9" stop-opacity="0.28"/>
<stop offset="0.420953" stop-color="#FFD5C9" stop-opacity="0.24"/>
<stop offset="1" stop-color="#FFD5C9" stop-opacity="0"/>
</radialGradient>
<radialGradient id="paint64_radial_7159_2159" cx="0" cy="0" r="1" gradientUnits="userSpaceOnUse" gradientTransform="translate(23.8447 20.4869) rotate(154.095) scale(3.02491 1.55369)">
<stop stop-color="#B16962"/>
<stop offset="0.68962" stop-color="#B16962" stop-opacity="0.239583"/>
<stop offset="0.824824" stop-color="#B16962" stop-opacity="0.129909"/>
<stop offset="1" stop-color="#B16962" stop-opacity="0"/>
</radialGradient>
<linearGradient id="paint65_linear_7159_2159" x1="27.9472" y1="19.5709" x2="23.5946" y2="23.0446" gradientUnits="userSpaceOnUse">
<stop stop-color="#A06857"/>
<stop offset="1" stop-color="#6B423E"/>
</linearGradient>
<linearGradient id="paint66_linear_7159_2159" x1="16.5722" y1="26.8209" x2="26.3222" y2="20.2584" gradientUnits="userSpaceOnUse">
<stop offset="0.114152" stop-color="#923A7F"/>
<stop offset="1" stop-color="#682B5B" stop-opacity="0"/>
</linearGradient>
<radialGradient id="paint67_radial_7159_2159" cx="0" cy="0" r="1" gradientUnits="userSpaceOnUse" gradientTransform="translate(25.5722 31.0535) rotate(-96.3641) scale(10.1491 9.53377)">
<stop offset="0.114152" stop-color="#7A326B"/>
<stop offset="1" stop-color="#682B5B" stop-opacity="0"/>
</radialGradient>
<radialGradient id="paint68_radial_7159_2159" cx="0" cy="0" r="1" gradientUnits="userSpaceOnUse" gradientTransform="translate(27.7284 18.6646) rotate(145.486) scale(3.47459 27.8317)">
<stop stop-color="#AC928F"/>
<stop offset="0.437083" stop-color="#705C5A" stop-opacity="0"/>
</radialGradient>
<radialGradient id="paint69_radial_7159_2159" cx="0" cy="0" r="1" gradientUnits="userSpaceOnUse" gradientTransform="translate(19.4472 24.2584) rotate(-40.7262) scale(5.74761 42.7759)">
<stop stop-color="#915D88"/>
<stop offset="0.34375" stop-color="#7F5575" stop-opacity="0"/>
</radialGradient>
<linearGradient id="paint70_linear_7159_2159" x1="26.471" y1="17.9128" x2="19.819" y2="23.1492" gradientUnits="userSpaceOnUse">
<stop stop-color="#BC938F" stop-opacity="0"/>
<stop offset="0.15828" stop-color="#BC938F" stop-opacity="0.427393"/>
<stop offset="0.258775" stop-color="#BC938F" stop-opacity="0.57"/>
<stop offset="0.334989" stop-color="#BC938F" stop-opacity="0.53"/>
<stop offset="0.395612" stop-color="#BC938F" stop-opacity="0.46"/>
<stop offset="0.579372" stop-color="#BC938F" stop-opacity="0.15"/>
<stop offset="0.732552" stop-color="#BC938F" stop-opacity="0"/>
<stop offset="1" stop-color="#BC938F" stop-opacity="0"/>
</linearGradient>
<radialGradient id="paint71_radial_7159_2159" cx="0" cy="0" r="1" gradientTransform="matrix(-4.50893 -1.39263 -0.609201 8.68131 32.2938 27.3904)" gradientUnits="userSpaceOnUse">
<stop stop-color="#6B423E"/>
<stop offset="0.714452" stop-color="#6B423E" stop-opacity="0.212034"/>
<stop offset="1" stop-color="#6B423E" stop-opacity="0"/>
</radialGradient>
<radialGradient id="paint72_radial_7159_2159" cx="0" cy="0" r="1" gradientTransform="matrix(-3.02779 -2.49794 -5.27625 8.263 30.2264 29.003)" gradientUnits="userSpaceOnUse">
<stop stop-color="#6B423E"/>
<stop offset="0.651869" stop-color="#6B423E" stop-opacity="0.253173"/>
<stop offset="1" stop-color="#6B423E" stop-opacity="0"/>
</radialGradient>
<radialGradient id="paint73_radial_7159_2159" cx="0" cy="0" r="1" gradientTransform="matrix(-3.02494 -3.81087 -6.34512 5.08412 29.2801 30.5627)" gradientUnits="userSpaceOnUse">
<stop offset="0.114152" stop-color="#7A326B"/>
<stop offset="0.665658" stop-color="#6C2D5F" stop-opacity="0.230925"/>
<stop offset="1" stop-color="#682B5B" stop-opacity="0"/>
</radialGradient>
<linearGradient id="paint74_linear_7159_2159" x1="19.0721" y1="11.9774" x2="20.3221" y2="13.1649" gradientUnits="userSpaceOnUse">
<stop stop-color="#5A3129"/>
<stop offset="1" stop-color="#5A3129" stop-opacity="0"/>
</linearGradient>
<clipPath id="clip0_7159_2159">
<rect width="32" height="32" fill="white"/>
</clipPath>
</defs>
</svg>
