<svg width="32" height="32" viewBox="0 0 32 32" fill="none" xmlns="http://www.w3.org/2000/svg">
<path d="M23.3041 5.69593L20.5 8.5V12H23L26.3041 8.69593C26.6593 8.88981 27.0668 9 27.5 9C28.8807 9 30 7.88071 30 6.5C30 5.27577 29.12 4.25706 27.9581 4.04188C27.7429 2.87996 26.7242 2 25.5 2C24.1193 2 23 3.11929 23 4.5C23 4.93321 23.1102 5.34069 23.3041 5.69593Z" fill="url(#paint0_radial_7159_2153)"/>
<path d="M23.3041 5.69593L20.5 8.5V12H23L26.3041 8.69593C26.6593 8.88981 27.0668 9 27.5 9C28.8807 9 30 7.88071 30 6.5C30 5.27577 29.12 4.25706 27.9581 4.04188C27.7429 2.87996 26.7242 2 25.5 2C24.1193 2 23 3.11929 23 4.5C23 4.93321 23.1102 5.34069 23.3041 5.69593Z" fill="url(#paint1_radial_7159_2153)" fill-opacity="0.86"/>
<path d="M23.3041 5.69593L20.5 8.5V12H23L26.3041 8.69593C26.6593 8.88981 27.0668 9 27.5 9C28.8807 9 30 7.88071 30 6.5C30 5.27577 29.12 4.25706 27.9581 4.04188C27.7429 2.87996 26.7242 2 25.5 2C24.1193 2 23 3.11929 23 4.5C23 4.93321 23.1102 5.34069 23.3041 5.69593Z" fill="url(#paint2_radial_7159_2153)" fill-opacity="0.9"/>
<path d="M23.3041 5.69593L20.5 8.5V12H23L26.3041 8.69593C26.6593 8.88981 27.0668 9 27.5 9C28.8807 9 30 7.88071 30 6.5C30 5.27577 29.12 4.25706 27.9581 4.04188C27.7429 2.87996 26.7242 2 25.5 2C24.1193 2 23 3.11929 23 4.5C23 4.93321 23.1102 5.34069 23.3041 5.69593Z" fill="url(#paint3_linear_7159_2153)"/>
<path d="M23.3041 5.69593L20.5 8.5V12H23L26.3041 8.69593C26.6593 8.88981 27.0668 9 27.5 9C28.8807 9 30 7.88071 30 6.5C30 5.27577 29.12 4.25706 27.9581 4.04188C27.7429 2.87996 26.7242 2 25.5 2C24.1193 2 23 3.11929 23 4.5C23 4.93321 23.1102 5.34069 23.3041 5.69593Z" fill="url(#paint4_radial_7159_2153)"/>
<path d="M23.3041 5.69593L20.5 8.5V12H23L26.3041 8.69593C26.6593 8.88981 27.0668 9 27.5 9C28.8807 9 30 7.88071 30 6.5C30 5.27577 29.12 4.25706 27.9581 4.04188C27.7429 2.87996 26.7242 2 25.5 2C24.1193 2 23 3.11929 23 4.5C23 4.93321 23.1102 5.34069 23.3041 5.69593Z" fill="url(#paint5_radial_7159_2153)"/>
<path d="M23.3041 5.69593L20.5 8.5V12H23L26.3041 8.69593C26.6593 8.88981 27.0668 9 27.5 9C28.8807 9 30 7.88071 30 6.5C30 5.27577 29.12 4.25706 27.9581 4.04188C27.7429 2.87996 26.7242 2 25.5 2C24.1193 2 23 3.11929 23 4.5C23 4.93321 23.1102 5.34069 23.3041 5.69593Z" fill="url(#paint6_radial_7159_2153)" fill-opacity="0.7"/>
<path d="M23.3041 5.69593L20.5 8.5V12H23L26.3041 8.69593C26.6593 8.88981 27.0668 9 27.5 9C28.8807 9 30 7.88071 30 6.5C30 5.27577 29.12 4.25706 27.9581 4.04188C27.7429 2.87996 26.7242 2 25.5 2C24.1193 2 23 3.11929 23 4.5C23 4.93321 23.1102 5.34069 23.3041 5.69593Z" fill="url(#paint7_radial_7159_2153)"/>
<path d="M23.3041 5.69593L20.5 8.5V12H23L26.3041 8.69593C26.6593 8.88981 27.0668 9 27.5 9C28.8807 9 30 7.88071 30 6.5C30 5.27577 29.12 4.25706 27.9581 4.04188C27.7429 2.87996 26.7242 2 25.5 2C24.1193 2 23 3.11929 23 4.5C23 4.93321 23.1102 5.34069 23.3041 5.69593Z" fill="url(#paint8_radial_7159_2153)"/>
<path d="M23.3041 5.69593L20.5 8.5V12H23L26.3041 8.69593C26.6593 8.88981 27.0668 9 27.5 9C28.8807 9 30 7.88071 30 6.5C30 5.27577 29.12 4.25706 27.9581 4.04188C27.7429 2.87996 26.7242 2 25.5 2C24.1193 2 23 3.11929 23 4.5C23 4.93321 23.1102 5.34069 23.3041 5.69593Z" fill="url(#paint9_radial_7159_2153)"/>
<path d="M23.3041 5.69593L20.5 8.5V12H23L26.3041 8.69593C26.6593 8.88981 27.0668 9 27.5 9C28.8807 9 30 7.88071 30 6.5C30 5.27577 29.12 4.25706 27.9581 4.04188C27.7429 2.87996 26.7242 2 25.5 2C24.1193 2 23 3.11929 23 4.5C23 4.93321 23.1102 5.34069 23.3041 5.69593Z" fill="url(#paint10_radial_7159_2153)"/>
<path d="M23.3041 5.69593L20.5 8.5V12H23L26.3041 8.69593C26.6593 8.88981 27.0668 9 27.5 9C28.8807 9 30 7.88071 30 6.5C30 5.27577 29.12 4.25706 27.9581 4.04188C27.7429 2.87996 26.7242 2 25.5 2C24.1193 2 23 3.11929 23 4.5C23 4.93321 23.1102 5.34069 23.3041 5.69593Z" fill="url(#paint11_radial_7159_2153)"/>
<path d="M8.69593 5.69593L11.5 8.5V12H9L5.69593 8.69593C5.34069 8.88981 4.93321 9 4.5 9C3.11929 9 2 7.88071 2 6.5C2 5.27577 2.87996 4.25706 4.04188 4.04188C4.25706 2.87996 5.27577 2 6.5 2C7.88071 2 9 3.11929 9 4.5C9 4.93321 8.88981 5.34069 8.69593 5.69593Z" fill="url(#paint12_linear_7159_2153)"/>
<path d="M8.69593 5.69593L11.5 8.5V12H9L5.69593 8.69593C5.34069 8.88981 4.93321 9 4.5 9C3.11929 9 2 7.88071 2 6.5C2 5.27577 2.87996 4.25706 4.04188 4.04188C4.25706 2.87996 5.27577 2 6.5 2C7.88071 2 9 3.11929 9 4.5C9 4.93321 8.88981 5.34069 8.69593 5.69593Z" fill="url(#paint13_radial_7159_2153)"/>
<path d="M8.69593 5.69593L11.5 8.5V12H9L5.69593 8.69593C5.34069 8.88981 4.93321 9 4.5 9C3.11929 9 2 7.88071 2 6.5C2 5.27577 2.87996 4.25706 4.04188 4.04188C4.25706 2.87996 5.27577 2 6.5 2C7.88071 2 9 3.11929 9 4.5C9 4.93321 8.88981 5.34069 8.69593 5.69593Z" fill="url(#paint14_radial_7159_2153)"/>
<path d="M8.69593 5.69593L11.5 8.5V12H9L5.69593 8.69593C5.34069 8.88981 4.93321 9 4.5 9C3.11929 9 2 7.88071 2 6.5C2 5.27577 2.87996 4.25706 4.04188 4.04188C4.25706 2.87996 5.27577 2 6.5 2C7.88071 2 9 3.11929 9 4.5C9 4.93321 8.88981 5.34069 8.69593 5.69593Z" fill="url(#paint15_radial_7159_2153)"/>
<path d="M8.69593 5.69593L11.5 8.5V12H9L5.69593 8.69593C5.34069 8.88981 4.93321 9 4.5 9C3.11929 9 2 7.88071 2 6.5C2 5.27577 2.87996 4.25706 4.04188 4.04188C4.25706 2.87996 5.27577 2 6.5 2C7.88071 2 9 3.11929 9 4.5C9 4.93321 8.88981 5.34069 8.69593 5.69593Z" fill="url(#paint16_radial_7159_2153)"/>
<path d="M8.69593 5.69593L11.5 8.5V12H9L5.69593 8.69593C5.34069 8.88981 4.93321 9 4.5 9C3.11929 9 2 7.88071 2 6.5C2 5.27577 2.87996 4.25706 4.04188 4.04188C4.25706 2.87996 5.27577 2 6.5 2C7.88071 2 9 3.11929 9 4.5C9 4.93321 8.88981 5.34069 8.69593 5.69593Z" fill="url(#paint17_radial_7159_2153)"/>
<path d="M8.69593 5.69593L11.5 8.5V12H9L5.69593 8.69593C5.34069 8.88981 4.93321 9 4.5 9C3.11929 9 2 7.88071 2 6.5C2 5.27577 2.87996 4.25706 4.04188 4.04188C4.25706 2.87996 5.27577 2 6.5 2C7.88071 2 9 3.11929 9 4.5C9 4.93321 8.88981 5.34069 8.69593 5.69593Z" fill="url(#paint18_radial_7159_2153)"/>
<path d="M8.69593 5.69593L11.5 8.5V12H9L5.69593 8.69593C5.34069 8.88981 4.93321 9 4.5 9C3.11929 9 2 7.88071 2 6.5C2 5.27577 2.87996 4.25706 4.04188 4.04188C4.25706 2.87996 5.27577 2 6.5 2C7.88071 2 9 3.11929 9 4.5C9 4.93321 8.88981 5.34069 8.69593 5.69593Z" fill="url(#paint19_radial_7159_2153)"/>
<path d="M8.69593 5.69593L11.5 8.5V12H9L5.69593 8.69593C5.34069 8.88981 4.93321 9 4.5 9C3.11929 9 2 7.88071 2 6.5C2 5.27577 2.87996 4.25706 4.04188 4.04188C4.25706 2.87996 5.27577 2 6.5 2C7.88071 2 9 3.11929 9 4.5C9 4.93321 8.88981 5.34069 8.69593 5.69593Z" fill="url(#paint20_radial_7159_2153)"/>
<path d="M6 6.49976C6.5 5.99986 8.70642 5.68945 8.70642 5.68945L11.5 8.49976L13 13.4998C13 13.4998 7.20645 7.88845 6 6.49976Z" fill="url(#paint21_linear_7159_2153)"/>
<circle cx="6.5" cy="4.5" r="2.5" fill="url(#paint22_radial_7159_2153)"/>
<path d="M8.69593 5.69593L11.5 8.5V12H9L5.69593 8.69593C5.34069 8.88981 4.93321 9 4.5 9C3.11929 9 2 7.88071 2 6.5C2 5.27577 2.87996 4.25706 4.04188 4.04188C4.25706 2.87996 5.27577 2 6.5 2C7.88071 2 9 3.11929 9 4.5C9 4.93321 8.88981 5.34069 8.69593 5.69593Z" fill="url(#paint23_linear_7159_2153)"/>
<path d="M26.3041 23.3041L23.5 20.5H20V23L23.3041 26.3041C23.1102 26.6593 23 27.0668 23 27.5C23 28.8807 24.1193 30 25.5 30C26.7242 30 27.7429 29.12 27.9581 27.9581C29.12 27.7429 30 26.7242 30 25.5C30 24.1193 28.8807 23 27.5 23C27.0668 23 26.6593 23.1102 26.3041 23.3041Z" fill="url(#paint24_linear_7159_2153)"/>
<path d="M26.3041 23.3041L23.5 20.5H20V23L23.3041 26.3041C23.1102 26.6593 23 27.0668 23 27.5C23 28.8807 24.1193 30 25.5 30C26.7242 30 27.7429 29.12 27.9581 27.9581C29.12 27.7429 30 26.7242 30 25.5C30 24.1193 28.8807 23 27.5 23C27.0668 23 26.6593 23.1102 26.3041 23.3041Z" fill="url(#paint25_radial_7159_2153)"/>
<path d="M26.3041 23.3041L23.5 20.5H20V23L23.3041 26.3041C23.1102 26.6593 23 27.0668 23 27.5C23 28.8807 24.1193 30 25.5 30C26.7242 30 27.7429 29.12 27.9581 27.9581C29.12 27.7429 30 26.7242 30 25.5C30 24.1193 28.8807 23 27.5 23C27.0668 23 26.6593 23.1102 26.3041 23.3041Z" fill="url(#paint26_radial_7159_2153)"/>
<path d="M26.3041 23.3041L23.5 20.5H20V23L23.3041 26.3041C23.1102 26.6593 23 27.0668 23 27.5C23 28.8807 24.1193 30 25.5 30C26.7242 30 27.7429 29.12 27.9581 27.9581C29.12 27.7429 30 26.7242 30 25.5C30 24.1193 28.8807 23 27.5 23C27.0668 23 26.6593 23.1102 26.3041 23.3041Z" fill="url(#paint27_radial_7159_2153)"/>
<path d="M26.3041 23.3041L23.5 20.5H20V23L23.3041 26.3041C23.1102 26.6593 23 27.0668 23 27.5C23 28.8807 24.1193 30 25.5 30C26.7242 30 27.7429 29.12 27.9581 27.9581C29.12 27.7429 30 26.7242 30 25.5C30 24.1193 28.8807 23 27.5 23C27.0668 23 26.6593 23.1102 26.3041 23.3041Z" fill="url(#paint28_radial_7159_2153)"/>
<path d="M26.3041 23.3041L23.5 20.5H20V23L23.3041 26.3041C23.1102 26.6593 23 27.0668 23 27.5C23 28.8807 24.1193 30 25.5 30C26.7242 30 27.7429 29.12 27.9581 27.9581C29.12 27.7429 30 26.7242 30 25.5C30 24.1193 28.8807 23 27.5 23C27.0668 23 26.6593 23.1102 26.3041 23.3041Z" fill="url(#paint29_radial_7159_2153)"/>
<path d="M26.3041 23.3041L23.5 20.5H20V23L23.3041 26.3041C23.1102 26.6593 23 27.0668 23 27.5C23 28.8807 24.1193 30 25.5 30C26.7242 30 27.7429 29.12 27.9581 27.9581C29.12 27.7429 30 26.7242 30 25.5C30 24.1193 28.8807 23 27.5 23C27.0668 23 26.6593 23.1102 26.3041 23.3041Z" fill="url(#paint30_radial_7159_2153)"/>
<path d="M25.5 26C25.9999 25.5 26.3103 23.2936 26.3103 23.2936L23.5 20.5L18.5 19C18.5 19 24.1113 24.7936 25.5 26Z" fill="url(#paint31_linear_7159_2153)"/>
<circle cx="2.5" cy="2.5" r="2.5" transform="matrix(0 -1 -1 0 30 28)" fill="url(#paint32_radial_7159_2153)"/>
<circle cx="2.5" cy="2.5" r="2.5" transform="matrix(0 -1 -1 0 30 28)" fill="url(#paint33_radial_7159_2153)"/>
<path d="M4.35642 27.6679C3.05632 27.6679 2 26.6369 2 25.3558C2 24.0746 3.05632 23.0337 4.35642 23.0337C4.85411 23.0337 5.31117 23.1838 5.69714 23.444L10.1256 19L13 21.8326L8.57156 26.2766C8.87627 26.667 9.05909 27.1474 9.05909 27.6779C9.05909 28.9591 8.00277 30 6.70268 30C5.40259 30 4.35642 28.949 4.35642 27.6679Z" fill="url(#paint34_radial_7159_2153)"/>
<path d="M4.35642 27.6679C3.05632 27.6679 2 26.6369 2 25.3558C2 24.0746 3.05632 23.0337 4.35642 23.0337C4.85411 23.0337 5.31117 23.1838 5.69714 23.444L10.1256 19L13 21.8326L8.57156 26.2766C8.87627 26.667 9.05909 27.1474 9.05909 27.6779C9.05909 28.9591 8.00277 30 6.70268 30C5.40259 30 4.35642 28.949 4.35642 27.6679Z" fill="url(#paint35_radial_7159_2153)"/>
<path d="M4.35642 27.6679C3.05632 27.6679 2 26.6369 2 25.3558C2 24.0746 3.05632 23.0337 4.35642 23.0337C4.85411 23.0337 5.31117 23.1838 5.69714 23.444L10.1256 19L13 21.8326L8.57156 26.2766C8.87627 26.667 9.05909 27.1474 9.05909 27.6779C9.05909 28.9591 8.00277 30 6.70268 30C5.40259 30 4.35642 28.949 4.35642 27.6679Z" fill="url(#paint36_radial_7159_2153)"/>
<path d="M4.35642 27.6679C3.05632 27.6679 2 26.6369 2 25.3558C2 24.0746 3.05632 23.0337 4.35642 23.0337C4.85411 23.0337 5.31117 23.1838 5.69714 23.444L10.1256 19L13 21.8326L8.57156 26.2766C8.87627 26.667 9.05909 27.1474 9.05909 27.6779C9.05909 28.9591 8.00277 30 6.70268 30C5.40259 30 4.35642 28.949 4.35642 27.6679Z" fill="url(#paint37_radial_7159_2153)"/>
<path d="M4.35642 27.6679C3.05632 27.6679 2 26.6369 2 25.3558C2 24.0746 3.05632 23.0337 4.35642 23.0337C4.85411 23.0337 5.31117 23.1838 5.69714 23.444L10.1256 19L13 21.8326L8.57156 26.2766C8.87627 26.667 9.05909 27.1474 9.05909 27.6779C9.05909 28.9591 8.00277 30 6.70268 30C5.40259 30 4.35642 28.949 4.35642 27.6679Z" fill="url(#paint38_radial_7159_2153)"/>
<path d="M4.35642 27.6679C3.05632 27.6679 2 26.6369 2 25.3558C2 24.0746 3.05632 23.0337 4.35642 23.0337C4.85411 23.0337 5.31117 23.1838 5.69714 23.444L10.1256 19L13 21.8326L8.57156 26.2766C8.87627 26.667 9.05909 27.1474 9.05909 27.6779C9.05909 28.9591 8.00277 30 6.70268 30C5.40259 30 4.35642 28.949 4.35642 27.6679Z" fill="url(#paint39_radial_7159_2153)"/>
<path d="M4.35642 27.6679C3.05632 27.6679 2 26.6369 2 25.3558C2 24.0746 3.05632 23.0337 4.35642 23.0337C4.85411 23.0337 5.31117 23.1838 5.69714 23.444L10.1256 19L13 21.8326L8.57156 26.2766C8.87627 26.667 9.05909 27.1474 9.05909 27.6779C9.05909 28.9591 8.00277 30 6.70268 30C5.40259 30 4.35642 28.949 4.35642 27.6679Z" fill="url(#paint40_radial_7159_2153)"/>
<path d="M4.35642 27.6679C3.05632 27.6679 2 26.6369 2 25.3558C2 24.0746 3.05632 23.0337 4.35642 23.0337C4.85411 23.0337 5.31117 23.1838 5.69714 23.444L10.1256 19L13 21.8326L8.57156 26.2766C8.87627 26.667 9.05909 27.1474 9.05909 27.6779C9.05909 28.9591 8.00277 30 6.70268 30C5.40259 30 4.35642 28.949 4.35642 27.6679Z" fill="url(#paint41_linear_7159_2153)"/>
<path d="M16 6.04004C10.48 6.04004 6 10.52 6 16.04C6 19.74 8.01 20.73 11 20.99V24.5C11 25.3284 11.6716 26 12.5 26H12.56C13.3553 26 14 25.3553 14 24.56V23.5C14 23.2239 14.2239 23 14.5 23C14.7761 23 15 23.2239 15 23.5V25C15 25.5523 15.4477 26 16 26C16.5523 26 17 25.5523 17 25V23.5C17 23.2239 17.2239 23 17.5 23C17.7761 23 18 23.2239 18 23.5V24.56C18 25.3553 18.6447 26 19.44 26H19.5C20.3284 26 21 25.3284 21 24.5V20.99C23.99 20.74 26 19.74 26 16.04C26 10.51 21.52 6.04004 16 6.04004Z" fill="url(#paint42_radial_7159_2153)"/>
<path d="M16 6.04004C10.48 6.04004 6 10.52 6 16.04C6 19.74 8.01 20.73 11 20.99V24.5C11 25.3284 11.6716 26 12.5 26H12.56C13.3553 26 14 25.3553 14 24.56V23.5C14 23.2239 14.2239 23 14.5 23C14.7761 23 15 23.2239 15 23.5V25C15 25.5523 15.4477 26 16 26C16.5523 26 17 25.5523 17 25V23.5C17 23.2239 17.2239 23 17.5 23C17.7761 23 18 23.2239 18 23.5V24.56C18 25.3553 18.6447 26 19.44 26H19.5C20.3284 26 21 25.3284 21 24.5V20.99C23.99 20.74 26 19.74 26 16.04C26 10.51 21.52 6.04004 16 6.04004Z" fill="url(#paint43_radial_7159_2153)" fill-opacity="0.43"/>
<path d="M16 6.04004C10.48 6.04004 6 10.52 6 16.04C6 19.74 8.01 20.73 11 20.99V24.5C11 25.3284 11.6716 26 12.5 26H12.56C13.3553 26 14 25.3553 14 24.56V23.5C14 23.2239 14.2239 23 14.5 23C14.7761 23 15 23.2239 15 23.5V25C15 25.5523 15.4477 26 16 26C16.5523 26 17 25.5523 17 25V23.5C17 23.2239 17.2239 23 17.5 23C17.7761 23 18 23.2239 18 23.5V24.56C18 25.3553 18.6447 26 19.44 26H19.5C20.3284 26 21 25.3284 21 24.5V20.99C23.99 20.74 26 19.74 26 16.04C26 10.51 21.52 6.04004 16 6.04004Z" fill="url(#paint44_radial_7159_2153)"/>
<path d="M16 6.04004C10.48 6.04004 6 10.52 6 16.04C6 19.74 8.01 20.73 11 20.99V24.5C11 25.3284 11.6716 26 12.5 26H12.56C13.3553 26 14 25.3553 14 24.56V23.5C14 23.2239 14.2239 23 14.5 23C14.7761 23 15 23.2239 15 23.5V25C15 25.5523 15.4477 26 16 26C16.5523 26 17 25.5523 17 25V23.5C17 23.2239 17.2239 23 17.5 23C17.7761 23 18 23.2239 18 23.5V24.56C18 25.3553 18.6447 26 19.44 26H19.5C20.3284 26 21 25.3284 21 24.5V20.99C23.99 20.74 26 19.74 26 16.04C26 10.51 21.52 6.04004 16 6.04004Z" fill="url(#paint45_radial_7159_2153)"/>
<path d="M16 6.04004C10.48 6.04004 6 10.52 6 16.04C6 19.74 8.01 20.73 11 20.99V24.5C11 25.3284 11.6716 26 12.5 26H12.56C13.3553 26 14 25.3553 14 24.56V23.5C14 23.2239 14.2239 23 14.5 23C14.7761 23 15 23.2239 15 23.5V25C15 25.5523 15.4477 26 16 26C16.5523 26 17 25.5523 17 25V23.5C17 23.2239 17.2239 23 17.5 23C17.7761 23 18 23.2239 18 23.5V24.56C18 25.3553 18.6447 26 19.44 26H19.5C20.3284 26 21 25.3284 21 24.5V20.99C23.99 20.74 26 19.74 26 16.04C26 10.51 21.52 6.04004 16 6.04004Z" fill="url(#paint46_radial_7159_2153)" fill-opacity="0.65"/>
<path d="M16 6.04004C10.48 6.04004 6 10.52 6 16.04C6 19.74 8.01 20.73 11 20.99V24.5C11 25.3284 11.6716 26 12.5 26H12.56C13.3553 26 14 25.3553 14 24.56V23.5C14 23.2239 14.2239 23 14.5 23C14.7761 23 15 23.2239 15 23.5V25C15 25.5523 15.4477 26 16 26C16.5523 26 17 25.5523 17 25V23.5C17 23.2239 17.2239 23 17.5 23C17.7761 23 18 23.2239 18 23.5V24.56C18 25.3553 18.6447 26 19.44 26H19.5C20.3284 26 21 25.3284 21 24.5V20.99C23.99 20.74 26 19.74 26 16.04C26 10.51 21.52 6.04004 16 6.04004Z" fill="url(#paint47_radial_7159_2153)" fill-opacity="0.37"/>
<path d="M16 6.04004C10.48 6.04004 6 10.52 6 16.04C6 19.74 8.01 20.73 11 20.99V24.5C11 25.3284 11.6716 26 12.5 26H12.56C13.3553 26 14 25.3553 14 24.56V23.5C14 23.2239 14.2239 23 14.5 23C14.7761 23 15 23.2239 15 23.5V25C15 25.5523 15.4477 26 16 26C16.5523 26 17 25.5523 17 25V23.5C17 23.2239 17.2239 23 17.5 23C17.7761 23 18 23.2239 18 23.5V24.56C18 25.3553 18.6447 26 19.44 26H19.5C20.3284 26 21 25.3284 21 24.5V20.99C23.99 20.74 26 19.74 26 16.04C26 10.51 21.52 6.04004 16 6.04004Z" fill="url(#paint48_radial_7159_2153)" fill-opacity="0.65"/>
<path d="M16 6.04004C10.48 6.04004 6 10.52 6 16.04C6 19.74 8.01 20.73 11 20.99V24.5C11 25.3284 11.6716 26 12.5 26H12.56C13.3553 26 14 25.3553 14 24.56V23.5C14 23.2239 14.2239 23 14.5 23C14.7761 23 15 23.2239 15 23.5V25C15 25.5523 15.4477 26 16 26C16.5523 26 17 25.5523 17 25V23.5C17 23.2239 17.2239 23 17.5 23C17.7761 23 18 23.2239 18 23.5V24.56C18 25.3553 18.6447 26 19.44 26H19.5C20.3284 26 21 25.3284 21 24.5V20.99C23.99 20.74 26 19.74 26 16.04C26 10.51 21.52 6.04004 16 6.04004Z" fill="url(#paint49_radial_7159_2153)" fill-opacity="0.65"/>
<path d="M16 6.04004C10.48 6.04004 6 10.52 6 16.04C6 19.74 8.01 20.73 11 20.99V24.5C11 25.3284 11.6716 26 12.5 26H12.56C13.3553 26 14 25.3553 14 24.56V23.5C14 23.2239 14.2239 23 14.5 23C14.7761 23 15 23.2239 15 23.5V25C15 25.5523 15.4477 26 16 26C16.5523 26 17 25.5523 17 25V23.5C17 23.2239 17.2239 23 17.5 23C17.7761 23 18 23.2239 18 23.5V24.56C18 25.3553 18.6447 26 19.44 26H19.5C20.3284 26 21 25.3284 21 24.5V20.99C23.99 20.74 26 19.74 26 16.04C26 10.51 21.52 6.04004 16 6.04004Z" fill="url(#paint50_radial_7159_2153)" fill-opacity="0.47"/>
<path d="M16 6.04004C10.48 6.04004 6 10.52 6 16.04C6 19.74 8.01 20.73 11 20.99V24.5C11 25.3284 11.6716 26 12.5 26H12.56C13.3553 26 14 25.3553 14 24.56V23.5C14 23.2239 14.2239 23 14.5 23C14.7761 23 15 23.2239 15 23.5V25C15 25.5523 15.4477 26 16 26C16.5523 26 17 25.5523 17 25V23.5C17 23.2239 17.2239 23 17.5 23C17.7761 23 18 23.2239 18 23.5V24.56C18 25.3553 18.6447 26 19.44 26H19.5C20.3284 26 21 25.3284 21 24.5V20.99C23.99 20.74 26 19.74 26 16.04C26 10.51 21.52 6.04004 16 6.04004Z" fill="url(#paint51_radial_7159_2153)" fill-opacity="0.65"/>
<path d="M16 6.04004C10.48 6.04004 6 10.52 6 16.04C6 19.74 8.01 20.73 11 20.99V24.5C11 25.3284 11.6716 26 12.5 26H12.56C13.3553 26 14 25.3553 14 24.56V23.5C14 23.2239 14.2239 23 14.5 23C14.7761 23 15 23.2239 15 23.5V25C15 25.5523 15.4477 26 16 26C16.5523 26 17 25.5523 17 25V23.5C17 23.2239 17.2239 23 17.5 23C17.7761 23 18 23.2239 18 23.5V24.56C18 25.3553 18.6447 26 19.44 26H19.5C20.3284 26 21 25.3284 21 24.5V20.99C23.99 20.74 26 19.74 26 16.04C26 10.51 21.52 6.04004 16 6.04004Z" fill="url(#paint52_radial_7159_2153)" fill-opacity="0.65"/>
<path d="M16 6.04004C10.48 6.04004 6 10.52 6 16.04C6 19.74 8.01 20.73 11 20.99V24.5C11 25.3284 11.6716 26 12.5 26H12.56C13.3553 26 14 25.3553 14 24.56V23.5C14 23.2239 14.2239 23 14.5 23C14.7761 23 15 23.2239 15 23.5V25C15 25.5523 15.4477 26 16 26C16.5523 26 17 25.5523 17 25V23.5C17 23.2239 17.2239 23 17.5 23C17.7761 23 18 23.2239 18 23.5V24.56C18 25.3553 18.6447 26 19.44 26H19.5C20.3284 26 21 25.3284 21 24.5V20.99C23.99 20.74 26 19.74 26 16.04C26 10.51 21.52 6.04004 16 6.04004Z" fill="url(#paint53_radial_7159_2153)" fill-opacity="0.65"/>
<path d="M16 6.04004C10.48 6.04004 6 10.52 6 16.04C6 19.74 8.01 20.73 11 20.99V24.5C11 25.3284 11.6716 26 12.5 26H12.56C13.3553 26 14 25.3553 14 24.56V23.5C14 23.2239 14.2239 23 14.5 23C14.7761 23 15 23.2239 15 23.5V25C15 25.5523 15.4477 26 16 26C16.5523 26 17 25.5523 17 25V23.5C17 23.2239 17.2239 23 17.5 23C17.7761 23 18 23.2239 18 23.5V24.56C18 25.3553 18.6447 26 19.44 26H19.5C20.3284 26 21 25.3284 21 24.5V20.99C23.99 20.74 26 19.74 26 16.04C26 10.51 21.52 6.04004 16 6.04004Z" fill="url(#paint54_radial_7159_2153)" fill-opacity="0.47"/>
<path d="M16 6.04004C10.48 6.04004 6 10.52 6 16.04C6 19.74 8.01 20.73 11 20.99V24.5C11 25.3284 11.6716 26 12.5 26H12.56C13.3553 26 14 25.3553 14 24.56V23.5C14 23.2239 14.2239 23 14.5 23C14.7761 23 15 23.2239 15 23.5V25C15 25.5523 15.4477 26 16 26C16.5523 26 17 25.5523 17 25V23.5C17 23.2239 17.2239 23 17.5 23C17.7761 23 18 23.2239 18 23.5V24.56C18 25.3553 18.6447 26 19.44 26H19.5C20.3284 26 21 25.3284 21 24.5V20.99C23.99 20.74 26 19.74 26 16.04C26 10.51 21.52 6.04004 16 6.04004Z" fill="url(#paint55_radial_7159_2153)" fill-opacity="0.45"/>
<path d="M16 6.04004C10.48 6.04004 6 10.52 6 16.04C6 19.74 8.01 20.73 11 20.99V24.5C11 25.3284 11.6716 26 12.5 26H12.56C13.3553 26 14 25.3553 14 24.56V23.5C14 23.2239 14.2239 23 14.5 23C14.7761 23 15 23.2239 15 23.5V25C15 25.5523 15.4477 26 16 26C16.5523 26 17 25.5523 17 25V23.5C17 23.2239 17.2239 23 17.5 23C17.7761 23 18 23.2239 18 23.5V24.56C18 25.3553 18.6447 26 19.44 26H19.5C20.3284 26 21 25.3284 21 24.5V20.99C23.99 20.74 26 19.74 26 16.04C26 10.51 21.52 6.04004 16 6.04004Z" fill="url(#paint56_radial_7159_2153)" fill-opacity="0.45"/>
<path d="M16 6.04004C10.48 6.04004 6 10.52 6 16.04C6 19.74 8.01 20.73 11 20.99V24.5C11 25.3284 11.6716 26 12.5 26H12.56C13.3553 26 14 25.3553 14 24.56V23.5C14 23.2239 14.2239 23 14.5 23C14.7761 23 15 23.2239 15 23.5V25C15 25.5523 15.4477 26 16 26C16.5523 26 17 25.5523 17 25V23.5C17 23.2239 17.2239 23 17.5 23C17.7761 23 18 23.2239 18 23.5V24.56C18 25.3553 18.6447 26 19.44 26H19.5C20.3284 26 21 25.3284 21 24.5V20.99C23.99 20.74 26 19.74 26 16.04C26 10.51 21.52 6.04004 16 6.04004Z" fill="url(#paint57_radial_7159_2153)" fill-opacity="0.26"/>
<path d="M16 6.04004C10.48 6.04004 6 10.52 6 16.04C6 19.74 8.01 20.73 11 20.99V24.5C11 25.3284 11.6716 26 12.5 26H12.56C13.3553 26 14 25.3553 14 24.56V23.5C14 23.2239 14.2239 23 14.5 23C14.7761 23 15 23.2239 15 23.5V25C15 25.5523 15.4477 26 16 26C16.5523 26 17 25.5523 17 25V23.5C17 23.2239 17.2239 23 17.5 23C17.7761 23 18 23.2239 18 23.5V24.56C18 25.3553 18.6447 26 19.44 26H19.5C20.3284 26 21 25.3284 21 24.5V20.99C23.99 20.74 26 19.74 26 16.04C26 10.51 21.52 6.04004 16 6.04004Z" fill="url(#paint58_linear_7159_2153)"/>
<path d="M14.5 21C15.3284 21 16 22.3431 16 24C16 24.7371 15.8651 25.4113 15.6445 25.9336C15.268 25.7901 15 25.4269 15 25V23.5C15 23.2239 14.7761 23 14.5 23C14.2239 23 14 23.2239 14 23.5V24.5596C14 25.0842 13.718 25.5412 13.2988 25.793C13.112 25.2927 13 24.6724 13 24C13 22.3431 13.6716 21 14.5 21Z" fill="url(#paint59_radial_7159_2153)"/>
<path d="M17.5 21C18.3284 21 19 22.3431 19 24C19 24.6726 18.8871 25.2926 18.7002 25.793C18.2814 25.5411 18 25.0839 18 24.5596V23.5C18 23.2239 17.7761 23 17.5 23C17.2239 23 17 23.2239 17 23.5V25C17 25.4272 16.7315 25.7904 16.3545 25.9336C16.1341 25.4114 16 24.737 16 24C16 22.3431 16.6716 21 17.5 21Z" fill="url(#paint60_radial_7159_2153)"/>
<path d="M14 16.7775C14 18.5801 12.5454 19 10.7551 19C8.96479 19 7.5 18.5801 7.5 16.7775C7.5 14.9749 8.95462 13.5 10.7551 13.5C12.5556 13.5 14 14.9646 14 16.7775Z" fill="url(#paint61_radial_7159_2153)"/>
<path d="M24.38 16.7733C24.38 18.5793 22.95 19 21.19 19C19.43 19 18 18.5793 18 16.7733C18 14.9674 19.43 13.5001 21.19 13.5001C22.95 13.4898 24.38 14.9571 24.38 16.7733Z" fill="url(#paint62_radial_7159_2153)"/>
<path d="M16.5752 20H15.4242C15.1385 20 14.9263 19.6698 15.0242 19.3585L15.2365 18.6321C15.3426 18.2547 15.6528 18 15.9956 18C16.3385 18 16.6405 18.2547 16.7548 18.6226L16.9752 19.3491C17.0731 19.6604 16.8691 20 16.5752 20Z" fill="url(#paint63_radial_7159_2153)"/>
<defs>
<radialGradient id="paint0_radial_7159_2153" cx="0" cy="0" r="1" gradientUnits="userSpaceOnUse" gradientTransform="translate(27.325 4.77788) scale(7.02133 7.44313)">
<stop stop-color="#EAE6EC"/>
<stop offset="0.6397" stop-color="#E2DCE3"/>
<stop offset="0.9888" stop-color="#DAD1D1"/>
</radialGradient>
<radialGradient id="paint1_radial_7159_2153" cx="0" cy="0" r="1" gradientUnits="userSpaceOnUse" gradientTransform="translate(30.0269 7.79671) rotate(-142.849) scale(8.59794 4.56565)">
<stop stop-color="#BFADCF" stop-opacity="0"/>
<stop offset="0.670784" stop-color="#BFADCF" stop-opacity="0.0256148"/>
<stop offset="0.759162" stop-color="#BFADCF" stop-opacity="0.133606"/>
<stop offset="0.86337" stop-color="#BFADCF" stop-opacity="0.196019"/>
<stop offset="0.984536" stop-color="#BFADCF"/>
</radialGradient>
<radialGradient id="paint2_radial_7159_2153" cx="0" cy="0" r="1" gradientUnits="userSpaceOnUse" gradientTransform="translate(25.2633 2.44178) rotate(60.5875) scale(7.20029 4.14848)">
<stop stop-color="#BFADCF" stop-opacity="0"/>
<stop offset="0.731664" stop-color="#BFADCF" stop-opacity="0.0256148"/>
<stop offset="0.848925" stop-color="#BFADCF" stop-opacity="0.196019"/>
<stop offset="0.946526" stop-color="#BFADCF" stop-opacity="0.526433"/>
<stop offset="1" stop-color="#BFADCF"/>
</radialGradient>
<linearGradient id="paint3_linear_7159_2153" x1="22.0737" y1="6.85161" x2="25.3446" y2="9.89803" gradientUnits="userSpaceOnUse">
<stop stop-color="#EAE6EC" stop-opacity="0.22"/>
<stop offset="0.133497" stop-color="#EAE6EC" stop-opacity="0.6"/>
<stop offset="0.311357" stop-color="#EAE6EC" stop-opacity="0.81"/>
<stop offset="0.450327" stop-color="#EAE6EC" stop-opacity="0.88"/>
<stop offset="0.718316" stop-color="#EAE6EC" stop-opacity="0.82"/>
<stop offset="0.832453" stop-color="#EAE6EC" stop-opacity="0.729253"/>
<stop offset="1" stop-color="#EAE6EC" stop-opacity="0.04"/>
</linearGradient>
<radialGradient id="paint4_radial_7159_2153" cx="0" cy="0" r="1" gradientUnits="userSpaceOnUse" gradientTransform="translate(27.7821 6.49941) rotate(104.685) scale(2.33551 2.29988)">
<stop offset="0.0327119" stop-color="#EAE6EC"/>
<stop offset="0.741377" stop-color="#EAE6EC" stop-opacity="0.738095"/>
<stop offset="1" stop-color="#EAE6EC" stop-opacity="0"/>
</radialGradient>
<radialGradient id="paint5_radial_7159_2153" cx="0" cy="0" r="1" gradientUnits="userSpaceOnUse" gradientTransform="translate(25.5496 4.04204) rotate(93.8048) scale(2.33977 2.30408)">
<stop stop-color="#EAE6EC"/>
<stop offset="0.714182" stop-color="#EAE6EC" stop-opacity="0.738095"/>
<stop offset="1" stop-color="#EAE6EC" stop-opacity="0"/>
</radialGradient>
<radialGradient id="paint6_radial_7159_2153" cx="0" cy="0" r="1" gradientUnits="userSpaceOnUse" gradientTransform="translate(23.01 9.19551) rotate(-45.8515) scale(8.39707 13.7949)">
<stop stop-color="#BFADCF" stop-opacity="0"/>
<stop offset="0.670784" stop-color="#BFADCF" stop-opacity="0.0256148"/>
<stop offset="0.830043" stop-color="#BFADCF" stop-opacity="0.133606"/>
<stop offset="0.875422" stop-color="#BFADCF" stop-opacity="0.196019"/>
<stop offset="1" stop-color="#BFADCF"/>
</radialGradient>
<radialGradient id="paint7_radial_7159_2153" cx="0" cy="0" r="1" gradientUnits="userSpaceOnUse" gradientTransform="translate(25.8243 4.10817) rotate(85.2364) scale(2.06345 2.06376)">
<stop stop-color="#F7F5F8"/>
<stop offset="0.411458" stop-color="#F7F5F8" stop-opacity="0.677076"/>
<stop offset="0.771647" stop-color="#F7F5F8" stop-opacity="0.181493"/>
<stop offset="0.890625" stop-color="#F7F5F8" stop-opacity="0"/>
</radialGradient>
<radialGradient id="paint8_radial_7159_2153" cx="0" cy="0" r="1" gradientUnits="userSpaceOnUse" gradientTransform="translate(25.6747 5.2594) rotate(-25.0836) scale(0.949225 1.0874)">
<stop stop-color="#F7F5F8" stop-opacity="0.83"/>
<stop offset="0.249215" stop-color="#F7F5F8" stop-opacity="0.57"/>
<stop offset="0.713041" stop-color="#F7F5F8" stop-opacity="0.181493"/>
<stop offset="0.890625" stop-color="#F7F5F8" stop-opacity="0"/>
</radialGradient>
<radialGradient id="paint9_radial_7159_2153" cx="0" cy="0" r="1" gradientUnits="userSpaceOnUse" gradientTransform="translate(28.3372 5.72399) rotate(90) scale(1.49794 1.45461)">
<stop stop-color="#F6F4F7"/>
<stop offset="0.351973" stop-color="#F6F4F7" stop-opacity="0.86"/>
<stop offset="0.7449" stop-color="#F6F4F7" stop-opacity="0.302085"/>
<stop offset="1" stop-color="#F6F4F7" stop-opacity="0"/>
</radialGradient>
<radialGradient id="paint10_radial_7159_2153" cx="0" cy="0" r="1" gradientUnits="userSpaceOnUse" gradientTransform="translate(24.5029 7.87423) rotate(45.2744) scale(0.94937 2.91077)">
<stop stop-color="#F1ECF2"/>
<stop offset="0.312843" stop-color="#F1ECF2" stop-opacity="0.76029"/>
<stop offset="0.738004" stop-color="#F1ECF2" stop-opacity="0.235516"/>
<stop offset="1" stop-color="#F1ECF2" stop-opacity="0"/>
</radialGradient>
<radialGradient id="paint11_radial_7159_2153" cx="0" cy="0" r="1" gradientUnits="userSpaceOnUse" gradientTransform="translate(23.4026 8.95448) rotate(47.4196) scale(0.884595 3.16879)">
<stop stop-color="#F1ECF2"/>
<stop offset="0.333632" stop-color="#F1ECF2" stop-opacity="0.58"/>
<stop offset="0.943692" stop-color="#F1ECF2" stop-opacity="0"/>
</radialGradient>
<linearGradient id="paint12_linear_7159_2153" x1="9" y1="2" x2="3.5" y2="10" gradientUnits="userSpaceOnUse">
<stop stop-color="#ECE5E6"/>
<stop offset="0.565806" stop-color="#E4D8E0"/>
<stop offset="0.988281" stop-color="#CFB4CD"/>
</linearGradient>
<radialGradient id="paint13_radial_7159_2153" cx="0" cy="0" r="1" gradientUnits="userSpaceOnUse" gradientTransform="translate(7.19909 10.2161) rotate(-45.674) scale(0.830381 2.76395)">
<stop stop-color="#C7B3C5"/>
<stop offset="0.470351" stop-color="#C7B3C5" stop-opacity="0.514531"/>
<stop offset="0.891869" stop-color="#C7B3C5" stop-opacity="0"/>
</radialGradient>
<radialGradient id="paint14_radial_7159_2153" cx="0" cy="0" r="1" gradientUnits="userSpaceOnUse" gradientTransform="translate(3.50139 8.72275) rotate(-67.0527) scale(1.13372 4.15768)">
<stop stop-color="#C7B3C5"/>
<stop offset="0.424669" stop-color="#C7B3C5" stop-opacity="0.514531"/>
<stop offset="0.891869" stop-color="#C7B3C5" stop-opacity="0"/>
</radialGradient>
<radialGradient id="paint15_radial_7159_2153" cx="0" cy="0" r="1" gradientUnits="userSpaceOnUse" gradientTransform="translate(2.47231 7.91032) rotate(-41.1859) scale(0.863628 2.11321)">
<stop stop-color="#C7B3C5"/>
<stop offset="0.424669" stop-color="#C7B3C5" stop-opacity="0.514531"/>
<stop offset="0.891869" stop-color="#C7B3C5" stop-opacity="0"/>
</radialGradient>
<radialGradient id="paint16_radial_7159_2153" cx="0" cy="0" r="1" gradientUnits="userSpaceOnUse" gradientTransform="translate(5.27054 2.05037) rotate(67.05) scale(0.690707 6.02335)">
<stop stop-color="#C7B3C5"/>
<stop offset="0.334822" stop-color="#C7B3C5" stop-opacity="0.514531"/>
<stop offset="0.623566" stop-color="#C7B3C5" stop-opacity="0.149791"/>
<stop offset="1" stop-color="#C7B3C5" stop-opacity="0"/>
</radialGradient>
<radialGradient id="paint17_radial_7159_2153" cx="0" cy="0" r="1" gradientUnits="userSpaceOnUse" gradientTransform="translate(4.34228 3.02524) rotate(23.1986) scale(1.07821 2.06794)">
<stop stop-color="#C7B3C5"/>
<stop offset="0.390418" stop-color="#C7B3C5" stop-opacity="0.514531"/>
<stop offset="0.678161" stop-color="#C7B3C5" stop-opacity="0.162023"/>
<stop offset="1" stop-color="#C7B3C5" stop-opacity="0"/>
</radialGradient>
<radialGradient id="paint18_radial_7159_2153" cx="0" cy="0" r="1" gradientUnits="userSpaceOnUse" gradientTransform="translate(9.10892 5.09575) rotate(-170.381) scale(0.7767 3.90786)">
<stop stop-color="#C7B3C5"/>
<stop offset="0.256797" stop-color="#C7B3C5" stop-opacity="0.514531"/>
<stop offset="0.678161" stop-color="#C7B3C5" stop-opacity="0.162023"/>
<stop offset="1" stop-color="#C7B3C5" stop-opacity="0"/>
</radialGradient>
<radialGradient id="paint19_radial_7159_2153" cx="0" cy="0" r="1" gradientUnits="userSpaceOnUse" gradientTransform="translate(5.54059 8.86676) rotate(-77.0637) scale(0.717721 1.30178)">
<stop stop-color="#C7B3C5"/>
<stop offset="0.30155" stop-color="#C7B3C5" stop-opacity="0.514531"/>
<stop offset="1" stop-color="#C7B3C5" stop-opacity="0"/>
</radialGradient>
<radialGradient id="paint20_radial_7159_2153" cx="0" cy="0" r="1" gradientUnits="userSpaceOnUse" gradientTransform="translate(4.45309 6.34978) rotate(90) scale(1.53226 1.45565)">
<stop offset="0.31859" stop-color="#EAE0E7"/>
<stop offset="1" stop-color="#EAE0E7" stop-opacity="0"/>
</radialGradient>
<linearGradient id="paint21_linear_7159_2153" x1="9.5" y1="7.99976" x2="8.5" y2="8.99976" gradientUnits="userSpaceOnUse">
<stop stop-color="#F0EEEF"/>
<stop offset="1" stop-color="#F3EEF0" stop-opacity="0"/>
</linearGradient>
<radialGradient id="paint22_radial_7159_2153" cx="0" cy="0" r="1" gradientUnits="userSpaceOnUse" gradientTransform="translate(8 3.5) rotate(143.13) scale(2.5)">
<stop stop-color="white"/>
<stop offset="1" stop-color="#F7F4F6" stop-opacity="0"/>
</radialGradient>
<linearGradient id="paint23_linear_7159_2153" x1="4.20536" y1="6.64286" x2="0.9125" y2="4.99643" gradientUnits="userSpaceOnUse">
<stop stop-color="#E5C9C5" stop-opacity="0"/>
<stop offset="1" stop-color="#FFD099"/>
</linearGradient>
<linearGradient id="paint24_linear_7159_2153" x1="30" y1="23" x2="22" y2="28.5" gradientUnits="userSpaceOnUse">
<stop stop-color="#ECE5E6"/>
<stop offset="0.565806" stop-color="#E0D1EE"/>
<stop offset="0.988281" stop-color="#CEB6E1"/>
</linearGradient>
<radialGradient id="paint25_radial_7159_2153" cx="0" cy="0" r="1" gradientUnits="userSpaceOnUse" gradientTransform="translate(21.6311 24.7157) rotate(-45.4953) scale(0.981484 4.88446)">
<stop stop-color="#CBAFE1"/>
<stop offset="0.328161" stop-color="#CBAFE1" stop-opacity="0.391466"/>
<stop offset="0.700513" stop-color="#CBAFE1" stop-opacity="0"/>
</radialGradient>
<radialGradient id="paint26_radial_7159_2153" cx="0" cy="0" r="1" gradientUnits="userSpaceOnUse" gradientTransform="translate(22.6319 26.6157) rotate(-13.4115) scale(1.54863 2.33594)">
<stop offset="0.279806" stop-color="#CBAFE1"/>
<stop offset="0.685053" stop-color="#CBAFE1" stop-opacity="0.307976"/>
<stop offset="1" stop-color="#CBAFE1" stop-opacity="0"/>
</radialGradient>
<radialGradient id="paint27_radial_7159_2153" cx="0" cy="0" r="1" gradientUnits="userSpaceOnUse" gradientTransform="translate(22.7882 27.8816) rotate(-13.6005) scale(1.26423 3.21053)">
<stop offset="0.18899" stop-color="#CBAFE1"/>
<stop offset="0.65569" stop-color="#CBAFE1" stop-opacity="0.412158"/>
<stop offset="1" stop-color="#CBAFE1" stop-opacity="0"/>
</radialGradient>
<radialGradient id="paint28_radial_7159_2153" cx="0" cy="0" r="1" gradientUnits="userSpaceOnUse" gradientTransform="translate(28.3249 28.7698) rotate(-135.49) scale(1.31518 2.18844)">
<stop stop-color="#CBAFE1"/>
<stop offset="1" stop-color="#CBAFE1" stop-opacity="0"/>
</radialGradient>
<radialGradient id="paint29_radial_7159_2153" cx="0" cy="0" r="1" gradientUnits="userSpaceOnUse" gradientTransform="translate(25.8353 21.7352) rotate(91.0736) scale(8.57025 5.47862)">
<stop stop-color="#CBAFE1" stop-opacity="0"/>
<stop offset="0.882945" stop-color="#CBAFE1" stop-opacity="0.0183804"/>
<stop offset="0.929666" stop-color="#CBAFE1" stop-opacity="0.387575"/>
<stop offset="0.985503" stop-color="#CBAFE1"/>
</radialGradient>
<radialGradient id="paint30_radial_7159_2153" cx="0" cy="0" r="1" gradientUnits="userSpaceOnUse" gradientTransform="translate(25.8558 27.4749) rotate(-177.816) scale(1.63199 1.55039)">
<stop stop-color="#EAE0E7"/>
<stop offset="0.454665" stop-color="#EAE0E7" stop-opacity="0.697838"/>
<stop offset="1" stop-color="#EAE0E7" stop-opacity="0"/>
</radialGradient>
<linearGradient id="paint31_linear_7159_2153" x1="24" y1="22.5" x2="23" y2="23.5" gradientUnits="userSpaceOnUse">
<stop stop-color="#F0EEEF"/>
<stop offset="1" stop-color="#F3EEF0" stop-opacity="0"/>
</linearGradient>
<radialGradient id="paint32_radial_7159_2153" cx="0" cy="0" r="1" gradientUnits="userSpaceOnUse" gradientTransform="translate(4 1.5) rotate(143.13) scale(2.5)">
<stop stop-color="white"/>
<stop offset="1" stop-color="#F7F4F6" stop-opacity="0"/>
</radialGradient>
<radialGradient id="paint33_radial_7159_2153" cx="0" cy="0" r="1" gradientUnits="userSpaceOnUse" gradientTransform="translate(2.6634 2.70091) rotate(64.0935) scale(3.03126 3.51137)">
<stop offset="0.771731" stop-color="#CBAFE1" stop-opacity="0"/>
<stop offset="1" stop-color="#CBAFE1"/>
</radialGradient>
<radialGradient id="paint34_radial_7159_2153" cx="0" cy="0" r="1" gradientUnits="userSpaceOnUse" gradientTransform="translate(5.05146 26.9009) rotate(-44.7228) scale(6.96468 7.06757)">
<stop stop-color="#D8C5DE"/>
<stop offset="0.9888" stop-color="#BDA1CB"/>
</radialGradient>
<radialGradient id="paint35_radial_7159_2153" cx="0" cy="0" r="1" gradientUnits="userSpaceOnUse" gradientTransform="translate(10.938 20.9548) rotate(135.287) scale(10.6578 7.76592)">
<stop stop-color="#C9A1E2" stop-opacity="0"/>
<stop offset="0.68322" stop-color="#C9A1E2" stop-opacity="0.0137763"/>
<stop offset="0.905683" stop-color="#C9A1E2" stop-opacity="0.159032"/>
<stop offset="0.979937" stop-color="#C9A1E2"/>
</radialGradient>
<radialGradient id="paint36_radial_7159_2153" cx="0" cy="0" r="1" gradientUnits="userSpaceOnUse" gradientTransform="translate(4.01959 28.0482) rotate(-45) scale(1.30459 2.97447)">
<stop stop-color="#C9A1E2"/>
<stop offset="0.684767" stop-color="#C9A1E2" stop-opacity="0.331788"/>
<stop offset="1" stop-color="#C9A1E2" stop-opacity="0"/>
</radialGradient>
<radialGradient id="paint37_radial_7159_2153" cx="0" cy="0" r="1" gradientUnits="userSpaceOnUse" gradientTransform="translate(9.51495 28.4494) rotate(-153.825) scale(1.4695 3.10051)">
<stop stop-color="#C9A1E2"/>
<stop offset="0.581246" stop-color="#C9A1E2" stop-opacity="0.331788"/>
<stop offset="1" stop-color="#C9A1E2" stop-opacity="0"/>
</radialGradient>
<radialGradient id="paint38_radial_7159_2153" cx="0" cy="0" r="1" gradientUnits="userSpaceOnUse" gradientTransform="translate(8.25762 29.679) rotate(-108.221) scale(1.19332 2.51779)">
<stop stop-color="#C9A1E2"/>
<stop offset="0.464774" stop-color="#C9A1E2" stop-opacity="0.331788"/>
<stop offset="1" stop-color="#C9A1E2" stop-opacity="0"/>
</radialGradient>
<radialGradient id="paint39_radial_7159_2153" cx="0" cy="0" r="1" gradientUnits="userSpaceOnUse" gradientTransform="translate(6.43477 27.9243) rotate(62.8338) scale(2.3331)">
<stop stop-color="#D8C5DE" stop-opacity="0.62"/>
<stop offset="0.505208" stop-color="#D8C5DE" stop-opacity="0.47"/>
<stop offset="1" stop-color="#D8C5DE" stop-opacity="0"/>
</radialGradient>
<radialGradient id="paint40_radial_7159_2153" cx="0" cy="0" r="1" gradientUnits="userSpaceOnUse" gradientTransform="translate(3.93498 25.2472) rotate(50.6809) scale(2.20121)">
<stop stop-color="#D8C5DE"/>
<stop offset="0.593266" stop-color="#D8C5DE" stop-opacity="0.814876"/>
<stop offset="1" stop-color="#D8C5DE" stop-opacity="0"/>
</radialGradient>
<linearGradient id="paint41_linear_7159_2153" x1="6.5" y1="25.5" x2="3" y2="21" gradientUnits="userSpaceOnUse">
<stop stop-color="#E5C9C5" stop-opacity="0"/>
<stop offset="1" stop-color="#FFD099"/>
</linearGradient>
<radialGradient id="paint42_radial_7159_2153" cx="0" cy="0" r="1" gradientTransform="matrix(-10.7143 14.9646 -15 -10.689 19.2143 10.6719)" gradientUnits="userSpaceOnUse">
<stop offset="0.212753" stop-color="#F2F0F4"/>
<stop offset="0.742622" stop-color="#D1BBE0"/>
</radialGradient>
<radialGradient id="paint43_radial_7159_2153" cx="0" cy="0" r="1" gradientTransform="matrix(8.87468 12.4136 -11.2143 7.98517 15.2643 10.2826)" gradientUnits="userSpaceOnUse">
<stop stop-color="#CCA8E9" stop-opacity="0"/>
<stop offset="0.454097" stop-color="#CCA8E9" stop-opacity="0.0496967"/>
<stop offset="0.744776" stop-color="#CCA8E9" stop-opacity="0.278871"/>
<stop offset="0.885115" stop-color="#CCA8E9"/>
</radialGradient>
<radialGradient id="paint44_radial_7159_2153" cx="0" cy="0" r="1" gradientTransform="matrix(-21.3132 -9.903 6.43068 -13.7847 25.4667 19.4185)" gradientUnits="userSpaceOnUse">
<stop stop-color="#CCA8E9" stop-opacity="0"/>
<stop offset="0.70377" stop-color="#CCA8E9" stop-opacity="0.0496967"/>
<stop offset="0.797851" stop-color="#CCA8E9" stop-opacity="0.278871"/>
<stop offset="0.885115" stop-color="#CCA8E9"/>
</radialGradient>
<radialGradient id="paint45_radial_7159_2153" cx="0" cy="0" r="1" gradientTransform="matrix(-14.2293 5.29713 -6.61128 -17.6884 24.6878 19.6908)" gradientUnits="userSpaceOnUse">
<stop stop-color="white" stop-opacity="0"/>
<stop offset="0.190976" stop-color="white" stop-opacity="0"/>
<stop offset="1" stop-color="white" stop-opacity="0.13"/>
</radialGradient>
<radialGradient id="paint46_radial_7159_2153" cx="0" cy="0" r="1" gradientUnits="userSpaceOnUse" gradientTransform="translate(19.6998 21.5181) rotate(-180) scale(1.23616 1.67862)">
<stop stop-color="white" stop-opacity="0.61"/>
<stop offset="0.500678" stop-color="white" stop-opacity="0.399429"/>
<stop offset="0.84375" stop-color="white" stop-opacity="0.0916601"/>
<stop offset="1" stop-color="white" stop-opacity="0"/>
</radialGradient>
<radialGradient id="paint47_radial_7159_2153" cx="0" cy="0" r="1" gradientTransform="matrix(0.616307 2.18351 -7.65674 2.15718 18.67 19.6205)" gradientUnits="userSpaceOnUse">
<stop stop-color="white" stop-opacity="0.61"/>
<stop offset="0.500678" stop-color="white" stop-opacity="0.399429"/>
<stop offset="0.84375" stop-color="white" stop-opacity="0.0916601"/>
<stop offset="1" stop-color="white" stop-opacity="0"/>
</radialGradient>
<radialGradient id="paint48_radial_7159_2153" cx="0" cy="0" r="1" gradientUnits="userSpaceOnUse" gradientTransform="translate(19.855 24.3815) rotate(-165.256) scale(1.64258 1.35274)">
<stop stop-color="white" stop-opacity="0.61"/>
<stop offset="0.358764" stop-color="white" stop-opacity="0.399429"/>
<stop offset="0.769306" stop-color="white" stop-opacity="0.0916601"/>
<stop offset="1" stop-color="white" stop-opacity="0"/>
</radialGradient>
<radialGradient id="paint49_radial_7159_2153" cx="0" cy="0" r="1" gradientUnits="userSpaceOnUse" gradientTransform="translate(19.6668 22.9229) rotate(-173.306) scale(1.44517 2.29928)">
<stop stop-color="white" stop-opacity="0.74"/>
<stop offset="0.28398" stop-color="white" stop-opacity="0.601427"/>
<stop offset="0.473312" stop-color="white" stop-opacity="0.399429"/>
<stop offset="0.811132" stop-color="white" stop-opacity="0.0916601"/>
<stop offset="1" stop-color="white" stop-opacity="0"/>
</radialGradient>
<radialGradient id="paint50_radial_7159_2153" cx="0" cy="0" r="1" gradientUnits="userSpaceOnUse" gradientTransform="translate(19.8123 23.9972) rotate(180) scale(1.12254 2.3302)">
<stop stop-color="white" stop-opacity="0.61"/>
<stop offset="0.426981" stop-color="white" stop-opacity="0.399429"/>
<stop offset="0.755398" stop-color="white" stop-opacity="0.0916601"/>
<stop offset="1" stop-color="white" stop-opacity="0"/>
</radialGradient>
<radialGradient id="paint51_radial_7159_2153" cx="0" cy="0" r="1" gradientUnits="userSpaceOnUse" gradientTransform="translate(16.1665 22.8379) rotate(180) scale(0.742389 1.01704)">
<stop stop-color="white" stop-opacity="0.54"/>
<stop offset="0.362992" stop-color="white" stop-opacity="0.399429"/>
<stop offset="0.84375" stop-color="white" stop-opacity="0.0916601"/>
<stop offset="1" stop-color="white" stop-opacity="0"/>
</radialGradient>
<radialGradient id="paint52_radial_7159_2153" cx="0" cy="0" r="1" gradientUnits="userSpaceOnUse" gradientTransform="translate(16.0662 21.7807) rotate(121.274) scale(1.23688 1.69446)">
<stop stop-color="white" stop-opacity="0.54"/>
<stop offset="0.329774" stop-color="white" stop-opacity="0.399429"/>
<stop offset="0.84375" stop-color="white" stop-opacity="0.0916601"/>
<stop offset="1" stop-color="white" stop-opacity="0"/>
</radialGradient>
<radialGradient id="paint53_radial_7159_2153" cx="0" cy="0" r="1" gradientUnits="userSpaceOnUse" gradientTransform="translate(16.1325 23.7913) rotate(-179.834) scale(0.864419 1.35413)">
<stop stop-color="white" stop-opacity="0.58"/>
<stop offset="0.388533" stop-color="white" stop-opacity="0.42"/>
<stop offset="0.755398" stop-color="white" stop-opacity="0.0916601"/>
<stop offset="1" stop-color="white" stop-opacity="0"/>
</radialGradient>
<radialGradient id="paint54_radial_7159_2153" cx="0" cy="0" r="1" gradientTransform="matrix(-0.825258 0 -5.96531e-05 -1.15709 16.0888 24.7313)" gradientUnits="userSpaceOnUse">
<stop stop-color="white" stop-opacity="0.68"/>
<stop offset="0.423308" stop-color="white" stop-opacity="0.47"/>
<stop offset="0.755398" stop-color="white" stop-opacity="0.0916601"/>
<stop offset="1" stop-color="white" stop-opacity="0"/>
</radialGradient>
<radialGradient id="paint55_radial_7159_2153" cx="0" cy="0" r="1" gradientUnits="userSpaceOnUse" gradientTransform="translate(13.0044 24.5639) rotate(-180) scale(0.916821 1.05827)">
<stop stop-color="white" stop-opacity="0.85"/>
<stop offset="0.420825" stop-color="white" stop-opacity="0.64"/>
<stop offset="0.664664" stop-color="white" stop-opacity="0.28"/>
<stop offset="0.84375" stop-color="white" stop-opacity="0.0916601"/>
<stop offset="1" stop-color="white" stop-opacity="0"/>
</radialGradient>
<radialGradient id="paint56_radial_7159_2153" cx="0" cy="0" r="1" gradientUnits="userSpaceOnUse" gradientTransform="translate(12.951 23.7709) rotate(180) scale(0.986619 1.13883)">
<stop stop-color="white" stop-opacity="0.85"/>
<stop offset="0.420825" stop-color="white" stop-opacity="0.64"/>
<stop offset="0.664664" stop-color="white" stop-opacity="0.28"/>
<stop offset="0.84375" stop-color="white" stop-opacity="0.0916601"/>
<stop offset="1" stop-color="white" stop-opacity="0"/>
</radialGradient>
<radialGradient id="paint57_radial_7159_2153" cx="0" cy="0" r="1" gradientUnits="userSpaceOnUse" gradientTransform="translate(13.0353 23.2425) rotate(-166.505) scale(1.05779 1.22098)">
<stop stop-color="white" stop-opacity="0.85"/>
<stop offset="0.420825" stop-color="white" stop-opacity="0.64"/>
<stop offset="0.664664" stop-color="white" stop-opacity="0.28"/>
<stop offset="0.84375" stop-color="white" stop-opacity="0.0916601"/>
<stop offset="1" stop-color="white" stop-opacity="0"/>
</radialGradient>
<linearGradient id="paint58_linear_7159_2153" x1="10.6429" y1="15.3072" x2="3.86305" y2="11.7317" gradientUnits="userSpaceOnUse">
<stop stop-color="#E5C9C5" stop-opacity="0"/>
<stop offset="1" stop-color="#FFD099"/>
</linearGradient>
<radialGradient id="paint59_radial_7159_2153" cx="0" cy="0" r="1" gradientUnits="userSpaceOnUse" gradientTransform="translate(14.5 23.9988) rotate(90) scale(1.9992 0.960187)">
<stop stop-color="#7A6E85"/>
<stop offset="1" stop-color="#B29EC2" stop-opacity="0"/>
</radialGradient>
<radialGradient id="paint60_radial_7159_2153" cx="0" cy="0" r="1" gradientUnits="userSpaceOnUse" gradientTransform="translate(17.5 23.9988) rotate(90) scale(1.9992 0.960187)">
<stop stop-color="#7A6E85"/>
<stop offset="1" stop-color="#B29EC2" stop-opacity="0"/>
</radialGradient>
<radialGradient id="paint61_radial_7159_2153" cx="0" cy="0" r="1" gradientTransform="matrix(2.90828 -3.29561 3.89481 3.48723 9.76118 16.9347)" gradientUnits="userSpaceOnUse">
<stop offset="0.444517" stop-color="#3D2C36"/>
<stop offset="1" stop-color="#1A1016"/>
</radialGradient>
<radialGradient id="paint62_radial_7159_2153" cx="0" cy="0" r="1" gradientTransform="matrix(2.85459 -3.29561 3.8229 3.48723 20.2194 16.9347)" gradientUnits="userSpaceOnUse">
<stop offset="0.444517" stop-color="#3D2C36"/>
<stop offset="1" stop-color="#1A1016"/>
</radialGradient>
<radialGradient id="paint63_radial_7159_2153" cx="0" cy="0" r="1" gradientTransform="matrix(0.894854 -1.1984 1.1984 1.26808 15.6957 19.249)" gradientUnits="userSpaceOnUse">
<stop offset="0.444517" stop-color="#3D2C36"/>
<stop offset="1" stop-color="#1A1016"/>
</radialGradient>
</defs>
</svg>
