<svg width="32" height="32" viewBox="0 0 32 32" fill="none" xmlns="http://www.w3.org/2000/svg">
<path d="M15.9989 29.9978C25.3333 29.9978 29.9978 23.7303 29.9978 15.9989C29.9978 8.26751 25.3333 2 15.9989 2C6.66443 2 2 8.26751 2 15.9989C2 23.7303 6.66443 29.9978 15.9989 29.9978Z" fill="url(#paint0_radial_7159_2152)"/>
<path d="M15.9989 29.9978C25.3333 29.9978 29.9978 23.7303 29.9978 15.9989C29.9978 8.26751 25.3333 2 15.9989 2C6.66443 2 2 8.26751 2 15.9989C2 23.7303 6.66443 29.9978 15.9989 29.9978Z" fill="url(#paint1_radial_7159_2152)" fill-opacity="0.6"/>
<path d="M15.9989 29.9978C25.3333 29.9978 29.9978 23.7303 29.9978 15.9989C29.9978 8.26751 25.3333 2 15.9989 2C6.66443 2 2 8.26751 2 15.9989C2 23.7303 6.66443 29.9978 15.9989 29.9978Z" fill="url(#paint2_radial_7159_2152)"/>
<path d="M15.9989 29.9978C25.3333 29.9978 29.9978 23.7303 29.9978 15.9989C29.9978 8.26751 25.3333 2 15.9989 2C6.66443 2 2 8.26751 2 15.9989C2 23.7303 6.66443 29.9978 15.9989 29.9978Z" fill="url(#paint3_radial_7159_2152)"/>
<path d="M15.9989 29.9978C25.3333 29.9978 29.9978 23.7303 29.9978 15.9989C29.9978 8.26751 25.3333 2 15.9989 2C6.66443 2 2 8.26751 2 15.9989C2 23.7303 6.66443 29.9978 15.9989 29.9978Z" fill="url(#paint4_radial_7159_2152)"/>
<path d="M15.9989 29.9978C25.3333 29.9978 29.9978 23.7303 29.9978 15.9989C29.9978 8.26751 25.3333 2 15.9989 2C6.66443 2 2 8.26751 2 15.9989C2 23.7303 6.66443 29.9978 15.9989 29.9978Z" fill="url(#paint5_radial_7159_2152)"/>
<path d="M15.9989 29.9978C25.3333 29.9978 29.9978 23.7303 29.9978 15.9989C29.9978 8.26751 25.3333 2 15.9989 2C6.66443 2 2 8.26751 2 15.9989C2 23.7303 6.66443 29.9978 15.9989 29.9978Z" fill="url(#paint6_radial_7159_2152)"/>
<path d="M15.9989 29.9978C25.3333 29.9978 29.9978 23.7303 29.9978 15.9989C29.9978 8.26751 25.3333 2 15.9989 2C6.66443 2 2 8.26751 2 15.9989C2 23.7303 6.66443 29.9978 15.9989 29.9978Z" fill="url(#paint7_radial_7159_2152)"/>
<path d="M15.9989 29.9978C25.3333 29.9978 29.9978 23.7303 29.9978 15.9989C29.9978 8.26751 25.3333 2 15.9989 2C6.66443 2 2 8.26751 2 15.9989C2 23.7303 6.66443 29.9978 15.9989 29.9978Z" fill="url(#paint8_radial_7159_2152)"/>
<path d="M15.9989 29.9978C25.3333 29.9978 29.9978 23.7303 29.9978 15.9989C29.9978 8.26751 25.3333 2 15.9989 2C6.66443 2 2 8.26751 2 15.9989C2 23.7303 6.66443 29.9978 15.9989 29.9978Z" fill="url(#paint9_radial_7159_2152)"/>
<path d="M15.9989 29.9978C25.3333 29.9978 29.9978 23.7303 29.9978 15.9989C29.9978 8.26751 25.3333 2 15.9989 2C6.66443 2 2 8.26751 2 15.9989C2 23.7303 6.66443 29.9978 15.9989 29.9978Z" fill="url(#paint10_radial_7159_2152)"/>
<path d="M15.9989 29.9978C25.3333 29.9978 29.9978 23.7303 29.9978 15.9989C29.9978 8.26751 25.3333 2 15.9989 2C6.66443 2 2 8.26751 2 15.9989C2 23.7303 6.66443 29.9978 15.9989 29.9978Z" fill="url(#paint11_radial_7159_2152)"/>
<path d="M15.9989 29.9978C25.3333 29.9978 29.9978 23.7303 29.9978 15.9989C29.9978 8.26751 25.3333 2 15.9989 2C6.66443 2 2 8.26751 2 15.9989C2 23.7303 6.66443 29.9978 15.9989 29.9978Z" fill="url(#paint12_radial_7159_2152)"/>
<path d="M15.9989 29.9978C25.3333 29.9978 29.9978 23.7303 29.9978 15.9989C29.9978 8.26751 25.3333 2 15.9989 2C6.66443 2 2 8.26751 2 15.9989C2 23.7303 6.66443 29.9978 15.9989 29.9978Z" fill="url(#paint13_radial_7159_2152)"/>
<path d="M15.9989 29.9978C25.3333 29.9978 29.9978 23.7303 29.9978 15.9989C29.9978 8.26751 25.3333 2 15.9989 2C6.66443 2 2 8.26751 2 15.9989C2 23.7303 6.66443 29.9978 15.9989 29.9978Z" fill="url(#paint14_radial_7159_2152)"/>
<path d="M15.9989 29.9978C25.3333 29.9978 29.9978 23.7303 29.9978 15.9989C29.9978 8.26751 25.3333 2 15.9989 2C6.66443 2 2 8.26751 2 15.9989C2 23.7303 6.66443 29.9978 15.9989 29.9978Z" fill="url(#paint15_radial_7159_2152)"/>
<path d="M15.9989 29.9978C25.3333 29.9978 29.9978 23.7303 29.9978 15.9989C29.9978 8.26751 25.3333 2 15.9989 2C6.66443 2 2 8.26751 2 15.9989C2 23.7303 6.66443 29.9978 15.9989 29.9978Z" fill="url(#paint16_radial_7159_2152)"/>
<path d="M15.9989 29.9978C25.3333 29.9978 29.9978 23.7303 29.9978 15.9989C29.9978 8.26751 25.3333 2 15.9989 2C6.66443 2 2 8.26751 2 15.9989C2 23.7303 6.66443 29.9978 15.9989 29.9978Z" fill="url(#paint17_radial_7159_2152)"/>
<path d="M15.9989 29.9978C25.3333 29.9978 29.9978 23.7303 29.9978 15.9989C29.9978 8.26751 25.3333 2 15.9989 2C6.66443 2 2 8.26751 2 15.9989C2 23.7303 6.66443 29.9978 15.9989 29.9978Z" fill="url(#paint18_radial_7159_2152)"/>
<path d="M15.9989 29.9978C25.3333 29.9978 29.9978 23.7303 29.9978 15.9989C29.9978 8.26751 25.3333 2 15.9989 2C6.66443 2 2 8.26751 2 15.9989C2 23.7303 6.66443 29.9978 15.9989 29.9978Z" fill="url(#paint19_radial_7159_2152)"/>
<path d="M15.9989 29.9978C25.3333 29.9978 29.9978 23.7303 29.9978 15.9989C29.9978 8.26751 25.3333 2 15.9989 2C6.66443 2 2 8.26751 2 15.9989C2 23.7303 6.66443 29.9978 15.9989 29.9978Z" fill="url(#paint20_radial_7159_2152)"/>
<path d="M10.5 13.75C12.8472 13.75 14.75 15.6528 14.75 18C14.75 20.3472 12.8472 22.25 10.5 22.25C8.15279 22.25 6.25 20.3472 6.25 18C6.25 15.6528 8.15279 13.75 10.5 13.75ZM21.5 13.75C23.8472 13.75 25.75 15.6528 25.75 18C25.75 20.3472 23.8472 22.25 21.5 22.25C19.1528 22.25 17.25 20.3472 17.25 18C17.25 15.6528 19.1528 13.75 21.5 13.75Z" fill="white"/>
<path fill-rule="evenodd" clip-rule="evenodd" d="M10.9775 11.0674L10.9768 11.0646L10.9803 11.0774C10.9842 11.0908 10.9911 11.114 11.0014 11.1456C11.0221 11.2088 11.0563 11.3047 11.1069 11.4222C11.2088 11.6589 11.3729 11.9732 11.6193 12.2845C12.0991 12.8905 12.8962 13.5 14.2501 13.5C14.6643 13.5 15.0001 13.8358 15.0001 14.25C15.0001 14.6642 14.6643 15 14.2501 15C12.3539 15 11.151 14.1095 10.4433 13.2155C10.096 12.7768 9.86941 12.3411 9.72916 12.0153C9.65866 11.8516 9.60886 11.7131 9.57585 11.6123C9.55933 11.5618 9.54693 11.5205 9.5382 11.49C9.53384 11.4747 9.53038 11.4621 9.52778 11.4524L9.5245 11.4399L9.52332 11.4354L9.52285 11.4335C9.52224 11.4311 9.52245 11.4319 9.52245 11.4319C9.42199 11.0301 9.66631 10.6229 10.0682 10.5224C10.4688 10.4222 10.8748 10.6648 10.9768 11.0646L10.9771 11.0657L10.9775 11.0674Z" fill="url(#paint21_radial_7159_2152)"/>
<path fill-rule="evenodd" clip-rule="evenodd" d="M10.9775 11.0674L10.9768 11.0646L10.9803 11.0774C10.9842 11.0908 10.9911 11.114 11.0014 11.1456C11.0221 11.2088 11.0563 11.3047 11.1069 11.4222C11.2088 11.6589 11.3729 11.9732 11.6193 12.2845C12.0991 12.8905 12.8962 13.5 14.2501 13.5C14.6643 13.5 15.0001 13.8358 15.0001 14.25C15.0001 14.6642 14.6643 15 14.2501 15C12.3539 15 11.151 14.1095 10.4433 13.2155C10.096 12.7768 9.86941 12.3411 9.72916 12.0153C9.65866 11.8516 9.60886 11.7131 9.57585 11.6123C9.55933 11.5618 9.54693 11.5205 9.5382 11.49C9.53384 11.4747 9.53038 11.4621 9.52778 11.4524L9.5245 11.4399L9.52332 11.4354L9.52285 11.4335C9.52224 11.4311 9.52245 11.4319 9.52245 11.4319C9.42199 11.0301 9.66631 10.6229 10.0682 10.5224C10.4688 10.4222 10.8748 10.6648 10.9768 11.0646L10.9771 11.0657L10.9775 11.0674Z" fill="url(#paint22_radial_7159_2152)"/>
<path fill-rule="evenodd" clip-rule="evenodd" d="M10.9775 11.0674L10.9768 11.0646L10.9803 11.0774C10.9842 11.0908 10.9911 11.114 11.0014 11.1456C11.0221 11.2088 11.0563 11.3047 11.1069 11.4222C11.2088 11.6589 11.3729 11.9732 11.6193 12.2845C12.0991 12.8905 12.8962 13.5 14.2501 13.5C14.6643 13.5 15.0001 13.8358 15.0001 14.25C15.0001 14.6642 14.6643 15 14.2501 15C12.3539 15 11.151 14.1095 10.4433 13.2155C10.096 12.7768 9.86941 12.3411 9.72916 12.0153C9.65866 11.8516 9.60886 11.7131 9.57585 11.6123C9.55933 11.5618 9.54693 11.5205 9.5382 11.49C9.53384 11.4747 9.53038 11.4621 9.52778 11.4524L9.5245 11.4399L9.52332 11.4354L9.52285 11.4335C9.52224 11.4311 9.52245 11.4319 9.52245 11.4319C9.42199 11.0301 9.66631 10.6229 10.0682 10.5224C10.4688 10.4222 10.8748 10.6648 10.9768 11.0646L10.9771 11.0657L10.9775 11.0674Z" fill="url(#paint23_radial_7159_2152)"/>
<path fill-rule="evenodd" clip-rule="evenodd" d="M21.0225 11.0674L21.0232 11.0646L21.0197 11.0774C21.0158 11.0908 21.0089 11.114 20.9986 11.1456C20.9779 11.2088 20.9437 11.3047 20.8931 11.4222C20.7912 11.6589 20.6271 11.9732 20.3807 12.2845C19.9009 12.8905 19.1038 13.5 17.7499 13.5C17.3357 13.5 16.9999 13.8358 16.9999 14.25C16.9999 14.6642 17.3357 15 17.7499 15C19.6461 15 20.849 14.1095 21.5567 13.2155C21.904 12.7768 22.1306 12.3411 22.2708 12.0153C22.3413 11.8516 22.3911 11.7131 22.4241 11.6123C22.4407 11.5618 22.4531 11.5205 22.4618 11.49C22.4662 11.4747 22.4696 11.4621 22.4722 11.4524L22.4755 11.4399L22.4767 11.4354L22.4772 11.4335C22.4777 11.4313 22.4776 11.4319 22.4776 11.4319C22.578 11.0301 22.3337 10.6229 21.9318 10.5224C21.5312 10.4222 21.1252 10.6648 21.0232 11.0646L21.0229 11.0657L21.0225 11.0674Z" fill="url(#paint24_linear_7159_2152)"/>
<path fill-rule="evenodd" clip-rule="evenodd" d="M21.0225 11.0674L21.0232 11.0646L21.0197 11.0774C21.0158 11.0908 21.0089 11.114 20.9986 11.1456C20.9779 11.2088 20.9437 11.3047 20.8931 11.4222C20.7912 11.6589 20.6271 11.9732 20.3807 12.2845C19.9009 12.8905 19.1038 13.5 17.7499 13.5C17.3357 13.5 16.9999 13.8358 16.9999 14.25C16.9999 14.6642 17.3357 15 17.7499 15C19.6461 15 20.849 14.1095 21.5567 13.2155C21.904 12.7768 22.1306 12.3411 22.2708 12.0153C22.3413 11.8516 22.3911 11.7131 22.4241 11.6123C22.4407 11.5618 22.4531 11.5205 22.4618 11.49C22.4662 11.4747 22.4696 11.4621 22.4722 11.4524L22.4755 11.4399L22.4767 11.4354L22.4772 11.4335C22.4777 11.4313 22.4776 11.4319 22.4776 11.4319C22.578 11.0301 22.3337 10.6229 21.9318 10.5224C21.5312 10.4222 21.1252 10.6648 21.0232 11.0646L21.0229 11.0657L21.0225 11.0674Z" fill="url(#paint25_radial_7159_2152)"/>
<path fill-rule="evenodd" clip-rule="evenodd" d="M21.0225 11.0674L21.0232 11.0646L21.0197 11.0774C21.0158 11.0908 21.0089 11.114 20.9986 11.1456C20.9779 11.2088 20.9437 11.3047 20.8931 11.4222C20.7912 11.6589 20.6271 11.9732 20.3807 12.2845C19.9009 12.8905 19.1038 13.5 17.7499 13.5C17.3357 13.5 16.9999 13.8358 16.9999 14.25C16.9999 14.6642 17.3357 15 17.7499 15C19.6461 15 20.849 14.1095 21.5567 13.2155C21.904 12.7768 22.1306 12.3411 22.2708 12.0153C22.3413 11.8516 22.3911 11.7131 22.4241 11.6123C22.4407 11.5618 22.4531 11.5205 22.4618 11.49C22.4662 11.4747 22.4696 11.4621 22.4722 11.4524L22.4755 11.4399L22.4767 11.4354L22.4772 11.4335C22.4777 11.4313 22.4776 11.4319 22.4776 11.4319C22.578 11.0301 22.3337 10.6229 21.9318 10.5224C21.5312 10.4222 21.1252 10.6648 21.0232 11.0646L21.0229 11.0657L21.0225 11.0674Z" fill="url(#paint26_radial_7159_2152)"/>
<path fill-rule="evenodd" clip-rule="evenodd" d="M21.0225 11.0674L21.0232 11.0646L21.0197 11.0774C21.0158 11.0908 21.0089 11.114 20.9986 11.1456C20.9779 11.2088 20.9437 11.3047 20.8931 11.4222C20.7912 11.6589 20.6271 11.9732 20.3807 12.2845C19.9009 12.8905 19.1038 13.5 17.7499 13.5C17.3357 13.5 16.9999 13.8358 16.9999 14.25C16.9999 14.6642 17.3357 15 17.7499 15C19.6461 15 20.849 14.1095 21.5567 13.2155C21.904 12.7768 22.1306 12.3411 22.2708 12.0153C22.3413 11.8516 22.3911 11.7131 22.4241 11.6123C22.4407 11.5618 22.4531 11.5205 22.4618 11.49C22.4662 11.4747 22.4696 11.4621 22.4722 11.4524L22.4755 11.4399L22.4767 11.4354L22.4772 11.4335C22.4777 11.4313 22.4776 11.4319 22.4776 11.4319C22.578 11.0301 22.3337 10.6229 21.9318 10.5224C21.5312 10.4222 21.1252 10.6648 21.0232 11.0646L21.0229 11.0657L21.0225 11.0674Z" fill="url(#paint27_radial_7159_2152)" fill-opacity="0.6"/>
<path d="M8 6C8 6 5.60778 5.26667 4.45778 3.22667C4.17778 2.71667 3.85778 3.22667 3.85778 3.22667C3.85778 3.22667 1.84997 7 3.99997 11C4.25997 11.69 5.51 12 6.5 12C8.29 12 9.60777 10.4667 9.60777 8.68667C9.61777 7.46667 9.08 6.36 8 6Z" fill="url(#paint28_radial_7159_2152)"/>
<path d="M8 6C8 6 5.60778 5.26667 4.45778 3.22667C4.17778 2.71667 3.85778 3.22667 3.85778 3.22667C3.85778 3.22667 1.84997 7 3.99997 11C4.25997 11.69 5.51 12 6.5 12C8.29 12 9.60777 10.4667 9.60777 8.68667C9.61777 7.46667 9.08 6.36 8 6Z" fill="url(#paint29_radial_7159_2152)"/>
<path d="M24.0061 6C24.0061 6 26.3983 5.26667 27.5483 3.22667C27.8283 2.71667 28.1483 3.22667 28.1483 3.22667C28.1483 3.22667 30.1561 7 28.0061 11C27.7461 11.69 26.4961 12 25.5061 12C23.7161 12 22.3983 10.4667 22.3983 8.68667C22.3883 7.46667 22.9261 6.36 24.0061 6Z" fill="url(#paint30_radial_7159_2152)"/>
<path d="M24.0061 6C24.0061 6 26.3983 5.26667 27.5483 3.22667C27.8283 2.71667 28.1483 3.22667 28.1483 3.22667C28.1483 3.22667 30.1561 7 28.0061 11C27.7461 11.69 26.4961 12 25.5061 12C23.7161 12 22.3983 10.4667 22.3983 8.68667C22.3883 7.46667 22.9261 6.36 24.0061 6Z" fill="url(#paint31_radial_7159_2152)"/>
<path d="M24.0061 6C24.0061 6 26.3983 5.26667 27.5483 3.22667C27.8283 2.71667 28.1483 3.22667 28.1483 3.22667C28.1483 3.22667 30.1561 7 28.0061 11C27.7461 11.69 26.4961 12 25.5061 12C23.7161 12 22.3983 10.4667 22.3983 8.68667C22.3883 7.46667 22.9261 6.36 24.0061 6Z" fill="url(#paint32_radial_7159_2152)"/>
<path d="M24.0061 6C24.0061 6 26.3983 5.26667 27.5483 3.22667C27.8283 2.71667 28.1483 3.22667 28.1483 3.22667C28.1483 3.22667 30.1561 7 28.0061 11C27.7461 11.69 26.4961 12 25.5061 12C23.7161 12 22.3983 10.4667 22.3983 8.68667C22.3883 7.46667 22.9261 6.36 24.0061 6Z" fill="url(#paint33_radial_7159_2152)"/>
<path d="M24.0061 6C24.0061 6 26.3983 5.26667 27.5483 3.22667C27.8283 2.71667 28.1483 3.22667 28.1483 3.22667C28.1483 3.22667 30.1561 7 28.0061 11C27.7461 11.69 26.4961 12 25.5061 12C23.7161 12 22.3983 10.4667 22.3983 8.68667C22.3883 7.46667 22.9261 6.36 24.0061 6Z" fill="url(#paint34_radial_7159_2152)"/>
<path d="M12 16.5C12.8284 16.5 13.5 17.1716 13.5 18C13.5 18.8284 12.8284 19.5 12 19.5C11.1716 19.5 10.5 18.8284 10.5 18C10.5 17.1716 11.1716 16.5 12 16.5ZM20 16.5C20.8284 16.5 21.5 17.1716 21.5 18C21.5 18.8284 20.8284 19.5 20 19.5C19.1716 19.5 18.5 18.8284 18.5 18C18.5 17.1716 19.1716 16.5 20 16.5Z" fill="url(#paint35_linear_7159_2152)"/>
<path fill-rule="evenodd" clip-rule="evenodd" d="M12.7724 24.3649C12.4257 23.943 11.8031 23.877 11.3753 24.2192C10.9441 24.5642 10.8742 25.1935 11.2192 25.6247L11.2199 25.6256L11.2206 25.6265L11.2222 25.6285L11.2257 25.6328L11.2341 25.6431C11.2404 25.6506 11.248 25.6596 11.2568 25.6699C11.2746 25.6905 11.2976 25.7164 11.326 25.7468C11.3828 25.8076 11.4612 25.8867 11.5623 25.9777C11.7644 26.1596 12.058 26.3899 12.4503 26.6162C13.2409 27.0724 14.412 27.5 16 27.5C17.5881 27.5 18.7591 27.0724 19.5498 26.6162C19.9421 26.3899 20.2357 26.1596 20.4378 25.9777C20.5388 25.8867 20.6173 25.8076 20.6741 25.7468C20.7025 25.7164 20.7255 25.6905 20.7432 25.6699C20.7521 25.6596 20.7597 25.6506 20.766 25.6431L20.7744 25.6328L20.7779 25.6285L20.7795 25.6265L20.7802 25.6256L20.7809 25.6247C21.1259 25.1935 21.056 24.5642 20.6247 24.2192C20.197 23.877 19.5744 23.943 19.2276 24.3649C19.2255 24.3674 19.2202 24.3733 19.212 24.3822C19.1922 24.4034 19.155 24.4415 19.0998 24.4911C18.9894 24.5905 18.808 24.7352 18.5503 24.8839C18.0409 25.1777 17.212 25.5 16 25.5C14.7881 25.5 13.9591 25.1777 13.4498 24.8839C13.1921 24.7352 13.0107 24.5905 12.9003 24.4911C12.8451 24.4415 12.8079 24.4034 12.7881 24.3822C12.7798 24.3733 12.7746 24.3674 12.7724 24.3649Z" fill="url(#paint36_radial_7159_2152)"/>
<path fill-rule="evenodd" clip-rule="evenodd" d="M12.7724 24.3649C12.4257 23.943 11.8031 23.877 11.3753 24.2192C10.9441 24.5642 10.8742 25.1935 11.2192 25.6247L11.2199 25.6256L11.2206 25.6265L11.2222 25.6285L11.2257 25.6328L11.2341 25.6431C11.2404 25.6506 11.248 25.6596 11.2568 25.6699C11.2746 25.6905 11.2976 25.7164 11.326 25.7468C11.3828 25.8076 11.4612 25.8867 11.5623 25.9777C11.7644 26.1596 12.058 26.3899 12.4503 26.6162C13.2409 27.0724 14.412 27.5 16 27.5C17.5881 27.5 18.7591 27.0724 19.5498 26.6162C19.9421 26.3899 20.2357 26.1596 20.4378 25.9777C20.5388 25.8867 20.6173 25.8076 20.6741 25.7468C20.7025 25.7164 20.7255 25.6905 20.7432 25.6699C20.7521 25.6596 20.7597 25.6506 20.766 25.6431L20.7744 25.6328L20.7779 25.6285L20.7795 25.6265L20.7802 25.6256L20.7809 25.6247C21.1259 25.1935 21.056 24.5642 20.6247 24.2192C20.197 23.877 19.5744 23.943 19.2276 24.3649C19.2255 24.3674 19.2202 24.3733 19.212 24.3822C19.1922 24.4034 19.155 24.4415 19.0998 24.4911C18.9894 24.5905 18.808 24.7352 18.5503 24.8839C18.0409 25.1777 17.212 25.5 16 25.5C14.7881 25.5 13.9591 25.1777 13.4498 24.8839C13.1921 24.7352 13.0107 24.5905 12.9003 24.4911C12.8451 24.4415 12.8079 24.4034 12.7881 24.3822C12.7798 24.3733 12.7746 24.3674 12.7724 24.3649Z" fill="url(#paint37_radial_7159_2152)"/>
<path fill-rule="evenodd" clip-rule="evenodd" d="M12.7724 24.3649C12.4257 23.943 11.8031 23.877 11.3753 24.2192C10.9441 24.5642 10.8742 25.1935 11.2192 25.6247L11.2199 25.6256L11.2206 25.6265L11.2222 25.6285L11.2257 25.6328L11.2341 25.6431C11.2404 25.6506 11.248 25.6596 11.2568 25.6699C11.2746 25.6905 11.2976 25.7164 11.326 25.7468C11.3828 25.8076 11.4612 25.8867 11.5623 25.9777C11.7644 26.1596 12.058 26.3899 12.4503 26.6162C13.2409 27.0724 14.412 27.5 16 27.5C17.5881 27.5 18.7591 27.0724 19.5498 26.6162C19.9421 26.3899 20.2357 26.1596 20.4378 25.9777C20.5388 25.8867 20.6173 25.8076 20.6741 25.7468C20.7025 25.7164 20.7255 25.6905 20.7432 25.6699C20.7521 25.6596 20.7597 25.6506 20.766 25.6431L20.7744 25.6328L20.7779 25.6285L20.7795 25.6265L20.7802 25.6256L20.7809 25.6247C21.1259 25.1935 21.056 24.5642 20.6247 24.2192C20.197 23.877 19.5744 23.943 19.2276 24.3649C19.2255 24.3674 19.2202 24.3733 19.212 24.3822C19.1922 24.4034 19.155 24.4415 19.0998 24.4911C18.9894 24.5905 18.808 24.7352 18.5503 24.8839C18.0409 25.1777 17.212 25.5 16 25.5C14.7881 25.5 13.9591 25.1777 13.4498 24.8839C13.1921 24.7352 13.0107 24.5905 12.9003 24.4911C12.8451 24.4415 12.8079 24.4034 12.7881 24.3822C12.7798 24.3733 12.7746 24.3674 12.7724 24.3649Z" fill="url(#paint38_radial_7159_2152)"/>
<defs>
<radialGradient id="paint0_radial_7159_2152" cx="0" cy="0" r="1" gradientUnits="userSpaceOnUse" gradientTransform="translate(21.5 10) rotate(94.5739) scale(25.0799)">
<stop stop-color="#BA64DD"/>
<stop offset="0.514303" stop-color="#A44ECD"/>
<stop offset="0.71368" stop-color="#8D36B9"/>
<stop offset="0.888763" stop-color="#6C2997"/>
</radialGradient>
<radialGradient id="paint1_radial_7159_2152" cx="0" cy="0" r="1" gradientUnits="userSpaceOnUse" gradientTransform="translate(16 16) rotate(135) scale(15.5563)">
<stop offset="0.842441" stop-color="#BD70F3" stop-opacity="0"/>
<stop offset="1" stop-color="#C175F8"/>
</radialGradient>
<radialGradient id="paint2_radial_7159_2152" cx="0" cy="0" r="1" gradientUnits="userSpaceOnUse" gradientTransform="translate(10 17.5) rotate(84.8056) scale(5.52268)">
<stop stop-color="#4E186F"/>
<stop offset="1" stop-color="#4E186F" stop-opacity="0"/>
</radialGradient>
<radialGradient id="paint3_radial_7159_2152" cx="0" cy="0" r="1" gradientUnits="userSpaceOnUse" gradientTransform="translate(21.4025 18.075) rotate(113.416) scale(4.87994 4.65778)">
<stop offset="0.405346" stop-color="#4E186F"/>
<stop offset="1" stop-color="#4E186F" stop-opacity="0"/>
</radialGradient>
<radialGradient id="paint4_radial_7159_2152" cx="0" cy="0" r="1" gradientUnits="userSpaceOnUse" gradientTransform="translate(2 11) rotate(12.5288) scale(4.60977 9.44423)">
<stop stop-color="#7F57B9"/>
<stop offset="1" stop-color="#7F57B9" stop-opacity="0"/>
</radialGradient>
<radialGradient id="paint5_radial_7159_2152" cx="0" cy="0" r="1" gradientUnits="userSpaceOnUse" gradientTransform="translate(24.5 10.5) rotate(126.87) scale(5 6.63461)">
<stop stop-color="#DC94FF"/>
<stop offset="1" stop-color="#CC7CEF" stop-opacity="0"/>
</radialGradient>
<radialGradient id="paint6_radial_7159_2152" cx="0" cy="0" r="1" gradientUnits="userSpaceOnUse" gradientTransform="translate(8.44339 6.34094) rotate(113.208) scale(1.62822 2.94978)">
<stop stop-color="#B861D7"/>
<stop offset="1" stop-color="#B861D7" stop-opacity="0"/>
</radialGradient>
<radialGradient id="paint7_radial_7159_2152" cx="0" cy="0" r="1" gradientUnits="userSpaceOnUse" gradientTransform="translate(9.48303 8.18537) rotate(167.125) scale(0.820805 1.86703)">
<stop stop-color="#C676EA"/>
<stop offset="1" stop-color="#C676EA" stop-opacity="0"/>
</radialGradient>
<radialGradient id="paint8_radial_7159_2152" cx="0" cy="0" r="1" gradientUnits="userSpaceOnUse" gradientTransform="translate(9.44758 8.94376) rotate(-172.875) scale(0.819312 1.39902)">
<stop stop-color="#CA7BEE"/>
<stop offset="1" stop-color="#CA7BEE" stop-opacity="0"/>
</radialGradient>
<radialGradient id="paint9_radial_7159_2152" cx="0" cy="0" r="1" gradientUnits="userSpaceOnUse" gradientTransform="translate(2 9.45156) rotate(99.6956) scale(4.76684 3.05979)">
<stop stop-color="#9178BA"/>
<stop offset="1" stop-color="#9178BA" stop-opacity="0"/>
</radialGradient>
<radialGradient id="paint10_radial_7159_2152" cx="0" cy="0" r="1" gradientUnits="userSpaceOnUse" gradientTransform="translate(3.63508 10.5734) rotate(90) scale(0.696262 0.251286)">
<stop stop-color="#9075B9"/>
<stop offset="1" stop-color="#9075B9" stop-opacity="0"/>
</radialGradient>
<radialGradient id="paint11_radial_7159_2152" cx="0" cy="0" r="1" gradientUnits="userSpaceOnUse" gradientTransform="translate(10.593 13.1589) rotate(49.5246) scale(3.14633 1.6883)">
<stop stop-color="#6F3292"/>
<stop offset="1" stop-color="#6F3292" stop-opacity="0"/>
</radialGradient>
<radialGradient id="paint12_radial_7159_2152" cx="0" cy="0" r="1" gradientUnits="userSpaceOnUse" gradientTransform="translate(18.1576 14.8452) rotate(169.966) scale(1.8432 1.39248)">
<stop stop-color="#8331B0"/>
<stop offset="1" stop-color="#8330B0" stop-opacity="0"/>
</radialGradient>
<radialGradient id="paint13_radial_7159_2152" cx="0" cy="0" r="1" gradientUnits="userSpaceOnUse" gradientTransform="translate(20.1455 13.0569) rotate(-158.797) scale(0.842318 1.78972)">
<stop stop-color="#8331B0"/>
<stop offset="1" stop-color="#8330B0" stop-opacity="0"/>
</radialGradient>
<radialGradient id="paint14_radial_7159_2152" cx="0" cy="0" r="1" gradientUnits="userSpaceOnUse" gradientTransform="translate(19.2327 13.7072) rotate(-142.869) scale(0.688 1.33672)">
<stop stop-color="#8331B0"/>
<stop offset="1" stop-color="#8330B0" stop-opacity="0"/>
</radialGradient>
<radialGradient id="paint15_radial_7159_2152" cx="0" cy="0" r="1" gradientUnits="userSpaceOnUse" gradientTransform="translate(21.1948 11.6352) rotate(-148.57) scale(0.999664)">
<stop stop-color="#8331B0"/>
<stop offset="1" stop-color="#8330B0" stop-opacity="0"/>
</radialGradient>
<radialGradient id="paint16_radial_7159_2152" cx="0" cy="0" r="1" gradientUnits="userSpaceOnUse" gradientTransform="translate(26.236 11.1631) rotate(166.645) scale(2.70446 1.38969)">
<stop offset="0.616659" stop-color="#B14CE4"/>
<stop offset="1" stop-color="#B14CE4" stop-opacity="0"/>
</radialGradient>
<radialGradient id="paint17_radial_7159_2152" cx="0" cy="0" r="1" gradientUnits="userSpaceOnUse" gradientTransform="translate(23.6964 10.6646) rotate(-129.987) scale(2.06622 1.06173)">
<stop offset="0.616659" stop-color="#B14CE4"/>
<stop offset="1" stop-color="#B14CE4" stop-opacity="0"/>
</radialGradient>
<radialGradient id="paint18_radial_7159_2152" cx="0" cy="0" r="1" gradientUnits="userSpaceOnUse" gradientTransform="translate(23.1147 8.56145) rotate(-87.4923) scale(2.27768 1.36822)">
<stop offset="0.616659" stop-color="#B14CE4"/>
<stop offset="1" stop-color="#B14CE4" stop-opacity="0"/>
</radialGradient>
<radialGradient id="paint19_radial_7159_2152" cx="0" cy="0" r="1" gradientUnits="userSpaceOnUse" gradientTransform="translate(23.1407 7.52717) rotate(-70.2239) scale(1.68028 1.16885)">
<stop offset="0.616659" stop-color="#B14CE4"/>
<stop offset="1" stop-color="#B14CE4" stop-opacity="0"/>
</radialGradient>
<radialGradient id="paint20_radial_7159_2152" cx="0" cy="0" r="1" gradientUnits="userSpaceOnUse" gradientTransform="translate(25.2244 9.01467) rotate(104.56) scale(4.09118)">
<stop offset="0.718965" stop-color="#B14CE4"/>
<stop offset="1" stop-color="#B14CE4" stop-opacity="0"/>
</radialGradient>
<radialGradient id="paint21_radial_7159_2152" cx="0" cy="0" r="1" gradientUnits="userSpaceOnUse" gradientTransform="translate(13.2789 11.3173) rotate(-49.1446) scale(4.06762 5.81684)">
<stop offset="0.423728" stop-color="#3B2A3A"/>
<stop offset="0.556723" stop-color="#4D414B"/>
<stop offset="0.64586" stop-color="#4D414B"/>
<stop offset="0.791667" stop-color="#481E58"/>
<stop offset="0.833333" stop-color="#49404A"/>
</radialGradient>
<radialGradient id="paint22_radial_7159_2152" cx="0" cy="0" r="1" gradientUnits="userSpaceOnUse" gradientTransform="translate(10.7366 14.3096) rotate(-53.441) scale(7.03062 6.42911)">
<stop offset="0.484115" stop-color="#362839" stop-opacity="0"/>
<stop offset="0.591432" stop-color="#362839"/>
</radialGradient>
<radialGradient id="paint23_radial_7159_2152" cx="0" cy="0" r="1" gradientUnits="userSpaceOnUse" gradientTransform="translate(14.5499 14.1177) rotate(-135) scale(0.789533)">
<stop stop-color="#645560"/>
<stop offset="1" stop-color="#4F434C" stop-opacity="0"/>
</radialGradient>
<linearGradient id="paint24_linear_7159_2152" x1="20.4999" y1="11" x2="20.4999" y2="12.5" gradientUnits="userSpaceOnUse">
<stop offset="0.0299084" stop-color="#524049"/>
<stop offset="1" stop-color="#4A2C42"/>
</linearGradient>
<radialGradient id="paint25_radial_7159_2152" cx="0" cy="0" r="1" gradientUnits="userSpaceOnUse" gradientTransform="translate(18.7211 11.3173) rotate(-130.855) scale(4.06762 5.81684)">
<stop offset="0.423728" stop-color="#3B2A3A"/>
<stop offset="0.556723" stop-color="#4D414B"/>
<stop offset="0.64586" stop-color="#4D414B"/>
<stop offset="0.791667" stop-color="#481E58"/>
<stop offset="0.833333" stop-color="#49404A"/>
</radialGradient>
<radialGradient id="paint26_radial_7159_2152" cx="0" cy="0" r="1" gradientUnits="userSpaceOnUse" gradientTransform="translate(21.2634 14.3096) rotate(-126.559) scale(7.03062 6.42911)">
<stop offset="0.484115" stop-color="#362839" stop-opacity="0"/>
<stop offset="0.591432" stop-color="#362839"/>
</radialGradient>
<radialGradient id="paint27_radial_7159_2152" cx="0" cy="0" r="1" gradientUnits="userSpaceOnUse" gradientTransform="translate(21.905 10.9792) rotate(123.071) scale(0.563326 0.947149)">
<stop stop-color="#645560"/>
<stop offset="1" stop-color="#4F434C" stop-opacity="0"/>
</radialGradient>
<radialGradient id="paint28_radial_7159_2152" cx="0" cy="0" r="1" gradientUnits="userSpaceOnUse" gradientTransform="translate(12 1.5) rotate(165.379) scale(11.8849 11.8849)">
<stop offset="0.534295" stop-color="#B760D6"/>
<stop offset="0.626239" stop-color="#C97AED"/>
<stop offset="0.6709" stop-color="#C97AED"/>
<stop offset="0.804748" stop-color="#A042D7"/>
</radialGradient>
<radialGradient id="paint29_radial_7159_2152" cx="0" cy="0" r="1" gradientUnits="userSpaceOnUse" gradientTransform="translate(7.96921 7.2153) rotate(73.189) scale(8.3076 6.09388)">
<stop offset="0.625" stop-color="#7A47B4" stop-opacity="0"/>
<stop offset="1" stop-color="#8154B3"/>
</radialGradient>
<radialGradient id="paint30_radial_7159_2152" cx="0" cy="0" r="1" gradientUnits="userSpaceOnUse" gradientTransform="translate(23.1709 4.36884) rotate(-81.6492) scale(8.62753)">
<stop offset="0.338542" stop-color="#9149B7"/>
<stop offset="0.567708" stop-color="#B04BE3"/>
</radialGradient>
<radialGradient id="paint31_radial_7159_2152" cx="0" cy="0" r="1" gradientUnits="userSpaceOnUse" gradientTransform="translate(22.3982 6.25269) rotate(76.7572) scale(3.30723 1.69995)">
<stop stop-color="#B24DE5"/>
<stop offset="1" stop-color="#B24DE4" stop-opacity="0"/>
</radialGradient>
<radialGradient id="paint32_radial_7159_2152" cx="0" cy="0" r="1" gradientUnits="userSpaceOnUse" gradientTransform="translate(22.3982 6.97642) rotate(79.2742) scale(2.74847 1.41274)">
<stop stop-color="#B24DE5"/>
<stop offset="1" stop-color="#B24DE4" stop-opacity="0"/>
</radialGradient>
<radialGradient id="paint33_radial_7159_2152" cx="0" cy="0" r="1" gradientUnits="userSpaceOnUse" gradientTransform="translate(28 4.5) rotate(103.134) scale(15.4029 5.28047)">
<stop stop-color="#B676D6"/>
<stop offset="0.305394" stop-color="#B676D6" stop-opacity="0"/>
</radialGradient>
<radialGradient id="paint34_radial_7159_2152" cx="0" cy="0" r="1" gradientUnits="userSpaceOnUse" gradientTransform="translate(27.9607 4.47596) rotate(94.9697) scale(2.26048 0.564298)">
<stop stop-color="#CB81E9"/>
<stop offset="1" stop-color="#CB81E9" stop-opacity="0"/>
</radialGradient>
<linearGradient id="paint35_linear_7159_2152" x1="20.2308" y1="16.5" x2="19.804" y2="19.5513" gradientUnits="userSpaceOnUse">
<stop stop-color="#553B3E"/>
<stop offset="1" stop-color="#3D2432"/>
</linearGradient>
<radialGradient id="paint36_radial_7159_2152" cx="0" cy="0" r="1" gradientUnits="userSpaceOnUse" gradientTransform="translate(16 22.6304) rotate(90) scale(12.1023 17.1349)">
<stop offset="0.205066" stop-color="#362338"/>
<stop offset="0.286855" stop-color="#4F3F50"/>
<stop offset="0.31008" stop-color="#4F3F50"/>
<stop offset="0.408068" stop-color="#49235A"/>
</radialGradient>
<radialGradient id="paint37_radial_7159_2152" cx="0" cy="0" r="1" gradientUnits="userSpaceOnUse" gradientTransform="translate(16 25.1433) rotate(90) scale(6.90382 6.94584)">
<stop offset="0.483976" stop-color="#3C2846" stop-opacity="0"/>
<stop offset="0.734375" stop-color="#3C2846"/>
</radialGradient>
<radialGradient id="paint38_radial_7159_2152" cx="0" cy="0" r="1" gradientUnits="userSpaceOnUse" gradientTransform="translate(20.403 24.7215) rotate(54.0579) scale(1.11858 0.661711)">
<stop stop-color="#52484E"/>
<stop offset="1" stop-color="#51474D" stop-opacity="0"/>
</radialGradient>
</defs>
</svg>
