<svg width="32" height="32" viewBox="0 0 32 32" fill="none" xmlns="http://www.w3.org/2000/svg">
<path d="M15.9989 29.9978C25.3333 29.9978 29.9978 23.7303 29.9978 15.9989C29.9978 8.26751 25.3333 2 15.9989 2C6.66443 2 2 8.26751 2 15.9989C2 23.7303 6.66443 29.9978 15.9989 29.9978Z" fill="url(#paint0_radial_7159_2146)"/>
<path d="M15.9989 29.9978C25.3333 29.9978 29.9978 23.7303 29.9978 15.9989C29.9978 8.26751 25.3333 2 15.9989 2C6.66443 2 2 8.26751 2 15.9989C2 23.7303 6.66443 29.9978 15.9989 29.9978Z" fill="url(#paint1_radial_7159_2146)"/>
<path d="M15.9989 29.9978C25.3333 29.9978 29.9978 23.7303 29.9978 15.9989C29.9978 8.26751 25.3333 2 15.9989 2C6.66443 2 2 8.26751 2 15.9989C2 23.7303 6.66443 29.9978 15.9989 29.9978Z" fill="url(#paint2_radial_7159_2146)" fill-opacity="0.6"/>
<path d="M15.9989 29.9978C25.3333 29.9978 29.9978 23.7303 29.9978 15.9989C29.9978 8.26751 25.3333 2 15.9989 2C6.66443 2 2 8.26751 2 15.9989C2 23.7303 6.66443 29.9978 15.9989 29.9978Z" fill="url(#paint3_radial_7159_2146)" fill-opacity="0.67"/>
<path d="M15.9989 29.9978C25.3333 29.9978 29.9978 23.7303 29.9978 15.9989C29.9978 8.26751 25.3333 2 15.9989 2C6.66443 2 2 8.26751 2 15.9989C2 23.7303 6.66443 29.9978 15.9989 29.9978Z" fill="url(#paint4_radial_7159_2146)" style="mix-blend-mode:multiply"/>
<path d="M15.9989 29.9978C25.3333 29.9978 29.9978 23.7303 29.9978 15.9989C29.9978 8.26751 25.3333 2 15.9989 2C6.66443 2 2 8.26751 2 15.9989C2 23.7303 6.66443 29.9978 15.9989 29.9978Z" fill="url(#paint5_radial_7159_2146)" fill-opacity="0.45"/>
<path d="M15.9989 29.9978C25.3333 29.9978 29.9978 23.7303 29.9978 15.9989C29.9978 8.26751 25.3333 2 15.9989 2C6.66443 2 2 8.26751 2 15.9989C2 23.7303 6.66443 29.9978 15.9989 29.9978Z" fill="url(#paint6_radial_7159_2146)" fill-opacity="0.45"/>
<path d="M15.9989 29.9978C25.3333 29.9978 29.9978 23.7303 29.9978 15.9989C29.9978 8.26751 25.3333 2 15.9989 2C6.66443 2 2 8.26751 2 15.9989C2 23.7303 6.66443 29.9978 15.9989 29.9978Z" fill="url(#paint7_radial_7159_2146)" fill-opacity="0.45"/>
<path d="M15.9989 29.9978C25.3333 29.9978 29.9978 23.7303 29.9978 15.9989C29.9978 8.26751 25.3333 2 15.9989 2C6.66443 2 2 8.26751 2 15.9989C2 23.7303 6.66443 29.9978 15.9989 29.9978Z" fill="url(#paint8_radial_7159_2146)" fill-opacity="0.45"/>
<path d="M15.9989 29.9978C25.3333 29.9978 29.9978 23.7303 29.9978 15.9989C29.9978 8.26751 25.3333 2 15.9989 2C6.66443 2 2 8.26751 2 15.9989C2 23.7303 6.66443 29.9978 15.9989 29.9978Z" fill="url(#paint9_radial_7159_2146)" fill-opacity="0.45"/>
<path d="M15.9989 29.9978C25.3333 29.9978 29.9978 23.7303 29.9978 15.9989C29.9978 8.26751 25.3333 2 15.9989 2C6.66443 2 2 8.26751 2 15.9989C2 23.7303 6.66443 29.9978 15.9989 29.9978Z" fill="url(#paint10_radial_7159_2146)" fill-opacity="0.45"/>
<path d="M15.9989 29.9978C25.3333 29.9978 29.9978 23.7303 29.9978 15.9989C29.9978 8.26751 25.3333 2 15.9989 2C6.66443 2 2 8.26751 2 15.9989C2 23.7303 6.66443 29.9978 15.9989 29.9978Z" fill="url(#paint11_radial_7159_2146)" fill-opacity="0.45"/>
<path d="M15.9989 29.9978C25.3333 29.9978 29.9978 23.7303 29.9978 15.9989C29.9978 8.26751 25.3333 2 15.9989 2C6.66443 2 2 8.26751 2 15.9989C2 23.7303 6.66443 29.9978 15.9989 29.9978Z" fill="url(#paint12_radial_7159_2146)" fill-opacity="0.45"/>
<path d="M15.9989 29.9978C25.3333 29.9978 29.9978 23.7303 29.9978 15.9989C29.9978 8.26751 25.3333 2 15.9989 2C6.66443 2 2 8.26751 2 15.9989C2 23.7303 6.66443 29.9978 15.9989 29.9978Z" fill="url(#paint13_radial_7159_2146)" fill-opacity="0.45"/>
<path d="M15.9989 29.9978C25.3333 29.9978 29.9978 23.7303 29.9978 15.9989C29.9978 8.26751 25.3333 2 15.9989 2C6.66443 2 2 8.26751 2 15.9989C2 23.7303 6.66443 29.9978 15.9989 29.9978Z" fill="url(#paint14_radial_7159_2146)" fill-opacity="0.3"/>
<path d="M15.9989 29.9978C25.3333 29.9978 29.9978 23.7303 29.9978 15.9989C29.9978 8.26751 25.3333 2 15.9989 2C6.66443 2 2 8.26751 2 15.9989C2 23.7303 6.66443 29.9978 15.9989 29.9978Z" fill="url(#paint15_radial_7159_2146)" fill-opacity="0.45"/>
<path d="M15.9989 29.9978C25.3333 29.9978 29.9978 23.7303 29.9978 15.9989C29.9978 8.26751 25.3333 2 15.9989 2C6.66443 2 2 8.26751 2 15.9989C2 23.7303 6.66443 29.9978 15.9989 29.9978Z" fill="url(#paint16_radial_7159_2146)" fill-opacity="0.45"/>
<path d="M15.9989 29.9978C25.3333 29.9978 29.9978 23.7303 29.9978 15.9989C29.9978 8.26751 25.3333 2 15.9989 2C6.66443 2 2 8.26751 2 15.9989C2 23.7303 6.66443 29.9978 15.9989 29.9978Z" fill="url(#paint17_radial_7159_2146)" fill-opacity="0.45"/>
<path d="M15.9989 29.9978C25.3333 29.9978 29.9978 23.7303 29.9978 15.9989C29.9978 8.26751 25.3333 2 15.9989 2C6.66443 2 2 8.26751 2 15.9989C2 23.7303 6.66443 29.9978 15.9989 29.9978Z" fill="url(#paint18_radial_7159_2146)" fill-opacity="0.35"/>
<path d="M15.9989 29.9978C25.3333 29.9978 29.9978 23.7303 29.9978 15.9989C29.9978 8.26751 25.3333 2 15.9989 2C6.66443 2 2 8.26751 2 15.9989C2 23.7303 6.66443 29.9978 15.9989 29.9978Z" fill="url(#paint19_radial_7159_2146)" fill-opacity="0.35"/>
<path d="M3.00021 1.09973C4.2129 0.740028 5.50009 1.49973 6.00009 1.99973C6.49997 1.49976 8.16818 0.167939 9.75 1.74976C11.0248 3.02451 10.5002 4.99973 9.50015 6.49973C8.91141 7.38284 7.38383 8.77145 6.1531 9.70897C5.50894 10.1997 4.61341 10.0543 4.0674 9.4563C3.14284 8.44374 1.97268 7.14488 1.4001 5.99973C0.400103 3.99973 1.4003 1.57429 3.00021 1.09973Z" fill="url(#paint20_linear_7159_2146)"/>
<path d="M3.00021 1.09973C4.2129 0.740028 5.50009 1.49973 6.00009 1.99973C6.49997 1.49976 8.16818 0.167939 9.75 1.74976C11.0248 3.02451 10.5002 4.99973 9.50015 6.49973C8.91141 7.38284 7.38383 8.77145 6.1531 9.70897C5.50894 10.1997 4.61341 10.0543 4.0674 9.4563C3.14284 8.44374 1.97268 7.14488 1.4001 5.99973C0.400103 3.99973 1.4003 1.57429 3.00021 1.09973Z" fill="url(#paint21_radial_7159_2146)" fill-opacity="0.48"/>
<path d="M3.00021 1.09973C4.2129 0.740028 5.50009 1.49973 6.00009 1.99973C6.49997 1.49976 8.16818 0.167939 9.75 1.74976C11.0248 3.02451 10.5002 4.99973 9.50015 6.49973C8.91141 7.38284 7.38383 8.77145 6.1531 9.70897C5.50894 10.1997 4.61341 10.0543 4.0674 9.4563C3.14284 8.44374 1.97268 7.14488 1.4001 5.99973C0.400103 3.99973 1.4003 1.57429 3.00021 1.09973Z" fill="url(#paint22_radial_7159_2146)"/>
<path d="M13.1242 11.9923C12.5804 12.0603 12.0841 11.678 12.0096 11.1367C11.9755 10.9347 11.8851 10.7341 11.7699 10.5665C11.5954 10.3127 11.2665 10 10.5002 10C9.73391 10 9.40498 10.3127 9.23047 10.5665C9.1291 10.714 9.06595 10.8672 9.02888 10.9858C9.02801 10.9886 8.99224 11.1258 8.99233 11.1251C8.92332 11.6725 8.42381 12.0607 7.87615 11.9923C7.31454 11.9221 6.92712 11.3671 7.01648 10.8171C7.02094 10.7897 7.0272 10.7546 7.03576 10.7129C7.08658 10.4654 7.21745 9.9643 7.58239 9.43347C8.09538 8.6873 9.01646 8 10.5002 8C11.9839 8 12.905 8.6873 13.418 9.43347C13.8444 10.0537 13.953 10.6269 13.9839 10.8171C14.0723 11.3611 13.6798 11.9228 13.1242 11.9923Z" fill="#583F51"/>
<path d="M13.1242 11.9923C12.5804 12.0603 12.0841 11.678 12.0096 11.1367C11.9755 10.9347 11.8851 10.7341 11.7699 10.5665C11.5954 10.3127 11.2665 10 10.5002 10C9.73391 10 9.40498 10.3127 9.23047 10.5665C9.1291 10.714 9.06595 10.8672 9.02888 10.9858C9.02801 10.9886 8.99224 11.1258 8.99233 11.1251C8.92332 11.6725 8.42381 12.0607 7.87615 11.9923C7.31454 11.9221 6.92712 11.3671 7.01648 10.8171C7.02094 10.7897 7.0272 10.7546 7.03576 10.7129C7.08658 10.4654 7.21745 9.9643 7.58239 9.43347C8.09538 8.6873 9.01646 8 10.5002 8C11.9839 8 12.905 8.6873 13.418 9.43347C13.8444 10.0537 13.953 10.6269 13.9839 10.8171C14.0723 11.3611 13.6798 11.9228 13.1242 11.9923Z" fill="url(#paint23_radial_7159_2146)"/>
<path d="M13.1242 11.9923C12.5804 12.0603 12.0841 11.678 12.0096 11.1367C11.9755 10.9347 11.8851 10.7341 11.7699 10.5665C11.5954 10.3127 11.2665 10 10.5002 10C9.73391 10 9.40498 10.3127 9.23047 10.5665C9.1291 10.714 9.06595 10.8672 9.02888 10.9858C9.02801 10.9886 8.99224 11.1258 8.99233 11.1251C8.92332 11.6725 8.42381 12.0607 7.87615 11.9923C7.31454 11.9221 6.92712 11.3671 7.01648 10.8171C7.02094 10.7897 7.0272 10.7546 7.03576 10.7129C7.08658 10.4654 7.21745 9.9643 7.58239 9.43347C8.09538 8.6873 9.01646 8 10.5002 8C11.9839 8 12.905 8.6873 13.418 9.43347C13.8444 10.0537 13.953 10.6269 13.9839 10.8171C14.0723 11.3611 13.6798 11.9228 13.1242 11.9923Z" fill="url(#paint24_radial_7159_2146)"/>
<path d="M13.1242 11.9923C12.5804 12.0603 12.0841 11.678 12.0096 11.1367C11.9755 10.9347 11.8851 10.7341 11.7699 10.5665C11.5954 10.3127 11.2665 10 10.5002 10C9.73391 10 9.40498 10.3127 9.23047 10.5665C9.1291 10.714 9.06595 10.8672 9.02888 10.9858C9.02801 10.9886 8.99224 11.1258 8.99233 11.1251C8.92332 11.6725 8.42381 12.0607 7.87615 11.9923C7.31454 11.9221 6.92712 11.3671 7.01648 10.8171C7.02094 10.7897 7.0272 10.7546 7.03576 10.7129C7.08658 10.4654 7.21745 9.9643 7.58239 9.43347C8.09538 8.6873 9.01646 8 10.5002 8C11.9839 8 12.905 8.6873 13.418 9.43347C13.8444 10.0537 13.953 10.6269 13.9839 10.8171C14.0723 11.3611 13.6798 11.9228 13.1242 11.9923Z" fill="url(#paint25_radial_7159_2146)"/>
<path d="M19.9816 11.1909C20.0296 10.9436 20.1397 10.6405 20.349 10.4125C20.5283 10.2171 20.847 10 21.4999 10C22.1417 10 22.4685 10.2216 22.6572 10.4288C22.8753 10.6683 22.9804 10.9737 23.0147 11.1711C23.1092 11.7152 23.6269 12.0797 24.171 11.9853C24.7152 11.8908 25.0797 11.373 24.9852 10.8289C24.9062 10.374 24.6799 9.6794 24.1357 9.08196C23.562 8.45218 22.6955 8 21.4999 8C20.3156 8 19.4527 8.4313 18.8755 9.06013C18.3283 9.65637 18.107 10.3533 18.0183 10.8091C17.9129 11.3513 18.2669 11.8762 18.8091 11.9816C19.3512 12.087 19.8761 11.733 19.9816 11.1909Z" fill="#583F51"/>
<path d="M19.9816 11.1909C20.0296 10.9436 20.1397 10.6405 20.349 10.4125C20.5283 10.2171 20.847 10 21.4999 10C22.1417 10 22.4685 10.2216 22.6572 10.4288C22.8753 10.6683 22.9804 10.9737 23.0147 11.1711C23.1092 11.7152 23.6269 12.0797 24.171 11.9853C24.7152 11.8908 25.0797 11.373 24.9852 10.8289C24.9062 10.374 24.6799 9.6794 24.1357 9.08196C23.562 8.45218 22.6955 8 21.4999 8C20.3156 8 19.4527 8.4313 18.8755 9.06013C18.3283 9.65637 18.107 10.3533 18.0183 10.8091C17.9129 11.3513 18.2669 11.8762 18.8091 11.9816C19.3512 12.087 19.8761 11.733 19.9816 11.1909Z" fill="url(#paint26_radial_7159_2146)"/>
<path d="M19.9816 11.1909C20.0296 10.9436 20.1397 10.6405 20.349 10.4125C20.5283 10.2171 20.847 10 21.4999 10C22.1417 10 22.4685 10.2216 22.6572 10.4288C22.8753 10.6683 22.9804 10.9737 23.0147 11.1711C23.1092 11.7152 23.6269 12.0797 24.171 11.9853C24.7152 11.8908 25.0797 11.373 24.9852 10.8289C24.9062 10.374 24.6799 9.6794 24.1357 9.08196C23.562 8.45218 22.6955 8 21.4999 8C20.3156 8 19.4527 8.4313 18.8755 9.06013C18.3283 9.65637 18.107 10.3533 18.0183 10.8091C17.9129 11.3513 18.2669 11.8762 18.8091 11.9816C19.3512 12.087 19.8761 11.733 19.9816 11.1909Z" fill="url(#paint27_radial_7159_2146)"/>
<path d="M19.9816 11.1909C20.0296 10.9436 20.1397 10.6405 20.349 10.4125C20.5283 10.2171 20.847 10 21.4999 10C22.1417 10 22.4685 10.2216 22.6572 10.4288C22.8753 10.6683 22.9804 10.9737 23.0147 11.1711C23.1092 11.7152 23.6269 12.0797 24.171 11.9853C24.7152 11.8908 25.0797 11.373 24.9852 10.8289C24.9062 10.374 24.6799 9.6794 24.1357 9.08196C23.562 8.45218 22.6955 8 21.4999 8C20.3156 8 19.4527 8.4313 18.8755 9.06013C18.3283 9.65637 18.107 10.3533 18.0183 10.8091C17.9129 11.3513 18.2669 11.8762 18.8091 11.9816C19.3512 12.087 19.8761 11.733 19.9816 11.1909Z" fill="url(#paint28_radial_7159_2146)"/>
<path d="M3.99991 27.9999C2.88181 26.8819 2.49988 24.9999 3.49988 23.9999C4.49987 22.9999 6.49983 23.4999 6.49983 23.4999C6.49983 23.4999 6.99991 22.2499 8.49991 22.4999C10.4999 22.7499 10.7499 24.9999 10.2499 26.4999C9.86786 27.646 8.94248 28.8685 8.27046 29.656C7.83837 30.1623 7.10237 30.235 6.55248 29.8599C5.62792 29.2292 4.31565 28.3156 3.99991 27.9999Z" fill="url(#paint29_linear_7159_2146)"/>
<path d="M3.99991 27.9999C2.88181 26.8819 2.49988 24.9999 3.49988 23.9999C4.49987 22.9999 6.49983 23.4999 6.49983 23.4999C6.49983 23.4999 6.99991 22.2499 8.49991 22.4999C10.4999 22.7499 10.7499 24.9999 10.2499 26.4999C9.86786 27.646 8.94248 28.8685 8.27046 29.656C7.83837 30.1623 7.10237 30.235 6.55248 29.8599C5.62792 29.2292 4.31565 28.3156 3.99991 27.9999Z" fill="url(#paint30_radial_7159_2146)"/>
<path d="M3.99991 27.9999C2.88181 26.8819 2.49988 24.9999 3.49988 23.9999C4.49987 22.9999 6.49983 23.4999 6.49983 23.4999C6.49983 23.4999 6.99991 22.2499 8.49991 22.4999C10.4999 22.7499 10.7499 24.9999 10.2499 26.4999C9.86786 27.646 8.94248 28.8685 8.27046 29.656C7.83837 30.1623 7.10237 30.235 6.55248 29.8599C5.62792 29.2292 4.31565 28.3156 3.99991 27.9999Z" fill="url(#paint31_radial_7159_2146)" fill-opacity="0.51"/>
<path d="M23 17.0999C24.5 16.5999 26.1667 17.9999 26.5 18.4999C26.6667 17.9999 27.4 16.9999 29 16.9999C31 16.9999 31.5571 19.1072 31 20.4999C30.2698 22.3254 27.94 24.6361 26.736 25.75C26.3333 26.1226 25.7111 26.0768 25.3546 25.6598C24.3916 24.5335 22.6252 22.4377 22 21.4999C21 19.9999 21.1026 17.7323 23 17.0999Z" fill="url(#paint32_linear_7159_2146)"/>
<path d="M23 17.0999C24.5 16.5999 26.1667 17.9999 26.5 18.4999C26.6667 17.9999 27.4 16.9999 29 16.9999C31 16.9999 31.5571 19.1072 31 20.4999C30.2698 22.3254 27.94 24.6361 26.736 25.75C26.3333 26.1226 25.7111 26.0768 25.3546 25.6598C24.3916 24.5335 22.6252 22.4377 22 21.4999C21 19.9999 21.1026 17.7323 23 17.0999Z" fill="url(#paint33_radial_7159_2146)"/>
<path d="M23 17.0999C24.5 16.5999 26.1667 17.9999 26.5 18.4999C26.6667 17.9999 27.4 16.9999 29 16.9999C31 16.9999 31.5571 19.1072 31 20.4999C30.2698 22.3254 27.94 24.6361 26.736 25.75C26.3333 26.1226 25.7111 26.0768 25.3546 25.6598C24.3916 24.5335 22.6252 22.4377 22 21.4999C21 19.9999 21.1026 17.7323 23 17.0999Z" fill="url(#paint34_radial_7159_2146)" style="mix-blend-mode:screen"/>
<path d="M23 17.0999C24.5 16.5999 26.1667 17.9999 26.5 18.4999C26.6667 17.9999 27.4 16.9999 29 16.9999C31 16.9999 31.5571 19.1072 31 20.4999C30.2698 22.3254 27.94 24.6361 26.736 25.75C26.3333 26.1226 25.7111 26.0768 25.3546 25.6598C24.3916 24.5335 22.6252 22.4377 22 21.4999C21 19.9999 21.1026 17.7323 23 17.0999Z" fill="url(#paint35_radial_7159_2146)" style="mix-blend-mode:screen"/>
<path d="M23 17.0999C24.5 16.5999 26.1667 17.9999 26.5 18.4999C26.6667 17.9999 27.4 16.9999 29 16.9999C31 16.9999 31.5571 19.1072 31 20.4999C30.2698 22.3254 27.94 24.6361 26.736 25.75C26.3333 26.1226 25.7111 26.0768 25.3546 25.6598C24.3916 24.5335 22.6252 22.4377 22 21.4999C21 19.9999 21.1026 17.7323 23 17.0999Z" fill="url(#paint36_radial_7159_2146)" fill-opacity="0.5" style="mix-blend-mode:screen"/>
<path d="M23 17.0999C24.5 16.5999 26.1667 17.9999 26.5 18.4999C26.6667 17.9999 27.4 16.9999 29 16.9999C31 16.9999 31.5571 19.1072 31 20.4999C30.2698 22.3254 27.94 24.6361 26.736 25.75C26.3333 26.1226 25.7111 26.0768 25.3546 25.6598C24.3916 24.5335 22.6252 22.4377 22 21.4999C21 19.9999 21.1026 17.7323 23 17.0999Z" fill="url(#paint37_radial_7159_2146)" fill-opacity="0.4" style="mix-blend-mode:screen"/>
<path fill-rule="evenodd" clip-rule="evenodd" d="M12 15C12.5523 15 13 15.4477 13 16C13 16.5066 13.1602 17.2889 13.6115 17.9157C14.0261 18.4915 14.7259 19 16 19C17.2741 19 17.9739 18.4915 18.3885 17.9157C18.8398 17.2889 19 16.5066 19 16C19 15.4477 19.4477 15 20 15C20.5523 15 21 15.4477 21 16C21 16.8267 20.7602 18.0445 20.0115 19.0843C19.2261 20.1751 17.9259 21 16 21C14.0741 21 12.7739 20.1751 11.9885 19.0843C11.2398 18.0445 11 16.8267 11 16C11 15.4477 11.4477 15 12 15Z" fill="url(#paint38_radial_7159_2146)"/>
<defs>
<radialGradient id="paint0_radial_7159_2146" cx="0" cy="0" r="1" gradientUnits="userSpaceOnUse" gradientTransform="translate(25.5 9) rotate(132.839) scale(37.5033)">
<stop stop-color="#FFF478"/>
<stop offset="0.474827" stop-color="#FFB02E"/>
<stop offset="1" stop-color="#F70A8D"/>
</radialGradient>
<radialGradient id="paint1_radial_7159_2146" cx="0" cy="0" r="1" gradientUnits="userSpaceOnUse" gradientTransform="translate(16 12.5) rotate(101.31) scale(17.8466 22.8581)">
<stop offset="0.787821" stop-color="#F59639" stop-opacity="0"/>
<stop offset="0.972509" stop-color="#FF7DCE"/>
</radialGradient>
<radialGradient id="paint2_radial_7159_2146" cx="0" cy="0" r="1" gradientUnits="userSpaceOnUse" gradientTransform="translate(18 14) rotate(135) scale(41.0122)">
<stop offset="0.314853" stop-opacity="0"/>
<stop offset="1"/>
</radialGradient>
<radialGradient id="paint3_radial_7159_2146" cx="0" cy="0" r="1" gradientUnits="userSpaceOnUse" gradientTransform="translate(24.6891 23.9568) rotate(139.121) scale(4.32052 14.0847)">
<stop stop-color="#E4694E"/>
<stop offset="0.559747" stop-color="#E4694E" stop-opacity="0"/>
</radialGradient>
<radialGradient id="paint4_radial_7159_2146" cx="0" cy="0" r="1" gradientUnits="userSpaceOnUse" gradientTransform="translate(23.0405 21.1828) rotate(59.6707) scale(6.29978 3.1932)">
<stop stop-color="#E4694E"/>
<stop offset="0.512033" stop-color="#E4694E" stop-opacity="0.407125"/>
<stop offset="0.787356" stop-color="#E4694E" stop-opacity="0.15781"/>
<stop offset="1" stop-color="#E4694E" stop-opacity="0"/>
</radialGradient>
<radialGradient id="paint5_radial_7159_2146" cx="0" cy="0" r="1" gradientUnits="userSpaceOnUse" gradientTransform="translate(23.5578 11.231) rotate(111.939) scale(20.2318)">
<stop stop-color="#9A4609"/>
<stop offset="0.0783513" stop-color="#9A4609" stop-opacity="0"/>
</radialGradient>
<radialGradient id="paint6_radial_7159_2146" cx="0" cy="0" r="1" gradientUnits="userSpaceOnUse" gradientTransform="translate(23.1515 10.2818) rotate(34.0321) scale(1.73396 1.26055)">
<stop stop-color="#9A4609"/>
<stop offset="1" stop-color="#9A4609" stop-opacity="0"/>
</radialGradient>
<radialGradient id="paint7_radial_7159_2146" cx="0" cy="0" r="1" gradientUnits="userSpaceOnUse" gradientTransform="translate(12.6642 11.0627) rotate(59.8227) scale(2.13655 1.96495)">
<stop stop-color="#9A4609"/>
<stop offset="0.603875" stop-color="#9A4609" stop-opacity="0.338014"/>
<stop offset="0.812249" stop-color="#9A4609" stop-opacity="0"/>
</radialGradient>
<radialGradient id="paint8_radial_7159_2146" cx="0" cy="0" r="1" gradientUnits="userSpaceOnUse" gradientTransform="translate(7.61431 11.2925) rotate(14.7926) scale(6.33376 5.82508)">
<stop stop-color="#9A4609"/>
<stop offset="0.153015" stop-color="#9A4609" stop-opacity="0.338014"/>
<stop offset="0.278557" stop-color="#9A4609" stop-opacity="0"/>
</radialGradient>
<radialGradient id="paint9_radial_7159_2146" cx="0" cy="0" r="1" gradientUnits="userSpaceOnUse" gradientTransform="translate(8.09345 10.4088) rotate(23.896) scale(6.1739 8.3635)">
<stop stop-color="#9A4609"/>
<stop offset="0.163944" stop-color="#9A4609" stop-opacity="0.338014"/>
<stop offset="0.284327" stop-color="#9A4609" stop-opacity="0"/>
</radialGradient>
<radialGradient id="paint10_radial_7159_2146" cx="0" cy="0" r="1" gradientUnits="userSpaceOnUse" gradientTransform="translate(9.41616 9.45094) rotate(38.6691) scale(5.53555 7.49876)">
<stop stop-color="#9A4609"/>
<stop offset="0.163944" stop-color="#9A4609" stop-opacity="0.338014"/>
<stop offset="0.284327" stop-color="#9A4609" stop-opacity="0"/>
</radialGradient>
<radialGradient id="paint11_radial_7159_2146" cx="0" cy="0" r="1" gradientUnits="userSpaceOnUse" gradientTransform="translate(10.8757 9.35972) rotate(51.1196) scale(4.56023 6.17754)">
<stop stop-color="#9A4609"/>
<stop offset="0.163944" stop-color="#9A4609" stop-opacity="0.338014"/>
<stop offset="0.284327" stop-color="#9A4609" stop-opacity="0"/>
</radialGradient>
<radialGradient id="paint12_radial_7159_2146" cx="0" cy="0" r="1" gradientUnits="userSpaceOnUse" gradientTransform="translate(11.9019 9.79302) rotate(59.4951) scale(3.61734 4.90025)">
<stop stop-color="#9A4609"/>
<stop offset="0.163944" stop-color="#9A4609" stop-opacity="0.338014"/>
<stop offset="0.34084" stop-color="#9A4609" stop-opacity="0"/>
</radialGradient>
<radialGradient id="paint13_radial_7159_2146" cx="0" cy="0" r="1" gradientUnits="userSpaceOnUse" gradientTransform="translate(22.1251 9.47936) rotate(106.624) scale(21.4134)">
<stop stop-color="#9A4609"/>
<stop offset="0.064017" stop-color="#9A4609" stop-opacity="0"/>
</radialGradient>
<radialGradient id="paint14_radial_7159_2146" cx="0" cy="0" r="1" gradientUnits="userSpaceOnUse" gradientTransform="translate(22.4957 9.63595) rotate(117.304) scale(1.24468 2.32844)">
<stop stop-color="#9A4609"/>
<stop offset="1" stop-color="#9A4609" stop-opacity="0"/>
</radialGradient>
<radialGradient id="paint15_radial_7159_2146" cx="0" cy="0" r="1" gradientUnits="userSpaceOnUse" gradientTransform="translate(20.8755 9.24165) rotate(103.222) scale(21.3213)">
<stop offset="0.0060053" stop-color="#9A4609"/>
<stop offset="0.0685509" stop-color="#9A4609" stop-opacity="0"/>
</radialGradient>
<radialGradient id="paint16_radial_7159_2146" cx="0" cy="0" r="1" gradientUnits="userSpaceOnUse" gradientTransform="translate(18.6849 11.164) rotate(98.1166) scale(19.0244)">
<stop stop-color="#9A4609"/>
<stop offset="0.0762812" stop-color="#9A4609" stop-opacity="0.13"/>
<stop offset="0.0938815" stop-color="#9A4609" stop-opacity="0"/>
</radialGradient>
<radialGradient id="paint17_radial_7159_2146" cx="0" cy="0" r="1" gradientUnits="userSpaceOnUse" gradientTransform="translate(19.1765 10.3005) rotate(99.1641) scale(19.9519 16.1492)">
<stop stop-color="#9A4609"/>
<stop offset="0.0944858" stop-color="#9A4609" stop-opacity="0"/>
</radialGradient>
<radialGradient id="paint18_radial_7159_2146" cx="0" cy="0" r="1" gradientUnits="userSpaceOnUse" gradientTransform="translate(20.1093 9.43645) rotate(58.5359) scale(1.52587 1.96335)">
<stop stop-color="#9A4609"/>
<stop offset="1" stop-color="#9A4609" stop-opacity="0"/>
</radialGradient>
<radialGradient id="paint19_radial_7159_2146" cx="0" cy="0" r="1" gradientUnits="userSpaceOnUse" gradientTransform="translate(21.0076 9.52666) rotate(75.9637) scale(1.53565 2.88789)">
<stop stop-color="#9A4609"/>
<stop offset="1" stop-color="#9A4609" stop-opacity="0"/>
</radialGradient>
<linearGradient id="paint20_linear_7159_2146" x1="4.5" y1="3.49976" x2="8.13606" y2="8.27677" gradientUnits="userSpaceOnUse">
<stop stop-color="#DC2E50"/>
<stop offset="1" stop-color="#F70A8D"/>
</linearGradient>
<radialGradient id="paint21_radial_7159_2146" cx="0" cy="0" r="1" gradientUnits="userSpaceOnUse" gradientTransform="translate(8.50208 3.7975) rotate(125.784) scale(4.97797 3.09003)">
<stop stop-color="white" stop-opacity="0.75"/>
<stop offset="0.125206" stop-color="white" stop-opacity="0.701862"/>
<stop offset="0.281504" stop-color="white" stop-opacity="0.479537"/>
<stop offset="0.690887" stop-color="#DC2E50" stop-opacity="0"/>
</radialGradient>
<radialGradient id="paint22_radial_7159_2146" cx="0" cy="0" r="1" gradientUnits="userSpaceOnUse" gradientTransform="translate(7.25449 8.58749) rotate(-129.472) scale(3.27861 6.30974)">
<stop stop-color="#F944A5"/>
<stop offset="1" stop-color="#F944A5" stop-opacity="0"/>
</radialGradient>
<radialGradient id="paint23_radial_7159_2146" cx="0" cy="0" r="1" gradientUnits="userSpaceOnUse" gradientTransform="translate(10.5001 11.2281) rotate(90) scale(2.78812)">
<stop offset="0.188596" stop-color="#1D1019"/>
<stop offset="1" stop-color="#462B3F" stop-opacity="0"/>
</radialGradient>
<radialGradient id="paint24_radial_7159_2146" cx="0" cy="0" r="1" gradientUnits="userSpaceOnUse" gradientTransform="translate(10.5001 11.2281) rotate(90) scale(3.60744 4.09431)">
<stop offset="0.718644" stop-color="#462B3F" stop-opacity="0"/>
<stop offset="1" stop-color="#1D1019"/>
</radialGradient>
<radialGradient id="paint25_radial_7159_2146" cx="0" cy="0" r="1" gradientUnits="userSpaceOnUse" gradientTransform="translate(10.5001 9.37497) rotate(90) scale(3.31243 6.95821)">
<stop offset="0.429103" stop-color="#462B3F" stop-opacity="0"/>
<stop offset="1" stop-color="#1D1019"/>
</radialGradient>
<radialGradient id="paint26_radial_7159_2146" cx="0" cy="0" r="1" gradientUnits="userSpaceOnUse" gradientTransform="translate(21.4999 11.2282) rotate(90) scale(2.78818)">
<stop offset="0.188596" stop-color="#1D1019"/>
<stop offset="1" stop-color="#462B3F" stop-opacity="0"/>
</radialGradient>
<radialGradient id="paint27_radial_7159_2146" cx="0" cy="0" r="1" gradientUnits="userSpaceOnUse" gradientTransform="translate(21.4999 11.2282) rotate(90) scale(3.60751 4.0944)">
<stop offset="0.718644" stop-color="#462B3F" stop-opacity="0"/>
<stop offset="1" stop-color="#1D1019"/>
</radialGradient>
<radialGradient id="paint28_radial_7159_2146" cx="0" cy="0" r="1" gradientUnits="userSpaceOnUse" gradientTransform="translate(21.4999 9.375) rotate(90) scale(3.3125 6.95835)">
<stop offset="0.429103" stop-color="#462B3F" stop-opacity="0"/>
<stop offset="1" stop-color="#1D1019"/>
</radialGradient>
<linearGradient id="paint29_linear_7159_2146" x1="5.99976" y1="24.4999" x2="9.34193" y2="29.9065" gradientUnits="userSpaceOnUse">
<stop stop-color="#CA0B4A"/>
<stop offset="1" stop-color="#F70A8D"/>
</linearGradient>
<radialGradient id="paint30_radial_7159_2146" cx="0" cy="0" r="1" gradientUnits="userSpaceOnUse" gradientTransform="translate(8.46407 27.5813) rotate(121.197) scale(3.41197 2.2423)">
<stop stop-color="#F944A5"/>
<stop offset="0.753331" stop-color="#F944A5" stop-opacity="0"/>
</radialGradient>
<radialGradient id="paint31_radial_7159_2146" cx="0" cy="0" r="1" gradientUnits="userSpaceOnUse" gradientTransform="translate(8.45216 24.6204) rotate(129.857) scale(2.88516 2.86209)">
<stop stop-color="white" stop-opacity="0.83"/>
<stop offset="0.0639679" stop-color="white" stop-opacity="0.83"/>
<stop offset="0.150472" stop-color="white" stop-opacity="0.76"/>
<stop offset="0.270833" stop-color="white" stop-opacity="0.57"/>
<stop offset="0.590756" stop-color="white" stop-opacity="0"/>
</radialGradient>
<linearGradient id="paint32_linear_7159_2146" x1="29.0995" y1="18.0366" x2="25.8756" y2="25.4279" gradientUnits="userSpaceOnUse">
<stop stop-color="#CA0B4A"/>
<stop offset="1" stop-color="#F70A8D"/>
</linearGradient>
<radialGradient id="paint33_radial_7159_2146" cx="0" cy="0" r="1" gradientUnits="userSpaceOnUse" gradientTransform="translate(24.2038 22.4585) rotate(53.8543) scale(4.30019 1.78063)">
<stop stop-color="#F944A5" stop-opacity="0.69"/>
<stop offset="1" stop-color="#F944A5" stop-opacity="0"/>
</radialGradient>
<radialGradient id="paint34_radial_7159_2146" cx="0" cy="0" r="1" gradientUnits="userSpaceOnUse" gradientTransform="translate(28.0488 20.0433) rotate(-51.1573) scale(2.39774 1.25578)">
<stop stop-color="white" stop-opacity="0.3"/>
<stop offset="0.480213" stop-color="white" stop-opacity="0.22"/>
<stop offset="1" stop-color="white" stop-opacity="0.03"/>
</radialGradient>
<radialGradient id="paint35_radial_7159_2146" cx="0" cy="0" r="1" gradientUnits="userSpaceOnUse" gradientTransform="translate(25.0947 20.1547) rotate(-134.091) scale(3.72489 1.69666)">
<stop stop-color="white" stop-opacity="0.35"/>
<stop offset="0.334831" stop-color="white" stop-opacity="0.26163"/>
<stop offset="1" stop-color="white" stop-opacity="0"/>
</radialGradient>
<radialGradient id="paint36_radial_7159_2146" cx="0" cy="0" r="1" gradientUnits="userSpaceOnUse" gradientTransform="translate(25.7639 20.7986) rotate(-134.493) scale(4.65306 3.14828)">
<stop stop-color="white" stop-opacity="0.35"/>
<stop offset="0.143176" stop-color="white" stop-opacity="0.26163"/>
<stop offset="0.358835" stop-color="white" stop-opacity="0"/>
</radialGradient>
<radialGradient id="paint37_radial_7159_2146" cx="0" cy="0" r="1" gradientUnits="userSpaceOnUse" gradientTransform="translate(27.3745 20.6912) rotate(-46.0512) scale(3.31076 1.54799)">
<stop stop-color="white" stop-opacity="0.58"/>
<stop offset="0.555297" stop-color="white" stop-opacity="0.26163"/>
<stop offset="1" stop-color="white" stop-opacity="0"/>
</radialGradient>
<radialGradient id="paint38_radial_7159_2146" cx="0" cy="0" r="1" gradientUnits="userSpaceOnUse" gradientTransform="translate(16 12) rotate(90) scale(10.5 6.42871)">
<stop offset="0.555727" stop-color="#584343"/>
<stop offset="0.740289" stop-color="#66525E"/>
<stop offset="1" stop-color="#4E2553"/>
<stop offset="1" stop-color="#522C57"/>
</radialGradient>
</defs>
</svg>
