<svg width="32" height="32" viewBox="0 0 32 32" fill="none" xmlns="http://www.w3.org/2000/svg">
<path d="M27.2 11.2002C29.851 11.2002 32 13.3492 32 16.0002C32 18.6512 29.851 20.8002 27.2 20.8002L4.8 20.8002C2.14903 20.8002 -1.15877e-07 18.6512 0 16.0002C1.15877e-07 13.3492 2.14903 11.2002 4.8 11.2002L27.2 11.2002Z" fill="#4C98FD"/>
<path d="M11.2001 4.8C11.2001 2.14903 13.3491 0 16.0001 0C18.651 0 20.8001 2.14903 20.8001 4.8V27.2C20.8001 29.851 18.651 32 16.0001 32C13.3491 32 11.2001 29.851 11.2001 27.2V4.8Z" fill="#4C98FD"/>
<path d="M11.2001 4.8C11.2001 2.14903 13.3491 0 16.0001 0C18.651 0 20.8001 2.14903 20.8001 4.8V27.2C20.8001 29.851 18.651 32 16.0001 32C13.3491 32 11.2001 29.851 11.2001 27.2V4.8Z" fill="white" fill-opacity="0.4" style="mix-blend-mode:screen"/>
<path d="M27.3145 20.5259C29.189 22.4005 29.189 25.4398 27.3145 27.3143C25.4399 29.1889 22.4006 29.1889 20.526 27.3143L4.68633 11.4746C2.81175 9.60007 2.81175 6.56078 4.68633 4.68621C6.5609 2.81163 9.60019 2.81163 11.4748 4.68621L27.3145 20.5259Z" fill="#4C98FD"/>
<path d="M27.3145 20.5259C29.189 22.4005 29.189 25.4398 27.3145 27.3143C25.4399 29.1889 22.4006 29.1889 20.526 27.3143L4.68633 11.4746C2.81175 9.60007 2.81175 6.56078 4.68633 4.68621C6.5609 2.81163 9.60019 2.81163 11.4748 4.68621L27.3145 20.5259Z" fill="white" fill-opacity="0.2" style="mix-blend-mode:soft-light"/>
<path d="M20.526 4.68621C22.4006 2.81163 25.4399 2.81163 27.3145 4.68621C29.189 6.56078 29.189 9.60007 27.3145 11.4746L11.4748 27.3143C9.60019 29.1889 6.5609 29.1889 4.68633 27.3143C2.81175 25.4398 2.81175 22.4005 4.68633 20.5259L20.526 4.68621Z" fill="#4C98FD"/>
<path d="M20.526 4.68621C22.4006 2.81163 25.4399 2.81163 27.3145 4.68621C29.189 6.56078 29.189 9.60007 27.3145 11.4746L11.4748 27.3143C9.60019 29.1889 6.5609 29.1889 4.68633 27.3143C2.81175 25.4398 2.81175 22.4005 4.68633 20.5259L20.526 4.68621Z" fill="white" fill-opacity="0.3" style="mix-blend-mode:overlay"/>
<path fill-rule="evenodd" clip-rule="evenodd" d="M15.9999 4.7998C15.6465 4.7998 15.3599 5.08634 15.3599 5.4398V13.8367C15.3599 14.0305 15.3599 14.1275 15.3216 14.1723C15.2883 14.2113 15.2384 14.232 15.1874 14.2279C15.1285 14.2233 15.06 14.1548 14.9229 14.0177L8.98543 8.08021C8.7355 7.83028 8.33027 7.83028 8.08034 8.08021C7.8304 8.33015 7.8304 8.73537 8.08034 8.98531L14.0178 14.9228C14.1549 15.0599 14.2234 15.1284 14.2281 15.1873C14.2321 15.2383 14.2114 15.2882 14.1725 15.3215C14.1276 15.3598 14.0307 15.3598 13.8368 15.3598H5.43993C5.08646 15.3598 4.79993 15.6463 4.79993 15.9998C4.79993 16.3533 5.08646 16.6398 5.43993 16.6398H13.8368C14.0307 16.6398 14.1276 16.6398 14.1725 16.6781C14.2114 16.7114 14.2321 16.7613 14.2281 16.8124C14.2234 16.8712 14.1549 16.9397 14.0178 17.0768L8.08033 23.0143C7.8304 23.2642 7.8304 23.6695 8.08033 23.9194C8.33027 24.1693 8.7355 24.1693 8.98543 23.9194L14.9229 17.9819C15.06 17.8448 15.1285 17.7763 15.1874 17.7717C15.2384 17.7677 15.2883 17.7883 15.3216 17.8273C15.3599 17.8722 15.3599 17.9691 15.3599 18.1629V26.5598C15.3599 26.9133 15.6465 27.1998 15.9999 27.1998C16.3534 27.1998 16.6399 26.9133 16.6399 26.5598V18.1629C16.6399 17.9691 16.6399 17.8721 16.6783 17.8273C16.7115 17.7883 16.7614 17.7676 16.8125 17.7717C16.8713 17.7763 16.9399 17.8448 17.0769 17.9819L23.0144 23.9194C23.2644 24.1693 23.6696 24.1693 23.9195 23.9194C24.1695 23.6695 24.1695 23.2642 23.9195 23.0143L17.982 17.0768C17.845 16.9397 17.7764 16.8712 17.7718 16.8124C17.7678 16.7613 17.7884 16.7114 17.8274 16.6781C17.8723 16.6398 17.9692 16.6398 18.1631 16.6398H26.5599C26.9134 16.6398 27.1999 16.3533 27.1999 15.9998C27.1999 15.6463 26.9134 15.3598 26.5599 15.3598H18.1631C17.9692 15.3598 17.8723 15.3598 17.8274 15.3215C17.7884 15.2882 17.7678 15.2383 17.7718 15.1873C17.7764 15.1284 17.845 15.0599 17.982 14.9228L23.9195 8.98531C24.1695 8.73537 24.1695 8.33015 23.9195 8.08021C23.6696 7.83027 23.2644 7.83027 23.0144 8.08021L17.0769 14.0177C16.9399 14.1548 16.8713 14.2233 16.8125 14.2279C16.7614 14.232 16.7115 14.2113 16.6783 14.1723C16.6399 14.1275 16.6399 14.0305 16.6399 13.8367V5.4398C16.6399 5.08634 16.3534 4.7998 15.9999 4.7998Z" fill="white"/>
</svg>
