<svg width="32" height="32" viewBox="0 0 32 32" fill="none" xmlns="http://www.w3.org/2000/svg">
<path d="M6 16.4947V14.0747" stroke="#433B6B" stroke-miterlimit="10" stroke-linecap="round" stroke-linejoin="round"/>
<path d="M4.08008 15.105L9.24008 19.615" stroke="#433B6B" stroke-miterlimit="10" stroke-linecap="round" stroke-linejoin="round"/>
<path d="M25.02 16.4947V14.0747" stroke="#433B6B" stroke-miterlimit="10" stroke-linecap="round" stroke-linejoin="round"/>
<path d="M26.94 15.105L21.78 19.615" stroke="#433B6B" stroke-miterlimit="10" stroke-linecap="round" stroke-linejoin="round"/>
<path d="M23.78 18.0449H26.02" stroke="#433B6B" stroke-miterlimit="10" stroke-linecap="round" stroke-linejoin="round"/>
<path d="M4.94995 18.0352H7.18995" stroke="#433B6B" stroke-miterlimit="10" stroke-linecap="round" stroke-linejoin="round"/>
<path d="M25.7398 23.7352C25.7398 29.3652 21.1698 30.5352 15.5398 30.5352C9.90984 30.5352 5.33984 29.3652 5.33984 23.7352C5.33984 18.1052 9.90984 13.5352 15.5398 13.5352C21.1698 13.5352 25.7398 18.1052 25.7398 23.7352Z" fill="url(#paint0_radial_7159_2161)"/>
<path d="M25.7398 23.7352C25.7398 29.3652 21.1698 30.5352 15.5398 30.5352C9.90984 30.5352 5.33984 29.3652 5.33984 23.7352C5.33984 18.1052 9.90984 13.5352 15.5398 13.5352C21.1698 13.5352 25.7398 18.1052 25.7398 23.7352Z" fill="url(#paint1_radial_7159_2161)"/>
<path d="M25.7398 23.7352C25.7398 29.3652 21.1698 30.5352 15.5398 30.5352C9.90984 30.5352 5.33984 29.3652 5.33984 23.7352C5.33984 18.1052 9.90984 13.5352 15.5398 13.5352C21.1698 13.5352 25.7398 18.1052 25.7398 23.7352Z" fill="url(#paint2_radial_7159_2161)"/>
<path d="M25.7398 23.7352C25.7398 29.3652 21.1698 30.5352 15.5398 30.5352C9.90984 30.5352 5.33984 29.3652 5.33984 23.7352C5.33984 18.1052 9.90984 13.5352 15.5398 13.5352C21.1698 13.5352 25.7398 18.1052 25.7398 23.7352Z" fill="url(#paint3_radial_7159_2161)"/>
<path d="M25.7398 23.7352C25.7398 29.3652 21.1698 30.5352 15.5398 30.5352C9.90984 30.5352 5.33984 29.3652 5.33984 23.7352C5.33984 18.1052 9.90984 13.5352 15.5398 13.5352C21.1698 13.5352 25.7398 18.1052 25.7398 23.7352Z" fill="url(#paint4_linear_7159_2161)"/>
<path d="M25.7398 23.7352C25.7398 29.3652 21.1698 30.5352 15.5398 30.5352C9.90984 30.5352 5.33984 29.3652 5.33984 23.7352C5.33984 18.1052 9.90984 13.5352 15.5398 13.5352C21.1698 13.5352 25.7398 18.1052 25.7398 23.7352Z" fill="url(#paint5_radial_7159_2161)"/>
<path d="M17.03 25.5146C16.76 25.5146 16.54 25.2946 16.54 25.0246V24.0046C16.54 23.7346 16.76 23.5146 17.03 23.5146C17.3 23.5146 17.52 23.7346 17.52 24.0046V25.0246C17.52 25.2946 17.3 25.5146 17.03 25.5146Z" fill="url(#paint6_linear_7159_2161)"/>
<path d="M19.0401 25.5246C18.7701 25.5246 18.55 25.3046 18.55 25.0346V24.0046C18.55 23.7346 18.7701 23.5146 19.0401 23.5146C19.3101 23.5146 19.5301 23.7346 19.5301 24.0046V25.0346C19.5301 25.2946 19.3101 25.5246 19.0401 25.5246Z" fill="url(#paint7_linear_7159_2161)"/>
<path d="M21.03 25.5246C20.76 25.5246 20.54 25.3046 20.54 25.0346V24.0046C20.54 23.7346 20.76 23.5146 21.03 23.5146C21.3 23.5146 21.52 23.7346 21.52 24.0046V25.0346C21.52 25.2946 21.3 25.5246 21.03 25.5246Z" fill="url(#paint8_linear_7159_2161)"/>
<path d="M20.89 24.5352H17.16C16.8 24.5352 16.51 24.2452 16.51 23.8852V18.5352H21.54V23.8852C21.54 24.2452 21.25 24.5352 20.89 24.5352Z" fill="url(#paint9_linear_7159_2161)"/>
<path d="M20.89 24.5352H17.16C16.8 24.5352 16.51 24.2452 16.51 23.8852V18.5352H21.54V23.8852C21.54 24.2452 21.25 24.5352 20.89 24.5352Z" fill="url(#paint10_radial_7159_2161)"/>
<path d="M22.6599 16.1952C22.6599 20.1252 19.4699 20.5852 15.5399 20.5852C11.6099 20.5852 8.41992 20.1252 8.41992 16.1952C8.41992 12.2652 11.6099 15.5552 15.5399 15.5552C19.4699 15.5552 22.6599 12.2652 22.6599 16.1952Z" fill="url(#paint11_linear_7159_2161)"/>
<path d="M22.6599 16.1952C22.6599 20.1252 19.4699 20.5852 15.5399 20.5852C11.6099 20.5852 8.41992 20.1252 8.41992 16.1952C8.41992 12.2652 11.6099 15.5552 15.5399 15.5552C19.4699 15.5552 22.6599 12.2652 22.6599 16.1952Z" fill="url(#paint12_radial_7159_2161)"/>
<path d="M22.6599 16.1952C22.6599 20.1252 19.4699 20.5852 15.5399 20.5852C11.6099 20.5852 8.41992 20.1252 8.41992 16.1952C8.41992 12.2652 11.6099 15.5552 15.5399 15.5552C19.4699 15.5552 22.6599 12.2652 22.6599 16.1952Z" fill="url(#paint13_radial_7159_2161)"/>
<path d="M22.6599 16.1952C22.6599 20.1252 19.4699 20.5852 15.5399 20.5852C11.6099 20.5852 8.41992 20.1252 8.41992 16.1952C8.41992 12.2652 11.6099 15.5552 15.5399 15.5552C19.4699 15.5552 22.6599 12.2652 22.6599 16.1952Z" fill="url(#paint14_radial_7159_2161)"/>
<path d="M22.6599 16.1952C22.6599 20.1252 19.4699 20.5852 15.5399 20.5852C11.6099 20.5852 8.41992 20.1252 8.41992 16.1952C8.41992 12.2652 11.6099 15.5552 15.5399 15.5552C19.4699 15.5552 22.6599 12.2652 22.6599 16.1952Z" fill="url(#paint15_radial_7159_2161)"/>
<path d="M22.6599 16.1952C22.6599 20.1252 19.4699 20.5852 15.5399 20.5852C11.6099 20.5852 8.41992 20.1252 8.41992 16.1952C8.41992 12.2652 11.6099 15.5552 15.5399 15.5552C19.4699 15.5552 22.6599 12.2652 22.6599 16.1952Z" fill="url(#paint16_radial_7159_2161)"/>
<path d="M22.6599 16.1952C22.6599 20.1252 19.4699 20.5852 15.5399 20.5852C11.6099 20.5852 8.41992 20.1252 8.41992 16.1952C8.41992 12.2652 11.6099 15.5552 15.5399 15.5552C19.4699 15.5552 22.6599 12.2652 22.6599 16.1952Z" fill="url(#paint17_radial_7159_2161)"/>
<path d="M22.62 12.6547C22.62 16.5647 19.42 16.9999 15.5 16.9999C11.58 16.9999 8.44995 16.5747 8.44995 12.6547C8.44995 8.73471 11.62 5.57471 15.53 5.57471C19.44 5.57471 22.62 8.74471 22.62 12.6547Z" fill="url(#paint18_radial_7159_2161)"/>
<path d="M22.62 12.6547C22.62 16.5647 19.42 16.9999 15.5 16.9999C11.58 16.9999 8.44995 16.5747 8.44995 12.6547C8.44995 8.73471 11.62 5.57471 15.53 5.57471C19.44 5.57471 22.62 8.74471 22.62 12.6547Z" fill="url(#paint19_radial_7159_2161)"/>
<path d="M22.62 12.6547C22.62 16.5647 19.42 16.9999 15.5 16.9999C11.58 16.9999 8.44995 16.5747 8.44995 12.6547C8.44995 8.73471 11.62 5.57471 15.53 5.57471C19.44 5.57471 22.62 8.74471 22.62 12.6547Z" fill="url(#paint20_radial_7159_2161)"/>
<path d="M22.62 12.6547C22.62 16.5647 19.42 16.9999 15.5 16.9999C11.58 16.9999 8.44995 16.5747 8.44995 12.6547C8.44995 8.73471 11.62 5.57471 15.53 5.57471C19.44 5.57471 22.62 8.74471 22.62 12.6547Z" fill="url(#paint21_radial_7159_2161)"/>
<path d="M22.62 12.6547C22.62 16.5647 19.42 16.9999 15.5 16.9999C11.58 16.9999 8.44995 16.5747 8.44995 12.6547C8.44995 8.73471 11.62 5.57471 15.53 5.57471C19.44 5.57471 22.62 8.74471 22.62 12.6547Z" fill="url(#paint22_radial_7159_2161)"/>
<path d="M22.62 12.6547C22.62 16.5647 19.42 16.9999 15.5 16.9999C11.58 16.9999 8.44995 16.5747 8.44995 12.6547C8.44995 8.73471 11.62 5.57471 15.53 5.57471C19.44 5.57471 22.62 8.74471 22.62 12.6547Z" fill="url(#paint23_radial_7159_2161)"/>
<path d="M22.62 12.6547C22.62 16.5647 19.42 16.9999 15.5 16.9999C11.58 16.9999 8.44995 16.5747 8.44995 12.6547C8.44995 8.73471 11.62 5.57471 15.53 5.57471C19.44 5.57471 22.62 8.74471 22.62 12.6547Z" fill="url(#paint24_radial_7159_2161)"/>
<path d="M22.62 12.6547C22.62 16.5647 19.42 16.9999 15.5 16.9999C11.58 16.9999 8.44995 16.5747 8.44995 12.6547C8.44995 8.73471 11.62 5.57471 15.53 5.57471C19.44 5.57471 22.62 8.74471 22.62 12.6547Z" fill="url(#paint25_radial_7159_2161)"/>
<path d="M15.5601 5.54489L10.0401 7.91489L9.2601 6.10489C8.8201 5.07489 9.2901 3.88489 10.3201 3.44489L12.1301 2.66489C13.1601 2.22489 14.3401 2.69489 14.7801 3.72489L15.5601 5.54489Z" fill="url(#paint26_linear_7159_2161)"/>
<path d="M15.5601 5.54489L10.0401 7.91489L9.2601 6.10489C8.8201 5.07489 9.2901 3.88489 10.3201 3.44489L12.1301 2.66489C13.1601 2.22489 14.3401 2.69489 14.7801 3.72489L15.5601 5.54489Z" fill="url(#paint27_linear_7159_2161)"/>
<path d="M14.98 5.79486L10.62 7.67486C10.3 7.80486 9.92001 7.66486 9.79001 7.34486L9.26001 6.10486L14.79 3.73486L15.32 4.97486C15.45 5.28486 15.3 5.65486 14.98 5.79486Z" fill="url(#paint28_linear_7159_2161)"/>
<path d="M16.0999 6.11481L10.0599 8.70481C9.69991 8.86481 9.27991 8.69481 9.11991 8.33481C8.96991 7.97481 9.12991 7.54481 9.49991 7.39481L15.5399 4.80481C15.8999 4.64481 16.3199 4.81481 16.4799 5.18481C16.6299 5.53481 16.4599 5.95481 16.0999 6.11481Z" fill="url(#paint29_linear_7159_2161)"/>
<path d="M16.0999 6.11481L10.0599 8.70481C9.69991 8.86481 9.27991 8.69481 9.11991 8.33481C8.96991 7.97481 9.12991 7.54481 9.49991 7.39481L15.5399 4.80481C15.8999 4.64481 16.3199 4.81481 16.4799 5.18481C16.6299 5.53481 16.4599 5.95481 16.0999 6.11481Z" fill="url(#paint30_radial_7159_2161)"/>
<path d="M14.0399 10.345C13.8099 10.345 13.6299 10.175 13.6299 9.965V9.255C13.6299 9.045 13.8199 8.875 14.0399 8.875C14.2699 8.875 14.4499 9.045 14.4499 9.255V9.965C14.4499 10.175 14.2599 10.345 14.0399 10.345Z" fill="#433B6B"/>
<path d="M14.0399 10.345C13.8099 10.345 13.6299 10.175 13.6299 9.965V9.255C13.6299 9.045 13.8199 8.875 14.0399 8.875C14.2699 8.875 14.4499 9.045 14.4499 9.255V9.965C14.4499 10.175 14.2599 10.345 14.0399 10.345Z" fill="url(#paint31_linear_7159_2161)"/>
<path d="M14.0399 10.345C13.8099 10.345 13.6299 10.175 13.6299 9.965V9.255C13.6299 9.045 13.8199 8.875 14.0399 8.875C14.2699 8.875 14.4499 9.045 14.4499 9.255V9.965C14.4499 10.175 14.2599 10.345 14.0399 10.345Z" fill="url(#paint32_linear_7159_2161)"/>
<path d="M17.0399 10.345C16.8099 10.345 16.6299 10.175 16.6299 9.965V9.255C16.6299 9.045 16.8199 8.875 17.0399 8.875C17.2699 8.875 17.4499 9.045 17.4499 9.255V9.965C17.4499 10.175 17.2599 10.345 17.0399 10.345Z" fill="#433B6B"/>
<path d="M17.0399 10.345C16.8099 10.345 16.6299 10.175 16.6299 9.965V9.255C16.6299 9.045 16.8199 8.875 17.0399 8.875C17.2699 8.875 17.4499 9.045 17.4499 9.255V9.965C17.4499 10.175 17.2599 10.345 17.0399 10.345Z" fill="url(#paint33_linear_7159_2161)"/>
<path d="M17.0399 10.345C16.8099 10.345 16.6299 10.175 16.6299 9.965V9.255C16.6299 9.045 16.8199 8.875 17.0399 8.875C17.2699 8.875 17.4499 9.045 17.4499 9.255V9.965C17.4499 10.175 17.2599 10.345 17.0399 10.345Z" fill="url(#paint34_linear_7159_2161)"/>
<path d="M19.6898 11.6348L15.6298 11.2148C15.1798 11.2148 14.8198 11.5748 14.8198 12.0248C14.8198 12.4748 15.1798 12.8348 15.6298 12.8348L19.6898 12.4148C19.9098 12.4148 20.0898 12.2348 20.0898 12.0148C20.0898 11.7948 19.9098 11.6348 19.6898 11.6348Z" fill="url(#paint35_linear_7159_2161)"/>
<path d="M19.6898 11.6348L15.6298 11.2148C15.1798 11.2148 14.8198 11.5748 14.8198 12.0248C14.8198 12.4748 15.1798 12.8348 15.6298 12.8348L19.6898 12.4148C19.9098 12.4148 20.0898 12.2348 20.0898 12.0148C20.0898 11.7948 19.9098 11.6348 19.6898 11.6348Z" fill="url(#paint36_linear_7159_2161)"/>
<path d="M19.6898 11.6348L15.6298 11.2148C15.1798 11.2148 14.8198 11.5748 14.8198 12.0248C14.8198 12.4748 15.1798 12.8348 15.6298 12.8348L19.6898 12.4148C19.9098 12.4148 20.0898 12.2348 20.0898 12.0148C20.0898 11.7948 19.9098 11.6348 19.6898 11.6348Z" fill="url(#paint37_radial_7159_2161)"/>
<path d="M19.6898 11.6348L15.6298 11.2148C15.1798 11.2148 14.8198 11.5748 14.8198 12.0248C14.8198 12.4748 15.1798 12.8348 15.6298 12.8348L19.6898 12.4148C19.9098 12.4148 20.0898 12.2348 20.0898 12.0148C20.0898 11.7948 19.9098 11.6348 19.6898 11.6348Z" fill="url(#paint38_radial_7159_2161)" fill-opacity="0.5"/>
<path d="M19.6898 11.6348L15.6298 11.2148C15.1798 11.2148 14.8198 11.5748 14.8198 12.0248C14.8198 12.4748 15.1798 12.8348 15.6298 12.8348L19.6898 12.4148C19.9098 12.4148 20.0898 12.2348 20.0898 12.0148C20.0898 11.7948 19.9098 11.6348 19.6898 11.6348Z" fill="url(#paint39_linear_7159_2161)"/>
<defs>
<radialGradient id="paint0_radial_7159_2161" cx="0" cy="0" r="1" gradientUnits="userSpaceOnUse" gradientTransform="translate(20.3737 20.7231) scale(18.5752)">
<stop stop-color="#FBF9FE"/>
<stop offset="1" stop-color="#B7B5B8"/>
</radialGradient>
<radialGradient id="paint1_radial_7159_2161" cx="0" cy="0" r="1" gradientUnits="userSpaceOnUse" gradientTransform="translate(24 14.5002) rotate(120.763) scale(24.4387 22.4373)">
<stop offset="0.507325" stop-color="#F5F0FA"/>
<stop offset="1" stop-color="#B5B4B7"/>
</radialGradient>
<radialGradient id="paint2_radial_7159_2161" cx="0" cy="0" r="1" gradientUnits="userSpaceOnUse" gradientTransform="translate(33 25.0002) rotate(-175.389) scale(31.1006 20.4347)">
<stop offset="0.866018" stop-color="#C5C2C9" stop-opacity="0"/>
<stop offset="0.901186" stop-color="#A8A8A9"/>
</radialGradient>
<radialGradient id="paint3_radial_7159_2161" cx="0" cy="0" r="1" gradientUnits="userSpaceOnUse" gradientTransform="translate(13 22.0002) rotate(-162.867) scale(69.5881 51.1438)">
<stop offset="0.170689" stop-color="#C5C2C9" stop-opacity="0"/>
<stop offset="0.227343" stop-color="#A8A8A9"/>
</radialGradient>
<linearGradient id="paint4_linear_7159_2161" x1="16" y1="20.0002" x2="16" y2="30.5002" gradientUnits="userSpaceOnUse">
<stop offset="0.136364" stop-color="#DCDDDE" stop-opacity="0"/>
<stop offset="1" stop-color="#997AB7"/>
</linearGradient>
<radialGradient id="paint5_radial_7159_2161" cx="0" cy="0" r="1" gradientUnits="userSpaceOnUse" gradientTransform="translate(19 24.5002) rotate(90) scale(2 4.75)">
<stop stop-color="#9C899C"/>
<stop offset="0.679688" stop-color="#D6D7D9" stop-opacity="0"/>
</radialGradient>
<linearGradient id="paint6_linear_7159_2161" x1="17.5434" y1="24.0636" x2="16.5456" y2="24.0636" gradientUnits="userSpaceOnUse">
<stop stop-color="#55A7FC"/>
<stop offset="1" stop-color="#4980E2"/>
</linearGradient>
<linearGradient id="paint7_linear_7159_2161" x1="19.5535" y1="24.0664" x2="18.5556" y2="24.0664" gradientUnits="userSpaceOnUse">
<stop stop-color="#55A7FC"/>
<stop offset="1" stop-color="#4980E2"/>
</linearGradient>
<linearGradient id="paint8_linear_7159_2161" x1="21.5434" y1="24.0664" x2="20.5456" y2="24.0664" gradientUnits="userSpaceOnUse">
<stop stop-color="#55A7FC"/>
<stop offset="1" stop-color="#4980E2"/>
</linearGradient>
<linearGradient id="paint9_linear_7159_2161" x1="21.6601" y1="20.1821" x2="16.5383" y2="20.1821" gradientUnits="userSpaceOnUse">
<stop stop-color="#55A7FC"/>
<stop offset="1" stop-color="#4980E2"/>
</linearGradient>
<radialGradient id="paint10_radial_7159_2161" cx="0" cy="0" r="1" gradientUnits="userSpaceOnUse" gradientTransform="translate(19 20.0002) rotate(168.111) scale(9.70824 2.21255)">
<stop stop-color="#3462D5"/>
<stop offset="0.352784" stop-color="#3462D5" stop-opacity="0"/>
</radialGradient>
<linearGradient id="paint11_linear_7159_2161" x1="23" y1="16.0002" x2="8.5" y2="16.0002" gradientUnits="userSpaceOnUse">
<stop stop-color="#55A9FC"/>
<stop offset="1" stop-color="#4267C8"/>
</linearGradient>
<radialGradient id="paint12_radial_7159_2161" cx="0" cy="0" r="1" gradientUnits="userSpaceOnUse" gradientTransform="translate(15.5 6.00024) rotate(90) scale(15.5 17.7716)">
<stop offset="0.903226" stop-color="#3462D5" stop-opacity="0"/>
<stop offset="0.983333" stop-color="#3462D5"/>
</radialGradient>
<radialGradient id="paint13_radial_7159_2161" cx="0" cy="0" r="1" gradientUnits="userSpaceOnUse" gradientTransform="translate(-3 25.5002) rotate(-20.8978) scale(29.4364 7.91151)">
<stop offset="0.911966" stop-color="#3462D5" stop-opacity="0"/>
<stop offset="0.979434" stop-color="#3462D5"/>
</radialGradient>
<radialGradient id="paint14_radial_7159_2161" cx="0" cy="0" r="1" gradientUnits="userSpaceOnUse" gradientTransform="translate(38.5 27.5002) rotate(-156.915) scale(33.1549 10.6536)">
<stop offset="0.963278" stop-color="#3462D5" stop-opacity="0"/>
<stop offset="0.979434" stop-color="#3462D5"/>
</radialGradient>
<radialGradient id="paint15_radial_7159_2161" cx="0" cy="0" r="1" gradientUnits="userSpaceOnUse" gradientTransform="translate(15.5 6.00024) rotate(90) scale(12 11.9062)">
<stop offset="0.873698" stop-color="#3D59B8"/>
<stop offset="0.955729" stop-color="#2F4BAA" stop-opacity="0"/>
</radialGradient>
<radialGradient id="paint16_radial_7159_2161" cx="0" cy="0" r="1" gradientUnits="userSpaceOnUse" gradientTransform="translate(20 15.0002) rotate(-123.69) scale(1.80278 2.93514)">
<stop stop-color="#3D59B8"/>
<stop offset="1" stop-color="#2F4BAA" stop-opacity="0"/>
</radialGradient>
<radialGradient id="paint17_radial_7159_2161" cx="0" cy="0" r="1" gradientUnits="userSpaceOnUse" gradientTransform="translate(10.5 14.0002) rotate(-45) scale(2.82843 4.45256)">
<stop stop-color="#3D59B8"/>
<stop offset="1" stop-color="#2F4BAA" stop-opacity="0"/>
</radialGradient>
<radialGradient id="paint18_radial_7159_2161" cx="0" cy="0" r="1" gradientUnits="userSpaceOnUse" gradientTransform="translate(17.3739 8.43881) rotate(0.247704) scale(14.1263 10.6868)">
<stop offset="0.119232" stop-color="#F1F2F2"/>
<stop offset="0.530753" stop-color="#DDD5ED"/>
<stop offset="0.848807" stop-color="#B1A1D1"/>
</radialGradient>
<radialGradient id="paint19_radial_7159_2161" cx="0" cy="0" r="1" gradientUnits="userSpaceOnUse" gradientTransform="translate(17.5 12.4999) rotate(7.12502) scale(4.03113 1.08356)">
<stop stop-color="#9C899C"/>
<stop offset="0.675781" stop-color="#D6D7D9" stop-opacity="0"/>
</radialGradient>
<radialGradient id="paint20_radial_7159_2161" cx="0" cy="0" r="1" gradientUnits="userSpaceOnUse" gradientTransform="translate(17 12.4999) rotate(-7.12501) scale(4.03113 1.08356)">
<stop stop-color="#9C899C"/>
<stop offset="0.675781" stop-color="#D6D7D9" stop-opacity="0"/>
</radialGradient>
<radialGradient id="paint21_radial_7159_2161" cx="0" cy="0" r="1" gradientUnits="userSpaceOnUse" gradientTransform="translate(17 9.99988) rotate(90) scale(1 0.618546)">
<stop stop-color="#9C899C"/>
<stop offset="1" stop-color="#D6D7D9" stop-opacity="0"/>
</radialGradient>
<radialGradient id="paint22_radial_7159_2161" cx="0" cy="0" r="1" gradientUnits="userSpaceOnUse" gradientTransform="translate(14 9.99988) rotate(90) scale(1 0.618546)">
<stop stop-color="#9C899C"/>
<stop offset="1" stop-color="#D6D7D9" stop-opacity="0"/>
</radialGradient>
<radialGradient id="paint23_radial_7159_2161" cx="0" cy="0" r="1" gradientUnits="userSpaceOnUse" gradientTransform="translate(15.5 11.9999) scale(1.5)">
<stop offset="0.15625" stop-color="#9C899C"/>
<stop offset="1" stop-color="#D6D7D9" stop-opacity="0"/>
</radialGradient>
<radialGradient id="paint24_radial_7159_2161" cx="0" cy="0" r="1" gradientUnits="userSpaceOnUse" gradientTransform="translate(13 7.49988) rotate(63.435) scale(2.23607 11.6695)">
<stop offset="0.0223122" stop-color="#807B85"/>
<stop offset="0.559375" stop-color="#DADBDC" stop-opacity="0"/>
</radialGradient>
<radialGradient id="paint25_radial_7159_2161" cx="0" cy="0" r="1" gradientUnits="userSpaceOnUse" gradientTransform="translate(26.5 13.4999) rotate(-172.875) scale(20.1556 11.6399)">
<stop offset="0.875385" stop-color="#C5C2C9" stop-opacity="0"/>
<stop offset="0.906538" stop-color="#A8A8A9"/>
</radialGradient>
<linearGradient id="paint26_linear_7159_2161" x1="9.24596" y1="6.08033" x2="14.7724" y2="3.70921" gradientUnits="userSpaceOnUse">
<stop offset="0.00558659" stop-color="#513468"/>
<stop offset="1" stop-color="#1C1C1C"/>
</linearGradient>
<linearGradient id="paint27_linear_7159_2161" x1="11.5" y1="3.5" x2="13.5" y2="9" gradientUnits="userSpaceOnUse">
<stop stop-color="#6D5D7B"/>
<stop offset="0.555639" stop-color="#1C1C1C" stop-opacity="0"/>
</linearGradient>
<linearGradient id="paint28_linear_7159_2161" x1="17" y1="3.5" x2="9.5" y2="7" gradientUnits="userSpaceOnUse">
<stop offset="0.262416" stop-color="#55BEEF"/>
<stop offset="0.9888" stop-color="#3A73B8"/>
</linearGradient>
<linearGradient id="paint29_linear_7159_2161" x1="9.11958" y1="8.33001" x2="16.4772" y2="5.1732" gradientUnits="userSpaceOnUse">
<stop offset="0.00558659" stop-color="#513468"/>
<stop offset="1" stop-color="#1C1C1C"/>
</linearGradient>
<radialGradient id="paint30_radial_7159_2161" cx="0" cy="0" r="1" gradientUnits="userSpaceOnUse" gradientTransform="translate(12.7984 6.7516) rotate(-24.3005) scale(7.90171 0.623568)">
<stop offset="0.00558659" stop-color="#695E75"/>
<stop offset="1" stop-color="#695E75" stop-opacity="0"/>
</radialGradient>
<linearGradient id="paint31_linear_7159_2161" x1="15" y1="9.50012" x2="13.5" y2="9.50012" gradientUnits="userSpaceOnUse">
<stop offset="0.612955" stop-color="#62566C"/>
<stop offset="0.90625" stop-color="#34252B"/>
</linearGradient>
<linearGradient id="paint32_linear_7159_2161" x1="14" y1="8.50012" x2="14" y2="10.5001" gradientUnits="userSpaceOnUse">
<stop offset="0.612955" stop-color="#34252B" stop-opacity="0"/>
<stop offset="0.834974" stop-color="#34252B"/>
</linearGradient>
<linearGradient id="paint33_linear_7159_2161" x1="18" y1="9.50012" x2="16.5" y2="9.50012" gradientUnits="userSpaceOnUse">
<stop offset="0.612955" stop-color="#62566C"/>
<stop offset="0.90625" stop-color="#34252B"/>
</linearGradient>
<linearGradient id="paint34_linear_7159_2161" x1="17" y1="8.50012" x2="17" y2="10.5001" gradientUnits="userSpaceOnUse">
<stop offset="0.612955" stop-color="#34252B" stop-opacity="0"/>
<stop offset="0.834974" stop-color="#34252B"/>
</linearGradient>
<linearGradient id="paint35_linear_7159_2161" x1="14.8152" y1="12.0335" x2="20.0848" y2="12.0335" gradientUnits="userSpaceOnUse">
<stop stop-color="#DB6541"/>
<stop offset="1" stop-color="#FD9E3C"/>
</linearGradient>
<linearGradient id="paint36_linear_7159_2161" x1="17" y1="14" x2="17.5" y2="7.5" gradientUnits="userSpaceOnUse">
<stop offset="0.34614" stop-color="#D2785A" stop-opacity="0"/>
<stop offset="0.5125" stop-color="#6F2911"/>
</linearGradient>
<radialGradient id="paint37_radial_7159_2161" cx="0" cy="0" r="1" gradientUnits="userSpaceOnUse" gradientTransform="translate(17 12) scale(13 13)">
<stop offset="0.0600962" stop-color="#AA3E27" stop-opacity="0"/>
<stop offset="0.375" stop-color="#AA3E27"/>
</radialGradient>
<radialGradient id="paint38_radial_7159_2161" cx="0" cy="0" r="1" gradientUnits="userSpaceOnUse" gradientTransform="translate(19.5 12) rotate(146.31) scale(1.80278)">
<stop stop-color="#FFAA5E"/>
<stop offset="0.231402" stop-color="#FF7C00" stop-opacity="0"/>
</radialGradient>
<linearGradient id="paint39_linear_7159_2161" x1="17" y1="14" x2="16.5" y2="7.5" gradientUnits="userSpaceOnUse">
<stop offset="0.163101" stop-color="#9C4326"/>
<stop offset="0.246922" stop-color="#D2785A" stop-opacity="0"/>
</linearGradient>
</defs>
</svg>
