<svg width="32" height="32" viewBox="0 0 32 32" fill="none" xmlns="http://www.w3.org/2000/svg">
<path d="M25.3323 23.7422C25.3323 24.824 24.3885 25.7041 23.222 25.7041H21.6966C21.7492 25.8677 21.7796 26.0392 21.7796 26.2197V30.1426C21.7796 31.168 20.8824 32 19.7767 32C18.6731 31.9998 17.7776 31.1679 17.7776 30.1426V26.2197C17.7777 26.0392 17.8062 25.8677 17.8568 25.7041H14.1429C14.1935 25.8677 14.2239 26.0392 14.2239 26.2197V30.1426C14.2239 31.168 13.3267 32 12.223 32C11.1192 32 10.222 31.168 10.222 30.1426V26.2197C10.222 26.0392 10.2504 25.8677 10.303 25.7041H8.7796C7.61328 25.7039 6.6673 24.8239 6.6673 23.7422V10.1162H25.3323V23.7422ZM3.33429 10.1162C4.43801 10.1162 5.33331 10.9482 5.33331 11.9736V19.9229C5.33328 20.9482 4.43799 21.7802 3.33429 21.7803C2.22854 21.7803 1.33335 20.9482 1.33331 19.9229V11.9736C1.33331 10.9482 2.22852 10.1162 3.33429 10.1162ZM28.6673 10.1162C29.771 10.1162 30.6663 10.9482 30.6663 11.9736V19.9229C30.6663 20.9482 29.771 21.7803 28.6673 21.7803C27.5618 21.78 26.6673 20.9481 26.6673 19.9229V11.9736C26.6673 10.9484 27.5617 10.1164 28.6673 10.1162ZM21.6136 0.138672C21.7129 -0.00423065 21.9217 -0.0431959 22.0735 0.0527344C22.2274 0.14682 22.2696 0.338469 22.1663 0.481445L21.3362 1.64062L20.9642 2.15625L20.5911 2.67871C23.4183 3.90355 25.3323 6.22414 25.3323 8.87891H6.6673C6.6673 6.2242 8.58133 3.90357 11.4105 2.67871L11.0364 2.15625L10.6634 1.64062L9.83331 0.481445C9.73211 0.338543 9.77442 0.146872 9.92609 0.0527344C10.0799 -0.0412696 10.2866 -0.0040541 10.39 0.138672L11.2816 1.38086L11.6556 1.90234L12.0345 2.43262C13.2395 1.998 14.5847 1.75488 16.0003 1.75488C17.4178 1.75492 18.7603 1.99807 19.9651 2.43262L20.346 1.90234L21.6136 0.138672ZM12.0003 4.54395C11.4476 4.54395 10.9996 4.95726 10.9993 5.4707C10.9993 5.98434 11.4474 6.40039 12.0003 6.40039C12.5531 6.40032 13.0003 5.9843 13.0003 5.4707C13 4.95731 12.553 4.54402 12.0003 4.54395ZM19.9993 4.54395C19.4468 4.54418 18.9996 4.95741 18.9993 5.4707C18.9993 5.9842 19.4467 6.40016 19.9993 6.40039C20.5522 6.40039 21.0003 5.98434 21.0003 5.4707C21 4.95726 20.5521 4.54395 19.9993 4.54395Z" fill="#A4C639"/>
</svg>
