<svg width="256" height="256" viewBox="0 0 256 256" fill="none" xmlns="http://www.w3.org/2000/svg">
<path d="M204.262 0H51.7055C23.1331 0 0 23.136 0 51.712V204.32C0 232.864 23.1331 256 51.7055 256H204.294C232.835 256 256 232.864 256 204.288V51.712C255.968 23.136 232.835 0 204.262 0Z" fill="url(#paint0_linear_7159_5243)"/>
<path d="M126.9 58.8157L132.084 49.8557C135.283 44.2557 142.418 42.3677 148.018 45.5677C153.617 48.7677 155.505 55.9037 152.305 61.5037L102.359 147.968H138.483C150.193 147.968 156.753 161.728 151.665 171.264H45.7585C39.2953 171.264 34.1119 166.08 34.1119 159.616C34.1119 153.152 39.2953 147.968 45.7585 147.968H75.4508L113.462 82.0797L101.591 61.4717C98.3919 55.8717 100.28 48.7997 105.879 45.5357C111.478 42.3357 118.549 44.2237 121.813 49.8237L126.9 58.8157ZM81.9779 183.264L70.7793 202.688C67.5797 208.288 60.4446 210.176 54.8453 206.976C49.246 203.776 47.3583 196.64 50.5579 191.04L58.8768 176.64C68.2837 173.728 75.9307 175.968 81.9779 183.264ZM178.414 148.032H208.714C215.177 148.032 220.361 153.216 220.361 159.68C220.361 166.144 215.177 171.328 208.714 171.328H191.884L203.243 191.04C206.442 196.64 204.555 203.712 198.955 206.976C193.356 210.176 186.285 208.288 183.021 202.688C163.888 169.504 149.521 144.672 139.987 128.128C130.228 111.296 137.203 94.3997 144.082 88.6717C151.729 101.792 163.152 121.6 178.414 148.032Z" fill="white"/>
<defs>
<linearGradient id="paint0_linear_7159_5243" x1="127.984" y1="0" x2="127.984" y2="256" gradientUnits="userSpaceOnUse">
<stop stop-color="#0ED4FC"/>
<stop offset="1" stop-color="#0C57EF"/>
</linearGradient>
</defs>
</svg>
