<svg width="32" height="32" viewBox="0 0 32 32" fill="none" xmlns="http://www.w3.org/2000/svg">
<path d="M25.5328 0H6.46319C2.89164 0 0 2.892 0 6.464V25.54C0 29.108 2.89164 32 6.46319 32H25.5368C29.1044 32 32 29.108 32 25.536V6.464C31.996 2.892 29.1044 0 25.5328 0Z" fill="url(#paint0_linear_7159_5243)"/>
<path d="M15.8625 7.35196L16.5104 6.23196C16.9104 5.53196 17.8023 5.29596 18.5022 5.69596C19.2021 6.09596 19.4381 6.98796 19.0381 7.68796L12.7949 18.496H17.3103C18.7742 18.496 19.5941 20.216 18.9581 21.408H5.71979C4.9119 21.408 4.26398 20.76 4.26398 19.952C4.26398 19.144 4.9119 18.496 5.71979 18.496H9.43133L14.1827 10.26L12.6989 7.68396C12.299 6.98396 12.5349 6.09996 13.2349 5.69196C13.9348 5.29196 14.8187 5.52796 15.2266 6.22796L15.8625 7.35196ZM10.2472 22.908L8.8474 25.336C8.44745 26.036 7.55556 26.272 6.85565 25.872C6.15574 25.472 5.91977 24.58 6.31972 23.88L7.35959 22.08C8.53544 21.716 9.49132 21.996 10.2472 22.908ZM22.3017 18.504H26.0892C26.8971 18.504 27.5451 19.152 27.5451 19.96C27.5451 20.768 26.8971 21.416 26.0892 21.416H23.9855L25.4053 23.88C25.8053 24.58 25.5693 25.464 24.8694 25.872C24.1695 26.272 23.2856 26.036 22.8776 25.336C20.4859 21.188 18.6902 18.084 17.4983 16.016C16.2785 13.912 17.1504 11.8 18.0103 11.084C18.9661 12.724 20.394 15.2 22.3017 18.504Z" fill="white"/>
<defs>
<linearGradient id="paint0_linear_7159_5243" x1="15.998" y1="0" x2="15.998" y2="32" gradientUnits="userSpaceOnUse">
<stop stop-color="#0ED4FC"/>
<stop offset="1" stop-color="#0C57EF"/>
</linearGradient>
</defs>
</svg>
