<svg width="256" height="256" viewBox="0 0 256 256" fill="none" xmlns="http://www.w3.org/2000/svg">
<path d="M255.894 122.589C254.466 89.1396 239.999 57.5799 215.593 34.6711C191.187 11.7623 158.783 -0.673441 125.323 0.0281522C91.8626 0.729745 60.0077 14.5128 36.5826 38.4246C13.1576 62.3363 0.0255906 94.4747 0 127.955C0 128.199 0.392199 142.567 1.378 149.608C2.43799 157.031 7.38818 172.067 7.90758 172.364C18.291 200.441 38.1785 223.992 64.1151 238.926C90.0516 253.86 120.398 259.233 149.883 254.112C179.368 248.99 206.128 233.698 225.513 210.891C244.899 188.085 255.686 159.205 256 129.27C256 129.005 255.915 123.013 255.894 122.589ZM128.111 237.185C109.788 237.199 91.7565 232.599 75.6774 223.81C59.5983 215.021 45.989 202.324 36.1035 186.891C42.6139 189.546 49.5633 190.96 56.5933 191.059C82.0332 190.804 104.071 183.084 124.698 169.501C131.44 165.068 140.831 157.338 147.34 152.598L131.959 138.601C116.769 149.417 92.665 166.68 73.8076 169.713C53.1165 173.042 33.2309 168.048 23.6061 148.505C20.9871 143.069 19.3814 137.201 18.868 131.189C18.868 130.129 18.815 129.005 18.815 127.902C18.815 124.869 18.9528 121.857 19.1966 118.888C21.2 104.658 29.0227 91.5091 43.1419 85.7936C57.9819 79.7918 72.7476 81.3506 86.994 87.9144C104.357 95.8673 117.469 109.462 131.355 122.017C144.244 133.681 157.855 144.497 170.342 156.596C190.333 176.043 211.682 177.92 227.984 172.311C219.39 191.627 205.381 208.035 187.655 219.549C169.929 231.064 149.246 237.19 128.111 237.185ZM227.497 150.234L227.401 150.308C223.599 153.208 218.895 154.669 214.12 154.433H213.791C211.797 154.437 209.811 154.194 207.876 153.712H207.76C192.994 150.774 181.98 141.422 171.179 131.836C154.505 116.99 138.425 101.54 121.211 87.416C105.904 74.7974 88.3508 66.7066 68.02 64.4374C56.5297 63.1437 41.5201 68.3502 34.4393 71.4996C45.0579 53.8494 60.4436 39.5581 78.8249 30.2712C97.2061 20.9844 117.836 17.0796 138.338 19.0064C158.84 20.9333 178.382 28.6135 194.712 41.1628C211.043 53.712 223.498 70.6199 230.645 89.9398C220.628 86.3557 205.915 84.4682 193.269 91.8591C183.676 97.4579 174.804 102.993 164.427 110.183C169.483 115.018 179.489 123.745 179.489 123.745C184.079 120.415 203.647 104.658 215.222 105.146C218.17 105.144 221.085 105.774 223.769 106.994C226.453 108.214 228.845 109.996 230.783 112.219C233.423 114.753 235.462 117.847 236.75 121.273C238.038 124.699 238.544 128.37 238.228 132.017C237.913 135.664 236.786 139.194 234.929 142.348C233.072 145.502 230.532 148.2 227.497 150.244V150.234Z" fill="url(#paint0_linear_7159_5288)"/>
<path d="M255.894 122.589C254.466 89.1396 239.999 57.5799 215.593 34.6711C191.187 11.7623 158.783 -0.673441 125.323 0.0281522C91.8626 0.729745 60.0077 14.5128 36.5826 38.4246C13.1576 62.3363 0.0255906 94.4747 0 127.955C0 128.199 0.392199 142.567 1.378 149.608C2.43799 157.031 7.38818 172.067 7.90758 172.364C18.291 200.441 38.1785 223.992 64.1151 238.926C90.0516 253.86 120.398 259.233 149.883 254.112C179.368 248.99 206.128 233.698 225.513 210.891C244.899 188.085 255.686 159.205 256 129.27C256 129.005 255.915 123.013 255.894 122.589ZM128.111 237.185C109.788 237.199 91.7565 232.599 75.6774 223.81C59.5983 215.021 45.989 202.324 36.1035 186.891C42.6139 189.546 49.5633 190.96 56.5933 191.059C82.0332 190.804 104.071 183.084 124.698 169.501C131.44 165.068 140.831 157.338 147.34 152.598L131.959 138.601C116.769 149.417 92.665 166.68 73.8076 169.713C53.1165 173.042 33.2309 168.048 23.6061 148.505C20.9871 143.069 19.3814 137.201 18.868 131.189C18.868 130.129 18.815 129.005 18.815 127.902C18.815 124.869 18.9528 121.857 19.1966 118.888C21.2 104.658 29.0227 91.5091 43.1419 85.7936C57.9819 79.7918 72.7476 81.3506 86.994 87.9144C104.357 95.8673 117.469 109.462 131.355 122.017C144.244 133.681 157.855 144.497 170.342 156.596C190.333 176.043 211.682 177.92 227.984 172.311C219.39 191.627 205.381 208.035 187.655 219.549C169.929 231.064 149.246 237.19 128.111 237.185ZM227.497 150.234L227.401 150.308C223.599 153.208 218.895 154.669 214.12 154.433H213.791C211.797 154.437 209.811 154.194 207.876 153.712H207.76C192.994 150.774 181.98 141.422 171.179 131.836C154.505 116.99 138.425 101.54 121.211 87.416C105.904 74.7974 88.3508 66.7066 68.02 64.4374C56.5297 63.1437 41.5201 68.3502 34.4393 71.4996C45.0579 53.8494 60.4436 39.5581 78.8249 30.2712C97.2061 20.9844 117.836 17.0796 138.338 19.0064C158.84 20.9333 178.382 28.6135 194.712 41.1628C211.043 53.712 223.498 70.6199 230.645 89.9398C220.628 86.3557 205.915 84.4682 193.269 91.8591C183.676 97.4579 174.804 102.993 164.427 110.183C169.483 115.018 179.489 123.745 179.489 123.745C184.079 120.415 203.647 104.658 215.222 105.146C218.17 105.144 221.085 105.774 223.769 106.994C226.453 108.214 228.845 109.996 230.783 112.219C233.423 114.753 235.462 117.847 236.75 121.273C238.038 124.699 238.544 128.37 238.228 132.017C237.913 135.664 236.786 139.194 234.929 142.348C233.072 145.502 230.532 148.2 227.497 150.244V150.234Z" fill="url(#paint1_linear_7159_5288)"/>
<defs>
<linearGradient id="paint0_linear_7159_5288" x1="196.267" y1="21.8182" x2="68.9519" y2="247.763" gradientUnits="userSpaceOnUse">
<stop stop-color="#FF1080"/>
<stop offset="0.963543" stop-color="#42C4FF"/>
</linearGradient>
<linearGradient id="paint1_linear_7159_5288" x1="55.4667" y1="32" x2="259.214" y2="181.061" gradientUnits="userSpaceOnUse">
<stop stop-color="#FF9124"/>
<stop offset="0.225429" stop-color="#FF9798" stop-opacity="0.519085"/>
<stop offset="0.375" stop-color="#EE988B" stop-opacity="0.2"/>
<stop offset="0.515" stop-color="#ED90A9" stop-opacity="0"/>
<stop offset="0.610586" stop-color="#EC88C5" stop-opacity="0.2"/>
<stop offset="1" stop-color="#EA7AFA"/>
</linearGradient>
</defs>
</svg>
