<svg width="256" height="256" viewBox="0 0 256 256" fill="none" xmlns="http://www.w3.org/2000/svg">
<g clip-path="url(#clip0_7159_5287)">
<path d="M0 64C0 28.6538 28.6538 0 64 0H192C227.346 0 256 28.6538 256 64V192C256 227.346 227.346 256 192 256H64C28.6538 256 0 227.346 0 192V64Z" fill="white"/>
<path d="M0 64C0 28.6538 28.6538 0 64 0H192C227.346 0 256 28.6538 256 64V192C256 227.346 227.346 256 192 256H64C28.6538 256 0 227.346 0 192V64Z" fill="url(#paint0_radial_7159_5287)"/>
<path d="M0 64C0 28.6538 28.6538 0 64 0H192C227.346 0 256 28.6538 256 64V192C256 227.346 227.346 256 192 256H64C28.6538 256 0 227.346 0 192V64Z" fill="url(#paint1_radial_7159_5287)"/>
<path d="M0 64C0 28.6538 28.6538 0 64 0H192C227.346 0 256 28.6538 256 64V192C256 227.346 227.346 256 192 256H64C28.6538 256 0 227.346 0 192V64Z" fill="url(#paint2_radial_7159_5287)"/>
<path d="M0 64C0 28.6538 28.6538 0 64 0H192C227.346 0 256 28.6538 256 64V192C256 227.346 227.346 256 192 256H64C28.6538 256 0 227.346 0 192V64Z" fill="url(#paint3_radial_7159_5287)"/>
<path d="M0 64C0 28.6538 28.6538 0 64 0H192C227.346 0 256 28.6538 256 64V192C256 227.346 227.346 256 192 256H64C28.6538 256 0 227.346 0 192V64Z" fill="url(#paint4_radial_7159_5287)"/>
<path d="M0 64C0 28.6538 28.6538 0 64 0H192C227.346 0 256 28.6538 256 64V192C256 227.346 227.346 256 192 256H64C28.6538 256 0 227.346 0 192V64Z" fill="url(#paint5_radial_7159_5287)"/>
<path d="M0 64C0 28.6538 28.6538 0 64 0H192C227.346 0 256 28.6538 256 64V192C256 227.346 227.346 256 192 256H64C28.6538 256 0 227.346 0 192V64Z" fill="url(#paint6_radial_7159_5287)"/>
<path d="M0 64C0 28.6538 28.6538 0 64 0H192C227.346 0 256 28.6538 256 64V192C256 227.346 227.346 256 192 256H64C28.6538 256 0 227.346 0 192V64Z" fill="url(#paint7_radial_7159_5287)" style="mix-blend-mode:soft-light"/>
<path fill-rule="evenodd" clip-rule="evenodd" d="M106.441 45.9275C116.477 27.2448 142.735 27.3876 152.577 46.1784L161.241 62.7207L180.937 60.5964C200.772 58.4571 215.6 78.8598 207.909 97.7085L200.648 115.504L216.218 130.225C229.866 143.128 224.782 166.322 207.059 172.011L186.713 178.542L185.625 200.24C184.673 219.203 164.082 230.044 148.473 219.801L128.18 206.482L107.274 220.102C91.7195 230.236 71.2623 219.505 70.1985 200.655L68.9458 178.456L49.0708 172.202C30.9965 166.515 26.0231 142.722 40.2393 129.953L55.6629 116.1L48.293 97.0908C41.0191 78.3296 55.7691 58.3543 75.3741 60.4161L97.4129 62.7337L106.441 45.9275ZM91.915 72.9683L74.3016 71.116C62.5385 69.879 53.6885 81.8642 58.0529 93.1209L64.0435 108.572L70.5384 102.739C77.4223 96.5554 83.2009 89.1902 87.6146 80.9738L91.915 72.9683ZM68.1575 119.183L77.4621 110.826C85.2639 103.818 91.813 95.4709 96.8152 86.159L103.26 74.1614L120.449 75.9691C126.588 76.6147 132.776 76.6065 138.914 75.9445L155.323 74.1747L161.838 86.613C166.532 95.5763 172.654 103.674 179.951 110.574L188.125 118.301L183.961 128.507C179.998 138.219 177.702 148.559 177.175 159.072L176.601 170.516L162.66 174.991C155.188 177.39 148.057 180.785 141.45 185.089L128.2 193.721L115.434 185.343C108.615 180.868 101.233 177.364 93.4921 174.928L79.0083 170.37L78.3079 157.961C77.7568 148.195 75.6793 138.584 72.1545 129.492L68.1575 119.183ZM59.7769 126.711L47.163 138.04C39.1278 145.258 41.9388 158.706 52.1547 161.92L68.2992 167.001L67.8241 158.582C67.3378 149.965 65.5047 141.484 62.3946 133.462L59.7769 126.711ZM79.6548 181.826L80.6824 200.035C81.2837 210.689 92.8464 216.754 101.638 211.026L118.432 200.085L109.768 194.399C103.752 190.451 97.2386 187.36 90.4082 185.21L79.6548 181.826ZM137.948 200.118L154.139 210.744C162.961 216.534 174.6 210.406 175.137 199.688L176.026 181.973L165.801 185.255C159.208 187.372 152.916 190.367 147.086 194.165L137.948 200.118ZM187.288 167.086L203.919 161.747C213.936 158.531 216.809 145.422 209.096 138.129L196.338 126.067L193.65 132.655C190.153 141.224 188.127 150.348 187.662 159.624L187.288 167.086ZM192.435 107.738L198.22 93.5607C202.834 82.2515 193.938 70.0099 182.037 71.2935L166.603 72.9581L171.091 81.5282C175.234 89.4369 180.635 96.5823 187.074 102.67L192.435 107.738ZM149.961 63.9373L137.814 65.2474C132.399 65.8315 126.939 65.8388 121.522 65.2691L108.758 63.9268L115.642 51.1127C121.663 39.9031 137.418 39.9888 143.323 51.2633L149.961 63.9373Z" fill="white"/>
</g>
<defs>
<radialGradient id="paint0_radial_7159_5287" cx="0" cy="0" r="1" gradientUnits="userSpaceOnUse" gradientTransform="translate(226.844 21.6889) rotate(137.811) scale(210.185)">
<stop stop-color="#F7306E"/>
<stop offset="1" stop-color="#F7306E" stop-opacity="0"/>
</radialGradient>
<radialGradient id="paint1_radial_7159_5287" cx="0" cy="0" r="1" gradientUnits="userSpaceOnUse" gradientTransform="translate(226.844 21.6889) rotate(137.811) scale(210.185)">
<stop stop-color="#F7306E"/>
<stop offset="1" stop-color="#F7306E" stop-opacity="0"/>
</radialGradient>
<radialGradient id="paint2_radial_7159_5287" cx="0" cy="0" r="1" gradientUnits="userSpaceOnUse" gradientTransform="translate(221.511 219.022) rotate(-130.284) scale(174.318)">
<stop stop-color="#EB78F9"/>
<stop offset="1" stop-color="#EB78F9" stop-opacity="0"/>
</radialGradient>
<radialGradient id="paint3_radial_7159_5287" cx="0" cy="0" r="1" gradientUnits="userSpaceOnUse" gradientTransform="translate(221.511 219.022) rotate(-130.284) scale(174.318)">
<stop stop-color="#EB78F9"/>
<stop offset="1" stop-color="#EB78F9" stop-opacity="0"/>
</radialGradient>
<radialGradient id="paint4_radial_7159_5287" cx="0" cy="0" r="1" gradientTransform="matrix(196.267 -204.444 214.726 197.421 33.0667 235.733)" gradientUnits="userSpaceOnUse">
<stop stop-color="#00AEFF"/>
<stop offset="1" stop-color="#3963F9" stop-opacity="0"/>
</radialGradient>
<radialGradient id="paint5_radial_7159_5287" cx="0" cy="0" r="1" gradientUnits="userSpaceOnUse" gradientTransform="translate(26.6667 19.2) rotate(42.3246) scale(161.585)">
<stop stop-color="#F1A455"/>
<stop offset="1" stop-color="#F1A455" stop-opacity="0"/>
</radialGradient>
<radialGradient id="paint6_radial_7159_5287" cx="0" cy="0" r="1" gradientUnits="userSpaceOnUse" gradientTransform="translate(26.6667 19.2) rotate(42.3246) scale(161.585)">
<stop stop-color="#F1A455"/>
<stop offset="1" stop-color="#F1A455" stop-opacity="0"/>
</radialGradient>
<radialGradient id="paint7_radial_7159_5287" cx="0" cy="0" r="1" gradientTransform="matrix(256 -75.0222 82.8771 261.758 -6.04443 158.578)" gradientUnits="userSpaceOnUse">
<stop stop-color="#FFF8E4"/>
<stop offset="1" stop-color="#FFF8E4" stop-opacity="0"/>
</radialGradient>
<clipPath id="clip0_7159_5287">
<rect width="256" height="256" fill="white"/>
</clipPath>
</defs>
</svg>
