<svg width="256" height="256" viewBox="0 0 256 256" fill="none" xmlns="http://www.w3.org/2000/svg">
<g clip-path="url(#clip0_7159_5280)">
<path fill-rule="evenodd" clip-rule="evenodd" d="M121.583 207.268C132.094 207.268 142.453 205.839 152.455 203.196L159.336 217.917L159.342 217.93C165.365 230.766 177.945 238.298 191.078 238.298C194.207 238.298 197.393 237.853 200.473 236.972L200.593 236.938L201.114 236.775C222.227 230.351 231.485 205.894 222.376 186.414L213.678 167.814C233.186 148.621 247.582 123.647 253.07 95.7797C253.976 91.1793 253.981 86.4426 253.087 81.8401C252.192 77.2377 250.414 72.8596 247.855 68.956C245.295 65.0523 242.005 61.6997 238.171 59.0896C234.337 56.4795 230.035 54.663 225.511 53.7439L225.489 53.7394C206.501 49.9267 187.988 62.3927 184.178 81.7663C183.26 86.4321 181.776 90.9915 179.797 95.3685L154.861 42.0259L154.857 42.018C149.035 29.5902 136.71 21.6472 123.16 21.6446C116.499 21.637 109.975 23.562 104.353 27.1937C98.7386 30.8204 94.257 35.9986 91.4327 42.1216L66.2196 96.0587C56.832 83.7031 40.1918 78.671 25.2732 84.8122C7.32314 92.2014 -1.33767 112.965 5.8281 131.208L6.01961 131.715L6.06901 131.836C11.7288 145.742 20.7888 158.457 31.9128 169.271L23.8587 186.49C15.9246 203.485 21.6689 224.823 38.7413 234.057C42.9283 236.326 47.5243 237.71 52.2518 238.123C56.9815 238.536 61.7446 237.97 66.2531 236.459C70.7617 234.948 74.922 232.522 78.4826 229.33C82.0433 226.137 84.9302 222.243 86.9691 217.884L93.5993 203.71C102.783 206.008 112.186 207.268 121.583 207.268ZM157.935 190.677L145.004 163.006L168.585 213.446L136.363 144.514L145.004 163.006L141.942 156.457L157.935 190.677ZM136.327 144.445C136.326 144.446 136.328 144.445 136.327 144.445V144.445ZM68.2481 119.782C68.4385 120.02 68.6315 120.258 68.8269 120.495C68.7361 120.385 68.6451 120.274 68.5556 120.164C68.4526 120.037 68.3497 119.909 68.2481 119.782ZM69.3409 121.109C69.3658 121.139 69.3908 121.168 69.4158 121.198L69.3409 121.109ZM69.4357 121.18L69.438 121.183L69.4441 121.19C69.4413 121.187 69.4385 121.183 69.4357 121.18Z" fill="white"/>
<path fill-rule="evenodd" clip-rule="evenodd" d="M88.0639 191.302L109.739 144.931C93.1839 141.356 76.5269 130.943 67.1061 118.274L44.4415 166.728C57.0367 177.592 72.1578 186.131 88.0639 191.302Z" fill="#1A007F"/>
<path fill-rule="evenodd" clip-rule="evenodd" d="M178.517 116.887C167.629 130.458 152.508 140.524 136.328 144.446L157.935 190.678C173.705 185.263 188.45 176.517 201.182 165.306L178.517 116.887Z" fill="#4E000A"/>
<path fill-rule="evenodd" clip-rule="evenodd" d="M44.4416 166.729L33.1094 190.955C27.3408 203.277 31.6758 218.445 43.5542 224.866C56.1494 231.669 71.6459 226.359 77.7216 213.412L88.064 191.302C72.093 186.067 57.2767 177.72 44.4416 166.729Z" fill="#1A007F"/>
<path fill-rule="evenodd" clip-rule="evenodd" d="M223.505 63.9895C220.3 63.337 217 63.3329 213.793 63.9776C210.587 64.6222 207.537 65.903 204.817 67.7467C202.097 69.5904 199.762 71.9608 197.943 74.7227C196.125 77.4846 194.859 80.5837 194.219 83.8431C191.829 95.9912 186.231 107.306 178.517 116.921L201.148 165.375C222.037 146.944 237.466 121.849 242.995 93.7698C245.692 80.0251 236.954 66.6968 223.505 63.9895Z" fill="#FF9396"/>
<path fill-rule="evenodd" clip-rule="evenodd" d="M136.328 144.445C131.482 145.625 126.532 146.25 121.583 146.25C117.726 146.25 113.732 145.799 109.739 144.931C93.184 141.356 76.5269 130.943 67.1061 118.274C64.7509 115.116 62.8394 111.818 61.5082 108.452C56.3541 95.5053 41.8474 89.2576 29.1157 94.464C16.3839 99.705 10.2399 114.456 15.3599 127.403C21.1967 142.119 31.505 155.621 44.4415 166.728C57.2643 177.719 72.0693 186.066 88.0298 191.302C98.9866 194.877 110.353 196.856 121.549 196.856C133.973 196.856 146.227 194.669 157.901 190.677L136.328 144.445Z" fill="#002DC8"/>
<path fill-rule="evenodd" clip-rule="evenodd" d="M213.094 190.851L201.148 165.305L178.517 116.886L178.483 116.921C178.483 116.921 178.483 116.886 178.517 116.886L145.613 46.4966C143.593 42.1781 140.411 38.5299 136.436 35.9744C132.461 33.419 127.856 32.061 123.153 32.0576C113.562 32.0576 104.823 37.6805 100.693 46.4966L67.1403 118.275C76.5611 130.944 93.2181 141.356 109.773 144.931L120.627 121.746C121.651 119.559 124.723 119.559 125.747 121.746L136.363 144.445L157.969 190.678L168.585 213.377C170.603 217.704 173.789 221.359 177.771 223.915C181.754 226.472 186.369 227.825 191.078 227.816C193.297 227.816 195.516 227.504 197.7 226.879C212.685 222.679 219.785 205.151 213.094 190.851Z" fill="#FF536A"/>
</g>
<defs>
<clipPath id="clip0_7159_5280">
<rect width="256" height="218.667" fill="white" transform="translate(0 21.333)"/>
</clipPath>
</defs>
</svg>
