<svg width="32" height="32" viewBox="0 0 32 32" fill="none" xmlns="http://www.w3.org/2000/svg">
<g clip-path="url(#clip0_7159_5280)">
<path fill-rule="evenodd" clip-rule="evenodd" d="M15.1979 25.9085C16.5117 25.9085 17.8067 25.7299 19.0569 25.3995L19.917 27.2396L19.9178 27.2413C20.6706 28.8458 22.2432 29.7873 23.8848 29.7873C24.2759 29.7873 24.6741 29.7316 25.0591 29.6215L25.0741 29.6172L25.1392 29.5968C27.7783 28.7939 28.9356 25.7367 27.797 23.3017L26.7097 20.9768C29.1483 18.5776 30.9478 15.4558 31.6337 11.9725C31.747 11.3974 31.7477 10.8053 31.6358 10.23C31.524 9.65471 31.3017 9.10745 30.9818 8.6195C30.6619 8.13154 30.2506 7.71246 29.7714 7.3862C29.2922 7.05993 28.7544 6.83287 28.1889 6.71798L28.1861 6.71742C25.8126 6.24083 23.4985 7.79909 23.0222 10.2208C22.9075 10.804 22.7219 11.3739 22.4746 11.9211L19.3576 5.25324L19.3572 5.25225C18.6294 3.69878 17.0888 2.7059 15.395 2.70557C14.5624 2.70462 13.7469 2.94525 13.0441 3.39921C12.3423 3.85255 11.7821 4.49983 11.4291 5.26521L8.27744 12.0073C7.104 10.4629 5.02396 9.83387 3.15915 10.6015C0.915385 11.5252 -0.167217 14.1207 0.728505 16.401L0.752444 16.4643L0.758619 16.4795C1.4661 18.2177 2.59859 19.8072 3.98909 21.1589L2.98234 23.3112C1.99057 25.4356 2.70861 28.1029 4.84265 29.2571C5.36603 29.5408 5.94053 29.7137 6.53146 29.7654C7.12268 29.8171 7.71807 29.7463 8.28164 29.5574C8.8452 29.3685 9.36524 29.0653 9.81032 28.6662C10.2554 28.2671 10.6163 27.7804 10.8711 27.2355L11.6999 25.4638C12.8478 25.7511 14.0233 25.9085 15.1979 25.9085ZM19.7419 23.8347L18.1255 20.3757L21.0731 26.6808L17.0453 18.0643L18.1255 20.3757L17.7428 19.5572L19.7419 23.8347ZM17.0409 18.0557C17.0407 18.0557 17.041 18.0556 17.0409 18.0557V18.0557ZM8.53101 14.9727C8.55481 15.0026 8.57893 15.0323 8.60335 15.0619C8.592 15.0481 8.58063 15.0343 8.56945 15.0205C8.55657 15.0046 8.5437 14.9886 8.53101 14.9727ZM8.6676 15.1387C8.67072 15.1424 8.67384 15.146 8.67697 15.1497L8.6676 15.1387ZM8.67945 15.1475L8.67974 15.1478L8.6805 15.1487C8.68015 15.1483 8.6798 15.1479 8.67945 15.1475Z" fill="white"/>
<path fill-rule="evenodd" clip-rule="evenodd" d="M11.008 23.9126L13.7173 18.1162C11.648 17.6694 9.56584 16.3678 8.38824 14.7842L5.55518 20.8409C7.12958 22.1989 9.01971 23.2662 11.008 23.9126Z" fill="#1A007F"/>
<path fill-rule="evenodd" clip-rule="evenodd" d="M22.3147 14.6108C20.9536 16.3072 19.0635 17.5654 17.0411 18.0557L19.7419 23.8348C21.7131 23.1579 23.5563 22.0646 25.1477 20.6632L22.3147 14.6108Z" fill="#4E000A"/>
<path fill-rule="evenodd" clip-rule="evenodd" d="M5.5552 20.8408L4.13867 23.8692C3.4176 25.4094 3.95947 27.3054 5.44427 28.108C7.01867 28.9584 8.95574 28.2946 9.7152 26.6763L11.008 23.9126C9.01162 23.2581 7.15959 22.2148 5.5552 20.8408Z" fill="#1A007F"/>
<path fill-rule="evenodd" clip-rule="evenodd" d="M27.9381 7.99857C27.5375 7.917 27.125 7.91649 26.7242 7.99707C26.3233 8.07766 25.9421 8.23775 25.6021 8.46821C25.2621 8.69867 24.9702 8.99498 24.7429 9.34022C24.5155 9.68545 24.3573 10.0728 24.2773 10.4803C23.9786 11.9988 23.2789 13.4132 22.3146 14.615L25.1434 20.6717C27.7546 18.3679 29.6832 15.2311 30.3744 11.7211C30.7114 10.003 29.6192 8.33698 27.9381 7.99857Z" fill="#FF9396"/>
<path fill-rule="evenodd" clip-rule="evenodd" d="M17.041 18.0556C16.4352 18.2031 15.8165 18.2812 15.1978 18.2812C14.7157 18.2812 14.2165 18.2248 13.7173 18.1164C11.648 17.6695 9.56585 16.3679 8.38824 14.7843C8.09384 14.3895 7.85491 13.9773 7.68851 13.5565C7.04425 11.9382 5.23091 11.1572 3.63944 11.808C2.04798 12.4631 1.27998 14.307 1.91998 15.9254C2.64958 17.7649 3.93811 19.4527 5.55518 20.841C7.15802 22.2149 9.00864 23.2583 11.0037 23.9128C12.3733 24.3596 13.7941 24.6069 15.1936 24.6069C16.7466 24.6069 18.2784 24.3336 19.7376 23.8347L17.041 18.0556Z" fill="#002DC8"/>
<path fill-rule="evenodd" clip-rule="evenodd" d="M26.6368 23.856L25.1435 20.6628L22.3146 14.6104L22.3104 14.6148C22.3104 14.6148 22.3104 14.6104 22.3146 14.6104L18.2016 5.8117C17.9491 5.2719 17.5514 4.81587 17.0545 4.49644C16.5577 4.17701 15.982 4.00726 15.3941 4.00684C14.1952 4.00684 13.1029 4.70969 12.5867 5.8117L8.39252 14.784C9.57012 16.3676 11.6523 17.6692 13.7216 18.116L15.0784 15.2178C15.2064 14.9445 15.5904 14.9445 15.7184 15.2178L17.0453 18.0553L19.7461 23.8344L21.0731 26.6718C21.3253 27.2127 21.7236 27.6695 22.2214 27.989C22.7192 28.3086 23.2961 28.4777 23.8848 28.4767C24.1621 28.4767 24.4395 28.4376 24.7125 28.3595C26.5856 27.8346 27.4731 25.6436 26.6368 23.856Z" fill="#FF536A"/>
</g>
<defs>
<clipPath id="clip0_7159_5280">
<rect width="32" height="27.3333" fill="white" transform="translate(0 2.6665)"/>
</clipPath>
</defs>
</svg>
