<svg width="256" height="256" viewBox="0 0 256 256" fill="none" xmlns="http://www.w3.org/2000/svg">
<path d="M0 128C0 57.3076 57.3076 0 128 0C198.692 0 256 57.3076 256 128C256 198.692 198.692 256 128 256C57.3076 256 0 198.692 0 128Z" fill="#1769FF"/>
<path d="M165.272 105.377C170.707 105.377 175.596 106.344 179.947 108.269C184.306 110.185 187.894 113.226 190.72 117.376C193.296 121.035 194.95 125.28 195.705 130.103C196.147 132.922 196.323 137.008 196.251 142.322H150.791C151.064 148.492 153.215 152.824 157.325 155.303C159.814 156.847 162.808 157.623 166.324 157.623C170.025 157.623 173.051 156.681 175.371 154.804C176.647 153.782 177.771 152.372 178.734 150.566H195.392C194.95 154.209 192.928 157.924 189.348 161.693C183.76 167.673 175.933 170.666 165.875 170.666C157.567 170.666 150.237 168.148 143.903 163.096C137.537 158.051 134.374 149.83 134.374 138.457C134.374 127.79 137.24 119.609 142.964 113.915C148.704 108.237 156.129 105.377 165.272 105.377ZM100.506 85.333C110.797 85.4835 118.078 88.4377 122.373 94.2031C124.95 97.7431 126.242 101.972 126.242 106.906C126.242 111.982 124.95 116.077 122.341 119.165C120.88 120.892 118.736 122.476 115.902 123.901C120.205 125.454 123.449 127.901 125.656 131.251C127.84 134.593 128.939 138.664 128.939 143.447C128.939 148.381 127.687 152.808 125.175 156.72C123.585 159.309 121.594 161.496 119.202 163.27C116.513 165.305 113.341 166.691 109.673 167.451C106.004 168.203 102.038 168.567 97.7519 168.567H59.7333V85.333H100.506ZM76.5507 131.924V154.122H97.038C100.698 154.122 103.556 153.631 105.587 152.657C109.288 150.836 111.134 147.383 111.134 142.267C111.134 137.927 109.352 134.957 105.764 133.334C103.757 132.431 100.939 131.956 97.3271 131.924H76.5507ZM165.28 118.658C161.106 118.658 157.847 119.831 155.543 122.175C153.239 124.519 151.786 127.695 151.192 131.702H179.312C179.015 127.426 177.555 124.194 174.97 121.969C172.353 119.759 169.133 118.658 165.28 118.658ZM76.5507 99.7861V118.151H97.0703C100.722 118.151 103.7 117.463 105.996 116.085C108.276 114.707 109.425 112.268 109.425 108.783C109.425 104.895 107.915 102.336 104.896 101.085C102.279 100.222 98.9557 99.7861 94.9179 99.7861H76.5507ZM183.134 99.5723H146.977V89.2139H183.134V99.5723Z" fill="white"/>
</svg>
