<svg width="32" height="32" viewBox="0 0 32 32" fill="none" xmlns="http://www.w3.org/2000/svg">
<path d="M0 16C0 7.16344 7.16344 0 16 0C24.8366 0 32 7.16344 32 16C32 24.8366 24.8366 32 16 32C7.16344 32 0 24.8366 0 16Z" fill="#1769FF"/>
<path d="M20.6591 13.1724C21.3383 13.1724 21.9492 13.2932 22.493 13.5337C23.0378 13.7732 23.4866 14.1529 23.8397 14.6714C24.1617 15.1286 24.3684 15.6595 24.4628 16.2622C24.518 16.6146 24.5402 17.1263 24.5311 17.7905H18.8485C18.8827 18.5615 19.1522 19.1028 19.6659 19.4126C19.9769 19.6056 20.3515 19.7026 20.7909 19.7026C21.2533 19.7026 21.6318 19.5847 21.9218 19.3501C22.0811 19.2224 22.2214 19.0463 22.3417 18.8208H24.4237C24.3685 19.276 24.1161 19.7404 23.6688 20.2114C22.9704 20.9588 21.9916 21.3335 20.7343 21.3335C19.6959 21.3335 18.7798 21.0186 17.9882 20.3872C17.1924 19.7566 16.7968 18.7287 16.7968 17.3071C16.7968 15.9737 17.1545 14.9505 17.87 14.2388C18.5875 13.529 19.5161 13.1724 20.6591 13.1724ZM12.5634 10.6665C13.8496 10.6853 14.7599 11.0543 15.2968 11.7749C15.6188 12.2173 15.7801 12.7462 15.7802 13.3628C15.7802 13.9973 15.619 14.5099 15.2928 14.896C15.1102 15.1117 14.8422 15.3097 14.4882 15.4878C15.0257 15.6818 15.431 15.9873 15.7069 16.4058C15.9798 16.8235 16.1171 17.3332 16.1171 17.9312C16.117 18.5477 15.9604 19.1014 15.6464 19.5903C15.4477 19.9138 15.1991 20.1871 14.9003 20.4087C14.5641 20.6631 14.1674 20.8361 13.7089 20.9312C13.2504 21.0252 12.7544 21.0708 12.2186 21.0708H7.46667V10.6665H12.5634ZM9.56921 16.4907V19.2651H12.1298C12.5871 19.2651 12.9443 19.2041 13.1981 19.0825C13.6606 18.8549 13.8914 18.4229 13.8915 17.7837C13.8915 17.2412 13.6691 16.8694 13.2206 16.6665C12.9697 16.5537 12.6174 16.4947 12.1659 16.4907H9.56921ZM20.66 14.8325C20.1383 14.8325 19.7312 14.979 19.4432 15.272C19.1553 15.5649 18.9736 15.9616 18.8993 16.4624H22.4139C22.3768 15.928 22.194 15.5237 21.871 15.2456C21.5439 14.9696 21.1415 14.8325 20.66 14.8325ZM9.56921 12.4731V14.769H12.1337C12.5902 14.769 12.9629 14.6825 13.2499 14.5103C13.5346 14.338 13.6775 14.0333 13.6776 13.5981C13.6776 13.1121 13.4895 12.7917 13.1122 12.6353C12.7851 12.5274 12.3697 12.4732 11.8651 12.4731H9.56921ZM22.8915 12.4468H18.3719V11.1519H22.8915V12.4468Z" fill="white"/>
</svg>
