<svg width="256" height="256" viewBox="0 0 256 256" fill="none" xmlns="http://www.w3.org/2000/svg">
<path fill-rule="evenodd" clip-rule="evenodd" d="M223.224 25.3082C223.257 24.848 223.139 24.3879 222.847 24.0308C220.901 21.6536 216.07 17.9093 209.96 18.2369C209.46 18.2637 209.001 18.5049 208.666 18.8759L207.955 19.6646C206.85 20.8886 206.144 22.4189 205.928 24.0532L205.325 28.6309C205.049 30.7171 202.031 30.7171 201.756 28.6309L201.152 24.0532C200.936 22.4189 200.23 20.8886 199.126 19.6646L198.414 18.8759C198.08 18.5049 197.62 18.2637 197.121 18.2369C191.01 17.9093 186.179 21.6536 184.233 24.0308C183.941 24.3879 183.823 24.848 183.856 25.3082L183.926 26.2949C184.034 27.8048 184.561 29.2548 185.447 30.482L188.657 34.9264C190.007 36.7955 187.645 39.0882 185.817 37.683L182.403 35.059C181.096 34.0544 179.515 33.4701 177.869 33.3834L176.809 33.3275C176.31 33.3013 175.814 33.4554 175.442 33.7889C170.884 37.8732 170.109 43.9359 170.411 46.993C170.456 47.4522 170.698 47.8612 171.046 48.1637L171.793 48.8125C172.936 49.8052 174.333 50.4596 175.827 50.7023L179.726 51.3357C181.965 51.6995 181.965 54.9203 179.726 55.284L175.827 55.9174C174.333 56.1601 172.936 56.8146 171.793 57.8072L171.046 58.456C170.698 58.7586 170.456 59.1675 170.411 59.6267C170.109 62.6839 170.884 68.7465 175.442 72.8309C175.814 73.1643 176.31 73.3185 176.809 73.2922L177.869 73.2363C179.515 73.1496 181.096 72.5653 182.403 71.5607L185.817 68.9368C187.645 67.5316 190.007 69.8242 188.657 71.6934L185.447 76.1378C184.561 77.3649 184.034 78.8149 183.926 80.3248L183.856 81.3116C183.823 81.7718 183.941 82.2319 184.233 82.5889C186.179 84.9661 191.01 88.7104 197.121 88.3828C197.62 88.3561 198.08 88.1148 198.414 87.7438L199.126 86.9552C200.23 85.7311 200.936 84.2008 201.152 82.5665L201.557 79.4922C201.863 77.1742 205.217 77.1742 205.523 79.4922L205.928 82.5665C206.144 84.2008 206.85 85.7311 207.955 86.9552L208.666 87.7438C209.001 88.1148 209.46 88.3561 209.96 88.3828C216.07 88.7104 220.901 84.9661 222.847 82.5889C223.139 82.2319 223.257 81.7718 223.224 81.3116L223.154 80.3248C223.046 78.8149 222.519 77.3649 221.633 76.1378L218.423 71.6934C217.073 69.8242 219.435 67.5316 221.263 68.9368L224.677 71.5607C225.984 72.5653 227.565 73.1496 229.211 73.2363L230.271 73.2922C230.77 73.3185 231.266 73.1643 231.639 72.8309C236.196 68.7465 236.971 62.6839 236.669 59.6267C236.624 59.1675 236.382 58.7586 236.034 58.456L235.287 57.8072C234.144 56.8146 232.747 56.1601 231.253 55.9174L227.354 55.284C225.115 54.9203 225.115 51.6995 227.354 51.3357L231.253 50.7023C232.747 50.4596 234.144 49.8052 235.287 48.8125L236.034 48.1637C236.382 47.8612 236.624 47.4522 236.669 46.993C236.971 43.9359 236.196 37.8732 231.639 33.7889C231.266 33.4554 230.77 33.3013 230.271 33.3275L229.211 33.3834C227.565 33.4701 225.984 34.0544 224.677 35.059L221.263 37.683C219.435 39.0882 217.073 36.7955 218.423 34.9264L221.633 30.482C222.519 29.2548 223.046 27.8048 223.154 26.2949L223.224 25.3082Z" fill="url(#paint0_linear_7159_2158)"/>
<path fill-rule="evenodd" clip-rule="evenodd" d="M223.224 25.3082C223.257 24.848 223.139 24.3879 222.847 24.0308C220.901 21.6536 216.07 17.9093 209.96 18.2369C209.46 18.2637 209.001 18.5049 208.666 18.8759L207.955 19.6646C206.85 20.8886 206.144 22.4189 205.928 24.0532L205.325 28.6309C205.049 30.7171 202.031 30.7171 201.756 28.6309L201.152 24.0532C200.936 22.4189 200.23 20.8886 199.126 19.6646L198.414 18.8759C198.08 18.5049 197.62 18.2637 197.121 18.2369C191.01 17.9093 186.179 21.6536 184.233 24.0308C183.941 24.3879 183.823 24.848 183.856 25.3082L183.926 26.2949C184.034 27.8048 184.561 29.2548 185.447 30.482L188.657 34.9264C190.007 36.7955 187.645 39.0882 185.817 37.683L182.403 35.059C181.096 34.0544 179.515 33.4701 177.869 33.3834L176.809 33.3275C176.31 33.3013 175.814 33.4554 175.442 33.7889C170.884 37.8732 170.109 43.9359 170.411 46.993C170.456 47.4522 170.698 47.8612 171.046 48.1637L171.793 48.8125C172.936 49.8052 174.333 50.4596 175.827 50.7023L179.726 51.3357C181.965 51.6995 181.965 54.9203 179.726 55.284L175.827 55.9174C174.333 56.1601 172.936 56.8146 171.793 57.8072L171.046 58.456C170.698 58.7586 170.456 59.1675 170.411 59.6267C170.109 62.6839 170.884 68.7465 175.442 72.8309C175.814 73.1643 176.31 73.3185 176.809 73.2922L177.869 73.2363C179.515 73.1496 181.096 72.5653 182.403 71.5607L185.817 68.9368C187.645 67.5316 190.007 69.8242 188.657 71.6934L185.447 76.1378C184.561 77.3649 184.034 78.8149 183.926 80.3248L183.856 81.3116C183.823 81.7718 183.941 82.2319 184.233 82.5889C186.179 84.9661 191.01 88.7104 197.121 88.3828C197.62 88.3561 198.08 88.1148 198.414 87.7438L199.126 86.9552C200.23 85.7311 200.936 84.2008 201.152 82.5665L201.557 79.4922C201.863 77.1742 205.217 77.1742 205.523 79.4922L205.928 82.5665C206.144 84.2008 206.85 85.7311 207.955 86.9552L208.666 87.7438C209.001 88.1148 209.46 88.3561 209.96 88.3828C216.07 88.7104 220.901 84.9661 222.847 82.5889C223.139 82.2319 223.257 81.7718 223.224 81.3116L223.154 80.3248C223.046 78.8149 222.519 77.3649 221.633 76.1378L218.423 71.6934C217.073 69.8242 219.435 67.5316 221.263 68.9368L224.677 71.5607C225.984 72.5653 227.565 73.1496 229.211 73.2363L230.271 73.2922C230.77 73.3185 231.266 73.1643 231.639 72.8309C236.196 68.7465 236.971 62.6839 236.669 59.6267C236.624 59.1675 236.382 58.7586 236.034 58.456L235.287 57.8072C234.144 56.8146 232.747 56.1601 231.253 55.9174L227.354 55.284C225.115 54.9203 225.115 51.6995 227.354 51.3357L231.253 50.7023C232.747 50.4596 234.144 49.8052 235.287 48.8125L236.034 48.1637C236.382 47.8612 236.624 47.4522 236.669 46.993C236.971 43.9359 236.196 37.8732 231.639 33.7889C231.266 33.4554 230.77 33.3013 230.271 33.3275L229.211 33.3834C227.565 33.4701 225.984 34.0544 224.677 35.059L221.263 37.683C219.435 39.0882 217.073 36.7955 218.423 34.9264L221.633 30.482C222.519 29.2548 223.046 27.8048 223.154 26.2949L223.224 25.3082Z" fill="url(#paint1_linear_7159_2158)"/>
<path fill-rule="evenodd" clip-rule="evenodd" d="M223.224 25.3082C223.257 24.848 223.139 24.3879 222.847 24.0308C220.901 21.6536 216.07 17.9093 209.96 18.2369C209.46 18.2637 209.001 18.5049 208.666 18.8759L207.955 19.6646C206.85 20.8886 206.144 22.4189 205.928 24.0532L205.325 28.6309C205.049 30.7171 202.031 30.7171 201.756 28.6309L201.152 24.0532C200.936 22.4189 200.23 20.8886 199.126 19.6646L198.414 18.8759C198.08 18.5049 197.62 18.2637 197.121 18.2369C191.01 17.9093 186.179 21.6536 184.233 24.0308C183.941 24.3879 183.823 24.848 183.856 25.3082L183.926 26.2949C184.034 27.8048 184.561 29.2548 185.447 30.482L188.657 34.9264C190.007 36.7955 187.645 39.0882 185.817 37.683L182.403 35.059C181.096 34.0544 179.515 33.4701 177.869 33.3834L176.809 33.3275C176.31 33.3013 175.814 33.4554 175.442 33.7889C170.884 37.8732 170.109 43.9359 170.411 46.993C170.456 47.4522 170.698 47.8612 171.046 48.1637L171.793 48.8125C172.936 49.8052 174.333 50.4596 175.827 50.7023L179.726 51.3357C181.965 51.6995 181.965 54.9203 179.726 55.284L175.827 55.9174C174.333 56.1601 172.936 56.8146 171.793 57.8072L171.046 58.456C170.698 58.7586 170.456 59.1675 170.411 59.6267C170.109 62.6839 170.884 68.7465 175.442 72.8309C175.814 73.1643 176.31 73.3185 176.809 73.2922L177.869 73.2363C179.515 73.1496 181.096 72.5653 182.403 71.5607L185.817 68.9368C187.645 67.5316 190.007 69.8242 188.657 71.6934L185.447 76.1378C184.561 77.3649 184.034 78.8149 183.926 80.3248L183.856 81.3116C183.823 81.7718 183.941 82.2319 184.233 82.5889C186.179 84.9661 191.01 88.7104 197.121 88.3828C197.62 88.3561 198.08 88.1148 198.414 87.7438L199.126 86.9552C200.23 85.7311 200.936 84.2008 201.152 82.5665L201.557 79.4922C201.863 77.1742 205.217 77.1742 205.523 79.4922L205.928 82.5665C206.144 84.2008 206.85 85.7311 207.955 86.9552L208.666 87.7438C209.001 88.1148 209.46 88.3561 209.96 88.3828C216.07 88.7104 220.901 84.9661 222.847 82.5889C223.139 82.2319 223.257 81.7718 223.224 81.3116L223.154 80.3248C223.046 78.8149 222.519 77.3649 221.633 76.1378L218.423 71.6934C217.073 69.8242 219.435 67.5316 221.263 68.9368L224.677 71.5607C225.984 72.5653 227.565 73.1496 229.211 73.2363L230.271 73.2922C230.77 73.3185 231.266 73.1643 231.639 72.8309C236.196 68.7465 236.971 62.6839 236.669 59.6267C236.624 59.1675 236.382 58.7586 236.034 58.456L235.287 57.8072C234.144 56.8146 232.747 56.1601 231.253 55.9174L227.354 55.284C225.115 54.9203 225.115 51.6995 227.354 51.3357L231.253 50.7023C232.747 50.4596 234.144 49.8052 235.287 48.8125L236.034 48.1637C236.382 47.8612 236.624 47.4522 236.669 46.993C236.971 43.9359 236.196 37.8732 231.639 33.7889C231.266 33.4554 230.77 33.3013 230.271 33.3275L229.211 33.3834C227.565 33.4701 225.984 34.0544 224.677 35.059L221.263 37.683C219.435 39.0882 217.073 36.7955 218.423 34.9264L221.633 30.482C222.519 29.2548 223.046 27.8048 223.154 26.2949L223.224 25.3082Z" fill="url(#paint2_radial_7159_2158)"/>
<path fill-rule="evenodd" clip-rule="evenodd" d="M223.224 25.3082C223.257 24.848 223.139 24.3879 222.847 24.0308C220.901 21.6536 216.07 17.9093 209.96 18.2369C209.46 18.2637 209.001 18.5049 208.666 18.8759L207.955 19.6646C206.85 20.8886 206.144 22.4189 205.928 24.0532L205.325 28.6309C205.049 30.7171 202.031 30.7171 201.756 28.6309L201.152 24.0532C200.936 22.4189 200.23 20.8886 199.126 19.6646L198.414 18.8759C198.08 18.5049 197.62 18.2637 197.121 18.2369C191.01 17.9093 186.179 21.6536 184.233 24.0308C183.941 24.3879 183.823 24.848 183.856 25.3082L183.926 26.2949C184.034 27.8048 184.561 29.2548 185.447 30.482L188.657 34.9264C190.007 36.7955 187.645 39.0882 185.817 37.683L182.403 35.059C181.096 34.0544 179.515 33.4701 177.869 33.3834L176.809 33.3275C176.31 33.3013 175.814 33.4554 175.442 33.7889C170.884 37.8732 170.109 43.9359 170.411 46.993C170.456 47.4522 170.698 47.8612 171.046 48.1637L171.793 48.8125C172.936 49.8052 174.333 50.4596 175.827 50.7023L179.726 51.3357C181.965 51.6995 181.965 54.9203 179.726 55.284L175.827 55.9174C174.333 56.1601 172.936 56.8146 171.793 57.8072L171.046 58.456C170.698 58.7586 170.456 59.1675 170.411 59.6267C170.109 62.6839 170.884 68.7465 175.442 72.8309C175.814 73.1643 176.31 73.3185 176.809 73.2922L177.869 73.2363C179.515 73.1496 181.096 72.5653 182.403 71.5607L185.817 68.9368C187.645 67.5316 190.007 69.8242 188.657 71.6934L185.447 76.1378C184.561 77.3649 184.034 78.8149 183.926 80.3248L183.856 81.3116C183.823 81.7718 183.941 82.2319 184.233 82.5889C186.179 84.9661 191.01 88.7104 197.121 88.3828C197.62 88.3561 198.08 88.1148 198.414 87.7438L199.126 86.9552C200.23 85.7311 200.936 84.2008 201.152 82.5665L201.557 79.4922C201.863 77.1742 205.217 77.1742 205.523 79.4922L205.928 82.5665C206.144 84.2008 206.85 85.7311 207.955 86.9552L208.666 87.7438C209.001 88.1148 209.46 88.3561 209.96 88.3828C216.07 88.7104 220.901 84.9661 222.847 82.5889C223.139 82.2319 223.257 81.7718 223.224 81.3116L223.154 80.3248C223.046 78.8149 222.519 77.3649 221.633 76.1378L218.423 71.6934C217.073 69.8242 219.435 67.5316 221.263 68.9368L224.677 71.5607C225.984 72.5653 227.565 73.1496 229.211 73.2363L230.271 73.2922C230.77 73.3185 231.266 73.1643 231.639 72.8309C236.196 68.7465 236.971 62.6839 236.669 59.6267C236.624 59.1675 236.382 58.7586 236.034 58.456L235.287 57.8072C234.144 56.8146 232.747 56.1601 231.253 55.9174L227.354 55.284C225.115 54.9203 225.115 51.6995 227.354 51.3357L231.253 50.7023C232.747 50.4596 234.144 49.8052 235.287 48.8125L236.034 48.1637C236.382 47.8612 236.624 47.4522 236.669 46.993C236.971 43.9359 236.196 37.8732 231.639 33.7889C231.266 33.4554 230.77 33.3013 230.271 33.3275L229.211 33.3834C227.565 33.4701 225.984 34.0544 224.677 35.059L221.263 37.683C219.435 39.0882 217.073 36.7955 218.423 34.9264L221.633 30.482C222.519 29.2548 223.046 27.8048 223.154 26.2949L223.224 25.3082Z" fill="url(#paint3_radial_7159_2158)"/>
<path fill-rule="evenodd" clip-rule="evenodd" d="M223.224 25.3082C223.257 24.848 223.139 24.3879 222.847 24.0308C220.901 21.6536 216.07 17.9093 209.96 18.2369C209.46 18.2637 209.001 18.5049 208.666 18.8759L207.955 19.6646C206.85 20.8886 206.144 22.4189 205.928 24.0532L205.325 28.6309C205.049 30.7171 202.031 30.7171 201.756 28.6309L201.152 24.0532C200.936 22.4189 200.23 20.8886 199.126 19.6646L198.414 18.8759C198.08 18.5049 197.62 18.2637 197.121 18.2369C191.01 17.9093 186.179 21.6536 184.233 24.0308C183.941 24.3879 183.823 24.848 183.856 25.3082L183.926 26.2949C184.034 27.8048 184.561 29.2548 185.447 30.482L188.657 34.9264C190.007 36.7955 187.645 39.0882 185.817 37.683L182.403 35.059C181.096 34.0544 179.515 33.4701 177.869 33.3834L176.809 33.3275C176.31 33.3013 175.814 33.4554 175.442 33.7889C170.884 37.8732 170.109 43.9359 170.411 46.993C170.456 47.4522 170.698 47.8612 171.046 48.1637L171.793 48.8125C172.936 49.8052 174.333 50.4596 175.827 50.7023L179.726 51.3357C181.965 51.6995 181.965 54.9203 179.726 55.284L175.827 55.9174C174.333 56.1601 172.936 56.8146 171.793 57.8072L171.046 58.456C170.698 58.7586 170.456 59.1675 170.411 59.6267C170.109 62.6839 170.884 68.7465 175.442 72.8309C175.814 73.1643 176.31 73.3185 176.809 73.2922L177.869 73.2363C179.515 73.1496 181.096 72.5653 182.403 71.5607L185.817 68.9368C187.645 67.5316 190.007 69.8242 188.657 71.6934L185.447 76.1378C184.561 77.3649 184.034 78.8149 183.926 80.3248L183.856 81.3116C183.823 81.7718 183.941 82.2319 184.233 82.5889C186.179 84.9661 191.01 88.7104 197.121 88.3828C197.62 88.3561 198.08 88.1148 198.414 87.7438L199.126 86.9552C200.23 85.7311 200.936 84.2008 201.152 82.5665L201.557 79.4922C201.863 77.1742 205.217 77.1742 205.523 79.4922L205.928 82.5665C206.144 84.2008 206.85 85.7311 207.955 86.9552L208.666 87.7438C209.001 88.1148 209.46 88.3561 209.96 88.3828C216.07 88.7104 220.901 84.9661 222.847 82.5889C223.139 82.2319 223.257 81.7718 223.224 81.3116L223.154 80.3248C223.046 78.8149 222.519 77.3649 221.633 76.1378L218.423 71.6934C217.073 69.8242 219.435 67.5316 221.263 68.9368L224.677 71.5607C225.984 72.5653 227.565 73.1496 229.211 73.2363L230.271 73.2922C230.77 73.3185 231.266 73.1643 231.639 72.8309C236.196 68.7465 236.971 62.6839 236.669 59.6267C236.624 59.1675 236.382 58.7586 236.034 58.456L235.287 57.8072C234.144 56.8146 232.747 56.1601 231.253 55.9174L227.354 55.284C225.115 54.9203 225.115 51.6995 227.354 51.3357L231.253 50.7023C232.747 50.4596 234.144 49.8052 235.287 48.8125L236.034 48.1637C236.382 47.8612 236.624 47.4522 236.669 46.993C236.971 43.9359 236.196 37.8732 231.639 33.7889C231.266 33.4554 230.77 33.3013 230.271 33.3275L229.211 33.3834C227.565 33.4701 225.984 34.0544 224.677 35.059L221.263 37.683C219.435 39.0882 217.073 36.7955 218.423 34.9264L221.633 30.482C222.519 29.2548 223.046 27.8048 223.154 26.2949L223.224 25.3082Z" fill="url(#paint4_radial_7159_2158)"/>
<path fill-rule="evenodd" clip-rule="evenodd" d="M223.224 25.3082C223.257 24.848 223.139 24.3879 222.847 24.0308C220.901 21.6536 216.07 17.9093 209.96 18.2369C209.46 18.2637 209.001 18.5049 208.666 18.8759L207.955 19.6646C206.85 20.8886 206.144 22.4189 205.928 24.0532L205.325 28.6309C205.049 30.7171 202.031 30.7171 201.756 28.6309L201.152 24.0532C200.936 22.4189 200.23 20.8886 199.126 19.6646L198.414 18.8759C198.08 18.5049 197.62 18.2637 197.121 18.2369C191.01 17.9093 186.179 21.6536 184.233 24.0308C183.941 24.3879 183.823 24.848 183.856 25.3082L183.926 26.2949C184.034 27.8048 184.561 29.2548 185.447 30.482L188.657 34.9264C190.007 36.7955 187.645 39.0882 185.817 37.683L182.403 35.059C181.096 34.0544 179.515 33.4701 177.869 33.3834L176.809 33.3275C176.31 33.3013 175.814 33.4554 175.442 33.7889C170.884 37.8732 170.109 43.9359 170.411 46.993C170.456 47.4522 170.698 47.8612 171.046 48.1637L171.793 48.8125C172.936 49.8052 174.333 50.4596 175.827 50.7023L179.726 51.3357C181.965 51.6995 181.965 54.9203 179.726 55.284L175.827 55.9174C174.333 56.1601 172.936 56.8146 171.793 57.8072L171.046 58.456C170.698 58.7586 170.456 59.1675 170.411 59.6267C170.109 62.6839 170.884 68.7465 175.442 72.8309C175.814 73.1643 176.31 73.3185 176.809 73.2922L177.869 73.2363C179.515 73.1496 181.096 72.5653 182.403 71.5607L185.817 68.9368C187.645 67.5316 190.007 69.8242 188.657 71.6934L185.447 76.1378C184.561 77.3649 184.034 78.8149 183.926 80.3248L183.856 81.3116C183.823 81.7718 183.941 82.2319 184.233 82.5889C186.179 84.9661 191.01 88.7104 197.121 88.3828C197.62 88.3561 198.08 88.1148 198.414 87.7438L199.126 86.9552C200.23 85.7311 200.936 84.2008 201.152 82.5665L201.557 79.4922C201.863 77.1742 205.217 77.1742 205.523 79.4922L205.928 82.5665C206.144 84.2008 206.85 85.7311 207.955 86.9552L208.666 87.7438C209.001 88.1148 209.46 88.3561 209.96 88.3828C216.07 88.7104 220.901 84.9661 222.847 82.5889C223.139 82.2319 223.257 81.7718 223.224 81.3116L223.154 80.3248C223.046 78.8149 222.519 77.3649 221.633 76.1378L218.423 71.6934C217.073 69.8242 219.435 67.5316 221.263 68.9368L224.677 71.5607C225.984 72.5653 227.565 73.1496 229.211 73.2363L230.271 73.2922C230.77 73.3185 231.266 73.1643 231.639 72.8309C236.196 68.7465 236.971 62.6839 236.669 59.6267C236.624 59.1675 236.382 58.7586 236.034 58.456L235.287 57.8072C234.144 56.8146 232.747 56.1601 231.253 55.9174L227.354 55.284C225.115 54.9203 225.115 51.6995 227.354 51.3357L231.253 50.7023C232.747 50.4596 234.144 49.8052 235.287 48.8125L236.034 48.1637C236.382 47.8612 236.624 47.4522 236.669 46.993C236.971 43.9359 236.196 37.8732 231.639 33.7889C231.266 33.4554 230.77 33.3013 230.271 33.3275L229.211 33.3834C227.565 33.4701 225.984 34.0544 224.677 35.059L221.263 37.683C219.435 39.0882 217.073 36.7955 218.423 34.9264L221.633 30.482C222.519 29.2548 223.046 27.8048 223.154 26.2949L223.224 25.3082Z" fill="url(#paint5_radial_7159_2158)"/>
<path fill-rule="evenodd" clip-rule="evenodd" d="M223.224 25.3082C223.257 24.848 223.139 24.3879 222.847 24.0308C220.901 21.6536 216.07 17.9093 209.96 18.2369C209.46 18.2637 209.001 18.5049 208.666 18.8759L207.955 19.6646C206.85 20.8886 206.144 22.4189 205.928 24.0532L205.325 28.6309C205.049 30.7171 202.031 30.7171 201.756 28.6309L201.152 24.0532C200.936 22.4189 200.23 20.8886 199.126 19.6646L198.414 18.8759C198.08 18.5049 197.62 18.2637 197.121 18.2369C191.01 17.9093 186.179 21.6536 184.233 24.0308C183.941 24.3879 183.823 24.848 183.856 25.3082L183.926 26.2949C184.034 27.8048 184.561 29.2548 185.447 30.482L188.657 34.9264C190.007 36.7955 187.645 39.0882 185.817 37.683L182.403 35.059C181.096 34.0544 179.515 33.4701 177.869 33.3834L176.809 33.3275C176.31 33.3013 175.814 33.4554 175.442 33.7889C170.884 37.8732 170.109 43.9359 170.411 46.993C170.456 47.4522 170.698 47.8612 171.046 48.1637L171.793 48.8125C172.936 49.8052 174.333 50.4596 175.827 50.7023L179.726 51.3357C181.965 51.6995 181.965 54.9203 179.726 55.284L175.827 55.9174C174.333 56.1601 172.936 56.8146 171.793 57.8072L171.046 58.456C170.698 58.7586 170.456 59.1675 170.411 59.6267C170.109 62.6839 170.884 68.7465 175.442 72.8309C175.814 73.1643 176.31 73.3185 176.809 73.2922L177.869 73.2363C179.515 73.1496 181.096 72.5653 182.403 71.5607L185.817 68.9368C187.645 67.5316 190.007 69.8242 188.657 71.6934L185.447 76.1378C184.561 77.3649 184.034 78.8149 183.926 80.3248L183.856 81.3116C183.823 81.7718 183.941 82.2319 184.233 82.5889C186.179 84.9661 191.01 88.7104 197.121 88.3828C197.62 88.3561 198.08 88.1148 198.414 87.7438L199.126 86.9552C200.23 85.7311 200.936 84.2008 201.152 82.5665L201.557 79.4922C201.863 77.1742 205.217 77.1742 205.523 79.4922L205.928 82.5665C206.144 84.2008 206.85 85.7311 207.955 86.9552L208.666 87.7438C209.001 88.1148 209.46 88.3561 209.96 88.3828C216.07 88.7104 220.901 84.9661 222.847 82.5889C223.139 82.2319 223.257 81.7718 223.224 81.3116L223.154 80.3248C223.046 78.8149 222.519 77.3649 221.633 76.1378L218.423 71.6934C217.073 69.8242 219.435 67.5316 221.263 68.9368L224.677 71.5607C225.984 72.5653 227.565 73.1496 229.211 73.2363L230.271 73.2922C230.77 73.3185 231.266 73.1643 231.639 72.8309C236.196 68.7465 236.971 62.6839 236.669 59.6267C236.624 59.1675 236.382 58.7586 236.034 58.456L235.287 57.8072C234.144 56.8146 232.747 56.1601 231.253 55.9174L227.354 55.284C225.115 54.9203 225.115 51.6995 227.354 51.3357L231.253 50.7023C232.747 50.4596 234.144 49.8052 235.287 48.8125L236.034 48.1637C236.382 47.8612 236.624 47.4522 236.669 46.993C236.971 43.9359 236.196 37.8732 231.639 33.7889C231.266 33.4554 230.77 33.3013 230.271 33.3275L229.211 33.3834C227.565 33.4701 225.984 34.0544 224.677 35.059L221.263 37.683C219.435 39.0882 217.073 36.7955 218.423 34.9264L221.633 30.482C222.519 29.2548 223.046 27.8048 223.154 26.2949L223.224 25.3082Z" fill="url(#paint6_radial_7159_2158)"/>
<path fill-rule="evenodd" clip-rule="evenodd" d="M223.224 25.3082C223.257 24.848 223.139 24.3879 222.847 24.0308C220.901 21.6536 216.07 17.9093 209.96 18.2369C209.46 18.2637 209.001 18.5049 208.666 18.8759L207.955 19.6646C206.85 20.8886 206.144 22.4189 205.928 24.0532L205.325 28.6309C205.049 30.7171 202.031 30.7171 201.756 28.6309L201.152 24.0532C200.936 22.4189 200.23 20.8886 199.126 19.6646L198.414 18.8759C198.08 18.5049 197.62 18.2637 197.121 18.2369C191.01 17.9093 186.179 21.6536 184.233 24.0308C183.941 24.3879 183.823 24.848 183.856 25.3082L183.926 26.2949C184.034 27.8048 184.561 29.2548 185.447 30.482L188.657 34.9264C190.007 36.7955 187.645 39.0882 185.817 37.683L182.403 35.059C181.096 34.0544 179.515 33.4701 177.869 33.3834L176.809 33.3275C176.31 33.3013 175.814 33.4554 175.442 33.7889C170.884 37.8732 170.109 43.9359 170.411 46.993C170.456 47.4522 170.698 47.8612 171.046 48.1637L171.793 48.8125C172.936 49.8052 174.333 50.4596 175.827 50.7023L179.726 51.3357C181.965 51.6995 181.965 54.9203 179.726 55.284L175.827 55.9174C174.333 56.1601 172.936 56.8146 171.793 57.8072L171.046 58.456C170.698 58.7586 170.456 59.1675 170.411 59.6267C170.109 62.6839 170.884 68.7465 175.442 72.8309C175.814 73.1643 176.31 73.3185 176.809 73.2922L177.869 73.2363C179.515 73.1496 181.096 72.5653 182.403 71.5607L185.817 68.9368C187.645 67.5316 190.007 69.8242 188.657 71.6934L185.447 76.1378C184.561 77.3649 184.034 78.8149 183.926 80.3248L183.856 81.3116C183.823 81.7718 183.941 82.2319 184.233 82.5889C186.179 84.9661 191.01 88.7104 197.121 88.3828C197.62 88.3561 198.08 88.1148 198.414 87.7438L199.126 86.9552C200.23 85.7311 200.936 84.2008 201.152 82.5665L201.557 79.4922C201.863 77.1742 205.217 77.1742 205.523 79.4922L205.928 82.5665C206.144 84.2008 206.85 85.7311 207.955 86.9552L208.666 87.7438C209.001 88.1148 209.46 88.3561 209.96 88.3828C216.07 88.7104 220.901 84.9661 222.847 82.5889C223.139 82.2319 223.257 81.7718 223.224 81.3116L223.154 80.3248C223.046 78.8149 222.519 77.3649 221.633 76.1378L218.423 71.6934C217.073 69.8242 219.435 67.5316 221.263 68.9368L224.677 71.5607C225.984 72.5653 227.565 73.1496 229.211 73.2363L230.271 73.2922C230.77 73.3185 231.266 73.1643 231.639 72.8309C236.196 68.7465 236.971 62.6839 236.669 59.6267C236.624 59.1675 236.382 58.7586 236.034 58.456L235.287 57.8072C234.144 56.8146 232.747 56.1601 231.253 55.9174L227.354 55.284C225.115 54.9203 225.115 51.6995 227.354 51.3357L231.253 50.7023C232.747 50.4596 234.144 49.8052 235.287 48.8125L236.034 48.1637C236.382 47.8612 236.624 47.4522 236.669 46.993C236.971 43.9359 236.196 37.8732 231.639 33.7889C231.266 33.4554 230.77 33.3013 230.271 33.3275L229.211 33.3834C227.565 33.4701 225.984 34.0544 224.677 35.059L221.263 37.683C219.435 39.0882 217.073 36.7955 218.423 34.9264L221.633 30.482C222.519 29.2548 223.046 27.8048 223.154 26.2949L223.224 25.3082Z" fill="url(#paint7_radial_7159_2158)"/>
<path fill-rule="evenodd" clip-rule="evenodd" d="M223.224 25.3082C223.257 24.848 223.139 24.3879 222.847 24.0308C220.901 21.6536 216.07 17.9093 209.96 18.2369C209.46 18.2637 209.001 18.5049 208.666 18.8759L207.955 19.6646C206.85 20.8886 206.144 22.4189 205.928 24.0532L205.325 28.6309C205.049 30.7171 202.031 30.7171 201.756 28.6309L201.152 24.0532C200.936 22.4189 200.23 20.8886 199.126 19.6646L198.414 18.8759C198.08 18.5049 197.62 18.2637 197.121 18.2369C191.01 17.9093 186.179 21.6536 184.233 24.0308C183.941 24.3879 183.823 24.848 183.856 25.3082L183.926 26.2949C184.034 27.8048 184.561 29.2548 185.447 30.482L188.657 34.9264C190.007 36.7955 187.645 39.0882 185.817 37.683L182.403 35.059C181.096 34.0544 179.515 33.4701 177.869 33.3834L176.809 33.3275C176.31 33.3013 175.814 33.4554 175.442 33.7889C170.884 37.8732 170.109 43.9359 170.411 46.993C170.456 47.4522 170.698 47.8612 171.046 48.1637L171.793 48.8125C172.936 49.8052 174.333 50.4596 175.827 50.7023L179.726 51.3357C181.965 51.6995 181.965 54.9203 179.726 55.284L175.827 55.9174C174.333 56.1601 172.936 56.8146 171.793 57.8072L171.046 58.456C170.698 58.7586 170.456 59.1675 170.411 59.6267C170.109 62.6839 170.884 68.7465 175.442 72.8309C175.814 73.1643 176.31 73.3185 176.809 73.2922L177.869 73.2363C179.515 73.1496 181.096 72.5653 182.403 71.5607L185.817 68.9368C187.645 67.5316 190.007 69.8242 188.657 71.6934L185.447 76.1378C184.561 77.3649 184.034 78.8149 183.926 80.3248L183.856 81.3116C183.823 81.7718 183.941 82.2319 184.233 82.5889C186.179 84.9661 191.01 88.7104 197.121 88.3828C197.62 88.3561 198.08 88.1148 198.414 87.7438L199.126 86.9552C200.23 85.7311 200.936 84.2008 201.152 82.5665L201.557 79.4922C201.863 77.1742 205.217 77.1742 205.523 79.4922L205.928 82.5665C206.144 84.2008 206.85 85.7311 207.955 86.9552L208.666 87.7438C209.001 88.1148 209.46 88.3561 209.96 88.3828C216.07 88.7104 220.901 84.9661 222.847 82.5889C223.139 82.2319 223.257 81.7718 223.224 81.3116L223.154 80.3248C223.046 78.8149 222.519 77.3649 221.633 76.1378L218.423 71.6934C217.073 69.8242 219.435 67.5316 221.263 68.9368L224.677 71.5607C225.984 72.5653 227.565 73.1496 229.211 73.2363L230.271 73.2922C230.77 73.3185 231.266 73.1643 231.639 72.8309C236.196 68.7465 236.971 62.6839 236.669 59.6267C236.624 59.1675 236.382 58.7586 236.034 58.456L235.287 57.8072C234.144 56.8146 232.747 56.1601 231.253 55.9174L227.354 55.284C225.115 54.9203 225.115 51.6995 227.354 51.3357L231.253 50.7023C232.747 50.4596 234.144 49.8052 235.287 48.8125L236.034 48.1637C236.382 47.8612 236.624 47.4522 236.669 46.993C236.971 43.9359 236.196 37.8732 231.639 33.7889C231.266 33.4554 230.77 33.3013 230.271 33.3275L229.211 33.3834C227.565 33.4701 225.984 34.0544 224.677 35.059L221.263 37.683C219.435 39.0882 217.073 36.7955 218.423 34.9264L221.633 30.482C222.519 29.2548 223.046 27.8048 223.154 26.2949L223.224 25.3082Z" fill="url(#paint8_radial_7159_2158)"/>
<path fill-rule="evenodd" clip-rule="evenodd" d="M223.224 25.3082C223.257 24.848 223.139 24.3879 222.847 24.0308C220.901 21.6536 216.07 17.9093 209.96 18.2369C209.46 18.2637 209.001 18.5049 208.666 18.8759L207.955 19.6646C206.85 20.8886 206.144 22.4189 205.928 24.0532L205.325 28.6309C205.049 30.7171 202.031 30.7171 201.756 28.6309L201.152 24.0532C200.936 22.4189 200.23 20.8886 199.126 19.6646L198.414 18.8759C198.08 18.5049 197.62 18.2637 197.121 18.2369C191.01 17.9093 186.179 21.6536 184.233 24.0308C183.941 24.3879 183.823 24.848 183.856 25.3082L183.926 26.2949C184.034 27.8048 184.561 29.2548 185.447 30.482L188.657 34.9264C190.007 36.7955 187.645 39.0882 185.817 37.683L182.403 35.059C181.096 34.0544 179.515 33.4701 177.869 33.3834L176.809 33.3275C176.31 33.3013 175.814 33.4554 175.442 33.7889C170.884 37.8732 170.109 43.9359 170.411 46.993C170.456 47.4522 170.698 47.8612 171.046 48.1637L171.793 48.8125C172.936 49.8052 174.333 50.4596 175.827 50.7023L179.726 51.3357C181.965 51.6995 181.965 54.9203 179.726 55.284L175.827 55.9174C174.333 56.1601 172.936 56.8146 171.793 57.8072L171.046 58.456C170.698 58.7586 170.456 59.1675 170.411 59.6267C170.109 62.6839 170.884 68.7465 175.442 72.8309C175.814 73.1643 176.31 73.3185 176.809 73.2922L177.869 73.2363C179.515 73.1496 181.096 72.5653 182.403 71.5607L185.817 68.9368C187.645 67.5316 190.007 69.8242 188.657 71.6934L185.447 76.1378C184.561 77.3649 184.034 78.8149 183.926 80.3248L183.856 81.3116C183.823 81.7718 183.941 82.2319 184.233 82.5889C186.179 84.9661 191.01 88.7104 197.121 88.3828C197.62 88.3561 198.08 88.1148 198.414 87.7438L199.126 86.9552C200.23 85.7311 200.936 84.2008 201.152 82.5665L201.557 79.4922C201.863 77.1742 205.217 77.1742 205.523 79.4922L205.928 82.5665C206.144 84.2008 206.85 85.7311 207.955 86.9552L208.666 87.7438C209.001 88.1148 209.46 88.3561 209.96 88.3828C216.07 88.7104 220.901 84.9661 222.847 82.5889C223.139 82.2319 223.257 81.7718 223.224 81.3116L223.154 80.3248C223.046 78.8149 222.519 77.3649 221.633 76.1378L218.423 71.6934C217.073 69.8242 219.435 67.5316 221.263 68.9368L224.677 71.5607C225.984 72.5653 227.565 73.1496 229.211 73.2363L230.271 73.2922C230.77 73.3185 231.266 73.1643 231.639 72.8309C236.196 68.7465 236.971 62.6839 236.669 59.6267C236.624 59.1675 236.382 58.7586 236.034 58.456L235.287 57.8072C234.144 56.8146 232.747 56.1601 231.253 55.9174L227.354 55.284C225.115 54.9203 225.115 51.6995 227.354 51.3357L231.253 50.7023C232.747 50.4596 234.144 49.8052 235.287 48.8125L236.034 48.1637C236.382 47.8612 236.624 47.4522 236.669 46.993C236.971 43.9359 236.196 37.8732 231.639 33.7889C231.266 33.4554 230.77 33.3013 230.271 33.3275L229.211 33.3834C227.565 33.4701 225.984 34.0544 224.677 35.059L221.263 37.683C219.435 39.0882 217.073 36.7955 218.423 34.9264L221.633 30.482C222.519 29.2548 223.046 27.8048 223.154 26.2949L223.224 25.3082Z" fill="url(#paint9_radial_7159_2158)"/>
<path fill-rule="evenodd" clip-rule="evenodd" d="M223.224 25.3082C223.257 24.848 223.139 24.3879 222.847 24.0308C220.901 21.6536 216.07 17.9093 209.96 18.2369C209.46 18.2637 209.001 18.5049 208.666 18.8759L207.955 19.6646C206.85 20.8886 206.144 22.4189 205.928 24.0532L205.325 28.6309C205.049 30.7171 202.031 30.7171 201.756 28.6309L201.152 24.0532C200.936 22.4189 200.23 20.8886 199.126 19.6646L198.414 18.8759C198.08 18.5049 197.62 18.2637 197.121 18.2369C191.01 17.9093 186.179 21.6536 184.233 24.0308C183.941 24.3879 183.823 24.848 183.856 25.3082L183.926 26.2949C184.034 27.8048 184.561 29.2548 185.447 30.482L188.657 34.9264C190.007 36.7955 187.645 39.0882 185.817 37.683L182.403 35.059C181.096 34.0544 179.515 33.4701 177.869 33.3834L176.809 33.3275C176.31 33.3013 175.814 33.4554 175.442 33.7889C170.884 37.8732 170.109 43.9359 170.411 46.993C170.456 47.4522 170.698 47.8612 171.046 48.1637L171.793 48.8125C172.936 49.8052 174.333 50.4596 175.827 50.7023L179.726 51.3357C181.965 51.6995 181.965 54.9203 179.726 55.284L175.827 55.9174C174.333 56.1601 172.936 56.8146 171.793 57.8072L171.046 58.456C170.698 58.7586 170.456 59.1675 170.411 59.6267C170.109 62.6839 170.884 68.7465 175.442 72.8309C175.814 73.1643 176.31 73.3185 176.809 73.2922L177.869 73.2363C179.515 73.1496 181.096 72.5653 182.403 71.5607L185.817 68.9368C187.645 67.5316 190.007 69.8242 188.657 71.6934L185.447 76.1378C184.561 77.3649 184.034 78.8149 183.926 80.3248L183.856 81.3116C183.823 81.7718 183.941 82.2319 184.233 82.5889C186.179 84.9661 191.01 88.7104 197.121 88.3828C197.62 88.3561 198.08 88.1148 198.414 87.7438L199.126 86.9552C200.23 85.7311 200.936 84.2008 201.152 82.5665L201.557 79.4922C201.863 77.1742 205.217 77.1742 205.523 79.4922L205.928 82.5665C206.144 84.2008 206.85 85.7311 207.955 86.9552L208.666 87.7438C209.001 88.1148 209.46 88.3561 209.96 88.3828C216.07 88.7104 220.901 84.9661 222.847 82.5889C223.139 82.2319 223.257 81.7718 223.224 81.3116L223.154 80.3248C223.046 78.8149 222.519 77.3649 221.633 76.1378L218.423 71.6934C217.073 69.8242 219.435 67.5316 221.263 68.9368L224.677 71.5607C225.984 72.5653 227.565 73.1496 229.211 73.2363L230.271 73.2922C230.77 73.3185 231.266 73.1643 231.639 72.8309C236.196 68.7465 236.971 62.6839 236.669 59.6267C236.624 59.1675 236.382 58.7586 236.034 58.456L235.287 57.8072C234.144 56.8146 232.747 56.1601 231.253 55.9174L227.354 55.284C225.115 54.9203 225.115 51.6995 227.354 51.3357L231.253 50.7023C232.747 50.4596 234.144 49.8052 235.287 48.8125L236.034 48.1637C236.382 47.8612 236.624 47.4522 236.669 46.993C236.971 43.9359 236.196 37.8732 231.639 33.7889C231.266 33.4554 230.77 33.3013 230.271 33.3275L229.211 33.3834C227.565 33.4701 225.984 34.0544 224.677 35.059L221.263 37.683C219.435 39.0882 217.073 36.7955 218.423 34.9264L221.633 30.482C222.519 29.2548 223.046 27.8048 223.154 26.2949L223.224 25.3082Z" fill="url(#paint10_radial_7159_2158)"/>
<path fill-rule="evenodd" clip-rule="evenodd" d="M223.224 25.3082C223.257 24.848 223.139 24.3879 222.847 24.0308C220.901 21.6536 216.07 17.9093 209.96 18.2369C209.46 18.2637 209.001 18.5049 208.666 18.8759L207.955 19.6646C206.85 20.8886 206.144 22.4189 205.928 24.0532L205.325 28.6309C205.049 30.7171 202.031 30.7171 201.756 28.6309L201.152 24.0532C200.936 22.4189 200.23 20.8886 199.126 19.6646L198.414 18.8759C198.08 18.5049 197.62 18.2637 197.121 18.2369C191.01 17.9093 186.179 21.6536 184.233 24.0308C183.941 24.3879 183.823 24.848 183.856 25.3082L183.926 26.2949C184.034 27.8048 184.561 29.2548 185.447 30.482L188.657 34.9264C190.007 36.7955 187.645 39.0882 185.817 37.683L182.403 35.059C181.096 34.0544 179.515 33.4701 177.869 33.3834L176.809 33.3275C176.31 33.3013 175.814 33.4554 175.442 33.7889C170.884 37.8732 170.109 43.9359 170.411 46.993C170.456 47.4522 170.698 47.8612 171.046 48.1637L171.793 48.8125C172.936 49.8052 174.333 50.4596 175.827 50.7023L179.726 51.3357C181.965 51.6995 181.965 54.9203 179.726 55.284L175.827 55.9174C174.333 56.1601 172.936 56.8146 171.793 57.8072L171.046 58.456C170.698 58.7586 170.456 59.1675 170.411 59.6267C170.109 62.6839 170.884 68.7465 175.442 72.8309C175.814 73.1643 176.31 73.3185 176.809 73.2922L177.869 73.2363C179.515 73.1496 181.096 72.5653 182.403 71.5607L185.817 68.9368C187.645 67.5316 190.007 69.8242 188.657 71.6934L185.447 76.1378C184.561 77.3649 184.034 78.8149 183.926 80.3248L183.856 81.3116C183.823 81.7718 183.941 82.2319 184.233 82.5889C186.179 84.9661 191.01 88.7104 197.121 88.3828C197.62 88.3561 198.08 88.1148 198.414 87.7438L199.126 86.9552C200.23 85.7311 200.936 84.2008 201.152 82.5665L201.557 79.4922C201.863 77.1742 205.217 77.1742 205.523 79.4922L205.928 82.5665C206.144 84.2008 206.85 85.7311 207.955 86.9552L208.666 87.7438C209.001 88.1148 209.46 88.3561 209.96 88.3828C216.07 88.7104 220.901 84.9661 222.847 82.5889C223.139 82.2319 223.257 81.7718 223.224 81.3116L223.154 80.3248C223.046 78.8149 222.519 77.3649 221.633 76.1378L218.423 71.6934C217.073 69.8242 219.435 67.5316 221.263 68.9368L224.677 71.5607C225.984 72.5653 227.565 73.1496 229.211 73.2363L230.271 73.2922C230.77 73.3185 231.266 73.1643 231.639 72.8309C236.196 68.7465 236.971 62.6839 236.669 59.6267C236.624 59.1675 236.382 58.7586 236.034 58.456L235.287 57.8072C234.144 56.8146 232.747 56.1601 231.253 55.9174L227.354 55.284C225.115 54.9203 225.115 51.6995 227.354 51.3357L231.253 50.7023C232.747 50.4596 234.144 49.8052 235.287 48.8125L236.034 48.1637C236.382 47.8612 236.624 47.4522 236.669 46.993C236.971 43.9359 236.196 37.8732 231.639 33.7889C231.266 33.4554 230.77 33.3013 230.271 33.3275L229.211 33.3834C227.565 33.4701 225.984 34.0544 224.677 35.059L221.263 37.683C219.435 39.0882 217.073 36.7955 218.423 34.9264L221.633 30.482C222.519 29.2548 223.046 27.8048 223.154 26.2949L223.224 25.3082Z" fill="url(#paint11_radial_7159_2158)"/>
<path fill-rule="evenodd" clip-rule="evenodd" d="M223.224 25.3082C223.257 24.848 223.139 24.3879 222.847 24.0308C220.901 21.6536 216.07 17.9093 209.96 18.2369C209.46 18.2637 209.001 18.5049 208.666 18.8759L207.955 19.6646C206.85 20.8886 206.144 22.4189 205.928 24.0532L205.325 28.6309C205.049 30.7171 202.031 30.7171 201.756 28.6309L201.152 24.0532C200.936 22.4189 200.23 20.8886 199.126 19.6646L198.414 18.8759C198.08 18.5049 197.62 18.2637 197.121 18.2369C191.01 17.9093 186.179 21.6536 184.233 24.0308C183.941 24.3879 183.823 24.848 183.856 25.3082L183.926 26.2949C184.034 27.8048 184.561 29.2548 185.447 30.482L188.657 34.9264C190.007 36.7955 187.645 39.0882 185.817 37.683L182.403 35.059C181.096 34.0544 179.515 33.4701 177.869 33.3834L176.809 33.3275C176.31 33.3013 175.814 33.4554 175.442 33.7889C170.884 37.8732 170.109 43.9359 170.411 46.993C170.456 47.4522 170.698 47.8612 171.046 48.1637L171.793 48.8125C172.936 49.8052 174.333 50.4596 175.827 50.7023L179.726 51.3357C181.965 51.6995 181.965 54.9203 179.726 55.284L175.827 55.9174C174.333 56.1601 172.936 56.8146 171.793 57.8072L171.046 58.456C170.698 58.7586 170.456 59.1675 170.411 59.6267C170.109 62.6839 170.884 68.7465 175.442 72.8309C175.814 73.1643 176.31 73.3185 176.809 73.2922L177.869 73.2363C179.515 73.1496 181.096 72.5653 182.403 71.5607L185.817 68.9368C187.645 67.5316 190.007 69.8242 188.657 71.6934L185.447 76.1378C184.561 77.3649 184.034 78.8149 183.926 80.3248L183.856 81.3116C183.823 81.7718 183.941 82.2319 184.233 82.5889C186.179 84.9661 191.01 88.7104 197.121 88.3828C197.62 88.3561 198.08 88.1148 198.414 87.7438L199.126 86.9552C200.23 85.7311 200.936 84.2008 201.152 82.5665L201.557 79.4922C201.863 77.1742 205.217 77.1742 205.523 79.4922L205.928 82.5665C206.144 84.2008 206.85 85.7311 207.955 86.9552L208.666 87.7438C209.001 88.1148 209.46 88.3561 209.96 88.3828C216.07 88.7104 220.901 84.9661 222.847 82.5889C223.139 82.2319 223.257 81.7718 223.224 81.3116L223.154 80.3248C223.046 78.8149 222.519 77.3649 221.633 76.1378L218.423 71.6934C217.073 69.8242 219.435 67.5316 221.263 68.9368L224.677 71.5607C225.984 72.5653 227.565 73.1496 229.211 73.2363L230.271 73.2922C230.77 73.3185 231.266 73.1643 231.639 72.8309C236.196 68.7465 236.971 62.6839 236.669 59.6267C236.624 59.1675 236.382 58.7586 236.034 58.456L235.287 57.8072C234.144 56.8146 232.747 56.1601 231.253 55.9174L227.354 55.284C225.115 54.9203 225.115 51.6995 227.354 51.3357L231.253 50.7023C232.747 50.4596 234.144 49.8052 235.287 48.8125L236.034 48.1637C236.382 47.8612 236.624 47.4522 236.669 46.993C236.971 43.9359 236.196 37.8732 231.639 33.7889C231.266 33.4554 230.77 33.3013 230.271 33.3275L229.211 33.3834C227.565 33.4701 225.984 34.0544 224.677 35.059L221.263 37.683C219.435 39.0882 217.073 36.7955 218.423 34.9264L221.633 30.482C222.519 29.2548 223.046 27.8048 223.154 26.2949L223.224 25.3082Z" fill="url(#paint12_radial_7159_2158)"/>
<path fill-rule="evenodd" clip-rule="evenodd" d="M223.224 25.3082C223.257 24.848 223.139 24.3879 222.847 24.0308C220.901 21.6536 216.07 17.9093 209.96 18.2369C209.46 18.2637 209.001 18.5049 208.666 18.8759L207.955 19.6646C206.85 20.8886 206.144 22.4189 205.928 24.0532L205.325 28.6309C205.049 30.7171 202.031 30.7171 201.756 28.6309L201.152 24.0532C200.936 22.4189 200.23 20.8886 199.126 19.6646L198.414 18.8759C198.08 18.5049 197.62 18.2637 197.121 18.2369C191.01 17.9093 186.179 21.6536 184.233 24.0308C183.941 24.3879 183.823 24.848 183.856 25.3082L183.926 26.2949C184.034 27.8048 184.561 29.2548 185.447 30.482L188.657 34.9264C190.007 36.7955 187.645 39.0882 185.817 37.683L182.403 35.059C181.096 34.0544 179.515 33.4701 177.869 33.3834L176.809 33.3275C176.31 33.3013 175.814 33.4554 175.442 33.7889C170.884 37.8732 170.109 43.9359 170.411 46.993C170.456 47.4522 170.698 47.8612 171.046 48.1637L171.793 48.8125C172.936 49.8052 174.333 50.4596 175.827 50.7023L179.726 51.3357C181.965 51.6995 181.965 54.9203 179.726 55.284L175.827 55.9174C174.333 56.1601 172.936 56.8146 171.793 57.8072L171.046 58.456C170.698 58.7586 170.456 59.1675 170.411 59.6267C170.109 62.6839 170.884 68.7465 175.442 72.8309C175.814 73.1643 176.31 73.3185 176.809 73.2922L177.869 73.2363C179.515 73.1496 181.096 72.5653 182.403 71.5607L185.817 68.9368C187.645 67.5316 190.007 69.8242 188.657 71.6934L185.447 76.1378C184.561 77.3649 184.034 78.8149 183.926 80.3248L183.856 81.3116C183.823 81.7718 183.941 82.2319 184.233 82.5889C186.179 84.9661 191.01 88.7104 197.121 88.3828C197.62 88.3561 198.08 88.1148 198.414 87.7438L199.126 86.9552C200.23 85.7311 200.936 84.2008 201.152 82.5665L201.557 79.4922C201.863 77.1742 205.217 77.1742 205.523 79.4922L205.928 82.5665C206.144 84.2008 206.85 85.7311 207.955 86.9552L208.666 87.7438C209.001 88.1148 209.46 88.3561 209.96 88.3828C216.07 88.7104 220.901 84.9661 222.847 82.5889C223.139 82.2319 223.257 81.7718 223.224 81.3116L223.154 80.3248C223.046 78.8149 222.519 77.3649 221.633 76.1378L218.423 71.6934C217.073 69.8242 219.435 67.5316 221.263 68.9368L224.677 71.5607C225.984 72.5653 227.565 73.1496 229.211 73.2363L230.271 73.2922C230.77 73.3185 231.266 73.1643 231.639 72.8309C236.196 68.7465 236.971 62.6839 236.669 59.6267C236.624 59.1675 236.382 58.7586 236.034 58.456L235.287 57.8072C234.144 56.8146 232.747 56.1601 231.253 55.9174L227.354 55.284C225.115 54.9203 225.115 51.6995 227.354 51.3357L231.253 50.7023C232.747 50.4596 234.144 49.8052 235.287 48.8125L236.034 48.1637C236.382 47.8612 236.624 47.4522 236.669 46.993C236.971 43.9359 236.196 37.8732 231.639 33.7889C231.266 33.4554 230.77 33.3013 230.271 33.3275L229.211 33.3834C227.565 33.4701 225.984 34.0544 224.677 35.059L221.263 37.683C219.435 39.0882 217.073 36.7955 218.423 34.9264L221.633 30.482C222.519 29.2548 223.046 27.8048 223.154 26.2949L223.224 25.3082Z" fill="url(#paint13_radial_7159_2158)"/>
<path fill-rule="evenodd" clip-rule="evenodd" d="M223.224 25.3082C223.257 24.848 223.139 24.3879 222.847 24.0308C220.901 21.6536 216.07 17.9093 209.96 18.2369C209.46 18.2637 209.001 18.5049 208.666 18.8759L207.955 19.6646C206.85 20.8886 206.144 22.4189 205.928 24.0532L205.325 28.6309C205.049 30.7171 202.031 30.7171 201.756 28.6309L201.152 24.0532C200.936 22.4189 200.23 20.8886 199.126 19.6646L198.414 18.8759C198.08 18.5049 197.62 18.2637 197.121 18.2369C191.01 17.9093 186.179 21.6536 184.233 24.0308C183.941 24.3879 183.823 24.848 183.856 25.3082L183.926 26.2949C184.034 27.8048 184.561 29.2548 185.447 30.482L188.657 34.9264C190.007 36.7955 187.645 39.0882 185.817 37.683L182.403 35.059C181.096 34.0544 179.515 33.4701 177.869 33.3834L176.809 33.3275C176.31 33.3013 175.814 33.4554 175.442 33.7889C170.884 37.8732 170.109 43.9359 170.411 46.993C170.456 47.4522 170.698 47.8612 171.046 48.1637L171.793 48.8125C172.936 49.8052 174.333 50.4596 175.827 50.7023L179.726 51.3357C181.965 51.6995 181.965 54.9203 179.726 55.284L175.827 55.9174C174.333 56.1601 172.936 56.8146 171.793 57.8072L171.046 58.456C170.698 58.7586 170.456 59.1675 170.411 59.6267C170.109 62.6839 170.884 68.7465 175.442 72.8309C175.814 73.1643 176.31 73.3185 176.809 73.2922L177.869 73.2363C179.515 73.1496 181.096 72.5653 182.403 71.5607L185.817 68.9368C187.645 67.5316 190.007 69.8242 188.657 71.6934L185.447 76.1378C184.561 77.3649 184.034 78.8149 183.926 80.3248L183.856 81.3116C183.823 81.7718 183.941 82.2319 184.233 82.5889C186.179 84.9661 191.01 88.7104 197.121 88.3828C197.62 88.3561 198.08 88.1148 198.414 87.7438L199.126 86.9552C200.23 85.7311 200.936 84.2008 201.152 82.5665L201.557 79.4922C201.863 77.1742 205.217 77.1742 205.523 79.4922L205.928 82.5665C206.144 84.2008 206.85 85.7311 207.955 86.9552L208.666 87.7438C209.001 88.1148 209.46 88.3561 209.96 88.3828C216.07 88.7104 220.901 84.9661 222.847 82.5889C223.139 82.2319 223.257 81.7718 223.224 81.3116L223.154 80.3248C223.046 78.8149 222.519 77.3649 221.633 76.1378L218.423 71.6934C217.073 69.8242 219.435 67.5316 221.263 68.9368L224.677 71.5607C225.984 72.5653 227.565 73.1496 229.211 73.2363L230.271 73.2922C230.77 73.3185 231.266 73.1643 231.639 72.8309C236.196 68.7465 236.971 62.6839 236.669 59.6267C236.624 59.1675 236.382 58.7586 236.034 58.456L235.287 57.8072C234.144 56.8146 232.747 56.1601 231.253 55.9174L227.354 55.284C225.115 54.9203 225.115 51.6995 227.354 51.3357L231.253 50.7023C232.747 50.4596 234.144 49.8052 235.287 48.8125L236.034 48.1637C236.382 47.8612 236.624 47.4522 236.669 46.993C236.971 43.9359 236.196 37.8732 231.639 33.7889C231.266 33.4554 230.77 33.3013 230.271 33.3275L229.211 33.3834C227.565 33.4701 225.984 34.0544 224.677 35.059L221.263 37.683C219.435 39.0882 217.073 36.7955 218.423 34.9264L221.633 30.482C222.519 29.2548 223.046 27.8048 223.154 26.2949L223.224 25.3082Z" fill="url(#paint14_radial_7159_2158)"/>
<path fill-rule="evenodd" clip-rule="evenodd" d="M223.224 25.3082C223.257 24.848 223.139 24.3879 222.847 24.0308C220.901 21.6536 216.07 17.9093 209.96 18.2369C209.46 18.2637 209.001 18.5049 208.666 18.8759L207.955 19.6646C206.85 20.8886 206.144 22.4189 205.928 24.0532L205.325 28.6309C205.049 30.7171 202.031 30.7171 201.756 28.6309L201.152 24.0532C200.936 22.4189 200.23 20.8886 199.126 19.6646L198.414 18.8759C198.08 18.5049 197.62 18.2637 197.121 18.2369C191.01 17.9093 186.179 21.6536 184.233 24.0308C183.941 24.3879 183.823 24.848 183.856 25.3082L183.926 26.2949C184.034 27.8048 184.561 29.2548 185.447 30.482L188.657 34.9264C190.007 36.7955 187.645 39.0882 185.817 37.683L182.403 35.059C181.096 34.0544 179.515 33.4701 177.869 33.3834L176.809 33.3275C176.31 33.3013 175.814 33.4554 175.442 33.7889C170.884 37.8732 170.109 43.9359 170.411 46.993C170.456 47.4522 170.698 47.8612 171.046 48.1637L171.793 48.8125C172.936 49.8052 174.333 50.4596 175.827 50.7023L179.726 51.3357C181.965 51.6995 181.965 54.9203 179.726 55.284L175.827 55.9174C174.333 56.1601 172.936 56.8146 171.793 57.8072L171.046 58.456C170.698 58.7586 170.456 59.1675 170.411 59.6267C170.109 62.6839 170.884 68.7465 175.442 72.8309C175.814 73.1643 176.31 73.3185 176.809 73.2922L177.869 73.2363C179.515 73.1496 181.096 72.5653 182.403 71.5607L185.817 68.9368C187.645 67.5316 190.007 69.8242 188.657 71.6934L185.447 76.1378C184.561 77.3649 184.034 78.8149 183.926 80.3248L183.856 81.3116C183.823 81.7718 183.941 82.2319 184.233 82.5889C186.179 84.9661 191.01 88.7104 197.121 88.3828C197.62 88.3561 198.08 88.1148 198.414 87.7438L199.126 86.9552C200.23 85.7311 200.936 84.2008 201.152 82.5665L201.557 79.4922C201.863 77.1742 205.217 77.1742 205.523 79.4922L205.928 82.5665C206.144 84.2008 206.85 85.7311 207.955 86.9552L208.666 87.7438C209.001 88.1148 209.46 88.3561 209.96 88.3828C216.07 88.7104 220.901 84.9661 222.847 82.5889C223.139 82.2319 223.257 81.7718 223.224 81.3116L223.154 80.3248C223.046 78.8149 222.519 77.3649 221.633 76.1378L218.423 71.6934C217.073 69.8242 219.435 67.5316 221.263 68.9368L224.677 71.5607C225.984 72.5653 227.565 73.1496 229.211 73.2363L230.271 73.2922C230.77 73.3185 231.266 73.1643 231.639 72.8309C236.196 68.7465 236.971 62.6839 236.669 59.6267C236.624 59.1675 236.382 58.7586 236.034 58.456L235.287 57.8072C234.144 56.8146 232.747 56.1601 231.253 55.9174L227.354 55.284C225.115 54.9203 225.115 51.6995 227.354 51.3357L231.253 50.7023C232.747 50.4596 234.144 49.8052 235.287 48.8125L236.034 48.1637C236.382 47.8612 236.624 47.4522 236.669 46.993C236.971 43.9359 236.196 37.8732 231.639 33.7889C231.266 33.4554 230.77 33.3013 230.271 33.3275L229.211 33.3834C227.565 33.4701 225.984 34.0544 224.677 35.059L221.263 37.683C219.435 39.0882 217.073 36.7955 218.423 34.9264L221.633 30.482C222.519 29.2548 223.046 27.8048 223.154 26.2949L223.224 25.3082Z" fill="url(#paint15_radial_7159_2158)"/>
<path fill-rule="evenodd" clip-rule="evenodd" d="M223.224 25.3082C223.257 24.848 223.139 24.3879 222.847 24.0308C220.901 21.6536 216.07 17.9093 209.96 18.2369C209.46 18.2637 209.001 18.5049 208.666 18.8759L207.955 19.6646C206.85 20.8886 206.144 22.4189 205.928 24.0532L205.325 28.6309C205.049 30.7171 202.031 30.7171 201.756 28.6309L201.152 24.0532C200.936 22.4189 200.23 20.8886 199.126 19.6646L198.414 18.8759C198.08 18.5049 197.62 18.2637 197.121 18.2369C191.01 17.9093 186.179 21.6536 184.233 24.0308C183.941 24.3879 183.823 24.848 183.856 25.3082L183.926 26.2949C184.034 27.8048 184.561 29.2548 185.447 30.482L188.657 34.9264C190.007 36.7955 187.645 39.0882 185.817 37.683L182.403 35.059C181.096 34.0544 179.515 33.4701 177.869 33.3834L176.809 33.3275C176.31 33.3013 175.814 33.4554 175.442 33.7889C170.884 37.8732 170.109 43.9359 170.411 46.993C170.456 47.4522 170.698 47.8612 171.046 48.1637L171.793 48.8125C172.936 49.8052 174.333 50.4596 175.827 50.7023L179.726 51.3357C181.965 51.6995 181.965 54.9203 179.726 55.284L175.827 55.9174C174.333 56.1601 172.936 56.8146 171.793 57.8072L171.046 58.456C170.698 58.7586 170.456 59.1675 170.411 59.6267C170.109 62.6839 170.884 68.7465 175.442 72.8309C175.814 73.1643 176.31 73.3185 176.809 73.2922L177.869 73.2363C179.515 73.1496 181.096 72.5653 182.403 71.5607L185.817 68.9368C187.645 67.5316 190.007 69.8242 188.657 71.6934L185.447 76.1378C184.561 77.3649 184.034 78.8149 183.926 80.3248L183.856 81.3116C183.823 81.7718 183.941 82.2319 184.233 82.5889C186.179 84.9661 191.01 88.7104 197.121 88.3828C197.62 88.3561 198.08 88.1148 198.414 87.7438L199.126 86.9552C200.23 85.7311 200.936 84.2008 201.152 82.5665L201.557 79.4922C201.863 77.1742 205.217 77.1742 205.523 79.4922L205.928 82.5665C206.144 84.2008 206.85 85.7311 207.955 86.9552L208.666 87.7438C209.001 88.1148 209.46 88.3561 209.96 88.3828C216.07 88.7104 220.901 84.9661 222.847 82.5889C223.139 82.2319 223.257 81.7718 223.224 81.3116L223.154 80.3248C223.046 78.8149 222.519 77.3649 221.633 76.1378L218.423 71.6934C217.073 69.8242 219.435 67.5316 221.263 68.9368L224.677 71.5607C225.984 72.5653 227.565 73.1496 229.211 73.2363L230.271 73.2922C230.77 73.3185 231.266 73.1643 231.639 72.8309C236.196 68.7465 236.971 62.6839 236.669 59.6267C236.624 59.1675 236.382 58.7586 236.034 58.456L235.287 57.8072C234.144 56.8146 232.747 56.1601 231.253 55.9174L227.354 55.284C225.115 54.9203 225.115 51.6995 227.354 51.3357L231.253 50.7023C232.747 50.4596 234.144 49.8052 235.287 48.8125L236.034 48.1637C236.382 47.8612 236.624 47.4522 236.669 46.993C236.971 43.9359 236.196 37.8732 231.639 33.7889C231.266 33.4554 230.77 33.3013 230.271 33.3275L229.211 33.3834C227.565 33.4701 225.984 34.0544 224.677 35.059L221.263 37.683C219.435 39.0882 217.073 36.7955 218.423 34.9264L221.633 30.482C222.519 29.2548 223.046 27.8048 223.154 26.2949L223.224 25.3082Z" fill="url(#paint16_radial_7159_2158)"/>
<path fill-rule="evenodd" clip-rule="evenodd" d="M204.171 51.9043C207.137 54.5532 207.394 59.1047 204.745 62.0705L184.37 84.883C181.721 87.8487 177.169 88.1056 174.204 85.4568C171.238 82.8079 170.981 78.2564 173.63 75.2906L194.005 52.4781C196.654 49.5123 201.205 49.2555 204.171 51.9043Z" fill="url(#paint17_radial_7159_2158)"/>
<path fill-rule="evenodd" clip-rule="evenodd" d="M204.171 51.9043C207.137 54.5532 207.394 59.1047 204.745 62.0705L184.37 84.883C181.721 87.8487 177.169 88.1056 174.204 85.4568C171.238 82.8079 170.981 78.2564 173.63 75.2906L194.005 52.4781C196.654 49.5123 201.205 49.2555 204.171 51.9043Z" fill="url(#paint18_linear_7159_2158)"/>
<path d="M122.625 240.656C68.7773 240.656 25.125 197.004 25.125 143.156C25.125 89.3085 68.7773 45.6562 122.625 45.6562C176.473 45.6562 220.125 89.3085 220.125 143.156C220.125 197.004 176.473 240.656 122.625 240.656Z" fill="url(#paint19_radial_7159_2158)"/>
<path d="M122.625 240.656C68.7773 240.656 25.125 197.004 25.125 143.156C25.125 89.3085 68.7773 45.6562 122.625 45.6562C176.473 45.6562 220.125 89.3085 220.125 143.156C220.125 197.004 176.473 240.656 122.625 240.656Z" fill="url(#paint20_radial_7159_2158)"/>
<path d="M122.625 240.656C68.7773 240.656 25.125 197.004 25.125 143.156C25.125 89.3085 68.7773 45.6562 122.625 45.6562C176.473 45.6562 220.125 89.3085 220.125 143.156C220.125 197.004 176.473 240.656 122.625 240.656Z" fill="url(#paint21_radial_7159_2158)"/>
<path d="M122.625 240.656C68.7773 240.656 25.125 197.004 25.125 143.156C25.125 89.3085 68.7773 45.6562 122.625 45.6562C176.473 45.6562 220.125 89.3085 220.125 143.156C220.125 197.004 176.473 240.656 122.625 240.656Z" fill="url(#paint22_radial_7159_2158)"/>
<defs>
<linearGradient id="paint0_linear_7159_2158" x1="233.5" y1="38.156" x2="175" y2="71.656" gradientUnits="userSpaceOnUse">
<stop stop-color="#FFC709"/>
<stop offset="0.7556" stop-color="#EE4C27"/>
</linearGradient>
<linearGradient id="paint1_linear_7159_2158" x1="193.5" y1="91.156" x2="215.5" y2="71.656" gradientUnits="userSpaceOnUse">
<stop stop-color="#D3390D"/>
<stop offset="1" stop-color="#D3390D" stop-opacity="0"/>
</linearGradient>
<radialGradient id="paint2_radial_7159_2158" cx="0" cy="0" r="1" gradientUnits="userSpaceOnUse" gradientTransform="translate(176.5 41.7805) rotate(32.1523) scale(5.16751 8.0366)">
<stop stop-color="#FFE975" stop-opacity="0.3"/>
<stop offset="1" stop-color="#FFE975" stop-opacity="0"/>
</radialGradient>
<radialGradient id="paint3_radial_7159_2158" cx="0" cy="0" r="1" gradientUnits="userSpaceOnUse" gradientTransform="translate(192.625 25.2805) rotate(69.6236) scale(4.66704 7.25826)">
<stop stop-color="#FFE975" stop-opacity="0.3"/>
<stop offset="1" stop-color="#FFE975" stop-opacity="0"/>
</radialGradient>
<radialGradient id="paint4_radial_7159_2158" cx="0" cy="0" r="1" gradientUnits="userSpaceOnUse" gradientTransform="translate(214.406 25.1867) rotate(116.068) scale(4.83568 7.52054)">
<stop stop-color="#FFE975" stop-opacity="0.3"/>
<stop offset="1" stop-color="#FFE975" stop-opacity="0"/>
</radialGradient>
<radialGradient id="paint5_radial_7159_2158" cx="0" cy="0" r="1" gradientUnits="userSpaceOnUse" gradientTransform="translate(230 41.9055) rotate(160.017) scale(4.38926 6.82626)">
<stop stop-color="white" stop-opacity="0.3"/>
<stop offset="1" stop-color="white" stop-opacity="0"/>
</radialGradient>
<radialGradient id="paint6_radial_7159_2158" cx="0" cy="0" r="1" gradientUnits="userSpaceOnUse" gradientTransform="translate(230.875 64.6555) rotate(-156.448) scale(5.31801 8.27067)">
<stop stop-color="white" stop-opacity="0.3"/>
<stop offset="1" stop-color="white" stop-opacity="0"/>
</radialGradient>
<radialGradient id="paint7_radial_7159_2158" cx="0" cy="0" r="1" gradientUnits="userSpaceOnUse" gradientTransform="translate(214.875 81.7805) rotate(-118.61) scale(4.69874 7.30757)">
<stop stop-color="#FFE975" stop-opacity="0.3"/>
<stop offset="1" stop-color="#FFE975" stop-opacity="0"/>
</radialGradient>
<radialGradient id="paint8_radial_7159_2158" cx="0" cy="0" r="1" gradientUnits="userSpaceOnUse" gradientTransform="translate(203.54 53.3099) rotate(90) scale(56.5956 53.5209)">
<stop offset="0.491788" stop-color="#D3390D" stop-opacity="0"/>
<stop offset="1" stop-color="#D3390D"/>
</radialGradient>
<radialGradient id="paint9_radial_7159_2158" cx="0" cy="0" r="1" gradientUnits="userSpaceOnUse" gradientTransform="translate(203.54 53.3099) rotate(90) scale(56.5956 53.5209)">
<stop stop-color="#D3390D" stop-opacity="0.7"/>
<stop offset="0.317708" stop-color="#D3390D" stop-opacity="0"/>
</radialGradient>
<radialGradient id="paint10_radial_7159_2158" cx="0" cy="0" r="1" gradientUnits="userSpaceOnUse" gradientTransform="translate(203.54 77.7805) rotate(90) scale(28.375 4.18571)">
<stop stop-color="#D3390D" stop-opacity="0.7"/>
<stop offset="1" stop-color="#D3390D" stop-opacity="0"/>
</radialGradient>
<radialGradient id="paint11_radial_7159_2158" cx="0" cy="0" r="1" gradientUnits="userSpaceOnUse" gradientTransform="translate(188.25 37.5305) rotate(-128.973) scale(24.8427 3.66464)">
<stop stop-color="#D3390D" stop-opacity="0.4"/>
<stop offset="1" stop-color="#D3390D" stop-opacity="0"/>
</radialGradient>
<radialGradient id="paint12_radial_7159_2158" cx="0" cy="0" r="1" gradientUnits="userSpaceOnUse" gradientTransform="translate(181.5 53.3099) rotate(-180) scale(24.25 3.57721)">
<stop stop-color="#D3390D" stop-opacity="0.4"/>
<stop offset="1" stop-color="#D3390D" stop-opacity="0"/>
</radialGradient>
<radialGradient id="paint13_radial_7159_2158" cx="0" cy="0" r="1" gradientUnits="userSpaceOnUse" gradientTransform="translate(203.54 30.2805) rotate(-90) scale(22.5 3.31906)">
<stop stop-color="#D3390D" stop-opacity="0.3"/>
<stop offset="1" stop-color="#D3390D" stop-opacity="0"/>
</radialGradient>
<radialGradient id="paint14_radial_7159_2158" cx="0" cy="0" r="1" gradientUnits="userSpaceOnUse" gradientTransform="translate(218.875 37.5305) rotate(-48.4373) scale(25.8125 3.8077)">
<stop stop-color="#D3390D" stop-opacity="0.2"/>
<stop offset="1" stop-color="#D3390D" stop-opacity="0"/>
</radialGradient>
<radialGradient id="paint15_radial_7159_2158" cx="0" cy="0" r="1" gradientUnits="userSpaceOnUse" gradientTransform="translate(225.875 53.3099) rotate(-2.3346) scale(25.271 3.72782)">
<stop stop-color="#D3390D" stop-opacity="0.2"/>
<stop offset="1" stop-color="#D3390D" stop-opacity="0"/>
</radialGradient>
<radialGradient id="paint16_radial_7159_2158" cx="0" cy="0" r="1" gradientUnits="userSpaceOnUse" gradientTransform="translate(219.125 68.7805) rotate(39.4007) scale(27.1765 4.00891)">
<stop stop-color="#D3390D" stop-opacity="0.3"/>
<stop offset="1" stop-color="#D3390D" stop-opacity="0"/>
</radialGradient>
<radialGradient id="paint17_radial_7159_2158" cx="0" cy="0" r="1" gradientUnits="userSpaceOnUse" gradientTransform="translate(206 53.0321) rotate(136.679) scale(27.1469 17.0231)">
<stop stop-color="#E1DFE1"/>
<stop offset="0.394388" stop-color="#C1BEC5"/>
</radialGradient>
<linearGradient id="paint18_linear_7159_2158" x1="188.375" y1="58.5321" x2="190.375" y2="60.1571" gradientUnits="userSpaceOnUse">
<stop stop-color="#A3A1A7"/>
<stop offset="1" stop-color="#B8B6BD" stop-opacity="0"/>
</linearGradient>
<radialGradient id="paint19_radial_7159_2158" cx="0" cy="0" r="1" gradientUnits="userSpaceOnUse" gradientTransform="translate(147 227.656) rotate(-119.386) scale(168.132 276.54)">
<stop offset="0.00558659" stop-color="#5C0F71"/>
<stop offset="1" stop-color="#2E255B"/>
</radialGradient>
<radialGradient id="paint20_radial_7159_2158" cx="0" cy="0" r="1" gradientUnits="userSpaceOnUse" gradientTransform="translate(166 190.156) rotate(-131.465) scale(183.49 210.575)">
<stop offset="0.71875" stop-color="#29233A" stop-opacity="0"/>
<stop offset="1" stop-color="#29233A"/>
</radialGradient>
<radialGradient id="paint21_radial_7159_2158" cx="0" cy="0" r="1" gradientUnits="userSpaceOnUse" gradientTransform="translate(107 103.156) rotate(67.5499) scale(155.808 132.26)">
<stop offset="0.809845" stop-color="#662B81" stop-opacity="0"/>
<stop offset="1" stop-color="#662B81"/>
</radialGradient>
<radialGradient id="paint22_radial_7159_2158" cx="0" cy="0" r="1" gradientUnits="userSpaceOnUse" gradientTransform="translate(164 115.656) rotate(135.649) scale(72.044 57.6352)">
<stop stop-color="#66558E"/>
<stop offset="0.727773" stop-color="#66558E" stop-opacity="0"/>
</radialGradient>
</defs>
</svg>
