<svg width="256" height="256" viewBox="0 0 256 256" fill="none" xmlns="http://www.w3.org/2000/svg">
<circle cx="128" cy="128" r="128" fill="#5A68F3"/>
<path d="M185.757 74.72C174.985 69.712 163.468 66.0724 151.427 64C149.948 66.6568 148.221 70.2302 147.03 73.0728C134.23 71.1599 121.547 71.1599 108.983 73.0728C107.792 70.2302 106.025 66.6568 104.533 64C92.4792 66.0724 80.9488 69.7254 70.1774 74.7465C48.4514 107.371 42.5619 139.185 45.5067 170.547C59.9165 181.24 73.8813 187.736 87.6104 191.987C91.0002 187.351 94.0235 182.423 96.6279 177.229C91.6677 175.356 86.9168 173.045 82.4278 170.361C83.6187 169.485 84.7836 168.568 85.909 167.625C113.289 180.35 143.038 180.35 170.09 167.625C171.229 168.568 172.394 169.485 173.572 170.361C169.07 173.058 164.306 175.369 159.345 177.242C161.95 182.423 164.96 187.364 168.363 192C182.105 187.749 196.083 181.254 210.493 170.547C213.948 134.19 204.59 102.668 185.757 74.72ZM100.358 151.26C92.1389 151.26 85.3985 143.635 85.3985 134.35C85.3985 125.064 91.995 117.426 100.358 117.426C108.721 117.426 115.462 125.051 115.318 134.35C115.331 143.635 108.721 151.26 100.358 151.26ZM155.641 151.26C147.422 151.26 140.682 143.635 140.682 134.35C140.682 125.064 147.278 117.426 155.641 117.426C164.005 117.426 170.745 125.051 170.601 134.35C170.601 143.635 164.005 151.26 155.641 151.26Z" fill="white"/>
</svg>
