<svg width="32" height="32" viewBox="0 0 32 32" fill="none" xmlns="http://www.w3.org/2000/svg">
<circle cx="16" cy="16" r="16" fill="#5A68F3"/>
<path d="M23.2196 9.34C21.8731 8.714 20.4335 8.25905 18.9284 8C18.7435 8.33209 18.5276 8.77877 18.3787 9.1341C16.7787 8.89499 15.1934 8.89499 13.6228 9.1341C13.474 8.77877 13.2531 8.33209 13.0666 8C11.5599 8.25905 10.1186 8.71567 8.77214 9.34331C6.0564 13.4214 5.32021 17.3981 5.6883 21.3184C7.48953 22.655 9.23513 23.467 10.9513 23.9984C11.375 23.4189 11.7529 22.8028 12.0785 22.1536C11.4584 21.9195 10.8646 21.6306 10.3034 21.2952C10.4523 21.1856 10.5979 21.071 10.7386 20.9531C14.1611 22.5438 17.8797 22.5438 21.2613 20.9531C21.4036 21.071 21.5492 21.1856 21.6964 21.2952C21.1337 21.6322 20.5382 21.9211 19.9181 22.1553C20.2437 22.8028 20.62 23.4205 21.0453 24C22.7631 23.4687 24.5103 22.6567 26.3116 21.3184C26.7435 16.7738 25.5738 12.8336 23.2196 9.34ZM12.5447 18.9075C11.5173 18.9075 10.6748 17.9543 10.6748 16.7937C10.6748 15.6331 11.4993 14.6783 12.5447 14.6783C13.5901 14.6783 14.4327 15.6314 14.4147 16.7937C14.4163 17.9543 13.5901 18.9075 12.5447 18.9075ZM19.4552 18.9075C18.4278 18.9075 17.5852 17.9543 17.5852 16.7937C17.5852 15.6331 18.4097 14.6783 19.4552 14.6783C20.5005 14.6783 21.3431 15.6314 21.3251 16.7937C21.3251 17.9543 20.5005 18.9075 19.4552 18.9075Z" fill="white"/>
</svg>
