<svg width="256" height="256" viewBox="0 0 256 256" fill="none" xmlns="http://www.w3.org/2000/svg">
<path d="M0 128C0 57.3076 57.3076 0 128 0C198.692 0 256 57.3076 256 128C256 198.692 198.692 256 128 256C57.3076 256 0 198.692 0 128Z" fill="#F26798"/>
<path d="M128.012 38.4004C134.081 38.4004 140.154 39.0134 146.061 40.2207C151.816 41.3934 157.483 43.1473 162.896 45.4355C168.209 47.6929 173.333 50.4709 178.12 53.7129C182.859 56.924 187.323 60.5942 191.379 64.6367C195.426 68.7011 199.112 73.1464 202.31 77.8975C205.557 82.6752 208.336 87.8035 210.576 93.123C212.869 98.5259 214.619 104.196 215.801 109.962C217.012 115.855 217.63 121.928 217.63 128C217.63 134.068 217.012 140.128 215.801 146.034C214.619 151.8 212.869 157.461 210.576 162.873C208.336 168.189 205.556 173.312 202.309 178.09C199.111 182.837 195.426 187.291 191.379 191.351C187.322 195.393 182.859 199.072 178.12 202.288C173.333 205.516 168.208 208.294 162.895 210.548C157.482 212.831 151.815 214.582 146.061 215.763C140.154 216.979 134.08 217.601 128.011 217.601C121.937 217.601 115.863 216.979 109.965 215.763C104.202 214.582 98.5345 212.832 93.1258 210.548C87.8135 208.294 82.6845 205.516 77.8973 202.288C73.1582 199.072 68.695 195.393 64.6473 191.351C60.5953 187.291 56.91 182.837 53.7068 178.09C50.4774 173.312 47.6942 168.189 45.4451 162.873C43.1519 157.461 41.3976 151.8 40.2117 146.034C39.0128 140.128 38.4002 134.068 38.4002 128C38.4002 121.928 39.0122 115.855 40.2117 109.962C41.3976 104.196 43.1529 98.526 45.4461 93.123C47.6952 87.8032 50.4784 82.6752 53.7078 77.8975C56.9109 73.1465 60.5954 68.7011 64.6473 64.6367C68.6951 60.594 73.1591 56.9241 77.8983 53.7129C82.6853 50.471 87.8137 47.6932 93.1258 45.4355C98.5345 43.147 104.201 41.393 109.965 40.2207C115.863 39.0133 121.938 38.4004 128.012 38.4004ZM141.034 140.513C95.8793 156.251 81.133 187.968 80.9734 188.314C93.9658 198.416 110.262 204.511 128.011 204.511C138.609 204.511 148.704 202.353 157.889 198.446C156.756 191.761 152.31 168.329 141.541 140.347C141.371 140.403 141.2 140.452 141.034 140.513ZM203.57 140.128C201.993 139.62 180.583 132.843 155.882 136.803C165.92 164.382 169.998 186.843 170.777 191.455C187.961 179.862 200.166 161.452 203.57 140.128ZM130.116 114.666C90.7108 126.461 52.8972 125.612 51.5408 125.56C51.5187 126.382 51.4803 127.178 51.4803 128C51.4803 147.657 58.8973 165.577 71.0887 179.127C71.0624 179.087 92.0057 141.939 133.305 128.587C134.303 128.254 135.319 127.957 136.325 127.668C134.404 123.32 132.308 118.962 130.116 114.666ZM187.113 79.3945C186.963 79.6081 174.686 97.3342 144.477 109.669C146.254 113.318 147.974 117.031 149.562 120.764C150.127 122.103 150.679 123.415 151.217 124.728C177.503 121.42 203.4 126.983 204.515 127.212C204.34 109.074 197.851 92.4272 187.113 79.3945ZM95.3582 58.792C74.0166 68.8678 58.0878 88.5288 53.1209 112.224C55.1385 112.241 87.0305 112.644 123.775 102.883C110.53 79.3545 96.3782 60.1534 95.3582 58.792ZM128.011 51.4902C121.792 51.4902 115.758 52.2436 109.977 53.6348C111.125 55.1771 125.499 74.2421 138.587 98.2676C167.457 87.4466 178.359 70.8617 178.553 70.5742C165.079 58.6959 147.387 51.4902 128.011 51.4902Z" fill="white"/>
</svg>
