<svg width="32" height="32" viewBox="0 0 32 32" fill="none" xmlns="http://www.w3.org/2000/svg">
<path d="M0 16C0 7.16344 7.16344 0 16 0C24.8366 0 32 7.16344 32 16C32 24.8366 24.8366 32 16 32C7.16344 32 0 24.8366 0 16Z" fill="#F26798"/>
<path d="M16.0018 4.7998C16.7602 4.79983 17.5194 4.87646 18.2576 5.02734C18.9769 5.17393 19.6855 5.39366 20.3621 5.67969C21.0261 5.96185 21.6671 6.30863 22.2654 6.71387C22.8578 7.11525 23.4157 7.57477 23.9227 8.08008C24.4285 8.58805 24.8891 9.14354 25.2889 9.7373C25.6947 10.3345 26.042 10.9757 26.3221 11.6406C26.6086 12.3159 26.8277 13.0245 26.9754 13.7451C27.1269 14.4817 27.2039 15.241 27.2039 16C27.2039 16.7585 27.1269 17.5166 26.9754 18.2549C26.8277 18.9755 26.6087 19.683 26.3221 20.3594C26.042 21.0239 25.6948 21.6645 25.2889 22.2617C24.8891 22.855 24.4285 23.4116 23.9227 23.9189C23.4157 24.4241 22.8577 24.8842 22.2654 25.2861C21.6671 25.6896 21.0261 26.0367 20.3621 26.3184C19.6855 26.6038 18.9769 26.8231 18.2576 26.9707C17.5194 27.1227 16.7603 27.2002 16.0018 27.2002C15.2427 27.2002 14.4831 27.1227 13.7459 26.9707C13.0255 26.8231 12.3165 26.6038 11.6404 26.3184C10.9765 26.0367 10.3354 25.6896 9.73712 25.2861C9.14475 24.8842 8.58683 24.4242 8.08087 23.9189C7.57449 23.4116 7.11401 22.855 6.71368 22.2617C6.31 21.6645 5.96162 21.0238 5.68048 20.3594C5.39388 19.683 5.17442 18.9755 5.02618 18.2549C4.87632 17.5166 4.79962 16.7585 4.79962 16C4.79964 15.241 4.87625 14.4817 5.02618 13.7451C5.17441 13.0245 5.39389 12.3159 5.68048 11.6406C5.96162 10.9756 6.31 10.3345 6.71368 9.7373C7.11401 9.14355 7.57449 8.58804 8.08087 8.08008C8.58685 7.57474 9.14473 7.11527 9.73712 6.71387C10.3354 6.3087 10.9766 5.96186 11.6404 5.67969C12.3165 5.39362 13.0255 5.17389 13.7459 5.02734C14.4831 4.87647 15.2427 4.7998 16.0018 4.7998ZM17.6287 17.5645C11.9984 19.527 10.1506 23.4771 10.1219 23.5391C11.7459 24.8018 13.7832 25.5635 16.0018 25.5635C17.3264 25.5634 18.5881 25.2939 19.7361 24.8057C19.5944 23.9696 19.0381 21.0412 17.6922 17.5439C17.6711 17.5509 17.6494 17.5569 17.6287 17.5645ZM25.4461 17.5156C25.2464 17.4513 22.5712 16.6059 19.4852 17.1006C20.7397 20.5473 21.2499 23.3544 21.3475 23.9316C23.4953 22.4824 25.0206 20.181 25.4461 17.5156ZM16.2645 14.333C11.3388 15.8073 6.61175 15.7018 6.4422 15.6953C6.43944 15.7979 6.43537 15.8973 6.43536 16C6.43536 18.4571 7.36261 20.6969 8.88654 22.3906C8.91171 22.3356 11.5287 17.7332 16.6629 16.0732C16.7876 16.0317 16.915 15.9951 17.0408 15.959C16.8007 15.4154 16.5385 14.87 16.2645 14.333ZM23.3895 9.9248C23.3684 9.95476 21.8326 12.1683 18.0594 13.709C18.2814 14.1651 18.4966 14.6292 18.6951 15.0957C18.7657 15.263 18.8349 15.4269 18.9022 15.5908C22.1862 15.1777 25.4217 15.8721 25.5643 15.9014C25.5423 13.6344 24.7315 11.5538 23.3895 9.9248ZM11.9197 7.34961C9.25211 8.60912 7.26128 11.0665 6.64044 14.0283C6.89552 14.0305 10.8804 14.0799 15.4715 12.8604C13.8167 9.92093 12.0488 7.52194 11.9197 7.34961ZM16.0018 6.43652C15.2245 6.43652 14.4695 6.53021 13.7469 6.7041C13.8902 6.89662 15.6871 9.28004 17.3231 12.2832C20.9262 10.9327 22.2908 8.86455 22.3192 8.82227C20.635 7.33756 18.4237 6.43663 16.0018 6.43652Z" fill="white"/>
</svg>
