<svg width="32" height="32" viewBox="0 0 32 32" fill="none" xmlns="http://www.w3.org/2000/svg">
<path d="M0 16C0 7.16344 7.16344 0 16 0C24.8366 0 32 7.16344 32 16C32 24.8366 24.8366 32 16 32C7.16344 32 0 24.8366 0 16Z" fill="#2E2882"/>
<path d="M20.3522 21.4839L22.0953 20.3599V21.6206L16.2789 25.0669L10.4615 21.6206V20.3599L12.2047 21.4839L16.2789 18.144L20.3522 21.4839ZM16.2662 17.4233L12.2047 20.7729L6.40002 17.0288L10.4137 13.853L16.2662 17.4233ZM26.1334 17.0288L20.3287 20.7729L16.2662 17.4233L22.1198 13.853L26.1334 17.0288ZM16.2662 10.2827L10.4137 13.853L6.40002 10.6772L12.2047 6.93311L16.2662 10.2827ZM26.1334 10.6772L22.1198 13.853L16.2662 10.2827L20.3287 6.93311L26.1334 10.6772Z" fill="#FEB0A5"/>
</svg>
