<svg width="256" height="256" viewBox="0 0 256 256" fill="none" xmlns="http://www.w3.org/2000/svg">
<circle cx="88" cy="114" r="16" fill="#D9D9D9"/>
<path d="M127.991 239.982C202.667 239.982 239.982 189.842 239.982 127.991C239.982 66.1401 202.667 16 127.991 16C53.3155 16 16 66.1401 16 127.991C16 189.842 53.3155 239.982 127.991 239.982Z" fill="url(#paint0_radial_7159_2147)"/>
<path d="M127.991 239.982C202.667 239.982 239.982 189.842 239.982 127.991C239.982 66.1401 202.667 16 127.991 16C53.3155 16 16 66.1401 16 127.991C16 189.842 53.3155 239.982 127.991 239.982Z" fill="url(#paint1_radial_7159_2147)"/>
<path d="M127.991 239.982C202.667 239.982 239.982 189.842 239.982 127.991C239.982 66.1401 202.667 16 127.991 16C53.3155 16 16 66.1401 16 127.991C16 189.842 53.3155 239.982 127.991 239.982Z" fill="url(#paint2_radial_7159_2147)"/>
<path d="M127.991 239.982C202.667 239.982 239.982 189.842 239.982 127.991C239.982 66.1401 202.667 16 127.991 16C53.3155 16 16 66.1401 16 127.991C16 189.842 53.3155 239.982 127.991 239.982Z" fill="url(#paint3_radial_7159_2147)" fill-opacity="0.6"/>
<path d="M127.991 239.982C202.667 239.982 239.982 189.842 239.982 127.991C239.982 66.1401 202.667 16 127.991 16C53.3155 16 16 66.1401 16 127.991C16 189.842 53.3155 239.982 127.991 239.982Z" fill="url(#paint4_radial_7159_2147)"/>
<path d="M127.991 239.982C202.667 239.982 239.982 189.842 239.982 127.991C239.982 66.1401 202.667 16 127.991 16C53.3155 16 16 66.1401 16 127.991C16 189.842 53.3155 239.982 127.991 239.982Z" fill="url(#paint5_radial_7159_2147)"/>
<path d="M127.991 239.982C202.667 239.982 239.982 189.842 239.982 127.991C239.982 66.1401 202.667 16 127.991 16C53.3155 16 16 66.1401 16 127.991C16 189.842 53.3155 239.982 127.991 239.982Z" fill="url(#paint6_radial_7159_2147)"/>
<path d="M127.991 239.982C202.667 239.982 239.982 189.842 239.982 127.991C239.982 66.1401 202.667 16 127.991 16C53.3155 16 16 66.1401 16 127.991C16 189.842 53.3155 239.982 127.991 239.982Z" fill="url(#paint7_radial_7159_2147)"/>
<path d="M127.991 239.982C202.667 239.982 239.982 189.842 239.982 127.991C239.982 66.1401 202.667 16 127.991 16C53.3155 16 16 66.1401 16 127.991C16 189.842 53.3155 239.982 127.991 239.982Z" fill="url(#paint8_radial_7159_2147)"/>
<path d="M127.991 239.982C202.667 239.982 239.982 189.842 239.982 127.991C239.982 66.1401 202.667 16 127.991 16C53.3155 16 16 66.1401 16 127.991C16 189.842 53.3155 239.982 127.991 239.982Z" fill="url(#paint9_radial_7159_2147)"/>
<path d="M127.991 239.982C202.667 239.982 239.982 189.842 239.982 127.991C239.982 66.1401 202.667 16 127.991 16C53.3155 16 16 66.1401 16 127.991C16 189.842 53.3155 239.982 127.991 239.982Z" fill="url(#paint10_radial_7159_2147)"/>
<path d="M127.991 239.982C202.667 239.982 239.982 189.842 239.982 127.991C239.982 66.1401 202.667 16 127.991 16C53.3155 16 16 66.1401 16 127.991C16 189.842 53.3155 239.982 127.991 239.982Z" fill="url(#paint11_radial_7159_2147)"/>
<path d="M127.991 239.982C202.667 239.982 239.982 189.842 239.982 127.991C239.982 66.1401 202.667 16 127.991 16C53.3155 16 16 66.1401 16 127.991C16 189.842 53.3155 239.982 127.991 239.982Z" fill="url(#paint12_radial_7159_2147)"/>
<path d="M127.991 239.982C202.667 239.982 239.982 189.842 239.982 127.991C239.982 66.1401 202.667 16 127.991 16C53.3155 16 16 66.1401 16 127.991C16 189.842 53.3155 239.982 127.991 239.982Z" fill="url(#paint13_radial_7159_2147)"/>
<path d="M127.991 239.982C202.667 239.982 239.982 189.842 239.982 127.991C239.982 66.1401 202.667 16 127.991 16C53.3155 16 16 66.1401 16 127.991C16 189.842 53.3155 239.982 127.991 239.982Z" fill="url(#paint14_radial_7159_2147)"/>
<path d="M127.991 239.982C202.667 239.982 239.982 189.842 239.982 127.991C239.982 66.1401 202.667 16 127.991 16C53.3155 16 16 66.1401 16 127.991C16 189.842 53.3155 239.982 127.991 239.982Z" fill="url(#paint15_radial_7159_2147)"/>
<path d="M127.991 239.982C202.667 239.982 239.982 189.842 239.982 127.991C239.982 66.1401 202.667 16 127.991 16C53.3155 16 16 66.1401 16 127.991C16 189.842 53.3155 239.982 127.991 239.982Z" fill="url(#paint16_radial_7159_2147)"/>
<path d="M127.991 239.982C202.667 239.982 239.982 189.842 239.982 127.991C239.982 66.1401 202.667 16 127.991 16C53.3155 16 16 66.1401 16 127.991C16 189.842 53.3155 239.982 127.991 239.982Z" fill="url(#paint17_radial_7159_2147)"/>
<path d="M127.991 239.982C202.667 239.982 239.982 189.842 239.982 127.991C239.982 66.1401 202.667 16 127.991 16C53.3155 16 16 66.1401 16 127.991C16 189.842 53.3155 239.982 127.991 239.982Z" fill="url(#paint18_radial_7159_2147)"/>
<path d="M127.991 239.982C202.667 239.982 239.982 189.842 239.982 127.991C239.982 66.1401 202.667 16 127.991 16C53.3155 16 16 66.1401 16 127.991C16 189.842 53.3155 239.982 127.991 239.982Z" fill="url(#paint19_radial_7159_2147)"/>
<path d="M127.991 239.982C202.667 239.982 239.982 189.842 239.982 127.991C239.982 66.1401 202.667 16 127.991 16C53.3155 16 16 66.1401 16 127.991C16 189.842 53.3155 239.982 127.991 239.982Z" fill="url(#paint20_radial_7159_2147)"/>
<path d="M108 144C108 144 120 132 120 116C120 96.1177 103.882 80 84 80C64.1177 80 48 96.1177 48 116C48 132 56.3381 139.041 56.3381 139.041C56.3381 139.041 72.4422 134.694 84 136C100 137.808 108 144 108 144Z" fill="white"/>
<path d="M104 114C104 122.837 96.8366 130 88 130C79.1634 130 72 122.837 72 114C72 105.163 79.1634 98 88 98C96.8366 98 104 105.163 104 114Z" fill="url(#paint21_linear_7159_2147)"/>
<path fill-rule="evenodd" clip-rule="evenodd" d="M182.175 116.519C180.507 114.283 177.741 111.96 172.311 112.001C166.816 112.041 164.087 114.392 162.484 116.57C161.598 117.774 161.016 119.013 160.66 119.96C160.486 120.423 160.378 120.786 160.32 120.998C160.295 121.093 160.28 121.155 160.274 121.18C159.39 125.465 155.22 128.253 150.913 127.416C146.576 126.573 143.743 122.374 144.586 118.036C144.881 116.799 144.881 116.799 144.881 116.799C145.053 116.167 145.311 115.323 145.681 114.337C146.413 112.386 147.632 109.758 149.597 107.087C153.697 101.515 160.874 96.0846 172.192 96.001C183.575 95.9168 190.84 101.376 195 106.952C196.997 109.629 198.249 112.271 199.006 114.231C199.389 115.222 199.657 116.07 199.837 116.705C200.902 120.455 199.389 126.267 193.937 127.397C189.639 128.287 185.433 125.549 184.499 121.272C184.492 121.246 184.475 121.179 184.446 121.074C184.382 120.852 184.266 120.475 184.081 119.997C183.704 119.02 183.092 117.748 182.175 116.519Z" fill="url(#paint22_radial_7159_2147)"/>
<path fill-rule="evenodd" clip-rule="evenodd" d="M191.445 79.9009C196.188 84.404 199.057 89.8219 200.204 93.2649C200.903 95.3607 203.168 96.4933 205.264 95.7947C207.36 95.0961 208.492 92.8309 207.794 90.7351C206.275 86.1781 202.743 79.596 196.953 74.0991C191.095 68.5376 182.816 64 171.999 64C169.79 64 167.999 65.7909 167.999 68C167.999 70.2091 169.79 72 171.999 72C180.382 72 186.77 75.4624 191.445 79.9009Z" fill="url(#paint23_radial_7159_2147)"/>
<path fill-rule="evenodd" clip-rule="evenodd" d="M191.445 79.9009C196.188 84.404 199.057 89.8219 200.204 93.2649C200.903 95.3607 203.168 96.4933 205.264 95.7947C207.36 95.0961 208.492 92.8309 207.794 90.7351C206.275 86.1781 202.743 79.596 196.953 74.0991C191.095 68.5376 182.816 64 171.999 64C169.79 64 167.999 65.7909 167.999 68C167.999 70.2091 169.79 72 171.999 72C180.382 72 186.77 75.4624 191.445 79.9009Z" fill="url(#paint24_radial_7159_2147)"/>
<path fill-rule="evenodd" clip-rule="evenodd" d="M64.5551 63.9009C59.8119 68.404 56.9435 73.8219 55.7958 77.2649C55.0972 79.3607 52.8319 80.4933 50.7362 79.7947C48.6404 79.0961 47.5078 76.8309 48.2064 74.7351C49.7253 70.1781 53.2569 63.596 59.0471 58.0991C64.9052 52.5376 73.1843 48 84.0011 48C86.2102 48 88.0011 49.7909 88.0011 52C88.0011 54.2091 86.2102 56 84.0011 56C75.6178 56 69.2303 59.4624 64.5551 63.9009Z" fill="url(#paint25_radial_7159_2147)"/>
<path fill-rule="evenodd" clip-rule="evenodd" d="M64.5551 63.9009C59.8119 68.404 56.9435 73.8219 55.7958 77.2649C55.0972 79.3607 52.8319 80.4933 50.7362 79.7947C48.6404 79.0961 47.5078 76.8309 48.2064 74.7351C49.7253 70.1781 53.2569 63.596 59.0471 58.0991C64.9052 52.5376 73.1843 48 84.0011 48C86.2102 48 88.0011 49.7909 88.0011 52C88.0011 54.2091 86.2102 56 84.0011 56C75.6178 56 69.2303 59.4624 64.5551 63.9009Z" fill="url(#paint26_radial_7159_2147)"/>
<path d="M183.468 212.36C188.04 212.747 209.12 213.763 227.832 201.851C249.374 188.137 242.315 157.192 210.072 162.038C203.866 138.712 171.691 137.056 168.542 162.171C165.821 183.87 179.318 207.035 182.078 211.501C182.386 212 182.884 212.31 183.468 212.36Z" fill="#DD2263"/>
<path d="M183.468 212.36C188.04 212.747 209.12 213.763 227.832 201.851C249.374 188.137 242.315 157.192 210.072 162.038C203.866 138.712 171.691 137.056 168.542 162.171C165.821 183.87 179.318 207.035 182.078 211.501C182.386 212 182.884 212.31 183.468 212.36Z" fill="url(#paint27_radial_7159_2147)"/>
<path d="M183.468 212.36C188.04 212.747 209.12 213.763 227.832 201.851C249.374 188.137 242.315 157.192 210.072 162.038C203.866 138.712 171.691 137.056 168.542 162.171C165.821 183.87 179.318 207.035 182.078 211.501C182.386 212 182.884 212.31 183.468 212.36Z" fill="url(#paint28_linear_7159_2147)"/>
<path d="M183.468 212.36C188.04 212.747 209.12 213.763 227.832 201.851C249.374 188.137 242.315 157.192 210.072 162.038C203.866 138.712 171.691 137.056 168.542 162.171C165.821 183.87 179.318 207.035 182.078 211.501C182.386 212 182.884 212.31 183.468 212.36Z" fill="url(#paint29_linear_7159_2147)"/>
<path d="M183.468 212.36C188.04 212.747 209.12 213.763 227.832 201.851C249.374 188.137 242.315 157.192 210.072 162.038C203.866 138.712 171.691 137.056 168.542 162.171C165.821 183.87 179.318 207.035 182.078 211.501C182.386 212 182.884 212.31 183.468 212.36Z" fill="url(#paint30_linear_7159_2147)"/>
<path d="M183.468 212.36C188.04 212.747 209.12 213.763 227.832 201.851C249.374 188.137 242.315 157.192 210.072 162.038C203.866 138.712 171.691 137.056 168.542 162.171C165.821 183.87 179.318 207.035 182.078 211.501C182.386 212 182.884 212.31 183.468 212.36Z" fill="url(#paint31_linear_7159_2147)"/>
<path d="M183.468 212.36C188.04 212.747 209.12 213.763 227.832 201.851C249.374 188.137 242.315 157.192 210.072 162.038C203.866 138.712 171.691 137.056 168.542 162.171C165.821 183.87 179.318 207.035 182.078 211.501C182.386 212 182.884 212.31 183.468 212.36Z" fill="url(#paint32_radial_7159_2147)"/>
<path d="M183.468 212.36C188.04 212.747 209.12 213.763 227.832 201.851C249.374 188.137 242.315 157.192 210.072 162.038C203.866 138.712 171.691 137.056 168.542 162.171C165.821 183.87 179.318 207.035 182.078 211.501C182.386 212 182.884 212.31 183.468 212.36Z" fill="url(#paint33_radial_7159_2147)"/>
<path d="M183.468 212.36C188.04 212.747 209.12 213.763 227.832 201.851C249.374 188.137 242.315 157.192 210.072 162.038C203.866 138.712 171.691 137.056 168.542 162.171C165.821 183.87 179.318 207.035 182.078 211.501C182.386 212 182.884 212.31 183.468 212.36Z" fill="url(#paint34_radial_7159_2147)"/>
<path d="M183.468 212.36C188.04 212.747 209.12 213.763 227.832 201.851C249.374 188.137 242.315 157.192 210.072 162.038C203.866 138.712 171.691 137.056 168.542 162.171C165.821 183.87 179.318 207.035 182.078 211.501C182.386 212 182.884 212.31 183.468 212.36Z" fill="url(#paint35_radial_7159_2147)"/>
<path d="M183.468 212.36C188.04 212.747 209.12 213.763 227.832 201.851C249.374 188.137 242.315 157.192 210.072 162.038C203.866 138.712 171.691 137.056 168.542 162.171C165.821 183.87 179.318 207.035 182.078 211.501C182.386 212 182.884 212.31 183.468 212.36Z" fill="url(#paint36_radial_7159_2147)"/>
<path d="M183.468 212.36C188.04 212.747 209.12 213.763 227.832 201.851C249.374 188.137 242.315 157.192 210.072 162.038C203.866 138.712 171.691 137.056 168.542 162.171C165.821 183.87 179.318 207.035 182.078 211.501C182.386 212 182.884 212.31 183.468 212.36Z" fill="url(#paint37_radial_7159_2147)"/>
<path d="M183.468 212.36C188.04 212.747 209.12 213.763 227.832 201.851C249.374 188.137 242.315 157.192 210.072 162.038C203.866 138.712 171.691 137.056 168.542 162.171C165.821 183.87 179.318 207.035 182.078 211.501C182.386 212 182.884 212.31 183.468 212.36Z" fill="url(#paint38_radial_7159_2147)"/>
<path d="M183.468 212.36C188.04 212.747 209.12 213.763 227.832 201.851C249.374 188.137 242.315 157.192 210.072 162.038C203.866 138.712 171.691 137.056 168.542 162.171C165.821 183.87 179.318 207.035 182.078 211.501C182.386 212 182.884 212.31 183.468 212.36Z" fill="url(#paint39_radial_7159_2147)"/>
<path d="M183.468 212.36C188.04 212.747 209.12 213.763 227.832 201.851C249.374 188.137 242.315 157.192 210.072 162.038C203.866 138.712 171.691 137.056 168.542 162.171C165.821 183.87 179.318 207.035 182.078 211.501C182.386 212 182.884 212.31 183.468 212.36Z" fill="url(#paint40_radial_7159_2147)"/>
<path d="M183.468 212.36C188.04 212.747 209.12 213.763 227.832 201.851C249.374 188.137 242.315 157.192 210.072 162.038C203.866 138.712 171.691 137.056 168.542 162.171C165.821 183.87 179.318 207.035 182.078 211.501C182.386 212 182.884 212.31 183.468 212.36Z" fill="url(#paint41_radial_7159_2147)"/>
<path d="M183.468 212.36C188.04 212.747 209.12 213.763 227.832 201.851C249.374 188.137 242.315 157.192 210.072 162.038C203.866 138.712 171.691 137.056 168.542 162.171C165.821 183.87 179.318 207.035 182.078 211.501C182.386 212 182.884 212.31 183.468 212.36Z" fill="url(#paint42_radial_7159_2147)"/>
<path d="M183.468 212.36C188.04 212.747 209.12 213.763 227.832 201.851C249.374 188.137 242.315 157.192 210.072 162.038C203.866 138.712 171.691 137.056 168.542 162.171C165.821 183.87 179.318 207.035 182.078 211.501C182.386 212 182.884 212.31 183.468 212.36Z" fill="url(#paint43_radial_7159_2147)"/>
<path d="M183.468 212.36C188.04 212.747 209.12 213.763 227.832 201.851C249.374 188.137 242.315 157.192 210.072 162.038C203.866 138.712 171.691 137.056 168.542 162.171C165.821 183.87 179.318 207.035 182.078 211.501C182.386 212 182.884 212.31 183.468 212.36Z" fill="url(#paint44_radial_7159_2147)"/>
<path d="M133.359 143.359C128.941 143.359 125.359 146.941 125.359 151.359C125.359 155.778 128.941 159.359 133.359 159.359C135.661 159.359 137.519 161.218 137.519 163.519C137.519 165.821 135.661 167.679 133.359 167.679C128.941 167.679 125.359 171.261 125.359 175.679C125.359 175.679 125.359 175.679 125.359 175.679C125.359 180.098 128.941 183.68 133.359 183.68C135.661 183.68 137.519 185.538 137.519 187.84C137.519 190.141 135.661 192 133.359 192C128.941 192 125.359 195.581 125.359 200C125.359 204.418 128.941 208 133.359 208C144.498 208 153.519 198.978 153.519 187.84C153.519 183.271 152.002 179.059 149.443 175.68C152.002 172.3 153.519 168.088 153.519 163.519C153.519 152.381 144.498 143.359 133.359 143.359Z" fill="url(#paint45_radial_7159_2147)"/>
<path d="M133.359 143.359C128.941 143.359 125.359 146.941 125.359 151.359C125.359 155.778 128.941 159.359 133.359 159.359C135.661 159.359 137.519 161.218 137.519 163.519C137.519 165.821 135.661 167.679 133.359 167.679C128.941 167.679 125.359 171.261 125.359 175.679C125.359 175.679 125.359 175.679 125.359 175.679C125.359 180.098 128.941 183.68 133.359 183.68C135.661 183.68 137.519 185.538 137.519 187.84C137.519 190.141 135.661 192 133.359 192C128.941 192 125.359 195.581 125.359 200C125.359 204.418 128.941 208 133.359 208C144.498 208 153.519 198.978 153.519 187.84C153.519 183.271 152.002 179.059 149.443 175.68C152.002 172.3 153.519 168.088 153.519 163.519C153.519 152.381 144.498 143.359 133.359 143.359Z" fill="url(#paint46_radial_7159_2147)"/>
<path d="M133.359 143.359C128.941 143.359 125.359 146.941 125.359 151.359C125.359 155.778 128.941 159.359 133.359 159.359C135.661 159.359 137.519 161.218 137.519 163.519C137.519 165.821 135.661 167.679 133.359 167.679C128.941 167.679 125.359 171.261 125.359 175.679C125.359 175.679 125.359 175.679 125.359 175.679C125.359 180.098 128.941 183.68 133.359 183.68C135.661 183.68 137.519 185.538 137.519 187.84C137.519 190.141 135.661 192 133.359 192C128.941 192 125.359 195.581 125.359 200C125.359 204.418 128.941 208 133.359 208C144.498 208 153.519 198.978 153.519 187.84C153.519 183.271 152.002 179.059 149.443 175.68C152.002 172.3 153.519 168.088 153.519 163.519C153.519 152.381 144.498 143.359 133.359 143.359Z" fill="url(#paint47_linear_7159_2147)"/>
<path d="M133.359 143.359C128.941 143.359 125.359 146.941 125.359 151.359C125.359 155.778 128.941 159.359 133.359 159.359C135.661 159.359 137.519 161.218 137.519 163.519C137.519 165.821 135.661 167.679 133.359 167.679C128.941 167.679 125.359 171.261 125.359 175.679C125.359 175.679 125.359 175.679 125.359 175.679C125.359 180.098 128.941 183.68 133.359 183.68C135.661 183.68 137.519 185.538 137.519 187.84C137.519 190.141 135.661 192 133.359 192C128.941 192 125.359 195.581 125.359 200C125.359 204.418 128.941 208 133.359 208C144.498 208 153.519 198.978 153.519 187.84C153.519 183.271 152.002 179.059 149.443 175.68C152.002 172.3 153.519 168.088 153.519 163.519C153.519 152.381 144.498 143.359 133.359 143.359Z" fill="url(#paint48_radial_7159_2147)"/>
<path d="M133.359 143.359C128.941 143.359 125.359 146.941 125.359 151.359C125.359 155.778 128.941 159.359 133.359 159.359C135.661 159.359 137.519 161.218 137.519 163.519C137.519 165.821 135.661 167.679 133.359 167.679C128.941 167.679 125.359 171.261 125.359 175.679C125.359 175.679 125.359 175.679 125.359 175.679C125.359 180.098 128.941 183.68 133.359 183.68C135.661 183.68 137.519 185.538 137.519 187.84C137.519 190.141 135.661 192 133.359 192C128.941 192 125.359 195.581 125.359 200C125.359 204.418 128.941 208 133.359 208C144.498 208 153.519 198.978 153.519 187.84C153.519 183.271 152.002 179.059 149.443 175.68C152.002 172.3 153.519 168.088 153.519 163.519C153.519 152.381 144.498 143.359 133.359 143.359Z" fill="url(#paint49_radial_7159_2147)"/>
<defs>
<radialGradient id="paint0_radial_7159_2147" cx="0" cy="0" r="1" gradientUnits="userSpaceOnUse" gradientTransform="translate(204 72) rotate(132.839) scale(300.027)">
<stop stop-color="#FFF478"/>
<stop offset="0.474827" stop-color="#FFB02E"/>
<stop offset="1" stop-color="#F70A8D"/>
</radialGradient>
<radialGradient id="paint1_radial_7159_2147" cx="0" cy="0" r="1" gradientUnits="userSpaceOnUse" gradientTransform="translate(204 72) rotate(131.878) scale(311.589)">
<stop stop-color="#FFF478"/>
<stop offset="0.474827" stop-color="#FFB02E"/>
<stop offset="1" stop-color="#F70A8D"/>
</radialGradient>
<radialGradient id="paint2_radial_7159_2147" cx="0" cy="0" r="1" gradientUnits="userSpaceOnUse" gradientTransform="translate(128 100) rotate(101.31) scale(142.773 182.864)">
<stop offset="0.787821" stop-color="#F59639" stop-opacity="0"/>
<stop offset="0.972509" stop-color="#FF7DCE"/>
</radialGradient>
<radialGradient id="paint3_radial_7159_2147" cx="0" cy="0" r="1" gradientUnits="userSpaceOnUse" gradientTransform="translate(144 112) rotate(135) scale(328.098)">
<stop offset="0.314853" stop-opacity="0"/>
<stop offset="1"/>
</radialGradient>
<radialGradient id="paint4_radial_7159_2147" cx="0" cy="0" r="1" gradientUnits="userSpaceOnUse" gradientTransform="translate(128 136) rotate(77.692) scale(225.175)">
<stop offset="0.507903" stop-color="#7D6133" stop-opacity="0"/>
<stop offset="1" stop-color="#715B32"/>
</radialGradient>
<radialGradient id="paint5_radial_7159_2147" cx="0" cy="0" r="1" gradientUnits="userSpaceOnUse" gradientTransform="translate(132 132) rotate(55.7131) scale(106.508 77.2025)">
<stop stop-color="#FFB849"/>
<stop offset="1" stop-color="#FFB847" stop-opacity="0"/>
</radialGradient>
<radialGradient id="paint6_radial_7159_2147" cx="0" cy="0" r="1" gradientUnits="userSpaceOnUse" gradientTransform="translate(164 144) rotate(9.86581) scale(93.3809)">
<stop stop-color="#FFA64B"/>
<stop offset="0.900412" stop-color="#FFAE46" stop-opacity="0"/>
</radialGradient>
<radialGradient id="paint7_radial_7159_2147" cx="0" cy="0" r="1" gradientUnits="userSpaceOnUse" gradientTransform="translate(140 120) rotate(43.9708) scale(472.424)">
<stop offset="0.185425" stop-opacity="0"/>
<stop offset="1" stop-opacity="0.4"/>
</radialGradient>
<radialGradient id="paint8_radial_7159_2147" cx="0" cy="0" r="1" gradientUnits="userSpaceOnUse" gradientTransform="translate(93.3803 118.158) rotate(86.5467) scale(30.0736 30.4965)">
<stop stop-color="#B3671F"/>
<stop offset="0.392157" stop-color="#B3671F"/>
<stop offset="0.643397" stop-color="#B3671F" stop-opacity="0.446091"/>
<stop offset="0.806763" stop-color="#B3671F" stop-opacity="0.179254"/>
<stop offset="1" stop-color="#B3671F" stop-opacity="0"/>
</radialGradient>
<radialGradient id="paint9_radial_7159_2147" cx="0" cy="0" r="1" gradientUnits="userSpaceOnUse" gradientTransform="translate(71.2828 113.17) rotate(89.9138) scale(38.1744 32.8942)">
<stop offset="0.47452" stop-color="#B3671F"/>
<stop offset="0.781916" stop-color="#B3671F" stop-opacity="0.236695"/>
<stop offset="0.873485" stop-color="#B3671F" stop-opacity="0.0865443"/>
<stop offset="0.948588" stop-color="#B3671F" stop-opacity="0"/>
</radialGradient>
<radialGradient id="paint10_radial_7159_2147" cx="0" cy="0" r="1" gradientUnits="userSpaceOnUse" gradientTransform="translate(186.879 121.018) rotate(46.1017) scale(13.9498 11.3055)">
<stop stop-color="#D0782E"/>
<stop offset="1" stop-color="#D0782E" stop-opacity="0"/>
</radialGradient>
<radialGradient id="paint11_radial_7159_2147" cx="0" cy="0" r="1" gradientUnits="userSpaceOnUse" gradientTransform="translate(176.637 113.242) rotate(34.5742) scale(17.0449 5.8398)">
<stop stop-color="#D0782E"/>
<stop offset="1" stop-color="#D0782E" stop-opacity="0"/>
</radialGradient>
<radialGradient id="paint12_radial_7159_2147" cx="0" cy="0" r="1" gradientUnits="userSpaceOnUse" gradientTransform="translate(167.534 108.311) rotate(24.7395) scale(21.3 8.74376)">
<stop stop-color="#D0782E"/>
<stop offset="1" stop-color="#D0782E" stop-opacity="0"/>
</radialGradient>
<radialGradient id="paint13_radial_7159_2147" cx="0" cy="0" r="1" gradientUnits="userSpaceOnUse" gradientTransform="translate(141.386 119.798) rotate(105.124) scale(12.7618 9.4187)">
<stop stop-color="#E7982E"/>
<stop offset="1" stop-color="#E39632" stop-opacity="0"/>
</radialGradient>
<radialGradient id="paint14_radial_7159_2147" cx="0" cy="0" r="1" gradientUnits="userSpaceOnUse" gradientTransform="translate(199.942 94.5711) rotate(54.1967) scale(7.59525)">
<stop stop-color="#E7982E"/>
<stop offset="1" stop-color="#E39632" stop-opacity="0"/>
</radialGradient>
<radialGradient id="paint15_radial_7159_2147" cx="0" cy="0" r="1" gradientUnits="userSpaceOnUse" gradientTransform="translate(193.681 84.5737) rotate(67.5573) scale(15.0776 6.2312)">
<stop stop-color="#E7982E"/>
<stop offset="1" stop-color="#E39632" stop-opacity="0"/>
</radialGradient>
<radialGradient id="paint16_radial_7159_2147" cx="0" cy="0" r="1" gradientUnits="userSpaceOnUse" gradientTransform="translate(182.977 75.4853) rotate(35.24) scale(24.8519 10.807)">
<stop stop-color="#E2981B"/>
<stop offset="1" stop-color="#FFDC64" stop-opacity="0"/>
</radialGradient>
<radialGradient id="paint17_radial_7159_2147" cx="0" cy="0" r="1" gradientUnits="userSpaceOnUse" gradientTransform="translate(173.585 72.0518) rotate(28.8386) scale(18.2142 7.93666)">
<stop stop-color="#E2981B"/>
<stop offset="1" stop-color="#FFDC64" stop-opacity="0"/>
</radialGradient>
<radialGradient id="paint18_radial_7159_2147" cx="0" cy="0" r="1" gradientUnits="userSpaceOnUse" gradientTransform="translate(65.7963 79.8691) rotate(-8.56089) scale(35.6232)">
<stop stop-color="#D59A13"/>
<stop offset="1" stop-color="#D59A13" stop-opacity="0"/>
</radialGradient>
<radialGradient id="paint19_radial_7159_2147" cx="0" cy="0" r="1" gradientUnits="userSpaceOnUse" gradientTransform="translate(178.742 174.682) rotate(180) scale(32.1568)">
<stop stop-color="#CE5635"/>
<stop offset="1" stop-color="#CE5635" stop-opacity="0"/>
</radialGradient>
<radialGradient id="paint20_radial_7159_2147" cx="0" cy="0" r="1" gradientUnits="userSpaceOnUse" gradientTransform="translate(177.442 188.539) rotate(176.934) scale(36.9171 42.6597)">
<stop stop-color="#CE5635"/>
<stop offset="1" stop-color="#CE5635" stop-opacity="0"/>
</radialGradient>
<linearGradient id="paint21_linear_7159_2147" x1="100.308" y1="98" x2="86.8339" y2="124.274" gradientUnits="userSpaceOnUse">
<stop stop-color="#553B3E"/>
<stop offset="1" stop-color="#3D2432"/>
</linearGradient>
<radialGradient id="paint22_radial_7159_2147" cx="0" cy="0" r="1" gradientUnits="userSpaceOnUse" gradientTransform="translate(172.297 118.688) rotate(90) scale(25.5 34.4838)">
<stop offset="0.307692" stop-color="#452A3D"/>
<stop offset="0.626374" stop-color="#594052"/>
<stop offset="1" stop-color="#482C40"/>
</radialGradient>
<radialGradient id="paint23_radial_7159_2147" cx="0" cy="0" r="1" gradientUnits="userSpaceOnUse" gradientTransform="translate(177.787 91.9843) rotate(-145.524) scale(31.5325 28.8791)">
<stop offset="0.641397" stop-color="#2F1F2A"/>
<stop offset="0.822285" stop-color="#51394C"/>
<stop offset="0.881253" stop-color="#50394C"/>
<stop offset="1" stop-color="#442E3E"/>
</radialGradient>
<radialGradient id="paint24_radial_7159_2147" cx="0" cy="0" r="1" gradientUnits="userSpaceOnUse" gradientTransform="translate(186.494 80.0005) rotate(129.805) scale(32.4215 26.1572)">
<stop offset="0.645531" stop-color="#362530" stop-opacity="0"/>
<stop offset="1" stop-color="#342330"/>
</radialGradient>
<radialGradient id="paint25_radial_7159_2147" cx="0" cy="0" r="1" gradientUnits="userSpaceOnUse" gradientTransform="translate(78.8531 78.5252) rotate(-124.747) scale(27.2815 34.2811)">
<stop offset="0.552138" stop-color="#4A2F37"/>
<stop offset="0.822285" stop-color="#51394C"/>
<stop offset="0.881253" stop-color="#50394C"/>
<stop offset="1" stop-color="#4D3635"/>
</radialGradient>
<radialGradient id="paint26_radial_7159_2147" cx="0" cy="0" r="1" gradientUnits="userSpaceOnUse" gradientTransform="translate(86.0226 52.9899) rotate(-176.165) scale(3.31185 6.22855)">
<stop stop-color="#5A4950"/>
<stop offset="1" stop-color="#5D4C4F" stop-opacity="0"/>
</radialGradient>
<radialGradient id="paint27_radial_7159_2147" cx="0" cy="0" r="1" gradientUnits="userSpaceOnUse" gradientTransform="translate(201.419 163.115) rotate(98.5732) scale(22.6638 25.3219)">
<stop offset="0.536968" stop-color="#F75C84"/>
<stop offset="1" stop-color="#F97291" stop-opacity="0"/>
</radialGradient>
<linearGradient id="paint28_linear_7159_2147" x1="207.739" y1="169.047" x2="202.203" y2="163.788" gradientUnits="userSpaceOnUse">
<stop stop-color="#F9718F"/>
<stop offset="1" stop-color="#F9718F" stop-opacity="0"/>
</linearGradient>
<linearGradient id="paint29_linear_7159_2147" x1="192.707" y1="149.669" x2="201.419" y2="166.05" gradientUnits="userSpaceOnUse">
<stop stop-color="#DD2263"/>
<stop offset="0.439099" stop-color="#DD2263" stop-opacity="0"/>
</linearGradient>
<linearGradient id="paint30_linear_7159_2147" x1="187.131" y1="167.769" x2="202.924" y2="163.631" gradientUnits="userSpaceOnUse">
<stop offset="0.131444" stop-color="#DD2263"/>
<stop offset="0.654349" stop-color="#DD2263" stop-opacity="0"/>
</linearGradient>
<linearGradient id="paint31_linear_7159_2147" x1="216.372" y1="170.972" x2="200.015" y2="164.048" gradientUnits="userSpaceOnUse">
<stop offset="0.375696" stop-color="#DD2263"/>
<stop offset="0.601476" stop-color="#DD2263" stop-opacity="0"/>
</linearGradient>
<radialGradient id="paint32_radial_7159_2147" cx="0" cy="0" r="1" gradientUnits="userSpaceOnUse" gradientTransform="translate(200 164) rotate(78.6901) scale(61.1882 68.3645)">
<stop stop-color="#DA2856" stop-opacity="0"/>
<stop offset="0.6229" stop-color="#DF2162" stop-opacity="0.53"/>
<stop offset="0.940932" stop-color="#FF67C6"/>
</radialGradient>
<radialGradient id="paint33_radial_7159_2147" cx="0" cy="0" r="1" gradientUnits="userSpaceOnUse" gradientTransform="translate(179.451 145.225) rotate(140.194) scale(11.2573 3.34233)">
<stop stop-color="#A41B36"/>
<stop offset="1" stop-color="#A41B36" stop-opacity="0"/>
</radialGradient>
<radialGradient id="paint34_radial_7159_2147" cx="0" cy="0" r="1" gradientUnits="userSpaceOnUse" gradientTransform="translate(172.724 149.87) rotate(113.448) scale(14.4889 4.27143)">
<stop stop-color="#A41B36"/>
<stop offset="1" stop-color="#A41B36" stop-opacity="0"/>
</radialGradient>
<radialGradient id="paint35_radial_7159_2147" cx="0" cy="0" r="1" gradientUnits="userSpaceOnUse" gradientTransform="translate(167.76 160.6) rotate(91.0609) scale(25.9487 4.21203)">
<stop stop-color="#A41B36"/>
<stop offset="1" stop-color="#A41B36" stop-opacity="0"/>
</radialGradient>
<radialGradient id="paint36_radial_7159_2147" cx="0" cy="0" r="1" gradientUnits="userSpaceOnUse" gradientTransform="translate(167.767 175.831) rotate(83.019) scale(16.2042 3.84043)">
<stop stop-color="#A41B36"/>
<stop offset="1" stop-color="#A41B36" stop-opacity="0"/>
</radialGradient>
<radialGradient id="paint37_radial_7159_2147" cx="0" cy="0" r="1" gradientUnits="userSpaceOnUse" gradientTransform="translate(171.15 188.489) rotate(72.5746) scale(14.6462 2.50515)">
<stop stop-color="#A41B36"/>
<stop offset="1" stop-color="#A41B36" stop-opacity="0"/>
</radialGradient>
<radialGradient id="paint38_radial_7159_2147" cx="0" cy="0" r="1" gradientUnits="userSpaceOnUse" gradientTransform="translate(173.292 195.323) rotate(68.3691) scale(12.7284 2.17712)">
<stop stop-color="#A41B36"/>
<stop offset="1" stop-color="#A41B36" stop-opacity="0"/>
</radialGradient>
<radialGradient id="paint39_radial_7159_2147" cx="0" cy="0" r="1" gradientUnits="userSpaceOnUse" gradientTransform="translate(204.793 214.046) rotate(-94.2715) scale(45.2988 50.6116)">
<stop stop-color="#E71C86"/>
<stop offset="1" stop-color="#E92584" stop-opacity="0"/>
</radialGradient>
<radialGradient id="paint40_radial_7159_2147" cx="0" cy="0" r="1" gradientUnits="userSpaceOnUse" gradientTransform="translate(203.811 211.026) rotate(170.538) scale(24.8252 4.01879)">
<stop stop-color="#F07BC0"/>
<stop offset="1" stop-color="#F07BC0" stop-opacity="0"/>
</radialGradient>
<radialGradient id="paint41_radial_7159_2147" cx="0" cy="0" r="1" gradientUnits="userSpaceOnUse" gradientTransform="translate(220.005 206.52) rotate(164.276) scale(20.4189 4.59596)">
<stop stop-color="#F07BC0"/>
<stop offset="1" stop-color="#F07BC0" stop-opacity="0"/>
</radialGradient>
<radialGradient id="paint42_radial_7159_2147" cx="0" cy="0" r="1" gradientUnits="userSpaceOnUse" gradientTransform="translate(185.141 211.946) rotate(-180) scale(14.678 2.88317)">
<stop stop-color="#F07BC0"/>
<stop offset="1" stop-color="#F07BC0" stop-opacity="0"/>
</radialGradient>
<radialGradient id="paint43_radial_7159_2147" cx="0" cy="0" r="1" gradientUnits="userSpaceOnUse" gradientTransform="translate(211.502 155.616) rotate(135) scale(31.7445 4.99065)">
<stop stop-color="#EE5579"/>
<stop offset="1" stop-color="#EE5579" stop-opacity="0"/>
</radialGradient>
<radialGradient id="paint44_radial_7159_2147" cx="0" cy="0" r="1" gradientUnits="userSpaceOnUse" gradientTransform="translate(229.373 173.683) rotate(151.39) scale(13.9676 7.66454)">
<stop stop-color="#FE7392"/>
<stop offset="1" stop-color="#FE7292" stop-opacity="0"/>
</radialGradient>
<radialGradient id="paint45_radial_7159_2147" cx="0" cy="0" r="1" gradientUnits="userSpaceOnUse" gradientTransform="translate(131.662 185.496) scale(25.5361 22.8682)">
<stop stop-color="#3D1837"/>
<stop offset="0.660606" stop-color="#5B4950"/>
<stop offset="0.751515" stop-color="#5B4950"/>
<stop offset="1" stop-color="#553445"/>
</radialGradient>
<radialGradient id="paint46_radial_7159_2147" cx="0" cy="0" r="1" gradientUnits="userSpaceOnUse" gradientTransform="translate(131.85 162.025) rotate(3.24734) scale(26.5175 20.9851)">
<stop stop-color="#4D254F"/>
<stop offset="0.660606" stop-color="#5B4950"/>
<stop offset="0.751515" stop-color="#5B4950"/>
<stop offset="1" stop-color="#553445" stop-opacity="0"/>
</radialGradient>
<linearGradient id="paint47_linear_7159_2147" x1="124.151" y1="175.68" x2="140.675" y2="175.68" gradientUnits="userSpaceOnUse">
<stop stop-color="#462A3A"/>
<stop offset="1" stop-color="#462A3A" stop-opacity="0"/>
</linearGradient>
<radialGradient id="paint48_radial_7159_2147" cx="0" cy="0" r="1" gradientUnits="userSpaceOnUse" gradientTransform="translate(132.882 185.036) rotate(90.5729) scale(11.7221 11.7221)">
<stop stop-color="#472A35"/>
<stop offset="1" stop-color="#472A35" stop-opacity="0"/>
</radialGradient>
<radialGradient id="paint49_radial_7159_2147" cx="0" cy="0" r="1" gradientUnits="userSpaceOnUse" gradientTransform="translate(149.5 175.68) rotate(90) scale(0.475953 7.20138)">
<stop stop-color="#472E46"/>
<stop offset="1" stop-color="#533552" stop-opacity="0"/>
</radialGradient>
</defs>
</svg>
