<svg width="32" height="32" viewBox="0 0 32 32" fill="none" xmlns="http://www.w3.org/2000/svg">
<path d="M15.9989 29.9978C25.3333 29.9978 29.9978 23.7303 29.9978 15.9989C29.9978 8.26751 25.3333 2 15.9989 2C6.66443 2 2 8.26751 2 15.9989C2 23.7303 6.66443 29.9978 15.9989 29.9978Z" fill="url(#paint0_radial_7159_2144)"/>
<path d="M15.9989 29.9978C25.3333 29.9978 29.9978 23.7303 29.9978 15.9989C29.9978 8.26751 25.3333 2 15.9989 2C6.66443 2 2 8.26751 2 15.9989C2 23.7303 6.66443 29.9978 15.9989 29.9978Z" fill="url(#paint1_radial_7159_2144)"/>
<path d="M15.9989 29.9978C25.3333 29.9978 29.9978 23.7303 29.9978 15.9989C29.9978 8.26751 25.3333 2 15.9989 2C6.66443 2 2 8.26751 2 15.9989C2 23.7303 6.66443 29.9978 15.9989 29.9978Z" fill="url(#paint2_radial_7159_2144)" fill-opacity="0.6"/>
<path d="M15.9989 29.9978C25.3333 29.9978 29.9978 23.7303 29.9978 15.9989C29.9978 8.26751 25.3333 2 15.9989 2C6.66443 2 2 8.26751 2 15.9989C2 23.7303 6.66443 29.9978 15.9989 29.9978Z" fill="url(#paint3_radial_7159_2144)"/>
<path d="M15.9989 29.9978C25.3333 29.9978 29.9978 23.7303 29.9978 15.9989C29.9978 8.26751 25.3333 2 15.9989 2C6.66443 2 2 8.26751 2 15.9989C2 23.7303 6.66443 29.9978 15.9989 29.9978Z" fill="url(#paint4_radial_7159_2144)"/>
<path d="M15.9989 29.9978C25.3333 29.9978 29.9978 23.7303 29.9978 15.9989C29.9978 8.26751 25.3333 2 15.9989 2C6.66443 2 2 8.26751 2 15.9989C2 23.7303 6.66443 29.9978 15.9989 29.9978Z" fill="url(#paint5_radial_7159_2144)"/>
<path d="M15.9989 29.9978C25.3333 29.9978 29.9978 23.7303 29.9978 15.9989C29.9978 8.26751 25.3333 2 15.9989 2C6.66443 2 2 8.26751 2 15.9989C2 23.7303 6.66443 29.9978 15.9989 29.9978Z" fill="url(#paint6_radial_7159_2144)"/>
<path d="M15.9989 29.9978C25.3333 29.9978 29.9978 23.7303 29.9978 15.9989C29.9978 8.26751 25.3333 2 15.9989 2C6.66443 2 2 8.26751 2 15.9989C2 23.7303 6.66443 29.9978 15.9989 29.9978Z" fill="url(#paint7_radial_7159_2144)"/>
<path d="M15.9989 29.9978C25.3333 29.9978 29.9978 23.7303 29.9978 15.9989C29.9978 8.26751 25.3333 2 15.9989 2C6.66443 2 2 8.26751 2 15.9989C2 23.7303 6.66443 29.9978 15.9989 29.9978Z" fill="url(#paint8_radial_7159_2144)"/>
<path d="M15.9989 29.9978C25.3333 29.9978 29.9978 23.7303 29.9978 15.9989C29.9978 8.26751 25.3333 2 15.9989 2C6.66443 2 2 8.26751 2 15.9989C2 23.7303 6.66443 29.9978 15.9989 29.9978Z" fill="url(#paint9_radial_7159_2144)"/>
<path d="M15.9989 29.9978C25.3333 29.9978 29.9978 23.7303 29.9978 15.9989C29.9978 8.26751 25.3333 2 15.9989 2C6.66443 2 2 8.26751 2 15.9989C2 23.7303 6.66443 29.9978 15.9989 29.9978Z" fill="url(#paint10_radial_7159_2144)"/>
<path d="M15.9989 29.9978C25.3333 29.9978 29.9978 23.7303 29.9978 15.9989C29.9978 8.26751 25.3333 2 15.9989 2C6.66443 2 2 8.26751 2 15.9989C2 23.7303 6.66443 29.9978 15.9989 29.9978Z" fill="url(#paint11_radial_7159_2144)"/>
<path d="M15.9989 29.9978C25.3333 29.9978 29.9978 23.7303 29.9978 15.9989C29.9978 8.26751 25.3333 2 15.9989 2C6.66443 2 2 8.26751 2 15.9989C2 23.7303 6.66443 29.9978 15.9989 29.9978Z" fill="url(#paint12_radial_7159_2144)"/>
<path d="M15.9989 29.9978C25.3333 29.9978 29.9978 23.7303 29.9978 15.9989C29.9978 8.26751 25.3333 2 15.9989 2C6.66443 2 2 8.26751 2 15.9989C2 23.7303 6.66443 29.9978 15.9989 29.9978Z" fill="url(#paint13_radial_7159_2144)"/>
<path d="M15.9989 29.9978C25.3333 29.9978 29.9978 23.7303 29.9978 15.9989C29.9978 8.26751 25.3333 2 15.9989 2C6.66443 2 2 8.26751 2 15.9989C2 23.7303 6.66443 29.9978 15.9989 29.9978Z" fill="url(#paint14_radial_7159_2144)"/>
<path d="M15.9989 29.9978C25.3333 29.9978 29.9978 23.7303 29.9978 15.9989C29.9978 8.26751 25.3333 2 15.9989 2C6.66443 2 2 8.26751 2 15.9989C2 23.7303 6.66443 29.9978 15.9989 29.9978Z" fill="url(#paint15_radial_7159_2144)"/>
<path d="M15.9989 29.9978C25.3333 29.9978 29.9978 23.7303 29.9978 15.9989C29.9978 8.26751 25.3333 2 15.9989 2C6.66443 2 2 8.26751 2 15.9989C2 23.7303 6.66443 29.9978 15.9989 29.9978Z" fill="url(#paint16_radial_7159_2144)"/>
<path d="M15.9989 29.9978C25.3333 29.9978 29.9978 23.7303 29.9978 15.9989C29.9978 8.26751 25.3333 2 15.9989 2C6.66443 2 2 8.26751 2 15.9989C2 23.7303 6.66443 29.9978 15.9989 29.9978Z" fill="url(#paint17_radial_7159_2144)"/>
<path fill-rule="evenodd" clip-rule="evenodd" d="M22.7719 10.5649C22.5633 10.2853 22.2176 9.99505 21.5388 10.0001C20.852 10.0051 20.5109 10.2989 20.3105 10.5712C20.1997 10.7217 20.127 10.8766 20.0825 10.995C20.0608 11.0529 20.0473 11.0983 20.04 11.1248C20.0368 11.1366 20.035 11.1444 20.0342 11.1475C19.9238 11.6832 19.4024 12.0316 18.8641 11.9269C18.322 11.8216 17.9679 11.2967 18.0732 10.7545C18.1101 10.5999 18.1101 10.5999 18.1101 10.5999C18.1316 10.5209 18.1638 10.4154 18.2101 10.2922C18.3016 10.0482 18.4539 9.7197 18.6997 9.38582C19.2122 8.68939 20.1093 8.01058 21.524 8.00012C22.9468 7.9896 23.855 8.672 24.375 9.36897C24.6246 9.70361 24.7811 10.0338 24.8757 10.2789C24.9236 10.4028 24.9572 10.5087 24.9797 10.5881C25.1128 11.0569 24.9237 11.7834 24.2421 11.9246C23.7049 12.0359 23.1791 11.6937 23.0623 11.159C23.0615 11.1558 23.0594 11.1473 23.0557 11.1343C23.0478 11.1064 23.0332 11.0594 23.0101 10.9996C22.9629 10.8775 22.8865 10.7185 22.7719 10.5649Z" fill="url(#paint18_radial_7159_2144)"/>
<path fill-rule="evenodd" clip-rule="evenodd" d="M11.7407 10.5649C11.5321 10.2853 11.1864 9.99505 10.5076 10.0001C9.8208 10.0051 9.47962 10.2989 9.27924 10.5712C9.1685 10.7217 9.09571 10.8766 9.05128 10.995C9.02955 11.0529 9.01601 11.0983 9.00879 11.1248C9.00557 11.1366 9.0037 11.1444 9.00298 11.1475C8.89254 11.6832 8.3712 12.0316 7.83286 11.9269C7.29072 11.8216 6.93663 11.2967 7.04199 10.7545C7.07889 10.5999 7.07889 10.5999 7.07889 10.5999C7.10039 10.5209 7.13257 10.4154 7.17883 10.2922C7.27039 10.0482 7.4227 9.7197 7.6684 9.38582C8.18091 8.68939 9.07801 8.01058 10.4928 8.00012C11.9156 7.9896 12.8238 8.672 13.3437 9.36897C13.5934 9.70361 13.7498 10.0338 13.8445 10.2789C13.8923 10.4028 13.9259 10.5087 13.9484 10.5881C14.0815 11.0569 13.8924 11.7834 13.2109 11.9246C12.6736 12.0359 12.1478 11.6937 12.0311 11.159C12.0303 11.1558 12.0282 11.1473 12.0245 11.1343C12.0165 11.1064 12.0019 11.0594 11.9789 10.9996C11.9317 10.8775 11.8553 10.7185 11.7407 10.5649Z" fill="url(#paint19_radial_7159_2144)"/>
<path d="M16 25C7 25 7 16 7 16H25C25 16 25 25 16 25Z" fill="url(#paint20_radial_7159_2144)"/>
<path d="M7 17.5V16H25V17.5H7Z" fill="url(#paint21_linear_7159_2144)"/>
<path d="M7 17.5V16H25V17.5H7Z" fill="url(#paint22_linear_7159_2144)"/>
<path d="M8 17L4.6302 20.3698C3.75264 21.2474 2.31246 21.1875 1.51081 20.2401C0.798161 19.3978 0.850067 18.1499 1.6302 17.3698L5 14C5.82843 13.1716 7.17157 13.1716 8 14C8.82843 14.8284 8.82843 16.1716 8 17Z" fill="url(#paint23_radial_7159_2144)"/>
<path d="M8 17L4.6302 20.3698C3.75264 21.2474 2.31246 21.1875 1.51081 20.2401C0.798161 19.3978 0.850067 18.1499 1.6302 17.3698L5 14C5.82843 13.1716 7.17157 13.1716 8 14C8.82843 14.8284 8.82843 16.1716 8 17Z" fill="url(#paint24_radial_7159_2144)"/>
<path d="M8 17L4.6302 20.3698C3.75264 21.2474 2.31246 21.1875 1.51081 20.2401C0.798161 19.3978 0.850067 18.1499 1.6302 17.3698L5 14C5.82843 13.1716 7.17157 13.1716 8 14C8.82843 14.8284 8.82843 16.1716 8 17Z" fill="url(#paint25_radial_7159_2144)"/>
<path d="M24.25 17L27.6198 20.3698C28.4974 21.2474 29.9375 21.1875 30.7392 20.2401C31.4518 19.3978 31.3999 18.1499 30.6198 17.3698L27.25 14C26.4216 13.1716 25.0784 13.1716 24.25 14C23.4216 14.8284 23.4216 16.1716 24.25 17Z" fill="url(#paint26_radial_7159_2144)"/>
<defs>
<radialGradient id="paint0_radial_7159_2144" cx="0" cy="0" r="1" gradientUnits="userSpaceOnUse" gradientTransform="translate(25.5 9) rotate(131.878) scale(38.9487)">
<stop stop-color="#FFF478"/>
<stop offset="0.474827" stop-color="#FFB02E"/>
<stop offset="1" stop-color="#F70A8D"/>
</radialGradient>
<radialGradient id="paint1_radial_7159_2144" cx="0" cy="0" r="1" gradientUnits="userSpaceOnUse" gradientTransform="translate(16 12.5) rotate(101.31) scale(17.8466 22.8581)">
<stop offset="0.787821" stop-color="#F59639" stop-opacity="0"/>
<stop offset="0.972509" stop-color="#FF7DCE"/>
</radialGradient>
<radialGradient id="paint2_radial_7159_2144" cx="0" cy="0" r="1" gradientUnits="userSpaceOnUse" gradientTransform="translate(18 14) rotate(135) scale(41.0122)">
<stop offset="0.314853" stop-opacity="0"/>
<stop offset="1"/>
</radialGradient>
<radialGradient id="paint3_radial_7159_2144" cx="0" cy="0" r="1" gradientUnits="userSpaceOnUse" gradientTransform="translate(16 17) rotate(77.692) scale(28.1469)">
<stop offset="0.507903" stop-color="#7D6133" stop-opacity="0"/>
<stop offset="1" stop-color="#715B32"/>
</radialGradient>
<radialGradient id="paint4_radial_7159_2144" cx="0" cy="0" r="1" gradientUnits="userSpaceOnUse" gradientTransform="translate(16.5 16.5) rotate(55.7131) scale(13.3135 9.65032)">
<stop stop-color="#FFB849"/>
<stop offset="1" stop-color="#FFB847" stop-opacity="0"/>
</radialGradient>
<radialGradient id="paint5_radial_7159_2144" cx="0" cy="0" r="1" gradientUnits="userSpaceOnUse" gradientTransform="translate(20.5 18) rotate(9.86581) scale(11.6726)">
<stop stop-color="#FFA64B"/>
<stop offset="0.900412" stop-color="#FFAE46" stop-opacity="0"/>
</radialGradient>
<radialGradient id="paint6_radial_7159_2144" cx="0" cy="0" r="1" gradientUnits="userSpaceOnUse" gradientTransform="translate(17.5 15) rotate(43.9708) scale(59.0529)">
<stop offset="0.185425" stop-opacity="0"/>
<stop offset="1" stop-opacity="0.4"/>
</radialGradient>
<radialGradient id="paint7_radial_7159_2144" cx="0" cy="0" r="1" gradientUnits="userSpaceOnUse" gradientTransform="translate(9.30232 13.0752) rotate(-10.3912) scale(7.07095 5.21865)">
<stop stop-color="#F1A227"/>
<stop offset="1" stop-color="#F5A72C" stop-opacity="0"/>
</radialGradient>
<radialGradient id="paint8_radial_7159_2144" cx="0" cy="0" r="1" gradientUnits="userSpaceOnUse" gradientTransform="translate(18.9836 10.9281) rotate(103.681) scale(2.06508 1.52412)">
<stop stop-color="#E7982E"/>
<stop offset="1" stop-color="#E39632" stop-opacity="0"/>
</radialGradient>
<radialGradient id="paint9_radial_7159_2144" cx="0" cy="0" r="1" gradientUnits="userSpaceOnUse" gradientTransform="translate(23.3651 11.3566) scale(1.38367)">
<stop stop-color="#D28118"/>
<stop offset="1" stop-color="#D68623" stop-opacity="0"/>
</radialGradient>
<radialGradient id="paint10_radial_7159_2144" cx="0" cy="0" r="1" gradientUnits="userSpaceOnUse" gradientTransform="translate(22.2082 10.1859) rotate(45.9878) scale(2.24107 0.76782)">
<stop stop-color="#D28118"/>
<stop offset="1" stop-color="#D68623" stop-opacity="0"/>
</radialGradient>
<radialGradient id="paint11_radial_7159_2144" cx="0" cy="0" r="1" gradientUnits="userSpaceOnUse" gradientTransform="translate(20.9106 9.80348) rotate(9.61849) scale(2.11644 0.868811)">
<stop stop-color="#D28118"/>
<stop offset="1" stop-color="#D68623" stop-opacity="0"/>
</radialGradient>
<radialGradient id="paint12_radial_7159_2144" cx="0" cy="0" r="1" gradientUnits="userSpaceOnUse" gradientTransform="translate(12.0475 10.2639) rotate(65.4048) scale(2.41198 1.20885)">
<stop stop-color="#BE7227"/>
<stop offset="1" stop-color="#C67A2A" stop-opacity="0"/>
</radialGradient>
<radialGradient id="paint13_radial_7159_2144" cx="0" cy="0" r="1" gradientUnits="userSpaceOnUse" gradientTransform="translate(10.8793 9.5764) rotate(29.8052) scale(1.89688 1.40143)">
<stop stop-color="#D07E2D"/>
<stop offset="1" stop-color="#D98833" stop-opacity="0"/>
</radialGradient>
<radialGradient id="paint14_radial_7159_2144" cx="0" cy="0" r="1" gradientUnits="userSpaceOnUse" gradientTransform="translate(9.7709 9.5764) rotate(-8.79514) scale(2.06979 1.58384)">
<stop stop-color="#D88431"/>
<stop offset="1" stop-color="#CF8231" stop-opacity="0"/>
</radialGradient>
<radialGradient id="paint15_radial_7159_2144" cx="0" cy="0" r="1" gradientUnits="userSpaceOnUse" gradientTransform="translate(7.69449 10.7166) rotate(-66.0375) scale(2.58552 1.77357)">
<stop stop-color="#DA8924"/>
<stop offset="1" stop-color="#DC8924" stop-opacity="0"/>
</radialGradient>
<radialGradient id="paint16_radial_7159_2144" cx="0" cy="0" r="1" gradientUnits="userSpaceOnUse" gradientTransform="translate(4.76431 20.356) rotate(-47.3974) scale(4.29455 3.28627)">
<stop stop-color="#DB7D2D"/>
<stop offset="1" stop-color="#DB7D2D" stop-opacity="0"/>
</radialGradient>
<radialGradient id="paint17_radial_7159_2144" cx="0" cy="0" r="1" gradientUnits="userSpaceOnUse" gradientTransform="translate(24.9974 18.2418) rotate(-126.703) scale(5.92722 3.5766)">
<stop offset="0.204689" stop-color="#DB7D2D"/>
<stop offset="1" stop-color="#FAAD43" stop-opacity="0"/>
</radialGradient>
<radialGradient id="paint18_radial_7159_2144" cx="0" cy="0" r="1" gradientUnits="userSpaceOnUse" gradientTransform="translate(21.5371 10.8359) rotate(90) scale(3.1875 4.31047)">
<stop offset="0.307692" stop-color="#452A3D"/>
<stop offset="0.626374" stop-color="#594052"/>
<stop offset="1" stop-color="#482C40"/>
</radialGradient>
<radialGradient id="paint19_radial_7159_2144" cx="0" cy="0" r="1" gradientUnits="userSpaceOnUse" gradientTransform="translate(10.5059 10.8359) rotate(90) scale(3.1875 4.31047)">
<stop offset="0.307692" stop-color="#452A3D"/>
<stop offset="0.626374" stop-color="#594052"/>
<stop offset="1" stop-color="#482C40"/>
</radialGradient>
<radialGradient id="paint20_radial_7159_2144" cx="0" cy="0" r="1" gradientUnits="userSpaceOnUse" gradientTransform="translate(16 27) rotate(-90) scale(11 22)">
<stop stop-color="#F70A8D"/>
<stop offset="1" stop-color="#89029C"/>
</radialGradient>
<linearGradient id="paint21_linear_7159_2144" x1="16" y1="16" x2="16" y2="17.5" gradientUnits="userSpaceOnUse">
<stop stop-color="#ECCDFF"/>
<stop offset="1" stop-color="white"/>
</linearGradient>
<linearGradient id="paint22_linear_7159_2144" x1="24.5923" y1="17.0269" x2="21.374" y2="17.5" gradientUnits="userSpaceOnUse">
<stop stop-color="#E0A5FF"/>
<stop offset="1" stop-color="#E0A5FF" stop-opacity="0"/>
</linearGradient>
<radialGradient id="paint23_radial_7159_2144" cx="0" cy="0" r="1" gradientUnits="userSpaceOnUse" gradientTransform="translate(8 15) rotate(147.529) scale(6.5192 2.96814)">
<stop stop-color="#508FFF"/>
<stop offset="1" stop-color="#3D5BF1"/>
</radialGradient>
<radialGradient id="paint24_radial_7159_2144" cx="0" cy="0" r="1" gradientUnits="userSpaceOnUse" gradientTransform="translate(5.06363 18.0291) rotate(137.675) scale(3.68974 1.76433)">
<stop stop-color="#4478FF"/>
<stop offset="1" stop-color="#4678FF" stop-opacity="0"/>
</radialGradient>
<radialGradient id="paint25_radial_7159_2144" cx="0" cy="0" r="1" gradientUnits="userSpaceOnUse" gradientTransform="translate(7.21213 14.9454) rotate(42.7094) scale(1.95269 1.02492)">
<stop stop-color="#5190FF"/>
<stop offset="1" stop-color="#5190FF" stop-opacity="0"/>
</radialGradient>
<radialGradient id="paint26_radial_7159_2144" cx="0" cy="0" r="1" gradientUnits="userSpaceOnUse" gradientTransform="translate(27.6864 16.0222) rotate(47.9273) scale(5.03284 2.39389)">
<stop stop-color="#5092FF"/>
<stop offset="1" stop-color="#3F5FFF"/>
</radialGradient>
</defs>
</svg>
