<svg width="256" height="256" viewBox="0 0 256 256" fill="none" xmlns="http://www.w3.org/2000/svg">
<g clip-path="url(#clip0_7159_2151)">
<path d="M131.991 239.982C206.667 239.982 243.982 189.842 243.982 127.991C243.982 66.1401 206.667 16 131.991 16C57.3155 16 20 66.1401 20 127.991C20 189.842 57.3155 239.982 131.991 239.982Z" fill="url(#paint0_radial_7159_2151)"/>
<path d="M131.991 239.982C206.667 239.982 243.982 189.842 243.982 127.991C243.982 66.1401 206.667 16 131.991 16C57.3155 16 20 66.1401 20 127.991C20 189.842 57.3155 239.982 131.991 239.982Z" fill="url(#paint1_radial_7159_2151)"/>
<path d="M131.991 239.982C206.667 239.982 243.982 189.842 243.982 127.991C243.982 66.1401 206.667 16 131.991 16C57.3155 16 20 66.1401 20 127.991C20 189.842 57.3155 239.982 131.991 239.982Z" fill="url(#paint2_radial_7159_2151)" fill-opacity="0.6"/>
<path d="M131.991 239.982C206.667 239.982 243.982 189.842 243.982 127.991C243.982 66.1401 206.667 16 131.991 16C57.3155 16 20 66.1401 20 127.991C20 189.842 57.3155 239.982 131.991 239.982Z" fill="url(#paint3_radial_7159_2151)"/>
<path d="M131.991 239.982C206.667 239.982 243.982 189.842 243.982 127.991C243.982 66.1401 206.667 16 131.991 16C57.3155 16 20 66.1401 20 127.991C20 189.842 57.3155 239.982 131.991 239.982Z" fill="url(#paint4_radial_7159_2151)"/>
<path d="M131.991 239.982C206.667 239.982 243.982 189.842 243.982 127.991C243.982 66.1401 206.667 16 131.991 16C57.3155 16 20 66.1401 20 127.991C20 189.842 57.3155 239.982 131.991 239.982Z" fill="url(#paint5_radial_7159_2151)"/>
<path d="M131.991 239.982C206.667 239.982 243.982 189.842 243.982 127.991C243.982 66.1401 206.667 16 131.991 16C57.3155 16 20 66.1401 20 127.991C20 189.842 57.3155 239.982 131.991 239.982Z" fill="url(#paint6_radial_7159_2151)"/>
<path d="M131.991 239.982C206.667 239.982 243.982 189.842 243.982 127.991C243.982 66.1401 206.667 16 131.991 16C57.3155 16 20 66.1401 20 127.991C20 189.842 57.3155 239.982 131.991 239.982Z" fill="url(#paint7_radial_7159_2151)"/>
<path d="M131.991 239.982C206.667 239.982 243.982 189.842 243.982 127.991C243.982 66.1401 206.667 16 131.991 16C57.3155 16 20 66.1401 20 127.991C20 189.842 57.3155 239.982 131.991 239.982Z" fill="url(#paint8_radial_7159_2151)"/>
<path d="M131.991 239.982C206.667 239.982 243.982 189.842 243.982 127.991C243.982 66.1401 206.667 16 131.991 16C57.3155 16 20 66.1401 20 127.991C20 189.842 57.3155 239.982 131.991 239.982Z" fill="url(#paint9_radial_7159_2151)"/>
<path d="M131.991 239.982C206.667 239.982 243.982 189.842 243.982 127.991C243.982 66.1401 206.667 16 131.991 16C57.3155 16 20 66.1401 20 127.991C20 189.842 57.3155 239.982 131.991 239.982Z" fill="url(#paint10_radial_7159_2151)"/>
<path d="M131.991 239.982C206.667 239.982 243.982 189.842 243.982 127.991C243.982 66.1401 206.667 16 131.991 16C57.3155 16 20 66.1401 20 127.991C20 189.842 57.3155 239.982 131.991 239.982Z" fill="url(#paint11_radial_7159_2151)"/>
<path d="M131.991 239.982C206.667 239.982 243.982 189.842 243.982 127.991C243.982 66.1401 206.667 16 131.991 16C57.3155 16 20 66.1401 20 127.991C20 189.842 57.3155 239.982 131.991 239.982Z" fill="url(#paint12_radial_7159_2151)"/>
<path d="M131.991 239.982C206.667 239.982 243.982 189.842 243.982 127.991C243.982 66.1401 206.667 16 131.991 16C57.3155 16 20 66.1401 20 127.991C20 189.842 57.3155 239.982 131.991 239.982Z" fill="url(#paint13_radial_7159_2151)"/>
<path d="M131.991 239.982C206.667 239.982 243.982 189.842 243.982 127.991C243.982 66.1401 206.667 16 131.991 16C57.3155 16 20 66.1401 20 127.991C20 189.842 57.3155 239.982 131.991 239.982Z" fill="url(#paint14_radial_7159_2151)"/>
<path d="M131.991 239.982C206.667 239.982 243.982 189.842 243.982 127.991C243.982 66.1401 206.667 16 131.991 16C57.3155 16 20 66.1401 20 127.991C20 189.842 57.3155 239.982 131.991 239.982Z" fill="url(#paint15_radial_7159_2151)"/>
<path d="M131.991 239.982C206.667 239.982 243.982 189.842 243.982 127.991C243.982 66.1401 206.667 16 131.991 16C57.3155 16 20 66.1401 20 127.991C20 189.842 57.3155 239.982 131.991 239.982Z" fill="url(#paint16_radial_7159_2151)"/>
<path d="M131.991 239.982C206.667 239.982 243.982 189.842 243.982 127.991C243.982 66.1401 206.667 16 131.991 16C57.3155 16 20 66.1401 20 127.991C20 189.842 57.3155 239.982 131.991 239.982Z" fill="url(#paint17_radial_7159_2151)"/>
<path d="M131.991 239.982C206.667 239.982 243.982 189.842 243.982 127.991C243.982 66.1401 206.667 16 131.991 16C57.3155 16 20 66.1401 20 127.991C20 189.842 57.3155 239.982 131.991 239.982Z" fill="url(#paint18_radial_7159_2151)"/>
<path d="M131.991 239.982C206.667 239.982 243.982 189.842 243.982 127.991C243.982 66.1401 206.667 16 131.991 16C57.3155 16 20 66.1401 20 127.991C20 189.842 57.3155 239.982 131.991 239.982Z" fill="url(#paint19_radial_7159_2151)"/>
<path d="M131.991 239.982C206.667 239.982 243.982 189.842 243.982 127.991C243.982 66.1401 206.667 16 131.991 16C57.3155 16 20 66.1401 20 127.991C20 189.842 57.3155 239.982 131.991 239.982Z" fill="url(#paint20_radial_7159_2151)"/>
<path d="M131.991 239.982C206.667 239.982 243.982 189.842 243.982 127.991C243.982 66.1401 206.667 16 131.991 16C57.3155 16 20 66.1401 20 127.991C20 189.842 57.3155 239.982 131.991 239.982Z" fill="url(#paint21_radial_7159_2151)"/>
<path fill-rule="evenodd" clip-rule="evenodd" d="M165.964 173.598C147.176 154.947 116.794 155.012 98.0676 173.807C94.9491 176.937 89.8838 176.946 86.7539 173.828C83.624 170.709 83.6147 165.644 86.7332 162.514C111.687 137.469 152.184 137.374 177.236 162.243C180.372 165.356 180.391 170.421 177.278 173.556C174.165 176.692 169.1 176.711 165.964 173.598Z" fill="url(#paint22_linear_7159_2151)"/>
<path fill-rule="evenodd" clip-rule="evenodd" d="M112.437 81.3435C116.114 83.7943 117.107 88.7612 114.656 92.4375C109.213 100.602 100.126 105.533 91.0688 107.345C82.0118 109.156 71.7271 108.1 63.5623 102.656C59.886 100.205 58.8927 95.2385 61.3435 91.5623C63.7943 87.886 68.7612 86.8927 72.4375 89.3435C76.2726 91.9002 81.9879 92.8438 87.9309 91.6552C93.8739 90.4666 98.7867 87.3974 101.343 83.5623C103.794 79.886 108.761 78.8927 112.437 81.3435Z" fill="url(#paint23_radial_7159_2151)"/>
<path fill-rule="evenodd" clip-rule="evenodd" d="M151.563 81.3435C147.886 83.7943 146.893 88.7612 149.344 92.4375C154.787 100.602 163.874 105.533 172.931 107.345C181.988 109.156 192.273 108.1 200.438 102.656C204.114 100.205 205.107 95.2385 202.657 91.5623C200.206 87.886 195.239 86.8927 191.563 89.3435C187.727 91.9002 182.012 92.8438 176.069 91.6552C170.126 90.4666 165.213 87.3974 162.657 83.5623C160.206 79.886 155.239 78.8927 151.563 81.3435Z" fill="url(#paint24_linear_7159_2151)"/>
<path fill-rule="evenodd" clip-rule="evenodd" d="M108.145 61.068C105.154 50.2689 93.6293 44.6032 81.714 50.2543C79.718 51.201 77.3325 50.3503 76.3858 48.3543C75.4392 46.3583 76.2899 43.9727 78.2859 43.0261C94.3706 35.3975 111.446 43.0114 115.855 58.9329C116.444 61.0619 115.197 63.2658 113.068 63.8554C110.939 64.445 108.735 63.197 108.145 61.068Z" fill="url(#paint25_radial_7159_2151)"/>
<path fill-rule="evenodd" clip-rule="evenodd" d="M155.855 61.068C158.846 50.2689 170.371 44.6032 182.286 50.2543C184.282 51.201 186.668 50.3503 187.614 48.3543C188.561 46.3583 187.71 43.9727 185.714 43.0261C169.629 35.3975 152.554 43.0114 148.145 58.9329C147.556 61.0619 148.803 63.2658 150.932 63.8554C153.061 64.445 155.265 63.197 155.855 61.068Z" fill="url(#paint26_radial_7159_2151)"/>
<path d="M119.822 120.836C120.429 120.46 121.169 121.063 120.922 121.733L96.5938 187.568C103.438 191.796 108 199.365 108 208C108 221.255 97.2548 232 84 232C70.7452 232 60.0001 221.255 60 208C60 205.195 60.4827 202.503 61.3672 200H44V192L43.3809 191.993C30.4122 191.664 20.0001 181.048 20 168C20 154.746 30.7452 144 44 144C52.6003 144 60.1423 148.525 64.3799 155.323L119.822 120.836Z" fill="url(#paint27_radial_7159_2151)"/>
<path d="M119.822 120.836C120.429 120.46 121.169 121.063 120.922 121.733L96.5938 187.568C103.438 191.796 108 199.365 108 208C108 221.255 97.2548 232 84 232C70.7452 232 60.0001 221.255 60 208C60 205.195 60.4827 202.503 61.3672 200H44V192L43.3809 191.993C30.4122 191.664 20.0001 181.048 20 168C20 154.746 30.7452 144 44 144C52.6003 144 60.1423 148.525 64.3799 155.323L119.822 120.836Z" fill="url(#paint28_radial_7159_2151)"/>
<path d="M119.822 120.836C120.429 120.46 121.169 121.063 120.922 121.733L96.5938 187.568C103.438 191.796 108 199.365 108 208C108 221.255 97.2548 232 84 232C70.7452 232 60.0001 221.255 60 208C60 205.195 60.4827 202.503 61.3672 200H44V192L43.3809 191.993C30.4122 191.664 20.0001 181.048 20 168C20 154.746 30.7452 144 44 144C52.6003 144 60.1423 148.525 64.3799 155.323L119.822 120.836Z" fill="url(#paint29_radial_7159_2151)"/>
<path d="M119.822 120.836C120.429 120.46 121.169 121.063 120.922 121.733L96.5938 187.568C103.438 191.796 108 199.365 108 208C108 221.255 97.2548 232 84 232C70.7452 232 60.0001 221.255 60 208C60 205.195 60.4827 202.503 61.3672 200H44V192L43.3809 191.993C30.4122 191.664 20.0001 181.048 20 168C20 154.746 30.7452 144 44 144C52.6003 144 60.1423 148.525 64.3799 155.323L119.822 120.836Z" fill="url(#paint30_radial_7159_2151)"/>
<path d="M44 192C57.2548 192 68 181.255 68 168C68 154.745 57.2548 144 44 144C30.7452 144 20 154.745 20 168C20 181.255 30.7452 192 44 192Z" fill="url(#paint31_radial_7159_2151)"/>
<path d="M84 232C97.2548 232 108 221.255 108 208C108 194.745 97.2548 184 84 184C70.7452 184 60 194.745 60 208C60 221.255 70.7452 232 84 232Z" fill="url(#paint32_radial_7159_2151)"/>
<path d="M56 232C75.8822 232 92 215.882 92 196C92 176.118 75.8822 160 56 160C36.1178 160 20 176.118 20 196C20 215.882 36.1178 232 56 232Z" fill="url(#paint33_radial_7159_2151)"/>
<path d="M56 232C75.8822 232 92 215.882 92 196C92 176.118 75.8822 160 56 160C36.1178 160 20 176.118 20 196C20 215.882 36.1178 232 56 232Z" fill="url(#paint34_radial_7159_2151)"/>
<path d="M56 232C75.8822 232 92 215.882 92 196C92 176.118 75.8822 160 56 160C36.1178 160 20 176.118 20 196C20 215.882 36.1178 232 56 232Z" fill="url(#paint35_radial_7159_2151)"/>
<path d="M144.182 120.836C143.576 120.459 142.835 121.063 143.083 121.733L167.411 187.568C160.566 191.795 156.003 199.365 156.003 208C156.003 221.255 166.749 232 180.003 232C193.258 232 204.003 221.255 204.003 208C204.003 205.195 203.521 202.503 202.636 200H220.003V192L220.624 191.993C233.592 191.664 244.003 181.048 244.003 168C244.003 154.746 233.258 144 220.003 144C211.403 144.001 203.861 148.525 199.624 155.323L144.182 120.836Z" fill="url(#paint36_linear_7159_2151)"/>
<path d="M220.004 192C233.259 192 244.004 181.255 244.004 168C244.004 154.745 233.259 144 220.004 144C206.749 144 196.004 154.745 196.004 168C196.004 181.255 206.749 192 220.004 192Z" fill="url(#paint37_radial_7159_2151)"/>
<path d="M180.004 232C193.259 232 204.004 221.255 204.004 208C204.004 194.745 193.259 184 180.004 184C166.749 184 156.004 194.745 156.004 208C156.004 221.255 166.749 232 180.004 232Z" fill="url(#paint38_radial_7159_2151)"/>
<path d="M208.004 232C227.886 232 244.004 215.882 244.004 196C244.004 176.118 227.886 160 208.004 160C188.122 160 172.004 176.118 172.004 196C172.004 215.882 188.122 232 208.004 232Z" fill="url(#paint39_radial_7159_2151)"/>
<path d="M208.004 232C227.886 232 244.004 215.882 244.004 196C244.004 176.118 227.886 160 208.004 160C188.122 160 172.004 176.118 172.004 196C172.004 215.882 188.122 232 208.004 232Z" fill="url(#paint40_radial_7159_2151)"/>
<path d="M208.004 232C227.886 232 244.004 215.882 244.004 196C244.004 176.118 227.886 160 208.004 160C188.122 160 172.004 176.118 172.004 196C172.004 215.882 188.122 232 208.004 232Z" fill="url(#paint41_radial_7159_2151)"/>
</g>
<defs>
<radialGradient id="paint0_radial_7159_2151" cx="0" cy="0" r="1" gradientUnits="userSpaceOnUse" gradientTransform="translate(208 72) rotate(131.878) scale(311.589)">
<stop stop-color="#FFF478"/>
<stop offset="0.474827" stop-color="#FFB02E"/>
<stop offset="1" stop-color="#F70A8D"/>
</radialGradient>
<radialGradient id="paint1_radial_7159_2151" cx="0" cy="0" r="1" gradientUnits="userSpaceOnUse" gradientTransform="translate(132 100) rotate(101.31) scale(142.773 182.864)">
<stop offset="0.787821" stop-color="#F59639" stop-opacity="0"/>
<stop offset="0.972509" stop-color="#FF7DCE"/>
</radialGradient>
<radialGradient id="paint2_radial_7159_2151" cx="0" cy="0" r="1" gradientUnits="userSpaceOnUse" gradientTransform="translate(148 112) rotate(135) scale(328.098)">
<stop offset="0.314853" stop-opacity="0"/>
<stop offset="1"/>
</radialGradient>
<radialGradient id="paint3_radial_7159_2151" cx="0" cy="0" r="1" gradientUnits="userSpaceOnUse" gradientTransform="translate(132 136) rotate(77.692) scale(225.175)">
<stop offset="0.507903" stop-color="#7D6133" stop-opacity="0"/>
<stop offset="1" stop-color="#715B32"/>
</radialGradient>
<radialGradient id="paint4_radial_7159_2151" cx="0" cy="0" r="1" gradientUnits="userSpaceOnUse" gradientTransform="translate(136 132) rotate(55.7131) scale(106.508 77.2025)">
<stop stop-color="#FFB849"/>
<stop offset="1" stop-color="#FFB847" stop-opacity="0"/>
</radialGradient>
<radialGradient id="paint5_radial_7159_2151" cx="0" cy="0" r="1" gradientUnits="userSpaceOnUse" gradientTransform="translate(168 144) rotate(9.86581) scale(93.3809)">
<stop stop-color="#FFA64B"/>
<stop offset="0.900412" stop-color="#FFAE46" stop-opacity="0"/>
</radialGradient>
<radialGradient id="paint6_radial_7159_2151" cx="0" cy="0" r="1" gradientUnits="userSpaceOnUse" gradientTransform="translate(144 120) rotate(43.9708) scale(472.424)">
<stop offset="0.185425" stop-opacity="0"/>
<stop offset="1" stop-opacity="0.4"/>
</radialGradient>
<radialGradient id="paint7_radial_7159_2151" cx="0" cy="0" r="1" gradientUnits="userSpaceOnUse" gradientTransform="translate(156.464 99.3277) rotate(114.444) scale(9.44548 16.1091)">
<stop offset="0.201211" stop-color="#F4B158"/>
<stop offset="1" stop-color="#F4B158" stop-opacity="0"/>
</radialGradient>
<radialGradient id="paint8_radial_7159_2151" cx="0" cy="0" r="1" gradientUnits="userSpaceOnUse" gradientTransform="translate(178.56 106.557) rotate(88.1817) scale(9.60099 16.3743)">
<stop offset="0.0760139" stop-color="#F4B158"/>
<stop offset="1" stop-color="#F4B158" stop-opacity="0"/>
</radialGradient>
<radialGradient id="paint9_radial_7159_2151" cx="0" cy="0" r="1" gradientUnits="userSpaceOnUse" gradientTransform="translate(67.0554 98.6752) rotate(65.5664) scale(20.5925 17.57)">
<stop stop-color="#CE7C25"/>
<stop offset="0.394186" stop-color="#CE7C25" stop-opacity="0.56"/>
<stop offset="0.764134" stop-color="#CE7C25" stop-opacity="0.107129"/>
<stop offset="0.975834" stop-color="#CE7C25" stop-opacity="0"/>
</radialGradient>
<radialGradient id="paint10_radial_7159_2151" cx="0" cy="0" r="1" gradientUnits="userSpaceOnUse" gradientTransform="translate(105.845 92.7956) rotate(84.6107) scale(13.657)">
<stop stop-color="#CE7C25"/>
<stop offset="0.566211" stop-color="#CE7C25" stop-opacity="0.320011"/>
<stop offset="0.825281" stop-color="#CE7C25" stop-opacity="0.107129"/>
<stop offset="1" stop-color="#CE7C25" stop-opacity="0"/>
</radialGradient>
<radialGradient id="paint11_radial_7159_2151" cx="0" cy="0" r="1" gradientUnits="userSpaceOnUse" gradientTransform="translate(100.458 97.9264) rotate(111.615) scale(14.6251)">
<stop stop-color="#CE7C25"/>
<stop offset="0.566211" stop-color="#CE7C25" stop-opacity="0.320011"/>
<stop offset="0.825281" stop-color="#CE7C25" stop-opacity="0.107129"/>
<stop offset="1" stop-color="#CE7C25" stop-opacity="0"/>
</radialGradient>
<radialGradient id="paint12_radial_7159_2151" cx="0" cy="0" r="1" gradientUnits="userSpaceOnUse" gradientTransform="translate(89.1699 101.775) rotate(43.6981) scale(15.9675)">
<stop stop-color="#CE7C25"/>
<stop offset="0.566211" stop-color="#CE7C25" stop-opacity="0.320011"/>
<stop offset="0.825281" stop-color="#CE7C25" stop-opacity="0.107129"/>
<stop offset="1" stop-color="#CE7C25" stop-opacity="0"/>
</radialGradient>
<radialGradient id="paint13_radial_7159_2151" cx="0" cy="0" r="1" gradientUnits="userSpaceOnUse" gradientTransform="translate(79.547 101.643) rotate(55.0034) scale(15.7106)">
<stop stop-color="#CE7C25"/>
<stop offset="0.566211" stop-color="#CE7C25" stop-opacity="0.320011"/>
<stop offset="0.825281" stop-color="#CE7C25" stop-opacity="0.107129"/>
<stop offset="1" stop-color="#CE7C25" stop-opacity="0"/>
</radialGradient>
<radialGradient id="paint14_radial_7159_2151" cx="0" cy="0" r="1" gradientUnits="userSpaceOnUse" gradientTransform="translate(154.281 59.7258) rotate(30.4258) scale(11.2997 12.5658)">
<stop stop-color="#D49A25" stop-opacity="0.38"/>
<stop offset="0.545885" stop-color="#D49A25" stop-opacity="0.26"/>
<stop offset="1" stop-color="#D49A25" stop-opacity="0"/>
</radialGradient>
<radialGradient id="paint15_radial_7159_2151" cx="0" cy="0" r="1" gradientUnits="userSpaceOnUse" gradientTransform="translate(161.131 51.1235) rotate(42.1661) scale(11.4551 13.9101)">
<stop stop-color="#D49A25" stop-opacity="0.52"/>
<stop offset="0.155366" stop-color="#D49A25" stop-opacity="0.368665"/>
<stop offset="0.496017" stop-color="#D49A25" stop-opacity="0.269753"/>
<stop offset="0.64878" stop-color="#D49A25" stop-opacity="0.17"/>
<stop offset="1" stop-color="#D49A25" stop-opacity="0"/>
</radialGradient>
<radialGradient id="paint16_radial_7159_2151" cx="0" cy="0" r="1" gradientUnits="userSpaceOnUse" gradientTransform="translate(179.806 49.6912) rotate(78.158) scale(8.90554 14.2444)">
<stop stop-color="#D49A25" stop-opacity="0.62"/>
<stop stop-color="#D49A25" stop-opacity="0.368665"/>
<stop offset="1" stop-color="#D49A25" stop-opacity="0"/>
</radialGradient>
<radialGradient id="paint17_radial_7159_2151" cx="0" cy="0" r="1" gradientUnits="userSpaceOnUse" gradientTransform="translate(168.794 46.9121) rotate(72.613) scale(9.38217 16.9514)">
<stop stop-color="#D49A25" stop-opacity="0.03"/>
<stop offset="0.451429" stop-color="#D49A25" stop-opacity="0.21"/>
<stop offset="1" stop-color="#D49A25" stop-opacity="0"/>
</radialGradient>
<radialGradient id="paint18_radial_7159_2151" cx="0" cy="0" r="1" gradientUnits="userSpaceOnUse" gradientTransform="translate(108.062 59.1938) rotate(151.618) scale(13.183)">
<stop stop-color="#AA7013" stop-opacity="0.38"/>
<stop offset="0.332164" stop-color="#AA7013" stop-opacity="0.21"/>
<stop offset="0.830568" stop-color="#AA7013" stop-opacity="0"/>
</radialGradient>
<radialGradient id="paint19_radial_7159_2151" cx="0" cy="0" r="1" gradientUnits="userSpaceOnUse" gradientTransform="translate(101.599 50.2763) rotate(97.6696) scale(10.5008 15.8808)">
<stop stop-color="#AA7013" stop-opacity="0.2"/>
<stop offset="0.0131026" stop-color="#AA7013" stop-opacity="0.5"/>
<stop offset="0.225374" stop-color="#AA7013" stop-opacity="0.284251"/>
<stop offset="0.574937" stop-color="#AA7013" stop-opacity="0.119276"/>
<stop offset="1" stop-color="#AA7013" stop-opacity="0"/>
</radialGradient>
<radialGradient id="paint20_radial_7159_2151" cx="0" cy="0" r="1" gradientUnits="userSpaceOnUse" gradientTransform="translate(91.0285 47.6011) rotate(82.8186) scale(9.95269 16.8461)">
<stop stop-color="#AA7013" stop-opacity="0.34"/>
<stop offset="0.479082" stop-color="#AA7013" stop-opacity="0.16"/>
<stop offset="1" stop-color="#AA7013" stop-opacity="0"/>
</radialGradient>
<radialGradient id="paint21_radial_7159_2151" cx="0" cy="0" r="1" gradientUnits="userSpaceOnUse" gradientTransform="translate(81.2038 49.2334) rotate(44.8554) scale(11.5456)">
<stop stop-color="#AA7013" stop-opacity="0.35"/>
<stop offset="0.442228" stop-color="#AA7013" stop-opacity="0.184651"/>
<stop offset="1" stop-color="#AA7013" stop-opacity="0"/>
</radialGradient>
<linearGradient id="paint22_linear_7159_2151" x1="132" y1="143.41" x2="132" y2="159.91" gradientUnits="userSpaceOnUse">
<stop stop-color="#4F3C43"/>
<stop offset="1" stop-color="#512756"/>
</linearGradient>
<radialGradient id="paint23_radial_7159_2151" cx="0" cy="0" r="1" gradientUnits="userSpaceOnUse" gradientTransform="translate(87.9999 79.9999) rotate(90) scale(28 38.3968)">
<stop stop-color="#52383E"/>
<stop offset="0.651042" stop-color="#5C4553"/>
<stop offset="1" stop-color="#432A35"/>
</radialGradient>
<linearGradient id="paint24_linear_7159_2151" x1="176" y1="83.9999" x2="172.305" y2="103.292" gradientUnits="userSpaceOnUse">
<stop stop-color="#52383E"/>
<stop offset="1" stop-color="#432A35"/>
</linearGradient>
<radialGradient id="paint25_radial_7159_2151" cx="0" cy="0" r="1" gradientUnits="userSpaceOnUse" gradientTransform="translate(96 56.0003) rotate(-63.435) scale(17.8885 26.8235)">
<stop stop-color="#301E26"/>
<stop offset="1" stop-color="#52383E"/>
</radialGradient>
<radialGradient id="paint26_radial_7159_2151" cx="0" cy="0" r="1" gradientUnits="userSpaceOnUse" gradientTransform="translate(168 56.0003) rotate(-116.565) scale(17.8885 26.8235)">
<stop stop-color="#301E26"/>
<stop offset="1" stop-color="#52383E"/>
</radialGradient>
<radialGradient id="paint27_radial_7159_2151" cx="0" cy="0" r="1" gradientTransform="matrix(44.7356 68.4774 -132.543 89.6159 63.6101 172.083)" gradientUnits="userSpaceOnUse">
<stop offset="0.336345" stop-color="#FEF4FF"/>
<stop offset="1" stop-color="#F8B1FF"/>
</radialGradient>
<radialGradient id="paint28_radial_7159_2151" cx="0" cy="0" r="1" gradientTransform="matrix(9.17363 12.6265 -36.1431 27.1774 87.8917 133.563)" gradientUnits="userSpaceOnUse">
<stop offset="0.131229" stop-color="#C8BEC3" stop-opacity="0.93"/>
<stop offset="0.658446" stop-color="#C8BEC3" stop-opacity="0.239583"/>
<stop offset="0.796875" stop-color="#C8BEC3" stop-opacity="0.0876813"/>
<stop offset="1" stop-color="#C8BEC3" stop-opacity="0"/>
</radialGradient>
<radialGradient id="paint29_radial_7159_2151" cx="0" cy="0" r="1" gradientTransform="matrix(1.30396 19.38 -44.3621 3.08921 110.331 121.32)" gradientUnits="userSpaceOnUse">
<stop stop-color="#C8BEC3" stop-opacity="0.87"/>
<stop offset="0.718696" stop-color="#C8BEC3" stop-opacity="0.239583"/>
<stop offset="1" stop-color="#C8BEC3" stop-opacity="0"/>
</radialGradient>
<radialGradient id="paint30_radial_7159_2151" cx="0" cy="0" r="1" gradientTransform="matrix(-3.65232 6.79059 -20.2716 -11.2843 56.1113 140.154)" gradientUnits="userSpaceOnUse">
<stop stop-color="#C8BEC3"/>
<stop offset="0.662069" stop-color="#C8BEC3" stop-opacity="0.239583"/>
<stop offset="1" stop-color="#C8BEC3" stop-opacity="0"/>
</radialGradient>
<radialGradient id="paint31_radial_7159_2151" cx="0" cy="0" r="1" gradientUnits="userSpaceOnUse" gradientTransform="translate(60 156) rotate(139.399) scale(36.8782)">
<stop stop-color="#EEEAF9" stop-opacity="0"/>
<stop offset="0.910262" stop-color="#C39ED9"/>
</radialGradient>
<radialGradient id="paint32_radial_7159_2151" cx="0" cy="0" r="1" gradientUnits="userSpaceOnUse" gradientTransform="translate(100 196) rotate(95.1944) scale(44.1814)">
<stop stop-color="#FAE8FF" stop-opacity="0"/>
<stop offset="0.910262" stop-color="#EC94FF"/>
</radialGradient>
<radialGradient id="paint33_radial_7159_2151" cx="0" cy="0" r="1" gradientUnits="userSpaceOnUse" gradientTransform="translate(80 176) rotate(135) scale(90.5097)">
<stop offset="0.15664" stop-color="#FFF6FF"/>
<stop offset="0.741349" stop-color="#E88DFF"/>
</radialGradient>
<radialGradient id="paint34_radial_7159_2151" cx="0" cy="0" r="1" gradientUnits="userSpaceOnUse" gradientTransform="translate(91.9985 197.15) rotate(-178.196) scale(72.6913 54.8573)">
<stop offset="0.356643" stop-color="#BFA2E0" stop-opacity="0"/>
<stop offset="0.689714" stop-color="#BFA2E0" stop-opacity="0.2"/>
<stop offset="0.81985" stop-color="#BFA2E0" stop-opacity="0.41"/>
<stop offset="1" stop-color="#BFA2E0"/>
</radialGradient>
<radialGradient id="paint35_radial_7159_2151" cx="0" cy="0" r="1" gradientUnits="userSpaceOnUse" gradientTransform="translate(75.6027 222.93) rotate(-107.571) scale(69.18 52.2074)">
<stop offset="0.624338" stop-color="#BFA2E0" stop-opacity="0"/>
<stop offset="0.754395" stop-color="#BFA2E0" stop-opacity="0.2"/>
<stop offset="0.833746" stop-color="#BFA2E0" stop-opacity="0.41"/>
<stop offset="1" stop-color="#BFA2E0"/>
</radialGradient>
<linearGradient id="paint36_linear_7159_2151" x1="214.552" y1="146.404" x2="171.627" y2="197.037" gradientUnits="userSpaceOnUse">
<stop stop-color="#FFF8FF"/>
<stop offset="0.455337" stop-color="#D0C1DB"/>
<stop offset="0.873798" stop-color="#C28EEC"/>
</linearGradient>
<radialGradient id="paint37_radial_7159_2151" cx="0" cy="0" r="1" gradientUnits="userSpaceOnUse" gradientTransform="translate(236.004 156) rotate(135.003) scale(45.2576)">
<stop stop-color="#EEEAF9" stop-opacity="0"/>
<stop offset="0.910262" stop-color="#C39ED9"/>
</radialGradient>
<radialGradient id="paint38_radial_7159_2151" cx="0" cy="0" r="1" gradientUnits="userSpaceOnUse" gradientTransform="translate(172 188) rotate(108.435) scale(50.5964)">
<stop stop-color="#C38EEC"/>
<stop offset="0.910262" stop-color="#EC94FF"/>
</radialGradient>
<radialGradient id="paint39_radial_7159_2151" cx="0" cy="0" r="1" gradientUnits="userSpaceOnUse" gradientTransform="translate(232.004 176) rotate(135) scale(90.5097)">
<stop offset="0.15664" stop-color="#FFF6FF"/>
<stop offset="0.741349" stop-color="#E88DFF"/>
</radialGradient>
<radialGradient id="paint40_radial_7159_2151" cx="0" cy="0" r="1" gradientUnits="userSpaceOnUse" gradientTransform="translate(240.886 197.003) rotate(-177.546) scale(69.98 74.2728)">
<stop offset="0.395181" stop-color="#BFA2E0" stop-opacity="0"/>
<stop offset="0.656796" stop-color="#BFA2E0" stop-opacity="0.112447"/>
<stop offset="0.790884" stop-color="#BFA2E0" stop-opacity="0.367954"/>
<stop offset="1" stop-color="#BFA2E0" stop-opacity="0.8"/>
</radialGradient>
<radialGradient id="paint41_radial_7159_2151" cx="0" cy="0" r="1" gradientUnits="userSpaceOnUse" gradientTransform="translate(219.58 225.319) rotate(-105.689) scale(71.9358 76.3486)">
<stop offset="0.524535" stop-color="#BFA2E0" stop-opacity="0"/>
<stop offset="0.702451" stop-color="#BFA2E0" stop-opacity="0.112447"/>
<stop offset="0.836533" stop-color="#BFA2E0" stop-opacity="0.367954"/>
<stop offset="1" stop-color="#BFA2E0" stop-opacity="0.8"/>
</radialGradient>
<clipPath id="clip0_7159_2151">
<rect width="256" height="256" fill="white"/>
</clipPath>
</defs>
</svg>
