<svg width="256" height="256" viewBox="0 0 256 256" fill="none" xmlns="http://www.w3.org/2000/svg">
<path d="M256 128C256 57.3003 198.7 0 128 0C57.3003 0 0 57.3003 0 128C0 191.9 46.8 244.85 108 254.45V165H75.4997V128H108V99.8C108 67.7248 127.1 50 156.35 50C170.35 50 185 52.5 185 52.5V84H168.85C152.95 84 148 93.8752 148 104V128H183.5L177.825 165H148V254.45C209.2 244.85 256 191.9 256 128Z" fill="#1877F2"/>
<path d="M177.825 165L183.5 128H148V104C148 93.8752 152.95 84 168.85 84H185V52.5C185 52.5 170.35 50 156.35 50C127.1 50 108 67.7248 108 99.8V128H75.4998V165H108V254.45C114.525 255.475 121.2 256 128 256C134.8 256 141.475 255.475 148 254.45V165H177.825Z" fill="white"/>
</svg>
