<svg width="256" height="256" viewBox="0 0 256 256" fill="none" xmlns="http://www.w3.org/2000/svg">
<path d="M127.991 239.982C202.667 239.982 239.982 189.842 239.982 127.991C239.982 66.1401 202.667 16 127.991 16C53.3155 16 16 66.1401 16 127.991C16 189.842 53.3155 239.982 127.991 239.982Z" fill="url(#paint0_radial_7159_2144)"/>
<path d="M127.991 239.982C202.667 239.982 239.982 189.842 239.982 127.991C239.982 66.1401 202.667 16 127.991 16C53.3155 16 16 66.1401 16 127.991C16 189.842 53.3155 239.982 127.991 239.982Z" fill="url(#paint1_radial_7159_2144)"/>
<path d="M127.991 239.982C202.667 239.982 239.982 189.842 239.982 127.991C239.982 66.1401 202.667 16 127.991 16C53.3155 16 16 66.1401 16 127.991C16 189.842 53.3155 239.982 127.991 239.982Z" fill="url(#paint2_radial_7159_2144)" fill-opacity="0.6"/>
<path d="M127.991 239.982C202.667 239.982 239.982 189.842 239.982 127.991C239.982 66.1401 202.667 16 127.991 16C53.3155 16 16 66.1401 16 127.991C16 189.842 53.3155 239.982 127.991 239.982Z" fill="url(#paint3_radial_7159_2144)"/>
<path d="M127.991 239.982C202.667 239.982 239.982 189.842 239.982 127.991C239.982 66.1401 202.667 16 127.991 16C53.3155 16 16 66.1401 16 127.991C16 189.842 53.3155 239.982 127.991 239.982Z" fill="url(#paint4_radial_7159_2144)"/>
<path d="M127.991 239.982C202.667 239.982 239.982 189.842 239.982 127.991C239.982 66.1401 202.667 16 127.991 16C53.3155 16 16 66.1401 16 127.991C16 189.842 53.3155 239.982 127.991 239.982Z" fill="url(#paint5_radial_7159_2144)"/>
<path d="M127.991 239.982C202.667 239.982 239.982 189.842 239.982 127.991C239.982 66.1401 202.667 16 127.991 16C53.3155 16 16 66.1401 16 127.991C16 189.842 53.3155 239.982 127.991 239.982Z" fill="url(#paint6_radial_7159_2144)"/>
<path d="M127.991 239.982C202.667 239.982 239.982 189.842 239.982 127.991C239.982 66.1401 202.667 16 127.991 16C53.3155 16 16 66.1401 16 127.991C16 189.842 53.3155 239.982 127.991 239.982Z" fill="url(#paint7_radial_7159_2144)"/>
<path d="M127.991 239.982C202.667 239.982 239.982 189.842 239.982 127.991C239.982 66.1401 202.667 16 127.991 16C53.3155 16 16 66.1401 16 127.991C16 189.842 53.3155 239.982 127.991 239.982Z" fill="url(#paint8_radial_7159_2144)"/>
<path d="M127.991 239.982C202.667 239.982 239.982 189.842 239.982 127.991C239.982 66.1401 202.667 16 127.991 16C53.3155 16 16 66.1401 16 127.991C16 189.842 53.3155 239.982 127.991 239.982Z" fill="url(#paint9_radial_7159_2144)"/>
<path d="M127.991 239.982C202.667 239.982 239.982 189.842 239.982 127.991C239.982 66.1401 202.667 16 127.991 16C53.3155 16 16 66.1401 16 127.991C16 189.842 53.3155 239.982 127.991 239.982Z" fill="url(#paint10_radial_7159_2144)"/>
<path d="M127.991 239.982C202.667 239.982 239.982 189.842 239.982 127.991C239.982 66.1401 202.667 16 127.991 16C53.3155 16 16 66.1401 16 127.991C16 189.842 53.3155 239.982 127.991 239.982Z" fill="url(#paint11_radial_7159_2144)"/>
<path d="M127.991 239.982C202.667 239.982 239.982 189.842 239.982 127.991C239.982 66.1401 202.667 16 127.991 16C53.3155 16 16 66.1401 16 127.991C16 189.842 53.3155 239.982 127.991 239.982Z" fill="url(#paint12_radial_7159_2144)"/>
<path d="M127.991 239.982C202.667 239.982 239.982 189.842 239.982 127.991C239.982 66.1401 202.667 16 127.991 16C53.3155 16 16 66.1401 16 127.991C16 189.842 53.3155 239.982 127.991 239.982Z" fill="url(#paint13_radial_7159_2144)"/>
<path d="M127.991 239.982C202.667 239.982 239.982 189.842 239.982 127.991C239.982 66.1401 202.667 16 127.991 16C53.3155 16 16 66.1401 16 127.991C16 189.842 53.3155 239.982 127.991 239.982Z" fill="url(#paint14_radial_7159_2144)"/>
<path d="M127.991 239.982C202.667 239.982 239.982 189.842 239.982 127.991C239.982 66.1401 202.667 16 127.991 16C53.3155 16 16 66.1401 16 127.991C16 189.842 53.3155 239.982 127.991 239.982Z" fill="url(#paint15_radial_7159_2144)"/>
<path d="M127.991 239.982C202.667 239.982 239.982 189.842 239.982 127.991C239.982 66.1401 202.667 16 127.991 16C53.3155 16 16 66.1401 16 127.991C16 189.842 53.3155 239.982 127.991 239.982Z" fill="url(#paint16_radial_7159_2144)"/>
<path d="M127.991 239.982C202.667 239.982 239.982 189.842 239.982 127.991C239.982 66.1401 202.667 16 127.991 16C53.3155 16 16 66.1401 16 127.991C16 189.842 53.3155 239.982 127.991 239.982Z" fill="url(#paint17_radial_7159_2144)"/>
<path fill-rule="evenodd" clip-rule="evenodd" d="M182.175 84.519C180.507 82.2825 177.741 79.9604 172.311 80.0005C166.816 80.0411 164.087 82.3915 162.484 84.5699C161.598 85.7737 161.016 87.0127 160.66 87.9597C160.486 88.4228 160.378 88.7862 160.32 88.9984C160.295 89.093 160.28 89.1551 160.274 89.1797C159.39 93.4653 155.22 96.2525 150.913 95.4156C146.576 94.5727 143.743 90.3735 144.586 86.0364C144.881 84.7995 144.881 84.7995 144.881 84.7995C145.053 84.167 145.311 83.3233 145.681 82.3372C146.413 80.3857 147.632 77.7576 149.597 75.0865C153.697 69.5151 160.874 64.0846 172.192 64.001C183.575 63.9168 190.84 69.376 195 74.9518C196.997 77.6288 198.249 80.2708 199.006 82.2312C199.389 83.2221 199.657 84.07 199.837 84.7046C200.902 88.4554 199.389 94.2672 193.937 95.3969C189.639 96.2873 185.433 93.5493 184.499 89.2719C184.492 89.2464 184.475 89.1786 184.446 89.0743C184.382 88.8515 184.266 88.4748 184.081 87.997C183.704 87.0201 183.092 85.7481 182.175 84.519Z" fill="url(#paint18_radial_7159_2144)"/>
<path fill-rule="evenodd" clip-rule="evenodd" d="M93.9252 84.519C92.2567 82.2825 89.4908 79.9604 84.0606 80.0005C78.5664 80.0411 75.837 82.3915 74.2339 84.5699C73.348 85.7737 72.7657 87.0127 72.4102 87.9597C72.2364 88.4228 72.1281 88.7862 72.0703 88.9984C72.0446 89.093 72.0296 89.1551 72.0238 89.1797C71.1403 93.4653 66.9696 96.2525 62.6629 95.4156C58.3257 94.5727 55.4931 90.3735 56.3359 86.0364C56.6311 84.7995 56.6311 84.7995 56.6311 84.7995C56.8032 84.167 57.0605 83.3233 57.4306 82.3372C58.1631 80.3857 59.3816 77.7576 61.3472 75.0865C65.4473 69.5151 72.6241 64.0846 83.9424 64.001C95.3247 63.9168 102.59 69.376 106.75 74.9518C108.747 77.6288 109.999 80.2708 110.756 82.2312C111.139 83.2221 111.407 84.07 111.587 84.7046C112.652 88.4554 111.139 94.2672 105.687 95.3969C101.389 96.2873 97.1827 93.5493 96.2486 89.2719C96.2423 89.2464 96.2253 89.1786 96.1956 89.0743C96.1324 88.8515 96.0156 88.4748 95.831 87.997C95.4536 87.0201 94.8421 85.7481 93.9252 84.519Z" fill="url(#paint19_radial_7159_2144)"/>
<path d="M128 200C56 200 56 128 56 128H200C200 128 200 200 128 200Z" fill="url(#paint20_radial_7159_2144)"/>
<path d="M56 140V128H200V140H56Z" fill="url(#paint21_linear_7159_2144)"/>
<path d="M56 140V128H200V140H56Z" fill="url(#paint22_linear_7159_2144)"/>
<path d="M64 136L37.0416 162.958C30.0211 169.979 18.4997 169.5 12.0865 161.92C6.38529 155.183 6.80053 145.199 13.0416 138.958L40 112C46.6274 105.373 57.3726 105.373 64 112C70.6274 118.627 70.6274 129.373 64 136Z" fill="url(#paint23_radial_7159_2144)"/>
<path d="M64 136L37.0416 162.958C30.0211 169.979 18.4997 169.5 12.0865 161.92C6.38529 155.183 6.80053 145.199 13.0416 138.958L40 112C46.6274 105.373 57.3726 105.373 64 112C70.6274 118.627 70.6274 129.373 64 136Z" fill="url(#paint24_radial_7159_2144)"/>
<path d="M64 136L37.0416 162.958C30.0211 169.979 18.4997 169.5 12.0865 161.92C6.38529 155.183 6.80053 145.199 13.0416 138.958L40 112C46.6274 105.373 57.3726 105.373 64 112C70.6274 118.627 70.6274 129.373 64 136Z" fill="url(#paint25_radial_7159_2144)"/>
<path d="M194 136L220.958 162.958C227.979 169.979 239.5 169.5 245.913 161.92C251.615 155.183 251.199 145.199 244.958 138.958L218 112C211.373 105.373 200.627 105.373 194 112C187.373 118.627 187.373 129.373 194 136Z" fill="url(#paint26_radial_7159_2144)"/>
<defs>
<radialGradient id="paint0_radial_7159_2144" cx="0" cy="0" r="1" gradientUnits="userSpaceOnUse" gradientTransform="translate(204 72) rotate(131.878) scale(311.589)">
<stop stop-color="#FFF478"/>
<stop offset="0.474827" stop-color="#FFB02E"/>
<stop offset="1" stop-color="#F70A8D"/>
</radialGradient>
<radialGradient id="paint1_radial_7159_2144" cx="0" cy="0" r="1" gradientUnits="userSpaceOnUse" gradientTransform="translate(128 100) rotate(101.31) scale(142.773 182.864)">
<stop offset="0.787821" stop-color="#F59639" stop-opacity="0"/>
<stop offset="0.972509" stop-color="#FF7DCE"/>
</radialGradient>
<radialGradient id="paint2_radial_7159_2144" cx="0" cy="0" r="1" gradientUnits="userSpaceOnUse" gradientTransform="translate(144 112) rotate(135) scale(328.098)">
<stop offset="0.314853" stop-opacity="0"/>
<stop offset="1"/>
</radialGradient>
<radialGradient id="paint3_radial_7159_2144" cx="0" cy="0" r="1" gradientUnits="userSpaceOnUse" gradientTransform="translate(128 136) rotate(77.692) scale(225.175)">
<stop offset="0.507903" stop-color="#7D6133" stop-opacity="0"/>
<stop offset="1" stop-color="#715B32"/>
</radialGradient>
<radialGradient id="paint4_radial_7159_2144" cx="0" cy="0" r="1" gradientUnits="userSpaceOnUse" gradientTransform="translate(132 132) rotate(55.7131) scale(106.508 77.2025)">
<stop stop-color="#FFB849"/>
<stop offset="1" stop-color="#FFB847" stop-opacity="0"/>
</radialGradient>
<radialGradient id="paint5_radial_7159_2144" cx="0" cy="0" r="1" gradientUnits="userSpaceOnUse" gradientTransform="translate(164 144) rotate(9.86581) scale(93.3809)">
<stop stop-color="#FFA64B"/>
<stop offset="0.900412" stop-color="#FFAE46" stop-opacity="0"/>
</radialGradient>
<radialGradient id="paint6_radial_7159_2144" cx="0" cy="0" r="1" gradientUnits="userSpaceOnUse" gradientTransform="translate(140 120) rotate(43.9708) scale(472.424)">
<stop offset="0.185425" stop-opacity="0"/>
<stop offset="1" stop-opacity="0.4"/>
</radialGradient>
<radialGradient id="paint7_radial_7159_2144" cx="0" cy="0" r="1" gradientUnits="userSpaceOnUse" gradientTransform="translate(74.4186 104.601) rotate(-10.3912) scale(56.5676 41.7492)">
<stop stop-color="#F1A227"/>
<stop offset="1" stop-color="#F5A72C" stop-opacity="0"/>
</radialGradient>
<radialGradient id="paint8_radial_7159_2144" cx="0" cy="0" r="1" gradientUnits="userSpaceOnUse" gradientTransform="translate(151.869 87.4251) rotate(103.681) scale(16.5207 12.1929)">
<stop stop-color="#E7982E"/>
<stop offset="1" stop-color="#E39632" stop-opacity="0"/>
</radialGradient>
<radialGradient id="paint9_radial_7159_2144" cx="0" cy="0" r="1" gradientUnits="userSpaceOnUse" gradientTransform="translate(186.921 90.8525) scale(11.0694)">
<stop stop-color="#D28118"/>
<stop offset="1" stop-color="#D68623" stop-opacity="0"/>
</radialGradient>
<radialGradient id="paint10_radial_7159_2144" cx="0" cy="0" r="1" gradientUnits="userSpaceOnUse" gradientTransform="translate(177.666 81.4875) rotate(45.9878) scale(17.9286 6.14256)">
<stop stop-color="#D28118"/>
<stop offset="1" stop-color="#D68623" stop-opacity="0"/>
</radialGradient>
<radialGradient id="paint11_radial_7159_2144" cx="0" cy="0" r="1" gradientUnits="userSpaceOnUse" gradientTransform="translate(167.285 78.4279) rotate(9.61849) scale(16.9315 6.95048)">
<stop stop-color="#D28118"/>
<stop offset="1" stop-color="#D68623" stop-opacity="0"/>
</radialGradient>
<radialGradient id="paint12_radial_7159_2144" cx="0" cy="0" r="1" gradientUnits="userSpaceOnUse" gradientTransform="translate(96.3798 82.1112) rotate(65.4048) scale(19.2959 9.67079)">
<stop stop-color="#BE7227"/>
<stop offset="1" stop-color="#C67A2A" stop-opacity="0"/>
</radialGradient>
<radialGradient id="paint13_radial_7159_2144" cx="0" cy="0" r="1" gradientUnits="userSpaceOnUse" gradientTransform="translate(87.0344 76.6112) rotate(29.8052) scale(15.1751 11.2114)">
<stop stop-color="#D07E2D"/>
<stop offset="1" stop-color="#D98833" stop-opacity="0"/>
</radialGradient>
<radialGradient id="paint14_radial_7159_2144" cx="0" cy="0" r="1" gradientUnits="userSpaceOnUse" gradientTransform="translate(78.1672 76.6112) rotate(-8.79514) scale(16.5583 12.6707)">
<stop stop-color="#D88431"/>
<stop offset="1" stop-color="#CF8231" stop-opacity="0"/>
</radialGradient>
<radialGradient id="paint15_radial_7159_2144" cx="0" cy="0" r="1" gradientUnits="userSpaceOnUse" gradientTransform="translate(61.5559 85.7329) rotate(-66.0375) scale(20.6841 14.1886)">
<stop stop-color="#DA8924"/>
<stop offset="1" stop-color="#DC8924" stop-opacity="0"/>
</radialGradient>
<radialGradient id="paint16_radial_7159_2144" cx="0" cy="0" r="1" gradientUnits="userSpaceOnUse" gradientTransform="translate(38.1144 162.848) rotate(-47.3974) scale(34.3564 26.2901)">
<stop stop-color="#DB7D2D"/>
<stop offset="1" stop-color="#DB7D2D" stop-opacity="0"/>
</radialGradient>
<radialGradient id="paint17_radial_7159_2144" cx="0" cy="0" r="1" gradientUnits="userSpaceOnUse" gradientTransform="translate(199.979 145.935) rotate(-126.703) scale(47.4177 28.6128)">
<stop offset="0.204689" stop-color="#DB7D2D"/>
<stop offset="1" stop-color="#FAAD43" stop-opacity="0"/>
</radialGradient>
<radialGradient id="paint18_radial_7159_2144" cx="0" cy="0" r="1" gradientUnits="userSpaceOnUse" gradientTransform="translate(172.297 86.6875) rotate(90) scale(25.5 34.4838)">
<stop offset="0.307692" stop-color="#452A3D"/>
<stop offset="0.626374" stop-color="#594052"/>
<stop offset="1" stop-color="#482C40"/>
</radialGradient>
<radialGradient id="paint19_radial_7159_2144" cx="0" cy="0" r="1" gradientUnits="userSpaceOnUse" gradientTransform="translate(84.0469 86.6875) rotate(90) scale(25.5 34.4838)">
<stop offset="0.307692" stop-color="#452A3D"/>
<stop offset="0.626374" stop-color="#594052"/>
<stop offset="1" stop-color="#482C40"/>
</radialGradient>
<radialGradient id="paint20_radial_7159_2144" cx="0" cy="0" r="1" gradientUnits="userSpaceOnUse" gradientTransform="translate(128 216) rotate(-90) scale(88 176)">
<stop stop-color="#F70A8D"/>
<stop offset="1" stop-color="#89029C"/>
</radialGradient>
<linearGradient id="paint21_linear_7159_2144" x1="128" y1="128" x2="128" y2="140" gradientUnits="userSpaceOnUse">
<stop stop-color="#ECCDFF"/>
<stop offset="1" stop-color="white"/>
</linearGradient>
<linearGradient id="paint22_linear_7159_2144" x1="196.738" y1="136.215" x2="170.992" y2="140" gradientUnits="userSpaceOnUse">
<stop stop-color="#E0A5FF"/>
<stop offset="1" stop-color="#E0A5FF" stop-opacity="0"/>
</linearGradient>
<radialGradient id="paint23_radial_7159_2144" cx="0" cy="0" r="1" gradientUnits="userSpaceOnUse" gradientTransform="translate(64 120) rotate(147.529) scale(52.1536 23.7451)">
<stop stop-color="#508FFF"/>
<stop offset="1" stop-color="#3D5BF1"/>
</radialGradient>
<radialGradient id="paint24_radial_7159_2144" cx="0" cy="0" r="1" gradientUnits="userSpaceOnUse" gradientTransform="translate(40.5091 144.233) rotate(137.675) scale(29.5179 14.1146)">
<stop stop-color="#4478FF"/>
<stop offset="1" stop-color="#4678FF" stop-opacity="0"/>
</radialGradient>
<radialGradient id="paint25_radial_7159_2144" cx="0" cy="0" r="1" gradientUnits="userSpaceOnUse" gradientTransform="translate(57.697 119.563) rotate(42.7094) scale(15.6216 8.19932)">
<stop stop-color="#5190FF"/>
<stop offset="1" stop-color="#5190FF" stop-opacity="0"/>
</radialGradient>
<radialGradient id="paint26_radial_7159_2144" cx="0" cy="0" r="1" gradientUnits="userSpaceOnUse" gradientTransform="translate(221.491 128.177) rotate(47.9273) scale(40.2627 19.1511)">
<stop stop-color="#5092FF"/>
<stop offset="1" stop-color="#3F5FFF"/>
</radialGradient>
</defs>
</svg>
