<svg width="32" height="32" viewBox="0 0 32 32" fill="none" xmlns="http://www.w3.org/2000/svg">
<path d="M10.8889 30.6665C13.589 30.6665 15.7778 28.4776 15.7778 25.7776V20.8887H10.8889C8.18884 20.8887 6 23.0775 6 25.7776C6 28.4776 8.18884 30.6665 10.8889 30.6665Z" fill="#0ACF83"/>
<path d="M6 16.0002C6 13.3002 8.18884 11.1113 10.8889 11.1113H15.7778V20.8891H10.8889C8.18884 20.8891 6 18.7003 6 16.0002Z" fill="#A259FF"/>
<path d="M6 6.2224C6 3.52233 8.18884 1.3335 10.8889 1.3335H15.7778V11.1113H10.8889C8.18884 11.1113 6 8.92246 6 6.2224Z" fill="#F25022"/>
<path d="M15.7778 1.3335H20.6667C23.3668 1.3335 25.5556 3.52233 25.5556 6.2224C25.5556 8.92246 23.3668 11.1113 20.6667 11.1113H15.7778V1.3335Z" fill="#FF7262"/>
<path d="M25.5556 16.0002C25.5556 18.7003 23.3668 20.8891 20.6667 20.8891C17.9667 20.8891 15.7778 18.7003 15.7778 16.0002C15.7778 13.3002 17.9667 11.1113 20.6667 11.1113C23.3668 11.1113 25.5556 13.3002 25.5556 16.0002Z" fill="#1ABCFE"/>
</svg>
