<svg width="256" height="256" viewBox="0 0 256 256" fill="none" xmlns="http://www.w3.org/2000/svg">
<path d="M87.1112 245.334C108.712 245.334 126.222 227.823 126.222 206.223V167.111H87.1112C65.5107 167.111 48 184.622 48 206.223C48 227.823 65.5107 245.334 87.1112 245.334Z" fill="#0ACF83"/>
<path d="M48 128C48 106.399 65.5107 88.8887 87.1112 88.8887H126.222V167.111H87.1112C65.5107 167.111 48 149.6 48 128Z" fill="#A259FF"/>
<path d="M48.0002 49.7782C48.0002 28.1777 65.5109 10.667 87.1115 10.667H126.223V88.8894H87.1115C65.5109 88.8894 48.0002 71.3787 48.0002 49.7782Z" fill="#F25022"/>
<path d="M126.223 10.667H165.334C186.935 10.667 204.445 28.1777 204.445 49.7782C204.445 71.3787 186.935 88.8894 165.334 88.8894H126.223V10.667Z" fill="#FF7262"/>
<path d="M204.445 128C204.445 149.6 186.935 167.111 165.334 167.111C143.734 167.111 126.223 149.6 126.223 128C126.223 106.399 143.734 88.8887 165.334 88.8887C186.935 88.8887 204.445 106.399 204.445 128Z" fill="#1ABCFE"/>
</svg>
