<svg width="32" height="32" viewBox="0 0 32 32" fill="none" xmlns="http://www.w3.org/2000/svg">
<path d="M16.3265 6.18667C19.3923 6.18667 21.4603 7.48445 22.6394 8.5689L27.2471 4.16C24.4172 1.58222 20.7347 0 16.3265 0C9.941 0 4.42626 3.59111 1.74146 8.81778L7.02037 12.8356C8.34463 8.97778 12.009 6.18667 16.3265 6.18667Z" fill="#F25022"/>
<path d="M32 16.3556C32 15.04 31.8912 14.08 31.6553 13.0845H16.3265V19.0223H25.3243C25.1429 20.4978 24.1633 22.72 21.9864 24.2134L27.1383 28.1245C30.2222 25.3334 32 21.2267 32 16.3556Z" fill="#4285F4"/>
<path d="M7.03855 19.1645C6.69388 18.169 6.49433 17.1023 6.49433 16.0001C6.49433 14.8979 6.69388 13.8312 7.02041 12.8357L1.7415 8.81787C0.634921 10.9868 0 13.4223 0 16.0001C0 18.5779 0.634921 21.0134 1.7415 23.1823L7.03855 19.1645Z" fill="#FBBC05"/>
<path d="M16.3265 32.0001C20.7346 32.0001 24.4353 30.5779 27.1383 28.1246L21.9863 24.2134C20.6077 25.1557 18.7573 25.8134 16.3265 25.8134C12.009 25.8134 8.34462 23.0223 7.03849 19.1646L1.75958 23.1823C4.44439 28.409 9.94099 32.0001 16.3265 32.0001Z" fill="#34A853"/>
</svg>
