<svg width="256" height="256" viewBox="0 0 256 256" fill="none" xmlns="http://www.w3.org/2000/svg">
<path d="M183.727 167.526C213.393 150.943 236.049 138.275 238.11 137.122C244.258 133.685 250.699 124.915 238.11 117.904C234.064 115.647 212.017 103.368 183.692 87.585L144.734 127.679L183.727 167.526Z" fill="#FFE300"/>
<path d="M144.732 127.679L20.129 255.912C22.9429 256.277 26.3273 255.516 30.2202 253.339C38.2796 248.834 124.831 200.447 183.727 167.521L144.732 127.679Z" fill="#FF4E54"/>
<path d="M144.732 127.679L183.69 87.5847C183.69 87.5847 38.889 6.8982 30.2203 2.06799C26.8882 0.210824 23.2554 -0.4373 20.0398 0.29407L144.732 127.679Z" fill="#00F085"/>
<path d="M144.732 127.679L20.0378 0.295898C14.8875 1.46926 10.6666 6.02198 10.6666 15.173V240.629C10.6666 249.247 13.987 255.308 20.1271 255.912L144.732 127.679Z" fill="#00E0FF"/>
</svg>
