<svg width="256" height="256" viewBox="0 0 256 256" fill="none" xmlns="http://www.w3.org/2000/svg">
<path d="M19.3538 207.979L30.6435 227.077C32.9894 231.097 36.3616 234.256 40.3204 236.554L80.6407 168.205H0C0 172.656 1.17296 177.108 3.51887 181.128L19.3538 207.979Z" fill="#0066DA"/>
<path d="M127.999 87.7931L87.6784 19.4443C83.7197 21.7418 80.3475 24.9007 78.0015 28.9213L3.51887 155.28C1.2161 159.214 0.003066 163.669 0 168.203H80.6407L127.999 87.7931Z" fill="#00AC47"/>
<path d="M215.68 236.554C219.638 234.256 223.011 231.097 225.357 227.077L230.048 219.179L252.481 181.128C254.827 177.108 256 172.656 256 168.205H175.354L192.514 201.231L215.68 236.554Z" fill="#EA4335"/>
<path d="M128 87.7949L168.32 19.4462C164.362 17.1487 159.816 16 155.125 16H100.875C96.1836 16 91.6384 17.2923 87.6797 19.4462L128 87.7949Z" fill="#00832D"/>
<path d="M175.357 168.205H80.6407L40.3203 236.554C44.279 238.851 48.8242 240 53.5161 240H202.481C207.173 240 211.718 238.708 215.677 236.554L175.357 168.205Z" fill="#2684FC"/>
<path d="M215.239 92.1007L177.997 28.9213C175.651 24.9007 172.279 21.7418 168.32 19.4443L128 87.7931L175.358 168.203H255.852C255.852 163.752 254.679 159.301 252.333 155.28L215.239 92.1007Z" fill="#FFBA00"/>
</svg>
