<svg width="32" height="32" viewBox="0 0 32 32" fill="none" xmlns="http://www.w3.org/2000/svg">
<path d="M2.41922 25.9977L3.83043 28.3849C4.12367 28.8874 4.5452 29.2823 5.04004 29.5695L10.0801 21.0259H0C0 21.5823 0.146619 22.1387 0.439858 22.6413L2.41922 25.9977Z" fill="#0066DA"/>
<path d="M15.9998 10.9743L10.9598 2.43066C10.465 2.71784 10.0434 3.11272 9.75019 3.61528L0.439858 19.4102C0.152012 19.9019 0.00038325 20.4587 0 21.0255H10.0801L15.9998 10.9743Z" fill="#00AC47"/>
<path d="M26.96 29.5695C27.4548 29.2823 27.8763 28.8874 28.1696 28.3849L28.7561 27.3977L31.5601 22.6413C31.8534 22.1387 32 21.5823 32 21.0259H21.9192L24.0642 25.1541L26.96 29.5695Z" fill="#EA4335"/>
<path d="M16 10.9744L21.04 2.43077C20.5452 2.14359 19.9771 2 19.3906 2H12.6094C12.023 2 11.4548 2.16154 10.96 2.43077L16 10.9744Z" fill="#00832D"/>
<path d="M21.9196 21.0259H10.0801L5.04004 29.5695C5.53488 29.8566 6.10303 30.0002 6.68951 30.0002H25.3102C25.8967 30.0002 26.4648 29.8387 26.9596 29.5695L21.9196 21.0259Z" fill="#2684FC"/>
<path d="M26.9048 11.5127L22.2497 3.61528C21.9564 3.11272 21.5349 2.71784 21.04 2.43066L16 10.9743L21.9198 21.0255H31.9815C31.9815 20.4691 31.8349 19.9127 31.5417 19.4102L26.9048 11.5127Z" fill="#FFBA00"/>
</svg>
