<svg width="32" height="32" viewBox="0 0 32 32" fill="none" xmlns="http://www.w3.org/2000/svg">
<path d="M22.9658 20.9409C26.6741 18.8679 29.5062 17.2845 29.7638 17.1404C30.5323 16.7107 31.3374 15.6144 29.7638 14.7381C29.258 14.4559 26.5021 12.9211 22.9615 10.9482L18.0917 15.9601L22.9658 20.9409Z" fill="#FFE300"/>
<path d="M18.0915 15.96L2.51611 31.9891C2.86785 32.0347 3.2909 31.9396 3.77751 31.6676C4.78493 31.1044 15.6038 25.056 22.9658 20.9403L18.0915 15.96Z" fill="#FF4E54"/>
<path d="M18.0915 15.9599L22.9612 10.9481C22.9612 10.9481 4.86109 0.862274 3.7775 0.258498C3.361 0.0263531 2.90689 -0.0546624 2.50494 0.0367587L18.0915 15.9599Z" fill="#00F085"/>
<path d="M18.0915 15.96L2.50472 0.0371094C1.86092 0.18378 1.33331 0.75287 1.33331 1.89675V30.0787C1.33331 31.156 1.74836 31.9136 2.51587 31.9892L18.0915 15.96Z" fill="#00E0FF"/>
</svg>
