<svg width="256" height="256" viewBox="0 0 256 256" fill="none" xmlns="http://www.w3.org/2000/svg">
<path d="M130.612 49.4934C155.138 49.4934 171.682 59.8756 181.115 68.5512L217.977 33.28C195.338 12.6578 165.877 0 130.612 0C79.528 0 35.4101 28.7289 13.9316 70.5423L56.1629 102.685C66.757 71.8223 96.0722 49.4934 130.612 49.4934Z" fill="#F25022"/>
<path d="M256 130.845C256 120.32 255.129 112.64 253.243 104.676H130.612V152.178H202.594C201.143 163.982 193.306 181.76 175.891 193.707L217.107 224.996C241.778 202.667 256 169.814 256 130.845Z" fill="#4285F4"/>
<path d="M56.3084 153.316C53.551 145.352 51.9547 136.819 51.9547 128.001C51.9547 119.183 53.551 110.65 56.1633 102.685L13.932 70.543C5.07937 87.8941 0 107.379 0 128.001C0 148.623 5.07937 168.108 13.932 185.459L56.3084 153.316Z" fill="#FBBC05"/>
<path d="M130.612 256C165.877 256 195.483 244.622 217.106 224.995L175.891 193.707C164.861 201.244 150.059 206.507 130.612 206.507C96.0724 206.507 66.7572 184.178 56.3082 153.315L14.0769 185.458C35.5554 227.271 79.5282 256 130.612 256Z" fill="#34A853"/>
</svg>
