<svg width="256" height="256" viewBox="0 0 256 256" fill="none" xmlns="http://www.w3.org/2000/svg">
<path d="M127.991 239.982C202.667 239.982 239.982 189.842 239.982 127.991C239.982 66.1401 202.667 16 127.991 16C53.3155 16 16 66.1401 16 127.991C16 189.842 53.3155 239.982 127.991 239.982Z" fill="url(#paint0_radial_7159_2143)"/>
<path d="M127.991 239.982C202.667 239.982 239.982 189.842 239.982 127.991C239.982 66.1401 202.667 16 127.991 16C53.3155 16 16 66.1401 16 127.991C16 189.842 53.3155 239.982 127.991 239.982Z" fill="url(#paint1_radial_7159_2143)"/>
<path d="M127.991 239.982C202.667 239.982 239.982 189.842 239.982 127.991C239.982 66.1401 202.667 16 127.991 16C53.3155 16 16 66.1401 16 127.991C16 189.842 53.3155 239.982 127.991 239.982Z" fill="url(#paint2_radial_7159_2143)" fill-opacity="0.6"/>
<path d="M127.991 239.982C202.667 239.982 239.982 189.842 239.982 127.991C239.982 66.1401 202.667 16 127.991 16C53.3155 16 16 66.1401 16 127.991C16 189.842 53.3155 239.982 127.991 239.982Z" fill="url(#paint3_radial_7159_2143)"/>
<path d="M127.991 239.982C202.667 239.982 239.982 189.842 239.982 127.991C239.982 66.1401 202.667 16 127.991 16C53.3155 16 16 66.1401 16 127.991C16 189.842 53.3155 239.982 127.991 239.982Z" fill="url(#paint4_radial_7159_2143)"/>
<path d="M127.991 239.982C202.667 239.982 239.982 189.842 239.982 127.991C239.982 66.1401 202.667 16 127.991 16C53.3155 16 16 66.1401 16 127.991C16 189.842 53.3155 239.982 127.991 239.982Z" fill="url(#paint5_radial_7159_2143)"/>
<path d="M127.991 239.982C202.667 239.982 239.982 189.842 239.982 127.991C239.982 66.1401 202.667 16 127.991 16C53.3155 16 16 66.1401 16 127.991C16 189.842 53.3155 239.982 127.991 239.982Z" fill="url(#paint6_radial_7159_2143)"/>
<path d="M127.991 239.982C202.667 239.982 239.982 189.842 239.982 127.991C239.982 66.1401 202.667 16 127.991 16C53.3155 16 16 66.1401 16 127.991C16 189.842 53.3155 239.982 127.991 239.982Z" fill="url(#paint7_radial_7159_2143)"/>
<path d="M127.991 239.982C202.667 239.982 239.982 189.842 239.982 127.991C239.982 66.1401 202.667 16 127.991 16C53.3155 16 16 66.1401 16 127.991C16 189.842 53.3155 239.982 127.991 239.982Z" fill="url(#paint8_radial_7159_2143)"/>
<path d="M127.991 239.982C202.667 239.982 239.982 189.842 239.982 127.991C239.982 66.1401 202.667 16 127.991 16C53.3155 16 16 66.1401 16 127.991C16 189.842 53.3155 239.982 127.991 239.982Z" fill="url(#paint9_radial_7159_2143)"/>
<path d="M127.991 239.982C202.667 239.982 239.982 189.842 239.982 127.991C239.982 66.1401 202.667 16 127.991 16C53.3155 16 16 66.1401 16 127.991C16 189.842 53.3155 239.982 127.991 239.982Z" fill="url(#paint10_radial_7159_2143)"/>
<path d="M127.991 239.982C202.667 239.982 239.982 189.842 239.982 127.991C239.982 66.1401 202.667 16 127.991 16C53.3155 16 16 66.1401 16 127.991C16 189.842 53.3155 239.982 127.991 239.982Z" fill="url(#paint11_radial_7159_2143)"/>
<path d="M127.991 239.982C202.667 239.982 239.982 189.842 239.982 127.991C239.982 66.1401 202.667 16 127.991 16C53.3155 16 16 66.1401 16 127.991C16 189.842 53.3155 239.982 127.991 239.982Z" fill="url(#paint12_radial_7159_2143)"/>
<path d="M127.991 239.982C202.667 239.982 239.982 189.842 239.982 127.991C239.982 66.1401 202.667 16 127.991 16C53.3155 16 16 66.1401 16 127.991C16 189.842 53.3155 239.982 127.991 239.982Z" fill="url(#paint13_radial_7159_2143)"/>
<path d="M127.991 239.982C202.667 239.982 239.982 189.842 239.982 127.991C239.982 66.1401 202.667 16 127.991 16C53.3155 16 16 66.1401 16 127.991C16 189.842 53.3155 239.982 127.991 239.982Z" fill="url(#paint14_radial_7159_2143)"/>
<path d="M127.991 239.982C202.667 239.982 239.982 189.842 239.982 127.991C239.982 66.1401 202.667 16 127.991 16C53.3155 16 16 66.1401 16 127.991C16 189.842 53.3155 239.982 127.991 239.982Z" fill="url(#paint15_radial_7159_2143)"/>
<path d="M127.991 239.982C202.667 239.982 239.982 189.842 239.982 127.991C239.982 66.1401 202.667 16 127.991 16C53.3155 16 16 66.1401 16 127.991C16 189.842 53.3155 239.982 127.991 239.982Z" fill="url(#paint16_radial_7159_2143)"/>
<path fill-rule="evenodd" clip-rule="evenodd" d="M174.175 100.519C172.507 98.2825 169.741 95.9604 164.311 96.0005C158.816 96.0411 156.087 98.3915 154.484 100.57C153.598 101.774 153.016 103.013 152.66 103.96C152.486 104.423 152.378 104.786 152.32 104.998C152.295 105.093 152.28 105.155 152.274 105.18C151.39 109.465 147.22 112.253 142.913 111.416C138.576 110.573 135.743 106.374 136.586 102.036C136.881 100.799 136.881 100.799 136.881 100.799C137.053 100.167 137.311 99.3233 137.681 98.3372C138.413 96.3857 139.632 93.7576 141.597 91.0865C145.697 85.5151 152.874 80.0846 164.192 80.001C175.575 79.9168 182.84 85.376 187 90.9518C188.997 93.6288 190.249 96.2708 191.006 98.2312C191.389 99.2221 191.657 100.07 191.837 100.705C192.902 104.455 191.389 110.267 185.937 111.397C181.639 112.287 177.433 109.549 176.499 105.272C176.492 105.246 176.475 105.179 176.446 105.074C176.382 104.852 176.266 104.475 176.081 103.997C175.704 103.02 175.092 101.748 174.175 100.519Z" fill="url(#paint17_radial_7159_2143)"/>
<path fill-rule="evenodd" clip-rule="evenodd" d="M101.925 100.519C100.257 98.2825 97.4908 95.9604 92.0606 96.0005C86.5664 96.0411 83.837 98.3915 82.2339 100.57C81.348 101.774 80.7657 103.013 80.4102 103.96C80.2364 104.423 80.1281 104.786 80.0703 104.998C80.0446 105.093 80.0296 105.155 80.0238 105.18C79.1403 109.465 74.9696 112.253 70.6629 111.416C66.3257 110.573 63.4931 106.374 64.3359 102.036C64.6311 100.799 64.6311 100.799 64.6311 100.799C64.8032 100.167 65.0605 99.3233 65.4306 98.3372C66.1631 96.3857 67.3816 93.7576 69.3472 91.0865C73.4473 85.5151 80.6241 80.0846 91.9424 80.001C103.325 79.9168 110.59 85.376 114.75 90.9518C116.747 93.6288 117.999 96.2708 118.756 98.2312C119.139 99.2221 119.407 100.07 119.587 100.705C120.652 104.455 119.139 110.267 113.687 111.397C109.389 112.287 105.183 109.549 104.249 105.272C104.242 105.246 104.225 105.179 104.196 105.074C104.132 104.852 104.016 104.475 103.831 103.997C103.454 103.02 102.842 101.748 101.925 100.519Z" fill="url(#paint18_radial_7159_2143)"/>
<path d="M128 200C56 200 56 128 56 128H200C200 128 200 200 128 200Z" fill="url(#paint19_radial_7159_2143)"/>
<path d="M64 139V128H192V139C192 139.552 191.552 140 191 140H65C64.4477 140 64 139.552 64 139Z" fill="url(#paint20_linear_7159_2143)"/>
<rect x="192" y="16" width="40" height="80" rx="20" fill="url(#paint21_radial_7159_2143)"/>
<defs>
<radialGradient id="paint0_radial_7159_2143" cx="0" cy="0" r="1" gradientUnits="userSpaceOnUse" gradientTransform="translate(204 72) rotate(131.878) scale(311.589)">
<stop stop-color="#FFF478"/>
<stop offset="0.474827" stop-color="#FFB02E"/>
<stop offset="1" stop-color="#F70A8D"/>
</radialGradient>
<radialGradient id="paint1_radial_7159_2143" cx="0" cy="0" r="1" gradientUnits="userSpaceOnUse" gradientTransform="translate(128 100) rotate(101.31) scale(142.773 182.864)">
<stop offset="0.787821" stop-color="#F59639" stop-opacity="0"/>
<stop offset="0.972509" stop-color="#FF7DCE"/>
</radialGradient>
<radialGradient id="paint2_radial_7159_2143" cx="0" cy="0" r="1" gradientUnits="userSpaceOnUse" gradientTransform="translate(144 112) rotate(135) scale(328.098)">
<stop offset="0.314853" stop-opacity="0"/>
<stop offset="1"/>
</radialGradient>
<radialGradient id="paint3_radial_7159_2143" cx="0" cy="0" r="1" gradientUnits="userSpaceOnUse" gradientTransform="translate(128 136) rotate(77.692) scale(225.175)">
<stop offset="0.507903" stop-color="#7D6133" stop-opacity="0"/>
<stop offset="1" stop-color="#715B32"/>
</radialGradient>
<radialGradient id="paint4_radial_7159_2143" cx="0" cy="0" r="1" gradientUnits="userSpaceOnUse" gradientTransform="translate(141.549 111.596) rotate(65.0429) scale(119.569 86.6693)">
<stop stop-color="#FFB849"/>
<stop offset="1" stop-color="#FFB847" stop-opacity="0"/>
</radialGradient>
<radialGradient id="paint5_radial_7159_2143" cx="0" cy="0" r="1" gradientUnits="userSpaceOnUse" gradientTransform="translate(164 144) rotate(9.86581) scale(93.3809)">
<stop stop-color="#FFA64B"/>
<stop offset="0.900412" stop-color="#FFAE46" stop-opacity="0"/>
</radialGradient>
<radialGradient id="paint6_radial_7159_2143" cx="0" cy="0" r="1" gradientUnits="userSpaceOnUse" gradientTransform="translate(140 120) rotate(43.9708) scale(472.424)">
<stop offset="0.185425" stop-opacity="0"/>
<stop offset="1" stop-opacity="0.4"/>
</radialGradient>
<radialGradient id="paint7_radial_7159_2143" cx="0" cy="0" r="1" gradientUnits="userSpaceOnUse" gradientTransform="translate(74.4186 104.601) rotate(-10.3912) scale(56.5676 41.7492)">
<stop stop-color="#F1A227"/>
<stop offset="1" stop-color="#F5A72C" stop-opacity="0"/>
</radialGradient>
<radialGradient id="paint8_radial_7159_2143" cx="0" cy="0" r="1" gradientUnits="userSpaceOnUse" gradientTransform="translate(179.296 107.572) rotate(-17.354) scale(9.53771)">
<stop stop-color="#D28118"/>
<stop offset="1" stop-color="#D68623" stop-opacity="0"/>
</radialGradient>
<radialGradient id="paint9_radial_7159_2143" cx="0" cy="0" r="1" gradientUnits="userSpaceOnUse" gradientTransform="translate(169.245 95.2445) rotate(48.6215) scale(21.2315 7.27417)">
<stop stop-color="#D28118"/>
<stop offset="1" stop-color="#D68623" stop-opacity="0"/>
</radialGradient>
<radialGradient id="paint10_radial_7159_2143" cx="0" cy="0" r="1" gradientUnits="userSpaceOnUse" gradientTransform="translate(163.745 93.9169) rotate(-1.21886) scale(17.8318 7.32007)">
<stop stop-color="#D28118"/>
<stop offset="1" stop-color="#D68623" stop-opacity="0"/>
</radialGradient>
<radialGradient id="paint11_radial_7159_2143" cx="0" cy="0" r="1" gradientUnits="userSpaceOnUse" gradientTransform="translate(105.904 103.601) rotate(49.3987) scale(15.7262 7.88172)">
<stop stop-color="#BE7227"/>
<stop offset="1" stop-color="#C67A2A" stop-opacity="0"/>
</radialGradient>
<radialGradient id="paint12_radial_7159_2143" cx="0" cy="0" r="1" gradientUnits="userSpaceOnUse" gradientTransform="translate(95.4259 92.1484) rotate(42.5104) scale(11.9003 8.79204)">
<stop stop-color="#D07E2D"/>
<stop offset="1" stop-color="#D98833" stop-opacity="0"/>
</radialGradient>
<radialGradient id="paint13_radial_7159_2143" cx="0" cy="0" r="1" gradientUnits="userSpaceOnUse" gradientTransform="translate(92.7454 92.3921) rotate(18.0478) scale(22.8096 17.4543)">
<stop stop-color="#D88431"/>
<stop offset="1" stop-color="#CF8231" stop-opacity="0"/>
</radialGradient>
<radialGradient id="paint14_radial_7159_2143" cx="0" cy="0" r="1" gradientUnits="userSpaceOnUse" gradientTransform="translate(70.9893 103.45) rotate(-80.8376) scale(19.1649 13.1464)">
<stop stop-color="#DA8924"/>
<stop offset="1" stop-color="#DC8924" stop-opacity="0"/>
</radialGradient>
<radialGradient id="paint15_radial_7159_2143" cx="0" cy="0" r="1" gradientUnits="userSpaceOnUse" gradientTransform="translate(192.472 59.9404) rotate(77.2886) scale(46.6481 43.7201)">
<stop stop-color="#AB7A2A"/>
<stop offset="1" stop-color="#FFD45B" stop-opacity="0"/>
</radialGradient>
<radialGradient id="paint16_radial_7159_2143" cx="0" cy="0" r="1" gradientUnits="userSpaceOnUse" gradientTransform="translate(198.896 85.016) rotate(57.0347) scale(32.0287 18.0715)">
<stop stop-color="#AB7A2A"/>
<stop offset="1" stop-color="#AB7A2A" stop-opacity="0"/>
</radialGradient>
<radialGradient id="paint17_radial_7159_2143" cx="0" cy="0" r="1" gradientUnits="userSpaceOnUse" gradientTransform="translate(164.297 102.688) rotate(90) scale(25.5 34.4838)">
<stop offset="0.307692" stop-color="#452A3D"/>
<stop offset="0.626374" stop-color="#594052"/>
<stop offset="1" stop-color="#482C40"/>
</radialGradient>
<radialGradient id="paint18_radial_7159_2143" cx="0" cy="0" r="1" gradientUnits="userSpaceOnUse" gradientTransform="translate(92.0469 102.688) rotate(90) scale(25.5 34.4838)">
<stop offset="0.307692" stop-color="#452A3D"/>
<stop offset="0.626374" stop-color="#594052"/>
<stop offset="1" stop-color="#482C40"/>
</radialGradient>
<radialGradient id="paint19_radial_7159_2143" cx="0" cy="0" r="1" gradientUnits="userSpaceOnUse" gradientTransform="translate(128 216) rotate(-90) scale(88 176)">
<stop stop-color="#F70A8D"/>
<stop offset="1" stop-color="#89029C"/>
</radialGradient>
<linearGradient id="paint20_linear_7159_2143" x1="128" y1="128" x2="128" y2="140" gradientUnits="userSpaceOnUse">
<stop stop-color="#ECCDFF"/>
<stop offset="1" stop-color="white"/>
</linearGradient>
<radialGradient id="paint21_radial_7159_2143" cx="0" cy="0" r="1" gradientTransform="matrix(-20 83.6364 -28.6515 -8.15379 225.333 19.6364)" gradientUnits="userSpaceOnUse">
<stop stop-color="#5C98FF"/>
<stop offset="0.805982" stop-color="#3D5BF1"/>
<stop offset="0.962238" stop-color="#6065CA"/>
</radialGradient>
</defs>
</svg>
