<svg width="256" height="256" viewBox="0 0 256 256" fill="none" xmlns="http://www.w3.org/2000/svg">
<path d="M32 207.536C32 225.391 46.1061 240 63.3469 240H192.653C209.894 240 224 224.58 224 206.725V51.4376C224 41.0376 211.279 36.2376 204.124 43.4376L167.789 80H89.2936L52 43.4376C44.8 36.2376 32 41.0376 32 51.4376V207.536Z" fill="url(#paint0_linear_7159_2155)"/>
<path d="M32 207.536C32 225.391 46.1061 240 63.3469 240H192.653C209.894 240 224 224.58 224 206.725V51.4376C224 41.0376 211.279 36.2376 204.124 43.4376L167.789 80H89.2936L52 43.4376C44.8 36.2376 32 41.0376 32 51.4376V207.536Z" fill="url(#paint1_radial_7159_2155)"/>
<path d="M32 207.536C32 225.391 46.1061 240 63.3469 240H192.653C209.894 240 224 224.58 224 206.725V51.4376C224 41.0376 211.279 36.2376 204.124 43.4376L167.789 80H89.2936L52 43.4376C44.8 36.2376 32 41.0376 32 51.4376V207.536Z" fill="url(#paint2_linear_7159_2155)"/>
<path d="M32 207.536C32 225.391 46.1061 240 63.3469 240H192.653C209.894 240 224 224.58 224 206.725V51.4376C224 41.0376 211.279 36.2376 204.124 43.4376L167.789 80H89.2936L52 43.4376C44.8 36.2376 32 41.0376 32 51.4376V207.536Z" fill="url(#paint3_linear_7159_2155)"/>
<path d="M32 207.536C32 225.391 46.1061 240 63.3469 240H192.653C209.894 240 224 224.58 224 206.725V51.4376C224 41.0376 211.279 36.2376 204.124 43.4376L167.789 80H89.2936L52 43.4376C44.8 36.2376 32 41.0376 32 51.4376V207.536Z" fill="url(#paint4_linear_7159_2155)"/>
<path d="M32 207.536C32 225.391 46.1061 240 63.3469 240H192.653C209.894 240 224 224.58 224 206.725V51.4376C224 41.0376 211.279 36.2376 204.124 43.4376L167.789 80H89.2936L52 43.4376C44.8 36.2376 32 41.0376 32 51.4376V207.536Z" fill="url(#paint5_linear_7159_2155)"/>
<path d="M32 207.536C32 225.391 46.1061 240 63.3469 240H192.653C209.894 240 224 224.58 224 206.725V51.4376C224 41.0376 211.279 36.2376 204.124 43.4376L167.789 80H89.2936L52 43.4376C44.8 36.2376 32 41.0376 32 51.4376V207.536Z" fill="url(#paint6_radial_7159_2155)"/>
<path d="M32 207.536C32 225.391 46.1061 240 63.3469 240H192.653C209.894 240 224 224.58 224 206.725V51.4376C224 41.0376 211.279 36.2376 204.124 43.4376L167.789 80H89.2936L52 43.4376C44.8 36.2376 32 41.0376 32 51.4376V207.536Z" fill="url(#paint7_radial_7159_2155)"/>
<path d="M32 207.536C32 225.391 46.1061 240 63.3469 240H192.653C209.894 240 224 224.58 224 206.725V51.4376C224 41.0376 211.279 36.2376 204.124 43.4376L167.789 80H89.2936L52 43.4376C44.8 36.2376 32 41.0376 32 51.4376V207.536Z" fill="url(#paint8_radial_7159_2155)"/>
<path d="M32 207.536C32 225.391 46.1061 240 63.3469 240H192.653C209.894 240 224 224.58 224 206.725V51.4376C224 41.0376 211.279 36.2376 204.124 43.4376L167.789 80H89.2936L52 43.4376C44.8 36.2376 32 41.0376 32 51.4376V207.536Z" fill="url(#paint9_radial_7159_2155)"/>
<path d="M32 207.536C32 225.391 46.1061 240 63.3469 240H192.653C209.894 240 224 224.58 224 206.725V51.4376C224 41.0376 211.279 36.2376 204.124 43.4376L167.789 80H89.2936L52 43.4376C44.8 36.2376 32 41.0376 32 51.4376V207.536Z" fill="url(#paint10_radial_7159_2155)"/>
<path d="M32 207.536C32 225.391 46.1061 240 63.3469 240H192.653C209.894 240 224 224.58 224 206.725V51.4376C224 41.0376 211.279 36.2376 204.124 43.4376L167.789 80H89.2936L52 43.4376C44.8 36.2376 32 41.0376 32 51.4376V207.536Z" fill="url(#paint11_radial_7159_2155)"/>
<path d="M32 207.536C32 225.391 46.1061 240 63.3469 240H192.653C209.894 240 224 224.58 224 206.725V51.4376C224 41.0376 211.279 36.2376 204.124 43.4376L167.789 80H89.2936L52 43.4376C44.8 36.2376 32 41.0376 32 51.4376V207.536Z" fill="url(#paint12_radial_7159_2155)"/>
<path d="M32 207.536C32 225.391 46.1061 240 63.3469 240H192.653C209.894 240 224 224.58 224 206.725V51.4376C224 41.0376 211.279 36.2376 204.124 43.4376L167.789 80H89.2936L52 43.4376C44.8 36.2376 32 41.0376 32 51.4376V207.536Z" fill="url(#paint13_radial_7159_2155)"/>
<path d="M32 207.536C32 225.391 46.1061 240 63.3469 240H192.653C209.894 240 224 224.58 224 206.725V51.4376C224 41.0376 211.279 36.2376 204.124 43.4376L167.789 80H89.2936L52 43.4376C44.8 36.2376 32 41.0376 32 51.4376V207.536Z" fill="url(#paint14_radial_7159_2155)"/>
<path d="M32 207.536C32 225.391 46.1061 240 63.3469 240H192.653C209.894 240 224 224.58 224 206.725V51.4376C224 41.0376 211.279 36.2376 204.124 43.4376L167.789 80H89.2936L52 43.4376C44.8 36.2376 32 41.0376 32 51.4376V207.536Z" fill="url(#paint15_radial_7159_2155)"/>
<path d="M32 207.536C32 225.391 46.1061 240 63.3469 240H192.653C209.894 240 224 224.58 224 206.725V51.4376C224 41.0376 211.279 36.2376 204.124 43.4376L167.789 80H89.2936L52 43.4376C44.8 36.2376 32 41.0376 32 51.4376V207.536Z" fill="url(#paint16_radial_7159_2155)"/>
<path d="M32 207.536C32 225.391 46.1061 240 63.3469 240H192.653C209.894 240 224 224.58 224 206.725V51.4376C224 41.0376 211.279 36.2376 204.124 43.4376L167.789 80H89.2936L52 43.4376C44.8 36.2376 32 41.0376 32 51.4376V207.536Z" fill="url(#paint17_radial_7159_2155)"/>
<path d="M32 207.536C32 225.391 46.1061 240 63.3469 240H192.653C209.894 240 224 224.58 224 206.725V51.4376C224 41.0376 211.279 36.2376 204.124 43.4376L167.789 80H89.2936L52 43.4376C44.8 36.2376 32 41.0376 32 51.4376V207.536Z" fill="url(#paint18_radial_7159_2155)"/>
<path d="M32 207.536C32 225.391 46.1061 240 63.3469 240H192.653C209.894 240 224 224.58 224 206.725V51.4376C224 41.0376 211.279 36.2376 204.124 43.4376L167.789 80H89.2936L52 43.4376C44.8 36.2376 32 41.0376 32 51.4376V207.536Z" fill="url(#paint19_radial_7159_2155)"/>
<path d="M32 207.536C32 225.391 46.1061 240 63.3469 240H192.653C209.894 240 224 224.58 224 206.725V51.4376C224 41.0376 211.279 36.2376 204.124 43.4376L167.789 80H89.2936L52 43.4376C44.8 36.2376 32 41.0376 32 51.4376V207.536Z" fill="url(#paint20_radial_7159_2155)"/>
<path d="M32 207.536C32 225.391 46.1061 240 63.3469 240H192.653C209.894 240 224 224.58 224 206.725V51.4376C224 41.0376 211.279 36.2376 204.124 43.4376L167.789 80H89.2936L52 43.4376C44.8 36.2376 32 41.0376 32 51.4376V207.536Z" fill="url(#paint21_radial_7159_2155)"/>
<path d="M49.0604 108.028L71.4604 87.2275C74.0204 84.8275 74.0204 80.9875 71.4604 78.6675L47.3429 57.2501C44.2804 54.5626 37.9404 55.4376 37.9404 62.1075V103.708C37.9404 110.375 44.9804 111.868 49.0604 108.028Z" fill="url(#paint22_linear_7159_2155)"/>
<path d="M49.0604 108.028L71.4604 87.2275C74.0204 84.8275 74.0204 80.9875 71.4604 78.6675L47.3429 57.2501C44.2804 54.5626 37.9404 55.4376 37.9404 62.1075V103.708C37.9404 110.375 44.9804 111.868 49.0604 108.028Z" fill="#FBA430"/>
<path d="M49.0604 108.028L71.4604 87.2275C74.0204 84.8275 74.0204 80.9875 71.4604 78.6675L47.3429 57.2501C44.2804 54.5626 37.9404 55.4376 37.9404 62.1075V103.708C37.9404 110.375 44.9804 111.868 49.0604 108.028Z" fill="url(#paint23_radial_7159_2155)"/>
<path d="M49.0604 108.028L71.4604 87.2275C74.0204 84.8275 74.0204 80.9875 71.4604 78.6675L47.3429 57.2501C44.2804 54.5626 37.9404 55.4376 37.9404 62.1075V103.708C37.9404 110.375 44.9804 111.868 49.0604 108.028Z" fill="url(#paint24_radial_7159_2155)"/>
<path d="M49.0604 108.028L71.4604 87.2275C74.0204 84.8275 74.0204 80.9875 71.4604 78.6675L47.3429 57.2501C44.2804 54.5626 37.9404 55.4376 37.9404 62.1075V103.708C37.9404 110.375 44.9804 111.868 49.0604 108.028Z" fill="url(#paint25_radial_7159_2155)"/>
<path fill-rule="evenodd" clip-rule="evenodd" d="M239.302 163.748C240.442 166.141 239.426 169.006 237.033 170.146L206.596 184.646C204.202 185.786 201.338 184.77 200.198 182.377C199.058 179.983 200.074 177.119 202.467 175.979L232.904 161.479C235.298 160.339 238.162 161.355 239.302 163.748Z" fill="url(#paint26_linear_7159_2155)"/>
<path fill-rule="evenodd" clip-rule="evenodd" d="M239.302 163.748C240.442 166.141 239.426 169.006 237.033 170.146L206.596 184.646C204.202 185.786 201.338 184.77 200.198 182.377C199.058 179.983 200.074 177.119 202.467 175.979L232.904 161.479C235.298 160.339 238.162 161.355 239.302 163.748Z" fill="url(#paint27_linear_7159_2155)"/>
<path fill-rule="evenodd" clip-rule="evenodd" d="M239.302 163.748C240.442 166.141 239.426 169.006 237.033 170.146L206.596 184.646C204.202 185.786 201.338 184.77 200.198 182.377C199.058 179.983 200.074 177.119 202.467 175.979L232.904 161.479C235.298 160.339 238.162 161.355 239.302 163.748Z" fill="url(#paint28_radial_7159_2155)"/>
<path fill-rule="evenodd" clip-rule="evenodd" d="M239.302 163.748C240.442 166.141 239.426 169.006 237.033 170.146L206.596 184.646C204.202 185.786 201.338 184.77 200.198 182.377C199.058 179.983 200.074 177.119 202.467 175.979L232.904 161.479C235.298 160.339 238.162 161.355 239.302 163.748Z" fill="url(#paint29_radial_7159_2155)"/>
<path fill-rule="evenodd" clip-rule="evenodd" d="M239.302 163.748C240.442 166.141 239.426 169.006 237.033 170.146L206.596 184.646C204.202 185.786 201.338 184.77 200.198 182.377C199.058 179.983 200.074 177.119 202.467 175.979L232.904 161.479C235.298 160.339 238.162 161.355 239.302 163.748Z" fill="url(#paint30_radial_7159_2155)"/>
<path fill-rule="evenodd" clip-rule="evenodd" d="M239.252 213.978C238.108 216.37 235.242 217.38 232.85 216.236L202.438 201.684C200.046 200.54 199.035 197.673 200.18 195.282C201.324 192.891 204.19 191.88 206.581 193.024L236.994 207.577C239.385 208.721 240.396 211.587 239.252 213.978Z" fill="url(#paint31_linear_7159_2155)"/>
<path fill-rule="evenodd" clip-rule="evenodd" d="M239.252 213.978C238.108 216.37 235.242 217.38 232.85 216.236L202.438 201.684C200.046 200.54 199.035 197.673 200.18 195.282C201.324 192.891 204.19 191.88 206.581 193.024L236.994 207.577C239.385 208.721 240.396 211.587 239.252 213.978Z" fill="url(#paint32_linear_7159_2155)"/>
<path fill-rule="evenodd" clip-rule="evenodd" d="M239.252 213.978C238.108 216.37 235.242 217.38 232.85 216.236L202.438 201.684C200.046 200.54 199.035 197.673 200.18 195.282C201.324 192.891 204.19 191.88 206.581 193.024L236.994 207.577C239.385 208.721 240.396 211.587 239.252 213.978Z" fill="url(#paint33_radial_7159_2155)"/>
<path fill-rule="evenodd" clip-rule="evenodd" d="M239.252 213.978C238.108 216.37 235.242 217.38 232.85 216.236L202.438 201.684C200.046 200.54 199.035 197.673 200.18 195.282C201.324 192.891 204.19 191.88 206.581 193.024L236.994 207.577C239.385 208.721 240.396 211.587 239.252 213.978Z" fill="url(#paint34_radial_7159_2155)"/>
<path fill-rule="evenodd" clip-rule="evenodd" d="M239.252 213.978C238.108 216.37 235.242 217.38 232.85 216.236L202.438 201.684C200.046 200.54 199.035 197.673 200.18 195.282C201.324 192.891 204.19 191.88 206.581 193.024L236.994 207.577C239.385 208.721 240.396 211.587 239.252 213.978Z" fill="url(#paint35_radial_7159_2155)"/>
<path fill-rule="evenodd" clip-rule="evenodd" d="M17.4825 214.072C18.6267 216.463 21.4929 217.474 23.8842 216.33L54.2967 201.778C56.688 200.633 57.6989 197.767 56.5547 195.376C55.4104 192.985 52.5443 191.974 50.153 193.118L19.7405 207.67C17.3492 208.815 16.3383 211.681 17.4825 214.072Z" fill="url(#paint36_linear_7159_2155)"/>
<path fill-rule="evenodd" clip-rule="evenodd" d="M17.4825 214.072C18.6267 216.463 21.4929 217.474 23.8842 216.33L54.2967 201.778C56.688 200.633 57.6989 197.767 56.5547 195.376C55.4104 192.985 52.5443 191.974 50.153 193.118L19.7405 207.67C17.3492 208.815 16.3383 211.681 17.4825 214.072Z" fill="url(#paint37_linear_7159_2155)"/>
<path fill-rule="evenodd" clip-rule="evenodd" d="M17.4825 214.072C18.6267 216.463 21.4929 217.474 23.8842 216.33L54.2967 201.778C56.688 200.633 57.6989 197.767 56.5547 195.376C55.4104 192.985 52.5443 191.974 50.153 193.118L19.7405 207.67C17.3492 208.815 16.3383 211.681 17.4825 214.072Z" fill="url(#paint38_radial_7159_2155)"/>
<path fill-rule="evenodd" clip-rule="evenodd" d="M17.4825 214.072C18.6267 216.463 21.4929 217.474 23.8842 216.33L54.2967 201.778C56.688 200.633 57.6989 197.767 56.5547 195.376C55.4104 192.985 52.5443 191.974 50.153 193.118L19.7405 207.67C17.3492 208.815 16.3383 211.681 17.4825 214.072Z" fill="url(#paint39_radial_7159_2155)"/>
<path fill-rule="evenodd" clip-rule="evenodd" d="M17.4825 214.072C18.6267 216.463 21.4929 217.474 23.8842 216.33L54.2967 201.778C56.688 200.633 57.6989 197.767 56.5547 195.376C55.4104 192.985 52.5443 191.974 50.153 193.118L19.7405 207.67C17.3492 208.815 16.3383 211.681 17.4825 214.072Z" fill="url(#paint40_radial_7159_2155)"/>
<path fill-rule="evenodd" clip-rule="evenodd" d="M17.4654 163.802C16.3371 166.201 17.3671 169.06 19.7659 170.188L50.2745 184.538C52.6734 185.667 55.5327 184.637 56.661 182.238C57.7893 179.839 56.7594 176.979 54.3605 175.851L23.8519 161.501C21.453 160.373 18.5937 161.403 17.4654 163.802Z" fill="url(#paint41_linear_7159_2155)"/>
<path fill-rule="evenodd" clip-rule="evenodd" d="M17.4654 163.802C16.3371 166.201 17.3671 169.06 19.7659 170.188L50.2745 184.538C52.6734 185.667 55.5327 184.637 56.661 182.238C57.7893 179.839 56.7594 176.979 54.3605 175.851L23.8519 161.501C21.453 160.373 18.5937 161.403 17.4654 163.802Z" fill="url(#paint42_linear_7159_2155)"/>
<path fill-rule="evenodd" clip-rule="evenodd" d="M17.4654 163.802C16.3371 166.201 17.3671 169.06 19.7659 170.188L50.2745 184.538C52.6734 185.667 55.5327 184.637 56.661 182.238C57.7893 179.839 56.7594 176.979 54.3605 175.851L23.8519 161.501C21.453 160.373 18.5937 161.403 17.4654 163.802Z" fill="url(#paint43_radial_7159_2155)"/>
<path fill-rule="evenodd" clip-rule="evenodd" d="M17.4654 163.802C16.3371 166.201 17.3671 169.06 19.7659 170.188L50.2745 184.538C52.6734 185.667 55.5327 184.637 56.661 182.238C57.7893 179.839 56.7594 176.979 54.3605 175.851L23.8519 161.501C21.453 160.373 18.5937 161.403 17.4654 163.802Z" fill="url(#paint44_radial_7159_2155)"/>
<path fill-rule="evenodd" clip-rule="evenodd" d="M17.4654 163.802C16.3371 166.201 17.3671 169.06 19.7659 170.188L50.2745 184.538C52.6734 185.667 55.5327 184.637 56.661 182.238C57.7893 179.839 56.7594 176.979 54.3605 175.851L23.8519 161.501C21.453 160.373 18.5937 161.403 17.4654 163.802Z" fill="url(#paint45_radial_7159_2155)"/>
<path d="M206.663 108.028L184.263 87.2275C181.703 84.8275 181.703 80.9875 184.263 78.6675L208.381 57.2501C211.443 54.5626 217.783 55.4376 217.783 62.1075V103.708C217.783 110.375 210.743 111.868 206.663 108.028Z" fill="#FFCD45"/>
<path d="M206.663 108.028L184.263 87.2275C181.703 84.8275 181.703 80.9875 184.263 78.6675L208.381 57.2501C211.443 54.5626 217.783 55.4376 217.783 62.1075V103.708C217.783 110.375 210.743 111.868 206.663 108.028Z" fill="url(#paint46_linear_7159_2155)"/>
<path d="M206.663 108.028L184.263 87.2275C181.703 84.8275 181.703 80.9875 184.263 78.6675L208.381 57.2501C211.443 54.5626 217.783 55.4376 217.783 62.1075V103.708C217.783 110.375 210.743 111.868 206.663 108.028Z" fill="url(#paint47_radial_7159_2155)"/>
<path d="M206.663 108.028L184.263 87.2275C181.703 84.8275 181.703 80.9875 184.263 78.6675L208.381 57.2501C211.443 54.5626 217.783 55.4376 217.783 62.1075V103.708C217.783 110.375 210.743 111.868 206.663 108.028Z" fill="url(#paint48_radial_7159_2155)"/>
<path d="M206.663 108.028L184.263 87.2275C181.703 84.8275 181.703 80.9875 184.263 78.6675L208.381 57.2501C211.443 54.5626 217.783 55.4376 217.783 62.1075V103.708C217.783 110.375 210.743 111.868 206.663 108.028Z" fill="url(#paint49_radial_7159_2155)"/>
<path d="M206.663 108.028L184.263 87.2275C181.703 84.8275 181.703 80.9875 184.263 78.6675L208.381 57.2501C211.443 54.5626 217.783 55.4376 217.783 62.1075V103.708C217.783 110.375 210.743 111.868 206.663 108.028Z" fill="url(#paint50_radial_7159_2155)"/>
<path d="M206.663 108.028L184.263 87.2275C181.703 84.8275 181.703 80.9875 184.263 78.6675L208.381 57.2501C211.443 54.5626 217.783 55.4376 217.783 62.1075V103.708C217.783 110.375 210.743 111.868 206.663 108.028Z" fill="url(#paint51_radial_7159_2155)"/>
<path d="M121.812 161.653L122.327 161.533C126.115 160.649 130.061 160.69 133.831 161.653C138 162.438 140.488 167.216 136.968 170.656L132.562 175.469C130.402 177.629 125.66 177.629 123.5 175.469L119.156 170.656C115.562 166.594 117.812 162.531 121.812 161.653Z" fill="url(#paint52_radial_7159_2155)"/>
<path d="M121.812 161.653L122.327 161.533C126.115 160.649 130.061 160.69 133.831 161.653C138 162.438 140.488 167.216 136.968 170.656L132.562 175.469C130.402 177.629 125.66 177.629 123.5 175.469L119.156 170.656C115.562 166.594 117.812 162.531 121.812 161.653Z" fill="url(#paint53_radial_7159_2155)" fill-opacity="0.8"/>
<path d="M163.344 184.438C163.344 203.958 147.489 219.125 127.969 219.125C108.449 219.125 93.4688 203.583 93.4688 184.062C93.4688 184.062 107.906 201.125 127.969 184.062C146.781 200.688 163.344 184.438 163.344 184.438Z" fill="url(#paint54_linear_7159_2155)"/>
<path fill-rule="evenodd" clip-rule="evenodd" d="M90.4303 150.929C89.3021 152.413 88.8418 154.298 88.8035 155.458C88.7234 157.886 86.6897 159.79 84.2609 159.71C81.8322 159.63 79.9282 157.596 80.0083 155.168C80.0951 152.536 80.9972 148.796 83.4253 145.603C86.0013 142.215 90.1508 139.663 96.0309 139.663C101.97 139.663 106.159 142.343 108.751 145.766C111.2 149 112.183 152.812 112.242 155.528C112.296 157.958 110.37 159.971 107.94 160.024C105.511 160.077 103.498 158.151 103.444 155.722C103.421 154.647 102.947 152.677 101.736 151.078C100.668 149.668 98.9915 148.463 96.0309 148.463C93.011 148.463 91.4105 149.64 90.4303 150.929Z" fill="url(#paint55_radial_7159_2155)"/>
<path fill-rule="evenodd" clip-rule="evenodd" d="M90.4303 150.929C89.3021 152.413 88.8418 154.298 88.8035 155.458C88.7234 157.886 86.6897 159.79 84.2609 159.71C81.8322 159.63 79.9282 157.596 80.0083 155.168C80.0951 152.536 80.9972 148.796 83.4253 145.603C86.0013 142.215 90.1508 139.663 96.0309 139.663C101.97 139.663 106.159 142.343 108.751 145.766C111.2 149 112.183 152.812 112.242 155.528C112.296 157.958 110.37 159.971 107.94 160.024C105.511 160.077 103.498 158.151 103.444 155.722C103.421 154.647 102.947 152.677 101.736 151.078C100.668 149.668 98.9915 148.463 96.0309 148.463C93.011 148.463 91.4105 149.64 90.4303 150.929Z" fill="url(#paint56_linear_7159_2155)"/>
<path fill-rule="evenodd" clip-rule="evenodd" d="M154.18 150.929C153.052 152.413 152.592 154.298 152.554 155.458C152.473 157.886 150.44 159.79 148.011 159.71C145.582 159.63 143.678 157.596 143.758 155.168C143.845 152.536 144.747 148.796 147.175 145.603C149.751 142.215 153.901 139.663 159.781 139.663C165.72 139.663 169.909 142.343 172.501 145.766C174.95 149 175.933 152.812 175.992 155.528C176.046 157.958 174.12 159.971 171.69 160.024C169.261 160.077 167.248 158.151 167.194 155.722C167.171 154.647 166.697 152.677 165.486 151.078C164.418 149.668 162.742 148.463 159.781 148.463C156.761 148.463 155.16 149.64 154.18 150.929Z" fill="url(#paint57_radial_7159_2155)"/>
<path fill-rule="evenodd" clip-rule="evenodd" d="M154.18 150.929C153.052 152.413 152.592 154.298 152.554 155.458C152.473 157.886 150.44 159.79 148.011 159.71C145.582 159.63 143.678 157.596 143.758 155.168C143.845 152.536 144.747 148.796 147.175 145.603C149.751 142.215 153.901 139.663 159.781 139.663C165.72 139.663 169.909 142.343 172.501 145.766C174.95 149 175.933 152.812 175.992 155.528C176.046 157.958 174.12 159.971 171.69 160.024C169.261 160.077 167.248 158.151 167.194 155.722C167.171 154.647 166.697 152.677 165.486 151.078C164.418 149.668 162.742 148.463 159.781 148.463C156.761 148.463 155.16 149.64 154.18 150.929Z" fill="url(#paint58_linear_7159_2155)"/>
<defs>
<linearGradient id="paint0_linear_7159_2155" x1="63.2535" y1="10.7982" x2="63.2535" y2="247.92" gradientUnits="userSpaceOnUse">
<stop offset="0.288159" stop-color="#FFCE2C"/>
<stop offset="0.762024" stop-color="#F79B22"/>
<stop offset="0.9925" stop-color="#E3821D"/>
<stop offset="1" stop-color="#E3801D"/>
</linearGradient>
<radialGradient id="paint1_radial_7159_2155" cx="0" cy="0" r="1" gradientUnits="userSpaceOnUse" gradientTransform="translate(191.6 134.309) rotate(90) scale(82.4188 79.122)">
<stop stop-color="#FFDE68"/>
<stop offset="1" stop-color="#FFDD68" stop-opacity="0"/>
</radialGradient>
<linearGradient id="paint2_linear_7159_2155" x1="131.206" y1="111.718" x2="32" y2="97.891" gradientUnits="userSpaceOnUse">
<stop stop-color="#E99E20" stop-opacity="0"/>
<stop offset="1" stop-color="#FF9F3D"/>
</linearGradient>
<linearGradient id="paint3_linear_7159_2155" x1="214.329" y1="96.2639" x2="241.96" y2="96.2639" gradientUnits="userSpaceOnUse">
<stop stop-color="#E99E20" stop-opacity="0"/>
<stop offset="0.9925" stop-color="#E3821D"/>
<stop offset="1" stop-color="#E3801D"/>
</linearGradient>
<linearGradient id="paint4_linear_7159_2155" x1="128.008" y1="-12.7567" x2="128" y2="247.92" gradientUnits="userSpaceOnUse">
<stop offset="0.77079" stop-color="#F59639" stop-opacity="0"/>
<stop offset="1" stop-color="#FF63C4"/>
</linearGradient>
<linearGradient id="paint5_linear_7159_2155" x1="128" y1="90.0169" x2="128" y2="259.8" gradientUnits="userSpaceOnUse">
<stop offset="0.854227" stop-color="white" stop-opacity="0"/>
<stop offset="0.985362" stop-color="white"/>
</linearGradient>
<radialGradient id="paint6_radial_7159_2155" cx="0" cy="0" r="1" gradientTransform="matrix(24.3655 35.3921 -70.9804 47.4395 177.404 35.815)" gradientUnits="userSpaceOnUse">
<stop stop-color="#FFA720"/>
<stop offset="0.921158" stop-color="#FFA720" stop-opacity="0"/>
</radialGradient>
<radialGradient id="paint7_radial_7159_2155" cx="0" cy="0" r="1" gradientUnits="userSpaceOnUse" gradientTransform="translate(27.7983 189.415) scale(48.7236 69.3077)">
<stop offset="0.260619" stop-color="#C57310" stop-opacity="0.8"/>
<stop offset="0.590058" stop-color="#CB750D" stop-opacity="0.37"/>
<stop offset="0.921158" stop-color="#D77A09" stop-opacity="0"/>
</radialGradient>
<radialGradient id="paint8_radial_7159_2155" cx="0" cy="0" r="1" gradientUnits="userSpaceOnUse" gradientTransform="translate(203.242 181.004) rotate(63.9247) scale(5.93112 9.02024)">
<stop offset="0.380208" stop-color="#D77A09"/>
<stop offset="1" stop-color="#D77A09" stop-opacity="0"/>
</radialGradient>
<radialGradient id="paint9_radial_7159_2155" cx="0" cy="0" r="1" gradientUnits="userSpaceOnUse" gradientTransform="translate(216.583 207.032) rotate(111.218) scale(7.73817 22.6006)">
<stop offset="0.380208" stop-color="#D77A09"/>
<stop offset="1" stop-color="#D77A09" stop-opacity="0"/>
</radialGradient>
<radialGradient id="paint10_radial_7159_2155" cx="0" cy="0" r="1" gradientUnits="userSpaceOnUse" gradientTransform="translate(122.25 171.75) rotate(140.08) scale(7.98632 10.5118)">
<stop offset="0.493447" stop-color="#D77A09" stop-opacity="0.5"/>
<stop offset="1" stop-color="#D77A09" stop-opacity="0"/>
</radialGradient>
<radialGradient id="paint11_radial_7159_2155" cx="0" cy="0" r="1" gradientUnits="userSpaceOnUse" gradientTransform="translate(168.815 155.083) rotate(73.2562) scale(8.96201 4.77974)">
<stop offset="0.616663" stop-color="#D77A09" stop-opacity="0.5"/>
<stop offset="1" stop-color="#D77A09" stop-opacity="0"/>
</radialGradient>
<radialGradient id="paint12_radial_7159_2155" cx="0" cy="0" r="1" gradientUnits="userSpaceOnUse" gradientTransform="translate(161.688 146.573) rotate(35.2367) scale(10.4627 5.58012)">
<stop offset="0.616663" stop-color="#D77A09" stop-opacity="0.5"/>
<stop offset="1" stop-color="#D77A09" stop-opacity="0"/>
</radialGradient>
<radialGradient id="paint13_radial_7159_2155" cx="0" cy="0" r="1" gradientUnits="userSpaceOnUse" gradientTransform="translate(153.542 148.573) rotate(-17.057) scale(10.042 5.35572)">
<stop offset="0.616663" stop-color="#D77A09" stop-opacity="0.5"/>
<stop offset="1" stop-color="#D77A09" stop-opacity="0"/>
</radialGradient>
<radialGradient id="paint14_radial_7159_2155" cx="0" cy="0" r="1" gradientUnits="userSpaceOnUse" gradientTransform="translate(146.812 153.875) rotate(-84.144) scale(9.80114 5.75363)">
<stop offset="0.616663" stop-color="#D77A09" stop-opacity="0.5"/>
<stop offset="1" stop-color="#D77A09" stop-opacity="0"/>
</radialGradient>
<radialGradient id="paint15_radial_7159_2155" cx="0" cy="0" r="1" gradientUnits="userSpaceOnUse" gradientTransform="translate(104.75 155.875) rotate(69.6769) scale(7.19809 3.83898)">
<stop offset="0.616663" stop-color="#D77A09" stop-opacity="0.5"/>
<stop offset="1" stop-color="#D77A09" stop-opacity="0"/>
</radialGradient>
<radialGradient id="paint16_radial_7159_2155" cx="0" cy="0" r="1" gradientUnits="userSpaceOnUse" gradientTransform="translate(99.375 147.125) rotate(43.2986) scale(8.93116 4.76329)">
<stop offset="0.616663" stop-color="#D77A09" stop-opacity="0.5"/>
<stop offset="1" stop-color="#D77A09" stop-opacity="0"/>
</radialGradient>
<radialGradient id="paint17_radial_7159_2155" cx="0" cy="0" r="1" gradientUnits="userSpaceOnUse" gradientTransform="translate(87.75 150.75) rotate(-22.4794) scale(11.7693 6.27694)">
<stop offset="0.616663" stop-color="#D77A09" stop-opacity="0.5"/>
<stop offset="1" stop-color="#D77A09" stop-opacity="0"/>
</radialGradient>
<radialGradient id="paint18_radial_7159_2155" cx="0" cy="0" r="1" gradientUnits="userSpaceOnUse" gradientTransform="translate(82.75 154.75) rotate(-86.8202) scale(9.01388 5.29148)">
<stop offset="0.616663" stop-color="#D77A09" stop-opacity="0.5"/>
<stop offset="1" stop-color="#D77A09" stop-opacity="0"/>
</radialGradient>
<radialGradient id="paint19_radial_7159_2155" cx="0" cy="0" r="1" gradientUnits="userSpaceOnUse" gradientTransform="translate(64.8406 54.6654) rotate(44.113) scale(44.7129 12.4857)">
<stop offset="0.293395" stop-color="#FFDE68"/>
<stop offset="1" stop-color="#FFDD68" stop-opacity="0"/>
</radialGradient>
<radialGradient id="paint20_radial_7159_2155" cx="0" cy="0" r="1" gradientUnits="userSpaceOnUse" gradientTransform="translate(83.2465 65.9423) rotate(-65.2905) scale(25.7219 17.5782)">
<stop offset="0.257229" stop-color="#FFDE68"/>
<stop offset="1" stop-color="#FFDD68" stop-opacity="0"/>
</radialGradient>
<radialGradient id="paint21_radial_7159_2155" cx="0" cy="0" r="1" gradientUnits="userSpaceOnUse" gradientTransform="translate(220.354 46.0996) rotate(101.957) scale(20.4856 11.2921)">
<stop stop-color="#FFDE68"/>
<stop offset="1" stop-color="#FFDD68" stop-opacity="0"/>
</radialGradient>
<linearGradient id="paint22_linear_7159_2155" x1="84.8184" y1="84.9376" x2="37.9404" y2="80.5626" gradientUnits="userSpaceOnUse">
<stop offset="0.437473" stop-color="#ED8C1B"/>
<stop offset="1" stop-color="#FFB03A"/>
</linearGradient>
<radialGradient id="paint23_radial_7159_2155" cx="0" cy="0" r="1" gradientUnits="userSpaceOnUse" gradientTransform="translate(41.0503 82.9705) scale(2.48941 24.5836)">
<stop stop-color="white" stop-opacity="0.3"/>
<stop offset="1" stop-color="white" stop-opacity="0"/>
</radialGradient>
<radialGradient id="paint24_radial_7159_2155" cx="0" cy="0" r="1" gradientUnits="userSpaceOnUse" gradientTransform="translate(61.2833 97.0528) rotate(46.1691) scale(7.49185 73.9839)">
<stop stop-color="#ED8C1B" stop-opacity="0.8"/>
<stop offset="1" stop-color="#ED8C1B" stop-opacity="0"/>
</radialGradient>
<radialGradient id="paint25_radial_7159_2155" cx="0" cy="0" r="1" gradientUnits="userSpaceOnUse" gradientTransform="translate(59.4847 67.7552) rotate(-49.1362) scale(7.25807 71.6752)">
<stop stop-color="#ED8C1B" stop-opacity="0.5"/>
<stop offset="1" stop-color="#ED8C1B" stop-opacity="0"/>
</radialGradient>
<linearGradient id="paint26_linear_7159_2155" x1="202.319" y1="183.562" x2="234.969" y2="168.062" gradientUnits="userSpaceOnUse">
<stop offset="0.15625" stop-color="#D64A38"/>
<stop offset="1" stop-color="#FB7425"/>
</linearGradient>
<linearGradient id="paint27_linear_7159_2155" x1="218.598" y1="168.302" x2="222.777" y2="176.983" gradientUnits="userSpaceOnUse">
<stop stop-color="white" stop-opacity="0"/>
<stop offset="0.520833" stop-color="white" stop-opacity="0.2"/>
<stop offset="1" stop-color="white" stop-opacity="0"/>
</linearGradient>
<radialGradient id="paint28_radial_7159_2155" cx="0" cy="0" r="1" gradientUnits="userSpaceOnUse" gradientTransform="translate(199.718 182.699) rotate(-26.8937) scale(8.35848)">
<stop stop-color="#D64A38"/>
<stop offset="1" stop-color="#D64A38" stop-opacity="0"/>
</radialGradient>
<radialGradient id="paint29_radial_7159_2155" cx="0" cy="0" r="1" gradientUnits="userSpaceOnUse" gradientTransform="translate(239.785 164.049) rotate(151.353) scale(7.74028)">
<stop stop-color="#FB7425"/>
<stop offset="1" stop-color="#FB7425" stop-opacity="0"/>
</radialGradient>
<radialGradient id="paint30_radial_7159_2155" cx="0" cy="0" r="1" gradientUnits="userSpaceOnUse" gradientTransform="translate(235.569 164.029) rotate(125.032) scale(3.74973)">
<stop stop-color="white" stop-opacity="0.3"/>
<stop offset="1" stop-color="white" stop-opacity="0"/>
</radialGradient>
<linearGradient id="paint31_linear_7159_2155" x1="200.592" y1="197.677" x2="233.172" y2="213.321" gradientUnits="userSpaceOnUse">
<stop offset="0.15625" stop-color="#D64A38"/>
<stop offset="1" stop-color="#FB7425"/>
</linearGradient>
<linearGradient id="paint32_linear_7159_2155" x1="222.693" y1="200.741" x2="218.57" y2="209.449" gradientUnits="userSpaceOnUse">
<stop stop-color="white" stop-opacity="0"/>
<stop offset="0.520833" stop-color="white" stop-opacity="0.2"/>
<stop offset="1" stop-color="white" stop-opacity="0"/>
</linearGradient>
<radialGradient id="paint33_radial_7159_2155" cx="0" cy="0" r="1" gradientUnits="userSpaceOnUse" gradientTransform="translate(199.627 195.112) rotate(24.15) scale(8.35849 8.35849)">
<stop stop-color="#D64A38"/>
<stop offset="1" stop-color="#D64A38" stop-opacity="0"/>
</radialGradient>
<radialGradient id="paint34_radial_7159_2155" cx="0" cy="0" r="1" gradientUnits="userSpaceOnUse" gradientTransform="translate(239.322 214.542) rotate(-157.603) scale(7.74028 7.74028)">
<stop stop-color="#FB7425"/>
<stop offset="1" stop-color="#FB7425" stop-opacity="0"/>
</radialGradient>
<radialGradient id="paint35_radial_7159_2155" cx="0" cy="0" r="1" gradientUnits="userSpaceOnUse" gradientTransform="translate(236.804 210.244) rotate(154.486) scale(4.62979 4.62979)">
<stop stop-color="white" stop-opacity="0.3"/>
<stop offset="1" stop-color="white" stop-opacity="0"/>
</radialGradient>
<linearGradient id="paint36_linear_7159_2155" x1="56.1429" y1="197.771" x2="23.562" y2="213.415" gradientUnits="userSpaceOnUse">
<stop offset="0.15625" stop-color="#D64A38"/>
<stop offset="1" stop-color="#FB7425"/>
</linearGradient>
<linearGradient id="paint37_linear_7159_2155" x1="34.0418" y1="200.835" x2="38.1642" y2="209.542" gradientUnits="userSpaceOnUse">
<stop stop-color="white" stop-opacity="0"/>
<stop offset="0.520833" stop-color="white" stop-opacity="0.2"/>
<stop offset="1" stop-color="white" stop-opacity="0"/>
</linearGradient>
<radialGradient id="paint38_radial_7159_2155" cx="0" cy="0" r="1" gradientUnits="userSpaceOnUse" gradientTransform="translate(57.1071 195.205) rotate(155.85) scale(8.35849)">
<stop stop-color="#D64A38"/>
<stop offset="1" stop-color="#D64A38" stop-opacity="0"/>
</radialGradient>
<radialGradient id="paint39_radial_7159_2155" cx="0" cy="0" r="1" gradientUnits="userSpaceOnUse" gradientTransform="translate(17.4129 214.636) rotate(-22.3971) scale(7.74028)">
<stop stop-color="#FB7425"/>
<stop offset="1" stop-color="#FB7425" stop-opacity="0"/>
</radialGradient>
<radialGradient id="paint40_radial_7159_2155" cx="0" cy="0" r="1" gradientUnits="userSpaceOnUse" gradientTransform="translate(52.3102 196.534) rotate(141.872) scale(3.97399)">
<stop stop-color="white" stop-opacity="0.3"/>
<stop offset="1" stop-color="white" stop-opacity="0"/>
</radialGradient>
<linearGradient id="paint41_linear_7159_2155" x1="54.5455" y1="183.434" x2="21.82" y2="168.095" gradientUnits="userSpaceOnUse">
<stop offset="0.15625" stop-color="#D64A38"/>
<stop offset="1" stop-color="#FB7425"/>
</linearGradient>
<linearGradient id="paint42_linear_7159_2155" x1="38.1922" y1="168.254" x2="34.0558" y2="176.955" gradientUnits="userSpaceOnUse">
<stop stop-color="white" stop-opacity="0"/>
<stop offset="0.520833" stop-color="white" stop-opacity="0.2"/>
<stop offset="1" stop-color="white" stop-opacity="0"/>
</linearGradient>
<radialGradient id="paint43_radial_7159_2155" cx="0" cy="0" r="1" gradientUnits="userSpaceOnUse" gradientTransform="translate(57.1426 182.558) rotate(-153.389) scale(8.35849)">
<stop stop-color="#D64A38"/>
<stop offset="1" stop-color="#D64A38" stop-opacity="0"/>
</radialGradient>
<radialGradient id="paint44_radial_7159_2155" cx="0" cy="0" r="1" gradientUnits="userSpaceOnUse" gradientTransform="translate(16.9844 164.105) rotate(28.3641) scale(7.74028)">
<stop stop-color="#FB7425"/>
<stop offset="1" stop-color="#FB7425" stop-opacity="0"/>
</radialGradient>
<radialGradient id="paint45_radial_7159_2155" cx="0" cy="0" r="1" gradientUnits="userSpaceOnUse" gradientTransform="translate(53.0793 179.683) rotate(-167.367) scale(3.97399)">
<stop stop-color="white" stop-opacity="0.3"/>
<stop offset="1" stop-color="white" stop-opacity="0"/>
</radialGradient>
<linearGradient id="paint46_linear_7159_2155" x1="212.319" y1="124.063" x2="202.319" y2="96.3126" gradientUnits="userSpaceOnUse">
<stop stop-color="#EF8A47"/>
<stop offset="1" stop-color="#EF8A47" stop-opacity="0"/>
</linearGradient>
<radialGradient id="paint47_radial_7159_2155" cx="0" cy="0" r="1" gradientUnits="userSpaceOnUse" gradientTransform="translate(194.44 97.0528) rotate(133.831) scale(7.49185 73.9839)">
<stop stop-color="#FFA319"/>
<stop offset="1" stop-color="#FFBA19" stop-opacity="0"/>
</radialGradient>
<radialGradient id="paint48_radial_7159_2155" cx="0" cy="0" r="1" gradientUnits="userSpaceOnUse" gradientTransform="translate(217.783 82.25) scale(6.16929 60.9232)">
<stop stop-color="#FF9419"/>
<stop offset="1" stop-color="#FFBA19" stop-opacity="0"/>
</radialGradient>
<radialGradient id="paint49_radial_7159_2155" cx="0" cy="0" r="1" gradientUnits="userSpaceOnUse" gradientTransform="translate(196.239 67.7552) rotate(-130.864) scale(7.25807 71.6752)">
<stop stop-color="#FF9B19" stop-opacity="0.5"/>
<stop offset="1" stop-color="#FFBA19" stop-opacity="0"/>
</radialGradient>
<radialGradient id="paint50_radial_7159_2155" cx="0" cy="0" r="1" gradientUnits="userSpaceOnUse" gradientTransform="translate(199.414 92.9862) rotate(-45.7638) scale(4.02355 19.2081)">
<stop stop-color="white" stop-opacity="0.3"/>
<stop offset="1" stop-color="white" stop-opacity="0"/>
</radialGradient>
<radialGradient id="paint51_radial_7159_2155" cx="0" cy="0" r="1" gradientUnits="userSpaceOnUse" gradientTransform="translate(201.462 70.9862) rotate(-132.184) scale(3.27615 19.6218)">
<stop stop-color="white" stop-opacity="0.2"/>
<stop offset="1" stop-color="white" stop-opacity="0"/>
</radialGradient>
<radialGradient id="paint52_radial_7159_2155" cx="0" cy="0" r="1" gradientUnits="userSpaceOnUse" gradientTransform="translate(131.569 169.438) rotate(-153.246) scale(16.9383 17.0385)">
<stop stop-color="#FF2BA3"/>
<stop offset="1" stop-color="#F9326A"/>
</radialGradient>
<radialGradient id="paint53_radial_7159_2155" cx="0" cy="0" r="1" gradientUnits="userSpaceOnUse" gradientTransform="translate(132.229 165.613) rotate(90) scale(3.74254 6.579)">
<stop stop-color="white" stop-opacity="0.5"/>
<stop offset="1" stop-color="white" stop-opacity="0"/>
</radialGradient>
<linearGradient id="paint54_linear_7159_2155" x1="128.374" y1="220.18" x2="128.374" y2="184.803" gradientUnits="userSpaceOnUse">
<stop stop-color="#E61E27"/>
<stop offset="1" stop-color="#672A7A"/>
</linearGradient>
<radialGradient id="paint55_radial_7159_2155" cx="0" cy="0" r="1" gradientTransform="matrix(-0.878905 -46.0693 46.0543 -1.33648 96.1247 156.709)" gradientUnits="userSpaceOnUse">
<stop offset="0.166667" stop-color="#482641"/>
<stop offset="0.276042" stop-color="#594253"/>
<stop offset="0.401042" stop-color="#483637"/>
</radialGradient>
<linearGradient id="paint56_linear_7159_2155" x1="79.8747" y1="161.125" x2="93.9997" y2="150.875" gradientUnits="userSpaceOnUse">
<stop stop-color="#271B27"/>
<stop offset="1" stop-color="#483637" stop-opacity="0"/>
</linearGradient>
<radialGradient id="paint57_radial_7159_2155" cx="0" cy="0" r="1" gradientTransform="matrix(-0.878905 -46.0693 46.0543 -1.33648 159.875 156.709)" gradientUnits="userSpaceOnUse">
<stop offset="0.166667" stop-color="#482641"/>
<stop offset="0.276042" stop-color="#594253"/>
<stop offset="0.401042" stop-color="#483637"/>
</radialGradient>
<linearGradient id="paint58_linear_7159_2155" x1="143.625" y1="161.125" x2="157.75" y2="150.875" gradientUnits="userSpaceOnUse">
<stop stop-color="#271B27"/>
<stop offset="1" stop-color="#483637" stop-opacity="0"/>
</linearGradient>
</defs>
</svg>
