<svg width="256" height="256" viewBox="0 0 256 256" fill="none" xmlns="http://www.w3.org/2000/svg">
<path d="M130.667 256C199.887 256 256 199.939 256 130.783C256 61.6276 199.887 5.56543 130.667 5.56543C61.4475 5.56543 5.33337 61.6276 5.33337 130.783C5.33337 199.939 61.4475 256 130.667 256Z" fill="black"/>
<path d="M128 250.435C195.531 250.435 250.667 195.84 250.667 128C250.667 60.1619 195.531 5.56543 128 5.56543C60.4702 5.56543 5.33337 60.1619 5.33337 128C5.33337 195.84 60.4702 250.435 128 250.435Z" fill="#FF90E8"/>
<path fill-rule="evenodd" clip-rule="evenodd" d="M0 128C0 56.8859 57.7228 0 128 0C198.278 0 256 56.886 256 128C256 199.115 198.278 256 128 256C57.7228 256 0 199.115 0 128ZM128 8.97616C62.0746 8.97616 8.5906 62.2438 8.5906 128C8.5906 193.757 62.0746 247.024 128 247.024C193.926 247.024 247.409 193.757 247.409 128C247.409 62.2438 193.926 8.97616 128 8.97616Z" fill="black"/>
<path d="M113.401 189.218C78.9385 189.218 58.6666 160.089 58.6666 123.856C58.6666 86.2015 80.9654 55.6523 123.536 55.6523C167.459 55.6523 182.325 86.9128 183 104.673H151.241C150.566 94.7273 142.457 79.808 122.861 79.808C101.914 79.808 88.3989 98.9902 88.3989 122.435C88.3989 145.881 101.914 165.062 122.861 165.062C141.782 165.062 149.89 149.432 153.269 133.803H122.861V121.014H186.667V186.376H158.675V145.169C156.647 160.089 147.863 189.218 113.401 189.218Z" fill="black"/>
</svg>
