<svg width="256" height="256" viewBox="0 0 256 256" fill="none" xmlns="http://www.w3.org/2000/svg">
<path fill-rule="evenodd" clip-rule="evenodd" d="M25.6996 25.6449C28.8238 22.5207 33.8891 22.5207 37.0133 25.6449L101.493 90.1249C104.618 93.2491 104.618 98.3144 101.493 101.439C98.3691 104.563 93.3038 104.563 90.1796 101.439L25.6996 36.9586C22.5754 33.8344 22.5754 28.7691 25.6996 25.6449Z" fill="url(#paint0_linear_7159_2156)"/>
<path fill-rule="evenodd" clip-rule="evenodd" d="M25.6996 25.6449C28.8238 22.5207 33.8891 22.5207 37.0133 25.6449L101.493 90.1249C104.618 93.2491 104.618 98.3144 101.493 101.439C98.3691 104.563 93.3038 104.563 90.1796 101.439L25.6996 36.9586C22.5754 33.8344 22.5754 28.7691 25.6996 25.6449Z" fill="url(#paint1_radial_7159_2156)"/>
<path fill-rule="evenodd" clip-rule="evenodd" d="M25.6996 25.6449C28.8238 22.5207 33.8891 22.5207 37.0133 25.6449L101.493 90.1249C104.618 93.2491 104.618 98.3144 101.493 101.439C98.3691 104.563 93.3038 104.563 90.1796 101.439L25.6996 36.9586C22.5754 33.8344 22.5754 28.7691 25.6996 25.6449Z" fill="url(#paint2_radial_7159_2156)"/>
<path fill-rule="evenodd" clip-rule="evenodd" d="M25.6996 25.6449C28.8238 22.5207 33.8891 22.5207 37.0133 25.6449L101.493 90.1249C104.618 93.2491 104.618 98.3144 101.493 101.439C98.3691 104.563 93.3038 104.563 90.1796 101.439L25.6996 36.9586C22.5754 33.8344 22.5754 28.7691 25.6996 25.6449Z" fill="url(#paint3_linear_7159_2156)"/>
<path d="M121.16 237.626C125.806 240.277 131.444 240.126 136.072 237.444C163.193 221.726 209.129 186.551 227.307 141.031C254.327 81.0122 190.884 33.1013 147.036 67.5605C142.68 70.9842 137.256 74.879 133.33 78.6089C131.219 80.615 127.531 80.8197 125.358 78.8812C120.146 74.233 112.423 68.4787 107.396 65.0774C70.0149 39.7868 1.99924 73.1242 31.0123 144.274C41.5214 175.853 91.1574 220.506 121.16 237.626Z" fill="url(#paint4_radial_7159_2156)"/>
<path d="M121.16 237.626C125.806 240.277 131.444 240.126 136.072 237.444C163.193 221.726 209.129 186.551 227.307 141.031C254.327 81.0122 190.884 33.1013 147.036 67.5605C142.68 70.9842 137.256 74.879 133.33 78.6089C131.219 80.615 127.531 80.8197 125.358 78.8812C120.146 74.233 112.423 68.4787 107.396 65.0774C70.0149 39.7868 1.99924 73.1242 31.0123 144.274C41.5214 175.853 91.1574 220.506 121.16 237.626Z" fill="url(#paint5_radial_7159_2156)"/>
<path d="M121.16 237.626C125.806 240.277 131.444 240.126 136.072 237.444C163.193 221.726 209.129 186.551 227.307 141.031C254.327 81.0122 190.884 33.1013 147.036 67.5605C142.68 70.9842 137.256 74.879 133.33 78.6089C131.219 80.615 127.531 80.8197 125.358 78.8812C120.146 74.233 112.423 68.4787 107.396 65.0774C70.0149 39.7868 1.99924 73.1242 31.0123 144.274C41.5214 175.853 91.1574 220.506 121.16 237.626Z" fill="url(#paint6_radial_7159_2156)"/>
<path d="M121.16 237.626C125.806 240.277 131.444 240.126 136.072 237.444C163.193 221.726 209.129 186.551 227.307 141.031C254.327 81.0122 190.884 33.1013 147.036 67.5605C142.68 70.9842 137.256 74.879 133.33 78.6089C131.219 80.615 127.531 80.8197 125.358 78.8812C120.146 74.233 112.423 68.4787 107.396 65.0774C70.0149 39.7868 1.99924 73.1242 31.0123 144.274C41.5214 175.853 91.1574 220.506 121.16 237.626Z" fill="url(#paint7_radial_7159_2156)"/>
<path d="M121.16 237.626C125.806 240.277 131.444 240.126 136.072 237.444C163.193 221.726 209.129 186.551 227.307 141.031C254.327 81.0122 190.884 33.1013 147.036 67.5605C142.68 70.9842 137.256 74.879 133.33 78.6089C131.219 80.615 127.531 80.8197 125.358 78.8812C120.146 74.233 112.423 68.4787 107.396 65.0774C70.0149 39.7868 1.99924 73.1242 31.0123 144.274C41.5214 175.853 91.1574 220.506 121.16 237.626Z" fill="url(#paint8_radial_7159_2156)"/>
<path d="M121.16 237.626C125.806 240.277 131.444 240.126 136.072 237.444C163.193 221.726 209.129 186.551 227.307 141.031C254.327 81.0122 190.884 33.1013 147.036 67.5605C142.68 70.9842 137.256 74.879 133.33 78.6089C131.219 80.615 127.531 80.8197 125.358 78.8812C120.146 74.233 112.423 68.4787 107.396 65.0774C70.0149 39.7868 1.99924 73.1242 31.0123 144.274C41.5214 175.853 91.1574 220.506 121.16 237.626Z" fill="url(#paint9_linear_7159_2156)"/>
<path d="M121.16 237.626C125.806 240.277 131.444 240.126 136.072 237.444C163.193 221.726 209.129 186.551 227.307 141.031C254.327 81.0122 190.884 33.1013 147.036 67.5605C142.68 70.9842 137.256 74.879 133.33 78.6089C131.219 80.615 127.531 80.8197 125.358 78.8812C120.146 74.233 112.423 68.4787 107.396 65.0774C70.0149 39.7868 1.99924 73.1242 31.0123 144.274C41.5214 175.853 91.1574 220.506 121.16 237.626Z" fill="url(#paint10_radial_7159_2156)"/>
<path d="M121.16 237.626C125.806 240.277 131.444 240.126 136.072 237.444C163.193 221.726 209.129 186.551 227.307 141.031C254.327 81.0122 190.884 33.1013 147.036 67.5605C142.68 70.9842 137.256 74.879 133.33 78.6089C131.219 80.615 127.531 80.8197 125.358 78.8812C120.146 74.233 112.423 68.4787 107.396 65.0774C70.0149 39.7868 1.99924 73.1242 31.0123 144.274C41.5214 175.853 91.1574 220.506 121.16 237.626Z" fill="url(#paint11_radial_7159_2156)"/>
<path d="M121.16 237.626C125.806 240.277 131.444 240.126 136.072 237.444C163.193 221.726 209.129 186.551 227.307 141.031C254.327 81.0122 190.884 33.1013 147.036 67.5605C142.68 70.9842 137.256 74.879 133.33 78.6089C131.219 80.615 127.531 80.8197 125.358 78.8812C120.146 74.233 112.423 68.4787 107.396 65.0774C70.0149 39.7868 1.99924 73.1242 31.0123 144.274C41.5214 175.853 91.1574 220.506 121.16 237.626Z" fill="url(#paint12_radial_7159_2156)"/>
<path d="M121.16 237.626C125.806 240.277 131.444 240.126 136.072 237.444C163.193 221.726 209.129 186.551 227.307 141.031C254.327 81.0122 190.884 33.1013 147.036 67.5605C142.68 70.9842 137.256 74.879 133.33 78.6089C131.219 80.615 127.531 80.8197 125.358 78.8812C120.146 74.233 112.423 68.4787 107.396 65.0774C70.0149 39.7868 1.99924 73.1242 31.0123 144.274C41.5214 175.853 91.1574 220.506 121.16 237.626Z" fill="url(#paint13_radial_7159_2156)"/>
<path d="M121.16 237.626C125.806 240.277 131.444 240.126 136.072 237.444C163.193 221.726 209.129 186.551 227.307 141.031C254.327 81.0122 190.884 33.1013 147.036 67.5605C142.68 70.9842 137.256 74.879 133.33 78.6089C131.219 80.615 127.531 80.8197 125.358 78.8812C120.146 74.233 112.423 68.4787 107.396 65.0774C70.0149 39.7868 1.99924 73.1242 31.0123 144.274C41.5214 175.853 91.1574 220.506 121.16 237.626Z" fill="url(#paint14_radial_7159_2156)"/>
<path d="M121.16 237.626C125.806 240.277 131.444 240.126 136.072 237.444C163.193 221.726 209.129 186.551 227.307 141.031C254.327 81.0122 190.884 33.1013 147.036 67.5605C142.68 70.9842 137.256 74.879 133.33 78.6089C131.219 80.615 127.531 80.8197 125.358 78.8812C120.146 74.233 112.423 68.4787 107.396 65.0774C70.0149 39.7868 1.99924 73.1242 31.0123 144.274C41.5214 175.853 91.1574 220.506 121.16 237.626Z" fill="url(#paint15_radial_7159_2156)"/>
<path d="M121.16 237.626C125.806 240.277 131.444 240.126 136.072 237.444C163.193 221.726 209.129 186.551 227.307 141.031C254.327 81.0122 190.884 33.1013 147.036 67.5605C142.68 70.9842 137.256 74.879 133.33 78.6089C131.219 80.615 127.531 80.8197 125.358 78.8812C120.146 74.233 112.423 68.4787 107.396 65.0774C70.0149 39.7868 1.99924 73.1242 31.0123 144.274C41.5214 175.853 91.1574 220.506 121.16 237.626Z" fill="url(#paint16_radial_7159_2156)"/>
<path d="M121.16 237.626C125.806 240.277 131.444 240.126 136.072 237.444C163.193 221.726 209.129 186.551 227.307 141.031C254.327 81.0122 190.884 33.1013 147.036 67.5605C142.68 70.9842 137.256 74.879 133.33 78.6089C131.219 80.615 127.531 80.8197 125.358 78.8812C120.146 74.233 112.423 68.4787 107.396 65.0774C70.0149 39.7868 1.99924 73.1242 31.0123 144.274C41.5214 175.853 91.1574 220.506 121.16 237.626Z" fill="url(#paint17_linear_7159_2156)"/>
<path d="M121.16 237.626C125.806 240.277 131.444 240.126 136.072 237.444C163.193 221.726 209.129 186.551 227.307 141.031C254.327 81.0122 190.884 33.1013 147.036 67.5605C142.68 70.9842 137.256 74.879 133.33 78.6089C131.219 80.615 127.531 80.8197 125.358 78.8812C120.146 74.233 112.423 68.4787 107.396 65.0774C70.0149 39.7868 1.99924 73.1242 31.0123 144.274C41.5214 175.853 91.1574 220.506 121.16 237.626Z" fill="url(#paint18_linear_7159_2156)"/>
<path d="M121.16 237.626C125.806 240.277 131.444 240.126 136.072 237.444C163.193 221.726 209.129 186.551 227.307 141.031C254.327 81.0122 190.884 33.1013 147.036 67.5605C142.68 70.9842 137.256 74.879 133.33 78.6089C131.219 80.615 127.531 80.8197 125.358 78.8812C120.146 74.233 112.423 68.4787 107.396 65.0774C70.0149 39.7868 1.99924 73.1242 31.0123 144.274C41.5214 175.853 91.1574 220.506 121.16 237.626Z" fill="url(#paint19_radial_7159_2156)"/>
<path d="M28.7681 61.3097L16.8481 22.5097C15.8881 19.1497 19.0081 16.0297 22.3681 16.9897L61.1681 28.9097C64.2881 29.8697 65.3281 33.8697 63.0081 36.1897L36.0481 63.0697C33.7281 65.3897 29.7281 64.4297 28.7681 61.3097Z" fill="url(#paint20_linear_7159_2156)"/>
<path d="M28.0962 60.4963L16.1762 21.6962C15.2163 18.3363 18.3363 15.2163 21.6962 16.1762L60.4963 28.0962C63.6163 29.0562 64.6563 33.0563 62.3363 35.3763L35.3763 62.2563C33.0563 64.5763 29.0562 63.6163 28.0962 60.4963Z" fill="url(#paint21_linear_7159_2156)"/>
<path d="M209.286 217.694L169.286 176.734L169.126 201.934C169.126 206.494 170.886 210.814 174.006 214.094L196.726 237.374L196.806 237.454L196.886 237.534C199.046 239.694 202.006 240.974 205.286 240.974C211.926 240.974 217.286 235.614 217.286 228.974C217.286 223.774 213.926 219.374 209.286 217.694Z" fill="url(#paint22_linear_7159_2156)"/>
<path d="M218.166 208.974L177.206 168.974L202.406 168.814C206.966 168.814 211.286 170.574 214.566 173.694L237.846 196.414L237.926 196.494L238.006 196.574C240.166 198.734 241.446 201.694 241.446 204.974C241.446 211.614 236.086 216.974 229.446 216.974C224.166 216.974 219.766 213.614 218.166 208.974Z" fill="url(#paint23_linear_7159_2156)"/>
<path d="M207.536 216.256L167.536 175.296L167.376 200.496C167.376 205.056 169.136 209.376 172.256 212.656L194.976 235.936L195.056 236.016L195.136 236.096C197.296 238.256 200.256 239.536 203.536 239.536C210.176 239.536 215.536 234.176 215.536 227.536C215.536 222.336 212.176 217.936 207.536 216.256Z" fill="url(#paint24_linear_7159_2156)"/>
<path d="M216.416 207.536L175.456 167.536L200.656 167.376C205.216 167.376 209.536 169.136 212.816 172.256L236.096 194.976L236.176 195.056L236.256 195.136C238.416 197.296 239.696 200.256 239.696 203.536C239.696 210.176 234.336 215.536 227.696 215.536C222.416 215.536 218.016 212.176 216.416 207.536Z" fill="url(#paint25_linear_7159_2156)"/>
<path fill-rule="evenodd" clip-rule="evenodd" d="M138.039 138.039C141.164 134.915 146.229 134.915 149.353 138.039L213.833 202.519C216.957 205.644 216.957 210.709 213.833 213.833C210.709 216.957 205.644 216.957 202.519 213.833L138.039 149.353C134.915 146.229 134.915 141.164 138.039 138.039Z" fill="url(#paint26_linear_7159_2156)"/>
<path fill-rule="evenodd" clip-rule="evenodd" d="M138.039 138.039C141.164 134.915 146.229 134.915 149.353 138.039L213.833 202.519C216.957 205.644 216.957 210.709 213.833 213.833C210.709 216.957 205.644 216.957 202.519 213.833L138.039 149.353C134.915 146.229 134.915 141.164 138.039 138.039Z" fill="url(#paint27_radial_7159_2156)"/>
<path fill-rule="evenodd" clip-rule="evenodd" d="M138.039 138.039C141.164 134.915 146.229 134.915 149.353 138.039L213.833 202.519C216.957 205.644 216.957 210.709 213.833 213.833C210.709 216.957 205.644 216.957 202.519 213.833L138.039 149.353C134.915 146.229 134.915 141.164 138.039 138.039Z" fill="url(#paint28_radial_7159_2156)"/>
<path fill-rule="evenodd" clip-rule="evenodd" d="M138.039 138.039C141.164 134.915 146.229 134.915 149.353 138.039L213.833 202.519C216.957 205.644 216.957 210.709 213.833 213.833C210.709 216.957 205.644 216.957 202.519 213.833L138.039 149.353C134.915 146.229 134.915 141.164 138.039 138.039Z" fill="url(#paint29_radial_7159_2156)"/>
<defs>
<linearGradient id="paint0_linear_7159_2156" x1="73.8978" y1="62.3871" x2="62.7292" y2="73.5557" gradientUnits="userSpaceOnUse">
<stop stop-color="#FF9D49"/>
<stop offset="0.510417" stop-color="#FA8F3E"/>
<stop offset="1" stop-color="#FF9D49"/>
</linearGradient>
<radialGradient id="paint1_radial_7159_2156" cx="0" cy="0" r="1" gradientUnits="userSpaceOnUse" gradientTransform="translate(101.714 101.077) rotate(-135) scale(13.1722)">
<stop stop-color="#FF9D49"/>
<stop offset="1" stop-color="#FF9D49" stop-opacity="0"/>
</radialGradient>
<radialGradient id="paint2_radial_7159_2156" cx="0" cy="0" r="1" gradientUnits="userSpaceOnUse" gradientTransform="translate(26.2014 25.5643) rotate(45) scale(12.5511)">
<stop stop-color="#FF9D49"/>
<stop offset="1" stop-color="#FF9D49" stop-opacity="0"/>
</radialGradient>
<linearGradient id="paint3_linear_7159_2156" x1="41.4047" y1="54.5625" x2="48.7127" y2="54.5625" gradientUnits="userSpaceOnUse">
<stop stop-opacity="0.5"/>
<stop offset="1" stop-opacity="0"/>
</linearGradient>
<radialGradient id="paint4_radial_7159_2156" cx="0" cy="0" r="1" gradientUnits="userSpaceOnUse" gradientTransform="translate(128 64) rotate(90.2699) scale(173.124 178.276)">
<stop stop-color="#FF3482"/>
<stop offset="1" stop-color="#FF1F5F"/>
</radialGradient>
<radialGradient id="paint5_radial_7159_2156" cx="0" cy="0" r="1" gradientUnits="userSpaceOnUse" gradientTransform="translate(280 160) rotate(166.261) scale(264.263)">
<stop offset="0.46875" stop-color="#FF5B99" stop-opacity="0"/>
<stop offset="0.625" stop-color="#B91D43"/>
</radialGradient>
<radialGradient id="paint6_radial_7159_2156" cx="0" cy="0" r="1" gradientUnits="userSpaceOnUse" gradientTransform="translate(248 92) rotate(43.4926) scale(215.035 221.434)">
<stop offset="0.436191" stop-color="#FF2C64" stop-opacity="0"/>
<stop offset="0.579111" stop-color="#FF2C64"/>
<stop offset="0.820977" stop-color="#FF2C64"/>
</radialGradient>
<radialGradient id="paint7_radial_7159_2156" cx="0" cy="0" r="1" gradientUnits="userSpaceOnUse" gradientTransform="translate(220 76) rotate(129.472) scale(88.0908 40.3098)">
<stop offset="0.285125" stop-color="#FF7AA9"/>
<stop offset="1" stop-color="#FF689F" stop-opacity="0"/>
</radialGradient>
<radialGradient id="paint8_radial_7159_2156" cx="0" cy="0" r="1" gradientUnits="userSpaceOnUse" gradientTransform="translate(92 72) rotate(74.876) scale(153.31 58.0501)">
<stop stop-color="#FF94BA"/>
<stop offset="0.829857" stop-color="#FF689F" stop-opacity="0"/>
</radialGradient>
<linearGradient id="paint9_linear_7159_2156" x1="200" y1="112" x2="108" y2="120" gradientUnits="userSpaceOnUse">
<stop offset="0.592259" stop-color="#FF2F77" stop-opacity="0"/>
<stop offset="0.728317" stop-color="#FF2F77"/>
<stop offset="0.889416" stop-color="#FF2F77" stop-opacity="0"/>
</linearGradient>
<radialGradient id="paint10_radial_7159_2156" cx="0" cy="0" r="1" gradientUnits="userSpaceOnUse" gradientTransform="translate(96 208) rotate(114.057) scale(735.924 578.633)">
<stop offset="0.213872" stop-color="#FF5597" stop-opacity="0"/>
<stop offset="0.280316" stop-color="#FF5597"/>
</radialGradient>
<radialGradient id="paint11_radial_7159_2156" cx="0" cy="0" r="1" gradientUnits="userSpaceOnUse" gradientTransform="translate(140 148) rotate(114.444) scale(48.3322 23.7575)">
<stop stop-color="#CA164C"/>
<stop offset="1" stop-color="#FF2C77" stop-opacity="0"/>
</radialGradient>
<radialGradient id="paint12_radial_7159_2156" cx="0" cy="0" r="1" gradientUnits="userSpaceOnUse" gradientTransform="translate(152 132) rotate(111.801) scale(21.5407)">
<stop stop-color="#FE3E80"/>
<stop offset="1" stop-color="#FE3E80" stop-opacity="0"/>
</radialGradient>
<radialGradient id="paint13_radial_7159_2156" cx="0" cy="0" r="1" gradientUnits="userSpaceOnUse" gradientTransform="translate(88 52) rotate(75.0686) scale(62.0967 62.0967)">
<stop offset="0.226211" stop-color="#FF3A8C"/>
<stop offset="1" stop-color="#FF3A8C" stop-opacity="0"/>
</radialGradient>
<radialGradient id="paint14_radial_7159_2156" cx="0" cy="0" r="1" gradientUnits="userSpaceOnUse" gradientTransform="translate(108 52) rotate(93.8141) scale(60.1332)">
<stop offset="0.226211" stop-color="#FF3A8C"/>
<stop offset="0.631601" stop-color="#FF3A8C" stop-opacity="0"/>
</radialGradient>
<radialGradient id="paint15_radial_7159_2156" cx="0" cy="0" r="1" gradientUnits="userSpaceOnUse" gradientTransform="translate(248 92) rotate(45.6161) scale(263.059 270.887)">
<stop offset="0.605375" stop-color="#D32750" stop-opacity="0"/>
<stop offset="0.760922" stop-color="#D32750"/>
</radialGradient>
<radialGradient id="paint16_radial_7159_2156" cx="0" cy="0" r="1" gradientUnits="userSpaceOnUse" gradientTransform="translate(212 168) rotate(26.9802) scale(246.868 153.912)">
<stop offset="0.734432" stop-color="#C03D60" stop-opacity="0"/>
<stop offset="0.785127" stop-color="#C03D60"/>
</radialGradient>
<linearGradient id="paint17_linear_7159_2156" x1="72" y1="256" x2="136" y2="176" gradientUnits="userSpaceOnUse">
<stop offset="0.389423" stop-color="#E3559F"/>
<stop offset="0.508449" stop-color="#E3559F" stop-opacity="0"/>
</linearGradient>
<linearGradient id="paint18_linear_7159_2156" x1="184" y1="244" x2="136" y2="176" gradientUnits="userSpaceOnUse">
<stop offset="0.34991" stop-color="#E3559F"/>
<stop offset="0.458081" stop-color="#E3559F" stop-opacity="0"/>
</linearGradient>
<radialGradient id="paint19_radial_7159_2156" cx="0" cy="0" r="1" gradientUnits="userSpaceOnUse" gradientTransform="translate(132 248) rotate(-86.8202) scale(72.111 82.4251)">
<stop offset="0.0975182" stop-color="#E3559F"/>
<stop offset="0.250164" stop-color="#E3559F" stop-opacity="0"/>
</radialGradient>
<linearGradient id="paint20_linear_7159_2156" x1="49.6551" y1="64.3551" x2="60.2846" y2="50.7601" gradientUnits="userSpaceOnUse">
<stop stop-color="#7648EE"/>
<stop offset="1" stop-color="#8978E3"/>
</linearGradient>
<linearGradient id="paint21_linear_7159_2156" x1="21.6202" y1="21.6203" x2="60" y2="68" gradientUnits="userSpaceOnUse">
<stop stop-color="#7F5CD9"/>
<stop offset="1" stop-color="#614EAC"/>
</linearGradient>
<linearGradient id="paint22_linear_7159_2156" x1="202.5" y1="240.974" x2="217.286" y2="226.813" gradientUnits="userSpaceOnUse">
<stop stop-color="#7648EE"/>
<stop offset="1" stop-color="#8978E3"/>
</linearGradient>
<linearGradient id="paint23_linear_7159_2156" x1="221.723" y1="216.974" x2="231.41" y2="200.468" gradientUnits="userSpaceOnUse">
<stop stop-color="#7648EE"/>
<stop offset="1" stop-color="#8978E3"/>
</linearGradient>
<linearGradient id="paint24_linear_7159_2156" x1="175.232" y1="199.252" x2="208.097" y2="232.116" gradientUnits="userSpaceOnUse">
<stop stop-color="#7A4ACA"/>
<stop offset="1" stop-color="#654DB7"/>
</linearGradient>
<linearGradient id="paint25_linear_7159_2156" x1="196" y1="176" x2="205.557" y2="215.79" gradientUnits="userSpaceOnUse">
<stop stop-color="#7A4ACA"/>
<stop offset="1" stop-color="#654DB7"/>
</linearGradient>
<linearGradient id="paint26_linear_7159_2156" x1="186.238" y1="174.782" x2="175.069" y2="185.95" gradientUnits="userSpaceOnUse">
<stop stop-color="#FF9D49"/>
<stop offset="0.510417" stop-color="#FA8F3E"/>
<stop offset="1" stop-color="#FF9D49"/>
</linearGradient>
<radialGradient id="paint27_radial_7159_2156" cx="0" cy="0" r="1" gradientUnits="userSpaceOnUse" gradientTransform="translate(214.054 213.471) rotate(-135) scale(13.1722)">
<stop stop-color="#FF9D49"/>
<stop offset="1" stop-color="#FF9D49" stop-opacity="0"/>
</radialGradient>
<radialGradient id="paint28_radial_7159_2156" cx="0" cy="0" r="1" gradientUnits="userSpaceOnUse" gradientTransform="translate(212.125 206.406) rotate(-180) scale(5.25)">
<stop stop-color="white" stop-opacity="0.3"/>
<stop offset="1" stop-color="white" stop-opacity="0"/>
</radialGradient>
<radialGradient id="paint29_radial_7159_2156" cx="0" cy="0" r="1" gradientUnits="userSpaceOnUse" gradientTransform="translate(138.541 137.959) rotate(45) scale(12.5511)">
<stop stop-color="#FF9D49"/>
<stop offset="1" stop-color="#FF9D49" stop-opacity="0"/>
</radialGradient>
</defs>
</svg>
