<svg width="32" height="32" viewBox="0 0 32 32" fill="none" xmlns="http://www.w3.org/2000/svg">
<path d="M4.94873 23.8438C5.99658 23.6826 6.70654 22.4063 6.86279 21.5938C7.40185 17.9376 8.1206 13.1954 8.4644 9.96882C8.55383 9.12951 8.15926 8.42903 7.73002 8.10163C6.8781 7.46963 6.01108 7.81262 5.26129 8.53913C4.43889 9.32587 3.83155 10.0626 2.50342 11.6719C2.02473 12.252 1.69379 13.5779 2.5034 14.1954C3.07421 14.613 3.88623 14.3204 4.38623 13.9688C4.00341 16.6798 3.47997 20.2813 3.30029 22.3516C3.30161 23.4109 3.83154 24.0157 4.94873 23.8438Z" fill="url(#paint0_linear_7159_2157)"/>
<path d="M4.94873 23.8438C5.99658 23.6826 6.70654 22.4063 6.86279 21.5938C7.40185 17.9376 8.1206 13.1954 8.4644 9.96882C8.55383 9.12951 8.15926 8.42903 7.73002 8.10163C6.8781 7.46963 6.01108 7.81262 5.26129 8.53913C4.43889 9.32587 3.83155 10.0626 2.50342 11.6719C2.02473 12.252 1.69379 13.5779 2.5034 14.1954C3.07421 14.613 3.88623 14.3204 4.38623 13.9688C4.00341 16.6798 3.47997 20.2813 3.30029 22.3516C3.30161 23.4109 3.83154 24.0157 4.94873 23.8438Z" fill="url(#paint1_linear_7159_2157)"/>
<path d="M4.94873 23.8438C5.99658 23.6826 6.70654 22.4063 6.86279 21.5938C7.40185 17.9376 8.1206 13.1954 8.4644 9.96882C8.55383 9.12951 8.15926 8.42903 7.73002 8.10163C6.8781 7.46963 6.01108 7.81262 5.26129 8.53913C4.43889 9.32587 3.83155 10.0626 2.50342 11.6719C2.02473 12.252 1.69379 13.5779 2.5034 14.1954C3.07421 14.613 3.88623 14.3204 4.38623 13.9688C4.00341 16.6798 3.47997 20.2813 3.30029 22.3516C3.30161 23.4109 3.83154 24.0157 4.94873 23.8438Z" fill="url(#paint2_linear_7159_2157)"/>
<path d="M4.94873 23.8438C5.99658 23.6826 6.70654 22.4063 6.86279 21.5938C7.40185 17.9376 8.1206 13.1954 8.4644 9.96882C8.55383 9.12951 8.15926 8.42903 7.73002 8.10163C6.8781 7.46963 6.01108 7.81262 5.26129 8.53913C4.43889 9.32587 3.83155 10.0626 2.50342 11.6719C2.02473 12.252 1.69379 13.5779 2.5034 14.1954C3.07421 14.613 3.88623 14.3204 4.38623 13.9688C4.00341 16.6798 3.47997 20.2813 3.30029 22.3516C3.30161 23.4109 3.83154 24.0157 4.94873 23.8438Z" fill="url(#paint3_linear_7159_2157)"/>
<path d="M4.94873 23.8438C5.99658 23.6826 6.70654 22.4063 6.86279 21.5938C7.40185 17.9376 8.1206 13.1954 8.4644 9.96882C8.55383 9.12951 8.15926 8.42903 7.73002 8.10163C6.8781 7.46963 6.01108 7.81262 5.26129 8.53913C4.43889 9.32587 3.83155 10.0626 2.50342 11.6719C2.02473 12.252 1.69379 13.5779 2.5034 14.1954C3.07421 14.613 3.88623 14.3204 4.38623 13.9688C4.00341 16.6798 3.47997 20.2813 3.30029 22.3516C3.30161 23.4109 3.83154 24.0157 4.94873 23.8438Z" fill="url(#paint4_radial_7159_2157)"/>
<path d="M4.94873 23.8438C5.99658 23.6826 6.70654 22.4063 6.86279 21.5938C7.40185 17.9376 8.1206 13.1954 8.4644 9.96882C8.55383 9.12951 8.15926 8.42903 7.73002 8.10163C6.8781 7.46963 6.01108 7.81262 5.26129 8.53913C4.43889 9.32587 3.83155 10.0626 2.50342 11.6719C2.02473 12.252 1.69379 13.5779 2.5034 14.1954C3.07421 14.613 3.88623 14.3204 4.38623 13.9688C4.00341 16.6798 3.47997 20.2813 3.30029 22.3516C3.30161 23.4109 3.83154 24.0157 4.94873 23.8438Z" fill="url(#paint5_radial_7159_2157)"/>
<path d="M9.04242 15.3829C8.93304 16.586 8.81795 18.145 9.75334 19.211C10.6129 20.1814 11.433 20.3907 12.9877 20.297C14.5111 20.0157 15.8158 19.0313 16.4252 18.422C17.3158 17.5313 18.168 16.0887 18.4096 14.6016C18.5912 13.619 18.6878 12.4787 18.8549 11.4845C19.1596 9.67196 19.019 8.30477 18.2924 7.31258C17.7611 6.48446 16.6461 5.97105 15.3783 6.04696C14.0607 6.12585 12.469 6.88143 11.3471 8.1954C10.3735 9.33562 9.7221 10.6641 9.45848 12.2821C9.33929 13.1954 9.17522 14.3907 9.04242 15.3829ZM12.6518 15.297C12.8315 13.8595 12.9721 12.7032 13.183 11.211C13.3243 10.3911 14.0658 9.92196 14.5111 9.92196C15.15 9.88371 15.4217 10.3726 15.3236 11.211C15.1674 12.547 15.0196 13.8283 14.8002 15.1016C14.659 15.9216 14.0892 16.4359 13.4503 16.4741C12.9182 16.506 12.5971 16.1407 12.6518 15.297Z" fill="url(#paint6_linear_7159_2157)"/>
<path d="M9.04242 15.3829C8.93304 16.586 8.81795 18.145 9.75334 19.211C10.6129 20.1814 11.433 20.3907 12.9877 20.297C14.5111 20.0157 15.8158 19.0313 16.4252 18.422C17.3158 17.5313 18.168 16.0887 18.4096 14.6016C18.5912 13.619 18.6878 12.4787 18.8549 11.4845C19.1596 9.67196 19.019 8.30477 18.2924 7.31258C17.7611 6.48446 16.6461 5.97105 15.3783 6.04696C14.0607 6.12585 12.469 6.88143 11.3471 8.1954C10.3735 9.33562 9.7221 10.6641 9.45848 12.2821C9.33929 13.1954 9.17522 14.3907 9.04242 15.3829ZM12.6518 15.297C12.8315 13.8595 12.9721 12.7032 13.183 11.211C13.3243 10.3911 14.0658 9.92196 14.5111 9.92196C15.15 9.88371 15.4217 10.3726 15.3236 11.211C15.1674 12.547 15.0196 13.8283 14.8002 15.1016C14.659 15.9216 14.0892 16.4359 13.4503 16.4741C12.9182 16.506 12.5971 16.1407 12.6518 15.297Z" fill="url(#paint7_radial_7159_2157)"/>
<path d="M9.04242 15.3829C8.93304 16.586 8.81795 18.145 9.75334 19.211C10.6129 20.1814 11.433 20.3907 12.9877 20.297C14.5111 20.0157 15.8158 19.0313 16.4252 18.422C17.3158 17.5313 18.168 16.0887 18.4096 14.6016C18.5912 13.619 18.6878 12.4787 18.8549 11.4845C19.1596 9.67196 19.019 8.30477 18.2924 7.31258C17.7611 6.48446 16.6461 5.97105 15.3783 6.04696C14.0607 6.12585 12.469 6.88143 11.3471 8.1954C10.3735 9.33562 9.7221 10.6641 9.45848 12.2821C9.33929 13.1954 9.17522 14.3907 9.04242 15.3829ZM12.6518 15.297C12.8315 13.8595 12.9721 12.7032 13.183 11.211C13.3243 10.3911 14.0658 9.92196 14.5111 9.92196C15.15 9.88371 15.4217 10.3726 15.3236 11.211C15.1674 12.547 15.0196 13.8283 14.8002 15.1016C14.659 15.9216 14.0892 16.4359 13.4503 16.4741C12.9182 16.506 12.5971 16.1407 12.6518 15.297Z" fill="url(#paint8_linear_7159_2157)"/>
<path d="M9.04242 15.3829C8.93304 16.586 8.81795 18.145 9.75334 19.211C10.6129 20.1814 11.433 20.3907 12.9877 20.297C14.5111 20.0157 15.8158 19.0313 16.4252 18.422C17.3158 17.5313 18.168 16.0887 18.4096 14.6016C18.5912 13.619 18.6878 12.4787 18.8549 11.4845C19.1596 9.67196 19.019 8.30477 18.2924 7.31258C17.7611 6.48446 16.6461 5.97105 15.3783 6.04696C14.0607 6.12585 12.469 6.88143 11.3471 8.1954C10.3735 9.33562 9.7221 10.6641 9.45848 12.2821C9.33929 13.1954 9.17522 14.3907 9.04242 15.3829ZM12.6518 15.297C12.8315 13.8595 12.9721 12.7032 13.183 11.211C13.3243 10.3911 14.0658 9.92196 14.5111 9.92196C15.15 9.88371 15.4217 10.3726 15.3236 11.211C15.1674 12.547 15.0196 13.8283 14.8002 15.1016C14.659 15.9216 14.0892 16.4359 13.4503 16.4741C12.9182 16.506 12.5971 16.1407 12.6518 15.297Z" fill="url(#paint9_linear_7159_2157)"/>
<path d="M9.04242 15.3829C8.93304 16.586 8.81795 18.145 9.75334 19.211C10.6129 20.1814 11.433 20.3907 12.9877 20.297C14.5111 20.0157 15.8158 19.0313 16.4252 18.422C17.3158 17.5313 18.168 16.0887 18.4096 14.6016C18.5912 13.619 18.6878 12.4787 18.8549 11.4845C19.1596 9.67196 19.019 8.30477 18.2924 7.31258C17.7611 6.48446 16.6461 5.97105 15.3783 6.04696C14.0607 6.12585 12.469 6.88143 11.3471 8.1954C10.3735 9.33562 9.7221 10.6641 9.45848 12.2821C9.33929 13.1954 9.17522 14.3907 9.04242 15.3829ZM12.6518 15.297C12.8315 13.8595 12.9721 12.7032 13.183 11.211C13.3243 10.3911 14.0658 9.92196 14.5111 9.92196C15.15 9.88371 15.4217 10.3726 15.3236 11.211C15.1674 12.547 15.0196 13.8283 14.8002 15.1016C14.659 15.9216 14.0892 16.4359 13.4503 16.4741C12.9182 16.506 12.5971 16.1407 12.6518 15.297Z" fill="url(#paint10_radial_7159_2157)"/>
<path d="M9.04242 15.3829C8.93304 16.586 8.81795 18.145 9.75334 19.211C10.6129 20.1814 11.433 20.3907 12.9877 20.297C14.5111 20.0157 15.8158 19.0313 16.4252 18.422C17.3158 17.5313 18.168 16.0887 18.4096 14.6016C18.5912 13.619 18.6878 12.4787 18.8549 11.4845C19.1596 9.67196 19.019 8.30477 18.2924 7.31258C17.7611 6.48446 16.6461 5.97105 15.3783 6.04696C14.0607 6.12585 12.469 6.88143 11.3471 8.1954C10.3735 9.33562 9.7221 10.6641 9.45848 12.2821C9.33929 13.1954 9.17522 14.3907 9.04242 15.3829ZM12.6518 15.297C12.8315 13.8595 12.9721 12.7032 13.183 11.211C13.3243 10.3911 14.0658 9.92196 14.5111 9.92196C15.15 9.88371 15.4217 10.3726 15.3236 11.211C15.1674 12.547 15.0196 13.8283 14.8002 15.1016C14.659 15.9216 14.0892 16.4359 13.4503 16.4741C12.9182 16.506 12.5971 16.1407 12.6518 15.297Z" fill="url(#paint11_radial_7159_2157)"/>
<path d="M9.04242 15.3829C8.93304 16.586 8.81795 18.145 9.75334 19.211C10.6129 20.1814 11.433 20.3907 12.9877 20.297C14.5111 20.0157 15.8158 19.0313 16.4252 18.422C17.3158 17.5313 18.168 16.0887 18.4096 14.6016C18.5912 13.619 18.6878 12.4787 18.8549 11.4845C19.1596 9.67196 19.019 8.30477 18.2924 7.31258C17.7611 6.48446 16.6461 5.97105 15.3783 6.04696C14.0607 6.12585 12.469 6.88143 11.3471 8.1954C10.3735 9.33562 9.7221 10.6641 9.45848 12.2821C9.33929 13.1954 9.17522 14.3907 9.04242 15.3829ZM12.6518 15.297C12.8315 13.8595 12.9721 12.7032 13.183 11.211C13.3243 10.3911 14.0658 9.92196 14.5111 9.92196C15.15 9.88371 15.4217 10.3726 15.3236 11.211C15.1674 12.547 15.0196 13.8283 14.8002 15.1016C14.659 15.9216 14.0892 16.4359 13.4503 16.4741C12.9182 16.506 12.5971 16.1407 12.6518 15.297Z" fill="url(#paint12_radial_7159_2157)"/>
<path d="M19.843 13.0704C19.7336 14.2735 19.6185 15.8325 20.5539 16.8985C21.4134 17.8689 22.2336 18.0782 23.7882 17.9845C25.3117 17.7032 26.6164 16.7188 27.2257 16.1095C28.1164 15.2188 28.9686 13.7762 29.2101 12.2891C29.3917 11.3065 29.4883 10.1662 29.6554 9.17196C29.9601 7.35946 29.8195 5.99227 29.0929 5.00008C28.5617 4.17196 27.4466 3.65855 26.1789 3.73446C24.8612 3.81335 23.2696 4.56893 22.1476 5.8829C21.174 7.02312 20.5226 8.35165 20.259 9.96963C20.1398 10.8829 19.9758 12.0782 19.843 13.0704ZM23.4523 12.9845C23.632 11.547 23.7726 10.3907 23.9836 8.89852C24.1248 8.07861 24.8664 7.60946 25.3117 7.60946C25.9505 7.57121 26.2222 8.06015 26.1242 8.89852C25.9679 10.2345 25.8201 11.5158 25.6007 12.7891C25.4595 13.6091 24.8897 14.1234 24.2509 14.1616C23.7188 14.1935 23.3976 13.8282 23.4523 12.9845Z" fill="url(#paint13_linear_7159_2157)"/>
<path d="M19.843 13.0704C19.7336 14.2735 19.6185 15.8325 20.5539 16.8985C21.4134 17.8689 22.2336 18.0782 23.7882 17.9845C25.3117 17.7032 26.6164 16.7188 27.2257 16.1095C28.1164 15.2188 28.9686 13.7762 29.2101 12.2891C29.3917 11.3065 29.4883 10.1662 29.6554 9.17196C29.9601 7.35946 29.8195 5.99227 29.0929 5.00008C28.5617 4.17196 27.4466 3.65855 26.1789 3.73446C24.8612 3.81335 23.2696 4.56893 22.1476 5.8829C21.174 7.02312 20.5226 8.35165 20.259 9.96963C20.1398 10.8829 19.9758 12.0782 19.843 13.0704ZM23.4523 12.9845C23.632 11.547 23.7726 10.3907 23.9836 8.89852C24.1248 8.07861 24.8664 7.60946 25.3117 7.60946C25.9505 7.57121 26.2222 8.06015 26.1242 8.89852C25.9679 10.2345 25.8201 11.5158 25.6007 12.7891C25.4595 13.6091 24.8897 14.1234 24.2509 14.1616C23.7188 14.1935 23.3976 13.8282 23.4523 12.9845Z" fill="url(#paint14_radial_7159_2157)"/>
<path d="M19.843 13.0704C19.7336 14.2735 19.6185 15.8325 20.5539 16.8985C21.4134 17.8689 22.2336 18.0782 23.7882 17.9845C25.3117 17.7032 26.6164 16.7188 27.2257 16.1095C28.1164 15.2188 28.9686 13.7762 29.2101 12.2891C29.3917 11.3065 29.4883 10.1662 29.6554 9.17196C29.9601 7.35946 29.8195 5.99227 29.0929 5.00008C28.5617 4.17196 27.4466 3.65855 26.1789 3.73446C24.8612 3.81335 23.2696 4.56893 22.1476 5.8829C21.174 7.02312 20.5226 8.35165 20.259 9.96963C20.1398 10.8829 19.9758 12.0782 19.843 13.0704ZM23.4523 12.9845C23.632 11.547 23.7726 10.3907 23.9836 8.89852C24.1248 8.07861 24.8664 7.60946 25.3117 7.60946C25.9505 7.57121 26.2222 8.06015 26.1242 8.89852C25.9679 10.2345 25.8201 11.5158 25.6007 12.7891C25.4595 13.6091 24.8897 14.1234 24.2509 14.1616C23.7188 14.1935 23.3976 13.8282 23.4523 12.9845Z" fill="url(#paint15_linear_7159_2157)"/>
<path d="M19.843 13.0704C19.7336 14.2735 19.6185 15.8325 20.5539 16.8985C21.4134 17.8689 22.2336 18.0782 23.7882 17.9845C25.3117 17.7032 26.6164 16.7188 27.2257 16.1095C28.1164 15.2188 28.9686 13.7762 29.2101 12.2891C29.3917 11.3065 29.4883 10.1662 29.6554 9.17196C29.9601 7.35946 29.8195 5.99227 29.0929 5.00008C28.5617 4.17196 27.4466 3.65855 26.1789 3.73446C24.8612 3.81335 23.2696 4.56893 22.1476 5.8829C21.174 7.02312 20.5226 8.35165 20.259 9.96963C20.1398 10.8829 19.9758 12.0782 19.843 13.0704ZM23.4523 12.9845C23.632 11.547 23.7726 10.3907 23.9836 8.89852C24.1248 8.07861 24.8664 7.60946 25.3117 7.60946C25.9505 7.57121 26.2222 8.06015 26.1242 8.89852C25.9679 10.2345 25.8201 11.5158 25.6007 12.7891C25.4595 13.6091 24.8897 14.1234 24.2509 14.1616C23.7188 14.1935 23.3976 13.8282 23.4523 12.9845Z" fill="url(#paint16_linear_7159_2157)"/>
<path d="M19.843 13.0704C19.7336 14.2735 19.6185 15.8325 20.5539 16.8985C21.4134 17.8689 22.2336 18.0782 23.7882 17.9845C25.3117 17.7032 26.6164 16.7188 27.2257 16.1095C28.1164 15.2188 28.9686 13.7762 29.2101 12.2891C29.3917 11.3065 29.4883 10.1662 29.6554 9.17196C29.9601 7.35946 29.8195 5.99227 29.0929 5.00008C28.5617 4.17196 27.4466 3.65855 26.1789 3.73446C24.8612 3.81335 23.2696 4.56893 22.1476 5.8829C21.174 7.02312 20.5226 8.35165 20.259 9.96963C20.1398 10.8829 19.9758 12.0782 19.843 13.0704ZM23.4523 12.9845C23.632 11.547 23.7726 10.3907 23.9836 8.89852C24.1248 8.07861 24.8664 7.60946 25.3117 7.60946C25.9505 7.57121 26.2222 8.06015 26.1242 8.89852C25.9679 10.2345 25.8201 11.5158 25.6007 12.7891C25.4595 13.6091 24.8897 14.1234 24.2509 14.1616C23.7188 14.1935 23.3976 13.8282 23.4523 12.9845Z" fill="url(#paint17_radial_7159_2157)"/>
<path d="M19.843 13.0704C19.7336 14.2735 19.6185 15.8325 20.5539 16.8985C21.4134 17.8689 22.2336 18.0782 23.7882 17.9845C25.3117 17.7032 26.6164 16.7188 27.2257 16.1095C28.1164 15.2188 28.9686 13.7762 29.2101 12.2891C29.3917 11.3065 29.4883 10.1662 29.6554 9.17196C29.9601 7.35946 29.8195 5.99227 29.0929 5.00008C28.5617 4.17196 27.4466 3.65855 26.1789 3.73446C24.8612 3.81335 23.2696 4.56893 22.1476 5.8829C21.174 7.02312 20.5226 8.35165 20.259 9.96963C20.1398 10.8829 19.9758 12.0782 19.843 13.0704ZM23.4523 12.9845C23.632 11.547 23.7726 10.3907 23.9836 8.89852C24.1248 8.07861 24.8664 7.60946 25.3117 7.60946C25.9505 7.57121 26.2222 8.06015 26.1242 8.89852C25.9679 10.2345 25.8201 11.5158 25.6007 12.7891C25.4595 13.6091 24.8897 14.1234 24.2509 14.1616C23.7188 14.1935 23.3976 13.8282 23.4523 12.9845Z" fill="url(#paint18_radial_7159_2157)"/>
<path d="M19.843 13.0704C19.7336 14.2735 19.6185 15.8325 20.5539 16.8985C21.4134 17.8689 22.2336 18.0782 23.7882 17.9845C25.3117 17.7032 26.6164 16.7188 27.2257 16.1095C28.1164 15.2188 28.9686 13.7762 29.2101 12.2891C29.3917 11.3065 29.4883 10.1662 29.6554 9.17196C29.9601 7.35946 29.8195 5.99227 29.0929 5.00008C28.5617 4.17196 27.4466 3.65855 26.1789 3.73446C24.8612 3.81335 23.2696 4.56893 22.1476 5.8829C21.174 7.02312 20.5226 8.35165 20.259 9.96963C20.1398 10.8829 19.9758 12.0782 19.843 13.0704ZM23.4523 12.9845C23.632 11.547 23.7726 10.3907 23.9836 8.89852C24.1248 8.07861 24.8664 7.60946 25.3117 7.60946C25.9505 7.57121 26.2222 8.06015 26.1242 8.89852C25.9679 10.2345 25.8201 11.5158 25.6007 12.7891C25.4595 13.6091 24.8897 14.1234 24.2509 14.1616C23.7188 14.1935 23.3976 13.8282 23.4523 12.9845Z" fill="url(#paint19_radial_7159_2157)"/>
<path fill-rule="evenodd" clip-rule="evenodd" d="M27.672 19.6299C27.7901 20.1976 27.4255 20.7536 26.8578 20.8717L18.2244 22.667L11.6379 24.1342C11.0719 24.2603 10.5108 23.9036 10.3847 23.3376C10.2586 22.7716 10.6153 22.2105 11.1813 22.0844L17.7823 20.614L26.4302 18.8157C26.9979 18.6976 27.5539 19.0621 27.672 19.6299Z" fill="url(#paint20_linear_7159_2157)"/>
<path fill-rule="evenodd" clip-rule="evenodd" d="M27.672 19.6299C27.7901 20.1976 27.4255 20.7536 26.8578 20.8717L18.2244 22.667L11.6379 24.1342C11.0719 24.2603 10.5108 23.9036 10.3847 23.3376C10.2586 22.7716 10.6153 22.2105 11.1813 22.0844L17.7823 20.614L26.4302 18.8157C26.9979 18.6976 27.5539 19.0621 27.672 19.6299Z" fill="url(#paint21_radial_7159_2157)"/>
<path fill-rule="evenodd" clip-rule="evenodd" d="M25.5303 23.8435C25.6512 24.4107 25.2894 24.9685 24.7222 25.0894L15.9301 26.9633L9.33638 28.4008C8.76979 28.5243 8.21034 28.1652 8.08682 27.5986C7.9633 27.032 8.32247 26.4725 8.88906 26.349L15.4876 24.9105L24.2845 23.0355C24.8516 22.9146 25.4094 23.2764 25.5303 23.8435Z" fill="url(#paint22_linear_7159_2157)"/>
<path fill-rule="evenodd" clip-rule="evenodd" d="M25.5303 23.8435C25.6512 24.4107 25.2894 24.9685 24.7222 25.0894L15.9301 26.9633L9.33638 28.4008C8.76979 28.5243 8.21034 28.1652 8.08682 27.5986C7.9633 27.032 8.32247 26.4725 8.88906 26.349L15.4876 24.9105L24.2845 23.0355C24.8516 22.9146 25.4094 23.2764 25.5303 23.8435Z" fill="url(#paint23_radial_7159_2157)"/>
<defs>
<linearGradient id="paint0_linear_7159_2157" x1="6.81226" y1="23.903" x2="4.09464" y2="3.71276" gradientUnits="userSpaceOnUse">
<stop stop-color="#EC008C"/>
<stop offset="1" stop-color="#E81123"/>
</linearGradient>
<linearGradient id="paint1_linear_7159_2157" x1="5.31653" y1="13.3477" x2="8.77279" y2="19.2823" gradientUnits="userSpaceOnUse">
<stop offset="0.00742154" stop-color="#DB1136" stop-opacity="0"/>
<stop offset="0.0105839" stop-color="#CB0025"/>
<stop offset="1" stop-color="#DB1136" stop-opacity="0"/>
</linearGradient>
<linearGradient id="paint2_linear_7159_2157" x1="4.57825" y1="16.1602" x2="7.64075" y2="15.4258" gradientUnits="userSpaceOnUse">
<stop stop-color="#EC008C" stop-opacity="0"/>
<stop offset="1" stop-color="#E81123"/>
</linearGradient>
<linearGradient id="paint3_linear_7159_2157" x1="3.81603" y1="14.3594" x2="0.0240489" y2="12.3593" gradientUnits="userSpaceOnUse">
<stop offset="0.151052" stop-color="#A11749" stop-opacity="0"/>
<stop offset="0.894692" stop-color="#A21749"/>
</linearGradient>
<radialGradient id="paint4_radial_7159_2157" cx="0" cy="0" r="1" gradientUnits="userSpaceOnUse" gradientTransform="translate(6.81262 15.457) rotate(97.4355) scale(7.53209 0.503883)">
<stop stop-color="white" stop-opacity="0.3"/>
<stop offset="1" stop-color="white" stop-opacity="0"/>
</radialGradient>
<radialGradient id="paint5_radial_7159_2157" cx="0" cy="0" r="1" gradientUnits="userSpaceOnUse" gradientTransform="translate(7.43762 9.45703) rotate(100.954) scale(0.986728 1.06129)">
<stop stop-color="white" stop-opacity="0.3"/>
<stop offset="1" stop-color="white" stop-opacity="0"/>
</radialGradient>
<linearGradient id="paint6_linear_7159_2157" x1="14.4953" y1="23.2282" x2="13.9836" y2="6.48445" gradientUnits="userSpaceOnUse">
<stop stop-color="#EC008C"/>
<stop offset="1" stop-color="#E81123"/>
</linearGradient>
<radialGradient id="paint7_radial_7159_2157" cx="0" cy="0" r="1" gradientUnits="userSpaceOnUse" gradientTransform="translate(13.9836 13.4219) rotate(-172.166) scale(1.74657 4.54588)">
<stop offset="0.416667" stop-color="#B50A47"/>
<stop offset="1" stop-color="#CE0D52" stop-opacity="0"/>
</radialGradient>
<linearGradient id="paint8_linear_7159_2157" x1="11.1519" y1="11.8227" x2="7.66615" y2="8.10182" gradientUnits="userSpaceOnUse">
<stop offset="0.151052" stop-color="#A11749" stop-opacity="0"/>
<stop offset="0.894692" stop-color="#A21749"/>
</linearGradient>
<linearGradient id="paint9_linear_7159_2157" x1="15.5659" y1="16.7969" x2="18.9409" y2="20.0469" gradientUnits="userSpaceOnUse">
<stop offset="0.151052" stop-color="#A11749" stop-opacity="0"/>
<stop offset="0.894692" stop-color="#A21749"/>
</linearGradient>
<radialGradient id="paint10_radial_7159_2157" cx="0" cy="0" r="1" gradientUnits="userSpaceOnUse" gradientTransform="translate(15.5625 10.0509) rotate(132.184) scale(2.6991)">
<stop offset="0.608169" stop-color="white" stop-opacity="0.2"/>
<stop offset="1" stop-color="white" stop-opacity="0"/>
</radialGradient>
<radialGradient id="paint11_radial_7159_2157" cx="0" cy="0" r="1" gradientUnits="userSpaceOnUse" gradientTransform="translate(14.8594 10.3322) rotate(132.663) scale(2.16732 2.84981)">
<stop offset="0.651042" stop-color="#E81138"/>
<stop offset="1" stop-color="#E81123" stop-opacity="0"/>
</radialGradient>
<radialGradient id="paint12_radial_7159_2157" cx="0" cy="0" r="1" gradientUnits="userSpaceOnUse" gradientTransform="translate(17 13.4884) rotate(96.542) scale(3.42857 0.610249)">
<stop stop-color="white" stop-opacity="0.2"/>
<stop offset="1" stop-color="white" stop-opacity="0"/>
</radialGradient>
<linearGradient id="paint13_linear_7159_2157" x1="25.2958" y1="20.9157" x2="24.7842" y2="4.17195" gradientUnits="userSpaceOnUse">
<stop stop-color="#EC008C"/>
<stop offset="1" stop-color="#E81123"/>
</linearGradient>
<radialGradient id="paint14_radial_7159_2157" cx="0" cy="0" r="1" gradientUnits="userSpaceOnUse" gradientTransform="translate(24.7842 11.1094) rotate(-172.166) scale(1.74657 4.54588)">
<stop offset="0.416667" stop-color="#B50A47"/>
<stop offset="1" stop-color="#CE0D52" stop-opacity="0"/>
</radialGradient>
<linearGradient id="paint15_linear_7159_2157" x1="21.9524" y1="9.51024" x2="18.4667" y2="5.78932" gradientUnits="userSpaceOnUse">
<stop offset="0.151052" stop-color="#A11749" stop-opacity="0"/>
<stop offset="0.894692" stop-color="#A21749"/>
</linearGradient>
<linearGradient id="paint16_linear_7159_2157" x1="26.3664" y1="14.4844" x2="29.7414" y2="17.7344" gradientUnits="userSpaceOnUse">
<stop offset="0.151052" stop-color="#A11749" stop-opacity="0"/>
<stop offset="0.894692" stop-color="#A21749"/>
</linearGradient>
<radialGradient id="paint17_radial_7159_2157" cx="0" cy="0" r="1" gradientUnits="userSpaceOnUse" gradientTransform="translate(26.363 7.7384) rotate(132.184) scale(2.6991)">
<stop offset="0.608169" stop-color="white" stop-opacity="0.2"/>
<stop offset="1" stop-color="white" stop-opacity="0"/>
</radialGradient>
<radialGradient id="paint18_radial_7159_2157" cx="0" cy="0" r="1" gradientUnits="userSpaceOnUse" gradientTransform="translate(25.6599 8.01965) rotate(132.663) scale(2.16732 2.84981)">
<stop offset="0.651042" stop-color="#E81138"/>
<stop offset="1" stop-color="#E81123" stop-opacity="0"/>
</radialGradient>
<radialGradient id="paint19_radial_7159_2157" cx="0" cy="0" r="1" gradientUnits="userSpaceOnUse" gradientTransform="translate(27.8005 11.1759) rotate(96.542) scale(3.42857 0.610249)">
<stop stop-color="white" stop-opacity="0.2"/>
<stop offset="1" stop-color="white" stop-opacity="0"/>
</radialGradient>
<linearGradient id="paint20_linear_7159_2157" x1="18.3159" y1="22.7968" x2="17.6284" y2="19.1718" gradientUnits="userSpaceOnUse">
<stop stop-color="#EC008C"/>
<stop offset="0.828125" stop-color="#E81123"/>
</linearGradient>
<radialGradient id="paint21_radial_7159_2157" cx="0" cy="0" r="1" gradientUnits="userSpaceOnUse" gradientTransform="translate(26.5 19.5508) rotate(161.565) scale(0.79057)">
<stop stop-color="white" stop-opacity="0.3"/>
<stop offset="1" stop-color="white" stop-opacity="0"/>
</radialGradient>
<linearGradient id="paint22_linear_7159_2157" x1="17.7533" y1="26.2968" x2="16.5175" y2="21.5054" gradientUnits="userSpaceOnUse">
<stop stop-color="#EC008C"/>
<stop offset="0.668308" stop-color="#E81123"/>
</linearGradient>
<radialGradient id="paint23_radial_7159_2157" cx="0" cy="0" r="1" gradientTransform="matrix(-0.756761 0.252184 -0.252253 -0.756552 24.3486 23.7761)" gradientUnits="userSpaceOnUse">
<stop stop-color="white" stop-opacity="0.3"/>
<stop offset="1" stop-color="white" stop-opacity="0"/>
</radialGradient>
</defs>
</svg>
