<svg width="256" height="256" viewBox="0 0 256 256" fill="none" xmlns="http://www.w3.org/2000/svg">
<path d="M39.5898 190.751C47.9727 189.461 53.6523 179.251 54.9023 172.751C59.2148 143.501 64.9648 105.563 67.7152 79.7506C68.4306 73.036 65.2741 67.4322 61.8402 64.8131C55.0248 59.757 48.0886 62.501 42.0903 68.3131C35.5111 74.607 30.6524 80.5006 20.0274 93.3756C16.1978 98.0162 13.5503 108.623 20.0272 113.563C24.5937 116.904 31.0898 114.563 35.0898 111.751C32.0273 133.438 27.8398 162.251 26.4023 178.813C26.4128 187.287 30.6523 192.126 39.5898 190.751Z" fill="url(#paint0_linear_7159_2157)"/>
<path d="M39.5898 190.751C47.9727 189.461 53.6523 179.251 54.9023 172.751C59.2148 143.501 64.9648 105.563 67.7152 79.7506C68.4306 73.036 65.2741 67.4322 61.8402 64.8131C55.0248 59.757 48.0886 62.501 42.0903 68.3131C35.5111 74.607 30.6524 80.5006 20.0274 93.3756C16.1978 98.0162 13.5503 108.623 20.0272 113.563C24.5937 116.904 31.0898 114.563 35.0898 111.751C32.0273 133.438 27.8398 162.251 26.4023 178.813C26.4128 187.287 30.6523 192.126 39.5898 190.751Z" fill="url(#paint1_linear_7159_2157)"/>
<path d="M39.5898 190.751C47.9727 189.461 53.6523 179.251 54.9023 172.751C59.2148 143.501 64.9648 105.563 67.7152 79.7506C68.4306 73.036 65.2741 67.4322 61.8402 64.8131C55.0248 59.757 48.0886 62.501 42.0903 68.3131C35.5111 74.607 30.6524 80.5006 20.0274 93.3756C16.1978 98.0162 13.5503 108.623 20.0272 113.563C24.5937 116.904 31.0898 114.563 35.0898 111.751C32.0273 133.438 27.8398 162.251 26.4023 178.813C26.4128 187.287 30.6523 192.126 39.5898 190.751Z" fill="url(#paint2_linear_7159_2157)"/>
<path d="M39.5898 190.751C47.9727 189.461 53.6523 179.251 54.9023 172.751C59.2148 143.501 64.9648 105.563 67.7152 79.7506C68.4306 73.036 65.2741 67.4322 61.8402 64.8131C55.0248 59.757 48.0886 62.501 42.0903 68.3131C35.5111 74.607 30.6524 80.5006 20.0274 93.3756C16.1978 98.0162 13.5503 108.623 20.0272 113.563C24.5937 116.904 31.0898 114.563 35.0898 111.751C32.0273 133.438 27.8398 162.251 26.4023 178.813C26.4128 187.287 30.6523 192.126 39.5898 190.751Z" fill="url(#paint3_linear_7159_2157)"/>
<path d="M39.5898 190.751C47.9727 189.461 53.6523 179.251 54.9023 172.751C59.2148 143.501 64.9648 105.563 67.7152 79.7506C68.4306 73.036 65.2741 67.4322 61.8402 64.8131C55.0248 59.757 48.0886 62.501 42.0903 68.3131C35.5111 74.607 30.6524 80.5006 20.0274 93.3756C16.1978 98.0162 13.5503 108.623 20.0272 113.563C24.5937 116.904 31.0898 114.563 35.0898 111.751C32.0273 133.438 27.8398 162.251 26.4023 178.813C26.4128 187.287 30.6523 192.126 39.5898 190.751Z" fill="url(#paint4_radial_7159_2157)"/>
<path d="M39.5898 190.751C47.9727 189.461 53.6523 179.251 54.9023 172.751C59.2148 143.501 64.9648 105.563 67.7152 79.7506C68.4306 73.036 65.2741 67.4322 61.8402 64.8131C55.0248 59.757 48.0886 62.501 42.0903 68.3131C35.5111 74.607 30.6524 80.5006 20.0274 93.3756C16.1978 98.0162 13.5503 108.623 20.0272 113.563C24.5937 116.904 31.0898 114.563 35.0898 111.751C32.0273 133.438 27.8398 162.251 26.4023 178.813C26.4128 187.287 30.6523 192.126 39.5898 190.751Z" fill="url(#paint5_radial_7159_2157)"/>
<path d="M72.3393 123.063C71.4643 132.688 70.5436 145.16 78.0267 153.688C84.9029 161.451 91.4642 163.126 103.902 162.376C116.089 160.126 126.527 152.251 131.402 147.376C138.527 140.251 145.344 128.71 147.277 116.813C148.729 108.952 149.502 99.8295 150.839 91.8757C153.277 77.3757 152.152 66.4382 146.339 58.5007C142.089 51.8757 133.168 47.7684 123.027 48.3757C112.486 49.0068 99.7523 55.0514 90.7768 65.5632C82.988 74.685 77.7768 85.3132 75.6679 98.257C74.7143 105.563 73.4018 115.126 72.3393 123.063ZM101.214 122.376C102.652 110.876 103.777 101.626 105.464 89.6882C106.594 83.1289 112.527 79.3757 116.089 79.3757C121.2 79.0697 123.374 82.9812 122.589 89.6882C121.339 100.376 120.157 110.627 118.402 120.813C117.272 127.372 112.714 131.487 107.603 131.793C103.346 132.048 100.777 129.126 101.214 122.376Z" fill="url(#paint6_linear_7159_2157)"/>
<path d="M72.3393 123.063C71.4643 132.688 70.5436 145.16 78.0267 153.688C84.9029 161.451 91.4642 163.126 103.902 162.376C116.089 160.126 126.527 152.251 131.402 147.376C138.527 140.251 145.344 128.71 147.277 116.813C148.729 108.952 149.502 99.8295 150.839 91.8757C153.277 77.3757 152.152 66.4382 146.339 58.5007C142.089 51.8757 133.168 47.7684 123.027 48.3757C112.486 49.0068 99.7523 55.0514 90.7768 65.5632C82.988 74.685 77.7768 85.3132 75.6679 98.257C74.7143 105.563 73.4018 115.126 72.3393 123.063ZM101.214 122.376C102.652 110.876 103.777 101.626 105.464 89.6882C106.594 83.1289 112.527 79.3757 116.089 79.3757C121.2 79.0697 123.374 82.9812 122.589 89.6882C121.339 100.376 120.157 110.627 118.402 120.813C117.272 127.372 112.714 131.487 107.603 131.793C103.346 132.048 100.777 129.126 101.214 122.376Z" fill="url(#paint7_radial_7159_2157)"/>
<path d="M72.3393 123.063C71.4643 132.688 70.5436 145.16 78.0267 153.688C84.9029 161.451 91.4642 163.126 103.902 162.376C116.089 160.126 126.527 152.251 131.402 147.376C138.527 140.251 145.344 128.71 147.277 116.813C148.729 108.952 149.502 99.8295 150.839 91.8757C153.277 77.3757 152.152 66.4382 146.339 58.5007C142.089 51.8757 133.168 47.7684 123.027 48.3757C112.486 49.0068 99.7523 55.0514 90.7768 65.5632C82.988 74.685 77.7768 85.3132 75.6679 98.257C74.7143 105.563 73.4018 115.126 72.3393 123.063ZM101.214 122.376C102.652 110.876 103.777 101.626 105.464 89.6882C106.594 83.1289 112.527 79.3757 116.089 79.3757C121.2 79.0697 123.374 82.9812 122.589 89.6882C121.339 100.376 120.157 110.627 118.402 120.813C117.272 127.372 112.714 131.487 107.603 131.793C103.346 132.048 100.777 129.126 101.214 122.376Z" fill="url(#paint8_linear_7159_2157)"/>
<path d="M72.3393 123.063C71.4643 132.688 70.5436 145.16 78.0267 153.688C84.9029 161.451 91.4642 163.126 103.902 162.376C116.089 160.126 126.527 152.251 131.402 147.376C138.527 140.251 145.344 128.71 147.277 116.813C148.729 108.952 149.502 99.8295 150.839 91.8757C153.277 77.3757 152.152 66.4382 146.339 58.5007C142.089 51.8757 133.168 47.7684 123.027 48.3757C112.486 49.0068 99.7523 55.0514 90.7768 65.5632C82.988 74.685 77.7768 85.3132 75.6679 98.257C74.7143 105.563 73.4018 115.126 72.3393 123.063ZM101.214 122.376C102.652 110.876 103.777 101.626 105.464 89.6882C106.594 83.1289 112.527 79.3757 116.089 79.3757C121.2 79.0697 123.374 82.9812 122.589 89.6882C121.339 100.376 120.157 110.627 118.402 120.813C117.272 127.372 112.714 131.487 107.603 131.793C103.346 132.048 100.777 129.126 101.214 122.376Z" fill="url(#paint9_linear_7159_2157)"/>
<path d="M72.3393 123.063C71.4643 132.688 70.5436 145.16 78.0267 153.688C84.9029 161.451 91.4642 163.126 103.902 162.376C116.089 160.126 126.527 152.251 131.402 147.376C138.527 140.251 145.344 128.71 147.277 116.813C148.729 108.952 149.502 99.8295 150.839 91.8757C153.277 77.3757 152.152 66.4382 146.339 58.5007C142.089 51.8757 133.168 47.7684 123.027 48.3757C112.486 49.0068 99.7523 55.0514 90.7768 65.5632C82.988 74.685 77.7768 85.3132 75.6679 98.257C74.7143 105.563 73.4018 115.126 72.3393 123.063ZM101.214 122.376C102.652 110.876 103.777 101.626 105.464 89.6882C106.594 83.1289 112.527 79.3757 116.089 79.3757C121.2 79.0697 123.374 82.9812 122.589 89.6882C121.339 100.376 120.157 110.627 118.402 120.813C117.272 127.372 112.714 131.487 107.603 131.793C103.346 132.048 100.777 129.126 101.214 122.376Z" fill="url(#paint10_radial_7159_2157)"/>
<path d="M72.3393 123.063C71.4643 132.688 70.5436 145.16 78.0267 153.688C84.9029 161.451 91.4642 163.126 103.902 162.376C116.089 160.126 126.527 152.251 131.402 147.376C138.527 140.251 145.344 128.71 147.277 116.813C148.729 108.952 149.502 99.8295 150.839 91.8757C153.277 77.3757 152.152 66.4382 146.339 58.5007C142.089 51.8757 133.168 47.7684 123.027 48.3757C112.486 49.0068 99.7523 55.0514 90.7768 65.5632C82.988 74.685 77.7768 85.3132 75.6679 98.257C74.7143 105.563 73.4018 115.126 72.3393 123.063ZM101.214 122.376C102.652 110.876 103.777 101.626 105.464 89.6882C106.594 83.1289 112.527 79.3757 116.089 79.3757C121.2 79.0697 123.374 82.9812 122.589 89.6882C121.339 100.376 120.157 110.627 118.402 120.813C117.272 127.372 112.714 131.487 107.603 131.793C103.346 132.048 100.777 129.126 101.214 122.376Z" fill="url(#paint11_radial_7159_2157)"/>
<path d="M72.3393 123.063C71.4643 132.688 70.5436 145.16 78.0267 153.688C84.9029 161.451 91.4642 163.126 103.902 162.376C116.089 160.126 126.527 152.251 131.402 147.376C138.527 140.251 145.344 128.71 147.277 116.813C148.729 108.952 149.502 99.8295 150.839 91.8757C153.277 77.3757 152.152 66.4382 146.339 58.5007C142.089 51.8757 133.168 47.7684 123.027 48.3757C112.486 49.0068 99.7523 55.0514 90.7768 65.5632C82.988 74.685 77.7768 85.3132 75.6679 98.257C74.7143 105.563 73.4018 115.126 72.3393 123.063ZM101.214 122.376C102.652 110.876 103.777 101.626 105.464 89.6882C106.594 83.1289 112.527 79.3757 116.089 79.3757C121.2 79.0697 123.374 82.9812 122.589 89.6882C121.339 100.376 120.157 110.627 118.402 120.813C117.272 127.372 112.714 131.487 107.603 131.793C103.346 132.048 100.777 129.126 101.214 122.376Z" fill="url(#paint12_radial_7159_2157)"/>
<path d="M158.744 104.563C157.869 114.188 156.948 126.66 164.431 135.188C171.307 142.951 177.868 144.626 190.306 143.876C202.493 141.626 212.931 133.751 217.806 128.876C224.931 121.751 231.749 110.21 233.681 98.3132C235.134 90.4523 235.906 81.3295 237.243 73.3757C239.681 58.8757 238.556 47.9382 232.743 40.0007C228.493 33.3757 219.573 29.2684 209.431 29.8757C198.89 30.5068 186.157 36.5514 177.181 47.0632C169.392 56.185 164.181 66.8132 162.072 79.757C161.119 87.0632 159.806 96.6257 158.744 104.563ZM187.618 103.876C189.056 92.3757 190.181 83.1257 191.868 71.1882C192.998 64.6289 198.931 60.8757 202.493 60.8757C207.604 60.5697 209.778 64.4812 208.993 71.1882C207.743 81.8757 206.561 92.1265 204.806 102.313C203.676 108.872 199.118 112.987 194.007 113.293C189.75 113.548 187.181 110.626 187.618 103.876Z" fill="url(#paint13_linear_7159_2157)"/>
<path d="M158.744 104.563C157.869 114.188 156.948 126.66 164.431 135.188C171.307 142.951 177.868 144.626 190.306 143.876C202.493 141.626 212.931 133.751 217.806 128.876C224.931 121.751 231.749 110.21 233.681 98.3132C235.134 90.4523 235.906 81.3295 237.243 73.3757C239.681 58.8757 238.556 47.9382 232.743 40.0007C228.493 33.3757 219.573 29.2684 209.431 29.8757C198.89 30.5068 186.157 36.5514 177.181 47.0632C169.392 56.185 164.181 66.8132 162.072 79.757C161.119 87.0632 159.806 96.6257 158.744 104.563ZM187.618 103.876C189.056 92.3757 190.181 83.1257 191.868 71.1882C192.998 64.6289 198.931 60.8757 202.493 60.8757C207.604 60.5697 209.778 64.4812 208.993 71.1882C207.743 81.8757 206.561 92.1265 204.806 102.313C203.676 108.872 199.118 112.987 194.007 113.293C189.75 113.548 187.181 110.626 187.618 103.876Z" fill="url(#paint14_radial_7159_2157)"/>
<path d="M158.744 104.563C157.869 114.188 156.948 126.66 164.431 135.188C171.307 142.951 177.868 144.626 190.306 143.876C202.493 141.626 212.931 133.751 217.806 128.876C224.931 121.751 231.749 110.21 233.681 98.3132C235.134 90.4523 235.906 81.3295 237.243 73.3757C239.681 58.8757 238.556 47.9382 232.743 40.0007C228.493 33.3757 219.573 29.2684 209.431 29.8757C198.89 30.5068 186.157 36.5514 177.181 47.0632C169.392 56.185 164.181 66.8132 162.072 79.757C161.119 87.0632 159.806 96.6257 158.744 104.563ZM187.618 103.876C189.056 92.3757 190.181 83.1257 191.868 71.1882C192.998 64.6289 198.931 60.8757 202.493 60.8757C207.604 60.5697 209.778 64.4812 208.993 71.1882C207.743 81.8757 206.561 92.1265 204.806 102.313C203.676 108.872 199.118 112.987 194.007 113.293C189.75 113.548 187.181 110.626 187.618 103.876Z" fill="url(#paint15_linear_7159_2157)"/>
<path d="M158.744 104.563C157.869 114.188 156.948 126.66 164.431 135.188C171.307 142.951 177.868 144.626 190.306 143.876C202.493 141.626 212.931 133.751 217.806 128.876C224.931 121.751 231.749 110.21 233.681 98.3132C235.134 90.4523 235.906 81.3295 237.243 73.3757C239.681 58.8757 238.556 47.9382 232.743 40.0007C228.493 33.3757 219.573 29.2684 209.431 29.8757C198.89 30.5068 186.157 36.5514 177.181 47.0632C169.392 56.185 164.181 66.8132 162.072 79.757C161.119 87.0632 159.806 96.6257 158.744 104.563ZM187.618 103.876C189.056 92.3757 190.181 83.1257 191.868 71.1882C192.998 64.6289 198.931 60.8757 202.493 60.8757C207.604 60.5697 209.778 64.4812 208.993 71.1882C207.743 81.8757 206.561 92.1265 204.806 102.313C203.676 108.872 199.118 112.987 194.007 113.293C189.75 113.548 187.181 110.626 187.618 103.876Z" fill="url(#paint16_linear_7159_2157)"/>
<path d="M158.744 104.563C157.869 114.188 156.948 126.66 164.431 135.188C171.307 142.951 177.868 144.626 190.306 143.876C202.493 141.626 212.931 133.751 217.806 128.876C224.931 121.751 231.749 110.21 233.681 98.3132C235.134 90.4523 235.906 81.3295 237.243 73.3757C239.681 58.8757 238.556 47.9382 232.743 40.0007C228.493 33.3757 219.573 29.2684 209.431 29.8757C198.89 30.5068 186.157 36.5514 177.181 47.0632C169.392 56.185 164.181 66.8132 162.072 79.757C161.119 87.0632 159.806 96.6257 158.744 104.563ZM187.618 103.876C189.056 92.3757 190.181 83.1257 191.868 71.1882C192.998 64.6289 198.931 60.8757 202.493 60.8757C207.604 60.5697 209.778 64.4812 208.993 71.1882C207.743 81.8757 206.561 92.1265 204.806 102.313C203.676 108.872 199.118 112.987 194.007 113.293C189.75 113.548 187.181 110.626 187.618 103.876Z" fill="url(#paint17_radial_7159_2157)"/>
<path d="M158.744 104.563C157.869 114.188 156.948 126.66 164.431 135.188C171.307 142.951 177.868 144.626 190.306 143.876C202.493 141.626 212.931 133.751 217.806 128.876C224.931 121.751 231.749 110.21 233.681 98.3132C235.134 90.4523 235.906 81.3295 237.243 73.3757C239.681 58.8757 238.556 47.9382 232.743 40.0007C228.493 33.3757 219.573 29.2684 209.431 29.8757C198.89 30.5068 186.157 36.5514 177.181 47.0632C169.392 56.185 164.181 66.8132 162.072 79.757C161.119 87.0632 159.806 96.6257 158.744 104.563ZM187.618 103.876C189.056 92.3757 190.181 83.1257 191.868 71.1882C192.998 64.6289 198.931 60.8757 202.493 60.8757C207.604 60.5697 209.778 64.4812 208.993 71.1882C207.743 81.8757 206.561 92.1265 204.806 102.313C203.676 108.872 199.118 112.987 194.007 113.293C189.75 113.548 187.181 110.626 187.618 103.876Z" fill="url(#paint18_radial_7159_2157)"/>
<path d="M158.744 104.563C157.869 114.188 156.948 126.66 164.431 135.188C171.307 142.951 177.868 144.626 190.306 143.876C202.493 141.626 212.931 133.751 217.806 128.876C224.931 121.751 231.749 110.21 233.681 98.3132C235.134 90.4523 235.906 81.3295 237.243 73.3757C239.681 58.8757 238.556 47.9382 232.743 40.0007C228.493 33.3757 219.573 29.2684 209.431 29.8757C198.89 30.5068 186.157 36.5514 177.181 47.0632C169.392 56.185 164.181 66.8132 162.072 79.757C161.119 87.0632 159.806 96.6257 158.744 104.563ZM187.618 103.876C189.056 92.3757 190.181 83.1257 191.868 71.1882C192.998 64.6289 198.931 60.8757 202.493 60.8757C207.604 60.5697 209.778 64.4812 208.993 71.1882C207.743 81.8757 206.561 92.1265 204.806 102.313C203.676 108.872 199.118 112.987 194.007 113.293C189.75 113.548 187.181 110.626 187.618 103.876Z" fill="url(#paint19_radial_7159_2157)"/>
<path fill-rule="evenodd" clip-rule="evenodd" d="M221.376 157.039C222.32 161.581 219.404 166.029 214.862 166.973L145.795 181.336L93.1031 193.073C88.5749 194.082 84.0864 191.229 83.0777 186.701C82.0691 182.172 84.9223 177.684 89.4505 176.675L142.258 164.912L211.442 150.525C215.984 149.581 220.431 152.497 221.376 157.039Z" fill="url(#paint20_linear_7159_2157)"/>
<path fill-rule="evenodd" clip-rule="evenodd" d="M221.376 157.039C222.32 161.581 219.404 166.029 214.862 166.973L145.795 181.336L93.1031 193.073C88.5749 194.082 84.0864 191.229 83.0777 186.701C82.0691 182.172 84.9223 177.684 89.4505 176.675L142.258 164.912L211.442 150.525C215.984 149.581 220.431 152.497 221.376 157.039Z" fill="url(#paint21_radial_7159_2157)"/>
<path fill-rule="evenodd" clip-rule="evenodd" d="M204.242 190.748C205.209 195.286 202.315 199.748 197.778 200.715L127.441 215.707L74.691 227.207C70.1583 228.195 65.6827 225.321 64.6945 220.789C63.7064 216.256 66.5798 211.78 71.1125 210.792L123.901 199.284L194.276 184.284C198.813 183.317 203.275 186.211 204.242 190.748Z" fill="url(#paint22_linear_7159_2157)"/>
<path fill-rule="evenodd" clip-rule="evenodd" d="M204.242 190.748C205.209 195.286 202.315 199.748 197.778 200.715L127.441 215.707L74.691 227.207C70.1583 228.195 65.6827 225.321 64.6945 220.789C63.7064 216.256 66.5798 211.78 71.1125 210.792L123.901 199.284L194.276 184.284C198.813 183.317 203.275 186.211 204.242 190.748Z" fill="url(#paint23_radial_7159_2157)"/>
<defs>
<linearGradient id="paint0_linear_7159_2157" x1="54.4981" y1="191.224" x2="32.7572" y2="29.7021" gradientUnits="userSpaceOnUse">
<stop stop-color="#EC008C"/>
<stop offset="1" stop-color="#E81123"/>
</linearGradient>
<linearGradient id="paint1_linear_7159_2157" x1="42.5322" y1="106.781" x2="70.1823" y2="154.259" gradientUnits="userSpaceOnUse">
<stop offset="0.00742154" stop-color="#DB1136" stop-opacity="0"/>
<stop offset="0.0105839" stop-color="#CB0025"/>
<stop offset="1" stop-color="#DB1136" stop-opacity="0"/>
</linearGradient>
<linearGradient id="paint2_linear_7159_2157" x1="36.626" y1="129.281" x2="61.126" y2="123.406" gradientUnits="userSpaceOnUse">
<stop stop-color="#EC008C" stop-opacity="0"/>
<stop offset="1" stop-color="#E81123"/>
</linearGradient>
<linearGradient id="paint3_linear_7159_2157" x1="30.5282" y1="114.875" x2="0.192392" y2="98.8741" gradientUnits="userSpaceOnUse">
<stop offset="0.151052" stop-color="#A11749" stop-opacity="0"/>
<stop offset="0.894692" stop-color="#A21749"/>
</linearGradient>
<radialGradient id="paint4_radial_7159_2157" cx="0" cy="0" r="1" gradientUnits="userSpaceOnUse" gradientTransform="translate(54.501 123.656) rotate(97.4355) scale(60.2567 4.03107)">
<stop stop-color="white" stop-opacity="0.3"/>
<stop offset="1" stop-color="white" stop-opacity="0"/>
</radialGradient>
<radialGradient id="paint5_radial_7159_2157" cx="0" cy="0" r="1" gradientUnits="userSpaceOnUse" gradientTransform="translate(59.501 75.6562) rotate(100.954) scale(7.89383 8.49032)">
<stop stop-color="white" stop-opacity="0.3"/>
<stop offset="1" stop-color="white" stop-opacity="0"/>
</radialGradient>
<linearGradient id="paint6_linear_7159_2157" x1="115.962" y1="185.826" x2="111.869" y2="51.8756" gradientUnits="userSpaceOnUse">
<stop stop-color="#EC008C"/>
<stop offset="1" stop-color="#E81123"/>
</linearGradient>
<radialGradient id="paint7_radial_7159_2157" cx="0" cy="0" r="1" gradientUnits="userSpaceOnUse" gradientTransform="translate(111.869 107.376) rotate(-172.166) scale(13.9726 36.3671)">
<stop offset="0.416667" stop-color="#B50A47"/>
<stop offset="1" stop-color="#CE0D52" stop-opacity="0"/>
</radialGradient>
<linearGradient id="paint8_linear_7159_2157" x1="89.2152" y1="94.5819" x2="61.3292" y2="64.8146" gradientUnits="userSpaceOnUse">
<stop offset="0.151052" stop-color="#A11749" stop-opacity="0"/>
<stop offset="0.894692" stop-color="#A21749"/>
</linearGradient>
<linearGradient id="paint9_linear_7159_2157" x1="124.527" y1="134.376" x2="151.527" y2="160.376" gradientUnits="userSpaceOnUse">
<stop offset="0.151052" stop-color="#A11749" stop-opacity="0"/>
<stop offset="0.894692" stop-color="#A21749"/>
</linearGradient>
<radialGradient id="paint10_radial_7159_2157" cx="0" cy="0" r="1" gradientUnits="userSpaceOnUse" gradientTransform="translate(124.5 80.4072) rotate(132.184) scale(21.5928 21.5928)">
<stop offset="0.608169" stop-color="white" stop-opacity="0.2"/>
<stop offset="1" stop-color="white" stop-opacity="0"/>
</radialGradient>
<radialGradient id="paint11_radial_7159_2157" cx="0" cy="0" r="1" gradientUnits="userSpaceOnUse" gradientTransform="translate(118.875 82.6572) rotate(132.663) scale(17.3385 22.7985)">
<stop offset="0.651042" stop-color="#E81138"/>
<stop offset="1" stop-color="#E81123" stop-opacity="0"/>
</radialGradient>
<radialGradient id="paint12_radial_7159_2157" cx="0" cy="0" r="1" gradientUnits="userSpaceOnUse" gradientTransform="translate(136 107.907) rotate(96.542) scale(27.4286 4.88199)">
<stop stop-color="white" stop-opacity="0.2"/>
<stop offset="1" stop-color="white" stop-opacity="0"/>
</radialGradient>
<linearGradient id="paint13_linear_7159_2157" x1="202.367" y1="167.326" x2="198.273" y2="33.3756" gradientUnits="userSpaceOnUse">
<stop stop-color="#EC008C"/>
<stop offset="1" stop-color="#E81123"/>
</linearGradient>
<radialGradient id="paint14_radial_7159_2157" cx="0" cy="0" r="1" gradientUnits="userSpaceOnUse" gradientTransform="translate(198.273 88.8756) rotate(-172.166) scale(13.9726 36.3671)">
<stop offset="0.416667" stop-color="#B50A47"/>
<stop offset="1" stop-color="#CE0D52" stop-opacity="0"/>
</radialGradient>
<linearGradient id="paint15_linear_7159_2157" x1="175.619" y1="76.0819" x2="147.733" y2="46.3146" gradientUnits="userSpaceOnUse">
<stop offset="0.151052" stop-color="#A11749" stop-opacity="0"/>
<stop offset="0.894692" stop-color="#A21749"/>
</linearGradient>
<linearGradient id="paint16_linear_7159_2157" x1="210.931" y1="115.876" x2="237.931" y2="141.876" gradientUnits="userSpaceOnUse">
<stop offset="0.151052" stop-color="#A11749" stop-opacity="0"/>
<stop offset="0.894692" stop-color="#A21749"/>
</linearGradient>
<radialGradient id="paint17_radial_7159_2157" cx="0" cy="0" r="1" gradientUnits="userSpaceOnUse" gradientTransform="translate(210.904 61.9072) rotate(132.184) scale(21.5928 21.5928)">
<stop offset="0.608169" stop-color="white" stop-opacity="0.2"/>
<stop offset="1" stop-color="white" stop-opacity="0"/>
</radialGradient>
<radialGradient id="paint18_radial_7159_2157" cx="0" cy="0" r="1" gradientUnits="userSpaceOnUse" gradientTransform="translate(205.279 64.1572) rotate(132.663) scale(17.3385 22.7985)">
<stop offset="0.651042" stop-color="#E81138"/>
<stop offset="1" stop-color="#E81123" stop-opacity="0"/>
</radialGradient>
<radialGradient id="paint19_radial_7159_2157" cx="0" cy="0" r="1" gradientUnits="userSpaceOnUse" gradientTransform="translate(222.404 89.4072) rotate(96.542) scale(27.4286 4.88199)">
<stop stop-color="white" stop-opacity="0.2"/>
<stop offset="1" stop-color="white" stop-opacity="0"/>
</radialGradient>
<linearGradient id="paint20_linear_7159_2157" x1="146.527" y1="182.374" x2="141.027" y2="153.374" gradientUnits="userSpaceOnUse">
<stop stop-color="#EC008C"/>
<stop offset="0.828125" stop-color="#E81123"/>
</linearGradient>
<radialGradient id="paint21_radial_7159_2157" cx="0" cy="0" r="1" gradientUnits="userSpaceOnUse" gradientTransform="translate(212 156.406) rotate(161.565) scale(6.32456 6.32456)">
<stop stop-color="white" stop-opacity="0.3"/>
<stop offset="1" stop-color="white" stop-opacity="0"/>
</radialGradient>
<linearGradient id="paint22_linear_7159_2157" x1="142.027" y1="210.374" x2="132.14" y2="172.043" gradientUnits="userSpaceOnUse">
<stop stop-color="#EC008C"/>
<stop offset="0.668308" stop-color="#E81123"/>
</linearGradient>
<radialGradient id="paint23_radial_7159_2157" cx="0" cy="0" r="1" gradientTransform="matrix(-6.05409 2.01747 -2.01803 -6.05242 194.789 190.209)" gradientUnits="userSpaceOnUse">
<stop stop-color="white" stop-opacity="0.3"/>
<stop offset="1" stop-color="white" stop-opacity="0"/>
</radialGradient>
</defs>
</svg>
