<svg width="32" height="32" viewBox="0 0 32 32" fill="none" xmlns="http://www.w3.org/2000/svg">
<path d="M18.3493 6C16.8085 6.00313 15.2963 6.41841 13.968 7.20319C12.6397 7.98796 11.5431 9.11396 10.7909 10.4656C10.1434 10.1486 9.43291 9.98347 8.71276 9.98245C7.58404 9.98544 6.49308 10.3913 5.63444 11.1277C4.77579 11.8641 4.20531 12.8831 4.02473 14.003C2.83246 14.5048 1.81431 15.3495 1.09823 16.4311C0.38215 17.5127 7.07923e-05 18.7829 0 20.0821C0.00168209 21.8296 0.693721 23.5049 1.92397 24.7396C3.15421 25.9744 4.82195 26.6675 6.56052 26.6667C6.83565 26.6642 7.11035 26.6443 7.38299 26.6071H25.6119C25.7076 26.614 25.8035 26.6187 25.8994 26.6211C25.9909 26.6185 26.0822 26.6138 26.1735 26.6071H26.61V26.5745C28.0942 26.398 29.4628 25.6778 30.4562 24.5503C31.4496 23.4228 31.999 21.9663 32 20.4571V20.4452C31.9965 19.0119 31.4986 17.6245 30.5917 16.5219C29.6848 15.4192 28.4258 14.6702 27.0312 14.4037C26.9484 12.1456 25.9973 10.0079 24.3779 8.44043C22.7586 6.87299 20.5974 5.99814 18.3493 6Z" fill="url(#paint0_linear_7159_5278)"/>
<defs>
<linearGradient id="paint0_linear_7159_5278" x1="32.0972" y1="20.4738" x2="-0.0118813" y2="20.0332" gradientUnits="userSpaceOnUse">
<stop stop-color="#3E82F4"/>
<stop offset="1" stop-color="#93DCF7"/>
</linearGradient>
</defs>
</svg>
