<svg width="32" height="32" viewBox="0 0 32 32" fill="none" xmlns="http://www.w3.org/2000/svg">
<circle cx="16" cy="16" r="16" fill="url(#paint0_radial_7159_5228)"/>
<circle cx="16" cy="16" r="16" fill="url(#paint1_radial_7159_5228)"/>
<path d="M16.0009 6.3999C13.3937 6.3999 13.0665 6.4113 12.0425 6.4579C11.0205 6.5047 10.3229 6.6665 9.71246 6.9039C9.08105 7.1491 8.54545 7.4771 8.01184 8.0109C7.47784 8.5445 7.14983 9.0801 6.90383 9.7113C6.66583 10.3219 6.50383 11.0197 6.45782 12.0413C6.41202 13.0653 6.40002 13.3927 6.40002 15.9999C6.40002 18.6071 6.41162 18.9333 6.45803 19.9573C6.50503 20.9793 6.66683 21.6769 6.90403 22.2873C7.14943 22.9187 7.47744 23.4543 8.01124 23.9879C8.54465 24.5219 9.08025 24.8507 9.71126 25.0959C10.3221 25.3333 11.0199 25.4951 12.0417 25.5419C13.0657 25.5885 13.3927 25.5999 15.9997 25.5999C18.6072 25.5999 18.9334 25.5885 19.9574 25.5419C20.9794 25.4951 21.6778 25.3333 22.2886 25.0959C22.9198 24.8507 23.4546 24.5219 23.988 23.9879C24.522 23.4543 24.85 22.9187 25.096 22.2875C25.332 21.6769 25.494 20.9791 25.542 19.9575C25.588 18.9335 25.6 18.6071 25.6 15.9999C25.6 13.3927 25.588 13.0655 25.542 12.0415C25.494 11.0195 25.332 10.3219 25.096 9.7115C24.85 9.0801 24.522 8.5445 23.988 8.0109C23.454 7.4769 22.92 7.1489 22.288 6.9039C21.676 6.6665 20.978 6.5047 19.956 6.4579C18.932 6.4113 18.606 6.3999 15.9979 6.3999H16.0009ZM15.1397 8.1299C15.3953 8.1295 15.6805 8.1299 16.0009 8.1299C18.5642 8.1299 18.868 8.1391 19.8802 8.1851C20.8162 8.2279 21.3242 8.3843 21.6626 8.5157C22.1106 8.6897 22.43 8.8977 22.7658 9.2337C23.1018 9.5697 23.3098 9.8897 23.4842 10.3377C23.6156 10.6757 23.7722 11.1837 23.8148 12.1197C23.8608 13.1317 23.8708 13.4357 23.8708 15.9977C23.8708 18.5597 23.8608 18.8637 23.8148 19.8757C23.772 20.8117 23.6156 21.3197 23.4842 21.6577C23.3102 22.1057 23.1018 22.4247 22.7658 22.7605C22.4298 23.0965 22.1108 23.3045 21.6626 23.4785C21.3246 23.6105 20.8162 23.7665 19.8802 23.8093C18.8682 23.8553 18.5642 23.8653 16.0009 23.8653C13.4375 23.8653 13.1337 23.8553 12.1217 23.8093C11.1857 23.7661 10.6777 23.6097 10.3391 23.4783C9.89106 23.3043 9.57106 23.0963 9.23505 22.7603C8.89905 22.4243 8.69105 22.1051 8.51665 21.6569C8.38525 21.3189 8.22864 20.8109 8.18604 19.8749C8.14004 18.8629 8.13084 18.5589 8.13084 15.9953C8.13084 13.4317 8.14004 13.1293 8.18604 12.1173C8.22884 11.1813 8.38525 10.6733 8.51665 10.3349C8.69065 9.8869 8.89905 9.5669 9.23505 9.2309C9.57106 8.8949 9.89106 8.6869 10.3391 8.5125C10.6775 8.3805 11.1857 8.2245 12.1217 8.1815C13.0073 8.1415 13.3505 8.1295 15.1397 8.1275V8.1299ZM21.1254 9.7239C20.4894 9.7239 19.9734 10.2393 19.9734 10.8755C19.9734 11.5115 20.4894 12.0275 21.1254 12.0275C21.7614 12.0275 22.2774 11.5115 22.2774 10.8755C22.2774 10.2395 21.7614 9.7235 21.1254 9.7235V9.7239ZM16.0009 11.0699C13.2783 11.0699 11.0709 13.2773 11.0709 15.9999C11.0709 18.7225 13.2783 20.9289 16.0009 20.9289C18.7236 20.9289 20.9302 18.7225 20.9302 15.9999C20.9302 13.2773 18.7234 11.0699 16.0007 11.0699H16.0009ZM16.0009 12.7999C17.7681 12.7999 19.201 14.2325 19.201 15.9999C19.201 17.7671 17.7681 19.1999 16.0009 19.1999C14.2335 19.1999 12.8009 17.7671 12.8009 15.9999C12.8009 14.2325 14.2335 12.7999 16.0009 12.7999Z" fill="white"/>
<defs>
<radialGradient id="paint0_radial_7159_5228" cx="0" cy="0" r="1" gradientUnits="userSpaceOnUse" gradientTransform="translate(8.50004 34.4647) rotate(-90) scale(31.7144 29.4969)">
<stop stop-color="#FFDD55"/>
<stop offset="0.1" stop-color="#FFDD55"/>
<stop offset="0.5" stop-color="#FF543E"/>
<stop offset="1" stop-color="#C837AB"/>
</radialGradient>
<radialGradient id="paint1_radial_7159_5228" cx="0" cy="0" r="1" gradientTransform="matrix(2.78252 13.9007 -57.298 11.4759 -5.36017 2.30523)" gradientUnits="userSpaceOnUse">
<stop stop-color="#3771C8"/>
<stop offset="0.128" stop-color="#3771C8"/>
<stop offset="1" stop-color="#6600FF" stop-opacity="0"/>
</radialGradient>
</defs>
</svg>
