<svg width="256" height="256" viewBox="0 0 256 256" fill="none" xmlns="http://www.w3.org/2000/svg">
<circle cx="128" cy="128" r="128" fill="url(#paint0_radial_7159_5228)"/>
<circle cx="128" cy="128" r="128" fill="url(#paint1_radial_7159_5228)"/>
<path d="M128.007 51.2002C107.149 51.2002 104.532 51.2914 96.3397 51.6642C88.1636 52.0386 82.5827 53.333 77.6995 55.2322C72.6482 57.1938 68.3634 59.8178 64.0945 64.0882C59.8225 68.357 57.1985 72.6418 55.2305 77.6914C53.3264 82.5762 52.0304 88.1586 51.6624 96.3314C51.296 104.523 51.2 107.143 51.2 128C51.2 148.858 51.2928 151.467 51.664 159.659C52.04 167.835 53.3344 173.416 55.2321 178.299C57.1953 183.351 59.8193 187.635 64.0897 191.904C68.357 196.176 72.6418 198.807 77.6899 200.768C82.5763 202.667 88.1588 203.962 96.3333 204.336C104.525 204.709 107.141 204.8 127.998 204.8C148.857 204.8 151.467 204.709 159.659 204.336C167.835 203.962 173.422 202.667 178.309 200.768C183.358 198.807 187.637 196.176 191.904 191.904C196.176 187.635 198.8 183.351 200.768 178.301C202.656 173.416 203.952 167.834 204.336 159.661C204.704 151.469 204.8 148.858 204.8 128C204.8 107.143 204.704 104.525 204.336 96.333C203.952 88.157 202.656 82.5762 200.768 77.693C198.8 72.6418 196.176 68.357 191.904 64.0882C187.632 59.8162 183.36 57.1922 178.304 55.2322C173.408 53.333 167.824 52.0386 159.648 51.6642C151.455 51.2914 148.847 51.2002 127.983 51.2002H128.007ZM121.118 65.0402C123.162 65.037 125.444 65.0402 128.007 65.0402C148.513 65.0402 150.943 65.1138 159.041 65.4818C166.529 65.8242 170.593 67.0754 173.3 68.1266C176.885 69.5186 179.44 71.1826 182.126 73.8706C184.814 76.5586 186.478 79.1186 187.873 82.7026C188.925 85.4066 190.177 89.4706 190.518 96.9586C190.886 105.055 190.966 107.487 190.966 127.983C190.966 148.479 190.886 150.911 190.518 159.007C190.176 166.495 188.925 170.559 187.873 173.263C186.481 176.847 184.814 179.399 182.126 182.085C179.438 184.773 176.886 186.437 173.3 187.829C170.596 188.885 166.529 190.133 159.041 190.475C150.945 190.843 148.513 190.923 128.007 190.923C107.5 190.923 105.069 190.843 96.9733 190.475C89.4852 190.13 85.4212 188.879 82.7123 187.827C79.1283 186.435 76.5683 184.771 73.8802 182.083C71.1922 179.395 69.5282 176.842 68.133 173.256C67.0818 170.552 65.829 166.488 65.4882 159C65.1202 150.904 65.0466 148.472 65.0466 127.963C65.0466 107.455 65.1202 105.035 65.4882 96.9394C65.8306 89.4514 67.0818 85.3874 68.133 82.6802C69.525 79.0962 71.1922 76.5362 73.8802 73.8482C76.5683 71.1602 79.1283 69.4962 82.7123 68.101C85.4196 67.045 89.4852 65.797 96.9733 65.453C104.058 65.133 106.804 65.037 121.118 65.021V65.0402ZM169.003 77.7922C163.915 77.7922 159.787 81.9154 159.787 87.005C159.787 92.093 163.915 96.221 169.003 96.221C174.091 96.221 178.219 92.093 178.219 87.005C178.219 81.917 174.091 77.789 169.003 77.789V77.7922ZM128.007 88.5602C106.226 88.5602 88.5668 106.219 88.5668 128C88.5668 149.781 106.226 167.432 128.007 167.432C149.788 167.432 167.441 149.781 167.441 128C167.441 106.219 149.787 88.5602 128.006 88.5602H128.007ZM128.007 102.4C142.145 102.4 153.607 113.861 153.607 128C153.607 142.138 142.145 153.6 128.007 153.6C113.868 153.6 102.407 142.138 102.407 128C102.407 113.861 113.868 102.4 128.007 102.4Z" fill="white"/>
<defs>
<radialGradient id="paint0_radial_7159_5228" cx="0" cy="0" r="1" gradientUnits="userSpaceOnUse" gradientTransform="translate(68.0003 275.717) rotate(-90) scale(253.715 235.975)">
<stop stop-color="#FFDD55"/>
<stop offset="0.1" stop-color="#FFDD55"/>
<stop offset="0.5" stop-color="#FF543E"/>
<stop offset="1" stop-color="#C837AB"/>
</radialGradient>
<radialGradient id="paint1_radial_7159_5228" cx="0" cy="0" r="1" gradientTransform="matrix(22.2601 111.206 -458.384 91.8068 -42.8814 18.4418)" gradientUnits="userSpaceOnUse">
<stop stop-color="#3771C8"/>
<stop offset="0.128" stop-color="#3771C8"/>
<stop offset="1" stop-color="#6600FF" stop-opacity="0"/>
</radialGradient>
</defs>
</svg>
