<svg width="32" height="32" viewBox="0 0 32 32" fill="none" xmlns="http://www.w3.org/2000/svg">
<path d="M8.94846 0C5.37727 0 2.98471 3.34612 4.426 6.32479L8.4268 14.5914C8.62686 15.0048 9.27007 15.0048 9.47013 14.5914L13.4709 6.32479C14.9122 3.34612 12.5197 0 8.94846 0Z" fill="#FFC233"/>
<path d="M22.4199 5.2511C19.8947 2.87453 15.6883 3.64853 14.4696 6.71406L11.0868 15.2217C10.9177 15.6469 11.3727 16.0753 11.8245 15.9161L20.8651 12.7328C24.1224 11.5859 24.9452 7.62722 22.4199 5.2511Z" fill="#FFC233"/>
<path d="M21.279 13.6728C24.444 12.3162 28 14.5677 28 17.9284C28 21.2891 24.444 23.5406 21.279 22.184L12.4943 18.4191C12.0553 18.2313 12.0553 17.6255 12.4943 17.4377L21.279 13.6728Z" fill="#FFC233"/>
<path d="M22.4199 30.6057C24.9452 28.2292 24.1227 24.2709 20.8653 23.124L11.8248 19.9407C11.3727 19.7816 10.9179 20.2095 11.0871 20.6351L14.4698 29.1428C15.6886 32.2078 19.8947 32.9818 22.4199 30.6057Z" fill="#FFC233"/>
</svg>
