<svg width="256" height="256" viewBox="0 0 256 256" fill="none" xmlns="http://www.w3.org/2000/svg">
<path d="M71.5877 0C43.0181 0 23.8777 26.7689 35.408 50.5983L67.4144 116.731C69.0149 120.038 74.1605 120.038 75.761 116.731L107.767 50.5983C119.298 26.7689 100.157 0 71.5877 0Z" fill="#FFC233"/>
<path d="M179.36 42.0088C159.158 22.9962 125.507 29.1882 115.757 53.7125L88.6947 121.774C87.3416 125.175 90.9814 128.602 94.5961 127.329L166.921 101.862C192.979 92.6871 199.561 61.0177 179.36 42.0088Z" fill="#FFC233"/>
<path d="M170.232 109.382C195.552 98.5299 224 116.542 224 143.427C224 170.313 195.552 188.325 170.232 177.472L99.9543 147.353C96.4421 145.85 96.4421 141.004 99.9543 139.502L170.232 109.382Z" fill="#FFC233"/>
<path d="M179.36 244.846C199.561 225.833 192.981 194.167 166.923 184.992L94.598 159.526C90.9814 158.252 87.3435 161.676 88.6966 165.081L115.758 233.142C125.508 257.663 159.158 263.855 179.36 244.846Z" fill="#FFC233"/>
</svg>
