<svg width="257" height="257" viewBox="0 0 257 257" fill="none" xmlns="http://www.w3.org/2000/svg">
<circle cx="128.5" cy="128.5" r="31.0857" stroke="black"/>
<circle cx="128.5" cy="128.5" r="48.4571" stroke="black"/>
<circle cx="128.5" cy="128.5" r="63.0857" stroke="black"/>
<circle cx="128.5" cy="128.5" r="79.5429" stroke="black"/>
<circle cx="128.5" cy="128.5" r="96" stroke="black"/>
<circle cx="128.5" cy="128.5" r="113.371" stroke="black"/>
<circle cx="128.5" cy="128.5" r="128" stroke="black"/>
<circle cx="128.5" cy="128.5" r="9.14286" fill="black"/>
<path d="M133.986 48.9574C133.986 51.9871 131.53 54.4431 128.5 54.4431C125.47 54.4431 123.014 51.9871 123.014 48.9574C123.014 45.9277 125.47 43.4717 128.5 43.4717C131.53 43.4717 133.986 45.9277 133.986 48.9574Z" fill="black"/>
<path d="M180.067 140.205C180.067 143.235 177.611 145.691 174.581 145.691C171.551 145.691 169.095 143.235 169.095 140.205C169.095 137.176 171.551 134.72 174.581 134.72C177.611 134.72 180.067 137.176 180.067 140.205Z" fill="black"/>
<path d="M38.3977 125.281C38.3977 128.31 35.9417 130.766 32.912 130.766C29.8823 130.766 27.4263 128.31 27.4263 125.281C27.4263 122.251 29.8823 119.795 32.912 119.795C35.9417 119.795 38.3977 122.251 38.3977 125.281Z" fill="black"/>
<path d="M243.859 153.871C243.859 156.901 241.403 159.357 238.373 159.357C235.344 159.357 232.888 156.901 232.888 153.871C232.888 150.842 235.344 148.386 238.373 148.386C241.403 148.386 243.859 150.842 243.859 153.871Z" fill="black"/>
</svg>
