<svg width="257" height="257" viewBox="0 0 257 257" fill="none" xmlns="http://www.w3.org/2000/svg">
<path d="M176.5 128.5C176.5 199.192 155.01 256.5 128.5 256.5C101.99 256.5 80.5 199.192 80.5 128.5C80.5 57.8076 101.99 0.5 128.5 0.5C155.01 0.5 176.5 57.8076 176.5 128.5Z" stroke="black"/>
<path d="M128.5 80.5C199.192 80.5 256.5 101.99 256.5 128.5C256.5 155.01 199.192 176.5 128.5 176.5C57.8076 176.5 0.5 155.01 0.5 128.5C0.5 101.99 57.8076 80.5 128.5 80.5Z" stroke="black"/>
<path d="M162.44 94.5619C212.427 144.549 237.754 200.268 219.009 219.013C200.264 237.758 144.545 212.431 94.558 162.444C44.5709 112.457 19.2443 56.7386 37.9895 37.9934C56.7347 19.2482 112.453 44.5748 162.44 94.5619Z" stroke="black"/>
<path d="M94.558 94.5619C44.5709 144.549 19.2443 200.268 37.9895 219.013C56.7347 237.758 112.453 212.431 162.44 162.444C212.427 112.457 237.754 56.7386 219.009 37.9934C200.264 19.2482 144.545 44.5748 94.558 94.5619Z" stroke="black"/>
</svg>
