<svg width="32" height="32" viewBox="0 0 32 32" fill="none" xmlns="http://www.w3.org/2000/svg">
<path d="M0 16C0 7.16344 7.16344 0 16 0C24.8366 0 32 7.16344 32 16C32 24.8366 24.8366 32 16 32C7.16344 32 0 24.8366 0 16Z" fill="#0077B5"/>
<path d="M11.3075 24.1465H7.68152V13.252H11.3075V24.1465ZM20.2089 12.9961C22.5948 12.9961 24.3835 14.5534 24.3837 17.8994V24.1465H20.7577V18.3174C20.7576 16.8538 20.2329 15.8547 18.9208 15.8545C17.919 15.8545 17.3215 16.5282 17.0594 17.1787C16.9636 17.4118 16.9403 17.7369 16.9403 18.0625V24.1465H13.3143C13.3146 24.0982 13.362 14.2717 13.3143 13.252H16.9403V14.7949C17.4216 14.0531 18.2839 12.9961 20.2089 12.9961ZM9.51843 8C10.7586 8.00018 11.5222 8.81376 11.5458 9.88184C11.5458 10.9279 10.7583 11.7646 9.49402 11.7646H9.47058C8.2535 11.7645 7.46669 10.9278 7.46667 9.88184C7.46667 8.81364 8.27802 8 9.51843 8Z" fill="white"/>
</svg>
