<svg width="256" height="256" viewBox="0 0 256 256" fill="none" xmlns="http://www.w3.org/2000/svg">
<path d="M128 0C111.191 0 94.5462 3.31082 79.0165 9.74342C63.4868 16.176 49.3762 25.6044 37.4903 37.4903C13.4857 61.495 0 94.0523 0 128V256H128C161.948 256 194.505 242.514 218.51 218.51C242.514 194.505 256 161.948 256 128C256 94.0523 242.514 61.495 218.51 37.4903C194.505 13.4857 161.948 0 128 0ZM128 83.2C133.883 83.2 139.709 84.3588 145.144 86.6102C150.58 88.8616 155.518 92.1615 159.678 96.3216C163.838 100.482 167.138 105.42 169.39 110.856C171.641 116.291 172.8 122.117 172.8 128C172.8 133.883 171.641 139.709 169.39 145.144C167.138 150.58 163.838 155.518 159.678 159.678C155.518 163.838 150.58 167.138 145.144 169.39C139.709 171.641 133.883 172.8 128 172.8H83.2V128C83.2 116.118 87.92 104.723 96.3216 96.3216C104.723 87.92 116.118 83.2 128 83.2Z" fill="url(#paint0_linear_7159_5252)"/>
<path d="M256 128C256 161.948 242.514 194.505 218.51 218.51C194.505 242.514 161.948 256 128 256H0C0 233.934 8.76569 212.772 24.3687 197.169C39.9717 181.566 61.134 172.8 83.2 172.8H128C139.882 172.8 151.277 168.08 159.678 159.678C168.08 151.277 172.8 139.882 172.8 128H256Z" fill="url(#paint1_linear_7159_5252)"/>
<path d="M256 128C256 161.948 242.514 194.505 218.51 218.51C194.505 242.514 161.948 256 128 256H0C0 233.934 8.76569 212.772 24.3687 197.169C39.9717 181.566 61.134 172.8 83.2 172.8H128C139.882 172.8 151.277 168.08 159.678 159.678C168.08 151.277 172.8 139.882 172.8 128H256Z" fill="url(#paint2_radial_7159_5252)" fill-opacity="0.56"/>
<path d="M256 128C256 161.948 242.514 194.505 218.51 218.51C194.505 242.514 161.948 256 128 256H0C0 233.934 8.76569 212.772 24.3687 197.169C39.9717 181.566 61.134 172.8 83.2 172.8H128C139.882 172.8 151.277 168.08 159.678 159.678C168.08 151.277 172.8 139.882 172.8 128H256Z" fill="url(#paint3_radial_7159_5252)" fill-opacity="0.15"/>
<path d="M128 7.09051e-05C111.191 7.09051e-05 94.5462 3.31089 79.0165 9.74349C63.4868 16.1761 49.3762 25.6045 37.4903 37.4904C13.4857 61.495 0 94.0523 0 128V256C22.0217 256 43.1453 247.27 58.741 231.722C74.3366 216.174 83.1322 195.078 83.2 173.056L83.456 172.8H83.2V128C83.1732 119.089 85.8045 110.372 90.7574 102.965C95.7103 95.5569 102.76 89.7945 111.005 86.414C119.25 83.0336 128.315 82.1888 137.043 83.9875C145.771 85.7863 153.764 90.147 160 96.512L218.88 37.8881C206.996 25.869 192.842 16.3305 177.241 9.82643C161.64 3.32235 144.902 -0.017746 128 7.09051e-05Z" fill="url(#paint4_linear_7159_5252)"/>
<path d="M128 7.09051e-05C111.191 7.09051e-05 94.5462 3.31089 79.0165 9.74349C63.4868 16.1761 49.3762 25.6045 37.4903 37.4904C13.4857 61.495 0 94.0523 0 128V256C22.0217 256 43.1453 247.27 58.741 231.722C74.3366 216.174 83.1322 195.078 83.2 173.056L83.456 172.8H83.2V128C83.1732 119.089 85.8045 110.372 90.7574 102.965C95.7103 95.5569 102.76 89.7945 111.005 86.414C119.25 83.0336 128.315 82.1888 137.043 83.9875C145.771 85.7863 153.764 90.147 160 96.512L218.88 37.8881C206.996 25.869 192.842 16.3305 177.241 9.82643C161.64 3.32235 144.902 -0.017746 128 7.09051e-05Z" fill="url(#paint5_radial_7159_5252)"/>
<defs>
<linearGradient id="paint0_linear_7159_5252" x1="156.16" y1="90.88" x2="113.92" y2="263.68" gradientUnits="userSpaceOnUse">
<stop stop-color="#9237E3"/>
<stop offset="1" stop-color="#48E6F3"/>
</linearGradient>
<linearGradient id="paint1_linear_7159_5252" x1="83.2" y1="236.8" x2="195.84" y2="211.2" gradientUnits="userSpaceOnUse">
<stop stop-color="#51E6FF"/>
<stop offset="1" stop-color="#71D4FF" stop-opacity="0"/>
</linearGradient>
<radialGradient id="paint2_radial_7159_5252" cx="0" cy="0" r="1" gradientTransform="matrix(51.2 35.2 -61.8647 89.9853 44.8 201.6)" gradientUnits="userSpaceOnUse">
<stop/>
<stop offset="0.7" stop-opacity="0"/>
</radialGradient>
<radialGradient id="paint3_radial_7159_5252" cx="0" cy="0" r="1" gradientUnits="userSpaceOnUse" gradientTransform="translate(29.44 192) rotate(31.866) scale(111.529 196.015)">
<stop offset="0.33"/>
<stop offset="0.6" stop-opacity="0"/>
</radialGradient>
<linearGradient id="paint4_linear_7159_5252" x1="52.48" y1="136.96" x2="117.76" y2="44.8" gradientUnits="userSpaceOnUse">
<stop stop-color="#6E06E9"/>
<stop offset="1" stop-color="#AB5ADD" stop-opacity="0"/>
</linearGradient>
<radialGradient id="paint5_radial_7159_5252" cx="0" cy="0" r="1" gradientUnits="userSpaceOnUse" gradientTransform="translate(-21.76 79.3601) rotate(-9.73941) scale(174.029 457.543)">
<stop stop-color="#6D05E8"/>
<stop offset="1" stop-color="#6D05E8" stop-opacity="0"/>
</radialGradient>
</defs>
</svg>
