<svg width="256" height="256" viewBox="0 0 256 256" fill="none" xmlns="http://www.w3.org/2000/svg">
<g clip-path="url(#clip0_7159_2150)">
<path d="M129.316 239.982C203.992 239.982 241.307 189.842 241.307 127.991C241.307 66.1401 203.992 16 129.316 16C54.6407 16 17.3252 66.1401 17.3252 127.991C17.3252 189.842 54.6407 239.982 129.316 239.982Z" fill="url(#paint0_radial_7159_2150)"/>
<path d="M129.316 239.982C203.992 239.982 241.307 189.842 241.307 127.991C241.307 66.1401 203.992 16 129.316 16C54.6407 16 17.3252 66.1401 17.3252 127.991C17.3252 189.842 54.6407 239.982 129.316 239.982Z" fill="url(#paint1_radial_7159_2150)"/>
<path d="M129.316 239.982C203.992 239.982 241.307 189.842 241.307 127.991C241.307 66.1401 203.992 16 129.316 16C54.6407 16 17.3252 66.1401 17.3252 127.991C17.3252 189.842 54.6407 239.982 129.316 239.982Z" fill="url(#paint2_radial_7159_2150)" fill-opacity="0.6"/>
<path d="M129.316 239.982C203.992 239.982 241.307 189.842 241.307 127.991C241.307 66.1401 203.992 16 129.316 16C54.6407 16 17.3252 66.1401 17.3252 127.991C17.3252 189.842 54.6407 239.982 129.316 239.982Z" fill="url(#paint3_radial_7159_2150)"/>
<path d="M129.316 239.982C203.992 239.982 241.307 189.842 241.307 127.991C241.307 66.1401 203.992 16 129.316 16C54.6407 16 17.3252 66.1401 17.3252 127.991C17.3252 189.842 54.6407 239.982 129.316 239.982Z" fill="url(#paint4_radial_7159_2150)"/>
<path d="M129.316 239.982C203.992 239.982 241.307 189.842 241.307 127.991C241.307 66.1401 203.992 16 129.316 16C54.6407 16 17.3252 66.1401 17.3252 127.991C17.3252 189.842 54.6407 239.982 129.316 239.982Z" fill="url(#paint5_radial_7159_2150)"/>
<path d="M129.316 239.982C203.992 239.982 241.307 189.842 241.307 127.991C241.307 66.1401 203.992 16 129.316 16C54.6407 16 17.3252 66.1401 17.3252 127.991C17.3252 189.842 54.6407 239.982 129.316 239.982Z" fill="url(#paint6_radial_7159_2150)"/>
<path d="M89.3252 234.372C73.3239 229.465 59.9914 221.52 49.3252 211.271V65.5C49.3252 64.6716 49.9968 64 50.8252 64H89.3252V234.372ZM207.825 64C208.654 64 209.325 64.6716 209.325 65.5V211.254C198.66 221.507 185.328 229.455 169.325 234.366V64H207.825Z" fill="url(#paint7_linear_7159_2150)"/>
<path fill-rule="evenodd" clip-rule="evenodd" d="M56.8637 74.6787C55.4099 78.7748 50.9372 80.97 46.7956 79.5895C42.604 78.1923 40.3388 73.6617 41.7359 69.4702L41.739 69.4611L41.7421 69.4518L41.7487 69.4322L41.7633 69.3895L41.798 69.2903C41.8236 69.2181 41.8543 69.1337 41.8905 69.038C41.9627 68.8468 42.0568 68.6096 42.1754 68.333C42.4119 67.7811 42.7488 67.0648 43.2072 66.2399C44.1191 64.5983 45.5451 62.4666 47.6686 60.3431C52.0678 55.9439 59.065 52 69.3254 52C79.5858 52 86.583 55.9439 90.9823 60.3431C93.1057 62.4666 94.5317 64.5983 95.4437 66.2399C95.902 67.0648 96.2389 67.7811 96.4754 68.333C96.594 68.6096 96.6881 68.8468 96.7604 69.038C96.7965 69.1337 96.8272 69.2181 96.8529 69.2903L96.8876 69.3895L96.9021 69.4322L96.9087 69.4518L96.9119 69.4611L96.9149 69.4702C98.3121 73.6617 96.0468 78.1923 91.8552 79.5895C87.7136 80.97 83.241 78.7748 81.7872 74.6787C81.7872 74.6787 81.777 74.654 81.7691 74.6357C81.7244 74.5314 81.6238 74.3102 81.4572 74.0101C81.1191 73.4017 80.5451 72.5334 79.6686 71.6569C78.0678 70.0561 75.065 68 69.3254 68C63.5858 68 60.583 70.0561 58.9823 71.6569C58.1057 72.5334 57.5317 73.4017 57.1937 74.0101C57.027 74.3102 56.9264 74.5314 56.8817 74.6357C56.8739 74.654 56.8637 74.6787 56.8637 74.6787Z" fill="url(#paint8_radial_7159_2150)"/>
<path fill-rule="evenodd" clip-rule="evenodd" d="M176.864 74.6787C175.41 78.7748 170.937 80.97 166.796 79.5895C162.604 78.1923 160.339 73.6617 161.736 69.4702L161.739 69.4611L161.742 69.4518L161.749 69.4322L161.763 69.3895L161.798 69.2903C161.824 69.2181 161.854 69.1337 161.89 69.038C161.963 68.8468 162.057 68.6096 162.175 68.333C162.412 67.7811 162.749 67.0648 163.207 66.2399C164.119 64.5983 165.545 62.4666 167.669 60.3431C172.068 55.9439 179.065 52 189.325 52C199.586 52 206.583 55.9439 210.982 60.3431C213.106 62.4666 214.532 64.5983 215.444 66.2399C215.902 67.0648 216.239 67.7811 216.475 68.333C216.594 68.6096 216.688 68.8468 216.76 69.038C216.796 69.1337 216.827 69.2181 216.853 69.2903L216.888 69.3895L216.902 69.4322L216.909 69.4518L216.912 69.4611L216.915 69.4702C218.312 73.6617 216.047 78.1923 211.855 79.5895C207.714 80.97 203.241 78.7748 201.787 74.6787C201.787 74.6787 201.777 74.654 201.769 74.6357C201.724 74.5314 201.624 74.3102 201.457 74.0101C201.119 73.4017 200.545 72.5334 199.669 71.6569C198.068 70.0561 195.065 68 189.325 68C183.586 68 180.583 70.0561 178.982 71.6569C178.106 72.5334 177.532 73.4017 177.194 74.0101C177.027 74.3102 176.926 74.5314 176.882 74.6357C176.874 74.654 176.864 74.6787 176.864 74.6787Z" fill="url(#paint9_radial_7159_2150)"/>
<rect x="97.3252" y="88" width="64" height="80" rx="5" fill="url(#paint10_radial_7159_2150)"/>
</g>
<defs>
<radialGradient id="paint0_radial_7159_2150" cx="0" cy="0" r="1" gradientUnits="userSpaceOnUse" gradientTransform="translate(205.325 72) rotate(132.839) scale(300.027)">
<stop stop-color="#FFF478"/>
<stop offset="0.474827" stop-color="#FFB02E"/>
<stop offset="1" stop-color="#F70A8D"/>
</radialGradient>
<radialGradient id="paint1_radial_7159_2150" cx="0" cy="0" r="1" gradientUnits="userSpaceOnUse" gradientTransform="translate(129.325 100) rotate(101.31) scale(142.773 182.864)">
<stop offset="0.787821" stop-color="#F59639" stop-opacity="0"/>
<stop offset="0.972509" stop-color="#FF7DCE"/>
</radialGradient>
<radialGradient id="paint2_radial_7159_2150" cx="0" cy="0" r="1" gradientUnits="userSpaceOnUse" gradientTransform="translate(145.325 112) rotate(135) scale(328.098)">
<stop offset="0.314853" stop-opacity="0"/>
<stop offset="1"/>
</radialGradient>
<radialGradient id="paint3_radial_7159_2150" cx="0" cy="0" r="1" gradientUnits="userSpaceOnUse" gradientTransform="translate(129.325 136) rotate(77.692) scale(225.175)">
<stop offset="0.507903" stop-color="#7D6133" stop-opacity="0"/>
<stop offset="1" stop-color="#715B32"/>
</radialGradient>
<radialGradient id="paint4_radial_7159_2150" cx="0" cy="0" r="1" gradientUnits="userSpaceOnUse" gradientTransform="translate(133.325 132) rotate(55.7131) scale(106.508 77.2025)">
<stop stop-color="#FFB849"/>
<stop offset="1" stop-color="#FFB847" stop-opacity="0"/>
</radialGradient>
<radialGradient id="paint5_radial_7159_2150" cx="0" cy="0" r="1" gradientUnits="userSpaceOnUse" gradientTransform="translate(165.325 144) rotate(9.86581) scale(93.3809)">
<stop stop-color="#FFA64B"/>
<stop offset="0.900412" stop-color="#FFAE46" stop-opacity="0"/>
</radialGradient>
<radialGradient id="paint6_radial_7159_2150" cx="0" cy="0" r="1" gradientUnits="userSpaceOnUse" gradientTransform="translate(141.325 120) rotate(43.9708) scale(472.424)">
<stop offset="0.185425" stop-opacity="0"/>
<stop offset="1" stop-opacity="0.4"/>
</radialGradient>
<linearGradient id="paint7_linear_7159_2150" x1="189.325" y1="64" x2="189.325" y2="239.997" gradientUnits="userSpaceOnUse">
<stop stop-color="#6D9DFF"/>
<stop offset="1" stop-color="#4864FF"/>
</linearGradient>
<radialGradient id="paint8_radial_7159_2150" cx="0" cy="0" r="1" gradientUnits="userSpaceOnUse" gradientTransform="translate(69.3254 80) rotate(-90) scale(28 28)">
<stop offset="0.404968" stop-color="#432552"/>
<stop offset="0.703424" stop-color="#503F44"/>
<stop offset="0.805624" stop-color="#503F44"/>
<stop offset="1" stop-color="#4C342C"/>
</radialGradient>
<radialGradient id="paint9_radial_7159_2150" cx="0" cy="0" r="1" gradientUnits="userSpaceOnUse" gradientTransform="translate(189.325 80) rotate(-90) scale(28)">
<stop offset="0.404968" stop-color="#432552"/>
<stop offset="0.703424" stop-color="#503F44"/>
<stop offset="0.805624" stop-color="#503F44"/>
<stop offset="1" stop-color="#4C342C"/>
</radialGradient>
<radialGradient id="paint10_radial_7159_2150" cx="0" cy="0" r="1" gradientUnits="userSpaceOnUse" gradientTransform="translate(129.325 185.778) rotate(-90) scale(97.7778 78.2222)">
<stop stop-color="#F70A8D"/>
<stop offset="1" stop-color="#89029C"/>
</radialGradient>
<clipPath id="clip0_7159_2150">
<rect width="256" height="256" fill="white"/>
</clipPath>
</defs>
</svg>
