<svg width="32" height="32" viewBox="0 0 32 32" fill="none" xmlns="http://www.w3.org/2000/svg">
<g clip-path="url(#clip0_7159_2150)">
<path d="M16.1645 29.9978C25.499 29.9978 30.1634 23.7303 30.1634 15.9989C30.1634 8.26751 25.499 2 16.1645 2C6.83008 2 2.16565 8.26751 2.16565 15.9989C2.16565 23.7303 6.83008 29.9978 16.1645 29.9978Z" fill="url(#paint0_radial_7159_2150)"/>
<path d="M16.1645 29.9978C25.499 29.9978 30.1634 23.7303 30.1634 15.9989C30.1634 8.26751 25.499 2 16.1645 2C6.83008 2 2.16565 8.26751 2.16565 15.9989C2.16565 23.7303 6.83008 29.9978 16.1645 29.9978Z" fill="url(#paint1_radial_7159_2150)"/>
<path d="M16.1645 29.9978C25.499 29.9978 30.1634 23.7303 30.1634 15.9989C30.1634 8.26751 25.499 2 16.1645 2C6.83008 2 2.16565 8.26751 2.16565 15.9989C2.16565 23.7303 6.83008 29.9978 16.1645 29.9978Z" fill="url(#paint2_radial_7159_2150)" fill-opacity="0.6"/>
<path d="M16.1645 29.9978C25.499 29.9978 30.1634 23.7303 30.1634 15.9989C30.1634 8.26751 25.499 2 16.1645 2C6.83008 2 2.16565 8.26751 2.16565 15.9989C2.16565 23.7303 6.83008 29.9978 16.1645 29.9978Z" fill="url(#paint3_radial_7159_2150)"/>
<path d="M16.1645 29.9978C25.499 29.9978 30.1634 23.7303 30.1634 15.9989C30.1634 8.26751 25.499 2 16.1645 2C6.83008 2 2.16565 8.26751 2.16565 15.9989C2.16565 23.7303 6.83008 29.9978 16.1645 29.9978Z" fill="url(#paint4_radial_7159_2150)"/>
<path d="M16.1645 29.9978C25.499 29.9978 30.1634 23.7303 30.1634 15.9989C30.1634 8.26751 25.499 2 16.1645 2C6.83008 2 2.16565 8.26751 2.16565 15.9989C2.16565 23.7303 6.83008 29.9978 16.1645 29.9978Z" fill="url(#paint5_radial_7159_2150)"/>
<path d="M16.1645 29.9978C25.499 29.9978 30.1634 23.7303 30.1634 15.9989C30.1634 8.26751 25.499 2 16.1645 2C6.83008 2 2.16565 8.26751 2.16565 15.9989C2.16565 23.7303 6.83008 29.9978 16.1645 29.9978Z" fill="url(#paint6_radial_7159_2150)"/>
<path d="M11.1656 29.2959C9.16538 28.6824 7.49894 27.6895 6.16565 26.4082V9.5C6.16565 8.67157 6.83722 8 7.66565 8H11.1656V29.2959ZM24.6656 8C25.4941 8 26.1656 8.67157 26.1656 9.5V26.4062C24.8325 27.688 23.166 28.681 21.1656 29.2949V8H24.6656Z" fill="url(#paint7_linear_7159_2150)"/>
<path fill-rule="evenodd" clip-rule="evenodd" d="M7.10796 9.33484C6.92623 9.84685 6.36715 10.1213 5.84945 9.94868C5.32551 9.77404 5.04235 9.20772 5.21699 8.68377L5.21737 8.68264L5.21776 8.68147L5.21859 8.67903L5.22041 8.67369L5.22474 8.66129C5.22795 8.65226 5.23179 8.64171 5.23631 8.62975C5.24534 8.60585 5.25711 8.5762 5.27192 8.54163C5.30149 8.47264 5.34361 8.3831 5.40089 8.27998C5.51489 8.07479 5.69314 7.80833 5.95857 7.54289C6.50848 6.99298 7.38312 6.5 8.66568 6.5C9.94823 6.5 10.8229 6.99298 11.3728 7.54289C11.6382 7.80833 11.8165 8.07479 11.9305 8.27998C11.9877 8.3831 12.0299 8.47264 12.0594 8.54163C12.0742 8.5762 12.086 8.60585 12.095 8.62975C12.0996 8.64171 12.1034 8.65226 12.1066 8.66129L12.1109 8.67369L12.1128 8.67903L12.1136 8.68147L12.114 8.68264L12.1144 8.68377C12.289 9.20772 12.0058 9.77404 11.4819 9.94868C10.9642 10.1213 10.4051 9.84685 10.2234 9.33484C10.2234 9.33484 10.2221 9.33175 10.2211 9.32947C10.2156 9.31643 10.203 9.28877 10.1821 9.25127C10.1399 9.17521 10.0681 9.06667 9.95857 8.95711C9.75848 8.75702 9.38312 8.5 8.66568 8.5C7.94823 8.5 7.57287 8.75702 7.37278 8.95711C7.26322 9.06667 7.19146 9.17521 7.14921 9.25127C7.12837 9.28877 7.1158 9.31643 7.11021 9.32947C7.10923 9.33175 7.10796 9.33484 7.10796 9.33484Z" fill="url(#paint8_radial_7159_2150)"/>
<path fill-rule="evenodd" clip-rule="evenodd" d="M22.108 9.33484C21.9262 9.84685 21.3672 10.1213 20.8494 9.94868C20.3255 9.77404 20.0423 9.20772 20.217 8.68377L20.2174 8.68264L20.2178 8.68147L20.2186 8.67903L20.2204 8.67369L20.2247 8.66129C20.2279 8.65226 20.2318 8.64171 20.2363 8.62975C20.2453 8.60585 20.2571 8.5762 20.2719 8.54163C20.3015 8.47264 20.3436 8.3831 20.4009 8.27998C20.5149 8.07479 20.6931 7.80833 20.9586 7.54289C21.5085 6.99298 22.3831 6.5 23.6657 6.5C24.9482 6.5 25.8229 6.99298 26.3728 7.54289C26.6382 7.80833 26.8165 8.07479 26.9305 8.27998C26.9877 8.3831 27.0299 8.47264 27.0594 8.54163C27.0742 8.5762 27.086 8.60585 27.095 8.62975C27.0996 8.64171 27.1034 8.65226 27.1066 8.66129L27.1109 8.67369L27.1128 8.67903L27.1136 8.68147L27.114 8.68264L27.1144 8.68377C27.289 9.20772 27.0058 9.77404 26.4819 9.94868C25.9642 10.1213 25.4051 9.84685 25.2234 9.33484C25.2234 9.33484 25.2221 9.33175 25.2211 9.32947C25.2156 9.31643 25.203 9.28877 25.1821 9.25127C25.1399 9.17521 25.0681 9.06667 24.9586 8.95711C24.7585 8.75702 24.3831 8.5 23.6657 8.5C22.9482 8.5 22.5729 8.75702 22.3728 8.95711C22.2632 9.06667 22.1915 9.17521 22.1492 9.25127C22.1284 9.28877 22.1158 9.31643 22.1102 9.32947C22.1092 9.33175 22.108 9.33484 22.108 9.33484Z" fill="url(#paint9_radial_7159_2150)"/>
<rect x="12.1656" y="11" width="8" height="10" rx="4" fill="url(#paint10_radial_7159_2150)"/>
</g>
<defs>
<radialGradient id="paint0_radial_7159_2150" cx="0" cy="0" r="1" gradientUnits="userSpaceOnUse" gradientTransform="translate(25.6656 9) rotate(132.839) scale(37.5033)">
<stop stop-color="#FFF478"/>
<stop offset="0.474827" stop-color="#FFB02E"/>
<stop offset="1" stop-color="#F70A8D"/>
</radialGradient>
<radialGradient id="paint1_radial_7159_2150" cx="0" cy="0" r="1" gradientUnits="userSpaceOnUse" gradientTransform="translate(16.1657 12.5) rotate(101.31) scale(17.8466 22.8581)">
<stop offset="0.787821" stop-color="#F59639" stop-opacity="0"/>
<stop offset="0.972509" stop-color="#FF7DCE"/>
</radialGradient>
<radialGradient id="paint2_radial_7159_2150" cx="0" cy="0" r="1" gradientUnits="userSpaceOnUse" gradientTransform="translate(18.1657 14) rotate(135) scale(41.0122)">
<stop offset="0.314853" stop-opacity="0"/>
<stop offset="1"/>
</radialGradient>
<radialGradient id="paint3_radial_7159_2150" cx="0" cy="0" r="1" gradientUnits="userSpaceOnUse" gradientTransform="translate(16.1657 17) rotate(77.692) scale(28.1469)">
<stop offset="0.507903" stop-color="#7D6133" stop-opacity="0"/>
<stop offset="1" stop-color="#715B32"/>
</radialGradient>
<radialGradient id="paint4_radial_7159_2150" cx="0" cy="0" r="1" gradientUnits="userSpaceOnUse" gradientTransform="translate(16.6656 16.5) rotate(55.7131) scale(13.3135 9.65032)">
<stop stop-color="#FFB849"/>
<stop offset="1" stop-color="#FFB847" stop-opacity="0"/>
</radialGradient>
<radialGradient id="paint5_radial_7159_2150" cx="0" cy="0" r="1" gradientUnits="userSpaceOnUse" gradientTransform="translate(20.6656 18) rotate(9.86581) scale(11.6726)">
<stop stop-color="#FFA64B"/>
<stop offset="0.900412" stop-color="#FFAE46" stop-opacity="0"/>
</radialGradient>
<radialGradient id="paint6_radial_7159_2150" cx="0" cy="0" r="1" gradientUnits="userSpaceOnUse" gradientTransform="translate(17.6656 15) rotate(43.9708) scale(59.0529)">
<stop offset="0.185425" stop-opacity="0"/>
<stop offset="1" stop-opacity="0.4"/>
</radialGradient>
<linearGradient id="paint7_linear_7159_2150" x1="23.6656" y1="8" x2="23.6656" y2="29.999" gradientUnits="userSpaceOnUse">
<stop stop-color="#6D9DFF"/>
<stop offset="1" stop-color="#4864FF"/>
</linearGradient>
<radialGradient id="paint8_radial_7159_2150" cx="0" cy="0" r="1" gradientUnits="userSpaceOnUse" gradientTransform="translate(8.66568 10) rotate(-90) scale(3.5)">
<stop offset="0.404968" stop-color="#432552"/>
<stop offset="0.703424" stop-color="#503F44"/>
<stop offset="0.805624" stop-color="#503F44"/>
<stop offset="1" stop-color="#4C342C"/>
</radialGradient>
<radialGradient id="paint9_radial_7159_2150" cx="0" cy="0" r="1" gradientUnits="userSpaceOnUse" gradientTransform="translate(23.6657 10) rotate(-90) scale(3.5)">
<stop offset="0.404968" stop-color="#432552"/>
<stop offset="0.703424" stop-color="#503F44"/>
<stop offset="0.805624" stop-color="#503F44"/>
<stop offset="1" stop-color="#4C342C"/>
</radialGradient>
<radialGradient id="paint10_radial_7159_2150" cx="0" cy="0" r="1" gradientUnits="userSpaceOnUse" gradientTransform="translate(16.1656 23.2222) rotate(-90) scale(12.2222 9.77778)">
<stop stop-color="#F70A8D"/>
<stop offset="1" stop-color="#89029C"/>
</radialGradient>
<clipPath id="clip0_7159_2150">
<rect width="32" height="32" fill="white"/>
</clipPath>
</defs>
</svg>
