<svg width="256" height="256" viewBox="0 0 256 256" fill="none" xmlns="http://www.w3.org/2000/svg">
<path d="M256 133.333C256 177.516 220.556 213.333 176.833 213.333C133.11 213.333 97.665 177.516 97.665 133.333C97.665 89.1502 133.11 53.333 176.833 53.333C220.556 53.333 256 89.1502 256 133.333Z" fill="#F79F1A"/>
<path d="M158.335 133.333C158.335 177.516 122.891 213.333 79.1675 213.333C35.4445 213.333 0 177.516 0 133.333C0 89.1502 35.4445 53.333 79.1675 53.333C122.891 53.333 158.335 89.1502 158.335 133.333Z" fill="#E60019"/>
<path d="M128 70.3564C109.529 85.0018 97.6714 107.76 97.6714 133.326C97.6714 158.891 109.529 181.667 128 196.312C146.472 181.667 158.329 158.891 158.329 133.326C158.329 107.76 146.472 85.0018 128 70.3564Z" fill="#FF5700"/>
</svg>
