<svg width="32" height="32" viewBox="0 0 32 32" fill="none" xmlns="http://www.w3.org/2000/svg">
<path d="M32 16.6665C32 22.1894 27.5694 26.6665 22.1041 26.6665C16.6387 26.6665 12.2081 22.1894 12.2081 16.6665C12.2081 11.1437 16.6387 6.6665 22.1041 6.6665C27.5694 6.6665 32 11.1437 32 16.6665Z" fill="#F79F1A"/>
<path d="M19.7919 16.6665C19.7919 22.1894 15.3613 26.6665 9.89594 26.6665C4.43056 26.6665 0 22.1894 0 16.6665C0 11.1437 4.43056 6.6665 9.89594 6.6665C15.3613 6.6665 19.7919 11.1437 19.7919 16.6665Z" fill="#E60019"/>
<path d="M16 8.79443C13.6911 10.6251 12.2089 13.4699 12.2089 16.6656C12.2089 19.8613 13.6911 22.7082 16 24.5389C18.309 22.7082 19.7912 19.8613 19.7912 16.6656C19.7912 13.4699 18.309 10.6251 16 8.79443Z" fill="#FF5700"/>
</svg>
