<svg width="256" height="256" viewBox="0 0 256 256" fill="none" xmlns="http://www.w3.org/2000/svg">
<path d="M144.399 127.998C144.399 169.236 112.074 202.666 72.1983 202.666C32.3224 202.666 0 169.246 0 127.998C0 86.7513 32.3248 53.333 72.1983 53.333C112.072 53.333 144.399 86.7613 144.399 127.998ZM223.604 127.998C223.604 166.818 207.44 198.285 187.504 198.285C167.567 198.285 151.403 166.808 151.403 127.998C151.403 89.1888 167.567 57.7121 187.504 57.7121C207.44 57.7121 223.604 89.1888 223.604 127.998ZM256 127.998C256 162.779 250.315 190.972 243.303 190.972C236.291 190.972 230.606 162.769 230.606 127.998C230.606 93.2279 236.291 65.0247 243.305 65.0247C250.32 65.0247 256 93.2204 256 127.998Z" fill="black"/>
</svg>
