<svg width="32" height="32" viewBox="0 0 32 32" fill="none" xmlns="http://www.w3.org/2000/svg">
<path d="M16 0C6.988 0 0 6.60341 0 15.5186C0 20.1822 1.912 24.2139 5.024 26.9976C5.284 27.2296 5.444 27.5576 5.452 27.9095L5.54 30.7573C5.568 31.6652 6.504 32.2571 7.336 31.8892L10.512 30.4893C10.78 30.3693 11.084 30.3493 11.368 30.4253C12.828 30.8253 14.38 31.0412 16 31.0412C25.012 31.0412 32 24.4378 32 15.5226C32 6.60741 25.012 0 16 0Z" fill="url(#paint0_radial_7159_5270)"/>
<path d="M6.39202 20.058L11.092 12.6027C11.84 11.4148 13.44 11.1228 14.564 11.9627L18.304 14.7665C18.648 15.0224 19.12 15.0224 19.46 14.7625L24.508 10.9308C25.18 10.4189 26.06 11.2268 25.612 11.9427L20.908 19.3941C20.16 20.582 18.56 20.8739 17.436 20.034L13.696 17.2302C13.352 16.9743 12.88 16.9743 12.54 17.2342L7.49202 21.0659C6.82002 21.5779 5.94002 20.7739 6.39202 20.058Z" fill="white"/>
<defs>
<radialGradient id="paint0_radial_7159_5270" cx="0" cy="0" r="1" gradientUnits="userSpaceOnUse" gradientTransform="translate(6.16 31.8229) scale(34.8672 34.864)">
<stop stop-color="#0099FF"/>
<stop offset="0.6098" stop-color="#A033FF"/>
<stop offset="0.9348" stop-color="#FF5280"/>
<stop offset="1" stop-color="#FF7061"/>
</radialGradient>
</defs>
</svg>
