<svg width="32" height="32" viewBox="0 0 32 32" fill="none" xmlns="http://www.w3.org/2000/svg">
<path d="M16.4343 9.97549C13.8827 6.61434 11.749 5.3335 9.19526 5.3335C3.98898 5.3335 0 12.3431 0 19.7624C0 24.4053 2.17104 27.3335 5.80755 27.3335C8.42483 27.3335 10.3072 26.0571 13.6534 20.0053C13.6534 20.0053 15.0484 17.4568 16.0081 15.7012C16.3443 16.2629 16.6977 16.8672 17.0705 17.5169L18.6399 20.248C21.6965 25.5401 23.3998 27.3335 26.4858 27.3335C30.0285 27.3335 32 24.3653 32 19.626C32 11.8576 27.9211 5.3335 22.966 5.3335C20.3421 5.3335 18.2911 7.37818 16.4343 9.97549ZM21.3413 17.8128L19.4651 14.5755C18.9576 13.7212 18.471 12.936 18.0015 12.2164C19.6923 9.51613 21.0872 8.17083 22.7461 8.17083C26.1925 8.17083 28.9497 13.4205 28.9497 19.8687C28.9497 22.3265 28.1714 23.7528 26.5591 23.7528C25.0138 23.7528 24.2755 22.697 21.3413 17.8128ZM3.46097 19.8231C3.46097 14.4369 6.05677 8.92939 9.15124 8.92939C10.8269 8.92939 12.2272 9.93061 14.3722 13.1074C12.3354 16.3394 11.1017 18.3665 11.1017 18.3665C8.38868 22.7665 7.45005 23.7528 5.93961 23.7528C4.38493 23.7528 3.46097 22.3408 3.46097 19.8231Z" fill="#1080F8"/>
<path d="M0 19.7624C0 12.3431 3.98898 5.3335 9.19526 5.3335L9.15124 8.92939C6.05677 8.92939 3.46097 14.4369 3.46097 19.8231C3.46097 22.3408 4.38493 23.7528 5.9396 23.7528L5.80755 27.3335C2.17104 27.3335 0 24.4053 0 19.7624Z" fill="url(#paint0_linear_7159_5235)"/>
<path d="M9.19527 5.3335C11.749 5.3335 13.8827 6.61434 16.4343 9.97549C17.5425 11.4353 18.5263 12.9953 19.4651 14.5755L21.3413 17.8128C24.2755 22.697 25.0138 23.7528 26.5591 23.7528L26.4858 27.3335C23.3998 27.3335 21.6965 25.5401 18.6399 20.248L17.0705 17.5169C16.6977 16.8672 16.3443 16.2629 16.0081 15.7012C15.6867 15.1642 14.9385 13.9461 14.3722 13.1074C12.2272 9.93062 10.8269 8.92939 9.15125 8.92939L9.19527 5.3335Z" fill="url(#paint1_linear_7159_5235)"/>
<path d="M32 19.626C32 24.3652 30.0285 27.3335 26.4858 27.3335L26.5591 23.7527C28.1714 23.7527 28.9497 22.3265 28.9497 19.8686L32 19.626Z" fill="url(#paint2_linear_7159_5235)"/>
<defs>
<linearGradient id="paint0_linear_7159_5235" x1="9.19526" y1="8.93156" x2="8.2299" y2="19.5966" gradientUnits="userSpaceOnUse">
<stop stop-color="#0C64DD"/>
<stop offset="1" stop-color="#1080F8"/>
</linearGradient>
<linearGradient id="paint1_linear_7159_5235" x1="16.4342" y1="10.0232" x2="26.9977" y2="23.4016" gradientUnits="userSpaceOnUse">
<stop stop-color="#0C64DD"/>
<stop offset="1" stop-color="#1076EE"/>
</linearGradient>
<linearGradient id="paint2_linear_7159_5235" x1="26.5564" y1="23.7513" x2="29.1616" y2="20.2385" gradientUnits="userSpaceOnUse">
<stop stop-color="#1077EF"/>
<stop offset="1" stop-color="#1080F8" stop-opacity="0"/>
</linearGradient>
</defs>
</svg>
