<svg width="256" height="256" viewBox="0 0 256 256" fill="none" xmlns="http://www.w3.org/2000/svg">
<path d="M157.863 177.668C140.526 170.908 122.24 167.583 103.006 167.697C80.3005 167.831 58.4486 174.342 39.9042 186.485C36.2127 188.899 32.2647 184.292 35.0602 181.284C36.6392 179.581 38.0547 177.84 39.3067 176.062C50.5171 160.12 57.1491 142.142 59.2026 122.129C62.6811 88.1811 51.7266 55.8185 34.9392 26.3223C34.2492 25.112 34.9177 22.8332 36.1557 22.0264C37.4502 21.1822 38.7712 21.1086 40.1177 21.807C66.3751 35.4702 89.818 52.3623 110.446 72.4848C139.027 100.36 160.125 134.612 165.069 174.434C165.363 176.788 164.438 178.217 162.295 178.722C160.915 179.048 159.286 178.22 157.863 177.668ZM184.068 225.239C188.479 228.53 192.576 228.211 196.766 225.161C201.484 221.721 206.345 218.188 211.348 214.559C215.651 211.439 220.78 210.335 226.001 211.743C228.045 212.3 230.412 213.569 233.1 215.55C237.788 219.016 242.504 222.443 247.248 225.833C248.78 226.923 250.423 227.48 252.178 227.503C254.421 227.536 255.687 228.659 255.976 230.872C256.034 231.274 255.985 231.684 255.834 232.061C255.189 233.712 253.977 234.54 252.199 234.545C249.012 234.559 246.107 233.658 243.486 231.842C238.407 228.318 233.399 224.696 228.462 220.978C224.529 218.027 220.204 217.008 216.035 220.009C210.808 223.766 205.587 227.531 200.372 231.303C195.943 234.507 191.134 235.415 185.946 234.028C183.751 233.438 181.327 232.152 178.677 230.171C173.807 226.534 169.199 223.194 164.855 220.151C161.1 217.513 157.308 217.53 153.482 220.2C149.285 223.13 144.882 226.322 140.272 229.775C137.275 232.021 134.686 233.438 132.504 234.028C127.35 235.429 122.527 234.523 118.036 231.31C113.227 227.87 108.444 224.393 103.688 220.879C98.7595 217.242 94.9325 217.412 90.081 220.922C85.2334 224.432 80.3892 227.947 75.5486 231.466C71.3141 234.542 66.5621 235.389 61.2941 234.007C59.1031 233.431 56.6846 232.151 54.0381 230.164C49.4621 226.729 44.5612 223.189 39.3352 219.542C36.3692 217.468 31.9087 217.97 29.0992 220.009C23.664 223.951 18.2082 227.865 12.7318 231.75C10.0098 233.679 6.83278 234.599 3.19979 234.509C1.73479 234.477 0.703295 233.57 0.105797 231.792C0.0108181 231.512 -0.0207696 231.215 0.0132973 230.921C0.236297 228.733 1.45229 227.588 3.66229 227.489C5.72528 227.399 7.46577 226.84 8.88327 225.812C14.0843 222.041 19.2913 218.279 24.5042 214.524C24.6322 214.43 24.6582 214.312 24.5822 214.17C22.2761 210.086 19.9478 206.015 17.5972 201.956C16.0892 199.366 17.4197 196.506 20.5137 196.308C91.8963 191.861 163.278 187.396 234.658 182.912C235.586 182.851 236.517 182.846 237.446 182.898C239.623 183.018 240.918 185.467 240.313 187.434C240.114 188.09 239.521 188.859 238.535 189.741C222.63 203.973 203.886 215.225 184.125 224.637C183.779 224.807 183.76 225.008 184.068 225.239ZM26.6597 203.215C26.6478 203.219 26.6369 203.225 26.6277 203.234C26.6185 203.242 26.6113 203.252 26.6065 203.264C26.6018 203.275 26.5996 203.287 26.6001 203.3C26.6007 203.312 26.604 203.324 26.6097 203.335L31.0767 211.099C31.1378 211.205 31.2299 211.289 31.3405 211.341C31.4512 211.392 31.5751 211.409 31.6957 211.389C36.1722 210.639 40.1957 211.495 43.7667 213.958C48.4946 217.214 53.4951 220.82 58.7686 224.778C62.7306 227.751 66.8851 228.798 71.0961 225.833C75.2166 222.931 80.106 219.396 85.7635 215.225C90.8705 211.46 95.9495 210.115 102.081 211.941C103.84 212.465 106.266 213.88 109.358 216.187C113.538 219.297 117.754 222.36 122.005 225.373C126.586 228.621 130.541 228.14 134.951 224.828C139.879 221.121 144.878 217.509 149.946 213.993C156.277 209.599 163.966 210.49 170.077 215.062C172.243 216.687 174.434 218.28 176.649 219.839C176.859 219.991 177.141 220.019 177.384 219.911C194.971 211.918 211.099 202.352 225.766 191.213C226.388 190.741 226.309 190.532 225.532 190.583C159.355 194.73 93.6565 198.842 28.4377 202.918C27.8365 202.958 27.2408 203.057 26.6597 203.215ZM177.972 170.188C169.686 137.981 155.338 107.083 134.681 81.8755C125.799 71.0388 116.191 62.053 105.858 54.9197C103.262 53.1294 104.713 48.735 107.885 48.7489C108.696 48.7489 109.578 48.9633 110.532 49.3926C157.209 70.3403 190.855 110.325 210.16 157.06C212.3 162.241 214.187 167.522 215.815 172.884C216.832 176.217 213.709 179.239 210.587 177.264C202.549 172.19 191.843 171.815 181.792 173.075C179.914 173.309 178.413 171.915 177.972 170.188ZM184.502 165.708C191.687 165 199.248 165.468 206.226 167.513C206.261 167.522 206.298 167.522 206.333 167.512C206.367 167.502 206.399 167.483 206.424 167.457C206.448 167.431 206.465 167.399 206.473 167.364C206.481 167.328 206.479 167.292 206.468 167.258C192.547 129.673 168.775 95.5198 136.118 72.152C135.525 71.7317 135.468 71.7959 135.947 72.343C159.151 98.8671 174.964 131.308 184.061 165.404C184.123 165.63 184.27 165.732 184.502 165.708ZM61.0306 68.762C71.1811 103.616 68.6206 140.755 50.3536 172.198C50.3412 172.218 50.3358 172.241 50.3383 172.265C50.3408 172.288 50.3509 172.31 50.3673 172.327C50.3836 172.344 50.4051 172.355 50.4284 172.358C50.4517 172.362 50.4755 172.358 50.4961 172.346C67.1931 164.642 84.815 160.733 103.361 160.62C121.685 160.507 139.535 163.526 156.91 169.678C156.945 169.691 156.983 169.694 157.02 169.688C157.057 169.682 157.091 169.666 157.12 169.642C157.149 169.619 157.171 169.588 157.184 169.553C157.197 169.518 157.201 169.481 157.195 169.444C150.224 125.766 121.102 89.0088 87.5915 61.5789C75.1766 51.4122 61.8631 42.2096 47.6506 33.9724C47.1906 33.7033 47.0841 33.8068 47.3306 34.2838C52.8886 44.9982 57.4551 56.4911 61.0306 68.762Z" fill="black"/>
</svg>
