<svg width="32" height="32" viewBox="0 0 32 32" fill="none" xmlns="http://www.w3.org/2000/svg">
<path d="M0 16C0 7.16344 7.16344 0 16 0C24.8366 0 32 7.16344 32 16C32 24.8366 24.8366 32 16 32C7.16344 32 0 24.8366 0 16Z" fill="#E60019"/>
<path d="M13.7566 24.4409C15.6619 24.4545 15.8606 24.4509 15.9119 24.3999C15.963 24.3488 15.9666 23.6912 15.9666 16.2388C15.9666 10.7202 15.9562 8.11789 15.9324 8.06494C15.8983 8.00363 15.8404 8.00001 13.8445 8.00342C12.2244 8.00682 11.737 8.01679 11.5222 8.0542C9.88395 8.34711 8.56573 9.55985 8.15015 11.1538C8.00028 11.7294 7.98956 12.0667 8.00659 16.5317C8.01681 20.6326 8.0205 20.7286 8.08862 21.0454C8.46678 22.7517 9.67973 23.9677 11.4031 24.3696C11.6278 24.4206 11.9152 24.4307 13.7566 24.4409ZM13.2185 23.1128C11.9421 23.0992 11.8047 23.0924 11.5496 23.0278C10.4529 22.7452 9.63823 21.9003 9.40991 20.8003C9.33498 20.4563 9.33546 11.9812 9.40698 11.644C9.61142 10.6872 10.2751 9.89328 11.1707 9.53564C11.6202 9.35514 11.8284 9.33495 13.2859 9.33154L14.6042 9.32861L14.6042 23.1294L13.2185 23.1128Z" fill="white"/>
<path d="M11.8148 11.4096C11.6002 11.4505 11.2732 11.6139 11.0995 11.7672C10.7419 12.0772 10.5648 12.5165 10.592 13.0343C10.6057 13.3033 10.6227 13.3749 10.7317 13.5929C10.8918 13.9232 11.1336 14.1651 11.464 14.3286C11.6922 14.441 11.7501 14.4546 12.0464 14.4648C12.3155 14.475 12.4109 14.4648 12.5914 14.4035C13.3305 14.1549 13.7767 13.4362 13.6507 12.7005C13.5042 11.8251 12.6731 11.2393 11.8148 11.4096Z" fill="white"/>
<path d="M17.6564 24.4312C17.7524 24.4651 20.3897 24.4515 20.7179 24.4175C22.1007 24.2608 23.3203 23.4194 23.9845 22.1694C24.0696 22.0095 24.1824 21.7407 24.2404 21.5737C24.4549 20.9334 24.4474 21.103 24.4474 16.2085C24.4474 12.3036 24.4413 11.72 24.3937 11.4712C24.0565 9.69664 22.7039 8.35781 20.9259 8.05127C20.6875 8.01041 20.3197 8.00049 19.1349 8.00049C18.3174 8.00049 17.6353 8.0103 17.6251 8.02393C17.6115 8.04888 17.6017 11.7353 17.6017 16.229C17.6017 23.6576 17.6053 24.4107 17.6564 24.4312ZM21.2628 18.644C20.4114 18.8652 19.5056 18.3509 19.257 17.5063C19.1821 17.2476 19.1856 16.8121 19.2706 16.5464C19.526 15.7121 20.4114 15.2208 21.2628 15.4419C21.7942 15.5815 22.2302 15.9877 22.4073 16.5054C22.5197 16.8255 22.5168 17.2955 22.4044 17.5884C22.1966 18.1265 21.7873 18.5044 21.2628 18.644Z" fill="white"/>
</svg>
