<svg width="256" height="256" viewBox="0 0 256 256" fill="none" xmlns="http://www.w3.org/2000/svg">
<path d="M164.091 0.583984C182.265 -0.911294 186.941 0.0900815 198.363 8.0498L245.606 39.9023C253.402 45.3797 256 46.8718 256 52.8428V227.542C256 238.49 251.842 244.966 237.306 245.956L65.4365 255.912C54.5246 256.411 49.3308 254.92 43.6162 247.947L8.82617 204.646C2.59224 196.676 0 190.713 0 183.736V28.4521C9.90959e-06 19.4986 4.15903 12.0305 16.0928 11.0391L164.091 0.583984ZM238.345 67.7734C238.345 61.309 235.753 57.8219 230.029 58.3193L61.2715 67.7734C55.0439 68.2754 52.9668 71.2635 52.9668 77.7324V226.046C52.9669 234.017 57.1192 236.998 66.4648 236.505L227.953 227.542C237.303 227.049 238.345 221.566 238.345 215.091V67.7734ZM212.388 85.6885C213.423 90.1724 212.387 94.6524 207.705 95.1562L199.924 96.6426V206.138C193.169 209.621 186.939 211.612 181.748 211.612C173.437 211.612 171.354 209.122 165.129 201.66L114.233 125.013V199.171L130.339 202.657C130.339 202.657 130.339 211.612 117.346 211.612L81.5254 213.605C80.4848 211.612 81.525 206.639 85.1582 205.643L94.5059 203.157V105.107L81.5273 104.109C80.4867 99.6255 83.0786 93.161 90.3535 92.6592L128.781 90.1738L181.748 167.818V99.1318L168.243 97.6445C167.207 92.1633 171.355 88.1831 176.548 87.6895L212.388 85.6885ZM193.168 20.9941C188.492 17.5119 182.262 13.5239 170.322 14.5215L28.0391 24.4766C22.8502 24.9702 21.8132 27.459 23.8799 29.4541L44.1445 44.8818C52.445 51.3505 55.5588 50.8578 71.1445 49.8604L218.086 41.3955C221.203 41.3955 218.611 38.4137 217.572 37.918L193.168 20.9941Z" fill="black"/>
</svg>
