<svg width="32" height="32" viewBox="0 0 32 32" fill="none" xmlns="http://www.w3.org/2000/svg">
<path d="M12.2033 11.5543L12.2036 11.5532L18.9214 15.479L22.9243 13.8355C23.7378 13.4924 24.6149 13.3165 25.501 13.3173C25.6487 13.3173 25.7946 13.3239 25.9398 13.3333C25.4586 11.5025 24.4426 9.84737 23.0154 8.5692C21.5882 7.29102 19.8111 6.4448 17.9003 6.13337C15.9894 5.82193 14.027 6.05868 12.2514 6.81486C10.4759 7.57103 8.96367 8.81407 7.89856 10.3929C7.93278 10.3925 7.96648 10.3904 8.00078 10.3904C9.48545 10.3884 10.9411 10.7916 12.2033 11.5543Z" fill="#0364B8"/>
<path d="M12.2029 11.5534L12.2026 11.5545C10.9404 10.7918 9.48479 10.3887 8.00012 10.3906C7.96582 10.3906 7.93207 10.3927 7.89789 10.3931C6.44477 10.4107 5.02402 10.8142 3.78832 11.5604C2.55261 12.3066 1.54867 13.3671 0.884384 14.6282C0.220095 15.8892 -0.0794315 17.303 0.0179934 18.7176C0.115418 20.1322 0.606111 21.4942 1.43734 22.6572L7.36143 20.225L9.99489 19.1438L15.8585 16.7364L18.9207 15.4792L12.2029 11.5534Z" fill="#0078D4"/>
<path d="M25.9387 13.3334C25.7935 13.3239 25.6476 13.3174 25.4999 13.3174C24.6137 13.3165 23.7368 13.4931 22.9234 13.8362L18.9202 15.479L20.081 16.1574L23.886 18.381L25.5461 19.3512L31.2225 22.6684C31.7383 21.7343 32.0056 20.6888 31.9999 19.6277C31.9942 18.5666 31.7158 17.5239 31.19 16.595C30.6643 15.6662 29.908 14.8809 28.9906 14.311C28.0731 13.7412 27.0238 13.405 25.9387 13.3334Z" fill="#1490DF"/>
<path d="M25.5467 19.3501L23.8866 18.38L20.0816 16.1564L18.9208 15.478L15.8587 16.7352L9.99505 19.1426L7.36159 20.2238L1.4375 22.656C2.17368 23.6886 3.15508 24.5321 4.29789 25.1144C5.44071 25.6967 6.711 26.0004 8.00027 25.9998H25.5005C26.6739 26.0001 27.8255 25.6905 28.833 25.1038C29.8406 24.5171 30.6665 23.6752 31.2232 22.6674L25.5467 19.3501Z" fill="#28A8EA"/>
</svg>
