<svg width="256" height="256" viewBox="0 0 256 256" fill="none" xmlns="http://www.w3.org/2000/svg">
<path d="M97.6264 92.4342L97.6288 92.4256L151.371 123.832L183.395 110.684C189.902 107.939 196.919 106.532 204.008 106.539C205.19 106.539 206.357 106.591 207.519 106.667C203.669 92.0196 195.541 78.7789 184.123 68.5536C172.705 58.3282 158.489 51.5584 143.202 49.0669C127.915 46.5754 112.216 48.4695 98.0114 54.5189C83.807 60.5683 71.7093 70.5126 63.1885 83.1434C63.4622 83.14 63.7318 83.1233 64.0062 83.1233C75.8836 83.1076 87.5288 86.3327 97.6264 92.4342Z" fill="#0364B8"/>
<path d="M97.6236 92.4255L97.6211 92.434C87.5235 86.3325 75.8783 83.1074 64.001 83.1231C63.7266 83.1231 63.4566 83.1399 63.1831 83.1432C51.5582 83.2837 40.1922 86.512 30.3065 92.4813C20.4209 98.4506 12.3894 106.935 7.07507 117.023C1.76076 127.112 -0.635452 138.422 0.143947 149.739C0.923346 161.056 4.84889 171.952 11.4987 181.256L58.8914 161.798L79.9591 153.148L126.868 133.89L151.365 123.832L97.6236 92.4255Z" fill="#0078D4"/>
<path d="M207.51 106.667C206.348 106.591 205.18 106.539 203.999 106.539C196.91 106.532 189.894 107.945 183.387 110.69L151.362 123.832L160.648 129.259L191.088 147.048L204.369 154.809L249.78 181.347C253.906 173.874 256.045 165.51 255.999 157.021C255.954 148.533 253.726 140.191 249.52 132.76C245.314 125.329 239.264 119.047 231.925 114.488C224.585 109.929 216.19 107.24 207.51 106.667Z" fill="#1490DF"/>
<path d="M204.374 154.803L191.093 147.042L160.653 129.253L151.367 123.826L126.87 133.884L79.9606 153.143L58.8929 161.792L11.5002 181.25C17.3896 189.511 25.2408 196.259 34.3833 200.917C43.5259 205.575 53.6882 208.005 64.0023 208H204.004C213.391 208.003 222.604 205.526 230.664 200.832C238.725 196.139 245.332 189.403 249.785 181.341L204.374 154.803Z" fill="#28A8EA"/>
</svg>
