<svg width="32" height="32" viewBox="0 0 32 32" fill="none" xmlns="http://www.w3.org/2000/svg">
<path d="M10.2425 30.9153L10.7878 27.3926L9.57309 27.364H3.77295L7.80375 1.37013C7.81626 1.29166 7.85692 1.21849 7.91635 1.16653C7.97578 1.11457 8.0519 1.08594 8.13114 1.08594H17.911C21.1577 1.08594 23.3983 1.77308 24.5682 3.12935C25.1166 3.7656 25.4659 4.43047 25.6348 5.16216C25.812 5.9299 25.8152 6.84715 25.6421 7.96588L25.6296 8.04754V8.76437L26.178 9.08038C26.6399 9.32957 27.0069 9.61482 27.2884 9.94143C27.7576 10.4854 28.061 11.1768 28.1892 11.9965C28.3216 12.8395 28.2778 13.8427 28.061 14.9784C27.8107 16.2848 27.4062 17.4226 26.8599 18.3537C26.3573 19.2115 25.7171 19.9231 24.9571 20.4745C24.2314 20.9983 23.3692 21.396 22.3943 21.6505C21.4497 21.9007 20.3726 22.0269 19.1913 22.0269H18.4302C17.886 22.0269 17.3574 22.2263 16.9424 22.5837C16.5264 22.9484 16.2511 23.4468 16.1667 23.9919L16.1093 24.3089L15.1459 30.5176L15.1021 30.7456C15.0907 30.8177 15.0709 30.8538 15.0417 30.8782C15.0156 30.9005 14.9781 30.9153 14.9416 30.9153H10.2425Z" fill="#253B80"/>
<path d="M26.6972 8.13037C26.668 8.32018 26.6346 8.51424 26.5971 8.7136C25.3074 15.4483 20.895 17.7748 15.2596 17.7748H12.3903C11.7011 17.7748 11.1203 18.2838 11.0129 18.9752L9.54388 28.451L9.12787 31.1371C9.05802 31.5909 9.40208 32.0002 9.8525 32.0002H14.9416C15.5442 32.0002 16.0561 31.5549 16.151 30.9504L16.2011 30.6874L17.1592 24.5031L17.2208 24.1638C17.3146 23.5572 17.8276 23.1119 18.4302 23.1119H19.1913C24.1219 23.1119 27.9817 21.0759 29.1098 15.1842C29.5811 12.723 29.3371 10.6679 28.0902 9.22259C27.7127 8.78677 27.2446 8.42517 26.6972 8.13037Z" fill="#179BD7"/>
<path d="M25.348 7.58313C25.1509 7.5248 24.9476 7.47178 24.7391 7.42407C24.5295 7.37741 24.3147 7.33605 24.0937 7.3C23.3201 7.17275 22.4724 7.1123 21.5643 7.1123H13.8989C13.7102 7.1123 13.5308 7.15578 13.3703 7.23425C13.0168 7.4071 12.7541 7.74749 12.6905 8.16423L11.0598 18.6687L11.0129 18.9751C11.1203 18.2837 11.701 17.7747 12.3902 17.7747H15.2595C20.8949 17.7747 25.3073 15.4471 26.597 8.71353C26.6356 8.51417 26.6679 8.32011 26.6971 8.1303C26.3708 7.95427 26.0173 7.80369 25.6368 7.67538C25.5429 7.64357 25.446 7.61282 25.348 7.58313Z" fill="#222D65"/>
<path d="M13.3703 7.23518C13.5319 7.15671 13.7102 7.11324 13.8989 7.11324H21.5643C22.4724 7.11324 23.3201 7.17368 24.0937 7.30093C24.3148 7.33698 24.5296 7.37834 24.7391 7.425C24.9476 7.47272 25.151 7.52574 25.348 7.58406C25.446 7.61375 25.543 7.6445 25.6379 7.67526C26.0184 7.80357 26.3719 7.9552 26.6982 8.13017C27.0819 5.64139 26.6951 3.94685 25.372 2.41244C23.9134 0.7232 21.2807 0 17.912 0H8.13213C7.444 0 6.857 0.508997 6.75065 1.20145L2.6771 27.4625C2.59682 27.9821 2.99093 28.4508 3.50599 28.4508H9.54385L11.0598 18.6685L12.6905 8.16411C12.7541 7.74736 13.0168 7.40697 13.3703 7.23518Z" fill="#253B80"/>
</svg>
