<svg width="256" height="256" viewBox="0 0 256 256" fill="none" xmlns="http://www.w3.org/2000/svg">
<g clip-path="url(#clip0_7159_5282)">
<path d="M0 64C0 28.6538 28.6538 0 64 0H192C227.346 0 256 28.6538 256 64V192C256 227.346 227.346 256 192 256H64C28.6538 256 0 227.346 0 192V64Z" fill="#303030"/>
<path fill-rule="evenodd" clip-rule="evenodd" d="M76.2523 46L123.063 89.1578V46.0996H132.175V89.351L179.195 46V95.2063H198.5V166.182H179.254V209.998L132.175 168.607V210.473H123.063V169.29L76.3054 210.5V166.182H57V95.2063H76.2523V46ZM116.193 104.213H66.1121V157.175H76.2939V140.469L116.193 104.213ZM85.417 144.465V190.402L123.063 157.222V110.249L85.417 144.465ZM132.437 156.783V110.205L170.094 144.423V166.182H170.142V189.933L132.437 156.783ZM179.254 157.175H189.388V104.213H139.68L179.254 140.093V157.175ZM170.083 95.2063V66.7178L139.183 95.2063H170.083ZM116.264 95.2063H85.3645V66.7178L116.264 95.2063Z" fill="white"/>
</g>
<defs>
<clipPath id="clip0_7159_5282">
<rect width="256" height="256" fill="white"/>
</clipPath>
</defs>
</svg>
