<svg width="32" height="32" viewBox="0 0 32 32" fill="none" xmlns="http://www.w3.org/2000/svg">
<path d="M16 31.9737C24.8366 31.9737 32 24.8161 32 15.9868C32 7.15755 24.8366 0 16 0C7.16344 0 0 7.15755 0 15.9868C0 24.8161 7.16344 31.9737 16 31.9737Z" fill="white"/>
<path d="M16 0C7.16379 0 0 7.15789 0 15.9868C0 22.7632 4.21399 28.5526 10.1663 30.8816C10.0214 29.6184 9.90288 27.671 10.2189 26.2895C10.5086 25.0395 12.0889 18.3421 12.0889 18.3421C12.0889 18.3421 11.6148 17.3816 11.6148 15.9737C11.6148 13.75 12.9053 12.0921 14.5119 12.0921C15.8815 12.0921 16.5399 13.1184 16.5399 14.3421C16.5399 15.7105 15.6708 17.7632 15.2099 19.6711C14.828 21.2632 16.0132 22.5658 17.5802 22.5658C20.4247 22.5658 22.6107 19.5658 22.6107 15.25C22.6107 11.4211 19.8584 8.75 15.921 8.75C11.3646 8.75 8.69136 12.1579 8.69136 15.6842C8.69136 17.0526 9.21811 18.5263 9.87654 19.3289C10.0082 19.4868 10.0214 19.6316 9.98189 19.7895C9.86337 20.2895 9.58683 21.3816 9.53416 21.6053C9.46831 21.8947 9.29712 21.9605 8.99424 21.8158C6.99259 20.8816 5.74156 17.9737 5.74156 15.6184C5.74156 10.5789 9.40247 5.94737 16.316 5.94737C21.8601 5.94737 26.1794 9.89474 26.1794 15.1842C26.1794 20.6974 22.7029 25.1316 17.8831 25.1316C16.2634 25.1316 14.7358 24.2895 14.2222 23.2895C14.2222 23.2895 13.4189 26.3421 13.2214 27.0921C12.8658 28.4868 11.8914 30.2237 11.2329 31.2895C12.7342 31.75 14.3144 32 15.9737 32C24.8099 32 31.9737 24.8421 31.9737 16.0132C32 7.15789 24.8362 0 16 0Z" fill="#E60019"/>
</svg>
