<svg width="256" height="256" viewBox="0 0 256 256" fill="none" xmlns="http://www.w3.org/2000/svg">
<path d="M119.857 237.131C124.748 239.922 130.685 239.763 135.557 236.94C164.112 220.391 212.477 183.357 231.617 135.429C260.065 72.237 193.268 21.7929 147.102 58.0741C142.515 61.6788 136.804 65.7796 132.671 69.7067C130.448 71.8188 126.565 72.0344 124.277 69.9934C118.79 65.0994 110.658 59.0408 105.365 55.4598C66.0079 28.8319 -5.60397 63.932 24.9431 138.844C36.0079 172.092 88.2683 219.107 119.857 237.131Z" fill="#FF2C3B"/>
<path d="M119.857 237.131C124.748 239.922 130.685 239.763 135.557 236.94C164.112 220.391 212.477 183.357 231.617 135.429C260.065 72.237 193.268 21.7929 147.102 58.0741C142.515 61.6788 136.804 65.7796 132.671 69.7067C130.448 71.8188 126.565 72.0344 124.277 69.9934C118.79 65.0994 110.658 59.0408 105.365 55.4598C66.0079 28.8319 -5.60397 63.932 24.9431 138.844C36.0079 172.092 88.2683 219.107 119.857 237.131Z" fill="url(#paint0_radial_7159_2160)"/>
<path d="M119.857 237.131C124.748 239.922 130.685 239.763 135.557 236.94C164.112 220.391 212.477 183.357 231.617 135.429C260.065 72.237 193.268 21.7929 147.102 58.0741C142.515 61.6788 136.804 65.7796 132.671 69.7067C130.448 71.8188 126.565 72.0344 124.277 69.9934C118.79 65.0994 110.658 59.0408 105.365 55.4598C66.0079 28.8319 -5.60397 63.932 24.9431 138.844C36.0079 172.092 88.2683 219.107 119.857 237.131Z" fill="url(#paint1_radial_7159_2160)"/>
<path d="M119.857 237.131C124.748 239.922 130.685 239.763 135.557 236.94C164.112 220.391 212.477 183.357 231.617 135.429C260.065 72.237 193.268 21.7929 147.102 58.0741C142.515 61.6788 136.804 65.7796 132.671 69.7067C130.448 71.8188 126.565 72.0344 124.277 69.9934C118.79 65.0994 110.658 59.0408 105.365 55.4598C66.0079 28.8319 -5.60397 63.932 24.9431 138.844C36.0079 172.092 88.2683 219.107 119.857 237.131Z" fill="url(#paint2_radial_7159_2160)"/>
<path d="M119.857 237.131C124.748 239.922 130.685 239.763 135.557 236.94C164.112 220.391 212.477 183.357 231.617 135.429C260.065 72.237 193.268 21.7929 147.102 58.0741C142.515 61.6788 136.804 65.7796 132.671 69.7067C130.448 71.8188 126.565 72.0344 124.277 69.9934C118.79 65.0994 110.658 59.0408 105.365 55.4598C66.0079 28.8319 -5.60397 63.932 24.9431 138.844C36.0079 172.092 88.2683 219.107 119.857 237.131Z" fill="url(#paint3_radial_7159_2160)"/>
<path d="M119.857 237.131C124.748 239.922 130.685 239.763 135.557 236.94C164.112 220.391 212.477 183.357 231.617 135.429C260.065 72.237 193.268 21.7929 147.102 58.0741C142.515 61.6788 136.804 65.7796 132.671 69.7067C130.448 71.8188 126.565 72.0344 124.277 69.9934C118.79 65.0994 110.658 59.0408 105.365 55.4598C66.0079 28.8319 -5.60397 63.932 24.9431 138.844C36.0079 172.092 88.2683 219.107 119.857 237.131Z" fill="url(#paint4_linear_7159_2160)"/>
<path d="M119.857 237.131C124.748 239.922 130.685 239.763 135.557 236.94C164.112 220.391 212.477 183.357 231.617 135.429C260.065 72.237 193.268 21.7929 147.102 58.0741C142.515 61.6788 136.804 65.7796 132.671 69.7067C130.448 71.8188 126.565 72.0344 124.277 69.9934C118.79 65.0994 110.658 59.0408 105.365 55.4598C66.0079 28.8319 -5.60397 63.932 24.9431 138.844C36.0079 172.092 88.2683 219.107 119.857 237.131Z" fill="url(#paint5_radial_7159_2160)"/>
<path d="M119.857 237.131C124.748 239.922 130.685 239.763 135.557 236.94C164.112 220.391 212.477 183.357 231.617 135.429C260.065 72.237 193.268 21.7929 147.102 58.0741C142.515 61.6788 136.804 65.7796 132.671 69.7067C130.448 71.8188 126.565 72.0344 124.277 69.9934C118.79 65.0994 110.658 59.0408 105.365 55.4598C66.0079 28.8319 -5.60397 63.932 24.9431 138.844C36.0079 172.092 88.2683 219.107 119.857 237.131Z" fill="url(#paint6_radial_7159_2160)"/>
<path d="M119.857 237.131C124.748 239.922 130.685 239.763 135.557 236.94C164.112 220.391 212.477 183.357 231.617 135.429C260.065 72.237 193.268 21.7929 147.102 58.0741C142.515 61.6788 136.804 65.7796 132.671 69.7067C130.448 71.8188 126.565 72.0344 124.277 69.9934C118.79 65.0994 110.658 59.0408 105.365 55.4598C66.0079 28.8319 -5.60397 63.932 24.9431 138.844C36.0079 172.092 88.2683 219.107 119.857 237.131Z" fill="url(#paint7_radial_7159_2160)"/>
<path d="M119.857 237.131C124.748 239.922 130.685 239.763 135.557 236.94C164.112 220.391 212.477 183.357 231.617 135.429C260.065 72.237 193.268 21.7929 147.102 58.0741C142.515 61.6788 136.804 65.7796 132.671 69.7067C130.448 71.8188 126.565 72.0344 124.277 69.9934C118.79 65.0994 110.658 59.0408 105.365 55.4598C66.0079 28.8319 -5.60397 63.932 24.9431 138.844C36.0079 172.092 88.2683 219.107 119.857 237.131Z" fill="url(#paint8_radial_7159_2160)"/>
<path d="M119.857 237.131C124.748 239.922 130.685 239.763 135.557 236.94C164.112 220.391 212.477 183.357 231.617 135.429C260.065 72.237 193.268 21.7929 147.102 58.0741C142.515 61.6788 136.804 65.7796 132.671 69.7067C130.448 71.8188 126.565 72.0344 124.277 69.9934C118.79 65.0994 110.658 59.0408 105.365 55.4598C66.0079 28.8319 -5.60397 63.932 24.9431 138.844C36.0079 172.092 88.2683 219.107 119.857 237.131Z" fill="url(#paint9_radial_7159_2160)"/>
<path d="M119.857 237.131C124.748 239.922 130.685 239.763 135.557 236.94C164.112 220.391 212.477 183.357 231.617 135.429C260.065 72.237 193.268 21.7929 147.102 58.0741C142.515 61.6788 136.804 65.7796 132.671 69.7067C130.448 71.8188 126.565 72.0344 124.277 69.9934C118.79 65.0994 110.658 59.0408 105.365 55.4598C66.0079 28.8319 -5.60397 63.932 24.9431 138.844C36.0079 172.092 88.2683 219.107 119.857 237.131Z" fill="url(#paint10_radial_7159_2160)"/>
<path d="M119.857 237.131C124.748 239.922 130.685 239.763 135.557 236.94C164.112 220.391 212.477 183.357 231.617 135.429C260.065 72.237 193.268 21.7929 147.102 58.0741C142.515 61.6788 136.804 65.7796 132.671 69.7067C130.448 71.8188 126.565 72.0344 124.277 69.9934C118.79 65.0994 110.658 59.0408 105.365 55.4598C66.0079 28.8319 -5.60397 63.932 24.9431 138.844C36.0079 172.092 88.2683 219.107 119.857 237.131Z" fill="url(#paint11_linear_7159_2160)"/>
<path d="M119.857 237.131C124.748 239.922 130.685 239.763 135.557 236.94C164.112 220.391 212.477 183.357 231.617 135.429C260.065 72.237 193.268 21.7929 147.102 58.0741C142.515 61.6788 136.804 65.7796 132.671 69.7067C130.448 71.8188 126.565 72.0344 124.277 69.9934C118.79 65.0994 110.658 59.0408 105.365 55.4598C66.0079 28.8319 -5.60397 63.932 24.9431 138.844C36.0079 172.092 88.2683 219.107 119.857 237.131Z" fill="url(#paint12_linear_7159_2160)"/>
<path d="M119.857 237.131C124.748 239.922 130.685 239.763 135.557 236.94C164.112 220.391 212.477 183.357 231.617 135.429C260.065 72.237 193.268 21.7929 147.102 58.0741C142.515 61.6788 136.804 65.7796 132.671 69.7067C130.448 71.8188 126.565 72.0344 124.277 69.9934C118.79 65.0994 110.658 59.0408 105.365 55.4598C66.0079 28.8319 -5.60397 63.932 24.9431 138.844C36.0079 172.092 88.2683 219.107 119.857 237.131Z" fill="url(#paint13_linear_7159_2160)"/>
<path d="M119.857 237.131C124.748 239.922 130.685 239.763 135.557 236.94C164.112 220.391 212.477 183.357 231.617 135.429C260.065 72.237 193.268 21.7929 147.102 58.0741C142.515 61.6788 136.804 65.7796 132.671 69.7067C130.448 71.8188 126.565 72.0344 124.277 69.9934C118.79 65.0994 110.658 59.0408 105.365 55.4598C66.0079 28.8319 -5.60397 63.932 24.9431 138.844C36.0079 172.092 88.2683 219.107 119.857 237.131Z" fill="url(#paint14_radial_7159_2160)"/>
<path d="M119.857 237.131C124.748 239.922 130.685 239.763 135.557 236.94C164.112 220.391 212.477 183.357 231.617 135.429C260.065 72.237 193.268 21.7929 147.102 58.0741C142.515 61.6788 136.804 65.7796 132.671 69.7067C130.448 71.8188 126.565 72.0344 124.277 69.9934C118.79 65.0994 110.658 59.0408 105.365 55.4598C66.0079 28.8319 -5.60397 63.932 24.9431 138.844C36.0079 172.092 88.2683 219.107 119.857 237.131Z" fill="url(#paint15_radial_7159_2160)"/>
<path d="M119.857 237.131C124.748 239.922 130.685 239.763 135.557 236.94C164.112 220.391 212.477 183.357 231.617 135.429C260.065 72.237 193.268 21.7929 147.102 58.0741C142.515 61.6788 136.804 65.7796 132.671 69.7067C130.448 71.8188 126.565 72.0344 124.277 69.9934C118.79 65.0994 110.658 59.0408 105.365 55.4598C66.0079 28.8319 -5.60397 63.932 24.9431 138.844C36.0079 172.092 88.2683 219.107 119.857 237.131Z" fill="url(#paint16_radial_7159_2160)"/>
<defs>
<radialGradient id="paint0_radial_7159_2160" cx="0" cy="0" r="1" gradientUnits="userSpaceOnUse" gradientTransform="translate(287.096 155.401) rotate(166.261) scale(278.236 278.236)">
<stop offset="0.46875" stop-color="#B91D43" stop-opacity="0"/>
<stop offset="0.625" stop-color="#B91D43"/>
</radialGradient>
<radialGradient id="paint1_radial_7159_2160" cx="0" cy="0" r="1" gradientUnits="userSpaceOnUse" gradientTransform="translate(253.404 83.8058) rotate(43.4926) scale(226.405 233.142)">
<stop offset="0.436191" stop-color="#FF2C64" stop-opacity="0"/>
<stop offset="0.579111" stop-color="#FF2839"/>
<stop offset="0.820977" stop-color="#FF2839"/>
</radialGradient>
<radialGradient id="paint2_radial_7159_2160" cx="0" cy="0" r="1" gradientUnits="userSpaceOnUse" gradientTransform="translate(223.923 66.9599) rotate(130.697) scale(124.912 38.6691)">
<stop offset="0.241492" stop-color="#FF6975"/>
<stop offset="1" stop-color="#FF6975" stop-opacity="0"/>
</radialGradient>
<radialGradient id="paint3_radial_7159_2160" cx="0" cy="0" r="1" gradientUnits="userSpaceOnUse" gradientTransform="translate(89.1555 62.7483) rotate(74.876) scale(161.416 61.1195)">
<stop stop-color="#FF8E9D"/>
<stop offset="0.829857" stop-color="#FF8191" stop-opacity="0"/>
</radialGradient>
<linearGradient id="paint4_linear_7159_2160" x1="202.866" y1="104.863" x2="106.001" y2="113.286" gradientUnits="userSpaceOnUse">
<stop offset="0.592259" stop-color="#FF2F48" stop-opacity="0"/>
<stop offset="0.728317" stop-color="#FF2F48"/>
<stop offset="0.889416" stop-color="#FF2F48" stop-opacity="0"/>
</linearGradient>
<radialGradient id="paint5_radial_7159_2160" cx="0" cy="0" r="1" gradientUnits="userSpaceOnUse" gradientTransform="translate(93.367 205.939) rotate(114.057) scale(774.835 609.228)">
<stop offset="0.213872" stop-color="#FF4750" stop-opacity="0"/>
<stop offset="0.280316" stop-color="#FF4750"/>
</radialGradient>
<radialGradient id="paint6_radial_7159_2160" cx="0" cy="0" r="1" gradientUnits="userSpaceOnUse" gradientTransform="translate(84.944 41.6908) rotate(75.0686) scale(65.38)">
<stop offset="0.226211" stop-color="#FF4851"/>
<stop offset="1" stop-color="#FF4851" stop-opacity="0"/>
</radialGradient>
<radialGradient id="paint7_radial_7159_2160" cx="0" cy="0" r="1" gradientUnits="userSpaceOnUse" gradientTransform="translate(66.4741 121.665) rotate(36.0274) scale(54.4059)">
<stop offset="0.226211" stop-color="#FF4851"/>
<stop offset="1" stop-color="#FF4851" stop-opacity="0"/>
</radialGradient>
<radialGradient id="paint8_radial_7159_2160" cx="0" cy="0" r="1" gradientUnits="userSpaceOnUse" gradientTransform="translate(106.001 41.6908) rotate(93.8141) scale(63.3127)">
<stop offset="0.226211" stop-color="#FF4851"/>
<stop offset="0.631601" stop-color="#FF4851" stop-opacity="0"/>
</radialGradient>
<radialGradient id="paint9_radial_7159_2160" cx="0" cy="0" r="1" gradientUnits="userSpaceOnUse" gradientTransform="translate(253.404 83.8058) rotate(45.6161) scale(276.968 285.21)">
<stop offset="0.605375" stop-color="#D32750" stop-opacity="0"/>
<stop offset="0.760922" stop-color="#D32750"/>
</radialGradient>
<radialGradient id="paint10_radial_7159_2160" cx="0" cy="0" r="1" gradientUnits="userSpaceOnUse" gradientTransform="translate(215.5 163.824) rotate(26.9802) scale(259.921 162.05)">
<stop offset="0.734432" stop-color="#C03D60" stop-opacity="0"/>
<stop offset="0.785127" stop-color="#C03D60"/>
</radialGradient>
<linearGradient id="paint11_linear_7159_2160" x1="134.474" y1="245.665" x2="138.474" y2="73.6645" gradientUnits="userSpaceOnUse">
<stop stop-color="#FB31AD"/>
<stop offset="0.792966" stop-color="#FB31AD" stop-opacity="0"/>
</linearGradient>
<linearGradient id="paint12_linear_7159_2160" x1="68.098" y1="256.477" x2="135.482" y2="172.247" gradientUnits="userSpaceOnUse">
<stop offset="0.389423" stop-color="#CF55BC"/>
<stop offset="0.508449" stop-color="#CF55BC" stop-opacity="0"/>
</linearGradient>
<linearGradient id="paint13_linear_7159_2160" x1="190.474" y1="245.665" x2="135.482" y2="172.247" gradientUnits="userSpaceOnUse">
<stop offset="0.389423" stop-color="#CF55BC"/>
<stop offset="0.508449" stop-color="#CF55BC" stop-opacity="0"/>
</linearGradient>
<radialGradient id="paint14_radial_7159_2160" cx="0" cy="0" r="1" gradientUnits="userSpaceOnUse" gradientTransform="translate(131.27 248.054) rotate(-86.8202) scale(75.9238 86.7833)">
<stop offset="0.0975182" stop-color="#CF55BC"/>
<stop offset="0.250164" stop-color="#CF55BC" stop-opacity="0"/>
</radialGradient>
<radialGradient id="paint15_radial_7159_2160" cx="0" cy="0" r="1" gradientUnits="userSpaceOnUse" gradientTransform="translate(78.4741 229.665) rotate(127.569) scale(65.6049 193.371)">
<stop stop-color="#B51D85"/>
<stop offset="0.547667" stop-color="#B51D85" stop-opacity="0"/>
</radialGradient>
<radialGradient id="paint16_radial_7159_2160" cx="0" cy="0" r="1" gradientUnits="userSpaceOnUse" gradientTransform="translate(38.4741 209.665) rotate(154.654) scale(84.0952 247.871)">
<stop stop-color="#B51D85"/>
<stop offset="0.547667" stop-color="#B51D85" stop-opacity="0"/>
</radialGradient>
</defs>
</svg>
