<svg width="256" height="256" viewBox="0 0 256 256" fill="none" xmlns="http://www.w3.org/2000/svg">
<path d="M128 256C198.692 256 256 198.692 256 128C256 57.3076 198.692 0 128 0C57.3076 0 0 57.3076 0 128C0 198.692 57.3076 256 128 256Z" fill="#FF5700"/>
<path d="M191.912 51.3389C201.656 51.3389 209.589 59.2327 209.589 68.9385C209.589 78.6443 201.658 86.538 191.912 86.5381C182.361 86.5381 174.578 78.956 174.263 69.5264L146.197 62.9463L135.911 95.3164C155.473 96.2899 173.138 101.85 186.5 110.396C190.254 107.112 195.162 105.101 200.541 105.101C212.301 105.101 221.867 114.626 221.867 126.333C221.867 134.073 217.668 140.836 211.445 144.539C211.701 146.307 211.839 148.095 211.839 149.902C211.838 180.093 175.016 204.656 129.758 204.656C84.4964 204.656 47.6774 180.093 47.6774 149.902C47.6774 147.953 47.8382 146.027 48.1364 144.126C42.2863 140.34 38.4 133.787 38.4 126.333C38.4 114.626 47.9656 105.103 59.7262 105.101C64.9507 105.101 69.7436 106.994 73.4567 110.116C87.6169 101.197 106.512 95.5963 127.339 95.1895L139.517 56.8682C140.157 54.83 142.28 53.6324 144.369 54.1201L175.906 61.5078C178.729 55.5133 184.832 51.3389 191.912 51.3389ZM129.758 103.328C109.888 103.328 91.8364 108.31 78.5455 116.387C76.1106 117.867 73.8363 119.453 71.7369 121.132C65.176 126.377 60.3727 132.529 57.8688 139.233C56.9035 141.82 56.2692 144.489 56.0211 147.219C55.9419 148.109 55.8922 149.001 55.8922 149.906C55.8922 175.587 89.0267 196.48 129.758 196.48C170.484 196.48 203.625 175.584 203.625 149.906C203.625 149.041 203.58 148.185 203.507 147.328C203.27 144.593 202.636 141.921 201.679 139.327C199.25 132.778 194.645 126.754 188.344 121.588C186.255 119.871 183.987 118.248 181.546 116.735C168.211 108.451 149.917 103.328 129.758 103.328ZM200.543 113.279C197.916 113.279 195.473 114.059 193.422 115.39C200.733 121.382 206.195 128.417 209.195 136.107C211.92 133.716 213.651 130.225 213.655 126.333C213.655 119.135 207.773 113.279 200.543 113.279ZM59.7242 113.279C52.4961 113.279 46.6139 119.137 46.6139 126.333C46.6139 129.965 48.1136 133.251 50.5299 135.619C53.6176 128.008 59.0923 121.044 66.4078 115.126C64.4462 113.962 62.1654 113.279 59.7242 113.279ZM191.912 59.5215C186.691 59.5215 182.446 63.7491 182.446 68.9443C182.446 74.1398 186.691 78.3662 191.912 78.3662C197.13 78.3661 201.375 74.1397 201.375 68.9443C201.374 63.7492 197.13 59.5216 191.912 59.5215Z" fill="white"/>
<path d="M115.291 140.061C115.291 133.166 109.675 127.381 102.747 127.381C95.8209 127.381 90.0125 133.166 90.0125 140.061C90.0125 146.954 95.823 152.553 102.747 152.553C109.675 152.544 115.291 146.954 115.291 140.061Z" fill="white"/>
<path d="M157.71 127.377C150.784 127.377 144.957 133.16 144.957 140.055C144.957 146.953 150.784 152.547 157.71 152.547C164.638 152.547 170.258 146.957 170.258 140.055C170.254 133.156 164.638 127.377 157.71 127.377Z" fill="white"/>
<path d="M154.165 170.335C149.518 174.956 141.694 177.2 130.229 177.2C130.194 177.2 130.163 177.21 130.129 177.21C130.094 177.21 130.065 177.2 130.031 177.2C118.565 177.2 110.738 174.956 106.097 170.335C104.494 168.737 101.892 168.737 100.289 170.335C98.6834 171.936 98.6834 174.524 100.289 176.116C106.545 182.347 116.275 185.38 130.031 185.38C130.067 185.38 130.096 185.367 130.129 185.367C130.163 185.367 130.194 185.38 130.229 185.38C143.983 185.38 153.715 182.347 159.978 176.12C161.585 174.52 161.585 171.934 159.982 170.34C158.375 168.741 155.773 168.741 154.165 170.335Z" fill="white"/>
</svg>
