<svg width="32" height="32" viewBox="0 0 32 32" fill="none" xmlns="http://www.w3.org/2000/svg">
<path d="M16 32C24.8366 32 32 24.8366 32 16C32 7.16344 24.8366 0 16 0C7.16344 0 0 7.16344 0 16C0 24.8366 7.16344 32 16 32Z" fill="#FF5700"/>
<path d="M23.9885 6.41748C25.2065 6.41748 26.1984 7.40444 26.1984 8.61768C26.1983 9.8308 25.2067 10.8179 23.9885 10.8179C22.7949 10.8176 21.8228 9.86946 21.7834 8.69092L18.2746 7.86865L16.9885 11.9146C19.4337 12.0362 21.6425 12.7311 23.3127 13.7993C23.782 13.389 24.3954 13.1382 25.0676 13.1382C26.5376 13.1382 27.7334 14.3283 27.7336 15.7915C27.7336 16.759 27.2087 17.605 26.4308 18.0679C26.4629 18.2887 26.4797 18.512 26.4797 18.7378C26.4797 22.5116 21.8771 25.5825 16.2199 25.5825C10.5622 25.5825 5.96014 22.5116 5.96014 18.7378C5.96015 18.4943 5.97955 18.2536 6.01678 18.0161C5.28555 17.5429 4.79999 16.7232 4.79999 15.7915C4.80012 14.3283 5.99601 13.1384 7.466 13.1382C8.1188 13.1383 8.7178 13.3742 9.18182 13.7642C10.9518 12.6493 13.3138 11.9498 15.9172 11.8989L17.4396 7.10889C17.5196 6.8541 17.785 6.70416 18.0461 6.76514L21.9885 7.68896C22.3413 6.93978 23.1036 6.41767 23.9885 6.41748ZM16.2199 12.9165C13.7362 12.9165 11.4799 13.5389 9.81854 14.5483C9.51421 14.7333 9.22937 14.9313 8.96698 15.1411C8.147 15.7967 7.54662 16.5659 7.23358 17.4038C7.11292 17.7271 7.03412 18.0616 7.00311 18.4028C6.99323 18.514 6.98651 18.6258 6.98651 18.7388C6.9868 21.9486 11.1286 24.5601 16.2199 24.5601C21.3103 24.56 25.453 21.9484 25.4533 18.7388C25.4533 18.6307 25.4478 18.5235 25.4387 18.4165C25.409 18.0745 25.3298 17.7399 25.2101 17.4155C24.9065 16.5971 24.3305 15.8444 23.5432 15.1987C23.2821 14.9842 22.9986 14.7814 22.6935 14.5923C21.0267 13.5568 18.7396 12.9165 16.2199 12.9165ZM25.0676 14.1597C24.7393 14.1597 24.4343 14.2581 24.1779 14.4243C25.0916 15.1732 25.7746 16.0521 26.1496 17.0132C26.49 16.7143 26.7067 16.2778 26.7072 15.7915C26.7071 14.8918 25.9713 14.1597 25.0676 14.1597ZM7.46503 14.1597C6.56179 14.1599 5.82649 14.8922 5.82635 15.7915C5.82635 16.2456 6.01455 16.6566 6.31659 16.9526C6.70254 16.0013 7.38657 15.1308 8.30096 14.3911C8.05573 14.2456 7.7702 14.1597 7.46503 14.1597ZM23.9885 7.43994C23.3361 7.44019 22.8058 7.96938 22.8058 8.61865C22.8061 9.26772 23.3363 9.79613 23.9885 9.79639C24.6406 9.79639 25.1718 9.26788 25.1721 8.61865C25.1721 7.96923 24.6408 7.43994 23.9885 7.43994Z" fill="white"/>
<path d="M14.4114 17.5079C14.4114 16.646 13.7093 15.9229 12.8433 15.9229C11.9776 15.9229 11.2515 16.646 11.2515 17.5079C11.2515 18.3696 11.9778 19.0693 12.8433 19.0693C13.7093 19.0683 14.4114 18.3696 14.4114 17.5079Z" fill="white"/>
<path d="M19.7137 15.9224C18.848 15.9224 18.1196 16.6452 18.1196 17.5071C18.1196 18.3693 18.848 19.0686 19.7137 19.0686C20.5797 19.0686 21.2823 18.3698 21.2823 17.5071C21.2818 16.6447 20.5797 15.9224 19.7137 15.9224Z" fill="white"/>
<path d="M19.2706 21.2919C18.6897 21.8695 17.7117 22.15 16.2786 22.15C16.2742 22.15 16.2703 22.1513 16.2661 22.1513C16.2617 22.1513 16.258 22.15 16.2539 22.15C14.8205 22.15 13.8422 21.8695 13.2621 21.2919C13.0617 21.0921 12.7365 21.0921 12.5361 21.2919C12.3354 21.492 12.3354 21.8155 12.5361 22.0145C13.3181 22.7934 14.5344 23.1725 16.2539 23.1725C16.2583 23.1725 16.2619 23.1709 16.2661 23.1709C16.2703 23.1709 16.2742 23.1725 16.2786 23.1725C17.9978 23.1725 19.2143 22.7934 19.9972 22.015C20.1981 21.815 20.1981 21.4917 19.9977 21.2924C19.7968 21.0927 19.4716 21.0927 19.2706 21.2919Z" fill="white"/>
</svg>
