<svg width="256" height="256" viewBox="0 0 256 256" fill="none" xmlns="http://www.w3.org/2000/svg">
<path d="M180.4 240H83.6C57.28 240 36 218.72 36 192.4V96.24C36 69.6 57.6 48 84.24 48H179.84C206.4 48 228 69.6 228 96.24V192.48C228 218.72 206.72 240 180.4 240Z" fill="url(#paint0_radial_7159_2154)"/>
<path d="M180.4 240H83.6C57.28 240 36 218.72 36 192.4V96.24C36 69.6 57.6 48 84.24 48H179.84C206.4 48 228 69.6 228 96.24V192.48C228 218.72 206.72 240 180.4 240Z" fill="url(#paint1_linear_7159_2154)"/>
<path d="M180.4 240H83.6C57.28 240 36 218.72 36 192.4V96.24C36 69.6 57.6 48 84.24 48H179.84C206.4 48 228 69.6 228 96.24V192.48C228 218.72 206.72 240 180.4 240Z" fill="url(#paint2_linear_7159_2154)"/>
<path d="M180.4 240H83.6C57.28 240 36 218.72 36 192.4V96.24C36 69.6 57.6 48 84.24 48H179.84C206.4 48 228 69.6 228 96.24V192.48C228 218.72 206.72 240 180.4 240Z" fill="url(#paint3_radial_7159_2154)"/>
<path fill-rule="evenodd" clip-rule="evenodd" d="M228 104.72V32H236V104.72H228Z" fill="url(#paint4_linear_7159_2154)"/>
<path d="M232 40.8C238.848 40.8 244.4 35.2483 244.4 28.4C244.4 21.5517 238.848 16 232 16C225.152 16 219.6 21.5517 219.6 28.4C219.6 35.2483 225.152 40.8 232 40.8Z" fill="url(#paint5_radial_7159_2154)"/>
<path d="M228 183.52V95.4404C236.8 95.4404 244 102.64 244 111.44V167.52C244 176.32 236.8 183.52 228 183.52Z" fill="url(#paint6_linear_7159_2154)"/>
<path d="M228 183.52V95.4404C236.8 95.4404 244 102.64 244 111.44V167.52C244 176.32 236.8 183.52 228 183.52Z" fill="url(#paint7_radial_7159_2154)"/>
<path d="M228 183.52V95.4404C236.8 95.4404 244 102.64 244 111.44V167.52C244 176.32 236.8 183.52 228 183.52Z" fill="url(#paint8_radial_7159_2154)"/>
<path opacity="0.3" fill-rule="evenodd" clip-rule="evenodd" d="M232 88L232 40L234 40L234 88L232 88Z" fill="url(#paint9_linear_7159_2154)"/>
<path fill-rule="evenodd" clip-rule="evenodd" d="M28 104.4V31.5996H36V104.4H28Z" fill="url(#paint10_linear_7159_2154)"/>
<path d="M36 96V184C27.2 184 20 176.807 20 168.015V111.985C20 103.193 27.2 96 36 96Z" fill="url(#paint11_linear_7159_2154)"/>
<path d="M32 40C38.6274 40 44 34.6274 44 28C44 21.3726 38.6274 16 32 16C25.3726 16 20 21.3726 20 28C20 34.6274 25.3726 40 32 40Z" fill="url(#paint12_radial_7159_2154)"/>
<path opacity="0.3" fill-rule="evenodd" clip-rule="evenodd" d="M32 88L32 40L34 40L34 88L32 88Z" fill="url(#paint13_linear_7159_2154)"/>
<path d="M186.021 148H77.979C59.2624 148 44 132.728 44 114C44 95.2719 59.2624 80 77.979 80H186.021C204.738 80 220 95.2719 220 114C220 132.648 204.657 148 186.021 148Z" fill="url(#paint14_linear_7159_2154)"/>
<path d="M152.225 208H111.775C105.287 208 100 202.612 100 196C100 189.388 105.287 184 111.775 184H152.225C158.713 184 164 189.388 164 196C164 202.612 158.713 208 152.225 208Z" fill="url(#paint15_linear_7159_2154)"/>
<rect x="60" y="96" width="36" height="48" rx="2" fill="url(#paint16_radial_7159_2154)"/>
<rect x="152" y="96" width="36" height="48" rx="2" fill="url(#paint17_radial_7159_2154)"/>
<rect x="92" y="24" width="80" height="24" rx="3" fill="url(#paint18_linear_7159_2154)"/>
<rect x="92" y="24" width="80" height="24" rx="3" fill="url(#paint19_radial_7159_2154)"/>
<rect x="76" y="96" width="20" height="40" rx="2" fill="url(#paint20_linear_7159_2154)"/>
<rect x="76" y="96" width="20" height="40" rx="2" fill="url(#paint21_radial_7159_2154)"/>
<rect x="168" y="96" width="20" height="40" rx="2" fill="url(#paint22_linear_7159_2154)"/>
<rect x="168" y="96" width="20" height="40" rx="2" fill="url(#paint23_radial_7159_2154)"/>
<ellipse cx="236" cy="108" rx="8" ry="12" fill="url(#paint24_radial_7159_2154)"/>
<path d="M164 24C168.418 24 172 27.5818 172 32C172 36.4183 168.418 40 164 40C159.582 40 156 36.4183 156 32C156 27.5818 159.582 24 164 24Z" fill="url(#paint25_radial_7159_2154)"/>
<defs>
<radialGradient id="paint0_radial_7159_2154" cx="0" cy="0" r="1" gradientUnits="userSpaceOnUse" gradientTransform="translate(204 92) rotate(141.911) scale(188.043)">
<stop stop-color="#EEEBF0"/>
<stop offset="0.493469" stop-color="#D1BEE3"/>
<stop offset="1" stop-color="#D0BCE2"/>
</radialGradient>
<linearGradient id="paint1_linear_7159_2154" x1="101.769" y1="144" x2="36" y2="144" gradientUnits="userSpaceOnUse">
<stop stop-color="#D5B2C0" stop-opacity="0"/>
<stop offset="1" stop-color="#B4878D"/>
</linearGradient>
<linearGradient id="paint2_linear_7159_2154" x1="132" y1="214.887" x2="132" y2="240" gradientUnits="userSpaceOnUse">
<stop stop-color="#B17EDB" stop-opacity="0"/>
<stop offset="1" stop-color="#A56BD6" stop-opacity="0.7"/>
</linearGradient>
<radialGradient id="paint3_radial_7159_2154" cx="0" cy="0" r="1" gradientTransform="matrix(80 -4.5 27.9886 101.582 166.5 107)" gradientUnits="userSpaceOnUse">
<stop stop-color="#F0EAF6"/>
<stop offset="1" stop-color="#E7E0EF" stop-opacity="0"/>
</radialGradient>
<linearGradient id="paint4_linear_7159_2154" x1="236" y1="32" x2="236" y2="104.72" gradientUnits="userSpaceOnUse">
<stop stop-color="#EA248A"/>
<stop offset="1" stop-color="#DF2232"/>
</linearGradient>
<radialGradient id="paint5_radial_7159_2154" cx="0" cy="0" r="1" gradientUnits="userSpaceOnUse" gradientTransform="translate(236.133 24.2667) rotate(104.036) scale(17.0422 17.0422)">
<stop stop-color="#FF6C82"/>
<stop offset="0.441384" stop-color="#FF2455"/>
<stop offset="1" stop-color="#D9206C"/>
</radialGradient>
<linearGradient id="paint6_linear_7159_2154" x1="236" y1="95.4404" x2="236" y2="183.52" gradientUnits="userSpaceOnUse">
<stop stop-color="#FF30AA"/>
<stop offset="1" stop-color="#FF2353"/>
</linearGradient>
<radialGradient id="paint7_radial_7159_2154" cx="0" cy="0" r="1" gradientUnits="userSpaceOnUse" gradientTransform="translate(236 139.48) rotate(90) scale(44.04 4.47552)">
<stop stop-color="#FF4B9C"/>
<stop offset="1" stop-color="#FF73C1" stop-opacity="0"/>
</radialGradient>
<radialGradient id="paint8_radial_7159_2154" cx="0" cy="0" r="1" gradientUnits="userSpaceOnUse" gradientTransform="translate(242.4 98.6667) rotate(96.9112) scale(17.7288 12.98)">
<stop stop-color="#FF72C1"/>
<stop offset="1" stop-color="#FF6EBF" stop-opacity="0"/>
</radialGradient>
<linearGradient id="paint9_linear_7159_2154" x1="232" y1="56" x2="232" y2="72" gradientUnits="userSpaceOnUse">
<stop stop-color="#FF96CB"/>
<stop offset="1" stop-color="#FF6DB7" stop-opacity="0"/>
</linearGradient>
<linearGradient id="paint10_linear_7159_2154" x1="36" y1="31.5996" x2="36" y2="104.4" gradientUnits="userSpaceOnUse">
<stop stop-color="#EA248A"/>
<stop offset="1" stop-color="#DF2232"/>
</linearGradient>
<linearGradient id="paint11_linear_7159_2154" x1="28" y1="96" x2="28" y2="184" gradientUnits="userSpaceOnUse">
<stop stop-color="#E93273"/>
<stop offset="1" stop-color="#D21844"/>
</linearGradient>
<radialGradient id="paint12_radial_7159_2154" cx="0" cy="0" r="1" gradientUnits="userSpaceOnUse" gradientTransform="translate(36 24) rotate(104.036) scale(16.4924)">
<stop stop-color="#FF6C82"/>
<stop offset="0.441384" stop-color="#FF2455"/>
<stop offset="1" stop-color="#D9206C"/>
</radialGradient>
<linearGradient id="paint13_linear_7159_2154" x1="32" y1="56" x2="32" y2="72" gradientUnits="userSpaceOnUse">
<stop stop-color="#FF96CB"/>
<stop offset="1" stop-color="#FF6DB7" stop-opacity="0"/>
</linearGradient>
<linearGradient id="paint14_linear_7159_2154" x1="131.986" y1="141.605" x2="131.986" y2="91.1268" gradientUnits="userSpaceOnUse">
<stop offset="0.00558659" stop-color="#443E75"/>
<stop offset="1" stop-color="#2F1A3B"/>
</linearGradient>
<linearGradient id="paint15_linear_7159_2154" x1="131.986" y1="205.487" x2="131.986" y2="183.114" gradientUnits="userSpaceOnUse">
<stop offset="0.00558659" stop-color="#39325E"/>
<stop offset="1" stop-color="#2B1831"/>
</linearGradient>
<radialGradient id="paint16_radial_7159_2154" cx="0" cy="0" r="1" gradientUnits="userSpaceOnUse" gradientTransform="translate(80 120) rotate(168.69) scale(20.3961 27.9129)">
<stop stop-color="#322649"/>
<stop offset="1" stop-color="#342950" stop-opacity="0"/>
</radialGradient>
<radialGradient id="paint17_radial_7159_2154" cx="0" cy="0" r="1" gradientUnits="userSpaceOnUse" gradientTransform="translate(172 120) rotate(168.69) scale(20.3961 27.9129)">
<stop stop-color="#322649"/>
<stop offset="1" stop-color="#342950" stop-opacity="0"/>
</radialGradient>
<linearGradient id="paint18_linear_7159_2154" x1="132" y1="24" x2="120" y2="52" gradientUnits="userSpaceOnUse">
<stop stop-color="#FFCE2B"/>
<stop offset="1" stop-color="#D9862D"/>
</linearGradient>
<radialGradient id="paint19_radial_7159_2154" cx="0" cy="0" r="1" gradientUnits="userSpaceOnUse" gradientTransform="translate(132 32) rotate(90) scale(24 80)">
<stop offset="0.430882" stop-color="#CA7E29" stop-opacity="0"/>
<stop offset="1" stop-color="#673F13"/>
</radialGradient>
<linearGradient id="paint20_linear_7159_2154" x1="96" y1="112" x2="76" y2="112" gradientUnits="userSpaceOnUse">
<stop stop-color="#29B6FE"/>
<stop offset="1" stop-color="#1769A8"/>
</linearGradient>
<radialGradient id="paint21_radial_7159_2154" cx="0" cy="0" r="1" gradientUnits="userSpaceOnUse" gradientTransform="translate(92 108) rotate(90) scale(20 9.15143)">
<stop stop-color="#54C8FF"/>
<stop offset="1" stop-color="#54C8FF" stop-opacity="0"/>
</radialGradient>
<linearGradient id="paint22_linear_7159_2154" x1="188" y1="112" x2="168" y2="112" gradientUnits="userSpaceOnUse">
<stop stop-color="#29B6FE"/>
<stop offset="1" stop-color="#1769A8"/>
</linearGradient>
<radialGradient id="paint23_radial_7159_2154" cx="0" cy="0" r="1" gradientUnits="userSpaceOnUse" gradientTransform="translate(184 108) rotate(90) scale(20 9.15143)">
<stop stop-color="#54C8FF"/>
<stop offset="1" stop-color="#54C8FF" stop-opacity="0"/>
</radialGradient>
<radialGradient id="paint24_radial_7159_2154" cx="0" cy="0" r="1" gradientUnits="userSpaceOnUse" gradientTransform="translate(236 108) rotate(90) scale(12 8)">
<stop stop-color="#FF72C1"/>
<stop offset="1" stop-color="#FF6EBF" stop-opacity="0"/>
</radialGradient>
<radialGradient id="paint25_radial_7159_2154" cx="0" cy="0" r="1" gradientUnits="userSpaceOnUse" gradientTransform="translate(164.102 31.8976) rotate(90) scale(8.10237 8.10237)">
<stop stop-color="#FFEA60"/>
<stop offset="1" stop-color="#FFEF66" stop-opacity="0"/>
</radialGradient>
</defs>
</svg>
