<svg width="32" height="32" viewBox="0 0 32 32" fill="none" xmlns="http://www.w3.org/2000/svg">
<path d="M0 16C0 7.16344 7.16344 0 16 0C24.8366 0 32 7.16344 32 16C32 24.8366 24.8366 32 16 32C7.16344 32 0 24.8366 0 16Z" fill="#F79F1A"/>
<path d="M10.8806 18.5596C12.2941 18.5598 13.4401 19.7065 13.4401 21.1201C13.4399 22.5336 12.294 23.6795 10.8806 23.6797C9.46693 23.6797 8.3202 22.5337 8.32001 21.1201C8.32001 19.7064 9.46681 18.5596 10.8806 18.5596ZM8.32001 11.7324C14.9074 11.7324 20.2663 17.0922 20.2663 23.6797H16.8532C16.8532 18.9744 13.0252 15.1465 8.32001 15.1465V11.7324ZM8.32001 5.75977C18.2008 5.75977 26.2399 13.7988 26.2399 23.6797H22.8268C22.8268 15.6804 16.3193 9.17285 8.32001 9.17285V5.75977Z" fill="white"/>
</svg>
