<svg width="256" height="256" viewBox="0 0 256 256" fill="none" xmlns="http://www.w3.org/2000/svg">
<path d="M0 128C0 57.3076 57.3076 0 128 0C198.692 0 256 57.3076 256 128C256 198.692 198.692 256 128 256C57.3076 256 0 198.692 0 128Z" fill="#F79F1A"/>
<path d="M87.0415 148.48C98.3514 148.481 107.521 157.65 107.521 168.96C107.521 180.27 98.3514 189.44 87.0415 189.44C75.7315 189.44 66.562 180.27 66.562 168.96C66.5621 157.65 75.7316 148.48 87.0415 148.48ZM66.5601 93.8652C119.26 93.8652 162.134 136.74 162.134 189.44H134.83C134.83 151.798 104.202 121.175 66.5601 121.175V93.8652ZM66.561 46.0801C145.608 46.0801 209.919 110.393 209.919 189.44H182.615C182.615 125.446 130.555 73.3848 66.561 73.3848V46.0801Z" fill="white"/>
</svg>
