<svg width="256" height="256" viewBox="0 0 256 256" fill="none" xmlns="http://www.w3.org/2000/svg">
<g clip-path="url(#clip0_7159_2159)">
<path d="M52.1244 160.318C76.3562 160.318 96 140.982 96 117.13C96 93.2786 76.3562 73.9429 52.1244 73.9429C27.8926 73.9429 8.24878 93.2786 8.24878 117.13C8.24878 140.982 27.8926 160.318 52.1244 160.318Z" fill="url(#paint0_linear_7159_2159)"/>
<path d="M52.1244 160.318C76.3562 160.318 96 140.982 96 117.13C96 93.2786 76.3562 73.9429 52.1244 73.9429C27.8926 73.9429 8.24878 93.2786 8.24878 117.13C8.24878 140.982 27.8926 160.318 52.1244 160.318Z" fill="url(#paint1_linear_7159_2159)"/>
<path d="M52.1244 160.318C76.3562 160.318 96 140.982 96 117.13C96 93.2786 76.3562 73.9429 52.1244 73.9429C27.8926 73.9429 8.24878 93.2786 8.24878 117.13C8.24878 140.982 27.8926 160.318 52.1244 160.318Z" fill="url(#paint2_radial_7159_2159)" fill-opacity="0.5"/>
<path d="M203.875 160.318C228.107 160.318 247.751 140.982 247.751 117.13C247.751 93.2786 228.107 73.9429 203.875 73.9429C179.644 73.9429 160 93.2786 160 117.13C160 140.982 179.644 160.318 203.875 160.318Z" fill="url(#paint3_linear_7159_2159)"/>
<path d="M203.875 160.318C228.107 160.318 247.751 140.982 247.751 117.13C247.751 93.2786 228.107 73.9429 203.875 73.9429C179.644 73.9429 160 93.2786 160 117.13C160 140.982 179.644 160.318 203.875 160.318Z" fill="url(#paint4_radial_7159_2159)"/>
<path d="M203.875 160.318C228.107 160.318 247.751 140.982 247.751 117.13C247.751 93.2786 228.107 73.9429 203.875 73.9429C179.644 73.9429 160 93.2786 160 117.13C160 140.982 179.644 160.318 203.875 160.318Z" fill="url(#paint5_radial_7159_2159)"/>
<path d="M203.875 160.318C228.107 160.318 247.751 140.982 247.751 117.13C247.751 93.2786 228.107 73.9429 203.875 73.9429C179.644 73.9429 160 93.2786 160 117.13C160 140.982 179.644 160.318 203.875 160.318Z" fill="url(#paint6_radial_7159_2159)"/>
<path d="M128 215.903C191.731 215.903 223.577 173.112 223.577 120.326C223.577 67.5404 191.731 24.749 128 24.749C64.2692 24.749 32.4229 67.5404 32.4229 120.326C32.4229 173.112 64.2692 215.903 128 215.903Z" fill="url(#paint7_radial_7159_2159)"/>
<path d="M128 215.903C191.731 215.903 223.577 173.112 223.577 120.326C223.577 67.5404 191.731 24.749 128 24.749C64.2692 24.749 32.4229 67.5404 32.4229 120.326C32.4229 173.112 64.2692 215.903 128 215.903Z" fill="url(#paint8_linear_7159_2159)"/>
<path d="M128 215.903C191.731 215.903 223.577 173.112 223.577 120.326C223.577 67.5404 191.731 24.749 128 24.749C64.2692 24.749 32.4229 67.5404 32.4229 120.326C32.4229 173.112 64.2692 215.903 128 215.903Z" fill="url(#paint9_radial_7159_2159)"/>
<path d="M128 215.903C191.731 215.903 223.577 173.112 223.577 120.326C223.577 67.5404 191.731 24.749 128 24.749C64.2692 24.749 32.4229 67.5404 32.4229 120.326C32.4229 173.112 64.2692 215.903 128 215.903Z" fill="url(#paint10_radial_7159_2159)"/>
<path d="M128 215.903C191.731 215.903 223.577 173.112 223.577 120.326C223.577 67.5404 191.731 24.749 128 24.749C64.2692 24.749 32.4229 67.5404 32.4229 120.326C32.4229 173.112 64.2692 215.903 128 215.903Z" fill="url(#paint11_radial_7159_2159)"/>
<path d="M128 215.903C191.731 215.903 223.577 173.112 223.577 120.326C223.577 67.5404 191.731 24.749 128 24.749C64.2692 24.749 32.4229 67.5404 32.4229 120.326C32.4229 173.112 64.2692 215.903 128 215.903Z" fill="url(#paint12_radial_7159_2159)"/>
<path d="M128 215.903C191.731 215.903 223.577 173.112 223.577 120.326C223.577 67.5404 191.731 24.749 128 24.749C64.2692 24.749 32.4229 67.5404 32.4229 120.326C32.4229 173.112 64.2692 215.903 128 215.903Z" fill="url(#paint13_radial_7159_2159)"/>
<path d="M128 215.903C191.731 215.903 223.577 173.112 223.577 120.326C223.577 67.5404 191.731 24.749 128 24.749C64.2692 24.749 32.4229 67.5404 32.4229 120.326C32.4229 173.112 64.2692 215.903 128 215.903Z" fill="url(#paint14_radial_7159_2159)" fill-opacity="0.7"/>
<path d="M128 215.903C191.731 215.903 223.577 173.112 223.577 120.326C223.577 67.5404 191.731 24.749 128 24.749C64.2692 24.749 32.4229 67.5404 32.4229 120.326C32.4229 173.112 64.2692 215.903 128 215.903Z" fill="url(#paint15_radial_7159_2159)" fill-opacity="0.9"/>
<path d="M128 215.903C191.731 215.903 223.577 173.112 223.577 120.326C223.577 67.5404 191.731 24.749 128 24.749C64.2692 24.749 32.4229 67.5404 32.4229 120.326C32.4229 173.112 64.2692 215.903 128 215.903Z" fill="url(#paint16_radial_7159_2159)" fill-opacity="0.9"/>
<path d="M128 215.903C191.731 215.903 223.577 173.112 223.577 120.326C223.577 67.5404 191.731 24.749 128 24.749C64.2692 24.749 32.4229 67.5404 32.4229 120.326C32.4229 173.112 64.2692 215.903 128 215.903Z" fill="url(#paint17_radial_7159_2159)" fill-opacity="0.9"/>
<path d="M128 215.903C191.731 215.903 223.577 173.112 223.577 120.326C223.577 67.5404 191.731 24.749 128 24.749C64.2692 24.749 32.4229 67.5404 32.4229 120.326C32.4229 173.112 64.2692 215.903 128 215.903Z" fill="url(#paint18_radial_7159_2159)" fill-opacity="0.9"/>
<path d="M128 215.903C191.731 215.903 223.577 173.112 223.577 120.326C223.577 67.5404 191.731 24.749 128 24.749C64.2692 24.749 32.4229 67.5404 32.4229 120.326C32.4229 173.112 64.2692 215.903 128 215.903Z" fill="url(#paint19_radial_7159_2159)" fill-opacity="0.6"/>
<path d="M128 215.903C191.731 215.903 223.577 173.112 223.577 120.326C223.577 67.5404 191.731 24.749 128 24.749C64.2692 24.749 32.4229 67.5404 32.4229 120.326C32.4229 173.112 64.2692 215.903 128 215.903Z" fill="url(#paint20_radial_7159_2159)" fill-opacity="0.6"/>
<path d="M128 215.903C191.731 215.903 223.577 173.112 223.577 120.326C223.577 67.5404 191.731 24.749 128 24.749C64.2692 24.749 32.4229 67.5404 32.4229 120.326C32.4229 173.112 64.2692 215.903 128 215.903Z" fill="url(#paint21_radial_7159_2159)"/>
<path d="M162.416 50.8179C181.524 50.8179 197.015 66.8797 197.015 86.6929V87.8179C197.015 100.582 190.586 111.789 180.903 118.148C181.351 121.053 181.584 130.032 181.584 133.068C181.584 163.996 157.404 189.068 127.577 189.068C97.7498 189.068 73.5701 163.996 73.5701 133.068C73.5701 130.032 73.8031 121.053 74.2515 118.148C64.5682 111.789 58.1395 100.582 58.1395 87.8179V86.6929C58.1395 66.8797 73.6297 50.8179 92.7377 50.8179H162.416Z" fill="url(#paint22_linear_7159_2159)"/>
<path d="M162.416 50.8179C181.524 50.8179 197.015 66.8797 197.015 86.6929V87.8179C197.015 100.582 190.586 111.789 180.903 118.148C181.351 121.053 181.584 130.032 181.584 133.068C181.584 163.996 157.404 189.068 127.577 189.068C97.7498 189.068 73.5701 163.996 73.5701 133.068C73.5701 130.032 73.8031 121.053 74.2515 118.148C64.5682 111.789 58.1395 100.582 58.1395 87.8179V86.6929C58.1395 66.8797 73.6297 50.8179 92.7377 50.8179H162.416Z" fill="url(#paint23_radial_7159_2159)"/>
<path d="M162.416 50.8179C181.524 50.8179 197.015 66.8797 197.015 86.6929V87.8179C197.015 100.582 190.586 111.789 180.903 118.148C181.351 121.053 181.584 130.032 181.584 133.068C181.584 163.996 157.404 189.068 127.577 189.068C97.7498 189.068 73.5701 163.996 73.5701 133.068C73.5701 130.032 73.8031 121.053 74.2515 118.148C64.5682 111.789 58.1395 100.582 58.1395 87.8179V86.6929C58.1395 66.8797 73.6297 50.8179 92.7377 50.8179H162.416Z" fill="url(#paint24_radial_7159_2159)"/>
<path d="M114.986 154.005C115.344 160.883 121.033 166.349 128 166.349C134.966 166.349 140.656 160.883 141.013 154.005H114.986Z" fill="url(#paint25_radial_7159_2159)"/>
<path d="M65.0551 116.821C63.355 118.997 63.7408 122.139 65.9169 123.84L79.5446 134.487C81.7206 136.187 84.8628 135.801 86.5629 133.625L126.186 82.9097C127.886 80.7336 127.5 77.5914 125.324 75.8913L111.697 65.2442C109.521 63.5441 106.378 63.9299 104.678 66.1059L65.0551 116.821Z" fill="url(#paint26_linear_7159_2159)"/>
<path d="M65.0551 116.821C63.355 118.997 63.7408 122.139 65.9169 123.84L79.5446 134.487C81.7206 136.187 84.8628 135.801 86.5629 133.625L126.186 82.9097C127.886 80.7336 127.5 77.5914 125.324 75.8913L111.697 65.2442C109.521 63.5441 106.378 63.9299 104.678 66.1059L65.0551 116.821Z" fill="url(#paint27_radial_7159_2159)" fill-opacity="0.6"/>
<path d="M65.0551 116.821C63.355 118.997 63.7408 122.139 65.9169 123.84L79.5446 134.487C81.7206 136.187 84.8628 135.801 86.5629 133.625L126.186 82.9097C127.886 80.7336 127.5 77.5914 125.324 75.8913L111.697 65.2442C109.521 63.5441 106.378 63.9299 104.678 66.1059L65.0551 116.821Z" fill="url(#paint28_radial_7159_2159)" fill-opacity="0.6"/>
<path d="M65.0551 116.821C63.355 118.997 63.7408 122.139 65.9169 123.84L79.5446 134.487C81.7206 136.187 84.8628 135.801 86.5629 133.625L126.186 82.9097C127.886 80.7336 127.5 77.5914 125.324 75.8913L111.697 65.2442C109.521 63.5441 106.378 63.9299 104.678 66.1059L65.0551 116.821Z" fill="url(#paint29_linear_7159_2159)" fill-opacity="0.2"/>
<path d="M65.0551 116.821C63.355 118.997 63.7408 122.139 65.9169 123.84L79.5446 134.487C81.7206 136.187 84.8628 135.801 86.5629 133.625L126.186 82.9097C127.886 80.7336 127.5 77.5914 125.324 75.8913L111.697 65.2442C109.521 63.5441 106.378 63.9299 104.678 66.1059L65.0551 116.821Z" fill="url(#paint30_radial_7159_2159)" fill-opacity="0.2"/>
<path d="M65.0551 116.821C63.355 118.997 63.7408 122.139 65.9169 123.84L79.5446 134.487C81.7206 136.187 84.8628 135.801 86.5629 133.625L126.186 82.9097C127.886 80.7336 127.5 77.5914 125.324 75.8913L111.697 65.2442C109.521 63.5441 106.378 63.9299 104.678 66.1059L65.0551 116.821Z" fill="url(#paint31_radial_7159_2159)" fill-opacity="0.2"/>
<path d="M65.0551 116.821C63.355 118.997 63.7408 122.139 65.9169 123.84L79.5446 134.487C81.7206 136.187 84.8628 135.801 86.5629 133.625L126.186 82.9097C127.886 80.7336 127.5 77.5914 125.324 75.8913L111.697 65.2442C109.521 63.5441 106.378 63.9299 104.678 66.1059L65.0551 116.821Z" fill="url(#paint32_radial_7159_2159)" fill-opacity="0.2"/>
<rect width="26.1532" height="74.3586" rx="5" transform="matrix(0.969661 -0.244453 -0.244453 -0.969661 79.0991 161.757)" fill="url(#paint33_linear_7159_2159)"/>
<rect width="26.1532" height="74.3586" rx="5" transform="matrix(0.969661 -0.244453 -0.244453 -0.969661 79.0991 161.757)" fill="url(#paint34_radial_7159_2159)"/>
<rect width="24.6475" height="74.3586" rx="5" transform="matrix(0.788011 0.615662 0.615662 -0.788011 90.7268 146.311)" fill="url(#paint35_radial_7159_2159)"/>
<rect width="24.6475" height="74.3586" rx="5" transform="matrix(0.788011 0.615662 0.615662 -0.788011 90.7268 146.311)" fill="url(#paint36_linear_7159_2159)"/>
<rect width="24.6475" height="74.3586" rx="5" transform="matrix(0.788011 0.615662 0.615662 -0.788011 90.7268 146.311)" fill="url(#paint37_linear_7159_2159)"/>
<path d="M88.0119 87.438C88.1819 87.2203 88.4961 87.1818 88.7137 87.3518L136.061 124.343C138.998 126.639 139.519 130.881 137.224 133.818L50.7586 244.489C49.0585 246.665 45.9163 247.051 43.7403 245.351L-1.43985 210.052C-3.61588 208.352 -4.00169 205.21 -2.30159 203.034L88.0119 87.438Z" fill="url(#paint38_linear_7159_2159)"/>
<path d="M88.0119 87.438C88.1819 87.2203 88.4961 87.1818 88.7137 87.3518L136.061 124.343C138.998 126.639 139.519 130.881 137.224 133.818L50.7586 244.489C49.0585 246.665 45.9163 247.051 43.7403 245.351L-1.43985 210.052C-3.61588 208.352 -4.00169 205.21 -2.30159 203.034L88.0119 87.438Z" fill="url(#paint39_radial_7159_2159)"/>
<path d="M88.0119 87.438C88.1819 87.2203 88.4961 87.1818 88.7137 87.3518L136.061 124.343C138.998 126.639 139.519 130.881 137.224 133.818L50.7586 244.489C49.0585 246.665 45.9163 247.051 43.7403 245.351L-1.43985 210.052C-3.61588 208.352 -4.00169 205.21 -2.30159 203.034L88.0119 87.438Z" fill="url(#paint40_linear_7159_2159)"/>
<path d="M88.0119 87.438C88.1819 87.2203 88.4961 87.1818 88.7137 87.3518L136.061 124.343C138.998 126.639 139.519 130.881 137.224 133.818L50.7586 244.489C49.0585 246.665 45.9163 247.051 43.7403 245.351L-1.43985 210.052C-3.61588 208.352 -4.00169 205.21 -2.30159 203.034L88.0119 87.438Z" fill="url(#paint41_radial_7159_2159)"/>
<path d="M88.0119 87.438C88.1819 87.2203 88.4961 87.1818 88.7137 87.3518L136.061 124.343C138.998 126.639 139.519 130.881 137.224 133.818L50.7586 244.489C49.0585 246.665 45.9163 247.051 43.7403 245.351L-1.43985 210.052C-3.61588 208.352 -4.00169 205.21 -2.30159 203.034L88.0119 87.438Z" fill="url(#paint42_radial_7159_2159)"/>
<path d="M88.0119 87.438C88.1819 87.2203 88.4961 87.1818 88.7137 87.3518L136.061 124.343C138.998 126.639 139.519 130.881 137.224 133.818L50.7586 244.489C49.0585 246.665 45.9163 247.051 43.7403 245.351L-1.43985 210.052C-3.61588 208.352 -4.00169 205.21 -2.30159 203.034L88.0119 87.438Z" fill="url(#paint43_radial_7159_2159)"/>
<path d="M88.0119 87.438C88.1819 87.2203 88.4961 87.1818 88.7137 87.3518L136.061 124.343C138.998 126.639 139.519 130.881 137.224 133.818L50.7586 244.489C49.0585 246.665 45.9163 247.051 43.7403 245.351L-1.43985 210.052C-3.61588 208.352 -4.00169 205.21 -2.30159 203.034L88.0119 87.438Z" fill="url(#paint44_radial_7159_2159)"/>
<rect x="134.272" y="111.363" width="23.1756" height="24.9695" rx="5" transform="rotate(142 134.272 111.363)" fill="#5A3129"/>
<path d="M107.919 105.46C123.226 124.131 120.286 145.245 107.023 162.221L98.4991 173.131L105.884 108.658L107.919 105.46Z" fill="url(#paint45_linear_7159_2159)"/>
<rect x="194.023" y="120.761" width="24.6475" height="74.3586" rx="5" transform="rotate(142 194.023 120.761)" fill="url(#paint46_radial_7159_2159)"/>
<rect x="194.023" y="120.761" width="24.6475" height="74.3586" rx="5" transform="rotate(142 194.023 120.761)" fill="url(#paint47_linear_7159_2159)"/>
<rect x="194.023" y="120.761" width="24.6475" height="74.3586" rx="5" transform="rotate(142 194.023 120.761)" fill="url(#paint48_linear_7159_2159)"/>
<rect x="194.023" y="120.761" width="24.6475" height="74.3586" rx="5" transform="rotate(142 194.023 120.761)" fill="url(#paint49_radial_7159_2159)"/>
<rect x="194.023" y="120.761" width="24.6475" height="74.3586" rx="5" transform="rotate(142 194.023 120.761)" fill="url(#paint50_radial_7159_2159)"/>
<rect x="194.023" y="120.761" width="24.6475" height="74.3586" rx="5" transform="rotate(142 194.023 120.761)" fill="url(#paint51_radial_7159_2159)"/>
<rect x="176.901" y="161.757" width="26.1532" height="74.3586" rx="5" transform="rotate(-165.85 176.901 161.757)" fill="url(#paint52_linear_7159_2159)"/>
<rect x="176.901" y="161.757" width="26.1532" height="74.3586" rx="5" transform="rotate(-165.85 176.901 161.757)" fill="url(#paint53_radial_7159_2159)"/>
<rect x="165.273" y="146.311" width="24.6475" height="74.3586" rx="5" transform="rotate(142 165.273 146.311)" fill="url(#paint54_radial_7159_2159)"/>
<rect x="165.273" y="146.311" width="24.6475" height="74.3586" rx="5" transform="rotate(142 165.273 146.311)" fill="url(#paint55_linear_7159_2159)"/>
<rect x="165.273" y="146.311" width="24.6475" height="74.3586" rx="5" transform="rotate(142 165.273 146.311)" fill="url(#paint56_linear_7159_2159)"/>
<rect x="165.273" y="146.311" width="24.6475" height="74.3586" rx="5" transform="rotate(142 165.273 146.311)" fill="url(#paint57_linear_7159_2159)"/>
<rect x="165.273" y="146.311" width="24.6475" height="74.3586" rx="5" transform="rotate(142 165.273 146.311)" fill="url(#paint58_radial_7159_2159)" fill-opacity="0.7"/>
<rect x="165.273" y="146.311" width="24.6475" height="74.3586" rx="5" transform="rotate(142 165.273 146.311)" fill="url(#paint59_radial_7159_2159)"/>
<rect x="177.523" y="131.136" width="23.4416" height="74.3586" rx="5" transform="rotate(142 177.523 131.136)" fill="url(#paint60_radial_7159_2159)"/>
<rect x="177.523" y="131.136" width="23.4416" height="74.3586" rx="5" transform="rotate(142 177.523 131.136)" fill="url(#paint61_linear_7159_2159)"/>
<rect x="177.523" y="131.136" width="23.4416" height="74.3586" rx="5" transform="rotate(142 177.523 131.136)" fill="url(#paint62_radial_7159_2159)"/>
<rect x="177.523" y="131.136" width="23.4416" height="74.3586" rx="5" transform="rotate(142 177.523 131.136)" fill="url(#paint63_radial_7159_2159)"/>
<rect x="177.523" y="131.136" width="23.4416" height="74.3586" rx="5" transform="rotate(142 177.523 131.136)" fill="url(#paint64_radial_7159_2159)"/>
<path d="M167.988 87.438C167.818 87.2203 167.504 87.1818 167.286 87.3518L119.939 124.343C117.002 126.639 116.481 130.881 118.776 133.818L205.241 244.489C206.942 246.665 210.084 247.051 212.26 245.351L257.44 210.052C259.616 208.352 260.002 205.21 258.302 203.034L167.988 87.438Z" fill="url(#paint65_linear_7159_2159)"/>
<path d="M167.988 87.438C167.818 87.2203 167.504 87.1818 167.286 87.3518L119.939 124.343C117.002 126.639 116.481 130.881 118.776 133.818L205.241 244.489C206.942 246.665 210.084 247.051 212.26 245.351L257.44 210.052C259.616 208.352 260.002 205.21 258.302 203.034L167.988 87.438Z" fill="url(#paint66_linear_7159_2159)"/>
<path d="M167.988 87.438C167.818 87.2203 167.504 87.1818 167.286 87.3518L119.939 124.343C117.002 126.639 116.481 130.881 118.776 133.818L205.241 244.489C206.942 246.665 210.084 247.051 212.26 245.351L257.44 210.052C259.616 208.352 260.002 205.21 258.302 203.034L167.988 87.438Z" fill="url(#paint67_radial_7159_2159)"/>
<path d="M167.988 87.438C167.818 87.2203 167.504 87.1818 167.286 87.3518L119.939 124.343C117.002 126.639 116.481 130.881 118.776 133.818L205.241 244.489C206.942 246.665 210.084 247.051 212.26 245.351L257.44 210.052C259.616 208.352 260.002 205.21 258.302 203.034L167.988 87.438Z" fill="url(#paint68_radial_7159_2159)"/>
<path d="M167.988 87.438C167.818 87.2203 167.504 87.1818 167.286 87.3518L119.939 124.343C117.002 126.639 116.481 130.881 118.776 133.818L205.241 244.489C206.942 246.665 210.084 247.051 212.26 245.351L257.44 210.052C259.616 208.352 260.002 205.21 258.302 203.034L167.988 87.438Z" fill="url(#paint69_radial_7159_2159)"/>
<path d="M167.988 87.438C167.818 87.2203 167.504 87.1818 167.286 87.3518L119.939 124.343C117.002 126.639 116.481 130.881 118.776 133.818L205.241 244.489C206.942 246.665 210.084 247.051 212.26 245.351L257.44 210.052C259.616 208.352 260.002 205.21 258.302 203.034L167.988 87.438Z" fill="url(#paint70_linear_7159_2159)"/>
<path d="M167.988 87.438C167.818 87.2203 167.504 87.1818 167.286 87.3518L119.939 124.343C117.002 126.639 116.481 130.881 118.776 133.818L205.241 244.489C206.942 246.665 210.084 247.051 212.26 245.351L257.44 210.052C259.616 208.352 260.002 205.21 258.302 203.034L167.988 87.438Z" fill="url(#paint71_radial_7159_2159)"/>
<path d="M167.988 87.438C167.818 87.2203 167.504 87.1818 167.286 87.3518L119.939 124.343C117.002 126.639 116.481 130.881 118.776 133.818L205.241 244.489C206.942 246.665 210.084 247.051 212.26 245.351L257.44 210.052C259.616 208.352 260.002 205.21 258.302 203.034L167.988 87.438Z" fill="url(#paint72_radial_7159_2159)"/>
<path d="M167.988 87.438C167.818 87.2203 167.504 87.1818 167.286 87.3518L119.939 124.343C117.002 126.639 116.481 130.881 118.776 133.818L205.241 244.489C206.942 246.665 210.084 247.051 212.26 245.351L257.44 210.052C259.616 208.352 260.002 205.21 258.302 203.034L167.988 87.438Z" fill="url(#paint73_radial_7159_2159)"/>
<path opacity="0.5" d="M172.577 93.0681L170.143 90.1962C168.783 88.4554 166.269 88.1467 164.528 89.5068L157.173 95.2536C139.948 108.711 133.109 130.535 137.915 150.486C137.915 135.193 144.303 117.677 153.827 106.818C158.848 101.093 166.577 95.2536 172.577 93.0681Z" fill="url(#paint74_linear_7159_2159)"/>
</g>
<defs>
<linearGradient id="paint0_linear_7159_2159" x1="52.1244" y1="86.5679" x2="52.1244" y2="174.068" gradientUnits="userSpaceOnUse">
<stop stop-color="#A67874"/>
<stop offset="1" stop-color="#8F5872"/>
</linearGradient>
<linearGradient id="paint1_linear_7159_2159" x1="52.1244" y1="112.568" x2="52.1244" y2="178.068" gradientUnits="userSpaceOnUse">
<stop stop-color="#B56595" stop-opacity="0"/>
<stop offset="1" stop-color="#CA6FA6"/>
</linearGradient>
<radialGradient id="paint2_radial_7159_2159" cx="0" cy="0" r="1" gradientUnits="userSpaceOnUse" gradientTransform="translate(83.0771 165.568) rotate(-135.32) scale(126.574 151.079)">
<stop offset="0.631933" stop-color="#F39585" stop-opacity="0"/>
<stop offset="1" stop-color="#F39585"/>
</radialGradient>
<linearGradient id="paint3_linear_7159_2159" x1="203.876" y1="96.0679" x2="203.876" y2="178.068" gradientUnits="userSpaceOnUse">
<stop offset="0.09375" stop-color="#FAB8A9"/>
<stop offset="1" stop-color="#B56595"/>
</linearGradient>
<radialGradient id="paint4_radial_7159_2159" cx="0" cy="0" r="1" gradientUnits="userSpaceOnUse" gradientTransform="translate(204.543 116.157) scale(43.4213 44.1131)">
<stop offset="0.797219" stop-color="#FFDACC" stop-opacity="0"/>
<stop offset="0.832507" stop-color="#FFDACC" stop-opacity="0.145818"/>
<stop offset="0.870455" stop-color="#FFDACC" stop-opacity="0.54"/>
<stop offset="0.890604" stop-color="#FFDACC" stop-opacity="0.64"/>
<stop offset="0.935178" stop-color="#FFDACC" stop-opacity="0.361887"/>
<stop offset="1" stop-color="#FFDACC" stop-opacity="0"/>
</radialGradient>
<radialGradient id="paint5_radial_7159_2159" cx="0" cy="0" r="1" gradientUnits="userSpaceOnUse" gradientTransform="translate(218.922 79.8983) rotate(37.0519) scale(20.5407 20.868)">
<stop offset="0.40048" stop-color="#FAB8A9"/>
<stop offset="1" stop-color="#FAB8A9" stop-opacity="0"/>
</radialGradient>
<radialGradient id="paint6_radial_7159_2159" cx="0" cy="0" r="1" gradientUnits="userSpaceOnUse" gradientTransform="translate(219.056 157.892) rotate(-90) scale(60.3375 111.125)">
<stop stop-color="#B56595"/>
<stop offset="0.619388" stop-color="#FAB8A9" stop-opacity="0.46"/>
<stop offset="1" stop-color="#FAB8A9" stop-opacity="0"/>
</radialGradient>
<radialGradient id="paint7_radial_7159_2159" cx="0" cy="0" r="1" gradientUnits="userSpaceOnUse" gradientTransform="translate(194.077 68.5679) rotate(120.705) scale(171.359 303.682)">
<stop stop-color="#A06857"/>
<stop offset="1" stop-color="#5B3838"/>
</radialGradient>
<linearGradient id="paint8_linear_7159_2159" x1="128" y1="120.326" x2="128" y2="255.185" gradientUnits="userSpaceOnUse">
<stop stop-color="#682B5B" stop-opacity="0"/>
<stop offset="1" stop-color="#682B5B"/>
</linearGradient>
<radialGradient id="paint9_radial_7159_2159" cx="0" cy="0" r="1" gradientUnits="userSpaceOnUse" gradientTransform="translate(128.008 96.4376) rotate(90) scale(165.38 147.689)">
<stop offset="0.688473" stop-color="#FF7AF2" stop-opacity="0"/>
<stop offset="1" stop-color="#FFBCE6"/>
</radialGradient>
<radialGradient id="paint10_radial_7159_2159" cx="0" cy="0" r="1" gradientUnits="userSpaceOnUse" gradientTransform="translate(197.5 53.6694) rotate(126.103) scale(112.01)">
<stop stop-color="#AC7463"/>
<stop offset="1" stop-color="#AC7463" stop-opacity="0"/>
</radialGradient>
<radialGradient id="paint11_radial_7159_2159" cx="0" cy="0" r="1" gradientUnits="userSpaceOnUse" gradientTransform="translate(128 40.8983) rotate(90) scale(13.4873 40.9015)">
<stop stop-color="#C58E7D" stop-opacity="0.37"/>
<stop offset="1" stop-color="#C58E7D" stop-opacity="0"/>
</radialGradient>
<radialGradient id="paint12_radial_7159_2159" cx="0" cy="0" r="1" gradientUnits="userSpaceOnUse" gradientTransform="translate(191.309 80.2007) rotate(148.173) scale(22.9239 39.0824)">
<stop stop-color="#C58E7D"/>
<stop offset="1" stop-color="#C58E7D" stop-opacity="0"/>
</radialGradient>
<radialGradient id="paint13_radial_7159_2159" cx="0" cy="0" r="1" gradientUnits="userSpaceOnUse" gradientTransform="translate(144.967 134.602) rotate(9.41638) scale(50.3556 53.8673)">
<stop stop-color="#561E25"/>
<stop offset="0.81987" stop-color="#561E25" stop-opacity="0.772953"/>
<stop offset="0.937522" stop-color="#561E25" stop-opacity="0.15"/>
<stop offset="1" stop-color="#561E25" stop-opacity="0"/>
</radialGradient>
<radialGradient id="paint14_radial_7159_2159" cx="0" cy="0" r="1" gradientUnits="userSpaceOnUse" gradientTransform="translate(159.049 91.0365) rotate(-30.3723) scale(47.325 46.6414)">
<stop offset="0.516939" stop-color="#561E25"/>
<stop offset="0.859613" stop-color="#561E25" stop-opacity="0.360608"/>
<stop offset="0.933857" stop-color="#561E25" stop-opacity="0.08"/>
<stop offset="1" stop-color="#561E25" stop-opacity="0"/>
</radialGradient>
<radialGradient id="paint15_radial_7159_2159" cx="0" cy="0" r="1" gradientUnits="userSpaceOnUse" gradientTransform="translate(100.229 94.0337) rotate(-152.736) scale(54.1304 48.1906)">
<stop stop-color="#561E25"/>
<stop offset="0.516939" stop-color="#561E25"/>
<stop offset="0.859613" stop-color="#561E25" stop-opacity="0.360608"/>
<stop offset="0.933857" stop-color="#561E25" stop-opacity="0.08"/>
<stop offset="1" stop-color="#561E25" stop-opacity="0"/>
</radialGradient>
<radialGradient id="paint16_radial_7159_2159" cx="0" cy="0" r="1" gradientUnits="userSpaceOnUse" gradientTransform="translate(112.362 134.43) rotate(-170.806) scale(55.9358 49.7979)">
<stop stop-color="#561E25"/>
<stop offset="0.71204" stop-color="#561E25"/>
<stop offset="0.859613" stop-color="#561E25" stop-opacity="0.360608"/>
<stop offset="0.933857" stop-color="#561E25" stop-opacity="0.08"/>
<stop offset="1" stop-color="#561E25" stop-opacity="0"/>
</radialGradient>
<radialGradient id="paint17_radial_7159_2159" cx="0" cy="0" r="1" gradientUnits="userSpaceOnUse" gradientTransform="translate(108.34 63.2307) rotate(-97.0986) scale(17.5269 53.7137)">
<stop stop-color="#561E25"/>
<stop offset="0.288031" stop-color="#561E25"/>
<stop offset="0.696768" stop-color="#561E25" stop-opacity="0.360608"/>
<stop offset="0.864532" stop-color="#561E25" stop-opacity="0.08"/>
<stop offset="1" stop-color="#561E25" stop-opacity="0"/>
</radialGradient>
<radialGradient id="paint18_radial_7159_2159" cx="0" cy="0" r="1" gradientUnits="userSpaceOnUse" gradientTransform="translate(139.214 57.2477) rotate(-93.1798) scale(11.0124 43.9173)">
<stop stop-color="#561E25"/>
<stop offset="0.288031" stop-color="#561E25"/>
<stop offset="0.458489" stop-color="#561E25" stop-opacity="0.360608"/>
<stop offset="0.715756" stop-color="#561E25" stop-opacity="0.08"/>
<stop offset="0.886281" stop-color="#561E25" stop-opacity="0"/>
</radialGradient>
<radialGradient id="paint19_radial_7159_2159" cx="0" cy="0" r="1" gradientUnits="userSpaceOnUse" gradientTransform="translate(210.952 157.372) rotate(-159.017) scale(3.65457 22.4694)">
<stop stop-color="#BE8B89" stop-opacity="0.47"/>
<stop offset="0.330257" stop-color="#BE8B89" stop-opacity="0.296875"/>
<stop offset="0.584427" stop-color="#BE8B89" stop-opacity="0.0890625"/>
<stop offset="0.848958" stop-color="#BE8B89" stop-opacity="0"/>
</radialGradient>
<radialGradient id="paint20_radial_7159_2159" cx="0" cy="0" r="1" gradientUnits="userSpaceOnUse" gradientTransform="translate(216.607 137.71) rotate(-169.695) scale(4.05506 28.353)">
<stop stop-color="#BE8B89" stop-opacity="0.47"/>
<stop offset="0.310294" stop-color="#BE8B89" stop-opacity="0.296875"/>
<stop offset="0.570887" stop-color="#BE8B89" stop-opacity="0.0890625"/>
<stop offset="0.848958" stop-color="#BE8B89" stop-opacity="0"/>
</radialGradient>
<radialGradient id="paint21_radial_7159_2159" cx="0" cy="0" r="1" gradientUnits="userSpaceOnUse" gradientTransform="translate(233.221 129.748) rotate(-172.718) scale(207.497 156.978)">
<stop offset="0.883457" stop-color="#7C6160" stop-opacity="0"/>
<stop offset="0.923614" stop-color="#7C6160" stop-opacity="0.220375"/>
<stop offset="0.941875" stop-color="#7C6160" stop-opacity="0.45"/>
<stop offset="0.952019" stop-color="#7C6160" stop-opacity="0.4"/>
<stop offset="0.972307" stop-color="#7C6160" stop-opacity="0"/>
</radialGradient>
<linearGradient id="paint22_linear_7159_2159" x1="138.12" y1="77.627" x2="127.577" y2="152.568" gradientUnits="userSpaceOnUse">
<stop stop-color="#FAB8A9"/>
<stop offset="1" stop-color="#AC628E"/>
</linearGradient>
<radialGradient id="paint23_radial_7159_2159" cx="0" cy="0" r="1" gradientUnits="userSpaceOnUse" gradientTransform="translate(73.0805 117.24) rotate(-101.023) scale(34.793 38.0959)">
<stop offset="0.244792" stop-color="#8F5E52"/>
<stop offset="1" stop-color="#BB6F89" stop-opacity="0"/>
</radialGradient>
<radialGradient id="paint24_radial_7159_2159" cx="0" cy="0" r="1" gradientUnits="userSpaceOnUse" gradientTransform="translate(101.466 103.934) rotate(-121.088) scale(35.2173 38.5604)">
<stop offset="0.244792" stop-color="#C8877A"/>
<stop offset="1" stop-color="#BB6F89" stop-opacity="0"/>
</radialGradient>
<radialGradient id="paint25_radial_7159_2159" cx="0" cy="0" r="1" gradientUnits="userSpaceOnUse" gradientTransform="translate(128 169.092) rotate(-90) scale(26.2745 54.1161)">
<stop stop-color="#89029C"/>
<stop offset="1" stop-color="#F70A8D"/>
</radialGradient>
<linearGradient id="paint26_linear_7159_2159" x1="107.666" y1="96.0594" x2="84.9504" y2="94.1348" gradientUnits="userSpaceOnUse">
<stop stop-color="#F9B4A9"/>
<stop offset="1" stop-color="#D19788"/>
</linearGradient>
<radialGradient id="paint27_radial_7159_2159" cx="0" cy="0" r="1" gradientTransform="matrix(-9.35373 -16.8076 -32.0818 14.6967 107.009 98.8822)" gradientUnits="userSpaceOnUse">
<stop stop-color="#C27F6F"/>
<stop offset="1" stop-color="#C27F6F" stop-opacity="0"/>
</radialGradient>
<radialGradient id="paint28_radial_7159_2159" cx="0" cy="0" r="1" gradientTransform="matrix(-9.35373 -16.8076 -32.0818 14.6967 107.009 98.8822)" gradientUnits="userSpaceOnUse">
<stop stop-color="#C27F6F"/>
<stop offset="1" stop-color="#C27F6F" stop-opacity="0"/>
</radialGradient>
<linearGradient id="paint29_linear_7159_2159" x1="93.4937" y1="84.1942" x2="104.637" y2="87.3144" gradientUnits="userSpaceOnUse">
<stop stop-color="#C68778"/>
<stop offset="1" stop-color="#CC8A78" stop-opacity="0"/>
</linearGradient>
<radialGradient id="paint30_radial_7159_2159" cx="0" cy="0" r="1" gradientUnits="userSpaceOnUse" gradientTransform="translate(113.532 78.2133) rotate(127.569) scale(11.6056 6.03145)">
<stop offset="0.239583" stop-color="#FFD7CC"/>
<stop offset="1" stop-color="#FFC9B9" stop-opacity="0"/>
</radialGradient>
<radialGradient id="paint31_radial_7159_2159" cx="0" cy="0" r="1" gradientUnits="userSpaceOnUse" gradientTransform="translate(120.907 74.1648) rotate(144.372) scale(16.452 17.0438)">
<stop offset="0.239583" stop-color="white"/>
<stop offset="1" stop-color="#FFD5C9" stop-opacity="0"/>
</radialGradient>
<radialGradient id="paint32_radial_7159_2159" cx="0" cy="0" r="1" gradientUnits="userSpaceOnUse" gradientTransform="translate(122.467 75.2792) rotate(159.044) scale(11.217 14.3523)">
<stop offset="0.239583" stop-color="white"/>
<stop offset="1" stop-color="#FFD5C9" stop-opacity="0"/>
</radialGradient>
<linearGradient id="paint33_linear_7159_2159" x1="14.1349" y1="64.8439" x2="7.88145" y2="41.9577" gradientUnits="userSpaceOnUse">
<stop stop-color="#EDADA3"/>
<stop offset="0.830888" stop-color="#C27F74"/>
</linearGradient>
<radialGradient id="paint34_radial_7159_2159" cx="0" cy="0" r="1" gradientUnits="userSpaceOnUse" gradientTransform="translate(15.4093 62.3865) rotate(133.839) scale(9.43893 7.09302)">
<stop stop-color="#F2B9AD"/>
<stop offset="1" stop-color="#F2B9AD" stop-opacity="0"/>
</radialGradient>
<radialGradient id="paint35_radial_7159_2159" cx="0" cy="0" r="1" gradientUnits="userSpaceOnUse" gradientTransform="translate(-4.09778 47.2326) rotate(-33.3154) scale(36.2875 137.972)">
<stop stop-color="#F9B4A9"/>
<stop offset="0.664238" stop-color="#D79D95"/>
</radialGradient>
<linearGradient id="paint36_linear_7159_2159" x1="44.0462" y1="20.1269" x2="6.80025" y2="41.5759" gradientUnits="userSpaceOnUse">
<stop offset="0.386002" stop-color="#CF6ABA"/>
<stop offset="1" stop-color="#DC90CC" stop-opacity="0"/>
</linearGradient>
<linearGradient id="paint37_linear_7159_2159" x1="28.8701" y1="41.5818" x2="17.6407" y2="42.9605" gradientUnits="userSpaceOnUse">
<stop stop-color="#AA6C64"/>
<stop offset="1" stop-color="#D79D95" stop-opacity="0"/>
</linearGradient>
<linearGradient id="paint38_linear_7159_2159" x1="27.9521" y1="108.89" x2="54.1877" y2="166.78" gradientUnits="userSpaceOnUse">
<stop stop-color="#A06857"/>
<stop offset="1" stop-color="#6B423E"/>
</linearGradient>
<radialGradient id="paint39_radial_7159_2159" cx="0" cy="0" r="1" gradientUnits="userSpaceOnUse" gradientTransform="translate(51.423 248.429) rotate(-83.6359) scale(81.1929 76.2702)">
<stop offset="0.114152" stop-color="#7A326B"/>
<stop offset="1" stop-color="#682B5B" stop-opacity="0"/>
</radialGradient>
<linearGradient id="paint40_linear_7159_2159" x1="102.226" y1="206.4" x2="44.3042" y2="163.581" gradientUnits="userSpaceOnUse">
<stop offset="0.114152" stop-color="#923A7F"/>
<stop offset="1" stop-color="#682B5B" stop-opacity="0"/>
</linearGradient>
<radialGradient id="paint41_radial_7159_2159" cx="0" cy="0" r="1" gradientTransform="matrix(41.6502 -29.5097 10.554 45.4968 8.31106 217.511)" gradientUnits="userSpaceOnUse">
<stop offset="0.114152" stop-color="#5A383A"/>
<stop offset="1" stop-color="#5A383A" stop-opacity="0"/>
</radialGradient>
<radialGradient id="paint42_radial_7159_2159" cx="0" cy="0" r="1" gradientUnits="userSpaceOnUse" gradientTransform="translate(34.173 149.318) rotate(34.5144) scale(27.7967 222.654)">
<stop stop-color="#AC928F"/>
<stop offset="0.437083" stop-color="#705C5A" stop-opacity="0"/>
</radialGradient>
<radialGradient id="paint43_radial_7159_2159" cx="0" cy="0" r="1" gradientUnits="userSpaceOnUse" gradientTransform="translate(100.423 194.068) rotate(-139.274) scale(45.9809 342.207)">
<stop stop-color="#915D88"/>
<stop offset="0.34375" stop-color="#7F5575" stop-opacity="0"/>
</radialGradient>
<radialGradient id="paint44_radial_7159_2159" cx="0" cy="0" r="1" gradientTransform="matrix(-69.3551 86.4838 -23.1097 -18.8213 68 167.737)" gradientUnits="userSpaceOnUse">
<stop stop-color="#BC938F" stop-opacity="0.39"/>
<stop offset="0.197917" stop-color="#BC938F" stop-opacity="0.33"/>
<stop offset="0.505623" stop-color="#BC938F" stop-opacity="0.157678"/>
<stop offset="0.671749" stop-color="#BC938F" stop-opacity="0.0504299"/>
<stop offset="0.839493" stop-color="#BC938F" stop-opacity="0"/>
</radialGradient>
<linearGradient id="paint45_linear_7159_2159" x1="135.351" y1="106.256" x2="124.24" y2="147.872" gradientUnits="userSpaceOnUse">
<stop offset="0.114152" stop-color="#732863"/>
<stop offset="1" stop-color="#713263" stop-opacity="0"/>
</linearGradient>
<radialGradient id="paint46_radial_7159_2159" cx="0" cy="0" r="1" gradientUnits="userSpaceOnUse" gradientTransform="translate(197.764 161.365) rotate(59.0131) scale(42.18 160.377)">
<stop offset="0.239583" stop-color="#FBBEAB"/>
<stop offset="0.90625" stop-color="#D79D95"/>
</radialGradient>
<linearGradient id="paint47_linear_7159_2159" x1="221.376" y1="158.274" x2="199.445" y2="172.873" gradientUnits="userSpaceOnUse">
<stop offset="0.259327" stop-color="#DC90CC"/>
<stop offset="1" stop-color="#DC90CC" stop-opacity="0"/>
</linearGradient>
<linearGradient id="paint48_linear_7159_2159" x1="222.014" y1="161.593" x2="209.843" y2="162.554" gradientUnits="userSpaceOnUse">
<stop stop-color="#AA6C64"/>
<stop offset="1" stop-color="#D79D95" stop-opacity="0"/>
</linearGradient>
<radialGradient id="paint49_radial_7159_2159" cx="0" cy="0" r="1" gradientUnits="userSpaceOnUse" gradientTransform="translate(201.064 172.95) rotate(93.4516) scale(16.5063 8.49629)">
<stop stop-color="#FFD5C9" stop-opacity="0.71"/>
<stop offset="0.392144" stop-color="#FFD5C9" stop-opacity="0.453685"/>
<stop offset="0.635669" stop-color="#FFD5C9" stop-opacity="0.204075"/>
<stop offset="1" stop-color="#FFD5C9" stop-opacity="0"/>
</radialGradient>
<radialGradient id="paint50_radial_7159_2159" cx="0" cy="0" r="1" gradientUnits="userSpaceOnUse" gradientTransform="translate(202.261 180.107) rotate(-94.5104) scale(7.25627 7.18781)">
<stop stop-color="#FFD5C9" stop-opacity="0.34"/>
<stop offset="0.320987" stop-color="#FFD5C9" stop-opacity="0.32"/>
<stop offset="0.516925" stop-color="#FFD5C9" stop-opacity="0.204075"/>
<stop offset="1" stop-color="#FFD5C9" stop-opacity="0"/>
</radialGradient>
<radialGradient id="paint51_radial_7159_2159" cx="0" cy="0" r="1" gradientTransform="matrix(-27.4416 -0.896213 -0.0926602 -13.6716 210.75 158.56)" gradientUnits="userSpaceOnUse">
<stop stop-color="#B16962"/>
<stop offset="0.667102" stop-color="#B16962" stop-opacity="0.239583"/>
<stop offset="0.777481" stop-color="#B16962" stop-opacity="0.121418"/>
<stop offset="0.965366" stop-color="#B16962" stop-opacity="0"/>
</radialGradient>
<linearGradient id="paint52_linear_7159_2159" x1="181.504" y1="221.566" x2="197.966" y2="225.707" gradientUnits="userSpaceOnUse">
<stop stop-color="#FFC5B7"/>
<stop offset="0.75552" stop-color="#FFBBA3"/>
</linearGradient>
<radialGradient id="paint53_radial_7159_2159" cx="0" cy="0" r="1" gradientUnits="userSpaceOnUse" gradientTransform="translate(185.425 226.354) rotate(-90.4029) scale(7.51471 7.14375)">
<stop stop-color="#FFD5C9"/>
<stop offset="0.46976" stop-color="#FFD5C9" stop-opacity="0.709648"/>
<stop offset="1" stop-color="#FFD5C9" stop-opacity="0"/>
</radialGradient>
<radialGradient id="paint54_radial_7159_2159" cx="0" cy="0" r="1" gradientUnits="userSpaceOnUse" gradientTransform="translate(176.299 185.151) rotate(73.4879) scale(33.8906 128.859)">
<stop stop-color="#F9B4A9"/>
<stop offset="1" stop-color="#D79D95"/>
</radialGradient>
<linearGradient id="paint55_linear_7159_2159" x1="217.717" y1="168.027" x2="156.933" y2="197.881" gradientUnits="userSpaceOnUse">
<stop offset="0.386002" stop-color="#CF6ABA"/>
<stop offset="1" stop-color="#DC90CC" stop-opacity="0"/>
</linearGradient>
<linearGradient id="paint56_linear_7159_2159" x1="195.863" y1="188.284" x2="173.267" y2="189.031" gradientUnits="userSpaceOnUse">
<stop stop-color="#AA6C64"/>
<stop offset="1" stop-color="#D79D95" stop-opacity="0"/>
</linearGradient>
<linearGradient id="paint57_linear_7159_2159" x1="167.7" y1="187.378" x2="176.107" y2="188.394" gradientUnits="userSpaceOnUse">
<stop stop-color="#AA6C64"/>
<stop offset="1" stop-color="#D79D95" stop-opacity="0"/>
</linearGradient>
<radialGradient id="paint58_radial_7159_2159" cx="0" cy="0" r="1" gradientUnits="userSpaceOnUse" gradientTransform="translate(174.893 187.335) rotate(90.107) scale(30.559 3.85839)">
<stop stop-color="#FFD5C9" stop-opacity="0.37"/>
<stop offset="0.279508" stop-color="#FFD5C9" stop-opacity="0.31"/>
<stop offset="0.479374" stop-color="#FFD5C9" stop-opacity="0.21"/>
<stop offset="1" stop-color="#FFD5C9" stop-opacity="0"/>
</radialGradient>
<radialGradient id="paint59_radial_7159_2159" cx="0" cy="0" r="1" gradientTransform="matrix(-20.3101 16.1551 -8.43685 -9.78857 176.611 173.486)" gradientUnits="userSpaceOnUse">
<stop stop-color="#B16962"/>
<stop offset="0.767383" stop-color="#B16962" stop-opacity="0.239583"/>
<stop offset="1" stop-color="#B16962" stop-opacity="0"/>
</radialGradient>
<radialGradient id="paint60_radial_7159_2159" cx="0" cy="0" r="1" gradientTransform="matrix(3.9697 50.8492 -183.879 15.8701 188.01 169.976)" gradientUnits="userSpaceOnUse">
<stop stop-color="#F9B4A9"/>
<stop offset="1" stop-color="#D79D95"/>
</radialGradient>
<linearGradient id="paint61_linear_7159_2159" x1="240.901" y1="161.079" x2="181.363" y2="167.273" gradientUnits="userSpaceOnUse">
<stop offset="0.259327" stop-color="#DC90CC"/>
<stop offset="1" stop-color="#DC90CC" stop-opacity="0"/>
</linearGradient>
<radialGradient id="paint62_radial_7159_2159" cx="0" cy="0" r="1" gradientUnits="userSpaceOnUse" gradientTransform="translate(186.2 180.253) rotate(90.7568) scale(15.1973 5.99604)">
<stop stop-color="#FFD5C9" stop-opacity="0.33"/>
<stop offset="0.443042" stop-color="#FFD5C9" stop-opacity="0.22"/>
<stop offset="1" stop-color="#FFD5C9" stop-opacity="0"/>
</radialGradient>
<radialGradient id="paint63_radial_7159_2159" cx="0" cy="0" r="1" gradientUnits="userSpaceOnUse" gradientTransform="translate(186.538 190.086) rotate(90.8074) scale(10.3835 5.83686)">
<stop stop-color="#FFD5C9" stop-opacity="0.28"/>
<stop offset="0.420953" stop-color="#FFD5C9" stop-opacity="0.24"/>
<stop offset="1" stop-color="#FFD5C9" stop-opacity="0"/>
</radialGradient>
<radialGradient id="paint64_radial_7159_2159" cx="0" cy="0" r="1" gradientUnits="userSpaceOnUse" gradientTransform="translate(190.757 163.895) rotate(154.095) scale(24.1993 12.4295)">
<stop stop-color="#B16962"/>
<stop offset="0.68962" stop-color="#B16962" stop-opacity="0.239583"/>
<stop offset="0.824824" stop-color="#B16962" stop-opacity="0.129909"/>
<stop offset="1" stop-color="#B16962" stop-opacity="0"/>
</radialGradient>
<linearGradient id="paint65_linear_7159_2159" x1="223.577" y1="156.568" x2="188.756" y2="184.358" gradientUnits="userSpaceOnUse">
<stop stop-color="#A06857"/>
<stop offset="1" stop-color="#6B423E"/>
</linearGradient>
<linearGradient id="paint66_linear_7159_2159" x1="132.577" y1="214.568" x2="210.577" y2="162.068" gradientUnits="userSpaceOnUse">
<stop offset="0.114152" stop-color="#923A7F"/>
<stop offset="1" stop-color="#682B5B" stop-opacity="0"/>
</linearGradient>
<radialGradient id="paint67_radial_7159_2159" cx="0" cy="0" r="1" gradientUnits="userSpaceOnUse" gradientTransform="translate(204.577 248.429) rotate(-96.3641) scale(81.1929 76.2702)">
<stop offset="0.114152" stop-color="#7A326B"/>
<stop offset="1" stop-color="#682B5B" stop-opacity="0"/>
</radialGradient>
<radialGradient id="paint68_radial_7159_2159" cx="0" cy="0" r="1" gradientUnits="userSpaceOnUse" gradientTransform="translate(221.827 149.318) rotate(145.486) scale(27.7967 222.654)">
<stop stop-color="#AC928F"/>
<stop offset="0.437083" stop-color="#705C5A" stop-opacity="0"/>
</radialGradient>
<radialGradient id="paint69_radial_7159_2159" cx="0" cy="0" r="1" gradientUnits="userSpaceOnUse" gradientTransform="translate(155.577 194.068) rotate(-40.7262) scale(45.9809 342.207)">
<stop stop-color="#915D88"/>
<stop offset="0.34375" stop-color="#7F5575" stop-opacity="0"/>
</radialGradient>
<linearGradient id="paint70_linear_7159_2159" x1="211.768" y1="143.303" x2="158.552" y2="185.194" gradientUnits="userSpaceOnUse">
<stop stop-color="#BC938F" stop-opacity="0"/>
<stop offset="0.15828" stop-color="#BC938F" stop-opacity="0.427393"/>
<stop offset="0.258775" stop-color="#BC938F" stop-opacity="0.57"/>
<stop offset="0.334989" stop-color="#BC938F" stop-opacity="0.53"/>
<stop offset="0.395612" stop-color="#BC938F" stop-opacity="0.46"/>
<stop offset="0.579372" stop-color="#BC938F" stop-opacity="0.15"/>
<stop offset="0.732552" stop-color="#BC938F" stop-opacity="0"/>
<stop offset="1" stop-color="#BC938F" stop-opacity="0"/>
</linearGradient>
<radialGradient id="paint71_radial_7159_2159" cx="0" cy="0" r="1" gradientTransform="matrix(-36.0714 -11.1411 -4.87361 69.4505 258.35 219.124)" gradientUnits="userSpaceOnUse">
<stop stop-color="#6B423E"/>
<stop offset="0.714452" stop-color="#6B423E" stop-opacity="0.212034"/>
<stop offset="1" stop-color="#6B423E" stop-opacity="0"/>
</radialGradient>
<radialGradient id="paint72_radial_7159_2159" cx="0" cy="0" r="1" gradientTransform="matrix(-24.2223 -19.9835 -42.21 66.104 241.811 232.025)" gradientUnits="userSpaceOnUse">
<stop stop-color="#6B423E"/>
<stop offset="0.651869" stop-color="#6B423E" stop-opacity="0.253173"/>
<stop offset="1" stop-color="#6B423E" stop-opacity="0"/>
</radialGradient>
<radialGradient id="paint73_radial_7159_2159" cx="0" cy="0" r="1" gradientTransform="matrix(-24.1995 -30.4869 -50.7609 40.673 234.24 244.503)" gradientUnits="userSpaceOnUse">
<stop offset="0.114152" stop-color="#7A326B"/>
<stop offset="0.665658" stop-color="#6C2D5F" stop-opacity="0.230925"/>
<stop offset="1" stop-color="#682B5B" stop-opacity="0"/>
</radialGradient>
<linearGradient id="paint74_linear_7159_2159" x1="152.577" y1="95.8181" x2="162.577" y2="105.318" gradientUnits="userSpaceOnUse">
<stop stop-color="#5A3129"/>
<stop offset="1" stop-color="#5A3129" stop-opacity="0"/>
</linearGradient>
<clipPath id="clip0_7159_2159">
<rect width="256" height="256" fill="white"/>
</clipPath>
</defs>
</svg>
