<svg width="256" height="256" viewBox="0 0 256 256" fill="none" xmlns="http://www.w3.org/2000/svg">
<path d="M186.433 45.5675L164 68V96H184L210.433 69.5675C213.274 71.1185 216.534 72 220 72C231.046 72 240 63.0457 240 52C240 42.2061 232.96 34.0565 223.665 32.335C221.943 23.0397 213.794 16 204 16C192.954 16 184 24.9543 184 36C184 39.4657 184.882 42.7255 186.433 45.5675Z" fill="url(#paint0_radial_7159_2153)"/>
<path d="M186.433 45.5675L164 68V96H184L210.433 69.5675C213.274 71.1185 216.534 72 220 72C231.046 72 240 63.0457 240 52C240 42.2061 232.96 34.0565 223.665 32.335C221.943 23.0397 213.794 16 204 16C192.954 16 184 24.9543 184 36C184 39.4657 184.882 42.7255 186.433 45.5675Z" fill="url(#paint1_radial_7159_2153)" fill-opacity="0.86"/>
<path d="M186.433 45.5675L164 68V96H184L210.433 69.5675C213.274 71.1185 216.534 72 220 72C231.046 72 240 63.0457 240 52C240 42.2061 232.96 34.0565 223.665 32.335C221.943 23.0397 213.794 16 204 16C192.954 16 184 24.9543 184 36C184 39.4657 184.882 42.7255 186.433 45.5675Z" fill="url(#paint2_radial_7159_2153)" fill-opacity="0.9"/>
<path d="M186.433 45.5675L164 68V96H184L210.433 69.5675C213.274 71.1185 216.534 72 220 72C231.046 72 240 63.0457 240 52C240 42.2061 232.96 34.0565 223.665 32.335C221.943 23.0397 213.794 16 204 16C192.954 16 184 24.9543 184 36C184 39.4657 184.882 42.7255 186.433 45.5675Z" fill="url(#paint3_linear_7159_2153)"/>
<path d="M186.433 45.5675L164 68V96H184L210.433 69.5675C213.274 71.1185 216.534 72 220 72C231.046 72 240 63.0457 240 52C240 42.2061 232.96 34.0565 223.665 32.335C221.943 23.0397 213.794 16 204 16C192.954 16 184 24.9543 184 36C184 39.4657 184.882 42.7255 186.433 45.5675Z" fill="url(#paint4_radial_7159_2153)"/>
<path d="M186.433 45.5675L164 68V96H184L210.433 69.5675C213.274 71.1185 216.534 72 220 72C231.046 72 240 63.0457 240 52C240 42.2061 232.96 34.0565 223.665 32.335C221.943 23.0397 213.794 16 204 16C192.954 16 184 24.9543 184 36C184 39.4657 184.882 42.7255 186.433 45.5675Z" fill="url(#paint5_radial_7159_2153)"/>
<path d="M186.433 45.5675L164 68V96H184L210.433 69.5675C213.274 71.1185 216.534 72 220 72C231.046 72 240 63.0457 240 52C240 42.2061 232.96 34.0565 223.665 32.335C221.943 23.0397 213.794 16 204 16C192.954 16 184 24.9543 184 36C184 39.4657 184.882 42.7255 186.433 45.5675Z" fill="url(#paint6_radial_7159_2153)" fill-opacity="0.7"/>
<path d="M186.433 45.5675L164 68V96H184L210.433 69.5675C213.274 71.1185 216.534 72 220 72C231.046 72 240 63.0457 240 52C240 42.2061 232.96 34.0565 223.665 32.335C221.943 23.0397 213.794 16 204 16C192.954 16 184 24.9543 184 36C184 39.4657 184.882 42.7255 186.433 45.5675Z" fill="url(#paint7_radial_7159_2153)"/>
<path d="M186.433 45.5675L164 68V96H184L210.433 69.5675C213.274 71.1185 216.534 72 220 72C231.046 72 240 63.0457 240 52C240 42.2061 232.96 34.0565 223.665 32.335C221.943 23.0397 213.794 16 204 16C192.954 16 184 24.9543 184 36C184 39.4657 184.882 42.7255 186.433 45.5675Z" fill="url(#paint8_radial_7159_2153)"/>
<path d="M186.433 45.5675L164 68V96H184L210.433 69.5675C213.274 71.1185 216.534 72 220 72C231.046 72 240 63.0457 240 52C240 42.2061 232.96 34.0565 223.665 32.335C221.943 23.0397 213.794 16 204 16C192.954 16 184 24.9543 184 36C184 39.4657 184.882 42.7255 186.433 45.5675Z" fill="url(#paint9_radial_7159_2153)"/>
<path d="M186.433 45.5675L164 68V96H184L210.433 69.5675C213.274 71.1185 216.534 72 220 72C231.046 72 240 63.0457 240 52C240 42.2061 232.96 34.0565 223.665 32.335C221.943 23.0397 213.794 16 204 16C192.954 16 184 24.9543 184 36C184 39.4657 184.882 42.7255 186.433 45.5675Z" fill="url(#paint10_radial_7159_2153)"/>
<path d="M186.433 45.5675L164 68V96H184L210.433 69.5675C213.274 71.1185 216.534 72 220 72C231.046 72 240 63.0457 240 52C240 42.2061 232.96 34.0565 223.665 32.335C221.943 23.0397 213.794 16 204 16C192.954 16 184 24.9543 184 36C184 39.4657 184.882 42.7255 186.433 45.5675Z" fill="url(#paint11_radial_7159_2153)"/>
<path d="M69.5675 45.5675L92 68V96H72L45.5675 69.5675C42.7255 71.1185 39.4657 72 36 72C24.9543 72 16 63.0457 16 52C16 42.2061 23.0397 34.0565 32.335 32.335C34.0565 23.0397 42.2061 16 52 16C63.0457 16 72 24.9543 72 36C72 39.4657 71.1185 42.7255 69.5675 45.5675Z" fill="url(#paint12_linear_7159_2153)"/>
<path d="M69.5675 45.5675L92 68V96H72L45.5675 69.5675C42.7255 71.1185 39.4657 72 36 72C24.9543 72 16 63.0457 16 52C16 42.2061 23.0397 34.0565 32.335 32.335C34.0565 23.0397 42.2061 16 52 16C63.0457 16 72 24.9543 72 36C72 39.4657 71.1185 42.7255 69.5675 45.5675Z" fill="url(#paint13_radial_7159_2153)"/>
<path d="M69.5675 45.5675L92 68V96H72L45.5675 69.5675C42.7255 71.1185 39.4657 72 36 72C24.9543 72 16 63.0457 16 52C16 42.2061 23.0397 34.0565 32.335 32.335C34.0565 23.0397 42.2061 16 52 16C63.0457 16 72 24.9543 72 36C72 39.4657 71.1185 42.7255 69.5675 45.5675Z" fill="url(#paint14_radial_7159_2153)"/>
<path d="M69.5675 45.5675L92 68V96H72L45.5675 69.5675C42.7255 71.1185 39.4657 72 36 72C24.9543 72 16 63.0457 16 52C16 42.2061 23.0397 34.0565 32.335 32.335C34.0565 23.0397 42.2061 16 52 16C63.0457 16 72 24.9543 72 36C72 39.4657 71.1185 42.7255 69.5675 45.5675Z" fill="url(#paint15_radial_7159_2153)"/>
<path d="M69.5675 45.5675L92 68V96H72L45.5675 69.5675C42.7255 71.1185 39.4657 72 36 72C24.9543 72 16 63.0457 16 52C16 42.2061 23.0397 34.0565 32.335 32.335C34.0565 23.0397 42.2061 16 52 16C63.0457 16 72 24.9543 72 36C72 39.4657 71.1185 42.7255 69.5675 45.5675Z" fill="url(#paint16_radial_7159_2153)"/>
<path d="M69.5675 45.5675L92 68V96H72L45.5675 69.5675C42.7255 71.1185 39.4657 72 36 72C24.9543 72 16 63.0457 16 52C16 42.2061 23.0397 34.0565 32.335 32.335C34.0565 23.0397 42.2061 16 52 16C63.0457 16 72 24.9543 72 36C72 39.4657 71.1185 42.7255 69.5675 45.5675Z" fill="url(#paint17_radial_7159_2153)"/>
<path d="M69.5675 45.5675L92 68V96H72L45.5675 69.5675C42.7255 71.1185 39.4657 72 36 72C24.9543 72 16 63.0457 16 52C16 42.2061 23.0397 34.0565 32.335 32.335C34.0565 23.0397 42.2061 16 52 16C63.0457 16 72 24.9543 72 36C72 39.4657 71.1185 42.7255 69.5675 45.5675Z" fill="url(#paint18_radial_7159_2153)"/>
<path d="M69.5675 45.5675L92 68V96H72L45.5675 69.5675C42.7255 71.1185 39.4657 72 36 72C24.9543 72 16 63.0457 16 52C16 42.2061 23.0397 34.0565 32.335 32.335C34.0565 23.0397 42.2061 16 52 16C63.0457 16 72 24.9543 72 36C72 39.4657 71.1185 42.7255 69.5675 45.5675Z" fill="url(#paint19_radial_7159_2153)"/>
<path d="M69.5675 45.5675L92 68V96H72L45.5675 69.5675C42.7255 71.1185 39.4657 72 36 72C24.9543 72 16 63.0457 16 52C16 42.2061 23.0397 34.0565 32.335 32.335C34.0565 23.0397 42.2061 16 52 16C63.0457 16 72 24.9543 72 36C72 39.4657 71.1185 42.7255 69.5675 45.5675Z" fill="url(#paint20_radial_7159_2153)"/>
<path d="M48 52C52 48.0008 69.6514 45.5176 69.6514 45.5176L92 68L104 108C104 108 57.6516 63.1096 48 52Z" fill="url(#paint21_linear_7159_2153)"/>
<circle cx="52" cy="36" r="20" fill="url(#paint22_radial_7159_2153)"/>
<path d="M69.5675 45.5675L92 68V96H72L45.5675 69.5675C42.7255 71.1185 39.4657 72 36 72C24.9543 72 16 63.0457 16 52C16 42.2061 23.0397 34.0565 32.335 32.335C34.0565 23.0397 42.2061 16 52 16C63.0457 16 72 24.9543 72 36C72 39.4657 71.1185 42.7255 69.5675 45.5675Z" fill="url(#paint23_linear_7159_2153)"/>
<path d="M210.433 186.433L188 164H160V184L186.433 210.433C184.882 213.274 184 216.534 184 220C184 231.046 192.954 240 204 240C213.794 240 221.943 232.96 223.665 223.665C232.96 221.943 240 213.794 240 204C240 192.954 231.046 184 220 184C216.534 184 213.274 184.882 210.433 186.433Z" fill="url(#paint24_linear_7159_2153)"/>
<path d="M210.433 186.433L188 164H160V184L186.433 210.433C184.882 213.274 184 216.534 184 220C184 231.046 192.954 240 204 240C213.794 240 221.943 232.96 223.665 223.665C232.96 221.943 240 213.794 240 204C240 192.954 231.046 184 220 184C216.534 184 213.274 184.882 210.433 186.433Z" fill="url(#paint25_radial_7159_2153)"/>
<path d="M210.433 186.433L188 164H160V184L186.433 210.433C184.882 213.274 184 216.534 184 220C184 231.046 192.954 240 204 240C213.794 240 221.943 232.96 223.665 223.665C232.96 221.943 240 213.794 240 204C240 192.954 231.046 184 220 184C216.534 184 213.274 184.882 210.433 186.433Z" fill="url(#paint26_radial_7159_2153)"/>
<path d="M210.433 186.433L188 164H160V184L186.433 210.433C184.882 213.274 184 216.534 184 220C184 231.046 192.954 240 204 240C213.794 240 221.943 232.96 223.665 223.665C232.96 221.943 240 213.794 240 204C240 192.954 231.046 184 220 184C216.534 184 213.274 184.882 210.433 186.433Z" fill="url(#paint27_radial_7159_2153)"/>
<path d="M210.433 186.433L188 164H160V184L186.433 210.433C184.882 213.274 184 216.534 184 220C184 231.046 192.954 240 204 240C213.794 240 221.943 232.96 223.665 223.665C232.96 221.943 240 213.794 240 204C240 192.954 231.046 184 220 184C216.534 184 213.274 184.882 210.433 186.433Z" fill="url(#paint28_radial_7159_2153)"/>
<path d="M210.433 186.433L188 164H160V184L186.433 210.433C184.882 213.274 184 216.534 184 220C184 231.046 192.954 240 204 240C213.794 240 221.943 232.96 223.665 223.665C232.96 221.943 240 213.794 240 204C240 192.954 231.046 184 220 184C216.534 184 213.274 184.882 210.433 186.433Z" fill="url(#paint29_radial_7159_2153)"/>
<path d="M210.433 186.433L188 164H160V184L186.433 210.433C184.882 213.274 184 216.534 184 220C184 231.046 192.954 240 204 240C213.794 240 221.943 232.96 223.665 223.665C232.96 221.943 240 213.794 240 204C240 192.954 231.046 184 220 184C216.534 184 213.274 184.882 210.433 186.433Z" fill="url(#paint30_radial_7159_2153)"/>
<path d="M204 208C207.999 204 210.482 186.349 210.482 186.349L188 164L148 152C148 152 192.89 198.348 204 208Z" fill="url(#paint31_linear_7159_2153)"/>
<circle cx="20" cy="20" r="20" transform="matrix(0 -1 -1 0 240 224)" fill="url(#paint32_radial_7159_2153)"/>
<circle cx="20" cy="20" r="20" transform="matrix(0 -1 -1 0 240 224)" fill="url(#paint33_radial_7159_2153)"/>
<path d="M34.8513 221.343C24.4506 221.343 16 213.096 16 202.846C16 192.597 24.4506 184.269 34.8513 184.269C38.8329 184.269 42.4894 185.47 45.5771 187.552L81.0046 152L104 174.661L68.5725 210.213C71.0102 213.336 72.4728 217.179 72.4728 221.423C72.4728 231.672 64.0222 240 53.6214 240C43.2207 240 34.8513 231.592 34.8513 221.343Z" fill="url(#paint34_radial_7159_2153)"/>
<path d="M34.8513 221.343C24.4506 221.343 16 213.096 16 202.846C16 192.597 24.4506 184.269 34.8513 184.269C38.8329 184.269 42.4894 185.47 45.5771 187.552L81.0046 152L104 174.661L68.5725 210.213C71.0102 213.336 72.4728 217.179 72.4728 221.423C72.4728 231.672 64.0222 240 53.6214 240C43.2207 240 34.8513 231.592 34.8513 221.343Z" fill="url(#paint35_radial_7159_2153)"/>
<path d="M34.8513 221.343C24.4506 221.343 16 213.096 16 202.846C16 192.597 24.4506 184.269 34.8513 184.269C38.8329 184.269 42.4894 185.47 45.5771 187.552L81.0046 152L104 174.661L68.5725 210.213C71.0102 213.336 72.4728 217.179 72.4728 221.423C72.4728 231.672 64.0222 240 53.6214 240C43.2207 240 34.8513 231.592 34.8513 221.343Z" fill="url(#paint36_radial_7159_2153)"/>
<path d="M34.8513 221.343C24.4506 221.343 16 213.096 16 202.846C16 192.597 24.4506 184.269 34.8513 184.269C38.8329 184.269 42.4894 185.47 45.5771 187.552L81.0046 152L104 174.661L68.5725 210.213C71.0102 213.336 72.4728 217.179 72.4728 221.423C72.4728 231.672 64.0222 240 53.6214 240C43.2207 240 34.8513 231.592 34.8513 221.343Z" fill="url(#paint37_radial_7159_2153)"/>
<path d="M34.8513 221.343C24.4506 221.343 16 213.096 16 202.846C16 192.597 24.4506 184.269 34.8513 184.269C38.8329 184.269 42.4894 185.47 45.5771 187.552L81.0046 152L104 174.661L68.5725 210.213C71.0102 213.336 72.4728 217.179 72.4728 221.423C72.4728 231.672 64.0222 240 53.6214 240C43.2207 240 34.8513 231.592 34.8513 221.343Z" fill="url(#paint38_radial_7159_2153)"/>
<path d="M34.8513 221.343C24.4506 221.343 16 213.096 16 202.846C16 192.597 24.4506 184.269 34.8513 184.269C38.8329 184.269 42.4894 185.47 45.5771 187.552L81.0046 152L104 174.661L68.5725 210.213C71.0102 213.336 72.4728 217.179 72.4728 221.423C72.4728 231.672 64.0222 240 53.6214 240C43.2207 240 34.8513 231.592 34.8513 221.343Z" fill="url(#paint39_radial_7159_2153)"/>
<path d="M34.8513 221.343C24.4506 221.343 16 213.096 16 202.846C16 192.597 24.4506 184.269 34.8513 184.269C38.8329 184.269 42.4894 185.47 45.5771 187.552L81.0046 152L104 174.661L68.5725 210.213C71.0102 213.336 72.4728 217.179 72.4728 221.423C72.4728 231.672 64.0222 240 53.6214 240C43.2207 240 34.8513 231.592 34.8513 221.343Z" fill="url(#paint40_radial_7159_2153)"/>
<path d="M34.8513 221.343C24.4506 221.343 16 213.096 16 202.846C16 192.597 24.4506 184.269 34.8513 184.269C38.8329 184.269 42.4894 185.47 45.5771 187.552L81.0046 152L104 174.661L68.5725 210.213C71.0102 213.336 72.4728 217.179 72.4728 221.423C72.4728 231.672 64.0222 240 53.6214 240C43.2207 240 34.8513 231.592 34.8513 221.343Z" fill="url(#paint41_linear_7159_2153)"/>
<path d="M128 48.3203C83.84 48.3203 48 84.1603 48 128.32C48 157.92 64.08 165.84 88 167.92V196C88 202.627 93.3726 208 100 208H100.48C106.842 208 112 202.842 112 196.48V188C112 185.791 113.791 184 116 184C118.209 184 120 185.791 120 188V200C120 204.418 123.582 208 128 208C132.418 208 136 204.418 136 200V188C136 185.791 137.791 184 140 184C142.209 184 144 185.791 144 188V196.48C144 202.842 149.158 208 155.52 208H156C162.627 208 168 202.627 168 196V167.92C191.92 165.92 208 157.92 208 128.32C208 84.0803 172.16 48.3203 128 48.3203Z" fill="url(#paint42_radial_7159_2153)"/>
<path d="M128 48.3203C83.84 48.3203 48 84.1603 48 128.32C48 157.92 64.08 165.84 88 167.92V196C88 202.627 93.3726 208 100 208H100.48C106.842 208 112 202.842 112 196.48V188C112 185.791 113.791 184 116 184C118.209 184 120 185.791 120 188V200C120 204.418 123.582 208 128 208C132.418 208 136 204.418 136 200V188C136 185.791 137.791 184 140 184C142.209 184 144 185.791 144 188V196.48C144 202.842 149.158 208 155.52 208H156C162.627 208 168 202.627 168 196V167.92C191.92 165.92 208 157.92 208 128.32C208 84.0803 172.16 48.3203 128 48.3203Z" fill="url(#paint43_radial_7159_2153)" fill-opacity="0.43"/>
<path d="M128 48.3203C83.84 48.3203 48 84.1603 48 128.32C48 157.92 64.08 165.84 88 167.92V196C88 202.627 93.3726 208 100 208H100.48C106.842 208 112 202.842 112 196.48V188C112 185.791 113.791 184 116 184C118.209 184 120 185.791 120 188V200C120 204.418 123.582 208 128 208C132.418 208 136 204.418 136 200V188C136 185.791 137.791 184 140 184C142.209 184 144 185.791 144 188V196.48C144 202.842 149.158 208 155.52 208H156C162.627 208 168 202.627 168 196V167.92C191.92 165.92 208 157.92 208 128.32C208 84.0803 172.16 48.3203 128 48.3203Z" fill="url(#paint44_radial_7159_2153)"/>
<path d="M128 48.3203C83.84 48.3203 48 84.1603 48 128.32C48 157.92 64.08 165.84 88 167.92V196C88 202.627 93.3726 208 100 208H100.48C106.842 208 112 202.842 112 196.48V188C112 185.791 113.791 184 116 184C118.209 184 120 185.791 120 188V200C120 204.418 123.582 208 128 208C132.418 208 136 204.418 136 200V188C136 185.791 137.791 184 140 184C142.209 184 144 185.791 144 188V196.48C144 202.842 149.158 208 155.52 208H156C162.627 208 168 202.627 168 196V167.92C191.92 165.92 208 157.92 208 128.32C208 84.0803 172.16 48.3203 128 48.3203Z" fill="url(#paint45_radial_7159_2153)"/>
<path d="M128 48.3203C83.84 48.3203 48 84.1603 48 128.32C48 157.92 64.08 165.84 88 167.92V196C88 202.627 93.3726 208 100 208H100.48C106.842 208 112 202.842 112 196.48V188C112 185.791 113.791 184 116 184C118.209 184 120 185.791 120 188V200C120 204.418 123.582 208 128 208C132.418 208 136 204.418 136 200V188C136 185.791 137.791 184 140 184C142.209 184 144 185.791 144 188V196.48C144 202.842 149.158 208 155.52 208H156C162.627 208 168 202.627 168 196V167.92C191.92 165.92 208 157.92 208 128.32C208 84.0803 172.16 48.3203 128 48.3203Z" fill="url(#paint46_radial_7159_2153)" fill-opacity="0.65"/>
<path d="M128 48.3203C83.84 48.3203 48 84.1603 48 128.32C48 157.92 64.08 165.84 88 167.92V196C88 202.627 93.3726 208 100 208H100.48C106.842 208 112 202.842 112 196.48V188C112 185.791 113.791 184 116 184C118.209 184 120 185.791 120 188V200C120 204.418 123.582 208 128 208C132.418 208 136 204.418 136 200V188C136 185.791 137.791 184 140 184C142.209 184 144 185.791 144 188V196.48C144 202.842 149.158 208 155.52 208H156C162.627 208 168 202.627 168 196V167.92C191.92 165.92 208 157.92 208 128.32C208 84.0803 172.16 48.3203 128 48.3203Z" fill="url(#paint47_radial_7159_2153)" fill-opacity="0.37"/>
<path d="M128 48.3203C83.84 48.3203 48 84.1603 48 128.32C48 157.92 64.08 165.84 88 167.92V196C88 202.627 93.3726 208 100 208H100.48C106.842 208 112 202.842 112 196.48V188C112 185.791 113.791 184 116 184C118.209 184 120 185.791 120 188V200C120 204.418 123.582 208 128 208C132.418 208 136 204.418 136 200V188C136 185.791 137.791 184 140 184C142.209 184 144 185.791 144 188V196.48C144 202.842 149.158 208 155.52 208H156C162.627 208 168 202.627 168 196V167.92C191.92 165.92 208 157.92 208 128.32C208 84.0803 172.16 48.3203 128 48.3203Z" fill="url(#paint48_radial_7159_2153)" fill-opacity="0.65"/>
<path d="M128 48.3203C83.84 48.3203 48 84.1603 48 128.32C48 157.92 64.08 165.84 88 167.92V196C88 202.627 93.3726 208 100 208H100.48C106.842 208 112 202.842 112 196.48V188C112 185.791 113.791 184 116 184C118.209 184 120 185.791 120 188V200C120 204.418 123.582 208 128 208C132.418 208 136 204.418 136 200V188C136 185.791 137.791 184 140 184C142.209 184 144 185.791 144 188V196.48C144 202.842 149.158 208 155.52 208H156C162.627 208 168 202.627 168 196V167.92C191.92 165.92 208 157.92 208 128.32C208 84.0803 172.16 48.3203 128 48.3203Z" fill="url(#paint49_radial_7159_2153)" fill-opacity="0.65"/>
<path d="M128 48.3203C83.84 48.3203 48 84.1603 48 128.32C48 157.92 64.08 165.84 88 167.92V196C88 202.627 93.3726 208 100 208H100.48C106.842 208 112 202.842 112 196.48V188C112 185.791 113.791 184 116 184C118.209 184 120 185.791 120 188V200C120 204.418 123.582 208 128 208C132.418 208 136 204.418 136 200V188C136 185.791 137.791 184 140 184C142.209 184 144 185.791 144 188V196.48C144 202.842 149.158 208 155.52 208H156C162.627 208 168 202.627 168 196V167.92C191.92 165.92 208 157.92 208 128.32C208 84.0803 172.16 48.3203 128 48.3203Z" fill="url(#paint50_radial_7159_2153)" fill-opacity="0.47"/>
<path d="M128 48.3203C83.84 48.3203 48 84.1603 48 128.32C48 157.92 64.08 165.84 88 167.92V196C88 202.627 93.3726 208 100 208H100.48C106.842 208 112 202.842 112 196.48V188C112 185.791 113.791 184 116 184C118.209 184 120 185.791 120 188V200C120 204.418 123.582 208 128 208C132.418 208 136 204.418 136 200V188C136 185.791 137.791 184 140 184C142.209 184 144 185.791 144 188V196.48C144 202.842 149.158 208 155.52 208H156C162.627 208 168 202.627 168 196V167.92C191.92 165.92 208 157.92 208 128.32C208 84.0803 172.16 48.3203 128 48.3203Z" fill="url(#paint51_radial_7159_2153)" fill-opacity="0.65"/>
<path d="M128 48.3203C83.84 48.3203 48 84.1603 48 128.32C48 157.92 64.08 165.84 88 167.92V196C88 202.627 93.3726 208 100 208H100.48C106.842 208 112 202.842 112 196.48V188C112 185.791 113.791 184 116 184C118.209 184 120 185.791 120 188V200C120 204.418 123.582 208 128 208C132.418 208 136 204.418 136 200V188C136 185.791 137.791 184 140 184C142.209 184 144 185.791 144 188V196.48C144 202.842 149.158 208 155.52 208H156C162.627 208 168 202.627 168 196V167.92C191.92 165.92 208 157.92 208 128.32C208 84.0803 172.16 48.3203 128 48.3203Z" fill="url(#paint52_radial_7159_2153)" fill-opacity="0.65"/>
<path d="M128 48.3203C83.84 48.3203 48 84.1603 48 128.32C48 157.92 64.08 165.84 88 167.92V196C88 202.627 93.3726 208 100 208H100.48C106.842 208 112 202.842 112 196.48V188C112 185.791 113.791 184 116 184C118.209 184 120 185.791 120 188V200C120 204.418 123.582 208 128 208C132.418 208 136 204.418 136 200V188C136 185.791 137.791 184 140 184C142.209 184 144 185.791 144 188V196.48C144 202.842 149.158 208 155.52 208H156C162.627 208 168 202.627 168 196V167.92C191.92 165.92 208 157.92 208 128.32C208 84.0803 172.16 48.3203 128 48.3203Z" fill="url(#paint53_radial_7159_2153)" fill-opacity="0.65"/>
<path d="M128 48.3203C83.84 48.3203 48 84.1603 48 128.32C48 157.92 64.08 165.84 88 167.92V196C88 202.627 93.3726 208 100 208H100.48C106.842 208 112 202.842 112 196.48V188C112 185.791 113.791 184 116 184C118.209 184 120 185.791 120 188V200C120 204.418 123.582 208 128 208C132.418 208 136 204.418 136 200V188C136 185.791 137.791 184 140 184C142.209 184 144 185.791 144 188V196.48C144 202.842 149.158 208 155.52 208H156C162.627 208 168 202.627 168 196V167.92C191.92 165.92 208 157.92 208 128.32C208 84.0803 172.16 48.3203 128 48.3203Z" fill="url(#paint54_radial_7159_2153)" fill-opacity="0.47"/>
<path d="M128 48.3203C83.84 48.3203 48 84.1603 48 128.32C48 157.92 64.08 165.84 88 167.92V196C88 202.627 93.3726 208 100 208H100.48C106.842 208 112 202.842 112 196.48V188C112 185.791 113.791 184 116 184C118.209 184 120 185.791 120 188V200C120 204.418 123.582 208 128 208C132.418 208 136 204.418 136 200V188C136 185.791 137.791 184 140 184C142.209 184 144 185.791 144 188V196.48C144 202.842 149.158 208 155.52 208H156C162.627 208 168 202.627 168 196V167.92C191.92 165.92 208 157.92 208 128.32C208 84.0803 172.16 48.3203 128 48.3203Z" fill="url(#paint55_radial_7159_2153)" fill-opacity="0.45"/>
<path d="M128 48.3203C83.84 48.3203 48 84.1603 48 128.32C48 157.92 64.08 165.84 88 167.92V196C88 202.627 93.3726 208 100 208H100.48C106.842 208 112 202.842 112 196.48V188C112 185.791 113.791 184 116 184C118.209 184 120 185.791 120 188V200C120 204.418 123.582 208 128 208C132.418 208 136 204.418 136 200V188C136 185.791 137.791 184 140 184C142.209 184 144 185.791 144 188V196.48C144 202.842 149.158 208 155.52 208H156C162.627 208 168 202.627 168 196V167.92C191.92 165.92 208 157.92 208 128.32C208 84.0803 172.16 48.3203 128 48.3203Z" fill="url(#paint56_radial_7159_2153)" fill-opacity="0.45"/>
<path d="M128 48.3203C83.84 48.3203 48 84.1603 48 128.32C48 157.92 64.08 165.84 88 167.92V196C88 202.627 93.3726 208 100 208H100.48C106.842 208 112 202.842 112 196.48V188C112 185.791 113.791 184 116 184C118.209 184 120 185.791 120 188V200C120 204.418 123.582 208 128 208C132.418 208 136 204.418 136 200V188C136 185.791 137.791 184 140 184C142.209 184 144 185.791 144 188V196.48C144 202.842 149.158 208 155.52 208H156C162.627 208 168 202.627 168 196V167.92C191.92 165.92 208 157.92 208 128.32C208 84.0803 172.16 48.3203 128 48.3203Z" fill="url(#paint57_radial_7159_2153)" fill-opacity="0.26"/>
<path d="M128 48.3203C83.84 48.3203 48 84.1603 48 128.32C48 157.92 64.08 165.84 88 167.92V196C88 202.627 93.3726 208 100 208H100.48C106.842 208 112 202.842 112 196.48V188C112 185.791 113.791 184 116 184C118.209 184 120 185.791 120 188V200C120 204.418 123.582 208 128 208C132.418 208 136 204.418 136 200V188C136 185.791 137.791 184 140 184C142.209 184 144 185.791 144 188V196.48C144 202.842 149.158 208 155.52 208H156C162.627 208 168 202.627 168 196V167.92C191.92 165.92 208 157.92 208 128.32C208 84.0803 172.16 48.3203 128 48.3203Z" fill="url(#paint58_linear_7159_2153)"/>
<path d="M116 168C122.627 168 128 178.745 128 192C128 197.9 126.934 203.303 125.168 207.482C122.148 206.339 120 203.421 120 200V188C120 185.791 118.209 184 116 184C113.791 184 112 185.791 112 188V196.48C112 200.683 109.749 204.357 106.388 206.369C104.888 202.363 104 197.389 104 192C104 178.745 109.373 168 116 168Z" fill="url(#paint59_radial_7159_2153)"/>
<path d="M140 168C146.627 168 152 178.745 152 192C152 197.389 151.111 202.363 149.611 206.369C146.251 204.357 144 200.682 144 196.48V188C144 185.791 142.209 184 140 184C137.791 184 136 185.791 136 188V200C136 203.421 133.852 206.339 130.831 207.482C129.065 203.303 128 197.9 128 192C128 178.745 133.373 168 140 168Z" fill="url(#paint60_radial_7159_2153)"/>
<path d="M112 134.22C112 148.641 100.363 152 86.0407 152C71.7183 152 60 148.641 60 134.22C60 119.799 71.6369 108 86.0407 108C100.444 108 112 119.717 112 134.22Z" fill="url(#paint61_radial_7159_2153)"/>
<path d="M195.04 134.187C195.04 148.634 183.6 152 169.52 152C155.44 152 144 148.634 144 134.187C144 119.739 155.44 108 169.52 108C183.6 107.918 195.04 119.657 195.04 134.187Z" fill="url(#paint62_radial_7159_2153)"/>
<path d="M132.602 160H123.394C121.108 160 119.41 157.358 120.194 154.868L121.892 149.057C122.741 146.038 125.222 144 127.965 144C130.708 144 133.124 146.038 134.038 148.981L135.801 154.792C136.585 157.283 134.952 160 132.602 160Z" fill="url(#paint63_radial_7159_2153)"/>
<defs>
<radialGradient id="paint0_radial_7159_2153" cx="0" cy="0" r="1" gradientUnits="userSpaceOnUse" gradientTransform="translate(218.6 38.223) scale(56.1706 59.5451)">
<stop stop-color="#EAE6EC"/>
<stop offset="0.6397" stop-color="#E2DCE3"/>
<stop offset="0.9888" stop-color="#DAD1D1"/>
</radialGradient>
<radialGradient id="paint1_radial_7159_2153" cx="0" cy="0" r="1" gradientUnits="userSpaceOnUse" gradientTransform="translate(240.215 62.3736) rotate(-142.849) scale(68.7835 36.5252)">
<stop stop-color="#BFADCF" stop-opacity="0"/>
<stop offset="0.670784" stop-color="#BFADCF" stop-opacity="0.0256148"/>
<stop offset="0.759162" stop-color="#BFADCF" stop-opacity="0.133606"/>
<stop offset="0.86337" stop-color="#BFADCF" stop-opacity="0.196019"/>
<stop offset="0.984536" stop-color="#BFADCF"/>
</radialGradient>
<radialGradient id="paint2_radial_7159_2153" cx="0" cy="0" r="1" gradientUnits="userSpaceOnUse" gradientTransform="translate(202.106 19.5342) rotate(60.5875) scale(57.6023 33.1878)">
<stop stop-color="#BFADCF" stop-opacity="0"/>
<stop offset="0.731664" stop-color="#BFADCF" stop-opacity="0.0256148"/>
<stop offset="0.848925" stop-color="#BFADCF" stop-opacity="0.196019"/>
<stop offset="0.946526" stop-color="#BFADCF" stop-opacity="0.526433"/>
<stop offset="1" stop-color="#BFADCF"/>
</radialGradient>
<linearGradient id="paint3_linear_7159_2153" x1="176.589" y1="54.8129" x2="202.756" y2="79.1843" gradientUnits="userSpaceOnUse">
<stop stop-color="#EAE6EC" stop-opacity="0.22"/>
<stop offset="0.133497" stop-color="#EAE6EC" stop-opacity="0.6"/>
<stop offset="0.311357" stop-color="#EAE6EC" stop-opacity="0.81"/>
<stop offset="0.450327" stop-color="#EAE6EC" stop-opacity="0.88"/>
<stop offset="0.718316" stop-color="#EAE6EC" stop-opacity="0.82"/>
<stop offset="0.832453" stop-color="#EAE6EC" stop-opacity="0.729253"/>
<stop offset="1" stop-color="#EAE6EC" stop-opacity="0.04"/>
</linearGradient>
<radialGradient id="paint4_radial_7159_2153" cx="0" cy="0" r="1" gradientUnits="userSpaceOnUse" gradientTransform="translate(222.257 51.9953) rotate(104.685) scale(18.6841 18.3991)">
<stop offset="0.0327119" stop-color="#EAE6EC"/>
<stop offset="0.741377" stop-color="#EAE6EC" stop-opacity="0.738095"/>
<stop offset="1" stop-color="#EAE6EC" stop-opacity="0"/>
</radialGradient>
<radialGradient id="paint5_radial_7159_2153" cx="0" cy="0" r="1" gradientUnits="userSpaceOnUse" gradientTransform="translate(204.397 32.3363) rotate(93.8048) scale(18.7182 18.4326)">
<stop stop-color="#EAE6EC"/>
<stop offset="0.714182" stop-color="#EAE6EC" stop-opacity="0.738095"/>
<stop offset="1" stop-color="#EAE6EC" stop-opacity="0"/>
</radialGradient>
<radialGradient id="paint6_radial_7159_2153" cx="0" cy="0" r="1" gradientUnits="userSpaceOnUse" gradientTransform="translate(184.08 73.5641) rotate(-45.8515) scale(67.1766 110.359)">
<stop stop-color="#BFADCF" stop-opacity="0"/>
<stop offset="0.670784" stop-color="#BFADCF" stop-opacity="0.0256148"/>
<stop offset="0.830043" stop-color="#BFADCF" stop-opacity="0.133606"/>
<stop offset="0.875422" stop-color="#BFADCF" stop-opacity="0.196019"/>
<stop offset="1" stop-color="#BFADCF"/>
</radialGradient>
<radialGradient id="paint7_radial_7159_2153" cx="0" cy="0" r="1" gradientUnits="userSpaceOnUse" gradientTransform="translate(206.594 32.8654) rotate(85.2364) scale(16.5076 16.5101)">
<stop stop-color="#F7F5F8"/>
<stop offset="0.411458" stop-color="#F7F5F8" stop-opacity="0.677076"/>
<stop offset="0.771647" stop-color="#F7F5F8" stop-opacity="0.181493"/>
<stop offset="0.890625" stop-color="#F7F5F8" stop-opacity="0"/>
</radialGradient>
<radialGradient id="paint8_radial_7159_2153" cx="0" cy="0" r="1" gradientUnits="userSpaceOnUse" gradientTransform="translate(205.398 42.0752) rotate(-25.0836) scale(7.5938 8.69918)">
<stop stop-color="#F7F5F8" stop-opacity="0.83"/>
<stop offset="0.249215" stop-color="#F7F5F8" stop-opacity="0.57"/>
<stop offset="0.713041" stop-color="#F7F5F8" stop-opacity="0.181493"/>
<stop offset="0.890625" stop-color="#F7F5F8" stop-opacity="0"/>
</radialGradient>
<radialGradient id="paint9_radial_7159_2153" cx="0" cy="0" r="1" gradientUnits="userSpaceOnUse" gradientTransform="translate(226.698 45.7919) rotate(90) scale(11.9835 11.6369)">
<stop stop-color="#F6F4F7"/>
<stop offset="0.351973" stop-color="#F6F4F7" stop-opacity="0.86"/>
<stop offset="0.7449" stop-color="#F6F4F7" stop-opacity="0.302085"/>
<stop offset="1" stop-color="#F6F4F7" stop-opacity="0"/>
</radialGradient>
<radialGradient id="paint10_radial_7159_2153" cx="0" cy="0" r="1" gradientUnits="userSpaceOnUse" gradientTransform="translate(196.023 62.9938) rotate(45.2744) scale(7.59496 23.2861)">
<stop stop-color="#F1ECF2"/>
<stop offset="0.312843" stop-color="#F1ECF2" stop-opacity="0.76029"/>
<stop offset="0.738004" stop-color="#F1ECF2" stop-opacity="0.235516"/>
<stop offset="1" stop-color="#F1ECF2" stop-opacity="0"/>
</radialGradient>
<radialGradient id="paint11_radial_7159_2153" cx="0" cy="0" r="1" gradientUnits="userSpaceOnUse" gradientTransform="translate(187.221 71.6358) rotate(47.4196) scale(7.07676 25.3503)">
<stop stop-color="#F1ECF2"/>
<stop offset="0.333632" stop-color="#F1ECF2" stop-opacity="0.58"/>
<stop offset="0.943692" stop-color="#F1ECF2" stop-opacity="0"/>
</radialGradient>
<linearGradient id="paint12_linear_7159_2153" x1="72" y1="16" x2="28" y2="80" gradientUnits="userSpaceOnUse">
<stop stop-color="#ECE5E6"/>
<stop offset="0.565806" stop-color="#E4D8E0"/>
<stop offset="0.988281" stop-color="#CFB4CD"/>
</linearGradient>
<radialGradient id="paint13_radial_7159_2153" cx="0" cy="0" r="1" gradientUnits="userSpaceOnUse" gradientTransform="translate(57.5928 81.7287) rotate(-45.674) scale(6.64305 22.1116)">
<stop stop-color="#C7B3C5"/>
<stop offset="0.470351" stop-color="#C7B3C5" stop-opacity="0.514531"/>
<stop offset="0.891869" stop-color="#C7B3C5" stop-opacity="0"/>
</radialGradient>
<radialGradient id="paint14_radial_7159_2153" cx="0" cy="0" r="1" gradientUnits="userSpaceOnUse" gradientTransform="translate(28.0111 69.782) rotate(-67.0527) scale(9.0698 33.2614)">
<stop stop-color="#C7B3C5"/>
<stop offset="0.424669" stop-color="#C7B3C5" stop-opacity="0.514531"/>
<stop offset="0.891869" stop-color="#C7B3C5" stop-opacity="0"/>
</radialGradient>
<radialGradient id="paint15_radial_7159_2153" cx="0" cy="0" r="1" gradientUnits="userSpaceOnUse" gradientTransform="translate(19.7785 63.2825) rotate(-41.1859) scale(6.90902 16.9057)">
<stop stop-color="#C7B3C5"/>
<stop offset="0.424669" stop-color="#C7B3C5" stop-opacity="0.514531"/>
<stop offset="0.891869" stop-color="#C7B3C5" stop-opacity="0"/>
</radialGradient>
<radialGradient id="paint16_radial_7159_2153" cx="0" cy="0" r="1" gradientUnits="userSpaceOnUse" gradientTransform="translate(42.1644 16.403) rotate(67.05) scale(5.52566 48.1868)">
<stop stop-color="#C7B3C5"/>
<stop offset="0.334822" stop-color="#C7B3C5" stop-opacity="0.514531"/>
<stop offset="0.623566" stop-color="#C7B3C5" stop-opacity="0.149791"/>
<stop offset="1" stop-color="#C7B3C5" stop-opacity="0"/>
</radialGradient>
<radialGradient id="paint17_radial_7159_2153" cx="0" cy="0" r="1" gradientUnits="userSpaceOnUse" gradientTransform="translate(34.7382 24.2019) rotate(23.1986) scale(8.62567 16.5435)">
<stop stop-color="#C7B3C5"/>
<stop offset="0.390418" stop-color="#C7B3C5" stop-opacity="0.514531"/>
<stop offset="0.678161" stop-color="#C7B3C5" stop-opacity="0.162023"/>
<stop offset="1" stop-color="#C7B3C5" stop-opacity="0"/>
</radialGradient>
<radialGradient id="paint18_radial_7159_2153" cx="0" cy="0" r="1" gradientUnits="userSpaceOnUse" gradientTransform="translate(72.8714 40.766) rotate(-170.381) scale(6.2136 31.2629)">
<stop stop-color="#C7B3C5"/>
<stop offset="0.256797" stop-color="#C7B3C5" stop-opacity="0.514531"/>
<stop offset="0.678161" stop-color="#C7B3C5" stop-opacity="0.162023"/>
<stop offset="1" stop-color="#C7B3C5" stop-opacity="0"/>
</radialGradient>
<radialGradient id="paint19_radial_7159_2153" cx="0" cy="0" r="1" gradientUnits="userSpaceOnUse" gradientTransform="translate(44.3247 70.934) rotate(-77.0637) scale(5.74177 10.4142)">
<stop stop-color="#C7B3C5"/>
<stop offset="0.30155" stop-color="#C7B3C5" stop-opacity="0.514531"/>
<stop offset="1" stop-color="#C7B3C5" stop-opacity="0"/>
</radialGradient>
<radialGradient id="paint20_radial_7159_2153" cx="0" cy="0" r="1" gradientUnits="userSpaceOnUse" gradientTransform="translate(35.6247 50.7982) rotate(90) scale(12.2581 11.6452)">
<stop offset="0.31859" stop-color="#EAE0E7"/>
<stop offset="1" stop-color="#EAE0E7" stop-opacity="0"/>
</radialGradient>
<linearGradient id="paint21_linear_7159_2153" x1="76" y1="64" x2="68" y2="72" gradientUnits="userSpaceOnUse">
<stop stop-color="#F0EEEF"/>
<stop offset="1" stop-color="#F3EEF0" stop-opacity="0"/>
</linearGradient>
<radialGradient id="paint22_radial_7159_2153" cx="0" cy="0" r="1" gradientUnits="userSpaceOnUse" gradientTransform="translate(64 28) rotate(143.13) scale(20)">
<stop stop-color="white"/>
<stop offset="1" stop-color="#F7F4F6" stop-opacity="0"/>
</radialGradient>
<linearGradient id="paint23_linear_7159_2153" x1="33.6429" y1="53.1429" x2="7.3" y2="39.9714" gradientUnits="userSpaceOnUse">
<stop stop-color="#E5C9C5" stop-opacity="0"/>
<stop offset="1" stop-color="#FFD099"/>
</linearGradient>
<linearGradient id="paint24_linear_7159_2153" x1="240" y1="184" x2="176" y2="228" gradientUnits="userSpaceOnUse">
<stop stop-color="#ECE5E6"/>
<stop offset="0.565806" stop-color="#E0D1EE"/>
<stop offset="0.988281" stop-color="#CEB6E1"/>
</linearGradient>
<radialGradient id="paint25_radial_7159_2153" cx="0" cy="0" r="1" gradientUnits="userSpaceOnUse" gradientTransform="translate(173.049 197.726) rotate(-45.4953) scale(7.85187 39.0757)">
<stop stop-color="#CBAFE1"/>
<stop offset="0.328161" stop-color="#CBAFE1" stop-opacity="0.391466"/>
<stop offset="0.700513" stop-color="#CBAFE1" stop-opacity="0"/>
</radialGradient>
<radialGradient id="paint26_radial_7159_2153" cx="0" cy="0" r="1" gradientUnits="userSpaceOnUse" gradientTransform="translate(181.055 212.925) rotate(-13.4115) scale(12.389 18.6875)">
<stop offset="0.279806" stop-color="#CBAFE1"/>
<stop offset="0.685053" stop-color="#CBAFE1" stop-opacity="0.307976"/>
<stop offset="1" stop-color="#CBAFE1" stop-opacity="0"/>
</radialGradient>
<radialGradient id="paint27_radial_7159_2153" cx="0" cy="0" r="1" gradientUnits="userSpaceOnUse" gradientTransform="translate(182.306 223.053) rotate(-13.6005) scale(10.1138 25.6842)">
<stop offset="0.18899" stop-color="#CBAFE1"/>
<stop offset="0.65569" stop-color="#CBAFE1" stop-opacity="0.412158"/>
<stop offset="1" stop-color="#CBAFE1" stop-opacity="0"/>
</radialGradient>
<radialGradient id="paint28_radial_7159_2153" cx="0" cy="0" r="1" gradientUnits="userSpaceOnUse" gradientTransform="translate(226.599 230.159) rotate(-135.49) scale(10.5214 17.5075)">
<stop stop-color="#CBAFE1"/>
<stop offset="1" stop-color="#CBAFE1" stop-opacity="0"/>
</radialGradient>
<radialGradient id="paint29_radial_7159_2153" cx="0" cy="0" r="1" gradientUnits="userSpaceOnUse" gradientTransform="translate(206.682 173.881) rotate(91.0736) scale(68.562 43.8289)">
<stop stop-color="#CBAFE1" stop-opacity="0"/>
<stop offset="0.882945" stop-color="#CBAFE1" stop-opacity="0.0183804"/>
<stop offset="0.929666" stop-color="#CBAFE1" stop-opacity="0.387575"/>
<stop offset="0.985503" stop-color="#CBAFE1"/>
</radialGradient>
<radialGradient id="paint30_radial_7159_2153" cx="0" cy="0" r="1" gradientUnits="userSpaceOnUse" gradientTransform="translate(206.846 219.799) rotate(-177.816) scale(13.0559 12.4031)">
<stop stop-color="#EAE0E7"/>
<stop offset="0.454665" stop-color="#EAE0E7" stop-opacity="0.697838"/>
<stop offset="1" stop-color="#EAE0E7" stop-opacity="0"/>
</radialGradient>
<linearGradient id="paint31_linear_7159_2153" x1="192" y1="180" x2="184" y2="188" gradientUnits="userSpaceOnUse">
<stop stop-color="#F0EEEF"/>
<stop offset="1" stop-color="#F3EEF0" stop-opacity="0"/>
</linearGradient>
<radialGradient id="paint32_radial_7159_2153" cx="0" cy="0" r="1" gradientUnits="userSpaceOnUse" gradientTransform="translate(32 12) rotate(143.13) scale(20)">
<stop stop-color="white"/>
<stop offset="1" stop-color="#F7F4F6" stop-opacity="0"/>
</radialGradient>
<radialGradient id="paint33_radial_7159_2153" cx="0" cy="0" r="1" gradientUnits="userSpaceOnUse" gradientTransform="translate(21.3072 21.6073) rotate(64.0935) scale(24.2501 28.091)">
<stop offset="0.771731" stop-color="#CBAFE1" stop-opacity="0"/>
<stop offset="1" stop-color="#CBAFE1"/>
</radialGradient>
<radialGradient id="paint34_radial_7159_2153" cx="0" cy="0" r="1" gradientUnits="userSpaceOnUse" gradientTransform="translate(40.4117 215.207) rotate(-44.7228) scale(55.7174 56.5406)">
<stop stop-color="#D8C5DE"/>
<stop offset="0.9888" stop-color="#BDA1CB"/>
</radialGradient>
<radialGradient id="paint35_radial_7159_2153" cx="0" cy="0" r="1" gradientUnits="userSpaceOnUse" gradientTransform="translate(87.5038 167.639) rotate(135.287) scale(85.2625 62.1273)">
<stop stop-color="#C9A1E2" stop-opacity="0"/>
<stop offset="0.68322" stop-color="#C9A1E2" stop-opacity="0.0137763"/>
<stop offset="0.905683" stop-color="#C9A1E2" stop-opacity="0.159032"/>
<stop offset="0.979937" stop-color="#C9A1E2"/>
</radialGradient>
<radialGradient id="paint36_radial_7159_2153" cx="0" cy="0" r="1" gradientUnits="userSpaceOnUse" gradientTransform="translate(32.1567 224.386) rotate(-45) scale(10.4367 23.7958)">
<stop stop-color="#C9A1E2"/>
<stop offset="0.684767" stop-color="#C9A1E2" stop-opacity="0.331788"/>
<stop offset="1" stop-color="#C9A1E2" stop-opacity="0"/>
</radialGradient>
<radialGradient id="paint37_radial_7159_2153" cx="0" cy="0" r="1" gradientUnits="userSpaceOnUse" gradientTransform="translate(76.1196 227.595) rotate(-153.825) scale(11.756 24.8041)">
<stop stop-color="#C9A1E2"/>
<stop offset="0.581246" stop-color="#C9A1E2" stop-opacity="0.331788"/>
<stop offset="1" stop-color="#C9A1E2" stop-opacity="0"/>
</radialGradient>
<radialGradient id="paint38_radial_7159_2153" cx="0" cy="0" r="1" gradientUnits="userSpaceOnUse" gradientTransform="translate(66.061 237.432) rotate(-108.221) scale(9.54656 20.1423)">
<stop stop-color="#C9A1E2"/>
<stop offset="0.464774" stop-color="#C9A1E2" stop-opacity="0.331788"/>
<stop offset="1" stop-color="#C9A1E2" stop-opacity="0"/>
</radialGradient>
<radialGradient id="paint39_radial_7159_2153" cx="0" cy="0" r="1" gradientUnits="userSpaceOnUse" gradientTransform="translate(51.4781 223.394) rotate(62.8338) scale(18.6648)">
<stop stop-color="#D8C5DE" stop-opacity="0.62"/>
<stop offset="0.505208" stop-color="#D8C5DE" stop-opacity="0.47"/>
<stop offset="1" stop-color="#D8C5DE" stop-opacity="0"/>
</radialGradient>
<radialGradient id="paint40_radial_7159_2153" cx="0" cy="0" r="1" gradientUnits="userSpaceOnUse" gradientTransform="translate(31.4798 201.978) rotate(50.6809) scale(17.6097)">
<stop stop-color="#D8C5DE"/>
<stop offset="0.593266" stop-color="#D8C5DE" stop-opacity="0.814876"/>
<stop offset="1" stop-color="#D8C5DE" stop-opacity="0"/>
</radialGradient>
<linearGradient id="paint41_linear_7159_2153" x1="52" y1="204" x2="24" y2="168" gradientUnits="userSpaceOnUse">
<stop stop-color="#E5C9C5" stop-opacity="0"/>
<stop offset="1" stop-color="#FFD099"/>
</linearGradient>
<radialGradient id="paint42_radial_7159_2153" cx="0" cy="0" r="1" gradientTransform="matrix(-85.7143 119.717 -120 -85.5122 153.714 85.3756)" gradientUnits="userSpaceOnUse">
<stop offset="0.212753" stop-color="#F2F0F4"/>
<stop offset="0.742622" stop-color="#D1BBE0"/>
</radialGradient>
<radialGradient id="paint43_radial_7159_2153" cx="0" cy="0" r="1" gradientTransform="matrix(70.9974 99.309 -89.7141 63.8814 122.114 82.2611)" gradientUnits="userSpaceOnUse">
<stop stop-color="#CCA8E9" stop-opacity="0"/>
<stop offset="0.454097" stop-color="#CCA8E9" stop-opacity="0.0496967"/>
<stop offset="0.744776" stop-color="#CCA8E9" stop-opacity="0.278871"/>
<stop offset="0.885115" stop-color="#CCA8E9"/>
</radialGradient>
<radialGradient id="paint44_radial_7159_2153" cx="0" cy="0" r="1" gradientTransform="matrix(-170.506 -79.224 51.4454 -110.278 203.733 155.348)" gradientUnits="userSpaceOnUse">
<stop stop-color="#CCA8E9" stop-opacity="0"/>
<stop offset="0.70377" stop-color="#CCA8E9" stop-opacity="0.0496967"/>
<stop offset="0.797851" stop-color="#CCA8E9" stop-opacity="0.278871"/>
<stop offset="0.885115" stop-color="#CCA8E9"/>
</radialGradient>
<radialGradient id="paint45_radial_7159_2153" cx="0" cy="0" r="1" gradientTransform="matrix(-113.835 42.3771 -52.8902 -141.507 197.502 157.527)" gradientUnits="userSpaceOnUse">
<stop stop-color="white" stop-opacity="0"/>
<stop offset="0.190976" stop-color="white" stop-opacity="0"/>
<stop offset="1" stop-color="white" stop-opacity="0.13"/>
</radialGradient>
<radialGradient id="paint46_radial_7159_2153" cx="0" cy="0" r="1" gradientUnits="userSpaceOnUse" gradientTransform="translate(157.598 172.145) rotate(-180) scale(9.88929 13.429)">
<stop stop-color="white" stop-opacity="0.61"/>
<stop offset="0.500678" stop-color="white" stop-opacity="0.399429"/>
<stop offset="0.84375" stop-color="white" stop-opacity="0.0916601"/>
<stop offset="1" stop-color="white" stop-opacity="0"/>
</radialGradient>
<radialGradient id="paint47_radial_7159_2153" cx="0" cy="0" r="1" gradientTransform="matrix(4.93045 17.4681 -61.254 17.2575 149.36 156.964)" gradientUnits="userSpaceOnUse">
<stop stop-color="white" stop-opacity="0.61"/>
<stop offset="0.500678" stop-color="white" stop-opacity="0.399429"/>
<stop offset="0.84375" stop-color="white" stop-opacity="0.0916601"/>
<stop offset="1" stop-color="white" stop-opacity="0"/>
</radialGradient>
<radialGradient id="paint48_radial_7159_2153" cx="0" cy="0" r="1" gradientUnits="userSpaceOnUse" gradientTransform="translate(158.84 195.052) rotate(-165.256) scale(13.1407 10.8219)">
<stop stop-color="white" stop-opacity="0.61"/>
<stop offset="0.358764" stop-color="white" stop-opacity="0.399429"/>
<stop offset="0.769306" stop-color="white" stop-opacity="0.0916601"/>
<stop offset="1" stop-color="white" stop-opacity="0"/>
</radialGradient>
<radialGradient id="paint49_radial_7159_2153" cx="0" cy="0" r="1" gradientUnits="userSpaceOnUse" gradientTransform="translate(157.335 183.383) rotate(-173.306) scale(11.5614 18.3942)">
<stop stop-color="white" stop-opacity="0.74"/>
<stop offset="0.28398" stop-color="white" stop-opacity="0.601427"/>
<stop offset="0.473312" stop-color="white" stop-opacity="0.399429"/>
<stop offset="0.811132" stop-color="white" stop-opacity="0.0916601"/>
<stop offset="1" stop-color="white" stop-opacity="0"/>
</radialGradient>
<radialGradient id="paint50_radial_7159_2153" cx="0" cy="0" r="1" gradientUnits="userSpaceOnUse" gradientTransform="translate(158.499 191.978) rotate(180) scale(8.98029 18.6416)">
<stop stop-color="white" stop-opacity="0.61"/>
<stop offset="0.426981" stop-color="white" stop-opacity="0.399429"/>
<stop offset="0.755398" stop-color="white" stop-opacity="0.0916601"/>
<stop offset="1" stop-color="white" stop-opacity="0"/>
</radialGradient>
<radialGradient id="paint51_radial_7159_2153" cx="0" cy="0" r="1" gradientUnits="userSpaceOnUse" gradientTransform="translate(129.332 182.703) rotate(180) scale(5.93911 8.13631)">
<stop stop-color="white" stop-opacity="0.54"/>
<stop offset="0.362992" stop-color="white" stop-opacity="0.399429"/>
<stop offset="0.84375" stop-color="white" stop-opacity="0.0916601"/>
<stop offset="1" stop-color="white" stop-opacity="0"/>
</radialGradient>
<radialGradient id="paint52_radial_7159_2153" cx="0" cy="0" r="1" gradientUnits="userSpaceOnUse" gradientTransform="translate(128.53 174.246) rotate(121.274) scale(9.89501 13.5557)">
<stop stop-color="white" stop-opacity="0.54"/>
<stop offset="0.329774" stop-color="white" stop-opacity="0.399429"/>
<stop offset="0.84375" stop-color="white" stop-opacity="0.0916601"/>
<stop offset="1" stop-color="white" stop-opacity="0"/>
</radialGradient>
<radialGradient id="paint53_radial_7159_2153" cx="0" cy="0" r="1" gradientUnits="userSpaceOnUse" gradientTransform="translate(129.06 190.33) rotate(-179.834) scale(6.91535 10.8331)">
<stop stop-color="white" stop-opacity="0.58"/>
<stop offset="0.388533" stop-color="white" stop-opacity="0.42"/>
<stop offset="0.755398" stop-color="white" stop-opacity="0.0916601"/>
<stop offset="1" stop-color="white" stop-opacity="0"/>
</radialGradient>
<radialGradient id="paint54_radial_7159_2153" cx="0" cy="0" r="1" gradientTransform="matrix(-6.60206 0 -0.000477225 -9.25673 128.711 197.85)" gradientUnits="userSpaceOnUse">
<stop stop-color="white" stop-opacity="0.68"/>
<stop offset="0.423308" stop-color="white" stop-opacity="0.47"/>
<stop offset="0.755398" stop-color="white" stop-opacity="0.0916601"/>
<stop offset="1" stop-color="white" stop-opacity="0"/>
</radialGradient>
<radialGradient id="paint55_radial_7159_2153" cx="0" cy="0" r="1" gradientUnits="userSpaceOnUse" gradientTransform="translate(104.035 196.511) rotate(-180) scale(7.33457 8.46614)">
<stop stop-color="white" stop-opacity="0.85"/>
<stop offset="0.420825" stop-color="white" stop-opacity="0.64"/>
<stop offset="0.664664" stop-color="white" stop-opacity="0.28"/>
<stop offset="0.84375" stop-color="white" stop-opacity="0.0916601"/>
<stop offset="1" stop-color="white" stop-opacity="0"/>
</radialGradient>
<radialGradient id="paint56_radial_7159_2153" cx="0" cy="0" r="1" gradientUnits="userSpaceOnUse" gradientTransform="translate(103.608 190.167) rotate(180) scale(7.89295 9.11067)">
<stop stop-color="white" stop-opacity="0.85"/>
<stop offset="0.420825" stop-color="white" stop-opacity="0.64"/>
<stop offset="0.664664" stop-color="white" stop-opacity="0.28"/>
<stop offset="0.84375" stop-color="white" stop-opacity="0.0916601"/>
<stop offset="1" stop-color="white" stop-opacity="0"/>
</radialGradient>
<radialGradient id="paint57_radial_7159_2153" cx="0" cy="0" r="1" gradientUnits="userSpaceOnUse" gradientTransform="translate(104.282 185.94) rotate(-166.505) scale(8.4623 9.76786)">
<stop stop-color="white" stop-opacity="0.85"/>
<stop offset="0.420825" stop-color="white" stop-opacity="0.64"/>
<stop offset="0.664664" stop-color="white" stop-opacity="0.28"/>
<stop offset="0.84375" stop-color="white" stop-opacity="0.0916601"/>
<stop offset="1" stop-color="white" stop-opacity="0"/>
</radialGradient>
<linearGradient id="paint58_linear_7159_2153" x1="85.1429" y1="122.457" x2="30.9044" y2="93.8535" gradientUnits="userSpaceOnUse">
<stop stop-color="#E5C9C5" stop-opacity="0"/>
<stop offset="1" stop-color="#FFD099"/>
</linearGradient>
<radialGradient id="paint59_radial_7159_2153" cx="0" cy="0" r="1" gradientUnits="userSpaceOnUse" gradientTransform="translate(116 191.999) rotate(90) scale(15.9992 7.68149)">
<stop stop-color="#7A6E85"/>
<stop offset="1" stop-color="#B29EC2" stop-opacity="0"/>
</radialGradient>
<radialGradient id="paint60_radial_7159_2153" cx="0" cy="0" r="1" gradientUnits="userSpaceOnUse" gradientTransform="translate(140 191.999) rotate(90) scale(15.9992 7.68149)">
<stop stop-color="#7A6E85"/>
<stop offset="1" stop-color="#B29EC2" stop-opacity="0"/>
</radialGradient>
<radialGradient id="paint61_radial_7159_2153" cx="0" cy="0" r="1" gradientTransform="matrix(23.2662 -26.3648 31.1585 27.8978 78.0894 135.478)" gradientUnits="userSpaceOnUse">
<stop offset="0.444517" stop-color="#3D2C36"/>
<stop offset="1" stop-color="#1A1016"/>
</radialGradient>
<radialGradient id="paint62_radial_7159_2153" cx="0" cy="0" r="1" gradientTransform="matrix(22.8367 -26.3648 30.5832 27.8978 161.755 135.478)" gradientUnits="userSpaceOnUse">
<stop offset="0.444517" stop-color="#3D2C36"/>
<stop offset="1" stop-color="#1A1016"/>
</radialGradient>
<radialGradient id="paint63_radial_7159_2153" cx="0" cy="0" r="1" gradientTransform="matrix(7.15884 -9.58722 9.58722 10.1447 125.566 153.992)" gradientUnits="userSpaceOnUse">
<stop offset="0.444517" stop-color="#3D2C36"/>
<stop offset="1" stop-color="#1A1016"/>
</radialGradient>
</defs>
</svg>
