<svg width="256" height="256" viewBox="0 0 256 256" fill="none" xmlns="http://www.w3.org/2000/svg">
<path d="M53.7852 161.772C53.7852 176.574 41.6939 188.665 26.8926 188.665C12.0912 188.665 0 176.574 0 161.772C0 146.971 12.0912 134.88 26.8926 134.88H53.7852V161.772Z" fill="#E01E5A"/>
<path d="M67.3357 161.772C67.3357 146.971 79.4269 134.88 94.2283 134.88C109.03 134.88 121.121 146.971 121.121 161.772V229.108C121.121 243.909 109.03 256.001 94.2283 256.001C79.4269 256.001 67.3357 243.909 67.3357 229.108V161.772Z" fill="#E01E5A"/>
<path d="M94.2283 53.7852C79.4269 53.7852 67.3357 41.6939 67.3357 26.8926C67.3357 12.0912 79.4269 0 94.2283 0C109.03 0 121.121 12.0912 121.121 26.8926V53.7852H94.2283Z" fill="#36C5F0"/>
<path d="M94.2283 67.3359C109.03 67.3359 121.121 79.4272 121.121 94.2285C121.121 109.03 109.03 121.121 94.2283 121.121H26.8926C12.0912 121.121 0 109.03 0 94.2285C0 79.4272 12.0912 67.3359 26.8926 67.3359H94.2283Z" fill="#36C5F0"/>
<path d="M202.216 94.2285C202.216 79.4272 214.307 67.3359 229.108 67.3359C243.91 67.3359 256.001 79.4272 256.001 94.2285C256.001 109.03 243.91 121.121 229.108 121.121H202.216V94.2285Z" fill="#2EB67D"/>
<path d="M188.665 94.2283C188.665 109.03 176.574 121.121 161.772 121.121C146.971 121.121 134.88 109.03 134.88 94.2283V26.8926C134.88 12.0912 146.971 0 161.772 0C176.574 0 188.665 12.0912 188.665 26.8926V94.2283Z" fill="#2EB67D"/>
<path d="M161.772 202.216C176.574 202.216 188.665 214.307 188.665 229.108C188.665 243.91 176.574 256.001 161.772 256.001C146.971 256.001 134.88 243.91 134.88 229.108V202.216H161.772Z" fill="#ECB22E"/>
<path d="M161.772 188.665C146.971 188.665 134.88 176.574 134.88 161.772C134.88 146.971 146.971 134.88 161.772 134.88H229.108C243.909 134.88 256.001 146.971 256.001 161.772C256.001 176.574 243.909 188.665 229.108 188.665H161.772Z" fill="#ECB22E"/>
</svg>
