<svg width="32" height="32" viewBox="0 0 32 32" fill="none" xmlns="http://www.w3.org/2000/svg">
<path d="M6.72315 20.2214C6.72315 22.0716 5.21174 23.583 3.36157 23.583C1.5114 23.583 0 22.0716 0 20.2214C0 18.3713 1.5114 16.8599 3.36157 16.8599H6.72315V20.2214Z" fill="#E01E5A"/>
<path d="M8.41699 20.2214C8.41699 18.3713 9.9284 16.8599 11.7786 16.8599C13.6287 16.8599 15.1401 18.3713 15.1401 20.2214V28.6384C15.1401 30.4886 13.6287 32 11.7786 32C9.9284 32 8.41699 30.4886 8.41699 28.6384V20.2214Z" fill="#E01E5A"/>
<path d="M11.7786 6.72315C9.9284 6.72315 8.41699 5.21174 8.41699 3.36157C8.41699 1.5114 9.9284 0 11.7786 0C13.6287 0 15.1401 1.5114 15.1401 3.36157V6.72315H11.7786Z" fill="#36C5F0"/>
<path d="M11.7785 8.41699C13.6287 8.41699 15.1401 9.9284 15.1401 11.7786C15.1401 13.6287 13.6287 15.1401 11.7785 15.1401H3.36157C1.5114 15.1401 0 13.6287 0 11.7786C0 9.9284 1.5114 8.41699 3.36157 8.41699H11.7785Z" fill="#36C5F0"/>
<path d="M25.2769 11.7786C25.2769 9.9284 26.7883 8.41699 28.6385 8.41699C30.4887 8.41699 32.0001 9.9284 32.0001 11.7786C32.0001 13.6287 30.4887 15.1401 28.6385 15.1401H25.2769V11.7786Z" fill="#2EB67D"/>
<path d="M23.5831 11.7785C23.5831 13.6287 22.0717 15.1401 20.2216 15.1401C18.3714 15.1401 16.86 13.6287 16.86 11.7785V3.36157C16.86 1.5114 18.3714 0 20.2216 0C22.0717 0 23.5831 1.5114 23.5831 3.36157V11.7785Z" fill="#2EB67D"/>
<path d="M20.2216 25.2769C22.0717 25.2769 23.5831 26.7883 23.5831 28.6384C23.5831 30.4886 22.0717 32 20.2216 32C18.3714 32 16.86 30.4886 16.86 28.6384V25.2769H20.2216Z" fill="#ECB22E"/>
<path d="M20.2216 23.583C18.3714 23.583 16.86 22.0716 16.86 20.2214C16.86 18.3713 18.3714 16.8599 20.2216 16.8599H28.6385C30.4887 16.8599 32.0001 18.3713 32.0001 20.2214C32.0001 22.0716 30.4887 23.583 28.6385 23.583H20.2216Z" fill="#ECB22E"/>
</svg>
