<svg width="256" height="256" viewBox="0 0 256 256" fill="none" xmlns="http://www.w3.org/2000/svg">
<path d="M127.991 239.982C202.667 239.982 239.982 189.842 239.982 127.991C239.982 66.1401 202.667 16 127.991 16C53.3155 16 16 66.1401 16 127.991C16 189.842 53.3155 239.982 127.991 239.982Z" fill="url(#paint0_radial_7159_2146)"/>
<path d="M127.991 239.982C202.667 239.982 239.982 189.842 239.982 127.991C239.982 66.1401 202.667 16 127.991 16C53.3155 16 16 66.1401 16 127.991C16 189.842 53.3155 239.982 127.991 239.982Z" fill="url(#paint1_radial_7159_2146)"/>
<path d="M127.991 239.982C202.667 239.982 239.982 189.842 239.982 127.991C239.982 66.1401 202.667 16 127.991 16C53.3155 16 16 66.1401 16 127.991C16 189.842 53.3155 239.982 127.991 239.982Z" fill="url(#paint2_radial_7159_2146)" fill-opacity="0.6"/>
<path d="M127.991 239.982C202.667 239.982 239.982 189.842 239.982 127.991C239.982 66.1401 202.667 16 127.991 16C53.3155 16 16 66.1401 16 127.991C16 189.842 53.3155 239.982 127.991 239.982Z" fill="url(#paint3_radial_7159_2146)" fill-opacity="0.67"/>
<path d="M127.991 239.982C202.667 239.982 239.982 189.842 239.982 127.991C239.982 66.1401 202.667 16 127.991 16C53.3155 16 16 66.1401 16 127.991C16 189.842 53.3155 239.982 127.991 239.982Z" fill="url(#paint4_radial_7159_2146)" style="mix-blend-mode:multiply"/>
<path d="M127.991 239.982C202.667 239.982 239.982 189.842 239.982 127.991C239.982 66.1401 202.667 16 127.991 16C53.3155 16 16 66.1401 16 127.991C16 189.842 53.3155 239.982 127.991 239.982Z" fill="url(#paint5_radial_7159_2146)" fill-opacity="0.45"/>
<path d="M127.991 239.982C202.667 239.982 239.982 189.842 239.982 127.991C239.982 66.1401 202.667 16 127.991 16C53.3155 16 16 66.1401 16 127.991C16 189.842 53.3155 239.982 127.991 239.982Z" fill="url(#paint6_radial_7159_2146)" fill-opacity="0.45"/>
<path d="M127.991 239.982C202.667 239.982 239.982 189.842 239.982 127.991C239.982 66.1401 202.667 16 127.991 16C53.3155 16 16 66.1401 16 127.991C16 189.842 53.3155 239.982 127.991 239.982Z" fill="url(#paint7_radial_7159_2146)" fill-opacity="0.45"/>
<path d="M127.991 239.982C202.667 239.982 239.982 189.842 239.982 127.991C239.982 66.1401 202.667 16 127.991 16C53.3155 16 16 66.1401 16 127.991C16 189.842 53.3155 239.982 127.991 239.982Z" fill="url(#paint8_radial_7159_2146)" fill-opacity="0.45"/>
<path d="M127.991 239.982C202.667 239.982 239.982 189.842 239.982 127.991C239.982 66.1401 202.667 16 127.991 16C53.3155 16 16 66.1401 16 127.991C16 189.842 53.3155 239.982 127.991 239.982Z" fill="url(#paint9_radial_7159_2146)" fill-opacity="0.45"/>
<path d="M127.991 239.982C202.667 239.982 239.982 189.842 239.982 127.991C239.982 66.1401 202.667 16 127.991 16C53.3155 16 16 66.1401 16 127.991C16 189.842 53.3155 239.982 127.991 239.982Z" fill="url(#paint10_radial_7159_2146)" fill-opacity="0.45"/>
<path d="M127.991 239.982C202.667 239.982 239.982 189.842 239.982 127.991C239.982 66.1401 202.667 16 127.991 16C53.3155 16 16 66.1401 16 127.991C16 189.842 53.3155 239.982 127.991 239.982Z" fill="url(#paint11_radial_7159_2146)" fill-opacity="0.45"/>
<path d="M127.991 239.982C202.667 239.982 239.982 189.842 239.982 127.991C239.982 66.1401 202.667 16 127.991 16C53.3155 16 16 66.1401 16 127.991C16 189.842 53.3155 239.982 127.991 239.982Z" fill="url(#paint12_radial_7159_2146)" fill-opacity="0.45"/>
<path d="M127.991 239.982C202.667 239.982 239.982 189.842 239.982 127.991C239.982 66.1401 202.667 16 127.991 16C53.3155 16 16 66.1401 16 127.991C16 189.842 53.3155 239.982 127.991 239.982Z" fill="url(#paint13_radial_7159_2146)" fill-opacity="0.45"/>
<path d="M127.991 239.982C202.667 239.982 239.982 189.842 239.982 127.991C239.982 66.1401 202.667 16 127.991 16C53.3155 16 16 66.1401 16 127.991C16 189.842 53.3155 239.982 127.991 239.982Z" fill="url(#paint14_radial_7159_2146)" fill-opacity="0.3"/>
<path d="M127.991 239.982C202.667 239.982 239.982 189.842 239.982 127.991C239.982 66.1401 202.667 16 127.991 16C53.3155 16 16 66.1401 16 127.991C16 189.842 53.3155 239.982 127.991 239.982Z" fill="url(#paint15_radial_7159_2146)" fill-opacity="0.45"/>
<path d="M127.991 239.982C202.667 239.982 239.982 189.842 239.982 127.991C239.982 66.1401 202.667 16 127.991 16C53.3155 16 16 66.1401 16 127.991C16 189.842 53.3155 239.982 127.991 239.982Z" fill="url(#paint16_radial_7159_2146)" fill-opacity="0.45"/>
<path d="M127.991 239.982C202.667 239.982 239.982 189.842 239.982 127.991C239.982 66.1401 202.667 16 127.991 16C53.3155 16 16 66.1401 16 127.991C16 189.842 53.3155 239.982 127.991 239.982Z" fill="url(#paint17_radial_7159_2146)" fill-opacity="0.45"/>
<path d="M127.991 239.982C202.667 239.982 239.982 189.842 239.982 127.991C239.982 66.1401 202.667 16 127.991 16C53.3155 16 16 66.1401 16 127.991C16 189.842 53.3155 239.982 127.991 239.982Z" fill="url(#paint18_radial_7159_2146)" fill-opacity="0.35"/>
<path d="M127.991 239.982C202.667 239.982 239.982 189.842 239.982 127.991C239.982 66.1401 202.667 16 127.991 16C53.3155 16 16 66.1401 16 127.991C16 189.842 53.3155 239.982 127.991 239.982Z" fill="url(#paint19_radial_7159_2146)" fill-opacity="0.35"/>
<path d="M24.0017 8.79979C33.7032 5.92218 44.0007 11.9998 48.0007 15.9998C51.9998 12 65.3454 1.34546 78 14C88.198 24.1981 84.0012 39.9998 76.0012 51.9998C69.8624 61.2079 50.9648 77.2858 41.1959 83.2896C40.506 83.7136 39.6276 83.5515 39.0991 82.938C32.0084 74.708 17.3279 60.2539 11.2008 47.9998C3.20082 31.9998 11.2024 12.5963 24.0017 8.79979Z" fill="url(#paint20_linear_7159_2146)"/>
<path d="M24.0017 8.79979C33.7032 5.92218 44.0007 11.9998 48.0007 15.9998C51.9998 12 65.3454 1.34546 78 14C88.198 24.1981 84.0012 39.9998 76.0012 51.9998C69.8624 61.2079 50.9648 77.2858 41.1959 83.2896C40.506 83.7136 39.6276 83.5515 39.0991 82.938C32.0084 74.708 17.3279 60.2539 11.2008 47.9998C3.20082 31.9998 11.2024 12.5963 24.0017 8.79979Z" fill="url(#paint21_radial_7159_2146)" fill-opacity="0.48"/>
<path d="M24.0017 8.79979C33.7032 5.92218 44.0007 11.9998 48.0007 15.9998C51.9998 12 65.3454 1.34546 78 14C88.198 24.1981 84.0012 39.9998 76.0012 51.9998C69.8624 61.2079 50.9648 77.2858 41.1959 83.2896C40.506 83.7136 39.6276 83.5515 39.0991 82.938C32.0084 74.708 17.3279 60.2539 11.2008 47.9998C3.20082 31.9998 11.2024 12.5963 24.0017 8.79979Z" fill="url(#paint22_radial_7159_2146)"/>
<path d="M104.994 95.9382C100.643 96.482 96.673 93.4242 96.0765 89.0936C95.8041 87.4777 95.0808 85.8729 94.1591 84.5322C92.763 82.5016 90.1316 80 84.0014 80C77.8712 80 75.2398 82.5016 73.8438 84.5322C73.0328 85.7118 72.5276 86.9373 72.231 87.8862C72.2241 87.9084 71.9379 89.0064 71.9386 89.0007C71.3866 93.3802 67.3905 96.4859 63.0092 95.9382C58.5163 95.3766 55.417 90.9365 56.1319 86.5371C56.1675 86.3176 56.2176 86.0368 56.2861 85.7032C56.6927 83.7233 57.7396 79.7144 60.6591 75.4678C64.763 69.4984 72.1316 64 84.0014 64C95.8712 64 103.24 69.4984 107.344 75.4678C110.755 80.4298 111.624 85.0148 111.871 86.5371C112.578 90.8885 109.438 95.3826 104.994 95.9382Z" fill="#583F51"/>
<path d="M104.994 95.9382C100.643 96.482 96.673 93.4242 96.0765 89.0936C95.8041 87.4777 95.0808 85.8729 94.1591 84.5322C92.763 82.5016 90.1316 80 84.0014 80C77.8712 80 75.2398 82.5016 73.8438 84.5322C73.0328 85.7118 72.5276 86.9373 72.231 87.8862C72.2241 87.9084 71.9379 89.0064 71.9386 89.0007C71.3866 93.3802 67.3905 96.4859 63.0092 95.9382C58.5163 95.3766 55.417 90.9365 56.1319 86.5371C56.1675 86.3176 56.2176 86.0368 56.2861 85.7032C56.6927 83.7233 57.7396 79.7144 60.6591 75.4678C64.763 69.4984 72.1316 64 84.0014 64C95.8712 64 103.24 69.4984 107.344 75.4678C110.755 80.4298 111.624 85.0148 111.871 86.5371C112.578 90.8885 109.438 95.3826 104.994 95.9382Z" fill="url(#paint23_radial_7159_2146)"/>
<path d="M104.994 95.9382C100.643 96.482 96.673 93.4242 96.0765 89.0936C95.8041 87.4777 95.0808 85.8729 94.1591 84.5322C92.763 82.5016 90.1316 80 84.0014 80C77.8712 80 75.2398 82.5016 73.8438 84.5322C73.0328 85.7118 72.5276 86.9373 72.231 87.8862C72.2241 87.9084 71.9379 89.0064 71.9386 89.0007C71.3866 93.3802 67.3905 96.4859 63.0092 95.9382C58.5163 95.3766 55.417 90.9365 56.1319 86.5371C56.1675 86.3176 56.2176 86.0368 56.2861 85.7032C56.6927 83.7233 57.7396 79.7144 60.6591 75.4678C64.763 69.4984 72.1316 64 84.0014 64C95.8712 64 103.24 69.4984 107.344 75.4678C110.755 80.4298 111.624 85.0148 111.871 86.5371C112.578 90.8885 109.438 95.3826 104.994 95.9382Z" fill="url(#paint24_radial_7159_2146)"/>
<path d="M104.994 95.9382C100.643 96.482 96.673 93.4242 96.0765 89.0936C95.8041 87.4777 95.0808 85.8729 94.1591 84.5322C92.763 82.5016 90.1316 80 84.0014 80C77.8712 80 75.2398 82.5016 73.8438 84.5322C73.0328 85.7118 72.5276 86.9373 72.231 87.8862C72.2241 87.9084 71.9379 89.0064 71.9386 89.0007C71.3866 93.3802 67.3905 96.4859 63.0092 95.9382C58.5163 95.3766 55.417 90.9365 56.1319 86.5371C56.1675 86.3176 56.2176 86.0368 56.2861 85.7032C56.6927 83.7233 57.7396 79.7144 60.6591 75.4678C64.763 69.4984 72.1316 64 84.0014 64C95.8712 64 103.24 69.4984 107.344 75.4678C110.755 80.4298 111.624 85.0148 111.871 86.5371C112.578 90.8885 109.438 95.3826 104.994 95.9382Z" fill="url(#paint25_radial_7159_2146)"/>
<path d="M159.852 89.527C160.237 87.5487 161.118 85.1241 162.792 83.3002C164.226 81.7371 166.776 80 172 80C177.133 80 179.748 81.7732 181.257 83.4303C183.003 85.3461 183.843 87.7894 184.117 89.3687C184.873 93.7219 189.015 96.638 193.368 95.882C197.721 95.1261 200.638 90.9844 199.882 86.6313C199.25 82.9918 197.439 77.4352 193.086 72.6557C188.496 67.6174 181.564 64 172 64C162.525 64 155.622 67.4504 151.004 72.4811C146.626 77.2509 144.856 82.8263 144.147 86.473C143.303 90.8101 146.136 95.0096 150.473 95.8529C154.81 96.6962 159.009 93.864 159.852 89.527Z" fill="#583F51"/>
<path d="M159.852 89.527C160.237 87.5487 161.118 85.1241 162.792 83.3002C164.226 81.7371 166.776 80 172 80C177.133 80 179.748 81.7732 181.257 83.4303C183.003 85.3461 183.843 87.7894 184.117 89.3687C184.873 93.7219 189.015 96.638 193.368 95.882C197.721 95.1261 200.638 90.9844 199.882 86.6313C199.25 82.9918 197.439 77.4352 193.086 72.6557C188.496 67.6174 181.564 64 172 64C162.525 64 155.622 67.4504 151.004 72.4811C146.626 77.2509 144.856 82.8263 144.147 86.473C143.303 90.8101 146.136 95.0096 150.473 95.8529C154.81 96.6962 159.009 93.864 159.852 89.527Z" fill="url(#paint26_radial_7159_2146)"/>
<path d="M159.852 89.527C160.237 87.5487 161.118 85.1241 162.792 83.3002C164.226 81.7371 166.776 80 172 80C177.133 80 179.748 81.7732 181.257 83.4303C183.003 85.3461 183.843 87.7894 184.117 89.3687C184.873 93.7219 189.015 96.638 193.368 95.882C197.721 95.1261 200.638 90.9844 199.882 86.6313C199.25 82.9918 197.439 77.4352 193.086 72.6557C188.496 67.6174 181.564 64 172 64C162.525 64 155.622 67.4504 151.004 72.4811C146.626 77.2509 144.856 82.8263 144.147 86.473C143.303 90.8101 146.136 95.0096 150.473 95.8529C154.81 96.6962 159.009 93.864 159.852 89.527Z" fill="url(#paint27_radial_7159_2146)"/>
<path d="M159.852 89.527C160.237 87.5487 161.118 85.1241 162.792 83.3002C164.226 81.7371 166.776 80 172 80C177.133 80 179.748 81.7732 181.257 83.4303C183.003 85.3461 183.843 87.7894 184.117 89.3687C184.873 93.7219 189.015 96.638 193.368 95.882C197.721 95.1261 200.638 90.9844 199.882 86.6313C199.25 82.9918 197.439 77.4352 193.086 72.6557C188.496 67.6174 181.564 64 172 64C162.525 64 155.622 67.4504 151.004 72.4811C146.626 77.2509 144.856 82.8263 144.147 86.473C143.303 90.8101 146.136 95.0096 150.473 95.8529C154.81 96.6962 159.009 93.864 159.852 89.527Z" fill="url(#paint28_radial_7159_2146)"/>
<path d="M31.9993 224C23.0545 215.056 19.9991 200 27.999 192C35.9989 184 51.9986 188 51.9986 188C51.9986 188 55.9993 178 67.9993 180C83.9993 182 85.9993 200 81.9993 212C77.601 225.195 64.2019 239.653 60.7942 243.188C60.3322 243.667 59.6104 243.74 59.0575 243.37C54.5809 240.369 35.5248 227.525 31.9993 224Z" fill="url(#paint29_linear_7159_2146)"/>
<path d="M31.9993 224C23.0545 215.056 19.9991 200 27.999 192C35.9989 184 51.9986 188 51.9986 188C51.9986 188 55.9993 178 67.9993 180C83.9993 182 85.9993 200 81.9993 212C77.601 225.195 64.2019 239.653 60.7942 243.188C60.3322 243.667 59.6104 243.74 59.0575 243.37C54.5809 240.369 35.5248 227.525 31.9993 224Z" fill="url(#paint30_radial_7159_2146)"/>
<path d="M31.9993 224C23.0545 215.056 19.9991 200 27.999 192C35.9989 184 51.9986 188 51.9986 188C51.9986 188 55.9993 178 67.9993 180C83.9993 182 85.9993 200 81.9993 212C77.601 225.195 64.2019 239.653 60.7942 243.188C60.3322 243.667 59.6104 243.74 59.0575 243.37C54.5809 240.369 35.5248 227.525 31.9993 224Z" fill="url(#paint31_radial_7159_2146)" fill-opacity="0.51"/>
<path d="M184 136.8C196 132.8 209.333 144 212 148C213.333 144 219.2 136 232 136C248 136 252.457 152.858 248 164C240.722 182.195 213.581 206.415 208.741 210.639C208.328 210.999 207.713 210.95 207.354 210.535C203.394 205.956 182.347 181.52 176 172C168 160 168.821 141.86 184 136.8Z" fill="url(#paint32_linear_7159_2146)"/>
<path d="M184 136.8C196 132.8 209.333 144 212 148C213.333 144 219.2 136 232 136C248 136 252.457 152.858 248 164C240.722 182.195 213.581 206.415 208.741 210.639C208.328 210.999 207.713 210.95 207.354 210.535C203.394 205.956 182.347 181.52 176 172C168 160 168.821 141.86 184 136.8Z" fill="url(#paint33_radial_7159_2146)"/>
<path d="M184 136.8C196 132.8 209.333 144 212 148C213.333 144 219.2 136 232 136C248 136 252.457 152.858 248 164C240.722 182.195 213.581 206.415 208.741 210.639C208.328 210.999 207.713 210.95 207.354 210.535C203.394 205.956 182.347 181.52 176 172C168 160 168.821 141.86 184 136.8Z" fill="url(#paint34_radial_7159_2146)" style="mix-blend-mode:screen"/>
<path d="M184 136.8C196 132.8 209.333 144 212 148C213.333 144 219.2 136 232 136C248 136 252.457 152.858 248 164C240.722 182.195 213.581 206.415 208.741 210.639C208.328 210.999 207.713 210.95 207.354 210.535C203.394 205.956 182.347 181.52 176 172C168 160 168.821 141.86 184 136.8Z" fill="url(#paint35_radial_7159_2146)" style="mix-blend-mode:screen"/>
<path d="M184 136.8C196 132.8 209.333 144 212 148C213.333 144 219.2 136 232 136C248 136 252.457 152.858 248 164C240.722 182.195 213.581 206.415 208.741 210.639C208.328 210.999 207.713 210.95 207.354 210.535C203.394 205.956 182.347 181.52 176 172C168 160 168.821 141.86 184 136.8Z" fill="url(#paint36_radial_7159_2146)" fill-opacity="0.5" style="mix-blend-mode:screen"/>
<path d="M184 136.8C196 132.8 209.333 144 212 148C213.333 144 219.2 136 232 136C248 136 252.457 152.858 248 164C240.722 182.195 213.581 206.415 208.741 210.639C208.328 210.999 207.713 210.95 207.354 210.535C203.394 205.956 182.347 181.52 176 172C168 160 168.821 141.86 184 136.8Z" fill="url(#paint37_radial_7159_2146)" fill-opacity="0.4" style="mix-blend-mode:screen"/>
<path fill-rule="evenodd" clip-rule="evenodd" d="M96 120C100.418 120 104 123.582 104 128C104 132.053 105.282 138.311 108.892 143.326C112.209 147.932 117.807 152 128 152C138.193 152 143.791 147.932 147.108 143.326C150.718 138.311 152 132.053 152 128C152 123.582 155.582 120 160 120C164.418 120 168 123.582 168 128C168 134.614 166.082 144.356 160.092 152.674C153.809 161.401 143.407 168 128 168C112.593 168 102.191 161.401 95.9077 152.674C89.9182 144.356 88 134.614 88 128C88 123.582 91.5817 120 96 120Z" fill="url(#paint38_radial_7159_2146)"/>
<defs>
<radialGradient id="paint0_radial_7159_2146" cx="0" cy="0" r="1" gradientUnits="userSpaceOnUse" gradientTransform="translate(204 72) rotate(132.839) scale(300.027)">
<stop stop-color="#FFF478"/>
<stop offset="0.474827" stop-color="#FFB02E"/>
<stop offset="1" stop-color="#F70A8D"/>
</radialGradient>
<radialGradient id="paint1_radial_7159_2146" cx="0" cy="0" r="1" gradientUnits="userSpaceOnUse" gradientTransform="translate(128 100) rotate(101.31) scale(142.773 182.864)">
<stop offset="0.787821" stop-color="#F59639" stop-opacity="0"/>
<stop offset="0.972509" stop-color="#FF7DCE"/>
</radialGradient>
<radialGradient id="paint2_radial_7159_2146" cx="0" cy="0" r="1" gradientUnits="userSpaceOnUse" gradientTransform="translate(144 112) rotate(135) scale(328.098)">
<stop offset="0.314853" stop-opacity="0"/>
<stop offset="1"/>
</radialGradient>
<radialGradient id="paint3_radial_7159_2146" cx="0" cy="0" r="1" gradientUnits="userSpaceOnUse" gradientTransform="translate(197.513 191.654) rotate(139.121) scale(34.5641 112.677)">
<stop stop-color="#E4694E"/>
<stop offset="0.559747" stop-color="#E4694E" stop-opacity="0"/>
</radialGradient>
<radialGradient id="paint4_radial_7159_2146" cx="0" cy="0" r="1" gradientUnits="userSpaceOnUse" gradientTransform="translate(184.324 169.462) rotate(59.6707) scale(50.3982 25.5456)">
<stop stop-color="#E4694E"/>
<stop offset="0.512033" stop-color="#E4694E" stop-opacity="0.407125"/>
<stop offset="0.787356" stop-color="#E4694E" stop-opacity="0.15781"/>
<stop offset="1" stop-color="#E4694E" stop-opacity="0"/>
</radialGradient>
<radialGradient id="paint5_radial_7159_2146" cx="0" cy="0" r="1" gradientUnits="userSpaceOnUse" gradientTransform="translate(188.462 89.8483) rotate(111.939) scale(161.855)">
<stop stop-color="#9A4609"/>
<stop offset="0.0783513" stop-color="#9A4609" stop-opacity="0"/>
</radialGradient>
<radialGradient id="paint6_radial_7159_2146" cx="0" cy="0" r="1" gradientUnits="userSpaceOnUse" gradientTransform="translate(185.212 82.2546) rotate(34.0321) scale(13.8717 10.0844)">
<stop stop-color="#9A4609"/>
<stop offset="1" stop-color="#9A4609" stop-opacity="0"/>
</radialGradient>
<radialGradient id="paint7_radial_7159_2146" cx="0" cy="0" r="1" gradientUnits="userSpaceOnUse" gradientTransform="translate(101.313 88.5015) rotate(59.8227) scale(17.0924 15.7196)">
<stop stop-color="#9A4609"/>
<stop offset="0.603875" stop-color="#9A4609" stop-opacity="0.338014"/>
<stop offset="0.812249" stop-color="#9A4609" stop-opacity="0"/>
</radialGradient>
<radialGradient id="paint8_radial_7159_2146" cx="0" cy="0" r="1" gradientUnits="userSpaceOnUse" gradientTransform="translate(60.9145 90.3403) rotate(14.7926) scale(50.6701 46.6006)">
<stop stop-color="#9A4609"/>
<stop offset="0.153015" stop-color="#9A4609" stop-opacity="0.338014"/>
<stop offset="0.278557" stop-color="#9A4609" stop-opacity="0"/>
</radialGradient>
<radialGradient id="paint9_radial_7159_2146" cx="0" cy="0" r="1" gradientUnits="userSpaceOnUse" gradientTransform="translate(64.7476 83.2701) rotate(23.896) scale(49.3912 66.908)">
<stop stop-color="#9A4609"/>
<stop offset="0.163944" stop-color="#9A4609" stop-opacity="0.338014"/>
<stop offset="0.284327" stop-color="#9A4609" stop-opacity="0"/>
</radialGradient>
<radialGradient id="paint10_radial_7159_2146" cx="0" cy="0" r="1" gradientUnits="userSpaceOnUse" gradientTransform="translate(75.3293 75.6076) rotate(38.6691) scale(44.2844 59.9901)">
<stop stop-color="#9A4609"/>
<stop offset="0.163944" stop-color="#9A4609" stop-opacity="0.338014"/>
<stop offset="0.284327" stop-color="#9A4609" stop-opacity="0"/>
</radialGradient>
<radialGradient id="paint11_radial_7159_2146" cx="0" cy="0" r="1" gradientUnits="userSpaceOnUse" gradientTransform="translate(87.0056 74.8778) rotate(51.1196) scale(36.4819 49.4203)">
<stop stop-color="#9A4609"/>
<stop offset="0.163944" stop-color="#9A4609" stop-opacity="0.338014"/>
<stop offset="0.284327" stop-color="#9A4609" stop-opacity="0"/>
</radialGradient>
<radialGradient id="paint12_radial_7159_2146" cx="0" cy="0" r="1" gradientUnits="userSpaceOnUse" gradientTransform="translate(95.2155 78.3442) rotate(59.4951) scale(28.9387 39.202)">
<stop stop-color="#9A4609"/>
<stop offset="0.163944" stop-color="#9A4609" stop-opacity="0.338014"/>
<stop offset="0.34084" stop-color="#9A4609" stop-opacity="0"/>
</radialGradient>
<radialGradient id="paint13_radial_7159_2146" cx="0" cy="0" r="1" gradientUnits="userSpaceOnUse" gradientTransform="translate(177.001 75.8349) rotate(106.624) scale(171.307)">
<stop stop-color="#9A4609"/>
<stop offset="0.064017" stop-color="#9A4609" stop-opacity="0"/>
</radialGradient>
<radialGradient id="paint14_radial_7159_2146" cx="0" cy="0" r="1" gradientUnits="userSpaceOnUse" gradientTransform="translate(179.966 77.0876) rotate(117.304) scale(9.95743 18.6275)">
<stop stop-color="#9A4609"/>
<stop offset="1" stop-color="#9A4609" stop-opacity="0"/>
</radialGradient>
<radialGradient id="paint15_radial_7159_2146" cx="0" cy="0" r="1" gradientUnits="userSpaceOnUse" gradientTransform="translate(167.004 73.9332) rotate(103.222) scale(170.57)">
<stop offset="0.0060053" stop-color="#9A4609"/>
<stop offset="0.0685509" stop-color="#9A4609" stop-opacity="0"/>
</radialGradient>
<radialGradient id="paint16_radial_7159_2146" cx="0" cy="0" r="1" gradientUnits="userSpaceOnUse" gradientTransform="translate(149.479 89.3118) rotate(98.1166) scale(152.195)">
<stop stop-color="#9A4609"/>
<stop offset="0.0762812" stop-color="#9A4609" stop-opacity="0.13"/>
<stop offset="0.0938815" stop-color="#9A4609" stop-opacity="0"/>
</radialGradient>
<radialGradient id="paint17_radial_7159_2146" cx="0" cy="0" r="1" gradientUnits="userSpaceOnUse" gradientTransform="translate(153.412 82.4039) rotate(99.1641) scale(159.616 129.194)">
<stop stop-color="#9A4609"/>
<stop offset="0.0944858" stop-color="#9A4609" stop-opacity="0"/>
</radialGradient>
<radialGradient id="paint18_radial_7159_2146" cx="0" cy="0" r="1" gradientUnits="userSpaceOnUse" gradientTransform="translate(160.875 75.4916) rotate(58.5359) scale(12.2069 15.7068)">
<stop stop-color="#9A4609"/>
<stop offset="1" stop-color="#9A4609" stop-opacity="0"/>
</radialGradient>
<radialGradient id="paint19_radial_7159_2146" cx="0" cy="0" r="1" gradientUnits="userSpaceOnUse" gradientTransform="translate(168.061 76.2133) rotate(75.9637) scale(12.2852 23.1031)">
<stop stop-color="#9A4609"/>
<stop offset="1" stop-color="#9A4609" stop-opacity="0"/>
</radialGradient>
<linearGradient id="paint20_linear_7159_2146" x1="36" y1="28" x2="65.0885" y2="66.2161" gradientUnits="userSpaceOnUse">
<stop stop-color="#DC2E50"/>
<stop offset="1" stop-color="#F70A8D"/>
</linearGradient>
<radialGradient id="paint21_radial_7159_2146" cx="0" cy="0" r="1" gradientUnits="userSpaceOnUse" gradientTransform="translate(68.0167 30.382) rotate(125.784) scale(39.8238 24.7202)">
<stop stop-color="white" stop-opacity="0.75"/>
<stop offset="0.125206" stop-color="white" stop-opacity="0.701862"/>
<stop offset="0.281504" stop-color="white" stop-opacity="0.479537"/>
<stop offset="0.690887" stop-color="#DC2E50" stop-opacity="0"/>
</radialGradient>
<radialGradient id="paint22_radial_7159_2146" cx="0" cy="0" r="1" gradientUnits="userSpaceOnUse" gradientTransform="translate(58.0359 68.7019) rotate(-129.472) scale(26.2289 50.4779)">
<stop stop-color="#F944A5"/>
<stop offset="1" stop-color="#F944A5" stop-opacity="0"/>
</radialGradient>
<radialGradient id="paint23_radial_7159_2146" cx="0" cy="0" r="1" gradientUnits="userSpaceOnUse" gradientTransform="translate(84.0008 89.8247) rotate(90) scale(22.305 22.305)">
<stop offset="0.188596" stop-color="#1D1019"/>
<stop offset="1" stop-color="#462B3F" stop-opacity="0"/>
</radialGradient>
<radialGradient id="paint24_radial_7159_2146" cx="0" cy="0" r="1" gradientUnits="userSpaceOnUse" gradientTransform="translate(84.0008 89.8247) rotate(90) scale(28.8595 32.7545)">
<stop offset="0.718644" stop-color="#462B3F" stop-opacity="0"/>
<stop offset="1" stop-color="#1D1019"/>
</radialGradient>
<radialGradient id="paint25_radial_7159_2146" cx="0" cy="0" r="1" gradientUnits="userSpaceOnUse" gradientTransform="translate(84.0008 74.9998) rotate(90) scale(26.4995 55.6657)">
<stop offset="0.429103" stop-color="#462B3F" stop-opacity="0"/>
<stop offset="1" stop-color="#1D1019"/>
</radialGradient>
<radialGradient id="paint26_radial_7159_2146" cx="0" cy="0" r="1" gradientUnits="userSpaceOnUse" gradientTransform="translate(171.999 89.8252) rotate(90) scale(22.3054 22.3054)">
<stop offset="0.188596" stop-color="#1D1019"/>
<stop offset="1" stop-color="#462B3F" stop-opacity="0"/>
</radialGradient>
<radialGradient id="paint27_radial_7159_2146" cx="0" cy="0" r="1" gradientUnits="userSpaceOnUse" gradientTransform="translate(171.999 89.8252) rotate(90) scale(28.8601 32.7552)">
<stop offset="0.718644" stop-color="#462B3F" stop-opacity="0"/>
<stop offset="1" stop-color="#1D1019"/>
</radialGradient>
<radialGradient id="paint28_radial_7159_2146" cx="0" cy="0" r="1" gradientUnits="userSpaceOnUse" gradientTransform="translate(171.999 75) rotate(90) scale(26.5 55.6668)">
<stop offset="0.429103" stop-color="#462B3F" stop-opacity="0"/>
<stop offset="1" stop-color="#1D1019"/>
</radialGradient>
<linearGradient id="paint29_linear_7159_2146" x1="47.998" y1="196" x2="74.7354" y2="239.253" gradientUnits="userSpaceOnUse">
<stop stop-color="#CA0B4A"/>
<stop offset="1" stop-color="#F70A8D"/>
</linearGradient>
<radialGradient id="paint30_radial_7159_2146" cx="0" cy="0" r="1" gradientUnits="userSpaceOnUse" gradientTransform="translate(67.7126 220.651) rotate(121.197) scale(27.2958 17.9384)">
<stop stop-color="#F944A5"/>
<stop offset="0.753331" stop-color="#F944A5" stop-opacity="0"/>
</radialGradient>
<radialGradient id="paint31_radial_7159_2146" cx="0" cy="0" r="1" gradientUnits="userSpaceOnUse" gradientTransform="translate(67.6173 196.964) rotate(129.857) scale(23.0813 22.8968)">
<stop stop-color="white" stop-opacity="0.83"/>
<stop offset="0.0639679" stop-color="white" stop-opacity="0.83"/>
<stop offset="0.150472" stop-color="white" stop-opacity="0.76"/>
<stop offset="0.270833" stop-color="white" stop-opacity="0.57"/>
<stop offset="0.590756" stop-color="white" stop-opacity="0"/>
</radialGradient>
<linearGradient id="paint32_linear_7159_2146" x1="232.796" y1="144.294" x2="207.004" y2="203.424" gradientUnits="userSpaceOnUse">
<stop stop-color="#CA0B4A"/>
<stop offset="1" stop-color="#F70A8D"/>
</linearGradient>
<radialGradient id="paint33_radial_7159_2146" cx="0" cy="0" r="1" gradientUnits="userSpaceOnUse" gradientTransform="translate(193.63 179.669) rotate(53.8543) scale(34.4015 14.2451)">
<stop stop-color="#F944A5" stop-opacity="0.69"/>
<stop offset="1" stop-color="#F944A5" stop-opacity="0"/>
</radialGradient>
<radialGradient id="paint34_radial_7159_2146" cx="0" cy="0" r="1" gradientUnits="userSpaceOnUse" gradientTransform="translate(224.39 160.347) rotate(-51.1573) scale(19.1819 10.0463)">
<stop stop-color="white" stop-opacity="0.3"/>
<stop offset="0.480213" stop-color="white" stop-opacity="0.22"/>
<stop offset="1" stop-color="white" stop-opacity="0.03"/>
</radialGradient>
<radialGradient id="paint35_radial_7159_2146" cx="0" cy="0" r="1" gradientUnits="userSpaceOnUse" gradientTransform="translate(200.758 161.239) rotate(-134.091) scale(29.7992 13.5733)">
<stop stop-color="white" stop-opacity="0.35"/>
<stop offset="0.334831" stop-color="white" stop-opacity="0.26163"/>
<stop offset="1" stop-color="white" stop-opacity="0"/>
</radialGradient>
<radialGradient id="paint36_radial_7159_2146" cx="0" cy="0" r="1" gradientUnits="userSpaceOnUse" gradientTransform="translate(206.111 166.389) rotate(-134.493) scale(37.2245 25.1863)">
<stop stop-color="white" stop-opacity="0.35"/>
<stop offset="0.143176" stop-color="white" stop-opacity="0.26163"/>
<stop offset="0.358835" stop-color="white" stop-opacity="0"/>
</radialGradient>
<radialGradient id="paint37_radial_7159_2146" cx="0" cy="0" r="1" gradientUnits="userSpaceOnUse" gradientTransform="translate(218.996 165.53) rotate(-46.0512) scale(26.486 12.3839)">
<stop stop-color="white" stop-opacity="0.58"/>
<stop offset="0.555297" stop-color="white" stop-opacity="0.26163"/>
<stop offset="1" stop-color="white" stop-opacity="0"/>
</radialGradient>
<radialGradient id="paint38_radial_7159_2146" cx="0" cy="0" r="1" gradientUnits="userSpaceOnUse" gradientTransform="translate(128 96) rotate(90) scale(84 51.4297)">
<stop offset="0.555727" stop-color="#584343"/>
<stop offset="0.740289" stop-color="#66525E"/>
<stop offset="1" stop-color="#4E2553"/>
<stop offset="1" stop-color="#522C57"/>
</radialGradient>
</defs>
</svg>
