<svg width="256" height="256" viewBox="0 0 256 256" fill="none" xmlns="http://www.w3.org/2000/svg">
<path d="M127.982 239.982C202.658 239.982 239.973 189.842 239.973 127.991C239.973 66.1401 202.658 16 127.982 16C53.3067 16 15.9912 66.1401 15.9912 127.991C15.9912 189.842 53.3067 239.982 127.982 239.982Z" fill="url(#paint0_radial_7159_2149)"/>
<path d="M127.982 239.982C202.658 239.982 239.973 189.842 239.973 127.991C239.973 66.1401 202.658 16 127.982 16C53.3067 16 15.9912 66.1401 15.9912 127.991C15.9912 189.842 53.3067 239.982 127.982 239.982Z" fill="url(#paint1_radial_7159_2149)"/>
<path d="M127.982 239.982C202.658 239.982 239.973 189.842 239.973 127.991C239.973 66.1401 202.658 16 127.982 16C53.3067 16 15.9912 66.1401 15.9912 127.991C15.9912 189.842 53.3067 239.982 127.982 239.982Z" fill="url(#paint2_radial_7159_2149)" fill-opacity="0.6"/>
<path d="M127.982 239.982C202.658 239.982 239.973 189.842 239.973 127.991C239.973 66.1401 202.658 16 127.982 16C53.3067 16 15.9912 66.1401 15.9912 127.991C15.9912 189.842 53.3067 239.982 127.982 239.982Z" fill="url(#paint3_radial_7159_2149)"/>
<path d="M127.982 239.982C202.658 239.982 239.973 189.842 239.973 127.991C239.973 66.1401 202.658 16 127.982 16C53.3067 16 15.9912 66.1401 15.9912 127.991C15.9912 189.842 53.3067 239.982 127.982 239.982Z" fill="url(#paint4_radial_7159_2149)"/>
<path d="M127.982 239.982C202.658 239.982 239.973 189.842 239.973 127.991C239.973 66.1401 202.658 16 127.982 16C53.3067 16 15.9912 66.1401 15.9912 127.991C15.9912 189.842 53.3067 239.982 127.982 239.982Z" fill="url(#paint5_radial_7159_2149)"/>
<path d="M127.982 239.982C202.658 239.982 239.973 189.842 239.973 127.991C239.973 66.1401 202.658 16 127.982 16C53.3067 16 15.9912 66.1401 15.9912 127.991C15.9912 189.842 53.3067 239.982 127.982 239.982Z" fill="url(#paint6_radial_7159_2149)"/>
<path d="M127.982 239.982C202.658 239.982 239.973 189.842 239.973 127.991C239.973 66.1401 202.658 16 127.982 16C53.3067 16 15.9912 66.1401 15.9912 127.991C15.9912 189.842 53.3067 239.982 127.982 239.982Z" fill="url(#paint7_radial_7159_2149)"/>
<path d="M127.982 239.982C202.658 239.982 239.973 189.842 239.973 127.991C239.973 66.1401 202.658 16 127.982 16C53.3067 16 15.9912 66.1401 15.9912 127.991C15.9912 189.842 53.3067 239.982 127.982 239.982Z" fill="url(#paint8_radial_7159_2149)"/>
<path fill-rule="evenodd" clip-rule="evenodd" d="M97.1226 147.345C97.136 147.364 97.1492 147.383 97.1625 147.402L97.1496 147.383L97.1356 147.364L97.1226 147.345C94.5734 143.78 89.6219 142.928 86.0248 145.448C82.4065 147.984 81.5289 152.973 84.0645 156.591L84.1298 156.545C84.1287 156.543 84.1309 156.547 84.1298 156.545C84.0651 156.591 84.069 156.597 84.0695 156.598L84.0749 156.606L84.0863 156.622L84.1127 156.659L84.1786 156.75C84.2286 156.819 84.2905 156.903 84.3645 157.001C84.5124 157.197 84.709 157.45 84.9553 157.751C85.4476 158.353 86.1408 159.152 87.0438 160.08C88.8477 161.933 91.5067 164.319 95.0922 166.681C102.32 171.441 113.173 176 127.991 176C142.808 176 153.661 171.441 160.89 166.681C164.475 164.319 167.134 161.933 168.938 160.08C169.841 159.152 170.534 158.353 171.027 157.751C171.273 157.45 171.469 157.197 171.617 157.001C171.691 156.903 171.753 156.819 171.803 156.75L171.869 156.659L171.896 156.622L171.907 156.606L171.912 156.598C171.913 156.597 171.913 156.597 171.883 156.575C171.882 156.577 171.885 156.573 171.883 156.575L171.917 156.591C174.453 152.973 173.575 147.984 169.957 145.448C166.36 142.927 161.408 143.78 158.859 147.345C158.857 147.349 158.854 147.353 158.85 147.358C158.821 147.396 158.751 147.487 158.64 147.624C158.416 147.896 158.029 148.348 157.472 148.92C156.356 150.067 154.577 151.68 152.089 153.319C147.17 156.558 139.336 160 127.991 160C116.646 160 108.811 156.558 103.893 153.319C101.405 151.68 99.6256 150.067 98.5095 148.92C97.9526 148.348 97.5654 147.896 97.3423 147.624C97.2309 147.487 97.1647 147.402 97.1356 147.364L97.1226 147.345ZM158.859 147.345C158.846 147.364 158.833 147.383 158.819 147.402L158.832 147.383L158.85 147.358C158.854 147.353 158.857 147.349 158.859 147.345C158.866 147.336 158.864 147.339 158.859 147.345Z" fill="url(#paint9_radial_7159_2149)"/>
<path fill-rule="evenodd" clip-rule="evenodd" d="M102.368 45.3311C108.153 47.6367 112.87 51.5754 116.126 56.5964C116.328 56.9087 116.682 57.0905 117.054 57.065C123.134 56.6469 130.696 56.513 138.898 57.1073C139.271 57.1343 139.628 56.9518 139.831 56.6375C143.087 51.5969 147.814 47.643 153.616 45.3311C155.224 44.6438 158.002 43.6151 164.889 42.331C169.055 41.5544 178.965 41.1279 185.655 40.9761C192.56 40.8194 199.985 40.8253 205.537 40.8297L208.053 40.8311C217.568 40.8311 226.955 43.8375 230.678 46.0811C239.053 50.3311 246.803 58.4561 247.359 72.4378C247.382 72.6469 247.397 72.8577 247.403 73.0698C248.063 94.5768 234.708 125.337 200.659 133.766C198.266 134.359 195.914 134.789 193.554 135.114C193.44 135.13 193.325 135.144 193.209 135.154C157.272 138.522 134.069 106.693 134.868 73.4782C134.875 73.1513 134.622 72.875 134.296 72.8597C129.722 72.6452 125.447 72.6728 121.689 72.8314C121.361 72.8453 121.107 73.1224 121.115 73.4506C121.941 106.675 98.7123 138.522 62.7738 135.154C62.6585 135.144 62.5435 135.13 62.4288 135.114C60.0696 134.789 57.7173 134.359 55.324 133.766C21.2754 125.337 7.92011 94.5768 8.57985 73.0698C8.58635 72.8577 8.60124 72.6469 8.62429 72.4378C9.18009 58.4561 16.9301 50.3311 25.3051 46.0811C29.0277 43.8375 38.415 40.8311 47.93 40.8311L50.4466 40.8297C55.9981 40.8253 63.4229 40.8194 70.3278 40.9761C77.0178 41.1279 86.9284 41.5544 91.094 42.331C97.981 43.6151 100.759 44.6438 102.368 45.3311ZM19.9157 65.3205C21.9148 60.4515 25.6255 56.4725 30.6211 53.4616C33.4301 51.7686 40.2153 48.8311 47.93 48.8311L50.416 48.8297C61.5572 48.8208 79.8112 48.8063 86.6488 50.0811C93.2765 51.3168 95.4196 52.2165 96.3363 52.6123C100.092 54.0906 103.367 56.5243 105.863 59.614L108.597 74.1304C109.249 74.0076 110.052 73.8769 110.989 73.7464C110.991 73.8786 110.993 74.0109 110.993 74.1436L110.991 74.3932C112.429 108.081 86.7738 128.385 62.7738 126.135C60.6521 125.842 58.5809 125.461 56.4999 124.946C31.2176 118.687 20.6032 98.7684 18.5839 81.1411C18.2729 78.4266 18.1658 75.7663 18.2403 73.2187L18.2424 73.1471L18.2586 73.1477L18.2615 73.0698C18.3729 70.281 18.9407 67.6949 19.9157 65.3205ZM144.993 73.7975C144.991 73.9126 144.991 74.028 144.991 74.1436L144.992 74.3932C143.554 108.081 169.209 128.385 193.209 126.135C195.331 125.842 197.402 125.461 199.483 124.946C224.766 118.687 235.38 98.7684 237.399 81.1411C237.71 78.4266 237.817 75.7663 237.743 73.2187L237.741 73.1471L237.725 73.1477L237.722 73.0698C237.61 70.281 237.042 67.6949 236.068 65.3205C234.068 60.4515 230.358 56.4725 225.362 53.4616C222.553 51.7686 215.768 48.8311 208.053 48.8311L205.567 48.8297C194.426 48.8208 176.172 48.8063 169.334 50.0811C162.707 51.3168 160.564 52.2165 159.647 52.6123C155.747 54.1471 152.366 56.7119 149.837 59.9713L147.648 74.1753C146.76 74.0384 145.874 73.9127 144.993 73.7975Z" fill="url(#paint10_radial_7159_2149)"/>
<path fill-rule="evenodd" clip-rule="evenodd" d="M102.368 45.3311C108.153 47.6367 112.87 51.5754 116.126 56.5964C116.328 56.9087 116.682 57.0905 117.054 57.065C123.134 56.6469 130.696 56.513 138.898 57.1073C139.271 57.1343 139.628 56.9518 139.831 56.6375C143.087 51.5969 147.814 47.643 153.616 45.3311C155.224 44.6438 158.002 43.6151 164.889 42.331C169.055 41.5544 178.965 41.1279 185.655 40.9761C192.56 40.8194 199.985 40.8253 205.537 40.8297L208.053 40.8311C217.568 40.8311 226.955 43.8375 230.678 46.0811C239.053 50.3311 246.803 58.4561 247.359 72.4378C247.382 72.6469 247.397 72.8577 247.403 73.0698C248.063 94.5768 234.708 125.337 200.659 133.766C198.266 134.359 195.914 134.789 193.554 135.114C193.44 135.13 193.325 135.144 193.209 135.154C157.272 138.522 134.069 106.693 134.868 73.4782C134.875 73.1513 134.622 72.875 134.296 72.8597C129.722 72.6452 125.447 72.6728 121.689 72.8314C121.361 72.8453 121.107 73.1224 121.115 73.4506C121.941 106.675 98.7123 138.522 62.7738 135.154C62.6585 135.144 62.5435 135.13 62.4288 135.114C60.0696 134.789 57.7173 134.359 55.324 133.766C21.2754 125.337 7.92011 94.5768 8.57985 73.0698C8.58635 72.8577 8.60124 72.6469 8.62429 72.4378C9.18009 58.4561 16.9301 50.3311 25.3051 46.0811C29.0277 43.8375 38.415 40.8311 47.93 40.8311L50.4466 40.8297C55.9981 40.8253 63.4229 40.8194 70.3278 40.9761C77.0178 41.1279 86.9284 41.5544 91.094 42.331C97.981 43.6151 100.759 44.6438 102.368 45.3311ZM19.9157 65.3205C21.9148 60.4515 25.6255 56.4725 30.6211 53.4616C33.4301 51.7686 40.2153 48.8311 47.93 48.8311L50.416 48.8297C61.5572 48.8208 79.8112 48.8063 86.6488 50.0811C93.2765 51.3168 95.4196 52.2165 96.3363 52.6123C100.092 54.0906 103.367 56.5243 105.863 59.614L108.597 74.1304C109.249 74.0076 110.052 73.8769 110.989 73.7464C110.991 73.8786 110.993 74.0109 110.993 74.1436L110.991 74.3932C112.429 108.081 86.7738 128.385 62.7738 126.135C60.6521 125.842 58.5809 125.461 56.4999 124.946C31.2176 118.687 20.6032 98.7684 18.5839 81.1411C18.2729 78.4266 18.1658 75.7663 18.2403 73.2187L18.2424 73.1471L18.2586 73.1477L18.2615 73.0698C18.3729 70.281 18.9407 67.6949 19.9157 65.3205ZM144.993 73.7975C144.991 73.9126 144.991 74.028 144.991 74.1436L144.992 74.3932C143.554 108.081 169.209 128.385 193.209 126.135C195.331 125.842 197.402 125.461 199.483 124.946C224.766 118.687 235.38 98.7684 237.399 81.1411C237.71 78.4266 237.817 75.7663 237.743 73.2187L237.741 73.1471L237.725 73.1477L237.722 73.0698C237.61 70.281 237.042 67.6949 236.068 65.3205C234.068 60.4515 230.358 56.4725 225.362 53.4616C222.553 51.7686 215.768 48.8311 208.053 48.8311L205.567 48.8297C194.426 48.8208 176.172 48.8063 169.334 50.0811C162.707 51.3168 160.564 52.2165 159.647 52.6123C155.747 54.1471 152.366 56.7119 149.837 59.9713L147.648 74.1753C146.76 74.0384 145.874 73.9127 144.993 73.7975Z" fill="url(#paint11_radial_7159_2149)"/>
<path fill-rule="evenodd" clip-rule="evenodd" d="M102.368 45.3311C108.153 47.6367 112.87 51.5754 116.126 56.5964C116.328 56.9087 116.682 57.0905 117.054 57.065C123.134 56.6469 130.696 56.513 138.898 57.1073C139.271 57.1343 139.628 56.9518 139.831 56.6375C143.087 51.5969 147.814 47.643 153.616 45.3311C155.224 44.6438 158.002 43.6151 164.889 42.331C169.055 41.5544 178.965 41.1279 185.655 40.9761C192.56 40.8194 199.985 40.8253 205.537 40.8297L208.053 40.8311C217.568 40.8311 226.955 43.8375 230.678 46.0811C239.053 50.3311 246.803 58.4561 247.359 72.4378C247.382 72.6469 247.397 72.8577 247.403 73.0698C248.063 94.5768 234.708 125.337 200.659 133.766C198.266 134.359 195.914 134.789 193.554 135.114C193.44 135.13 193.325 135.144 193.209 135.154C157.272 138.522 134.069 106.693 134.868 73.4782C134.875 73.1513 134.622 72.875 134.296 72.8597C129.722 72.6452 125.447 72.6728 121.689 72.8314C121.361 72.8453 121.107 73.1224 121.115 73.4506C121.941 106.675 98.7123 138.522 62.7738 135.154C62.6585 135.144 62.5435 135.13 62.4288 135.114C60.0696 134.789 57.7173 134.359 55.324 133.766C21.2754 125.337 7.92011 94.5768 8.57985 73.0698C8.58635 72.8577 8.60124 72.6469 8.62429 72.4378C9.18009 58.4561 16.9301 50.3311 25.3051 46.0811C29.0277 43.8375 38.415 40.8311 47.93 40.8311L50.4466 40.8297C55.9981 40.8253 63.4229 40.8194 70.3278 40.9761C77.0178 41.1279 86.9284 41.5544 91.094 42.331C97.981 43.6151 100.759 44.6438 102.368 45.3311ZM19.9157 65.3205C21.9148 60.4515 25.6255 56.4725 30.6211 53.4616C33.4301 51.7686 40.2153 48.8311 47.93 48.8311L50.416 48.8297C61.5572 48.8208 79.8112 48.8063 86.6488 50.0811C93.2765 51.3168 95.4196 52.2165 96.3363 52.6123C100.092 54.0906 103.367 56.5243 105.863 59.614L108.597 74.1304C109.249 74.0076 110.052 73.8769 110.989 73.7464C110.991 73.8786 110.993 74.0109 110.993 74.1436L110.991 74.3932C112.429 108.081 86.7738 128.385 62.7738 126.135C60.6521 125.842 58.5809 125.461 56.4999 124.946C31.2176 118.687 20.6032 98.7684 18.5839 81.1411C18.2729 78.4266 18.1658 75.7663 18.2403 73.2187L18.2424 73.1471L18.2586 73.1477L18.2615 73.0698C18.3729 70.281 18.9407 67.6949 19.9157 65.3205ZM144.993 73.7975C144.991 73.9126 144.991 74.028 144.991 74.1436L144.992 74.3932C143.554 108.081 169.209 128.385 193.209 126.135C195.331 125.842 197.402 125.461 199.483 124.946C224.766 118.687 235.38 98.7684 237.399 81.1411C237.71 78.4266 237.817 75.7663 237.743 73.2187L237.741 73.1471L237.725 73.1477L237.722 73.0698C237.61 70.281 237.042 67.6949 236.068 65.3205C234.068 60.4515 230.358 56.4725 225.362 53.4616C222.553 51.7686 215.768 48.8311 208.053 48.8311L205.567 48.8297C194.426 48.8208 176.172 48.8063 169.334 50.0811C162.707 51.3168 160.564 52.2165 159.647 52.6123C155.747 54.1471 152.366 56.7119 149.837 59.9713L147.648 74.1753C146.76 74.0384 145.874 73.9127 144.993 73.7975Z" fill="url(#paint12_radial_7159_2149)"/>
<path d="M30.6213 53.4616C33.4303 51.7686 40.2155 48.8311 47.9303 48.8311C48.709 48.8311 49.5406 48.8304 50.4162 48.8297C61.5574 48.8208 79.8114 48.8063 86.649 50.0811C93.2767 51.3167 95.4198 52.2165 96.3365 52.6123C104.921 55.9907 110.993 64.36 110.993 74.1436L110.991 74.3932C112.429 108.081 86.774 128.385 62.774 126.135C60.6523 125.842 58.5811 125.461 56.5001 124.946C27.2861 117.713 17.6569 92.2431 18.2428 73.1436L18.2588 73.1477C18.5734 64.6029 23.1669 57.9545 30.6213 53.4616Z" fill="url(#paint13_radial_7159_2149)"/>
<path d="M30.6213 53.4616C33.4303 51.7686 40.2155 48.8311 47.9303 48.8311C48.709 48.8311 49.5406 48.8304 50.4162 48.8297C61.5574 48.8208 79.8114 48.8063 86.649 50.0811C93.2767 51.3167 95.4198 52.2165 96.3365 52.6123C104.921 55.9907 110.993 64.36 110.993 74.1436L110.991 74.3932C112.429 108.081 86.774 128.385 62.774 126.135C60.6523 125.842 58.5811 125.461 56.5001 124.946C27.2861 117.713 17.6569 92.2431 18.2428 73.1436L18.2588 73.1477C18.5734 64.6029 23.1669 57.9545 30.6213 53.4616Z" fill="url(#paint14_radial_7159_2149)"/>
<path d="M30.6213 53.4616C33.4303 51.7686 40.2155 48.8311 47.9303 48.8311C48.709 48.8311 49.5406 48.8304 50.4162 48.8297C61.5574 48.8208 79.8114 48.8063 86.649 50.0811C93.2767 51.3167 95.4198 52.2165 96.3365 52.6123C104.921 55.9907 110.993 64.36 110.993 74.1436L110.991 74.3932C112.429 108.081 86.774 128.385 62.774 126.135C60.6523 125.842 58.5811 125.461 56.5001 124.946C27.2861 117.713 17.6569 92.2431 18.2428 73.1436L18.2588 73.1477C18.5734 64.6029 23.1669 57.9545 30.6213 53.4616Z" fill="url(#paint15_radial_7159_2149)"/>
<path d="M30.6213 53.4616C33.4303 51.7686 40.2155 48.8311 47.9303 48.8311C48.709 48.8311 49.5406 48.8304 50.4162 48.8297C61.5574 48.8208 79.8114 48.8063 86.649 50.0811C93.2767 51.3167 95.4198 52.2165 96.3365 52.6123C104.921 55.9907 110.993 64.36 110.993 74.1436L110.991 74.3932C112.429 108.081 86.774 128.385 62.774 126.135C60.6523 125.842 58.5811 125.461 56.5001 124.946C27.2861 117.713 17.6569 92.2431 18.2428 73.1436L18.2588 73.1477C18.5734 64.6029 23.1669 57.9545 30.6213 53.4616Z" fill="url(#paint16_radial_7159_2149)"/>
<ellipse cx="89.1049" cy="73.1426" rx="11.9535" ry="15.0328" transform="rotate(-25.8832 89.1049 73.1426)" fill="url(#paint17_linear_7159_2149)"/>
<path d="M225.362 53.4616C222.553 51.7686 215.768 48.8311 208.053 48.8311C207.274 48.8311 206.443 48.8304 205.567 48.8297C194.426 48.8208 176.172 48.8063 169.334 50.0811C162.707 51.3167 160.564 52.2165 159.647 52.6123C151.063 55.9907 144.991 64.36 144.991 74.1436L144.992 74.3932C143.554 108.081 169.209 128.385 193.209 126.135C195.331 125.842 197.402 125.461 199.483 124.946C228.697 117.713 238.327 92.2431 237.741 73.1436L237.725 73.1477C237.41 64.6029 232.817 57.9545 225.362 53.4616Z" fill="url(#paint18_radial_7159_2149)"/>
<path d="M225.362 53.4616C222.553 51.7686 215.768 48.8311 208.053 48.8311C207.274 48.8311 206.443 48.8304 205.567 48.8297C194.426 48.8208 176.172 48.8063 169.334 50.0811C162.707 51.3167 160.564 52.2165 159.647 52.6123C151.063 55.9907 144.991 64.36 144.991 74.1436L144.992 74.3932C143.554 108.081 169.209 128.385 193.209 126.135C195.331 125.842 197.402 125.461 199.483 124.946C228.697 117.713 238.327 92.2431 237.741 73.1436L237.725 73.1477C237.41 64.6029 232.817 57.9545 225.362 53.4616Z" fill="url(#paint19_radial_7159_2149)"/>
<path d="M225.362 53.4616C222.553 51.7686 215.768 48.8311 208.053 48.8311C207.274 48.8311 206.443 48.8304 205.567 48.8297C194.426 48.8208 176.172 48.8063 169.334 50.0811C162.707 51.3167 160.564 52.2165 159.647 52.6123C151.063 55.9907 144.991 64.36 144.991 74.1436L144.992 74.3932C143.554 108.081 169.209 128.385 193.209 126.135C195.331 125.842 197.402 125.461 199.483 124.946C228.697 117.713 238.327 92.2431 237.741 73.1436L237.725 73.1477C237.41 64.6029 232.817 57.9545 225.362 53.4616Z" fill="url(#paint20_radial_7159_2149)"/>
<path d="M225.362 53.4616C222.553 51.7686 215.768 48.8311 208.053 48.8311C207.274 48.8311 206.443 48.8304 205.567 48.8297C194.426 48.8208 176.172 48.8063 169.334 50.0811C162.707 51.3167 160.564 52.2165 159.647 52.6123C151.063 55.9907 144.991 64.36 144.991 74.1436L144.992 74.3932C143.554 108.081 169.209 128.385 193.209 126.135C195.331 125.842 197.402 125.461 199.483 124.946C228.697 117.713 238.327 92.2431 237.741 73.1436L237.725 73.1477C237.41 64.6029 232.817 57.9545 225.362 53.4616Z" fill="url(#paint21_radial_7159_2149)"/>
<ellipse cx="217.378" cy="73.1426" rx="11.9535" ry="15.0328" transform="rotate(-25.8832 217.378 73.1426)" fill="url(#paint22_linear_7159_2149)"/>
<defs>
<radialGradient id="paint0_radial_7159_2149" cx="0" cy="0" r="1" gradientUnits="userSpaceOnUse" gradientTransform="translate(203.991 72) rotate(131.878) scale(311.589)">
<stop stop-color="#FFF478"/>
<stop offset="0.474827" stop-color="#FFB02E"/>
<stop offset="1" stop-color="#F70A8D"/>
</radialGradient>
<radialGradient id="paint1_radial_7159_2149" cx="0" cy="0" r="1" gradientUnits="userSpaceOnUse" gradientTransform="translate(127.991 100) rotate(101.31) scale(142.773 182.864)">
<stop offset="0.787821" stop-color="#F59639" stop-opacity="0"/>
<stop offset="0.972509" stop-color="#FF7DCE"/>
</radialGradient>
<radialGradient id="paint2_radial_7159_2149" cx="0" cy="0" r="1" gradientUnits="userSpaceOnUse" gradientTransform="translate(143.991 112) rotate(135) scale(328.098)">
<stop offset="0.314853" stop-opacity="0"/>
<stop offset="1"/>
</radialGradient>
<radialGradient id="paint3_radial_7159_2149" cx="0" cy="0" r="1" gradientUnits="userSpaceOnUse" gradientTransform="translate(127.991 136) rotate(77.692) scale(225.175)">
<stop offset="0.507903" stop-color="#7D6133" stop-opacity="0"/>
<stop offset="1" stop-color="#715B32"/>
</radialGradient>
<radialGradient id="paint4_radial_7159_2149" cx="0" cy="0" r="1" gradientUnits="userSpaceOnUse" gradientTransform="translate(131.991 132) rotate(55.7131) scale(106.508 77.2025)">
<stop stop-color="#FFB849"/>
<stop offset="1" stop-color="#FFB847" stop-opacity="0"/>
</radialGradient>
<radialGradient id="paint5_radial_7159_2149" cx="0" cy="0" r="1" gradientUnits="userSpaceOnUse" gradientTransform="translate(163.991 144) rotate(9.86581) scale(93.3809)">
<stop stop-color="#FFA64B"/>
<stop offset="0.900412" stop-color="#FFAE46" stop-opacity="0"/>
</radialGradient>
<radialGradient id="paint6_radial_7159_2149" cx="0" cy="0" r="1" gradientUnits="userSpaceOnUse" gradientTransform="translate(139.991 120) rotate(43.9708) scale(472.424)">
<stop offset="0.185425" stop-opacity="0"/>
<stop offset="1" stop-opacity="0.4"/>
</radialGradient>
<radialGradient id="paint7_radial_7159_2149" cx="0" cy="0" r="1" gradientUnits="userSpaceOnUse" gradientTransform="translate(174.064 94.2472) rotate(124.346) scale(50.2972 61.7912)">
<stop offset="0.440361" stop-color="#BC6533"/>
<stop offset="1" stop-color="#BC6533" stop-opacity="0"/>
</radialGradient>
<radialGradient id="paint8_radial_7159_2149" cx="0" cy="0" r="1" gradientUnits="userSpaceOnUse" gradientTransform="translate(60.4372 91.5344) rotate(67.4259) scale(59.1491)">
<stop offset="0.538073" stop-color="#BC6533"/>
<stop offset="1" stop-color="#BC6533" stop-opacity="0"/>
</radialGradient>
<radialGradient id="paint9_radial_7159_2149" cx="0" cy="0" r="1" gradientUnits="userSpaceOnUse" gradientTransform="translate(127.991 142.518) rotate(90) scale(87.5 134.947)">
<stop offset="0.145833" stop-color="#2E1529"/>
<stop offset="0.276042" stop-color="#503A4A"/>
<stop offset="0.342857" stop-color="#4B2744"/>
</radialGradient>
<radialGradient id="paint10_radial_7159_2149" cx="0" cy="0" r="1" gradientUnits="userSpaceOnUse" gradientTransform="translate(168.991 46.0186) rotate(78.8614) scale(98.3527 203.81)">
<stop stop-color="#5F5B9B"/>
<stop offset="1" stop-color="#5C3085"/>
</radialGradient>
<radialGradient id="paint11_radial_7159_2149" cx="0" cy="0" r="1" gradientUnits="userSpaceOnUse" gradientTransform="translate(191.117 88.108) rotate(78.0636) scale(44.1145 49.5583)">
<stop offset="0.776042" stop-color="#77579C"/>
<stop offset="0.9375" stop-color="#77579C" stop-opacity="0"/>
</radialGradient>
<radialGradient id="paint12_radial_7159_2149" cx="0" cy="0" r="1" gradientUnits="userSpaceOnUse" gradientTransform="translate(174.991 80.0186) rotate(-122.735) scale(37.4475 27.4885)">
<stop offset="0.769354" stop-color="#4E3D92"/>
<stop offset="1" stop-color="#534687" stop-opacity="0"/>
</radialGradient>
<radialGradient id="paint13_radial_7159_2149" cx="0" cy="0" r="1" gradientUnits="userSpaceOnUse" gradientTransform="translate(85.4918 72.5186) rotate(121.845) scale(47.3821 53.827)">
<stop stop-color="#4C3D70"/>
<stop offset="1" stop-color="#361C5D"/>
</radialGradient>
<radialGradient id="paint14_radial_7159_2149" cx="0" cy="0" r="1" gradientUnits="userSpaceOnUse" gradientTransform="translate(75.7428 73.7686) rotate(87.1376) scale(60.075 89.2075)">
<stop offset="0.647365" stop-color="#5B2B84" stop-opacity="0"/>
<stop offset="1" stop-color="#5B2B84"/>
</radialGradient>
<radialGradient id="paint15_radial_7159_2149" cx="0" cy="0" r="1" gradientUnits="userSpaceOnUse" gradientTransform="translate(62.2428 134.269) rotate(-99.5134) scale(92.269 91.3725)">
<stop offset="0.858612" stop-color="#2E1D57" stop-opacity="0"/>
<stop offset="1" stop-color="#20143D"/>
</radialGradient>
<radialGradient id="paint16_radial_7159_2149" cx="0" cy="0" r="1" gradientUnits="userSpaceOnUse" gradientTransform="translate(69.9928 67.7686) rotate(102.225) scale(61.3922 57.6177)">
<stop offset="0.872281" stop-color="#2E1D57" stop-opacity="0"/>
<stop offset="1" stop-color="#20143D" stop-opacity="0.6"/>
</radialGradient>
<linearGradient id="paint17_linear_7159_2149" x1="94.3352" y1="62.3631" x2="83.187" y2="87.659" gradientUnits="userSpaceOnUse">
<stop stop-color="white"/>
<stop offset="0.973958" stop-color="white" stop-opacity="0"/>
</linearGradient>
<radialGradient id="paint18_radial_7159_2149" cx="0" cy="0" r="1" gradientUnits="userSpaceOnUse" gradientTransform="translate(197.242 69.2686) rotate(121.289) scale(52.951 79.5368)">
<stop stop-color="#4C3D70"/>
<stop offset="1" stop-color="#361C5D"/>
</radialGradient>
<radialGradient id="paint19_radial_7159_2149" cx="0" cy="0" r="1" gradientUnits="userSpaceOnUse" gradientTransform="translate(180.241 73.7686) rotate(92.8624) scale(60.075 89.2075)">
<stop offset="0.647365" stop-color="#5B2B84" stop-opacity="0"/>
<stop offset="1" stop-color="#5B2B84"/>
</radialGradient>
<radialGradient id="paint20_radial_7159_2149" cx="0" cy="0" r="1" gradientUnits="userSpaceOnUse" gradientTransform="translate(191.35 123.519) rotate(-77.6023) scale(82.166 81.3677)">
<stop offset="0.858612" stop-color="#2E1D57" stop-opacity="0"/>
<stop offset="1" stop-color="#20143D"/>
</radialGradient>
<radialGradient id="paint21_radial_7159_2149" cx="0" cy="0" r="1" gradientUnits="userSpaceOnUse" gradientTransform="translate(185.991 67.7686) rotate(77.7749) scale(61.3922 57.6177)">
<stop offset="0.872281" stop-color="#2E1D57" stop-opacity="0"/>
<stop offset="1" stop-color="#20143D" stop-opacity="0.6"/>
</radialGradient>
<linearGradient id="paint22_linear_7159_2149" x1="222.609" y1="62.3631" x2="211.46" y2="87.659" gradientUnits="userSpaceOnUse">
<stop stop-color="white"/>
<stop offset="0.973958" stop-color="white" stop-opacity="0"/>
</linearGradient>
</defs>
</svg>
