<svg width="256" height="256" viewBox="0 0 256 256" fill="none" xmlns="http://www.w3.org/2000/svg">
<path d="M127.991 239.982C202.667 239.982 239.982 189.842 239.982 127.991C239.982 66.1401 202.667 16 127.991 16C53.3155 16 16 66.1401 16 127.991C16 189.842 53.3155 239.982 127.991 239.982Z" fill="url(#paint0_radial_7159_2152)"/>
<path d="M127.991 239.982C202.667 239.982 239.982 189.842 239.982 127.991C239.982 66.1401 202.667 16 127.991 16C53.3155 16 16 66.1401 16 127.991C16 189.842 53.3155 239.982 127.991 239.982Z" fill="url(#paint1_radial_7159_2152)" fill-opacity="0.6"/>
<path d="M127.991 239.982C202.667 239.982 239.982 189.842 239.982 127.991C239.982 66.1401 202.667 16 127.991 16C53.3155 16 16 66.1401 16 127.991C16 189.842 53.3155 239.982 127.991 239.982Z" fill="url(#paint2_radial_7159_2152)"/>
<path d="M127.991 239.982C202.667 239.982 239.982 189.842 239.982 127.991C239.982 66.1401 202.667 16 127.991 16C53.3155 16 16 66.1401 16 127.991C16 189.842 53.3155 239.982 127.991 239.982Z" fill="url(#paint3_radial_7159_2152)"/>
<path d="M127.991 239.982C202.667 239.982 239.982 189.842 239.982 127.991C239.982 66.1401 202.667 16 127.991 16C53.3155 16 16 66.1401 16 127.991C16 189.842 53.3155 239.982 127.991 239.982Z" fill="url(#paint4_radial_7159_2152)"/>
<path d="M127.991 239.982C202.667 239.982 239.982 189.842 239.982 127.991C239.982 66.1401 202.667 16 127.991 16C53.3155 16 16 66.1401 16 127.991C16 189.842 53.3155 239.982 127.991 239.982Z" fill="url(#paint5_radial_7159_2152)"/>
<path d="M127.991 239.982C202.667 239.982 239.982 189.842 239.982 127.991C239.982 66.1401 202.667 16 127.991 16C53.3155 16 16 66.1401 16 127.991C16 189.842 53.3155 239.982 127.991 239.982Z" fill="url(#paint6_radial_7159_2152)"/>
<path d="M127.991 239.982C202.667 239.982 239.982 189.842 239.982 127.991C239.982 66.1401 202.667 16 127.991 16C53.3155 16 16 66.1401 16 127.991C16 189.842 53.3155 239.982 127.991 239.982Z" fill="url(#paint7_radial_7159_2152)"/>
<path d="M127.991 239.982C202.667 239.982 239.982 189.842 239.982 127.991C239.982 66.1401 202.667 16 127.991 16C53.3155 16 16 66.1401 16 127.991C16 189.842 53.3155 239.982 127.991 239.982Z" fill="url(#paint8_radial_7159_2152)"/>
<path d="M127.991 239.982C202.667 239.982 239.982 189.842 239.982 127.991C239.982 66.1401 202.667 16 127.991 16C53.3155 16 16 66.1401 16 127.991C16 189.842 53.3155 239.982 127.991 239.982Z" fill="url(#paint9_radial_7159_2152)"/>
<path d="M127.991 239.982C202.667 239.982 239.982 189.842 239.982 127.991C239.982 66.1401 202.667 16 127.991 16C53.3155 16 16 66.1401 16 127.991C16 189.842 53.3155 239.982 127.991 239.982Z" fill="url(#paint10_radial_7159_2152)"/>
<path d="M127.991 239.982C202.667 239.982 239.982 189.842 239.982 127.991C239.982 66.1401 202.667 16 127.991 16C53.3155 16 16 66.1401 16 127.991C16 189.842 53.3155 239.982 127.991 239.982Z" fill="url(#paint11_radial_7159_2152)"/>
<path d="M127.991 239.982C202.667 239.982 239.982 189.842 239.982 127.991C239.982 66.1401 202.667 16 127.991 16C53.3155 16 16 66.1401 16 127.991C16 189.842 53.3155 239.982 127.991 239.982Z" fill="url(#paint12_radial_7159_2152)"/>
<path d="M127.991 239.982C202.667 239.982 239.982 189.842 239.982 127.991C239.982 66.1401 202.667 16 127.991 16C53.3155 16 16 66.1401 16 127.991C16 189.842 53.3155 239.982 127.991 239.982Z" fill="url(#paint13_radial_7159_2152)"/>
<path d="M127.991 239.982C202.667 239.982 239.982 189.842 239.982 127.991C239.982 66.1401 202.667 16 127.991 16C53.3155 16 16 66.1401 16 127.991C16 189.842 53.3155 239.982 127.991 239.982Z" fill="url(#paint14_radial_7159_2152)"/>
<path d="M127.991 239.982C202.667 239.982 239.982 189.842 239.982 127.991C239.982 66.1401 202.667 16 127.991 16C53.3155 16 16 66.1401 16 127.991C16 189.842 53.3155 239.982 127.991 239.982Z" fill="url(#paint15_radial_7159_2152)"/>
<path d="M127.991 239.982C202.667 239.982 239.982 189.842 239.982 127.991C239.982 66.1401 202.667 16 127.991 16C53.3155 16 16 66.1401 16 127.991C16 189.842 53.3155 239.982 127.991 239.982Z" fill="url(#paint16_radial_7159_2152)"/>
<path d="M127.991 239.982C202.667 239.982 239.982 189.842 239.982 127.991C239.982 66.1401 202.667 16 127.991 16C53.3155 16 16 66.1401 16 127.991C16 189.842 53.3155 239.982 127.991 239.982Z" fill="url(#paint17_radial_7159_2152)"/>
<path d="M127.991 239.982C202.667 239.982 239.982 189.842 239.982 127.991C239.982 66.1401 202.667 16 127.991 16C53.3155 16 16 66.1401 16 127.991C16 189.842 53.3155 239.982 127.991 239.982Z" fill="url(#paint18_radial_7159_2152)"/>
<path d="M127.991 239.982C202.667 239.982 239.982 189.842 239.982 127.991C239.982 66.1401 202.667 16 127.991 16C53.3155 16 16 66.1401 16 127.991C16 189.842 53.3155 239.982 127.991 239.982Z" fill="url(#paint19_radial_7159_2152)"/>
<path d="M127.991 239.982C202.667 239.982 239.982 189.842 239.982 127.991C239.982 66.1401 202.667 16 127.991 16C53.3155 16 16 66.1401 16 127.991C16 189.842 53.3155 239.982 127.991 239.982Z" fill="url(#paint20_radial_7159_2152)"/>
<path d="M84 110C102.778 110 118 125.222 118 144C118 162.778 102.778 178 84 178C65.2223 178 50 162.778 50 144C50 125.222 65.2223 110 84 110ZM172 110C190.778 110 206 125.222 206 144C206 162.778 190.778 178 172 178C153.222 178 138 162.778 138 144C138 125.222 153.222 110 172 110Z" fill="white"/>
<path fill-rule="evenodd" clip-rule="evenodd" d="M87.8199 88.5393L87.8141 88.5165L87.8427 88.6191C87.8735 88.7266 87.9286 88.9121 88.0112 89.1645C88.1769 89.6705 88.4504 90.4372 88.8551 91.3773C89.6706 93.2713 90.9832 95.7855 92.9547 98.2758C96.7927 103.124 103.17 108 114 108C117.314 108 120 110.686 120 114C120 117.314 117.314 120 114 120C98.8314 120 89.2082 112.876 83.5462 105.724C80.7676 102.215 78.9553 98.7287 77.8333 96.1227C77.2693 94.8128 76.8709 93.7045 76.6068 92.898C76.4746 92.4942 76.3755 92.1641 76.3056 91.92C76.2707 91.7979 76.243 91.6971 76.2222 91.6192L76.196 91.5196L76.1866 91.4829L76.1828 91.4679C76.1779 91.4486 76.1796 91.4552 76.1796 91.4552C75.3759 88.2404 77.3305 84.9828 80.5452 84.1791C83.7505 83.3778 86.9984 85.3187 87.8141 88.5165L87.8165 88.5258L87.8199 88.5393Z" fill="url(#paint21_radial_7159_2152)"/>
<path fill-rule="evenodd" clip-rule="evenodd" d="M87.8199 88.5393L87.8141 88.5165L87.8427 88.6191C87.8735 88.7266 87.9286 88.9121 88.0112 89.1645C88.1769 89.6705 88.4504 90.4372 88.8551 91.3773C89.6706 93.2713 90.9832 95.7855 92.9547 98.2758C96.7927 103.124 103.17 108 114 108C117.314 108 120 110.686 120 114C120 117.314 117.314 120 114 120C98.8314 120 89.2082 112.876 83.5462 105.724C80.7676 102.215 78.9553 98.7287 77.8333 96.1227C77.2693 94.8128 76.8709 93.7045 76.6068 92.898C76.4746 92.4942 76.3755 92.1641 76.3056 91.92C76.2707 91.7979 76.243 91.6971 76.2222 91.6192L76.196 91.5196L76.1866 91.4829L76.1828 91.4679C76.1779 91.4486 76.1796 91.4552 76.1796 91.4552C75.3759 88.2404 77.3305 84.9828 80.5452 84.1791C83.7505 83.3778 86.9984 85.3187 87.8141 88.5165L87.8165 88.5258L87.8199 88.5393Z" fill="url(#paint22_radial_7159_2152)"/>
<path fill-rule="evenodd" clip-rule="evenodd" d="M87.8199 88.5393L87.8141 88.5165L87.8427 88.6191C87.8735 88.7266 87.9286 88.9121 88.0112 89.1645C88.1769 89.6705 88.4504 90.4372 88.8551 91.3773C89.6706 93.2713 90.9832 95.7855 92.9547 98.2758C96.7927 103.124 103.17 108 114 108C117.314 108 120 110.686 120 114C120 117.314 117.314 120 114 120C98.8314 120 89.2082 112.876 83.5462 105.724C80.7676 102.215 78.9553 98.7287 77.8333 96.1227C77.2693 94.8128 76.8709 93.7045 76.6068 92.898C76.4746 92.4942 76.3755 92.1641 76.3056 91.92C76.2707 91.7979 76.243 91.6971 76.2222 91.6192L76.196 91.5196L76.1866 91.4829L76.1828 91.4679C76.1779 91.4486 76.1796 91.4552 76.1796 91.4552C75.3759 88.2404 77.3305 84.9828 80.5452 84.1791C83.7505 83.3778 86.9984 85.3187 87.8141 88.5165L87.8165 88.5258L87.8199 88.5393Z" fill="url(#paint23_radial_7159_2152)"/>
<path fill-rule="evenodd" clip-rule="evenodd" d="M168.18 88.5393L168.186 88.5165L168.157 88.6191C168.127 88.7266 168.071 88.9121 167.989 89.1645C167.823 89.6705 167.55 90.4372 167.145 91.3773C166.329 93.2713 165.017 95.7855 163.045 98.2758C159.207 103.124 152.83 108 142 108C138.686 108 136 110.686 136 114C136 117.314 138.686 120 142 120C157.169 120 166.792 112.876 172.454 105.724C175.232 102.215 177.045 98.7287 178.167 96.1227C178.731 94.8128 179.129 93.7045 179.393 92.898C179.525 92.4942 179.625 92.1641 179.694 91.92C179.729 91.7979 179.757 91.6971 179.778 91.6192L179.804 91.5196L179.813 91.4829L179.817 91.4679C179.822 91.4505 179.82 91.4552 179.82 91.4552C180.624 88.2404 178.67 84.9828 175.455 84.1791C172.25 83.3778 169.002 85.3187 168.186 88.5165L168.183 88.5258L168.18 88.5393Z" fill="url(#paint24_linear_7159_2152)"/>
<path fill-rule="evenodd" clip-rule="evenodd" d="M168.18 88.5393L168.186 88.5165L168.157 88.6191C168.127 88.7266 168.071 88.9121 167.989 89.1645C167.823 89.6705 167.55 90.4372 167.145 91.3773C166.329 93.2713 165.017 95.7855 163.045 98.2758C159.207 103.124 152.83 108 142 108C138.686 108 136 110.686 136 114C136 117.314 138.686 120 142 120C157.169 120 166.792 112.876 172.454 105.724C175.232 102.215 177.045 98.7287 178.167 96.1227C178.731 94.8128 179.129 93.7045 179.393 92.898C179.525 92.4942 179.625 92.1641 179.694 91.92C179.729 91.7979 179.757 91.6971 179.778 91.6192L179.804 91.5196L179.813 91.4829L179.817 91.4679C179.822 91.4505 179.82 91.4552 179.82 91.4552C180.624 88.2404 178.67 84.9828 175.455 84.1791C172.25 83.3778 169.002 85.3187 168.186 88.5165L168.183 88.5258L168.18 88.5393Z" fill="url(#paint25_radial_7159_2152)"/>
<path fill-rule="evenodd" clip-rule="evenodd" d="M168.18 88.5393L168.186 88.5165L168.157 88.6191C168.127 88.7266 168.071 88.9121 167.989 89.1645C167.823 89.6705 167.55 90.4372 167.145 91.3773C166.329 93.2713 165.017 95.7855 163.045 98.2758C159.207 103.124 152.83 108 142 108C138.686 108 136 110.686 136 114C136 117.314 138.686 120 142 120C157.169 120 166.792 112.876 172.454 105.724C175.232 102.215 177.045 98.7287 178.167 96.1227C178.731 94.8128 179.129 93.7045 179.393 92.898C179.525 92.4942 179.625 92.1641 179.694 91.92C179.729 91.7979 179.757 91.6971 179.778 91.6192L179.804 91.5196L179.813 91.4829L179.817 91.4679C179.822 91.4505 179.82 91.4552 179.82 91.4552C180.624 88.2404 178.67 84.9828 175.455 84.1791C172.25 83.3778 169.002 85.3187 168.186 88.5165L168.183 88.5258L168.18 88.5393Z" fill="url(#paint26_radial_7159_2152)"/>
<path fill-rule="evenodd" clip-rule="evenodd" d="M168.18 88.5393L168.186 88.5165L168.157 88.6191C168.127 88.7266 168.071 88.9121 167.989 89.1645C167.823 89.6705 167.55 90.4372 167.145 91.3773C166.329 93.2713 165.017 95.7855 163.045 98.2758C159.207 103.124 152.83 108 142 108C138.686 108 136 110.686 136 114C136 117.314 138.686 120 142 120C157.169 120 166.792 112.876 172.454 105.724C175.232 102.215 177.045 98.7287 178.167 96.1227C178.731 94.8128 179.129 93.7045 179.393 92.898C179.525 92.4942 179.625 92.1641 179.694 91.92C179.729 91.7979 179.757 91.6971 179.778 91.6192L179.804 91.5196L179.813 91.4829L179.817 91.4679C179.822 91.4505 179.82 91.4552 179.82 91.4552C180.624 88.2404 178.67 84.9828 175.455 84.1791C172.25 83.3778 169.002 85.3187 168.186 88.5165L168.183 88.5258L168.18 88.5393Z" fill="url(#paint27_radial_7159_2152)" fill-opacity="0.6"/>
<path d="M64 48C64 48 44.8622 42.1333 35.6622 25.8133C33.4222 21.7333 30.8622 25.8133 30.8622 25.8133C30.8622 25.8133 14.7998 56 31.9998 88C34.0798 93.52 44.08 96 52 96C66.32 96 76.8622 83.7333 76.8622 69.4933C76.9422 59.7333 72.64 50.88 64 48Z" fill="url(#paint28_radial_7159_2152)"/>
<path d="M64 48C64 48 44.8622 42.1333 35.6622 25.8133C33.4222 21.7333 30.8622 25.8133 30.8622 25.8133C30.8622 25.8133 14.7998 56 31.9998 88C34.0798 93.52 44.08 96 52 96C66.32 96 76.8622 83.7333 76.8622 69.4933C76.9422 59.7333 72.64 50.88 64 48Z" fill="url(#paint29_radial_7159_2152)"/>
<path d="M192.049 48C192.049 48 211.187 42.1333 220.387 25.8133C222.627 21.7333 225.187 25.8133 225.187 25.8133C225.187 25.8133 241.249 56 224.049 88C221.969 93.52 211.969 96 204.049 96C189.729 96 179.187 83.7333 179.187 69.4933C179.107 59.7333 183.409 50.88 192.049 48Z" fill="url(#paint30_radial_7159_2152)"/>
<path d="M192.049 48C192.049 48 211.187 42.1333 220.387 25.8133C222.627 21.7333 225.187 25.8133 225.187 25.8133C225.187 25.8133 241.249 56 224.049 88C221.969 93.52 211.969 96 204.049 96C189.729 96 179.187 83.7333 179.187 69.4933C179.107 59.7333 183.409 50.88 192.049 48Z" fill="url(#paint31_radial_7159_2152)"/>
<path d="M192.049 48C192.049 48 211.187 42.1333 220.387 25.8133C222.627 21.7333 225.187 25.8133 225.187 25.8133C225.187 25.8133 241.249 56 224.049 88C221.969 93.52 211.969 96 204.049 96C189.729 96 179.187 83.7333 179.187 69.4933C179.107 59.7333 183.409 50.88 192.049 48Z" fill="url(#paint32_radial_7159_2152)"/>
<path d="M192.049 48C192.049 48 211.187 42.1333 220.387 25.8133C222.627 21.7333 225.187 25.8133 225.187 25.8133C225.187 25.8133 241.249 56 224.049 88C221.969 93.52 211.969 96 204.049 96C189.729 96 179.187 83.7333 179.187 69.4933C179.107 59.7333 183.409 50.88 192.049 48Z" fill="url(#paint33_radial_7159_2152)"/>
<path d="M192.049 48C192.049 48 211.187 42.1333 220.387 25.8133C222.627 21.7333 225.187 25.8133 225.187 25.8133C225.187 25.8133 241.249 56 224.049 88C221.969 93.52 211.969 96 204.049 96C189.729 96 179.187 83.7333 179.187 69.4933C179.107 59.7333 183.409 50.88 192.049 48Z" fill="url(#paint34_radial_7159_2152)"/>
<path d="M96 132C102.627 132 108 137.373 108 144C108 150.627 102.627 156 96 156C89.3726 156 84 150.627 84 144C84 137.373 89.3726 132 96 132ZM160 132C166.627 132 172 137.373 172 144C172 150.627 166.627 156 160 156C153.373 156 148 150.627 148 144C148 137.373 153.373 132 160 132Z" fill="url(#paint35_linear_7159_2152)"/>
<path fill-rule="evenodd" clip-rule="evenodd" d="M102.179 194.919C99.4051 191.544 94.4243 191.016 91.0022 193.753C87.5522 196.513 86.9928 201.548 89.7529 204.998L89.7585 205.005L89.7644 205.012L89.777 205.028L89.805 205.062L89.8725 205.144C89.9227 205.205 89.9832 205.277 90.0543 205.359C90.1963 205.524 90.3804 205.731 90.6076 205.974C91.0617 206.461 91.6894 207.094 92.4981 207.822C94.1148 209.277 96.4636 211.119 99.602 212.93C105.927 216.579 115.295 220 128 220C140.704 220 150.073 216.579 156.398 212.93C159.536 211.119 161.885 209.277 163.502 207.822C164.31 207.094 164.938 206.461 165.392 205.974C165.619 205.731 165.803 205.524 165.945 205.359C166.016 205.277 166.077 205.205 166.127 205.144L166.195 205.062L166.223 205.028L166.235 205.012L166.241 205.005L166.247 204.998C169.007 201.548 168.447 196.513 164.997 193.753C161.575 191.016 156.594 191.544 153.82 194.919C153.803 194.939 153.761 194.986 153.695 195.057C153.537 195.227 153.239 195.532 152.798 195.929C151.915 196.724 150.464 197.881 148.402 199.071C144.327 201.422 137.695 204 128 204C118.304 204 111.673 201.422 107.598 199.071C105.536 197.881 104.085 196.724 103.202 195.929C102.76 195.532 102.463 195.227 102.304 195.057C102.238 194.986 102.196 194.939 102.179 194.919Z" fill="url(#paint36_radial_7159_2152)"/>
<path fill-rule="evenodd" clip-rule="evenodd" d="M102.179 194.919C99.4051 191.544 94.4243 191.016 91.0022 193.753C87.5522 196.513 86.9928 201.548 89.7529 204.998L89.7585 205.005L89.7644 205.012L89.777 205.028L89.805 205.062L89.8725 205.144C89.9227 205.205 89.9832 205.277 90.0543 205.359C90.1963 205.524 90.3804 205.731 90.6076 205.974C91.0617 206.461 91.6894 207.094 92.4981 207.822C94.1148 209.277 96.4636 211.119 99.602 212.93C105.927 216.579 115.295 220 128 220C140.704 220 150.073 216.579 156.398 212.93C159.536 211.119 161.885 209.277 163.502 207.822C164.31 207.094 164.938 206.461 165.392 205.974C165.619 205.731 165.803 205.524 165.945 205.359C166.016 205.277 166.077 205.205 166.127 205.144L166.195 205.062L166.223 205.028L166.235 205.012L166.241 205.005L166.247 204.998C169.007 201.548 168.447 196.513 164.997 193.753C161.575 191.016 156.594 191.544 153.82 194.919C153.803 194.939 153.761 194.986 153.695 195.057C153.537 195.227 153.239 195.532 152.798 195.929C151.915 196.724 150.464 197.881 148.402 199.071C144.327 201.422 137.695 204 128 204C118.304 204 111.673 201.422 107.598 199.071C105.536 197.881 104.085 196.724 103.202 195.929C102.76 195.532 102.463 195.227 102.304 195.057C102.238 194.986 102.196 194.939 102.179 194.919Z" fill="url(#paint37_radial_7159_2152)"/>
<path fill-rule="evenodd" clip-rule="evenodd" d="M102.179 194.919C99.4051 191.544 94.4243 191.016 91.0022 193.753C87.5522 196.513 86.9928 201.548 89.7529 204.998L89.7585 205.005L89.7644 205.012L89.777 205.028L89.805 205.062L89.8725 205.144C89.9227 205.205 89.9832 205.277 90.0543 205.359C90.1963 205.524 90.3804 205.731 90.6076 205.974C91.0617 206.461 91.6894 207.094 92.4981 207.822C94.1148 209.277 96.4636 211.119 99.602 212.93C105.927 216.579 115.295 220 128 220C140.704 220 150.073 216.579 156.398 212.93C159.536 211.119 161.885 209.277 163.502 207.822C164.31 207.094 164.938 206.461 165.392 205.974C165.619 205.731 165.803 205.524 165.945 205.359C166.016 205.277 166.077 205.205 166.127 205.144L166.195 205.062L166.223 205.028L166.235 205.012L166.241 205.005L166.247 204.998C169.007 201.548 168.447 196.513 164.997 193.753C161.575 191.016 156.594 191.544 153.82 194.919C153.803 194.939 153.761 194.986 153.695 195.057C153.537 195.227 153.239 195.532 152.798 195.929C151.915 196.724 150.464 197.881 148.402 199.071C144.327 201.422 137.695 204 128 204C118.304 204 111.673 201.422 107.598 199.071C105.536 197.881 104.085 196.724 103.202 195.929C102.76 195.532 102.463 195.227 102.304 195.057C102.238 194.986 102.196 194.939 102.179 194.919Z" fill="url(#paint38_radial_7159_2152)"/>
<defs>
<radialGradient id="paint0_radial_7159_2152" cx="0" cy="0" r="1" gradientUnits="userSpaceOnUse" gradientTransform="translate(172 80) rotate(94.5739) scale(200.639)">
<stop stop-color="#BA64DD"/>
<stop offset="0.514303" stop-color="#A44ECD"/>
<stop offset="0.71368" stop-color="#8D36B9"/>
<stop offset="0.888763" stop-color="#6C2997"/>
</radialGradient>
<radialGradient id="paint1_radial_7159_2152" cx="0" cy="0" r="1" gradientUnits="userSpaceOnUse" gradientTransform="translate(128 128) rotate(135) scale(124.451)">
<stop offset="0.842441" stop-color="#BD70F3" stop-opacity="0"/>
<stop offset="1" stop-color="#C175F8"/>
</radialGradient>
<radialGradient id="paint2_radial_7159_2152" cx="0" cy="0" r="1" gradientUnits="userSpaceOnUse" gradientTransform="translate(80 140) rotate(84.8056) scale(44.1814)">
<stop stop-color="#4E186F"/>
<stop offset="1" stop-color="#4E186F" stop-opacity="0"/>
</radialGradient>
<radialGradient id="paint3_radial_7159_2152" cx="0" cy="0" r="1" gradientUnits="userSpaceOnUse" gradientTransform="translate(171.22 144.6) rotate(113.416) scale(39.0395 37.2622)">
<stop offset="0.405346" stop-color="#4E186F"/>
<stop offset="1" stop-color="#4E186F" stop-opacity="0"/>
</radialGradient>
<radialGradient id="paint4_radial_7159_2152" cx="0" cy="0" r="1" gradientUnits="userSpaceOnUse" gradientTransform="translate(16 88) rotate(12.5288) scale(36.8782 75.5538)">
<stop stop-color="#7F57B9"/>
<stop offset="1" stop-color="#7F57B9" stop-opacity="0"/>
</radialGradient>
<radialGradient id="paint5_radial_7159_2152" cx="0" cy="0" r="1" gradientUnits="userSpaceOnUse" gradientTransform="translate(196 84) rotate(126.87) scale(40 53.0769)">
<stop stop-color="#DC94FF"/>
<stop offset="1" stop-color="#CC7CEF" stop-opacity="0"/>
</radialGradient>
<radialGradient id="paint6_radial_7159_2152" cx="0" cy="0" r="1" gradientUnits="userSpaceOnUse" gradientTransform="translate(67.5471 50.7275) rotate(113.208) scale(13.0258 23.5982)">
<stop stop-color="#B861D7"/>
<stop offset="1" stop-color="#B861D7" stop-opacity="0"/>
</radialGradient>
<radialGradient id="paint7_radial_7159_2152" cx="0" cy="0" r="1" gradientUnits="userSpaceOnUse" gradientTransform="translate(75.8642 65.483) rotate(167.125) scale(6.56644 14.9362)">
<stop stop-color="#C676EA"/>
<stop offset="1" stop-color="#C676EA" stop-opacity="0"/>
</radialGradient>
<radialGradient id="paint8_radial_7159_2152" cx="0" cy="0" r="1" gradientUnits="userSpaceOnUse" gradientTransform="translate(75.5806 71.5501) rotate(-172.875) scale(6.55449 11.1922)">
<stop stop-color="#CA7BEE"/>
<stop offset="1" stop-color="#CA7BEE" stop-opacity="0"/>
</radialGradient>
<radialGradient id="paint9_radial_7159_2152" cx="0" cy="0" r="1" gradientUnits="userSpaceOnUse" gradientTransform="translate(16 75.6125) rotate(99.6956) scale(38.1347 24.4783)">
<stop stop-color="#9178BA"/>
<stop offset="1" stop-color="#9178BA" stop-opacity="0"/>
</radialGradient>
<radialGradient id="paint10_radial_7159_2152" cx="0" cy="0" r="1" gradientUnits="userSpaceOnUse" gradientTransform="translate(29.0807 84.587) rotate(90) scale(5.5701 2.01028)">
<stop stop-color="#9075B9"/>
<stop offset="1" stop-color="#9075B9" stop-opacity="0"/>
</radialGradient>
<radialGradient id="paint11_radial_7159_2152" cx="0" cy="0" r="1" gradientUnits="userSpaceOnUse" gradientTransform="translate(84.7437 105.271) rotate(49.5246) scale(25.1706 13.5064)">
<stop stop-color="#6F3292"/>
<stop offset="1" stop-color="#6F3292" stop-opacity="0"/>
</radialGradient>
<radialGradient id="paint12_radial_7159_2152" cx="0" cy="0" r="1" gradientUnits="userSpaceOnUse" gradientTransform="translate(145.261 118.761) rotate(169.966) scale(14.7456 11.1399)">
<stop stop-color="#8331B0"/>
<stop offset="1" stop-color="#8330B0" stop-opacity="0"/>
</radialGradient>
<radialGradient id="paint13_radial_7159_2152" cx="0" cy="0" r="1" gradientUnits="userSpaceOnUse" gradientTransform="translate(161.164 104.455) rotate(-158.797) scale(6.73854 14.3178)">
<stop stop-color="#8331B0"/>
<stop offset="1" stop-color="#8330B0" stop-opacity="0"/>
</radialGradient>
<radialGradient id="paint14_radial_7159_2152" cx="0" cy="0" r="1" gradientUnits="userSpaceOnUse" gradientTransform="translate(153.862 109.657) rotate(-142.869) scale(5.504 10.6938)">
<stop stop-color="#8331B0"/>
<stop offset="1" stop-color="#8330B0" stop-opacity="0"/>
</radialGradient>
<radialGradient id="paint15_radial_7159_2152" cx="0" cy="0" r="1" gradientUnits="userSpaceOnUse" gradientTransform="translate(169.559 93.0818) rotate(-148.57) scale(7.99731)">
<stop stop-color="#8331B0"/>
<stop offset="1" stop-color="#8330B0" stop-opacity="0"/>
</radialGradient>
<radialGradient id="paint16_radial_7159_2152" cx="0" cy="0" r="1" gradientUnits="userSpaceOnUse" gradientTransform="translate(209.888 89.305) rotate(166.645) scale(21.6357 11.1176)">
<stop offset="0.616659" stop-color="#B14CE4"/>
<stop offset="1" stop-color="#B14CE4" stop-opacity="0"/>
</radialGradient>
<radialGradient id="paint17_radial_7159_2152" cx="0" cy="0" r="1" gradientUnits="userSpaceOnUse" gradientTransform="translate(189.571 85.3171) rotate(-129.987) scale(16.5297 8.49386)">
<stop offset="0.616659" stop-color="#B14CE4"/>
<stop offset="1" stop-color="#B14CE4" stop-opacity="0"/>
</radialGradient>
<radialGradient id="paint18_radial_7159_2152" cx="0" cy="0" r="1" gradientUnits="userSpaceOnUse" gradientTransform="translate(184.918 68.4916) rotate(-87.4923) scale(18.2215 10.9457)">
<stop offset="0.616659" stop-color="#B14CE4"/>
<stop offset="1" stop-color="#B14CE4" stop-opacity="0"/>
</radialGradient>
<radialGradient id="paint19_radial_7159_2152" cx="0" cy="0" r="1" gradientUnits="userSpaceOnUse" gradientTransform="translate(185.125 60.2173) rotate(-70.2239) scale(13.4423 9.3508)">
<stop offset="0.616659" stop-color="#B14CE4"/>
<stop offset="1" stop-color="#B14CE4" stop-opacity="0"/>
</radialGradient>
<radialGradient id="paint20_radial_7159_2152" cx="0" cy="0" r="1" gradientUnits="userSpaceOnUse" gradientTransform="translate(201.795 72.1174) rotate(104.56) scale(32.7295)">
<stop offset="0.718965" stop-color="#B14CE4"/>
<stop offset="1" stop-color="#B14CE4" stop-opacity="0"/>
</radialGradient>
<radialGradient id="paint21_radial_7159_2152" cx="0" cy="0" r="1" gradientUnits="userSpaceOnUse" gradientTransform="translate(106.231 90.5381) rotate(-49.1446) scale(32.541 46.5347)">
<stop offset="0.423728" stop-color="#3B2A3A"/>
<stop offset="0.556723" stop-color="#4D414B"/>
<stop offset="0.64586" stop-color="#4D414B"/>
<stop offset="0.791667" stop-color="#481E58"/>
<stop offset="0.833333" stop-color="#49404A"/>
</radialGradient>
<radialGradient id="paint22_radial_7159_2152" cx="0" cy="0" r="1" gradientUnits="userSpaceOnUse" gradientTransform="translate(85.8924 114.477) rotate(-53.441) scale(56.2449 51.4328)">
<stop offset="0.484115" stop-color="#362839" stop-opacity="0"/>
<stop offset="0.591432" stop-color="#362839"/>
</radialGradient>
<radialGradient id="paint23_radial_7159_2152" cx="0" cy="0" r="1" gradientUnits="userSpaceOnUse" gradientTransform="translate(116.399 112.942) rotate(-135) scale(6.31626)">
<stop stop-color="#645560"/>
<stop offset="1" stop-color="#4F434C" stop-opacity="0"/>
</radialGradient>
<linearGradient id="paint24_linear_7159_2152" x1="164" y1="88" x2="164" y2="100" gradientUnits="userSpaceOnUse">
<stop offset="0.0299084" stop-color="#524049"/>
<stop offset="1" stop-color="#4A2C42"/>
</linearGradient>
<radialGradient id="paint25_radial_7159_2152" cx="0" cy="0" r="1" gradientUnits="userSpaceOnUse" gradientTransform="translate(149.769 90.5381) rotate(-130.855) scale(32.541 46.5347)">
<stop offset="0.423728" stop-color="#3B2A3A"/>
<stop offset="0.556723" stop-color="#4D414B"/>
<stop offset="0.64586" stop-color="#4D414B"/>
<stop offset="0.791667" stop-color="#481E58"/>
<stop offset="0.833333" stop-color="#49404A"/>
</radialGradient>
<radialGradient id="paint26_radial_7159_2152" cx="0" cy="0" r="1" gradientUnits="userSpaceOnUse" gradientTransform="translate(170.108 114.477) rotate(-126.559) scale(56.2449 51.4328)">
<stop offset="0.484115" stop-color="#362839" stop-opacity="0"/>
<stop offset="0.591432" stop-color="#362839"/>
</radialGradient>
<radialGradient id="paint27_radial_7159_2152" cx="0" cy="0" r="1" gradientUnits="userSpaceOnUse" gradientTransform="translate(175.24 87.8334) rotate(123.071) scale(4.50661 7.57719)">
<stop stop-color="#645560"/>
<stop offset="1" stop-color="#4F434C" stop-opacity="0"/>
</radialGradient>
<radialGradient id="paint28_radial_7159_2152" cx="0" cy="0" r="1" gradientUnits="userSpaceOnUse" gradientTransform="translate(96 12) rotate(165.379) scale(95.0789 95.0789)">
<stop offset="0.534295" stop-color="#B760D6"/>
<stop offset="0.626239" stop-color="#C97AED"/>
<stop offset="0.6709" stop-color="#C97AED"/>
<stop offset="0.804748" stop-color="#A042D7"/>
</radialGradient>
<radialGradient id="paint29_radial_7159_2152" cx="0" cy="0" r="1" gradientUnits="userSpaceOnUse" gradientTransform="translate(63.7537 57.7224) rotate(73.189) scale(66.4608 48.7511)">
<stop offset="0.625" stop-color="#7A47B4" stop-opacity="0"/>
<stop offset="1" stop-color="#8154B3"/>
</radialGradient>
<radialGradient id="paint30_radial_7159_2152" cx="0" cy="0" r="1" gradientUnits="userSpaceOnUse" gradientTransform="translate(185.368 34.9507) rotate(-81.6492) scale(69.0202 69.0202)">
<stop offset="0.338542" stop-color="#9149B7"/>
<stop offset="0.567708" stop-color="#B04BE3"/>
</radialGradient>
<radialGradient id="paint31_radial_7159_2152" cx="0" cy="0" r="1" gradientUnits="userSpaceOnUse" gradientTransform="translate(179.186 50.0215) rotate(76.7572) scale(26.4579 13.5996)">
<stop stop-color="#B24DE5"/>
<stop offset="1" stop-color="#B24DE4" stop-opacity="0"/>
</radialGradient>
<radialGradient id="paint32_radial_7159_2152" cx="0" cy="0" r="1" gradientUnits="userSpaceOnUse" gradientTransform="translate(179.186 55.8113) rotate(79.2742) scale(21.9878 11.3019)">
<stop stop-color="#B24DE5"/>
<stop offset="1" stop-color="#B24DE4" stop-opacity="0"/>
</radialGradient>
<radialGradient id="paint33_radial_7159_2152" cx="0" cy="0" r="1" gradientUnits="userSpaceOnUse" gradientTransform="translate(224 36) rotate(103.134) scale(123.223 42.2437)">
<stop stop-color="#B676D6"/>
<stop offset="0.305394" stop-color="#B676D6" stop-opacity="0"/>
</radialGradient>
<radialGradient id="paint34_radial_7159_2152" cx="0" cy="0" r="1" gradientUnits="userSpaceOnUse" gradientTransform="translate(223.685 35.8077) rotate(94.9697) scale(18.0838 4.51438)">
<stop stop-color="#CB81E9"/>
<stop offset="1" stop-color="#CB81E9" stop-opacity="0"/>
</radialGradient>
<linearGradient id="paint35_linear_7159_2152" x1="161.846" y1="132" x2="158.432" y2="156.41" gradientUnits="userSpaceOnUse">
<stop stop-color="#553B3E"/>
<stop offset="1" stop-color="#3D2432"/>
</linearGradient>
<radialGradient id="paint36_radial_7159_2152" cx="0" cy="0" r="1" gradientUnits="userSpaceOnUse" gradientTransform="translate(128 181.043) rotate(90) scale(96.8183 137.079)">
<stop offset="0.205066" stop-color="#362338"/>
<stop offset="0.286855" stop-color="#4F3F50"/>
<stop offset="0.31008" stop-color="#4F3F50"/>
<stop offset="0.408068" stop-color="#49235A"/>
</radialGradient>
<radialGradient id="paint37_radial_7159_2152" cx="0" cy="0" r="1" gradientUnits="userSpaceOnUse" gradientTransform="translate(128 201.147) rotate(90) scale(55.2306 55.5668)">
<stop offset="0.483976" stop-color="#3C2846" stop-opacity="0"/>
<stop offset="0.734375" stop-color="#3C2846"/>
</radialGradient>
<radialGradient id="paint38_radial_7159_2152" cx="0" cy="0" r="1" gradientUnits="userSpaceOnUse" gradientTransform="translate(163.224 197.772) rotate(54.0579) scale(8.94868 5.29368)">
<stop stop-color="#52484E"/>
<stop offset="1" stop-color="#51474D" stop-opacity="0"/>
</radialGradient>
</defs>
</svg>
