<svg width="256" height="256" viewBox="0 0 256 256" fill="none" xmlns="http://www.w3.org/2000/svg">
<path d="M48 131.958V112.598" stroke="#433B6B" stroke-miterlimit="10" stroke-linecap="round" stroke-linejoin="round"/>
<path d="M32.6406 120.84L73.9206 156.92" stroke="#433B6B" stroke-miterlimit="10" stroke-linecap="round" stroke-linejoin="round"/>
<path d="M200.16 131.958V112.598" stroke="#433B6B" stroke-miterlimit="10" stroke-linecap="round" stroke-linejoin="round"/>
<path d="M215.52 120.84L174.24 156.92" stroke="#433B6B" stroke-miterlimit="10" stroke-linecap="round" stroke-linejoin="round"/>
<path d="M190.24 144.359H208.16" stroke="#433B6B" stroke-miterlimit="10" stroke-linecap="round" stroke-linejoin="round"/>
<path d="M39.5996 144.279H57.5196" stroke="#433B6B" stroke-miterlimit="10" stroke-linecap="round" stroke-linejoin="round"/>
<path d="M205.919 189.879C205.919 234.919 169.359 244.279 124.319 244.279C79.2787 244.279 42.7188 234.919 42.7188 189.879C42.7188 144.839 79.2787 108.279 124.319 108.279C169.359 108.279 205.919 144.839 205.919 189.879Z" fill="url(#paint0_radial_7159_2161)"/>
<path d="M205.919 189.879C205.919 234.919 169.359 244.279 124.319 244.279C79.2787 244.279 42.7188 234.919 42.7188 189.879C42.7188 144.839 79.2787 108.279 124.319 108.279C169.359 108.279 205.919 144.839 205.919 189.879Z" fill="url(#paint1_radial_7159_2161)"/>
<path d="M205.919 189.879C205.919 234.919 169.359 244.279 124.319 244.279C79.2787 244.279 42.7188 234.919 42.7188 189.879C42.7188 144.839 79.2787 108.279 124.319 108.279C169.359 108.279 205.919 144.839 205.919 189.879Z" fill="url(#paint2_radial_7159_2161)"/>
<path d="M205.919 189.879C205.919 234.919 169.359 244.279 124.319 244.279C79.2787 244.279 42.7188 234.919 42.7188 189.879C42.7188 144.839 79.2787 108.279 124.319 108.279C169.359 108.279 205.919 144.839 205.919 189.879Z" fill="url(#paint3_radial_7159_2161)"/>
<path d="M205.919 189.879C205.919 234.919 169.359 244.279 124.319 244.279C79.2787 244.279 42.7188 234.919 42.7188 189.879C42.7188 144.839 79.2787 108.279 124.319 108.279C169.359 108.279 205.919 144.839 205.919 189.879Z" fill="url(#paint4_linear_7159_2161)"/>
<path d="M205.919 189.879C205.919 234.919 169.359 244.279 124.319 244.279C79.2787 244.279 42.7188 234.919 42.7188 189.879C42.7188 144.839 79.2787 108.279 124.319 108.279C169.359 108.279 205.919 144.839 205.919 189.879Z" fill="url(#paint5_radial_7159_2161)"/>
<path d="M136.24 204.119C134.08 204.119 132.32 202.359 132.32 200.199V192.039C132.32 189.879 134.08 188.119 136.24 188.119C138.4 188.119 140.16 189.879 140.16 192.039V200.199C140.16 202.359 138.4 204.119 136.24 204.119Z" fill="url(#paint6_linear_7159_2161)"/>
<path d="M152.32 204.199C150.16 204.199 148.4 202.439 148.4 200.279V192.039C148.4 189.879 150.16 188.119 152.32 188.119C154.48 188.119 156.24 189.879 156.24 192.039V200.279C156.24 202.359 154.48 204.199 152.32 204.199Z" fill="url(#paint7_linear_7159_2161)"/>
<path d="M168.24 204.199C166.08 204.199 164.32 202.439 164.32 200.279V192.039C164.32 189.879 166.08 188.119 168.24 188.119C170.4 188.119 172.16 189.879 172.16 192.039V200.279C172.16 202.359 170.4 204.199 168.24 204.199Z" fill="url(#paint8_linear_7159_2161)"/>
<path d="M167.12 196.279H137.28C134.4 196.279 132.08 193.959 132.08 191.079V148.279H172.32V191.079C172.32 193.959 170 196.279 167.12 196.279Z" fill="url(#paint9_linear_7159_2161)"/>
<path d="M167.12 196.279H137.28C134.4 196.279 132.08 193.959 132.08 191.079V148.279H172.32V191.079C172.32 193.959 170 196.279 167.12 196.279Z" fill="url(#paint10_radial_7159_2161)"/>
<path d="M181.279 129.56C181.279 161 155.759 164.68 124.319 164.68C92.8794 164.68 67.3594 161 67.3594 129.56C67.3594 98.1195 92.8794 124.44 124.319 124.44C155.759 124.44 181.279 98.1195 181.279 129.56Z" fill="url(#paint11_linear_7159_2161)"/>
<path d="M181.279 129.56C181.279 161 155.759 164.68 124.319 164.68C92.8794 164.68 67.3594 161 67.3594 129.56C67.3594 98.1195 92.8794 124.44 124.319 124.44C155.759 124.44 181.279 98.1195 181.279 129.56Z" fill="url(#paint12_radial_7159_2161)"/>
<path d="M181.279 129.56C181.279 161 155.759 164.68 124.319 164.68C92.8794 164.68 67.3594 161 67.3594 129.56C67.3594 98.1195 92.8794 124.44 124.319 124.44C155.759 124.44 181.279 98.1195 181.279 129.56Z" fill="url(#paint13_radial_7159_2161)"/>
<path d="M181.279 129.56C181.279 161 155.759 164.68 124.319 164.68C92.8794 164.68 67.3594 161 67.3594 129.56C67.3594 98.1195 92.8794 124.44 124.319 124.44C155.759 124.44 181.279 98.1195 181.279 129.56Z" fill="url(#paint14_radial_7159_2161)"/>
<path d="M181.279 129.56C181.279 161 155.759 164.68 124.319 164.68C92.8794 164.68 67.3594 161 67.3594 129.56C67.3594 98.1195 92.8794 124.44 124.319 124.44C155.759 124.44 181.279 98.1195 181.279 129.56Z" fill="url(#paint15_radial_7159_2161)"/>
<path d="M181.279 129.56C181.279 161 155.759 164.68 124.319 164.68C92.8794 164.68 67.3594 161 67.3594 129.56C67.3594 98.1195 92.8794 124.44 124.319 124.44C155.759 124.44 181.279 98.1195 181.279 129.56Z" fill="url(#paint16_radial_7159_2161)"/>
<path d="M181.279 129.56C181.279 161 155.759 164.68 124.319 164.68C92.8794 164.68 67.3594 161 67.3594 129.56C67.3594 98.1195 92.8794 124.44 124.319 124.44C155.759 124.44 181.279 98.1195 181.279 129.56Z" fill="url(#paint17_radial_7159_2161)"/>
<path d="M180.96 101.238C180.96 132.518 155.36 135.999 124 135.999C92.64 135.999 67.5996 132.598 67.5996 101.238C67.5996 69.8777 92.9596 44.5977 124.24 44.5977C155.52 44.5977 180.96 69.9577 180.96 101.238Z" fill="url(#paint18_radial_7159_2161)"/>
<path d="M180.96 101.238C180.96 132.518 155.36 135.999 124 135.999C92.64 135.999 67.5996 132.598 67.5996 101.238C67.5996 69.8777 92.9596 44.5977 124.24 44.5977C155.52 44.5977 180.96 69.9577 180.96 101.238Z" fill="url(#paint19_radial_7159_2161)"/>
<path d="M180.96 101.238C180.96 132.518 155.36 135.999 124 135.999C92.64 135.999 67.5996 132.598 67.5996 101.238C67.5996 69.8777 92.9596 44.5977 124.24 44.5977C155.52 44.5977 180.96 69.9577 180.96 101.238Z" fill="url(#paint20_radial_7159_2161)"/>
<path d="M180.96 101.238C180.96 132.518 155.36 135.999 124 135.999C92.64 135.999 67.5996 132.598 67.5996 101.238C67.5996 69.8777 92.9596 44.5977 124.24 44.5977C155.52 44.5977 180.96 69.9577 180.96 101.238Z" fill="url(#paint21_radial_7159_2161)"/>
<path d="M180.96 101.238C180.96 132.518 155.36 135.999 124 135.999C92.64 135.999 67.5996 132.598 67.5996 101.238C67.5996 69.8777 92.9596 44.5977 124.24 44.5977C155.52 44.5977 180.96 69.9577 180.96 101.238Z" fill="url(#paint22_radial_7159_2161)"/>
<path d="M180.96 101.238C180.96 132.518 155.36 135.999 124 135.999C92.64 135.999 67.5996 132.598 67.5996 101.238C67.5996 69.8777 92.9596 44.5977 124.24 44.5977C155.52 44.5977 180.96 69.9577 180.96 101.238Z" fill="url(#paint23_radial_7159_2161)"/>
<path d="M180.96 101.238C180.96 132.518 155.36 135.999 124 135.999C92.64 135.999 67.5996 132.598 67.5996 101.238C67.5996 69.8777 92.9596 44.5977 124.24 44.5977C155.52 44.5977 180.96 69.9577 180.96 101.238Z" fill="url(#paint24_radial_7159_2161)"/>
<path d="M180.96 101.238C180.96 132.518 155.36 135.999 124 135.999C92.64 135.999 67.5996 132.598 67.5996 101.238C67.5996 69.8777 92.9596 44.5977 124.24 44.5977C155.52 44.5977 180.96 69.9577 180.96 101.238Z" fill="url(#paint25_radial_7159_2161)"/>
<path d="M124.481 44.3591L80.3208 63.3191L74.0808 48.8391C70.5608 40.5991 74.3208 31.0791 82.5608 27.5591L97.0408 21.3191C105.281 17.7991 114.721 21.5591 118.241 29.7991L124.481 44.3591Z" fill="url(#paint26_linear_7159_2161)"/>
<path d="M124.481 44.3591L80.3208 63.3191L74.0808 48.8391C70.5608 40.5991 74.3208 31.0791 82.5608 27.5591L97.0408 21.3191C105.281 17.7991 114.721 21.5591 118.241 29.7991L124.481 44.3591Z" fill="url(#paint27_linear_7159_2161)"/>
<path d="M119.84 46.3589L84.9601 61.3989C82.4001 62.4389 79.3601 61.3189 78.3201 58.7589L74.0801 48.8389L118.32 29.8789L122.56 39.7989C123.6 42.2789 122.4 45.2389 119.84 46.3589Z" fill="url(#paint28_linear_7159_2161)"/>
<path d="M128.799 48.9185L80.4793 69.6385C77.5993 70.9185 74.2393 69.5585 72.9593 66.6785C71.7593 63.7985 73.0393 60.3585 75.9993 59.1585L124.319 38.4385C127.199 37.1585 130.559 38.5185 131.839 41.4785C133.039 44.2785 131.679 47.6385 128.799 48.9185Z" fill="url(#paint29_linear_7159_2161)"/>
<path d="M128.799 48.9185L80.4793 69.6385C77.5993 70.9185 74.2393 69.5585 72.9593 66.6785C71.7593 63.7985 73.0393 60.3585 75.9993 59.1585L124.319 38.4385C127.199 37.1585 130.559 38.5185 131.839 41.4785C133.039 44.2785 131.679 47.6385 128.799 48.9185Z" fill="url(#paint30_radial_7159_2161)"/>
<path d="M112.319 82.76C110.479 82.76 109.039 81.4 109.039 79.72V74.04C109.039 72.36 110.559 71 112.319 71C114.159 71 115.599 72.36 115.599 74.04V79.72C115.599 81.4 114.079 82.76 112.319 82.76Z" fill="#433B6B"/>
<path d="M112.319 82.76C110.479 82.76 109.039 81.4 109.039 79.72V74.04C109.039 72.36 110.559 71 112.319 71C114.159 71 115.599 72.36 115.599 74.04V79.72C115.599 81.4 114.079 82.76 112.319 82.76Z" fill="url(#paint31_linear_7159_2161)"/>
<path d="M112.319 82.76C110.479 82.76 109.039 81.4 109.039 79.72V74.04C109.039 72.36 110.559 71 112.319 71C114.159 71 115.599 72.36 115.599 74.04V79.72C115.599 81.4 114.079 82.76 112.319 82.76Z" fill="url(#paint32_linear_7159_2161)"/>
<path d="M136.319 82.76C134.479 82.76 133.039 81.4 133.039 79.72V74.04C133.039 72.36 134.559 71 136.319 71C138.159 71 139.599 72.36 139.599 74.04V79.72C139.599 81.4 138.079 82.76 136.319 82.76Z" fill="#433B6B"/>
<path d="M136.319 82.76C134.479 82.76 133.039 81.4 133.039 79.72V74.04C133.039 72.36 134.559 71 136.319 71C138.159 71 139.599 72.36 139.599 74.04V79.72C139.599 81.4 138.079 82.76 136.319 82.76Z" fill="url(#paint33_linear_7159_2161)"/>
<path d="M136.319 82.76C134.479 82.76 133.039 81.4 133.039 79.72V74.04C133.039 72.36 134.559 71 136.319 71C138.159 71 139.599 72.36 139.599 74.04V79.72C139.599 81.4 138.079 82.76 136.319 82.76Z" fill="url(#paint34_linear_7159_2161)"/>
<path d="M157.519 93.0788L125.039 89.7188C121.439 89.7188 118.559 92.5988 118.559 96.1988C118.559 99.7988 121.439 102.679 125.039 102.679L157.519 99.3187C159.279 99.3187 160.719 97.8788 160.719 96.1188C160.719 94.3588 159.279 93.0788 157.519 93.0788Z" fill="url(#paint35_linear_7159_2161)"/>
<path d="M157.519 93.0788L125.039 89.7188C121.439 89.7188 118.559 92.5988 118.559 96.1988C118.559 99.7988 121.439 102.679 125.039 102.679L157.519 99.3187C159.279 99.3187 160.719 97.8788 160.719 96.1188C160.719 94.3588 159.279 93.0788 157.519 93.0788Z" fill="url(#paint36_linear_7159_2161)"/>
<path d="M157.519 93.0788L125.039 89.7188C121.439 89.7188 118.559 92.5988 118.559 96.1988C118.559 99.7988 121.439 102.679 125.039 102.679L157.519 99.3187C159.279 99.3187 160.719 97.8788 160.719 96.1188C160.719 94.3588 159.279 93.0788 157.519 93.0788Z" fill="url(#paint37_radial_7159_2161)"/>
<path d="M157.519 93.0788L125.039 89.7188C121.439 89.7188 118.559 92.5988 118.559 96.1988C118.559 99.7988 121.439 102.679 125.039 102.679L157.519 99.3187C159.279 99.3187 160.719 97.8788 160.719 96.1188C160.719 94.3588 159.279 93.0788 157.519 93.0788Z" fill="url(#paint38_radial_7159_2161)" fill-opacity="0.5"/>
<path d="M157.519 93.0788L125.039 89.7188C121.439 89.7188 118.559 92.5988 118.559 96.1988C118.559 99.7988 121.439 102.679 125.039 102.679L157.519 99.3187C159.279 99.3187 160.719 97.8788 160.719 96.1188C160.719 94.3588 159.279 93.0788 157.519 93.0788Z" fill="url(#paint39_linear_7159_2161)"/>
<defs>
<radialGradient id="paint0_radial_7159_2161" cx="0" cy="0" r="1" gradientUnits="userSpaceOnUse" gradientTransform="translate(162.99 165.782) scale(148.602)">
<stop stop-color="#FBF9FE"/>
<stop offset="1" stop-color="#B7B5B8"/>
</radialGradient>
<radialGradient id="paint1_radial_7159_2161" cx="0" cy="0" r="1" gradientUnits="userSpaceOnUse" gradientTransform="translate(192 116) rotate(120.763) scale(195.51 179.498)">
<stop offset="0.507325" stop-color="#F5F0FA"/>
<stop offset="1" stop-color="#B5B4B7"/>
</radialGradient>
<radialGradient id="paint2_radial_7159_2161" cx="0" cy="0" r="1" gradientUnits="userSpaceOnUse" gradientTransform="translate(264 200) rotate(-175.389) scale(248.805 163.477)">
<stop offset="0.866018" stop-color="#C5C2C9" stop-opacity="0"/>
<stop offset="0.901186" stop-color="#A8A8A9"/>
</radialGradient>
<radialGradient id="paint3_radial_7159_2161" cx="0" cy="0" r="1" gradientUnits="userSpaceOnUse" gradientTransform="translate(104 176) rotate(-162.867) scale(556.705 409.151)">
<stop offset="0.170689" stop-color="#C5C2C9" stop-opacity="0"/>
<stop offset="0.227343" stop-color="#A8A8A9"/>
</radialGradient>
<linearGradient id="paint4_linear_7159_2161" x1="128" y1="160" x2="128" y2="244" gradientUnits="userSpaceOnUse">
<stop offset="0.136364" stop-color="#DCDDDE" stop-opacity="0"/>
<stop offset="1" stop-color="#997AB7"/>
</linearGradient>
<radialGradient id="paint5_radial_7159_2161" cx="0" cy="0" r="1" gradientUnits="userSpaceOnUse" gradientTransform="translate(152 196) rotate(90) scale(16 38)">
<stop stop-color="#9C899C"/>
<stop offset="0.679688" stop-color="#D6D7D9" stop-opacity="0"/>
</radialGradient>
<linearGradient id="paint6_linear_7159_2161" x1="140.348" y1="192.511" x2="132.364" y2="192.511" gradientUnits="userSpaceOnUse">
<stop stop-color="#55A7FC"/>
<stop offset="1" stop-color="#4980E2"/>
</linearGradient>
<linearGradient id="paint7_linear_7159_2161" x1="156.428" y1="192.533" x2="148.444" y2="192.533" gradientUnits="userSpaceOnUse">
<stop stop-color="#55A7FC"/>
<stop offset="1" stop-color="#4980E2"/>
</linearGradient>
<linearGradient id="paint8_linear_7159_2161" x1="172.348" y1="192.533" x2="164.364" y2="192.533" gradientUnits="userSpaceOnUse">
<stop stop-color="#55A7FC"/>
<stop offset="1" stop-color="#4980E2"/>
</linearGradient>
<linearGradient id="paint9_linear_7159_2161" x1="173.281" y1="161.455" x2="132.306" y2="161.455" gradientUnits="userSpaceOnUse">
<stop stop-color="#55A7FC"/>
<stop offset="1" stop-color="#4980E2"/>
</linearGradient>
<radialGradient id="paint10_radial_7159_2161" cx="0" cy="0" r="1" gradientUnits="userSpaceOnUse" gradientTransform="translate(152 160) rotate(168.111) scale(77.6659 17.7004)">
<stop stop-color="#3462D5"/>
<stop offset="0.352784" stop-color="#3462D5" stop-opacity="0"/>
</radialGradient>
<linearGradient id="paint11_linear_7159_2161" x1="184" y1="128" x2="68" y2="128" gradientUnits="userSpaceOnUse">
<stop stop-color="#55A9FC"/>
<stop offset="1" stop-color="#4267C8"/>
</linearGradient>
<radialGradient id="paint12_radial_7159_2161" cx="0" cy="0" r="1" gradientUnits="userSpaceOnUse" gradientTransform="translate(124 48) rotate(90) scale(124 142.172)">
<stop offset="0.903226" stop-color="#3462D5" stop-opacity="0"/>
<stop offset="0.983333" stop-color="#3462D5"/>
</radialGradient>
<radialGradient id="paint13_radial_7159_2161" cx="0" cy="0" r="1" gradientUnits="userSpaceOnUse" gradientTransform="translate(-24 204) rotate(-20.8978) scale(235.491 63.2921)">
<stop offset="0.911966" stop-color="#3462D5" stop-opacity="0"/>
<stop offset="0.979434" stop-color="#3462D5"/>
</radialGradient>
<radialGradient id="paint14_radial_7159_2161" cx="0" cy="0" r="1" gradientUnits="userSpaceOnUse" gradientTransform="translate(308 220) rotate(-156.915) scale(265.24 85.2286)">
<stop offset="0.963278" stop-color="#3462D5" stop-opacity="0"/>
<stop offset="0.979434" stop-color="#3462D5"/>
</radialGradient>
<radialGradient id="paint15_radial_7159_2161" cx="0" cy="0" r="1" gradientUnits="userSpaceOnUse" gradientTransform="translate(124 48) rotate(90) scale(96 95.25)">
<stop offset="0.873698" stop-color="#3D59B8"/>
<stop offset="0.955729" stop-color="#2F4BAA" stop-opacity="0"/>
</radialGradient>
<radialGradient id="paint16_radial_7159_2161" cx="0" cy="0" r="1" gradientUnits="userSpaceOnUse" gradientTransform="translate(160 120) rotate(-123.69) scale(14.4222 23.4811)">
<stop stop-color="#3D59B8"/>
<stop offset="1" stop-color="#2F4BAA" stop-opacity="0"/>
</radialGradient>
<radialGradient id="paint17_radial_7159_2161" cx="0" cy="0" r="1" gradientUnits="userSpaceOnUse" gradientTransform="translate(84 112) rotate(-45) scale(22.6274 35.6205)">
<stop stop-color="#3D59B8"/>
<stop offset="1" stop-color="#2F4BAA" stop-opacity="0"/>
</radialGradient>
<radialGradient id="paint18_radial_7159_2161" cx="0" cy="0" r="1" gradientUnits="userSpaceOnUse" gradientTransform="translate(138.991 67.5105) rotate(0.247704) scale(113.01 85.4942)">
<stop offset="0.119232" stop-color="#F1F2F2"/>
<stop offset="0.530753" stop-color="#DDD5ED"/>
<stop offset="0.848807" stop-color="#B1A1D1"/>
</radialGradient>
<radialGradient id="paint19_radial_7159_2161" cx="0" cy="0" r="1" gradientUnits="userSpaceOnUse" gradientTransform="translate(140 99.999) rotate(7.12502) scale(32.249 8.6685)">
<stop stop-color="#9C899C"/>
<stop offset="0.675781" stop-color="#D6D7D9" stop-opacity="0"/>
</radialGradient>
<radialGradient id="paint20_radial_7159_2161" cx="0" cy="0" r="1" gradientUnits="userSpaceOnUse" gradientTransform="translate(136 99.999) rotate(-7.12501) scale(32.249 8.6685)">
<stop stop-color="#9C899C"/>
<stop offset="0.675781" stop-color="#D6D7D9" stop-opacity="0"/>
</radialGradient>
<radialGradient id="paint21_radial_7159_2161" cx="0" cy="0" r="1" gradientUnits="userSpaceOnUse" gradientTransform="translate(136 79.999) rotate(90) scale(8 4.94837)">
<stop stop-color="#9C899C"/>
<stop offset="1" stop-color="#D6D7D9" stop-opacity="0"/>
</radialGradient>
<radialGradient id="paint22_radial_7159_2161" cx="0" cy="0" r="1" gradientUnits="userSpaceOnUse" gradientTransform="translate(112 79.999) rotate(90) scale(8 4.94837)">
<stop stop-color="#9C899C"/>
<stop offset="1" stop-color="#D6D7D9" stop-opacity="0"/>
</radialGradient>
<radialGradient id="paint23_radial_7159_2161" cx="0" cy="0" r="1" gradientUnits="userSpaceOnUse" gradientTransform="translate(124 95.999) scale(12 12)">
<stop offset="0.15625" stop-color="#9C899C"/>
<stop offset="1" stop-color="#D6D7D9" stop-opacity="0"/>
</radialGradient>
<radialGradient id="paint24_radial_7159_2161" cx="0" cy="0" r="1" gradientUnits="userSpaceOnUse" gradientTransform="translate(104 59.999) rotate(63.435) scale(17.8885 93.3558)">
<stop offset="0.0223122" stop-color="#807B85"/>
<stop offset="0.559375" stop-color="#DADBDC" stop-opacity="0"/>
</radialGradient>
<radialGradient id="paint25_radial_7159_2161" cx="0" cy="0" r="1" gradientUnits="userSpaceOnUse" gradientTransform="translate(212 107.999) rotate(-172.875) scale(161.245 93.1193)">
<stop offset="0.875385" stop-color="#C5C2C9" stop-opacity="0"/>
<stop offset="0.906538" stop-color="#A8A8A9"/>
</radialGradient>
<linearGradient id="paint26_linear_7159_2161" x1="73.9677" y1="48.6427" x2="118.179" y2="29.6737" gradientUnits="userSpaceOnUse">
<stop offset="0.00558659" stop-color="#513468"/>
<stop offset="1" stop-color="#1C1C1C"/>
</linearGradient>
<linearGradient id="paint27_linear_7159_2161" x1="92" y1="28" x2="108" y2="72" gradientUnits="userSpaceOnUse">
<stop stop-color="#6D5D7B"/>
<stop offset="0.555639" stop-color="#1C1C1C" stop-opacity="0"/>
</linearGradient>
<linearGradient id="paint28_linear_7159_2161" x1="136" y1="28" x2="76" y2="56" gradientUnits="userSpaceOnUse">
<stop offset="0.262416" stop-color="#55BEEF"/>
<stop offset="0.9888" stop-color="#3A73B8"/>
</linearGradient>
<linearGradient id="paint29_linear_7159_2161" x1="72.9567" y1="66.64" x2="131.818" y2="41.3856" gradientUnits="userSpaceOnUse">
<stop offset="0.00558659" stop-color="#513468"/>
<stop offset="1" stop-color="#1C1C1C"/>
</linearGradient>
<radialGradient id="paint30_radial_7159_2161" cx="0" cy="0" r="1" gradientUnits="userSpaceOnUse" gradientTransform="translate(102.387 54.0128) rotate(-24.3005) scale(63.2137 4.98855)">
<stop offset="0.00558659" stop-color="#695E75"/>
<stop offset="1" stop-color="#695E75" stop-opacity="0"/>
</radialGradient>
<linearGradient id="paint31_linear_7159_2161" x1="120" y1="76.001" x2="108" y2="76.001" gradientUnits="userSpaceOnUse">
<stop offset="0.612955" stop-color="#62566C"/>
<stop offset="0.90625" stop-color="#34252B"/>
</linearGradient>
<linearGradient id="paint32_linear_7159_2161" x1="112" y1="68.001" x2="112" y2="84.001" gradientUnits="userSpaceOnUse">
<stop offset="0.612955" stop-color="#34252B" stop-opacity="0"/>
<stop offset="0.834974" stop-color="#34252B"/>
</linearGradient>
<linearGradient id="paint33_linear_7159_2161" x1="144" y1="76.001" x2="132" y2="76.001" gradientUnits="userSpaceOnUse">
<stop offset="0.612955" stop-color="#62566C"/>
<stop offset="0.90625" stop-color="#34252B"/>
</linearGradient>
<linearGradient id="paint34_linear_7159_2161" x1="136" y1="68.001" x2="136" y2="84.001" gradientUnits="userSpaceOnUse">
<stop offset="0.612955" stop-color="#34252B" stop-opacity="0"/>
<stop offset="0.834974" stop-color="#34252B"/>
</linearGradient>
<linearGradient id="paint35_linear_7159_2161" x1="118.522" y1="96.2683" x2="160.679" y2="96.2683" gradientUnits="userSpaceOnUse">
<stop stop-color="#DB6541"/>
<stop offset="1" stop-color="#FD9E3C"/>
</linearGradient>
<linearGradient id="paint36_linear_7159_2161" x1="136" y1="112" x2="140" y2="60" gradientUnits="userSpaceOnUse">
<stop offset="0.34614" stop-color="#D2785A" stop-opacity="0"/>
<stop offset="0.5125" stop-color="#6F2911"/>
</linearGradient>
<radialGradient id="paint37_radial_7159_2161" cx="0" cy="0" r="1" gradientUnits="userSpaceOnUse" gradientTransform="translate(136 96) scale(104 104)">
<stop offset="0.0600962" stop-color="#AA3E27" stop-opacity="0"/>
<stop offset="0.375" stop-color="#AA3E27"/>
</radialGradient>
<radialGradient id="paint38_radial_7159_2161" cx="0" cy="0" r="1" gradientUnits="userSpaceOnUse" gradientTransform="translate(156 96) rotate(146.31) scale(14.4222 14.4222)">
<stop stop-color="#FFAA5E"/>
<stop offset="0.231402" stop-color="#FF7C00" stop-opacity="0"/>
</radialGradient>
<linearGradient id="paint39_linear_7159_2161" x1="136" y1="112" x2="132" y2="60" gradientUnits="userSpaceOnUse">
<stop offset="0.163101" stop-color="#9C4326"/>
<stop offset="0.246922" stop-color="#D2785A" stop-opacity="0"/>
</linearGradient>
</defs>
</svg>
