<svg width="32" height="32" viewBox="0 0 32 32" fill="none" xmlns="http://www.w3.org/2000/svg">
<path fill-rule="evenodd" clip-rule="evenodd" d="M23.6037 18.3894L28.6756 17.04C29.229 16.89 29.8126 17.19 29.9636 17.75C30.1145 18.31 29.7824 18.87 29.229 19.02L26.3548 19.7872C26.2685 19.8103 26.2534 19.9264 26.331 19.9707L28.3435 21.12C28.8265 21.4 28.9976 22.01 28.7158 22.49C28.4341 22.97 27.8203 23.14 27.3373 22.86L25.3224 21.7093C25.2451 21.6652 25.153 21.7363 25.1762 21.8222L25.9486 24.68C26.0996 25.24 25.7776 25.8 25.2141 25.95C24.6506 26.1 24.0871 25.77 23.9361 25.22L22.5784 20.18C22.5715 20.1544 22.5547 20.1326 22.5317 20.1193L20.3232 18.8502C20.2824 18.8267 20.2308 18.835 20.1988 18.8694C19.5089 19.6098 18.6122 20.1573 17.5863 20.3831C17.5398 20.3933 17.5062 20.4342 17.5062 20.4818V22.9884C17.5062 23.015 17.5169 23.0406 17.5358 23.0593L21.2495 26.75C21.652 27.15 21.652 27.81 21.2495 28.21C20.847 28.61 20.1829 28.61 19.7804 28.21L17.6767 26.1194C17.6136 26.0567 17.5062 26.1014 17.5062 26.1904V28.5C17.5062 29.05 17.0534 29.5 16.5 29.5C15.9466 29.5 15.4938 29.05 15.4938 28.5V26.2004C15.4938 26.1114 15.3863 26.0667 15.3233 26.1294L13.2196 28.22C12.8171 28.62 12.153 28.62 11.7505 28.22C11.348 27.82 11.348 27.16 11.7505 26.76L15.4642 23.0693C15.4831 23.0506 15.4938 23.025 15.4938 22.9984V20.4919C15.4938 20.4443 15.4601 20.4034 15.4135 20.3932C14.3787 20.1675 13.4907 19.6199 12.8011 18.8793C12.7691 18.8449 12.7176 18.8367 12.6768 18.86L10.4785 20.1194C10.4554 20.1326 10.4385 20.1544 10.4316 20.1801L9.07391 25.22C8.92298 25.77 8.34942 26.1 7.79598 25.95C7.24255 25.8 6.91049 25.23 7.06142 24.68L7.83354 21.8233C7.85679 21.7373 7.76436 21.6661 7.68712 21.7106L5.6728 22.87C5.18981 23.14 4.576 22.98 4.29425 22.5C4.0125 22.02 4.18356 21.41 4.6565 21.15L6.67039 19.9908C6.7477 19.9463 6.73248 19.8305 6.6463 19.8075L3.771 19.04C3.21757 18.89 2.88551 18.32 3.03644 17.77C3.18738 17.22 3.76094 16.89 4.31437 17.04L9.38628 18.3894C9.41179 18.3962 9.43894 18.3926 9.46182 18.3795L11.6685 17.1113C11.7102 17.0874 11.7289 17.0371 11.7137 16.9915C11.5579 16.5236 11.4587 16.0208 11.4587 15.5C11.4587 14.9807 11.5574 14.4792 11.7124 14.0292C11.7282 13.9833 11.7097 13.9323 11.6676 13.9081L9.46182 12.6405C9.43894 12.6274 9.41179 12.6238 9.38628 12.6306L4.31437 13.98C3.75088 14.13 3.18738 13.8 3.03644 13.25C2.88551 12.69 3.21757 12.13 3.771 11.98L6.6463 11.2125C6.73248 11.1895 6.7477 11.0737 6.67039 11.0292L4.6565 9.87C4.18356 9.59 4.0125 8.98 4.29425 8.5C4.56594 8.02 5.18981 7.86 5.66274 8.13L7.68746 9.29016C7.76471 9.33442 7.85694 9.26325 7.83371 9.1773L7.06142 6.32C6.91049 5.77 7.24255 5.21 7.79598 5.06C8.34942 4.91 8.91291 5.24 9.06385 5.79L10.4215 10.8299C10.4285 10.8556 10.4453 10.8774 10.4684 10.8906L12.6668 12.15C12.7076 12.1733 12.759 12.1651 12.7911 12.1307C13.481 11.3902 14.3777 10.8427 15.4036 10.6169C15.4501 10.6067 15.4837 10.5658 15.4837 10.5182V8.0116C15.4837 7.98497 15.4731 7.95944 15.4542 7.94067L11.7405 4.25C11.338 3.85 11.338 3.19 11.7405 2.79C12.143 2.39 12.8071 2.39 13.2096 2.79L15.3132 4.88057C15.3763 4.94326 15.4837 4.89858 15.4837 4.80964V2.5C15.4837 1.95 15.9365 1.5 16.4899 1.5C17.0434 1.5 17.4962 1.95 17.4962 2.5V4.80964C17.4962 4.89858 17.6036 4.94326 17.6667 4.88057L19.7703 2.79C20.1728 2.39 20.8369 2.39 21.2394 2.79C21.6419 3.19 21.6419 3.85 21.2394 4.25L17.5257 7.94067C17.5068 7.95944 17.4962 7.98497 17.4962 8.0116V10.5182C17.4962 10.5658 17.5298 10.6067 17.5762 10.6169C18.6018 10.8426 19.498 11.3895 20.1786 12.1205C20.2107 12.155 20.2623 12.1633 20.3031 12.1398L22.5116 10.8707C22.5346 10.8574 22.5514 10.8356 22.5583 10.81L23.916 5.77C24.067 5.22 24.6405 4.89 25.194 5.04C25.7474 5.19 26.0795 5.76 25.9285 6.31L25.1561 9.16777C25.1329 9.25366 25.225 9.32482 25.3022 9.2807L27.3171 8.13C27.8001 7.86 28.4139 8.02 28.6957 8.5C28.9674 8.98 28.8064 9.59 28.3334 9.86L26.321 11.0093C26.2434 11.0536 26.2584 11.1697 26.3448 11.1928L29.2189 11.96C29.7724 12.11 30.1044 12.68 29.9535 13.23C29.8026 13.78 29.229 14.11 28.6756 13.96L23.6037 12.6106C23.5781 12.6038 23.551 12.6074 23.5281 12.6205L21.3214 13.8887C21.2797 13.9126 21.2611 13.9629 21.2762 14.0085C21.432 14.4764 21.5312 14.9792 21.5312 15.5C21.5312 16.0214 21.4317 16.5158 21.2757 16.9918C21.2607 17.0373 21.2794 17.0872 21.3209 17.1111L23.5281 18.3795C23.551 18.3926 23.5781 18.3962 23.6037 18.3894ZM19.5087 15.5C19.5087 17.1569 18.1572 18.5 16.49 18.5C14.8228 18.5 13.4712 17.1569 13.4712 15.5C13.4712 13.8431 14.8228 12.5 16.49 12.5C18.1572 12.5 19.5087 13.8431 19.5087 15.5Z" fill="url(#paint0_linear_7159_2162)"/>
<path fill-rule="evenodd" clip-rule="evenodd" d="M23.6037 18.3894L28.6756 17.04C29.229 16.89 29.8126 17.19 29.9636 17.75C30.1145 18.31 29.7824 18.87 29.229 19.02L26.3548 19.7872C26.2685 19.8103 26.2534 19.9264 26.331 19.9707L28.3435 21.12C28.8265 21.4 28.9976 22.01 28.7158 22.49C28.4341 22.97 27.8203 23.14 27.3373 22.86L25.3224 21.7093C25.2451 21.6652 25.153 21.7363 25.1762 21.8222L25.9486 24.68C26.0996 25.24 25.7776 25.8 25.2141 25.95C24.6506 26.1 24.0871 25.77 23.9361 25.22L22.5784 20.18C22.5715 20.1544 22.5547 20.1326 22.5317 20.1193L20.3232 18.8502C20.2824 18.8267 20.2308 18.835 20.1988 18.8694C19.5089 19.6098 18.6122 20.1573 17.5863 20.3831C17.5398 20.3933 17.5062 20.4342 17.5062 20.4818V22.9884C17.5062 23.015 17.5169 23.0406 17.5358 23.0593L21.2495 26.75C21.652 27.15 21.652 27.81 21.2495 28.21C20.847 28.61 20.1829 28.61 19.7804 28.21L17.6767 26.1194C17.6136 26.0567 17.5062 26.1014 17.5062 26.1904V28.5C17.5062 29.05 17.0534 29.5 16.5 29.5C15.9466 29.5 15.4938 29.05 15.4938 28.5V26.2004C15.4938 26.1114 15.3863 26.0667 15.3233 26.1294L13.2196 28.22C12.8171 28.62 12.153 28.62 11.7505 28.22C11.348 27.82 11.348 27.16 11.7505 26.76L15.4642 23.0693C15.4831 23.0506 15.4938 23.025 15.4938 22.9984V20.4919C15.4938 20.4443 15.4601 20.4034 15.4135 20.3932C14.3787 20.1675 13.4907 19.6199 12.8011 18.8793C12.7691 18.8449 12.7176 18.8367 12.6768 18.86L10.4785 20.1194C10.4554 20.1326 10.4385 20.1544 10.4316 20.1801L9.07391 25.22C8.92298 25.77 8.34942 26.1 7.79598 25.95C7.24255 25.8 6.91049 25.23 7.06142 24.68L7.83354 21.8233C7.85679 21.7373 7.76436 21.6661 7.68712 21.7106L5.6728 22.87C5.18981 23.14 4.576 22.98 4.29425 22.5C4.0125 22.02 4.18356 21.41 4.6565 21.15L6.67039 19.9908C6.7477 19.9463 6.73248 19.8305 6.6463 19.8075L3.771 19.04C3.21757 18.89 2.88551 18.32 3.03644 17.77C3.18738 17.22 3.76094 16.89 4.31437 17.04L9.38628 18.3894C9.41179 18.3962 9.43894 18.3926 9.46182 18.3795L11.6685 17.1113C11.7102 17.0874 11.7289 17.0371 11.7137 16.9915C11.5579 16.5236 11.4587 16.0208 11.4587 15.5C11.4587 14.9807 11.5574 14.4792 11.7124 14.0292C11.7282 13.9833 11.7097 13.9323 11.6676 13.9081L9.46182 12.6405C9.43894 12.6274 9.41179 12.6238 9.38628 12.6306L4.31437 13.98C3.75088 14.13 3.18738 13.8 3.03644 13.25C2.88551 12.69 3.21757 12.13 3.771 11.98L6.6463 11.2125C6.73248 11.1895 6.7477 11.0737 6.67039 11.0292L4.6565 9.87C4.18356 9.59 4.0125 8.98 4.29425 8.5C4.56594 8.02 5.18981 7.86 5.66274 8.13L7.68746 9.29016C7.76471 9.33442 7.85694 9.26325 7.83371 9.1773L7.06142 6.32C6.91049 5.77 7.24255 5.21 7.79598 5.06C8.34942 4.91 8.91291 5.24 9.06385 5.79L10.4215 10.8299C10.4285 10.8556 10.4453 10.8774 10.4684 10.8906L12.6668 12.15C12.7076 12.1733 12.759 12.1651 12.7911 12.1307C13.481 11.3902 14.3777 10.8427 15.4036 10.6169C15.4501 10.6067 15.4837 10.5658 15.4837 10.5182V8.0116C15.4837 7.98497 15.4731 7.95944 15.4542 7.94067L11.7405 4.25C11.338 3.85 11.338 3.19 11.7405 2.79C12.143 2.39 12.8071 2.39 13.2096 2.79L15.3132 4.88057C15.3763 4.94326 15.4837 4.89858 15.4837 4.80964V2.5C15.4837 1.95 15.9365 1.5 16.4899 1.5C17.0434 1.5 17.4962 1.95 17.4962 2.5V4.80964C17.4962 4.89858 17.6036 4.94326 17.6667 4.88057L19.7703 2.79C20.1728 2.39 20.8369 2.39 21.2394 2.79C21.6419 3.19 21.6419 3.85 21.2394 4.25L17.5257 7.94067C17.5068 7.95944 17.4962 7.98497 17.4962 8.0116V10.5182C17.4962 10.5658 17.5298 10.6067 17.5762 10.6169C18.6018 10.8426 19.498 11.3895 20.1786 12.1205C20.2107 12.155 20.2623 12.1633 20.3031 12.1398L22.5116 10.8707C22.5346 10.8574 22.5514 10.8356 22.5583 10.81L23.916 5.77C24.067 5.22 24.6405 4.89 25.194 5.04C25.7474 5.19 26.0795 5.76 25.9285 6.31L25.1561 9.16777C25.1329 9.25366 25.225 9.32482 25.3022 9.2807L27.3171 8.13C27.8001 7.86 28.4139 8.02 28.6957 8.5C28.9674 8.98 28.8064 9.59 28.3334 9.86L26.321 11.0093C26.2434 11.0536 26.2584 11.1697 26.3448 11.1928L29.2189 11.96C29.7724 12.11 30.1044 12.68 29.9535 13.23C29.8026 13.78 29.229 14.11 28.6756 13.96L23.6037 12.6106C23.5781 12.6038 23.551 12.6074 23.5281 12.6205L21.3214 13.8887C21.2797 13.9126 21.2611 13.9629 21.2762 14.0085C21.432 14.4764 21.5312 14.9792 21.5312 15.5C21.5312 16.0214 21.4317 16.5158 21.2757 16.9918C21.2607 17.0373 21.2794 17.0872 21.3209 17.1111L23.5281 18.3795C23.551 18.3926 23.5781 18.3962 23.6037 18.3894ZM19.5087 15.5C19.5087 17.1569 18.1572 18.5 16.49 18.5C14.8228 18.5 13.4712 17.1569 13.4712 15.5C13.4712 13.8431 14.8228 12.5 16.49 12.5C18.1572 12.5 19.5087 13.8431 19.5087 15.5Z" fill="url(#paint1_linear_7159_2162)"/>
<path fill-rule="evenodd" clip-rule="evenodd" d="M23.6037 18.3894L28.6756 17.04C29.229 16.89 29.8126 17.19 29.9636 17.75C30.1145 18.31 29.7824 18.87 29.229 19.02L26.3548 19.7872C26.2685 19.8103 26.2534 19.9264 26.331 19.9707L28.3435 21.12C28.8265 21.4 28.9976 22.01 28.7158 22.49C28.4341 22.97 27.8203 23.14 27.3373 22.86L25.3224 21.7093C25.2451 21.6652 25.153 21.7363 25.1762 21.8222L25.9486 24.68C26.0996 25.24 25.7776 25.8 25.2141 25.95C24.6506 26.1 24.0871 25.77 23.9361 25.22L22.5784 20.18C22.5715 20.1544 22.5547 20.1326 22.5317 20.1193L20.3232 18.8502C20.2824 18.8267 20.2308 18.835 20.1988 18.8694C19.5089 19.6098 18.6122 20.1573 17.5863 20.3831C17.5398 20.3933 17.5062 20.4342 17.5062 20.4818V22.9884C17.5062 23.015 17.5169 23.0406 17.5358 23.0593L21.2495 26.75C21.652 27.15 21.652 27.81 21.2495 28.21C20.847 28.61 20.1829 28.61 19.7804 28.21L17.6767 26.1194C17.6136 26.0567 17.5062 26.1014 17.5062 26.1904V28.5C17.5062 29.05 17.0534 29.5 16.5 29.5C15.9466 29.5 15.4938 29.05 15.4938 28.5V26.2004C15.4938 26.1114 15.3863 26.0667 15.3233 26.1294L13.2196 28.22C12.8171 28.62 12.153 28.62 11.7505 28.22C11.348 27.82 11.348 27.16 11.7505 26.76L15.4642 23.0693C15.4831 23.0506 15.4938 23.025 15.4938 22.9984V20.4919C15.4938 20.4443 15.4601 20.4034 15.4135 20.3932C14.3787 20.1675 13.4907 19.6199 12.8011 18.8793C12.7691 18.8449 12.7176 18.8367 12.6768 18.86L10.4785 20.1194C10.4554 20.1326 10.4385 20.1544 10.4316 20.1801L9.07391 25.22C8.92298 25.77 8.34942 26.1 7.79598 25.95C7.24255 25.8 6.91049 25.23 7.06142 24.68L7.83354 21.8233C7.85679 21.7373 7.76436 21.6661 7.68712 21.7106L5.6728 22.87C5.18981 23.14 4.576 22.98 4.29425 22.5C4.0125 22.02 4.18356 21.41 4.6565 21.15L6.67039 19.9908C6.7477 19.9463 6.73248 19.8305 6.6463 19.8075L3.771 19.04C3.21757 18.89 2.88551 18.32 3.03644 17.77C3.18738 17.22 3.76094 16.89 4.31437 17.04L9.38628 18.3894C9.41179 18.3962 9.43894 18.3926 9.46182 18.3795L11.6685 17.1113C11.7102 17.0874 11.7289 17.0371 11.7137 16.9915C11.5579 16.5236 11.4587 16.0208 11.4587 15.5C11.4587 14.9807 11.5574 14.4792 11.7124 14.0292C11.7282 13.9833 11.7097 13.9323 11.6676 13.9081L9.46182 12.6405C9.43894 12.6274 9.41179 12.6238 9.38628 12.6306L4.31437 13.98C3.75088 14.13 3.18738 13.8 3.03644 13.25C2.88551 12.69 3.21757 12.13 3.771 11.98L6.6463 11.2125C6.73248 11.1895 6.7477 11.0737 6.67039 11.0292L4.6565 9.87C4.18356 9.59 4.0125 8.98 4.29425 8.5C4.56594 8.02 5.18981 7.86 5.66274 8.13L7.68746 9.29016C7.76471 9.33442 7.85694 9.26325 7.83371 9.1773L7.06142 6.32C6.91049 5.77 7.24255 5.21 7.79598 5.06C8.34942 4.91 8.91291 5.24 9.06385 5.79L10.4215 10.8299C10.4285 10.8556 10.4453 10.8774 10.4684 10.8906L12.6668 12.15C12.7076 12.1733 12.759 12.1651 12.7911 12.1307C13.481 11.3902 14.3777 10.8427 15.4036 10.6169C15.4501 10.6067 15.4837 10.5658 15.4837 10.5182V8.0116C15.4837 7.98497 15.4731 7.95944 15.4542 7.94067L11.7405 4.25C11.338 3.85 11.338 3.19 11.7405 2.79C12.143 2.39 12.8071 2.39 13.2096 2.79L15.3132 4.88057C15.3763 4.94326 15.4837 4.89858 15.4837 4.80964V2.5C15.4837 1.95 15.9365 1.5 16.4899 1.5C17.0434 1.5 17.4962 1.95 17.4962 2.5V4.80964C17.4962 4.89858 17.6036 4.94326 17.6667 4.88057L19.7703 2.79C20.1728 2.39 20.8369 2.39 21.2394 2.79C21.6419 3.19 21.6419 3.85 21.2394 4.25L17.5257 7.94067C17.5068 7.95944 17.4962 7.98497 17.4962 8.0116V10.5182C17.4962 10.5658 17.5298 10.6067 17.5762 10.6169C18.6018 10.8426 19.498 11.3895 20.1786 12.1205C20.2107 12.155 20.2623 12.1633 20.3031 12.1398L22.5116 10.8707C22.5346 10.8574 22.5514 10.8356 22.5583 10.81L23.916 5.77C24.067 5.22 24.6405 4.89 25.194 5.04C25.7474 5.19 26.0795 5.76 25.9285 6.31L25.1561 9.16777C25.1329 9.25366 25.225 9.32482 25.3022 9.2807L27.3171 8.13C27.8001 7.86 28.4139 8.02 28.6957 8.5C28.9674 8.98 28.8064 9.59 28.3334 9.86L26.321 11.0093C26.2434 11.0536 26.2584 11.1697 26.3448 11.1928L29.2189 11.96C29.7724 12.11 30.1044 12.68 29.9535 13.23C29.8026 13.78 29.229 14.11 28.6756 13.96L23.6037 12.6106C23.5781 12.6038 23.551 12.6074 23.5281 12.6205L21.3214 13.8887C21.2797 13.9126 21.2611 13.9629 21.2762 14.0085C21.432 14.4764 21.5312 14.9792 21.5312 15.5C21.5312 16.0214 21.4317 16.5158 21.2757 16.9918C21.2607 17.0373 21.2794 17.0872 21.3209 17.1111L23.5281 18.3795C23.551 18.3926 23.5781 18.3962 23.6037 18.3894ZM19.5087 15.5C19.5087 17.1569 18.1572 18.5 16.49 18.5C14.8228 18.5 13.4712 17.1569 13.4712 15.5C13.4712 13.8431 14.8228 12.5 16.49 12.5C18.1572 12.5 19.5087 13.8431 19.5087 15.5Z" fill="url(#paint2_radial_7159_2162)"/>
<path fill-rule="evenodd" clip-rule="evenodd" d="M23.6037 18.3894L28.6756 17.04C29.229 16.89 29.8126 17.19 29.9636 17.75C30.1145 18.31 29.7824 18.87 29.229 19.02L26.3548 19.7872C26.2685 19.8103 26.2534 19.9264 26.331 19.9707L28.3435 21.12C28.8265 21.4 28.9976 22.01 28.7158 22.49C28.4341 22.97 27.8203 23.14 27.3373 22.86L25.3224 21.7093C25.2451 21.6652 25.153 21.7363 25.1762 21.8222L25.9486 24.68C26.0996 25.24 25.7776 25.8 25.2141 25.95C24.6506 26.1 24.0871 25.77 23.9361 25.22L22.5784 20.18C22.5715 20.1544 22.5547 20.1326 22.5317 20.1193L20.3232 18.8502C20.2824 18.8267 20.2308 18.835 20.1988 18.8694C19.5089 19.6098 18.6122 20.1573 17.5863 20.3831C17.5398 20.3933 17.5062 20.4342 17.5062 20.4818V22.9884C17.5062 23.015 17.5169 23.0406 17.5358 23.0593L21.2495 26.75C21.652 27.15 21.652 27.81 21.2495 28.21C20.847 28.61 20.1829 28.61 19.7804 28.21L17.6767 26.1194C17.6136 26.0567 17.5062 26.1014 17.5062 26.1904V28.5C17.5062 29.05 17.0534 29.5 16.5 29.5C15.9466 29.5 15.4938 29.05 15.4938 28.5V26.2004C15.4938 26.1114 15.3863 26.0667 15.3233 26.1294L13.2196 28.22C12.8171 28.62 12.153 28.62 11.7505 28.22C11.348 27.82 11.348 27.16 11.7505 26.76L15.4642 23.0693C15.4831 23.0506 15.4938 23.025 15.4938 22.9984V20.4919C15.4938 20.4443 15.4601 20.4034 15.4135 20.3932C14.3787 20.1675 13.4907 19.6199 12.8011 18.8793C12.7691 18.8449 12.7176 18.8367 12.6768 18.86L10.4785 20.1194C10.4554 20.1326 10.4385 20.1544 10.4316 20.1801L9.07391 25.22C8.92298 25.77 8.34942 26.1 7.79598 25.95C7.24255 25.8 6.91049 25.23 7.06142 24.68L7.83354 21.8233C7.85679 21.7373 7.76436 21.6661 7.68712 21.7106L5.6728 22.87C5.18981 23.14 4.576 22.98 4.29425 22.5C4.0125 22.02 4.18356 21.41 4.6565 21.15L6.67039 19.9908C6.7477 19.9463 6.73248 19.8305 6.6463 19.8075L3.771 19.04C3.21757 18.89 2.88551 18.32 3.03644 17.77C3.18738 17.22 3.76094 16.89 4.31437 17.04L9.38628 18.3894C9.41179 18.3962 9.43894 18.3926 9.46182 18.3795L11.6685 17.1113C11.7102 17.0874 11.7289 17.0371 11.7137 16.9915C11.5579 16.5236 11.4587 16.0208 11.4587 15.5C11.4587 14.9807 11.5574 14.4792 11.7124 14.0292C11.7282 13.9833 11.7097 13.9323 11.6676 13.9081L9.46182 12.6405C9.43894 12.6274 9.41179 12.6238 9.38628 12.6306L4.31437 13.98C3.75088 14.13 3.18738 13.8 3.03644 13.25C2.88551 12.69 3.21757 12.13 3.771 11.98L6.6463 11.2125C6.73248 11.1895 6.7477 11.0737 6.67039 11.0292L4.6565 9.87C4.18356 9.59 4.0125 8.98 4.29425 8.5C4.56594 8.02 5.18981 7.86 5.66274 8.13L7.68746 9.29016C7.76471 9.33442 7.85694 9.26325 7.83371 9.1773L7.06142 6.32C6.91049 5.77 7.24255 5.21 7.79598 5.06C8.34942 4.91 8.91291 5.24 9.06385 5.79L10.4215 10.8299C10.4285 10.8556 10.4453 10.8774 10.4684 10.8906L12.6668 12.15C12.7076 12.1733 12.759 12.1651 12.7911 12.1307C13.481 11.3902 14.3777 10.8427 15.4036 10.6169C15.4501 10.6067 15.4837 10.5658 15.4837 10.5182V8.0116C15.4837 7.98497 15.4731 7.95944 15.4542 7.94067L11.7405 4.25C11.338 3.85 11.338 3.19 11.7405 2.79C12.143 2.39 12.8071 2.39 13.2096 2.79L15.3132 4.88057C15.3763 4.94326 15.4837 4.89858 15.4837 4.80964V2.5C15.4837 1.95 15.9365 1.5 16.4899 1.5C17.0434 1.5 17.4962 1.95 17.4962 2.5V4.80964C17.4962 4.89858 17.6036 4.94326 17.6667 4.88057L19.7703 2.79C20.1728 2.39 20.8369 2.39 21.2394 2.79C21.6419 3.19 21.6419 3.85 21.2394 4.25L17.5257 7.94067C17.5068 7.95944 17.4962 7.98497 17.4962 8.0116V10.5182C17.4962 10.5658 17.5298 10.6067 17.5762 10.6169C18.6018 10.8426 19.498 11.3895 20.1786 12.1205C20.2107 12.155 20.2623 12.1633 20.3031 12.1398L22.5116 10.8707C22.5346 10.8574 22.5514 10.8356 22.5583 10.81L23.916 5.77C24.067 5.22 24.6405 4.89 25.194 5.04C25.7474 5.19 26.0795 5.76 25.9285 6.31L25.1561 9.16777C25.1329 9.25366 25.225 9.32482 25.3022 9.2807L27.3171 8.13C27.8001 7.86 28.4139 8.02 28.6957 8.5C28.9674 8.98 28.8064 9.59 28.3334 9.86L26.321 11.0093C26.2434 11.0536 26.2584 11.1697 26.3448 11.1928L29.2189 11.96C29.7724 12.11 30.1044 12.68 29.9535 13.23C29.8026 13.78 29.229 14.11 28.6756 13.96L23.6037 12.6106C23.5781 12.6038 23.551 12.6074 23.5281 12.6205L21.3214 13.8887C21.2797 13.9126 21.2611 13.9629 21.2762 14.0085C21.432 14.4764 21.5312 14.9792 21.5312 15.5C21.5312 16.0214 21.4317 16.5158 21.2757 16.9918C21.2607 17.0373 21.2794 17.0872 21.3209 17.1111L23.5281 18.3795C23.551 18.3926 23.5781 18.3962 23.6037 18.3894ZM19.5087 15.5C19.5087 17.1569 18.1572 18.5 16.49 18.5C14.8228 18.5 13.4712 17.1569 13.4712 15.5C13.4712 13.8431 14.8228 12.5 16.49 12.5C18.1572 12.5 19.5087 13.8431 19.5087 15.5Z" fill="url(#paint3_radial_7159_2162)"/>
<path fill-rule="evenodd" clip-rule="evenodd" d="M23.6037 18.3894L28.6756 17.04C29.229 16.89 29.8126 17.19 29.9636 17.75C30.1145 18.31 29.7824 18.87 29.229 19.02L26.3548 19.7872C26.2685 19.8103 26.2534 19.9264 26.331 19.9707L28.3435 21.12C28.8265 21.4 28.9976 22.01 28.7158 22.49C28.4341 22.97 27.8203 23.14 27.3373 22.86L25.3224 21.7093C25.2451 21.6652 25.153 21.7363 25.1762 21.8222L25.9486 24.68C26.0996 25.24 25.7776 25.8 25.2141 25.95C24.6506 26.1 24.0871 25.77 23.9361 25.22L22.5784 20.18C22.5715 20.1544 22.5547 20.1326 22.5317 20.1193L20.3232 18.8502C20.2824 18.8267 20.2308 18.835 20.1988 18.8694C19.5089 19.6098 18.6122 20.1573 17.5863 20.3831C17.5398 20.3933 17.5062 20.4342 17.5062 20.4818V22.9884C17.5062 23.015 17.5169 23.0406 17.5358 23.0593L21.2495 26.75C21.652 27.15 21.652 27.81 21.2495 28.21C20.847 28.61 20.1829 28.61 19.7804 28.21L17.6767 26.1194C17.6136 26.0567 17.5062 26.1014 17.5062 26.1904V28.5C17.5062 29.05 17.0534 29.5 16.5 29.5C15.9466 29.5 15.4938 29.05 15.4938 28.5V26.2004C15.4938 26.1114 15.3863 26.0667 15.3233 26.1294L13.2196 28.22C12.8171 28.62 12.153 28.62 11.7505 28.22C11.348 27.82 11.348 27.16 11.7505 26.76L15.4642 23.0693C15.4831 23.0506 15.4938 23.025 15.4938 22.9984V20.4919C15.4938 20.4443 15.4601 20.4034 15.4135 20.3932C14.3787 20.1675 13.4907 19.6199 12.8011 18.8793C12.7691 18.8449 12.7176 18.8367 12.6768 18.86L10.4785 20.1194C10.4554 20.1326 10.4385 20.1544 10.4316 20.1801L9.07391 25.22C8.92298 25.77 8.34942 26.1 7.79598 25.95C7.24255 25.8 6.91049 25.23 7.06142 24.68L7.83354 21.8233C7.85679 21.7373 7.76436 21.6661 7.68712 21.7106L5.6728 22.87C5.18981 23.14 4.576 22.98 4.29425 22.5C4.0125 22.02 4.18356 21.41 4.6565 21.15L6.67039 19.9908C6.7477 19.9463 6.73248 19.8305 6.6463 19.8075L3.771 19.04C3.21757 18.89 2.88551 18.32 3.03644 17.77C3.18738 17.22 3.76094 16.89 4.31437 17.04L9.38628 18.3894C9.41179 18.3962 9.43894 18.3926 9.46182 18.3795L11.6685 17.1113C11.7102 17.0874 11.7289 17.0371 11.7137 16.9915C11.5579 16.5236 11.4587 16.0208 11.4587 15.5C11.4587 14.9807 11.5574 14.4792 11.7124 14.0292C11.7282 13.9833 11.7097 13.9323 11.6676 13.9081L9.46182 12.6405C9.43894 12.6274 9.41179 12.6238 9.38628 12.6306L4.31437 13.98C3.75088 14.13 3.18738 13.8 3.03644 13.25C2.88551 12.69 3.21757 12.13 3.771 11.98L6.6463 11.2125C6.73248 11.1895 6.7477 11.0737 6.67039 11.0292L4.6565 9.87C4.18356 9.59 4.0125 8.98 4.29425 8.5C4.56594 8.02 5.18981 7.86 5.66274 8.13L7.68746 9.29016C7.76471 9.33442 7.85694 9.26325 7.83371 9.1773L7.06142 6.32C6.91049 5.77 7.24255 5.21 7.79598 5.06C8.34942 4.91 8.91291 5.24 9.06385 5.79L10.4215 10.8299C10.4285 10.8556 10.4453 10.8774 10.4684 10.8906L12.6668 12.15C12.7076 12.1733 12.759 12.1651 12.7911 12.1307C13.481 11.3902 14.3777 10.8427 15.4036 10.6169C15.4501 10.6067 15.4837 10.5658 15.4837 10.5182V8.0116C15.4837 7.98497 15.4731 7.95944 15.4542 7.94067L11.7405 4.25C11.338 3.85 11.338 3.19 11.7405 2.79C12.143 2.39 12.8071 2.39 13.2096 2.79L15.3132 4.88057C15.3763 4.94326 15.4837 4.89858 15.4837 4.80964V2.5C15.4837 1.95 15.9365 1.5 16.4899 1.5C17.0434 1.5 17.4962 1.95 17.4962 2.5V4.80964C17.4962 4.89858 17.6036 4.94326 17.6667 4.88057L19.7703 2.79C20.1728 2.39 20.8369 2.39 21.2394 2.79C21.6419 3.19 21.6419 3.85 21.2394 4.25L17.5257 7.94067C17.5068 7.95944 17.4962 7.98497 17.4962 8.0116V10.5182C17.4962 10.5658 17.5298 10.6067 17.5762 10.6169C18.6018 10.8426 19.498 11.3895 20.1786 12.1205C20.2107 12.155 20.2623 12.1633 20.3031 12.1398L22.5116 10.8707C22.5346 10.8574 22.5514 10.8356 22.5583 10.81L23.916 5.77C24.067 5.22 24.6405 4.89 25.194 5.04C25.7474 5.19 26.0795 5.76 25.9285 6.31L25.1561 9.16777C25.1329 9.25366 25.225 9.32482 25.3022 9.2807L27.3171 8.13C27.8001 7.86 28.4139 8.02 28.6957 8.5C28.9674 8.98 28.8064 9.59 28.3334 9.86L26.321 11.0093C26.2434 11.0536 26.2584 11.1697 26.3448 11.1928L29.2189 11.96C29.7724 12.11 30.1044 12.68 29.9535 13.23C29.8026 13.78 29.229 14.11 28.6756 13.96L23.6037 12.6106C23.5781 12.6038 23.551 12.6074 23.5281 12.6205L21.3214 13.8887C21.2797 13.9126 21.2611 13.9629 21.2762 14.0085C21.432 14.4764 21.5312 14.9792 21.5312 15.5C21.5312 16.0214 21.4317 16.5158 21.2757 16.9918C21.2607 17.0373 21.2794 17.0872 21.3209 17.1111L23.5281 18.3795C23.551 18.3926 23.5781 18.3962 23.6037 18.3894ZM19.5087 15.5C19.5087 17.1569 18.1572 18.5 16.49 18.5C14.8228 18.5 13.4712 17.1569 13.4712 15.5C13.4712 13.8431 14.8228 12.5 16.49 12.5C18.1572 12.5 19.5087 13.8431 19.5087 15.5Z" fill="url(#paint4_radial_7159_2162)"/>
<path fill-rule="evenodd" clip-rule="evenodd" d="M23.6037 18.3894L28.6756 17.04C29.229 16.89 29.8126 17.19 29.9636 17.75C30.1145 18.31 29.7824 18.87 29.229 19.02L26.3548 19.7872C26.2685 19.8103 26.2534 19.9264 26.331 19.9707L28.3435 21.12C28.8265 21.4 28.9976 22.01 28.7158 22.49C28.4341 22.97 27.8203 23.14 27.3373 22.86L25.3224 21.7093C25.2451 21.6652 25.153 21.7363 25.1762 21.8222L25.9486 24.68C26.0996 25.24 25.7776 25.8 25.2141 25.95C24.6506 26.1 24.0871 25.77 23.9361 25.22L22.5784 20.18C22.5715 20.1544 22.5547 20.1326 22.5317 20.1193L20.3232 18.8502C20.2824 18.8267 20.2308 18.835 20.1988 18.8694C19.5089 19.6098 18.6122 20.1573 17.5863 20.3831C17.5398 20.3933 17.5062 20.4342 17.5062 20.4818V22.9884C17.5062 23.015 17.5169 23.0406 17.5358 23.0593L21.2495 26.75C21.652 27.15 21.652 27.81 21.2495 28.21C20.847 28.61 20.1829 28.61 19.7804 28.21L17.6767 26.1194C17.6136 26.0567 17.5062 26.1014 17.5062 26.1904V28.5C17.5062 29.05 17.0534 29.5 16.5 29.5C15.9466 29.5 15.4938 29.05 15.4938 28.5V26.2004C15.4938 26.1114 15.3863 26.0667 15.3233 26.1294L13.2196 28.22C12.8171 28.62 12.153 28.62 11.7505 28.22C11.348 27.82 11.348 27.16 11.7505 26.76L15.4642 23.0693C15.4831 23.0506 15.4938 23.025 15.4938 22.9984V20.4919C15.4938 20.4443 15.4601 20.4034 15.4135 20.3932C14.3787 20.1675 13.4907 19.6199 12.8011 18.8793C12.7691 18.8449 12.7176 18.8367 12.6768 18.86L10.4785 20.1194C10.4554 20.1326 10.4385 20.1544 10.4316 20.1801L9.07391 25.22C8.92298 25.77 8.34942 26.1 7.79598 25.95C7.24255 25.8 6.91049 25.23 7.06142 24.68L7.83354 21.8233C7.85679 21.7373 7.76436 21.6661 7.68712 21.7106L5.6728 22.87C5.18981 23.14 4.576 22.98 4.29425 22.5C4.0125 22.02 4.18356 21.41 4.6565 21.15L6.67039 19.9908C6.7477 19.9463 6.73248 19.8305 6.6463 19.8075L3.771 19.04C3.21757 18.89 2.88551 18.32 3.03644 17.77C3.18738 17.22 3.76094 16.89 4.31437 17.04L9.38628 18.3894C9.41179 18.3962 9.43894 18.3926 9.46182 18.3795L11.6685 17.1113C11.7102 17.0874 11.7289 17.0371 11.7137 16.9915C11.5579 16.5236 11.4587 16.0208 11.4587 15.5C11.4587 14.9807 11.5574 14.4792 11.7124 14.0292C11.7282 13.9833 11.7097 13.9323 11.6676 13.9081L9.46182 12.6405C9.43894 12.6274 9.41179 12.6238 9.38628 12.6306L4.31437 13.98C3.75088 14.13 3.18738 13.8 3.03644 13.25C2.88551 12.69 3.21757 12.13 3.771 11.98L6.6463 11.2125C6.73248 11.1895 6.7477 11.0737 6.67039 11.0292L4.6565 9.87C4.18356 9.59 4.0125 8.98 4.29425 8.5C4.56594 8.02 5.18981 7.86 5.66274 8.13L7.68746 9.29016C7.76471 9.33442 7.85694 9.26325 7.83371 9.1773L7.06142 6.32C6.91049 5.77 7.24255 5.21 7.79598 5.06C8.34942 4.91 8.91291 5.24 9.06385 5.79L10.4215 10.8299C10.4285 10.8556 10.4453 10.8774 10.4684 10.8906L12.6668 12.15C12.7076 12.1733 12.759 12.1651 12.7911 12.1307C13.481 11.3902 14.3777 10.8427 15.4036 10.6169C15.4501 10.6067 15.4837 10.5658 15.4837 10.5182V8.0116C15.4837 7.98497 15.4731 7.95944 15.4542 7.94067L11.7405 4.25C11.338 3.85 11.338 3.19 11.7405 2.79C12.143 2.39 12.8071 2.39 13.2096 2.79L15.3132 4.88057C15.3763 4.94326 15.4837 4.89858 15.4837 4.80964V2.5C15.4837 1.95 15.9365 1.5 16.4899 1.5C17.0434 1.5 17.4962 1.95 17.4962 2.5V4.80964C17.4962 4.89858 17.6036 4.94326 17.6667 4.88057L19.7703 2.79C20.1728 2.39 20.8369 2.39 21.2394 2.79C21.6419 3.19 21.6419 3.85 21.2394 4.25L17.5257 7.94067C17.5068 7.95944 17.4962 7.98497 17.4962 8.0116V10.5182C17.4962 10.5658 17.5298 10.6067 17.5762 10.6169C18.6018 10.8426 19.498 11.3895 20.1786 12.1205C20.2107 12.155 20.2623 12.1633 20.3031 12.1398L22.5116 10.8707C22.5346 10.8574 22.5514 10.8356 22.5583 10.81L23.916 5.77C24.067 5.22 24.6405 4.89 25.194 5.04C25.7474 5.19 26.0795 5.76 25.9285 6.31L25.1561 9.16777C25.1329 9.25366 25.225 9.32482 25.3022 9.2807L27.3171 8.13C27.8001 7.86 28.4139 8.02 28.6957 8.5C28.9674 8.98 28.8064 9.59 28.3334 9.86L26.321 11.0093C26.2434 11.0536 26.2584 11.1697 26.3448 11.1928L29.2189 11.96C29.7724 12.11 30.1044 12.68 29.9535 13.23C29.8026 13.78 29.229 14.11 28.6756 13.96L23.6037 12.6106C23.5781 12.6038 23.551 12.6074 23.5281 12.6205L21.3214 13.8887C21.2797 13.9126 21.2611 13.9629 21.2762 14.0085C21.432 14.4764 21.5312 14.9792 21.5312 15.5C21.5312 16.0214 21.4317 16.5158 21.2757 16.9918C21.2607 17.0373 21.2794 17.0872 21.3209 17.1111L23.5281 18.3795C23.551 18.3926 23.5781 18.3962 23.6037 18.3894ZM19.5087 15.5C19.5087 17.1569 18.1572 18.5 16.49 18.5C14.8228 18.5 13.4712 17.1569 13.4712 15.5C13.4712 13.8431 14.8228 12.5 16.49 12.5C18.1572 12.5 19.5087 13.8431 19.5087 15.5Z" fill="url(#paint5_radial_7159_2162)"/>
<path fill-rule="evenodd" clip-rule="evenodd" d="M23.6037 18.3894L28.6756 17.04C29.229 16.89 29.8126 17.19 29.9636 17.75C30.1145 18.31 29.7824 18.87 29.229 19.02L26.3548 19.7872C26.2685 19.8103 26.2534 19.9264 26.331 19.9707L28.3435 21.12C28.8265 21.4 28.9976 22.01 28.7158 22.49C28.4341 22.97 27.8203 23.14 27.3373 22.86L25.3224 21.7093C25.2451 21.6652 25.153 21.7363 25.1762 21.8222L25.9486 24.68C26.0996 25.24 25.7776 25.8 25.2141 25.95C24.6506 26.1 24.0871 25.77 23.9361 25.22L22.5784 20.18C22.5715 20.1544 22.5547 20.1326 22.5317 20.1193L20.3232 18.8502C20.2824 18.8267 20.2308 18.835 20.1988 18.8694C19.5089 19.6098 18.6122 20.1573 17.5863 20.3831C17.5398 20.3933 17.5062 20.4342 17.5062 20.4818V22.9884C17.5062 23.015 17.5169 23.0406 17.5358 23.0593L21.2495 26.75C21.652 27.15 21.652 27.81 21.2495 28.21C20.847 28.61 20.1829 28.61 19.7804 28.21L17.6767 26.1194C17.6136 26.0567 17.5062 26.1014 17.5062 26.1904V28.5C17.5062 29.05 17.0534 29.5 16.5 29.5C15.9466 29.5 15.4938 29.05 15.4938 28.5V26.2004C15.4938 26.1114 15.3863 26.0667 15.3233 26.1294L13.2196 28.22C12.8171 28.62 12.153 28.62 11.7505 28.22C11.348 27.82 11.348 27.16 11.7505 26.76L15.4642 23.0693C15.4831 23.0506 15.4938 23.025 15.4938 22.9984V20.4919C15.4938 20.4443 15.4601 20.4034 15.4135 20.3932C14.3787 20.1675 13.4907 19.6199 12.8011 18.8793C12.7691 18.8449 12.7176 18.8367 12.6768 18.86L10.4785 20.1194C10.4554 20.1326 10.4385 20.1544 10.4316 20.1801L9.07391 25.22C8.92298 25.77 8.34942 26.1 7.79598 25.95C7.24255 25.8 6.91049 25.23 7.06142 24.68L7.83354 21.8233C7.85679 21.7373 7.76436 21.6661 7.68712 21.7106L5.6728 22.87C5.18981 23.14 4.576 22.98 4.29425 22.5C4.0125 22.02 4.18356 21.41 4.6565 21.15L6.67039 19.9908C6.7477 19.9463 6.73248 19.8305 6.6463 19.8075L3.771 19.04C3.21757 18.89 2.88551 18.32 3.03644 17.77C3.18738 17.22 3.76094 16.89 4.31437 17.04L9.38628 18.3894C9.41179 18.3962 9.43894 18.3926 9.46182 18.3795L11.6685 17.1113C11.7102 17.0874 11.7289 17.0371 11.7137 16.9915C11.5579 16.5236 11.4587 16.0208 11.4587 15.5C11.4587 14.9807 11.5574 14.4792 11.7124 14.0292C11.7282 13.9833 11.7097 13.9323 11.6676 13.9081L9.46182 12.6405C9.43894 12.6274 9.41179 12.6238 9.38628 12.6306L4.31437 13.98C3.75088 14.13 3.18738 13.8 3.03644 13.25C2.88551 12.69 3.21757 12.13 3.771 11.98L6.6463 11.2125C6.73248 11.1895 6.7477 11.0737 6.67039 11.0292L4.6565 9.87C4.18356 9.59 4.0125 8.98 4.29425 8.5C4.56594 8.02 5.18981 7.86 5.66274 8.13L7.68746 9.29016C7.76471 9.33442 7.85694 9.26325 7.83371 9.1773L7.06142 6.32C6.91049 5.77 7.24255 5.21 7.79598 5.06C8.34942 4.91 8.91291 5.24 9.06385 5.79L10.4215 10.8299C10.4285 10.8556 10.4453 10.8774 10.4684 10.8906L12.6668 12.15C12.7076 12.1733 12.759 12.1651 12.7911 12.1307C13.481 11.3902 14.3777 10.8427 15.4036 10.6169C15.4501 10.6067 15.4837 10.5658 15.4837 10.5182V8.0116C15.4837 7.98497 15.4731 7.95944 15.4542 7.94067L11.7405 4.25C11.338 3.85 11.338 3.19 11.7405 2.79C12.143 2.39 12.8071 2.39 13.2096 2.79L15.3132 4.88057C15.3763 4.94326 15.4837 4.89858 15.4837 4.80964V2.5C15.4837 1.95 15.9365 1.5 16.4899 1.5C17.0434 1.5 17.4962 1.95 17.4962 2.5V4.80964C17.4962 4.89858 17.6036 4.94326 17.6667 4.88057L19.7703 2.79C20.1728 2.39 20.8369 2.39 21.2394 2.79C21.6419 3.19 21.6419 3.85 21.2394 4.25L17.5257 7.94067C17.5068 7.95944 17.4962 7.98497 17.4962 8.0116V10.5182C17.4962 10.5658 17.5298 10.6067 17.5762 10.6169C18.6018 10.8426 19.498 11.3895 20.1786 12.1205C20.2107 12.155 20.2623 12.1633 20.3031 12.1398L22.5116 10.8707C22.5346 10.8574 22.5514 10.8356 22.5583 10.81L23.916 5.77C24.067 5.22 24.6405 4.89 25.194 5.04C25.7474 5.19 26.0795 5.76 25.9285 6.31L25.1561 9.16777C25.1329 9.25366 25.225 9.32482 25.3022 9.2807L27.3171 8.13C27.8001 7.86 28.4139 8.02 28.6957 8.5C28.9674 8.98 28.8064 9.59 28.3334 9.86L26.321 11.0093C26.2434 11.0536 26.2584 11.1697 26.3448 11.1928L29.2189 11.96C29.7724 12.11 30.1044 12.68 29.9535 13.23C29.8026 13.78 29.229 14.11 28.6756 13.96L23.6037 12.6106C23.5781 12.6038 23.551 12.6074 23.5281 12.6205L21.3214 13.8887C21.2797 13.9126 21.2611 13.9629 21.2762 14.0085C21.432 14.4764 21.5312 14.9792 21.5312 15.5C21.5312 16.0214 21.4317 16.5158 21.2757 16.9918C21.2607 17.0373 21.2794 17.0872 21.3209 17.1111L23.5281 18.3795C23.551 18.3926 23.5781 18.3962 23.6037 18.3894ZM19.5087 15.5C19.5087 17.1569 18.1572 18.5 16.49 18.5C14.8228 18.5 13.4712 17.1569 13.4712 15.5C13.4712 13.8431 14.8228 12.5 16.49 12.5C18.1572 12.5 19.5087 13.8431 19.5087 15.5Z" fill="url(#paint6_radial_7159_2162)"/>
<path fill-rule="evenodd" clip-rule="evenodd" d="M23.6037 18.3894L28.6756 17.04C29.229 16.89 29.8126 17.19 29.9636 17.75C30.1145 18.31 29.7824 18.87 29.229 19.02L26.3548 19.7872C26.2685 19.8103 26.2534 19.9264 26.331 19.9707L28.3435 21.12C28.8265 21.4 28.9976 22.01 28.7158 22.49C28.4341 22.97 27.8203 23.14 27.3373 22.86L25.3224 21.7093C25.2451 21.6652 25.153 21.7363 25.1762 21.8222L25.9486 24.68C26.0996 25.24 25.7776 25.8 25.2141 25.95C24.6506 26.1 24.0871 25.77 23.9361 25.22L22.5784 20.18C22.5715 20.1544 22.5547 20.1326 22.5317 20.1193L20.3232 18.8502C20.2824 18.8267 20.2308 18.835 20.1988 18.8694C19.5089 19.6098 18.6122 20.1573 17.5863 20.3831C17.5398 20.3933 17.5062 20.4342 17.5062 20.4818V22.9884C17.5062 23.015 17.5169 23.0406 17.5358 23.0593L21.2495 26.75C21.652 27.15 21.652 27.81 21.2495 28.21C20.847 28.61 20.1829 28.61 19.7804 28.21L17.6767 26.1194C17.6136 26.0567 17.5062 26.1014 17.5062 26.1904V28.5C17.5062 29.05 17.0534 29.5 16.5 29.5C15.9466 29.5 15.4938 29.05 15.4938 28.5V26.2004C15.4938 26.1114 15.3863 26.0667 15.3233 26.1294L13.2196 28.22C12.8171 28.62 12.153 28.62 11.7505 28.22C11.348 27.82 11.348 27.16 11.7505 26.76L15.4642 23.0693C15.4831 23.0506 15.4938 23.025 15.4938 22.9984V20.4919C15.4938 20.4443 15.4601 20.4034 15.4135 20.3932C14.3787 20.1675 13.4907 19.6199 12.8011 18.8793C12.7691 18.8449 12.7176 18.8367 12.6768 18.86L10.4785 20.1194C10.4554 20.1326 10.4385 20.1544 10.4316 20.1801L9.07391 25.22C8.92298 25.77 8.34942 26.1 7.79598 25.95C7.24255 25.8 6.91049 25.23 7.06142 24.68L7.83354 21.8233C7.85679 21.7373 7.76436 21.6661 7.68712 21.7106L5.6728 22.87C5.18981 23.14 4.576 22.98 4.29425 22.5C4.0125 22.02 4.18356 21.41 4.6565 21.15L6.67039 19.9908C6.7477 19.9463 6.73248 19.8305 6.6463 19.8075L3.771 19.04C3.21757 18.89 2.88551 18.32 3.03644 17.77C3.18738 17.22 3.76094 16.89 4.31437 17.04L9.38628 18.3894C9.41179 18.3962 9.43894 18.3926 9.46182 18.3795L11.6685 17.1113C11.7102 17.0874 11.7289 17.0371 11.7137 16.9915C11.5579 16.5236 11.4587 16.0208 11.4587 15.5C11.4587 14.9807 11.5574 14.4792 11.7124 14.0292C11.7282 13.9833 11.7097 13.9323 11.6676 13.9081L9.46182 12.6405C9.43894 12.6274 9.41179 12.6238 9.38628 12.6306L4.31437 13.98C3.75088 14.13 3.18738 13.8 3.03644 13.25C2.88551 12.69 3.21757 12.13 3.771 11.98L6.6463 11.2125C6.73248 11.1895 6.7477 11.0737 6.67039 11.0292L4.6565 9.87C4.18356 9.59 4.0125 8.98 4.29425 8.5C4.56594 8.02 5.18981 7.86 5.66274 8.13L7.68746 9.29016C7.76471 9.33442 7.85694 9.26325 7.83371 9.1773L7.06142 6.32C6.91049 5.77 7.24255 5.21 7.79598 5.06C8.34942 4.91 8.91291 5.24 9.06385 5.79L10.4215 10.8299C10.4285 10.8556 10.4453 10.8774 10.4684 10.8906L12.6668 12.15C12.7076 12.1733 12.759 12.1651 12.7911 12.1307C13.481 11.3902 14.3777 10.8427 15.4036 10.6169C15.4501 10.6067 15.4837 10.5658 15.4837 10.5182V8.0116C15.4837 7.98497 15.4731 7.95944 15.4542 7.94067L11.7405 4.25C11.338 3.85 11.338 3.19 11.7405 2.79C12.143 2.39 12.8071 2.39 13.2096 2.79L15.3132 4.88057C15.3763 4.94326 15.4837 4.89858 15.4837 4.80964V2.5C15.4837 1.95 15.9365 1.5 16.4899 1.5C17.0434 1.5 17.4962 1.95 17.4962 2.5V4.80964C17.4962 4.89858 17.6036 4.94326 17.6667 4.88057L19.7703 2.79C20.1728 2.39 20.8369 2.39 21.2394 2.79C21.6419 3.19 21.6419 3.85 21.2394 4.25L17.5257 7.94067C17.5068 7.95944 17.4962 7.98497 17.4962 8.0116V10.5182C17.4962 10.5658 17.5298 10.6067 17.5762 10.6169C18.6018 10.8426 19.498 11.3895 20.1786 12.1205C20.2107 12.155 20.2623 12.1633 20.3031 12.1398L22.5116 10.8707C22.5346 10.8574 22.5514 10.8356 22.5583 10.81L23.916 5.77C24.067 5.22 24.6405 4.89 25.194 5.04C25.7474 5.19 26.0795 5.76 25.9285 6.31L25.1561 9.16777C25.1329 9.25366 25.225 9.32482 25.3022 9.2807L27.3171 8.13C27.8001 7.86 28.4139 8.02 28.6957 8.5C28.9674 8.98 28.8064 9.59 28.3334 9.86L26.321 11.0093C26.2434 11.0536 26.2584 11.1697 26.3448 11.1928L29.2189 11.96C29.7724 12.11 30.1044 12.68 29.9535 13.23C29.8026 13.78 29.229 14.11 28.6756 13.96L23.6037 12.6106C23.5781 12.6038 23.551 12.6074 23.5281 12.6205L21.3214 13.8887C21.2797 13.9126 21.2611 13.9629 21.2762 14.0085C21.432 14.4764 21.5312 14.9792 21.5312 15.5C21.5312 16.0214 21.4317 16.5158 21.2757 16.9918C21.2607 17.0373 21.2794 17.0872 21.3209 17.1111L23.5281 18.3795C23.551 18.3926 23.5781 18.3962 23.6037 18.3894ZM19.5087 15.5C19.5087 17.1569 18.1572 18.5 16.49 18.5C14.8228 18.5 13.4712 17.1569 13.4712 15.5C13.4712 13.8431 14.8228 12.5 16.49 12.5C18.1572 12.5 19.5087 13.8431 19.5087 15.5Z" fill="url(#paint7_radial_7159_2162)"/>
<path fill-rule="evenodd" clip-rule="evenodd" d="M23.6037 18.3894L28.6756 17.04C29.229 16.89 29.8126 17.19 29.9636 17.75C30.1145 18.31 29.7824 18.87 29.229 19.02L26.3548 19.7872C26.2685 19.8103 26.2534 19.9264 26.331 19.9707L28.3435 21.12C28.8265 21.4 28.9976 22.01 28.7158 22.49C28.4341 22.97 27.8203 23.14 27.3373 22.86L25.3224 21.7093C25.2451 21.6652 25.153 21.7363 25.1762 21.8222L25.9486 24.68C26.0996 25.24 25.7776 25.8 25.2141 25.95C24.6506 26.1 24.0871 25.77 23.9361 25.22L22.5784 20.18C22.5715 20.1544 22.5547 20.1326 22.5317 20.1193L20.3232 18.8502C20.2824 18.8267 20.2308 18.835 20.1988 18.8694C19.5089 19.6098 18.6122 20.1573 17.5863 20.3831C17.5398 20.3933 17.5062 20.4342 17.5062 20.4818V22.9884C17.5062 23.015 17.5169 23.0406 17.5358 23.0593L21.2495 26.75C21.652 27.15 21.652 27.81 21.2495 28.21C20.847 28.61 20.1829 28.61 19.7804 28.21L17.6767 26.1194C17.6136 26.0567 17.5062 26.1014 17.5062 26.1904V28.5C17.5062 29.05 17.0534 29.5 16.5 29.5C15.9466 29.5 15.4938 29.05 15.4938 28.5V26.2004C15.4938 26.1114 15.3863 26.0667 15.3233 26.1294L13.2196 28.22C12.8171 28.62 12.153 28.62 11.7505 28.22C11.348 27.82 11.348 27.16 11.7505 26.76L15.4642 23.0693C15.4831 23.0506 15.4938 23.025 15.4938 22.9984V20.4919C15.4938 20.4443 15.4601 20.4034 15.4135 20.3932C14.3787 20.1675 13.4907 19.6199 12.8011 18.8793C12.7691 18.8449 12.7176 18.8367 12.6768 18.86L10.4785 20.1194C10.4554 20.1326 10.4385 20.1544 10.4316 20.1801L9.07391 25.22C8.92298 25.77 8.34942 26.1 7.79598 25.95C7.24255 25.8 6.91049 25.23 7.06142 24.68L7.83354 21.8233C7.85679 21.7373 7.76436 21.6661 7.68712 21.7106L5.6728 22.87C5.18981 23.14 4.576 22.98 4.29425 22.5C4.0125 22.02 4.18356 21.41 4.6565 21.15L6.67039 19.9908C6.7477 19.9463 6.73248 19.8305 6.6463 19.8075L3.771 19.04C3.21757 18.89 2.88551 18.32 3.03644 17.77C3.18738 17.22 3.76094 16.89 4.31437 17.04L9.38628 18.3894C9.41179 18.3962 9.43894 18.3926 9.46182 18.3795L11.6685 17.1113C11.7102 17.0874 11.7289 17.0371 11.7137 16.9915C11.5579 16.5236 11.4587 16.0208 11.4587 15.5C11.4587 14.9807 11.5574 14.4792 11.7124 14.0292C11.7282 13.9833 11.7097 13.9323 11.6676 13.9081L9.46182 12.6405C9.43894 12.6274 9.41179 12.6238 9.38628 12.6306L4.31437 13.98C3.75088 14.13 3.18738 13.8 3.03644 13.25C2.88551 12.69 3.21757 12.13 3.771 11.98L6.6463 11.2125C6.73248 11.1895 6.7477 11.0737 6.67039 11.0292L4.6565 9.87C4.18356 9.59 4.0125 8.98 4.29425 8.5C4.56594 8.02 5.18981 7.86 5.66274 8.13L7.68746 9.29016C7.76471 9.33442 7.85694 9.26325 7.83371 9.1773L7.06142 6.32C6.91049 5.77 7.24255 5.21 7.79598 5.06C8.34942 4.91 8.91291 5.24 9.06385 5.79L10.4215 10.8299C10.4285 10.8556 10.4453 10.8774 10.4684 10.8906L12.6668 12.15C12.7076 12.1733 12.759 12.1651 12.7911 12.1307C13.481 11.3902 14.3777 10.8427 15.4036 10.6169C15.4501 10.6067 15.4837 10.5658 15.4837 10.5182V8.0116C15.4837 7.98497 15.4731 7.95944 15.4542 7.94067L11.7405 4.25C11.338 3.85 11.338 3.19 11.7405 2.79C12.143 2.39 12.8071 2.39 13.2096 2.79L15.3132 4.88057C15.3763 4.94326 15.4837 4.89858 15.4837 4.80964V2.5C15.4837 1.95 15.9365 1.5 16.4899 1.5C17.0434 1.5 17.4962 1.95 17.4962 2.5V4.80964C17.4962 4.89858 17.6036 4.94326 17.6667 4.88057L19.7703 2.79C20.1728 2.39 20.8369 2.39 21.2394 2.79C21.6419 3.19 21.6419 3.85 21.2394 4.25L17.5257 7.94067C17.5068 7.95944 17.4962 7.98497 17.4962 8.0116V10.5182C17.4962 10.5658 17.5298 10.6067 17.5762 10.6169C18.6018 10.8426 19.498 11.3895 20.1786 12.1205C20.2107 12.155 20.2623 12.1633 20.3031 12.1398L22.5116 10.8707C22.5346 10.8574 22.5514 10.8356 22.5583 10.81L23.916 5.77C24.067 5.22 24.6405 4.89 25.194 5.04C25.7474 5.19 26.0795 5.76 25.9285 6.31L25.1561 9.16777C25.1329 9.25366 25.225 9.32482 25.3022 9.2807L27.3171 8.13C27.8001 7.86 28.4139 8.02 28.6957 8.5C28.9674 8.98 28.8064 9.59 28.3334 9.86L26.321 11.0093C26.2434 11.0536 26.2584 11.1697 26.3448 11.1928L29.2189 11.96C29.7724 12.11 30.1044 12.68 29.9535 13.23C29.8026 13.78 29.229 14.11 28.6756 13.96L23.6037 12.6106C23.5781 12.6038 23.551 12.6074 23.5281 12.6205L21.3214 13.8887C21.2797 13.9126 21.2611 13.9629 21.2762 14.0085C21.432 14.4764 21.5312 14.9792 21.5312 15.5C21.5312 16.0214 21.4317 16.5158 21.2757 16.9918C21.2607 17.0373 21.2794 17.0872 21.3209 17.1111L23.5281 18.3795C23.551 18.3926 23.5781 18.3962 23.6037 18.3894ZM19.5087 15.5C19.5087 17.1569 18.1572 18.5 16.49 18.5C14.8228 18.5 13.4712 17.1569 13.4712 15.5C13.4712 13.8431 14.8228 12.5 16.49 12.5C18.1572 12.5 19.5087 13.8431 19.5087 15.5Z" fill="url(#paint8_radial_7159_2162)"/>
<path fill-rule="evenodd" clip-rule="evenodd" d="M23.6037 18.3894L28.6756 17.04C29.229 16.89 29.8126 17.19 29.9636 17.75C30.1145 18.31 29.7824 18.87 29.229 19.02L26.3548 19.7872C26.2685 19.8103 26.2534 19.9264 26.331 19.9707L28.3435 21.12C28.8265 21.4 28.9976 22.01 28.7158 22.49C28.4341 22.97 27.8203 23.14 27.3373 22.86L25.3224 21.7093C25.2451 21.6652 25.153 21.7363 25.1762 21.8222L25.9486 24.68C26.0996 25.24 25.7776 25.8 25.2141 25.95C24.6506 26.1 24.0871 25.77 23.9361 25.22L22.5784 20.18C22.5715 20.1544 22.5547 20.1326 22.5317 20.1193L20.3232 18.8502C20.2824 18.8267 20.2308 18.835 20.1988 18.8694C19.5089 19.6098 18.6122 20.1573 17.5863 20.3831C17.5398 20.3933 17.5062 20.4342 17.5062 20.4818V22.9884C17.5062 23.015 17.5169 23.0406 17.5358 23.0593L21.2495 26.75C21.652 27.15 21.652 27.81 21.2495 28.21C20.847 28.61 20.1829 28.61 19.7804 28.21L17.6767 26.1194C17.6136 26.0567 17.5062 26.1014 17.5062 26.1904V28.5C17.5062 29.05 17.0534 29.5 16.5 29.5C15.9466 29.5 15.4938 29.05 15.4938 28.5V26.2004C15.4938 26.1114 15.3863 26.0667 15.3233 26.1294L13.2196 28.22C12.8171 28.62 12.153 28.62 11.7505 28.22C11.348 27.82 11.348 27.16 11.7505 26.76L15.4642 23.0693C15.4831 23.0506 15.4938 23.025 15.4938 22.9984V20.4919C15.4938 20.4443 15.4601 20.4034 15.4135 20.3932C14.3787 20.1675 13.4907 19.6199 12.8011 18.8793C12.7691 18.8449 12.7176 18.8367 12.6768 18.86L10.4785 20.1194C10.4554 20.1326 10.4385 20.1544 10.4316 20.1801L9.07391 25.22C8.92298 25.77 8.34942 26.1 7.79598 25.95C7.24255 25.8 6.91049 25.23 7.06142 24.68L7.83354 21.8233C7.85679 21.7373 7.76436 21.6661 7.68712 21.7106L5.6728 22.87C5.18981 23.14 4.576 22.98 4.29425 22.5C4.0125 22.02 4.18356 21.41 4.6565 21.15L6.67039 19.9908C6.7477 19.9463 6.73248 19.8305 6.6463 19.8075L3.771 19.04C3.21757 18.89 2.88551 18.32 3.03644 17.77C3.18738 17.22 3.76094 16.89 4.31437 17.04L9.38628 18.3894C9.41179 18.3962 9.43894 18.3926 9.46182 18.3795L11.6685 17.1113C11.7102 17.0874 11.7289 17.0371 11.7137 16.9915C11.5579 16.5236 11.4587 16.0208 11.4587 15.5C11.4587 14.9807 11.5574 14.4792 11.7124 14.0292C11.7282 13.9833 11.7097 13.9323 11.6676 13.9081L9.46182 12.6405C9.43894 12.6274 9.41179 12.6238 9.38628 12.6306L4.31437 13.98C3.75088 14.13 3.18738 13.8 3.03644 13.25C2.88551 12.69 3.21757 12.13 3.771 11.98L6.6463 11.2125C6.73248 11.1895 6.7477 11.0737 6.67039 11.0292L4.6565 9.87C4.18356 9.59 4.0125 8.98 4.29425 8.5C4.56594 8.02 5.18981 7.86 5.66274 8.13L7.68746 9.29016C7.76471 9.33442 7.85694 9.26325 7.83371 9.1773L7.06142 6.32C6.91049 5.77 7.24255 5.21 7.79598 5.06C8.34942 4.91 8.91291 5.24 9.06385 5.79L10.4215 10.8299C10.4285 10.8556 10.4453 10.8774 10.4684 10.8906L12.6668 12.15C12.7076 12.1733 12.759 12.1651 12.7911 12.1307C13.481 11.3902 14.3777 10.8427 15.4036 10.6169C15.4501 10.6067 15.4837 10.5658 15.4837 10.5182V8.0116C15.4837 7.98497 15.4731 7.95944 15.4542 7.94067L11.7405 4.25C11.338 3.85 11.338 3.19 11.7405 2.79C12.143 2.39 12.8071 2.39 13.2096 2.79L15.3132 4.88057C15.3763 4.94326 15.4837 4.89858 15.4837 4.80964V2.5C15.4837 1.95 15.9365 1.5 16.4899 1.5C17.0434 1.5 17.4962 1.95 17.4962 2.5V4.80964C17.4962 4.89858 17.6036 4.94326 17.6667 4.88057L19.7703 2.79C20.1728 2.39 20.8369 2.39 21.2394 2.79C21.6419 3.19 21.6419 3.85 21.2394 4.25L17.5257 7.94067C17.5068 7.95944 17.4962 7.98497 17.4962 8.0116V10.5182C17.4962 10.5658 17.5298 10.6067 17.5762 10.6169C18.6018 10.8426 19.498 11.3895 20.1786 12.1205C20.2107 12.155 20.2623 12.1633 20.3031 12.1398L22.5116 10.8707C22.5346 10.8574 22.5514 10.8356 22.5583 10.81L23.916 5.77C24.067 5.22 24.6405 4.89 25.194 5.04C25.7474 5.19 26.0795 5.76 25.9285 6.31L25.1561 9.16777C25.1329 9.25366 25.225 9.32482 25.3022 9.2807L27.3171 8.13C27.8001 7.86 28.4139 8.02 28.6957 8.5C28.9674 8.98 28.8064 9.59 28.3334 9.86L26.321 11.0093C26.2434 11.0536 26.2584 11.1697 26.3448 11.1928L29.2189 11.96C29.7724 12.11 30.1044 12.68 29.9535 13.23C29.8026 13.78 29.229 14.11 28.6756 13.96L23.6037 12.6106C23.5781 12.6038 23.551 12.6074 23.5281 12.6205L21.3214 13.8887C21.2797 13.9126 21.2611 13.9629 21.2762 14.0085C21.432 14.4764 21.5312 14.9792 21.5312 15.5C21.5312 16.0214 21.4317 16.5158 21.2757 16.9918C21.2607 17.0373 21.2794 17.0872 21.3209 17.1111L23.5281 18.3795C23.551 18.3926 23.5781 18.3962 23.6037 18.3894ZM19.5087 15.5C19.5087 17.1569 18.1572 18.5 16.49 18.5C14.8228 18.5 13.4712 17.1569 13.4712 15.5C13.4712 13.8431 14.8228 12.5 16.49 12.5C18.1572 12.5 19.5087 13.8431 19.5087 15.5Z" fill="url(#paint9_radial_7159_2162)"/>
<path fill-rule="evenodd" clip-rule="evenodd" d="M23.6037 18.3894L28.6756 17.04C29.229 16.89 29.8126 17.19 29.9636 17.75C30.1145 18.31 29.7824 18.87 29.229 19.02L26.3548 19.7872C26.2685 19.8103 26.2534 19.9264 26.331 19.9707L28.3435 21.12C28.8265 21.4 28.9976 22.01 28.7158 22.49C28.4341 22.97 27.8203 23.14 27.3373 22.86L25.3224 21.7093C25.2451 21.6652 25.153 21.7363 25.1762 21.8222L25.9486 24.68C26.0996 25.24 25.7776 25.8 25.2141 25.95C24.6506 26.1 24.0871 25.77 23.9361 25.22L22.5784 20.18C22.5715 20.1544 22.5547 20.1326 22.5317 20.1193L20.3232 18.8502C20.2824 18.8267 20.2308 18.835 20.1988 18.8694C19.5089 19.6098 18.6122 20.1573 17.5863 20.3831C17.5398 20.3933 17.5062 20.4342 17.5062 20.4818V22.9884C17.5062 23.015 17.5169 23.0406 17.5358 23.0593L21.2495 26.75C21.652 27.15 21.652 27.81 21.2495 28.21C20.847 28.61 20.1829 28.61 19.7804 28.21L17.6767 26.1194C17.6136 26.0567 17.5062 26.1014 17.5062 26.1904V28.5C17.5062 29.05 17.0534 29.5 16.5 29.5C15.9466 29.5 15.4938 29.05 15.4938 28.5V26.2004C15.4938 26.1114 15.3863 26.0667 15.3233 26.1294L13.2196 28.22C12.8171 28.62 12.153 28.62 11.7505 28.22C11.348 27.82 11.348 27.16 11.7505 26.76L15.4642 23.0693C15.4831 23.0506 15.4938 23.025 15.4938 22.9984V20.4919C15.4938 20.4443 15.4601 20.4034 15.4135 20.3932C14.3787 20.1675 13.4907 19.6199 12.8011 18.8793C12.7691 18.8449 12.7176 18.8367 12.6768 18.86L10.4785 20.1194C10.4554 20.1326 10.4385 20.1544 10.4316 20.1801L9.07391 25.22C8.92298 25.77 8.34942 26.1 7.79598 25.95C7.24255 25.8 6.91049 25.23 7.06142 24.68L7.83354 21.8233C7.85679 21.7373 7.76436 21.6661 7.68712 21.7106L5.6728 22.87C5.18981 23.14 4.576 22.98 4.29425 22.5C4.0125 22.02 4.18356 21.41 4.6565 21.15L6.67039 19.9908C6.7477 19.9463 6.73248 19.8305 6.6463 19.8075L3.771 19.04C3.21757 18.89 2.88551 18.32 3.03644 17.77C3.18738 17.22 3.76094 16.89 4.31437 17.04L9.38628 18.3894C9.41179 18.3962 9.43894 18.3926 9.46182 18.3795L11.6685 17.1113C11.7102 17.0874 11.7289 17.0371 11.7137 16.9915C11.5579 16.5236 11.4587 16.0208 11.4587 15.5C11.4587 14.9807 11.5574 14.4792 11.7124 14.0292C11.7282 13.9833 11.7097 13.9323 11.6676 13.9081L9.46182 12.6405C9.43894 12.6274 9.41179 12.6238 9.38628 12.6306L4.31437 13.98C3.75088 14.13 3.18738 13.8 3.03644 13.25C2.88551 12.69 3.21757 12.13 3.771 11.98L6.6463 11.2125C6.73248 11.1895 6.7477 11.0737 6.67039 11.0292L4.6565 9.87C4.18356 9.59 4.0125 8.98 4.29425 8.5C4.56594 8.02 5.18981 7.86 5.66274 8.13L7.68746 9.29016C7.76471 9.33442 7.85694 9.26325 7.83371 9.1773L7.06142 6.32C6.91049 5.77 7.24255 5.21 7.79598 5.06C8.34942 4.91 8.91291 5.24 9.06385 5.79L10.4215 10.8299C10.4285 10.8556 10.4453 10.8774 10.4684 10.8906L12.6668 12.15C12.7076 12.1733 12.759 12.1651 12.7911 12.1307C13.481 11.3902 14.3777 10.8427 15.4036 10.6169C15.4501 10.6067 15.4837 10.5658 15.4837 10.5182V8.0116C15.4837 7.98497 15.4731 7.95944 15.4542 7.94067L11.7405 4.25C11.338 3.85 11.338 3.19 11.7405 2.79C12.143 2.39 12.8071 2.39 13.2096 2.79L15.3132 4.88057C15.3763 4.94326 15.4837 4.89858 15.4837 4.80964V2.5C15.4837 1.95 15.9365 1.5 16.4899 1.5C17.0434 1.5 17.4962 1.95 17.4962 2.5V4.80964C17.4962 4.89858 17.6036 4.94326 17.6667 4.88057L19.7703 2.79C20.1728 2.39 20.8369 2.39 21.2394 2.79C21.6419 3.19 21.6419 3.85 21.2394 4.25L17.5257 7.94067C17.5068 7.95944 17.4962 7.98497 17.4962 8.0116V10.5182C17.4962 10.5658 17.5298 10.6067 17.5762 10.6169C18.6018 10.8426 19.498 11.3895 20.1786 12.1205C20.2107 12.155 20.2623 12.1633 20.3031 12.1398L22.5116 10.8707C22.5346 10.8574 22.5514 10.8356 22.5583 10.81L23.916 5.77C24.067 5.22 24.6405 4.89 25.194 5.04C25.7474 5.19 26.0795 5.76 25.9285 6.31L25.1561 9.16777C25.1329 9.25366 25.225 9.32482 25.3022 9.2807L27.3171 8.13C27.8001 7.86 28.4139 8.02 28.6957 8.5C28.9674 8.98 28.8064 9.59 28.3334 9.86L26.321 11.0093C26.2434 11.0536 26.2584 11.1697 26.3448 11.1928L29.2189 11.96C29.7724 12.11 30.1044 12.68 29.9535 13.23C29.8026 13.78 29.229 14.11 28.6756 13.96L23.6037 12.6106C23.5781 12.6038 23.551 12.6074 23.5281 12.6205L21.3214 13.8887C21.2797 13.9126 21.2611 13.9629 21.2762 14.0085C21.432 14.4764 21.5312 14.9792 21.5312 15.5C21.5312 16.0214 21.4317 16.5158 21.2757 16.9918C21.2607 17.0373 21.2794 17.0872 21.3209 17.1111L23.5281 18.3795C23.551 18.3926 23.5781 18.3962 23.6037 18.3894ZM19.5087 15.5C19.5087 17.1569 18.1572 18.5 16.49 18.5C14.8228 18.5 13.4712 17.1569 13.4712 15.5C13.4712 13.8431 14.8228 12.5 16.49 12.5C18.1572 12.5 19.5087 13.8431 19.5087 15.5Z" fill="url(#paint10_radial_7159_2162)"/>
<path fill-rule="evenodd" clip-rule="evenodd" d="M23.6037 18.3894L28.6756 17.04C29.229 16.89 29.8126 17.19 29.9636 17.75C30.1145 18.31 29.7824 18.87 29.229 19.02L26.3548 19.7872C26.2685 19.8103 26.2534 19.9264 26.331 19.9707L28.3435 21.12C28.8265 21.4 28.9976 22.01 28.7158 22.49C28.4341 22.97 27.8203 23.14 27.3373 22.86L25.3224 21.7093C25.2451 21.6652 25.153 21.7363 25.1762 21.8222L25.9486 24.68C26.0996 25.24 25.7776 25.8 25.2141 25.95C24.6506 26.1 24.0871 25.77 23.9361 25.22L22.5784 20.18C22.5715 20.1544 22.5547 20.1326 22.5317 20.1193L20.3232 18.8502C20.2824 18.8267 20.2308 18.835 20.1988 18.8694C19.5089 19.6098 18.6122 20.1573 17.5863 20.3831C17.5398 20.3933 17.5062 20.4342 17.5062 20.4818V22.9884C17.5062 23.015 17.5169 23.0406 17.5358 23.0593L21.2495 26.75C21.652 27.15 21.652 27.81 21.2495 28.21C20.847 28.61 20.1829 28.61 19.7804 28.21L17.6767 26.1194C17.6136 26.0567 17.5062 26.1014 17.5062 26.1904V28.5C17.5062 29.05 17.0534 29.5 16.5 29.5C15.9466 29.5 15.4938 29.05 15.4938 28.5V26.2004C15.4938 26.1114 15.3863 26.0667 15.3233 26.1294L13.2196 28.22C12.8171 28.62 12.153 28.62 11.7505 28.22C11.348 27.82 11.348 27.16 11.7505 26.76L15.4642 23.0693C15.4831 23.0506 15.4938 23.025 15.4938 22.9984V20.4919C15.4938 20.4443 15.4601 20.4034 15.4135 20.3932C14.3787 20.1675 13.4907 19.6199 12.8011 18.8793C12.7691 18.8449 12.7176 18.8367 12.6768 18.86L10.4785 20.1194C10.4554 20.1326 10.4385 20.1544 10.4316 20.1801L9.07391 25.22C8.92298 25.77 8.34942 26.1 7.79598 25.95C7.24255 25.8 6.91049 25.23 7.06142 24.68L7.83354 21.8233C7.85679 21.7373 7.76436 21.6661 7.68712 21.7106L5.6728 22.87C5.18981 23.14 4.576 22.98 4.29425 22.5C4.0125 22.02 4.18356 21.41 4.6565 21.15L6.67039 19.9908C6.7477 19.9463 6.73248 19.8305 6.6463 19.8075L3.771 19.04C3.21757 18.89 2.88551 18.32 3.03644 17.77C3.18738 17.22 3.76094 16.89 4.31437 17.04L9.38628 18.3894C9.41179 18.3962 9.43894 18.3926 9.46182 18.3795L11.6685 17.1113C11.7102 17.0874 11.7289 17.0371 11.7137 16.9915C11.5579 16.5236 11.4587 16.0208 11.4587 15.5C11.4587 14.9807 11.5574 14.4792 11.7124 14.0292C11.7282 13.9833 11.7097 13.9323 11.6676 13.9081L9.46182 12.6405C9.43894 12.6274 9.41179 12.6238 9.38628 12.6306L4.31437 13.98C3.75088 14.13 3.18738 13.8 3.03644 13.25C2.88551 12.69 3.21757 12.13 3.771 11.98L6.6463 11.2125C6.73248 11.1895 6.7477 11.0737 6.67039 11.0292L4.6565 9.87C4.18356 9.59 4.0125 8.98 4.29425 8.5C4.56594 8.02 5.18981 7.86 5.66274 8.13L7.68746 9.29016C7.76471 9.33442 7.85694 9.26325 7.83371 9.1773L7.06142 6.32C6.91049 5.77 7.24255 5.21 7.79598 5.06C8.34942 4.91 8.91291 5.24 9.06385 5.79L10.4215 10.8299C10.4285 10.8556 10.4453 10.8774 10.4684 10.8906L12.6668 12.15C12.7076 12.1733 12.759 12.1651 12.7911 12.1307C13.481 11.3902 14.3777 10.8427 15.4036 10.6169C15.4501 10.6067 15.4837 10.5658 15.4837 10.5182V8.0116C15.4837 7.98497 15.4731 7.95944 15.4542 7.94067L11.7405 4.25C11.338 3.85 11.338 3.19 11.7405 2.79C12.143 2.39 12.8071 2.39 13.2096 2.79L15.3132 4.88057C15.3763 4.94326 15.4837 4.89858 15.4837 4.80964V2.5C15.4837 1.95 15.9365 1.5 16.4899 1.5C17.0434 1.5 17.4962 1.95 17.4962 2.5V4.80964C17.4962 4.89858 17.6036 4.94326 17.6667 4.88057L19.7703 2.79C20.1728 2.39 20.8369 2.39 21.2394 2.79C21.6419 3.19 21.6419 3.85 21.2394 4.25L17.5257 7.94067C17.5068 7.95944 17.4962 7.98497 17.4962 8.0116V10.5182C17.4962 10.5658 17.5298 10.6067 17.5762 10.6169C18.6018 10.8426 19.498 11.3895 20.1786 12.1205C20.2107 12.155 20.2623 12.1633 20.3031 12.1398L22.5116 10.8707C22.5346 10.8574 22.5514 10.8356 22.5583 10.81L23.916 5.77C24.067 5.22 24.6405 4.89 25.194 5.04C25.7474 5.19 26.0795 5.76 25.9285 6.31L25.1561 9.16777C25.1329 9.25366 25.225 9.32482 25.3022 9.2807L27.3171 8.13C27.8001 7.86 28.4139 8.02 28.6957 8.5C28.9674 8.98 28.8064 9.59 28.3334 9.86L26.321 11.0093C26.2434 11.0536 26.2584 11.1697 26.3448 11.1928L29.2189 11.96C29.7724 12.11 30.1044 12.68 29.9535 13.23C29.8026 13.78 29.229 14.11 28.6756 13.96L23.6037 12.6106C23.5781 12.6038 23.551 12.6074 23.5281 12.6205L21.3214 13.8887C21.2797 13.9126 21.2611 13.9629 21.2762 14.0085C21.432 14.4764 21.5312 14.9792 21.5312 15.5C21.5312 16.0214 21.4317 16.5158 21.2757 16.9918C21.2607 17.0373 21.2794 17.0872 21.3209 17.1111L23.5281 18.3795C23.551 18.3926 23.5781 18.3962 23.6037 18.3894ZM19.5087 15.5C19.5087 17.1569 18.1572 18.5 16.49 18.5C14.8228 18.5 13.4712 17.1569 13.4712 15.5C13.4712 13.8431 14.8228 12.5 16.49 12.5C18.1572 12.5 19.5087 13.8431 19.5087 15.5Z" fill="url(#paint11_radial_7159_2162)"/>
<path fill-rule="evenodd" clip-rule="evenodd" d="M23.6037 18.3894L28.6756 17.04C29.229 16.89 29.8126 17.19 29.9636 17.75C30.1145 18.31 29.7824 18.87 29.229 19.02L26.3548 19.7872C26.2685 19.8103 26.2534 19.9264 26.331 19.9707L28.3435 21.12C28.8265 21.4 28.9976 22.01 28.7158 22.49C28.4341 22.97 27.8203 23.14 27.3373 22.86L25.3224 21.7093C25.2451 21.6652 25.153 21.7363 25.1762 21.8222L25.9486 24.68C26.0996 25.24 25.7776 25.8 25.2141 25.95C24.6506 26.1 24.0871 25.77 23.9361 25.22L22.5784 20.18C22.5715 20.1544 22.5547 20.1326 22.5317 20.1193L20.3232 18.8502C20.2824 18.8267 20.2308 18.835 20.1988 18.8694C19.5089 19.6098 18.6122 20.1573 17.5863 20.3831C17.5398 20.3933 17.5062 20.4342 17.5062 20.4818V22.9884C17.5062 23.015 17.5169 23.0406 17.5358 23.0593L21.2495 26.75C21.652 27.15 21.652 27.81 21.2495 28.21C20.847 28.61 20.1829 28.61 19.7804 28.21L17.6767 26.1194C17.6136 26.0567 17.5062 26.1014 17.5062 26.1904V28.5C17.5062 29.05 17.0534 29.5 16.5 29.5C15.9466 29.5 15.4938 29.05 15.4938 28.5V26.2004C15.4938 26.1114 15.3863 26.0667 15.3233 26.1294L13.2196 28.22C12.8171 28.62 12.153 28.62 11.7505 28.22C11.348 27.82 11.348 27.16 11.7505 26.76L15.4642 23.0693C15.4831 23.0506 15.4938 23.025 15.4938 22.9984V20.4919C15.4938 20.4443 15.4601 20.4034 15.4135 20.3932C14.3787 20.1675 13.4907 19.6199 12.8011 18.8793C12.7691 18.8449 12.7176 18.8367 12.6768 18.86L10.4785 20.1194C10.4554 20.1326 10.4385 20.1544 10.4316 20.1801L9.07391 25.22C8.92298 25.77 8.34942 26.1 7.79598 25.95C7.24255 25.8 6.91049 25.23 7.06142 24.68L7.83354 21.8233C7.85679 21.7373 7.76436 21.6661 7.68712 21.7106L5.6728 22.87C5.18981 23.14 4.576 22.98 4.29425 22.5C4.0125 22.02 4.18356 21.41 4.6565 21.15L6.67039 19.9908C6.7477 19.9463 6.73248 19.8305 6.6463 19.8075L3.771 19.04C3.21757 18.89 2.88551 18.32 3.03644 17.77C3.18738 17.22 3.76094 16.89 4.31437 17.04L9.38628 18.3894C9.41179 18.3962 9.43894 18.3926 9.46182 18.3795L11.6685 17.1113C11.7102 17.0874 11.7289 17.0371 11.7137 16.9915C11.5579 16.5236 11.4587 16.0208 11.4587 15.5C11.4587 14.9807 11.5574 14.4792 11.7124 14.0292C11.7282 13.9833 11.7097 13.9323 11.6676 13.9081L9.46182 12.6405C9.43894 12.6274 9.41179 12.6238 9.38628 12.6306L4.31437 13.98C3.75088 14.13 3.18738 13.8 3.03644 13.25C2.88551 12.69 3.21757 12.13 3.771 11.98L6.6463 11.2125C6.73248 11.1895 6.7477 11.0737 6.67039 11.0292L4.6565 9.87C4.18356 9.59 4.0125 8.98 4.29425 8.5C4.56594 8.02 5.18981 7.86 5.66274 8.13L7.68746 9.29016C7.76471 9.33442 7.85694 9.26325 7.83371 9.1773L7.06142 6.32C6.91049 5.77 7.24255 5.21 7.79598 5.06C8.34942 4.91 8.91291 5.24 9.06385 5.79L10.4215 10.8299C10.4285 10.8556 10.4453 10.8774 10.4684 10.8906L12.6668 12.15C12.7076 12.1733 12.759 12.1651 12.7911 12.1307C13.481 11.3902 14.3777 10.8427 15.4036 10.6169C15.4501 10.6067 15.4837 10.5658 15.4837 10.5182V8.0116C15.4837 7.98497 15.4731 7.95944 15.4542 7.94067L11.7405 4.25C11.338 3.85 11.338 3.19 11.7405 2.79C12.143 2.39 12.8071 2.39 13.2096 2.79L15.3132 4.88057C15.3763 4.94326 15.4837 4.89858 15.4837 4.80964V2.5C15.4837 1.95 15.9365 1.5 16.4899 1.5C17.0434 1.5 17.4962 1.95 17.4962 2.5V4.80964C17.4962 4.89858 17.6036 4.94326 17.6667 4.88057L19.7703 2.79C20.1728 2.39 20.8369 2.39 21.2394 2.79C21.6419 3.19 21.6419 3.85 21.2394 4.25L17.5257 7.94067C17.5068 7.95944 17.4962 7.98497 17.4962 8.0116V10.5182C17.4962 10.5658 17.5298 10.6067 17.5762 10.6169C18.6018 10.8426 19.498 11.3895 20.1786 12.1205C20.2107 12.155 20.2623 12.1633 20.3031 12.1398L22.5116 10.8707C22.5346 10.8574 22.5514 10.8356 22.5583 10.81L23.916 5.77C24.067 5.22 24.6405 4.89 25.194 5.04C25.7474 5.19 26.0795 5.76 25.9285 6.31L25.1561 9.16777C25.1329 9.25366 25.225 9.32482 25.3022 9.2807L27.3171 8.13C27.8001 7.86 28.4139 8.02 28.6957 8.5C28.9674 8.98 28.8064 9.59 28.3334 9.86L26.321 11.0093C26.2434 11.0536 26.2584 11.1697 26.3448 11.1928L29.2189 11.96C29.7724 12.11 30.1044 12.68 29.9535 13.23C29.8026 13.78 29.229 14.11 28.6756 13.96L23.6037 12.6106C23.5781 12.6038 23.551 12.6074 23.5281 12.6205L21.3214 13.8887C21.2797 13.9126 21.2611 13.9629 21.2762 14.0085C21.432 14.4764 21.5312 14.9792 21.5312 15.5C21.5312 16.0214 21.4317 16.5158 21.2757 16.9918C21.2607 17.0373 21.2794 17.0872 21.3209 17.1111L23.5281 18.3795C23.551 18.3926 23.5781 18.3962 23.6037 18.3894ZM19.5087 15.5C19.5087 17.1569 18.1572 18.5 16.49 18.5C14.8228 18.5 13.4712 17.1569 13.4712 15.5C13.4712 13.8431 14.8228 12.5 16.49 12.5C18.1572 12.5 19.5087 13.8431 19.5087 15.5Z" fill="url(#paint12_radial_7159_2162)"/>
<path fill-rule="evenodd" clip-rule="evenodd" d="M23.6037 18.3894L28.6756 17.04C29.229 16.89 29.8126 17.19 29.9636 17.75C30.1145 18.31 29.7824 18.87 29.229 19.02L26.3548 19.7872C26.2685 19.8103 26.2534 19.9264 26.331 19.9707L28.3435 21.12C28.8265 21.4 28.9976 22.01 28.7158 22.49C28.4341 22.97 27.8203 23.14 27.3373 22.86L25.3224 21.7093C25.2451 21.6652 25.153 21.7363 25.1762 21.8222L25.9486 24.68C26.0996 25.24 25.7776 25.8 25.2141 25.95C24.6506 26.1 24.0871 25.77 23.9361 25.22L22.5784 20.18C22.5715 20.1544 22.5547 20.1326 22.5317 20.1193L20.3232 18.8502C20.2824 18.8267 20.2308 18.835 20.1988 18.8694C19.5089 19.6098 18.6122 20.1573 17.5863 20.3831C17.5398 20.3933 17.5062 20.4342 17.5062 20.4818V22.9884C17.5062 23.015 17.5169 23.0406 17.5358 23.0593L21.2495 26.75C21.652 27.15 21.652 27.81 21.2495 28.21C20.847 28.61 20.1829 28.61 19.7804 28.21L17.6767 26.1194C17.6136 26.0567 17.5062 26.1014 17.5062 26.1904V28.5C17.5062 29.05 17.0534 29.5 16.5 29.5C15.9466 29.5 15.4938 29.05 15.4938 28.5V26.2004C15.4938 26.1114 15.3863 26.0667 15.3233 26.1294L13.2196 28.22C12.8171 28.62 12.153 28.62 11.7505 28.22C11.348 27.82 11.348 27.16 11.7505 26.76L15.4642 23.0693C15.4831 23.0506 15.4938 23.025 15.4938 22.9984V20.4919C15.4938 20.4443 15.4601 20.4034 15.4135 20.3932C14.3787 20.1675 13.4907 19.6199 12.8011 18.8793C12.7691 18.8449 12.7176 18.8367 12.6768 18.86L10.4785 20.1194C10.4554 20.1326 10.4385 20.1544 10.4316 20.1801L9.07391 25.22C8.92298 25.77 8.34942 26.1 7.79598 25.95C7.24255 25.8 6.91049 25.23 7.06142 24.68L7.83354 21.8233C7.85679 21.7373 7.76436 21.6661 7.68712 21.7106L5.6728 22.87C5.18981 23.14 4.576 22.98 4.29425 22.5C4.0125 22.02 4.18356 21.41 4.6565 21.15L6.67039 19.9908C6.7477 19.9463 6.73248 19.8305 6.6463 19.8075L3.771 19.04C3.21757 18.89 2.88551 18.32 3.03644 17.77C3.18738 17.22 3.76094 16.89 4.31437 17.04L9.38628 18.3894C9.41179 18.3962 9.43894 18.3926 9.46182 18.3795L11.6685 17.1113C11.7102 17.0874 11.7289 17.0371 11.7137 16.9915C11.5579 16.5236 11.4587 16.0208 11.4587 15.5C11.4587 14.9807 11.5574 14.4792 11.7124 14.0292C11.7282 13.9833 11.7097 13.9323 11.6676 13.9081L9.46182 12.6405C9.43894 12.6274 9.41179 12.6238 9.38628 12.6306L4.31437 13.98C3.75088 14.13 3.18738 13.8 3.03644 13.25C2.88551 12.69 3.21757 12.13 3.771 11.98L6.6463 11.2125C6.73248 11.1895 6.7477 11.0737 6.67039 11.0292L4.6565 9.87C4.18356 9.59 4.0125 8.98 4.29425 8.5C4.56594 8.02 5.18981 7.86 5.66274 8.13L7.68746 9.29016C7.76471 9.33442 7.85694 9.26325 7.83371 9.1773L7.06142 6.32C6.91049 5.77 7.24255 5.21 7.79598 5.06C8.34942 4.91 8.91291 5.24 9.06385 5.79L10.4215 10.8299C10.4285 10.8556 10.4453 10.8774 10.4684 10.8906L12.6668 12.15C12.7076 12.1733 12.759 12.1651 12.7911 12.1307C13.481 11.3902 14.3777 10.8427 15.4036 10.6169C15.4501 10.6067 15.4837 10.5658 15.4837 10.5182V8.0116C15.4837 7.98497 15.4731 7.95944 15.4542 7.94067L11.7405 4.25C11.338 3.85 11.338 3.19 11.7405 2.79C12.143 2.39 12.8071 2.39 13.2096 2.79L15.3132 4.88057C15.3763 4.94326 15.4837 4.89858 15.4837 4.80964V2.5C15.4837 1.95 15.9365 1.5 16.4899 1.5C17.0434 1.5 17.4962 1.95 17.4962 2.5V4.80964C17.4962 4.89858 17.6036 4.94326 17.6667 4.88057L19.7703 2.79C20.1728 2.39 20.8369 2.39 21.2394 2.79C21.6419 3.19 21.6419 3.85 21.2394 4.25L17.5257 7.94067C17.5068 7.95944 17.4962 7.98497 17.4962 8.0116V10.5182C17.4962 10.5658 17.5298 10.6067 17.5762 10.6169C18.6018 10.8426 19.498 11.3895 20.1786 12.1205C20.2107 12.155 20.2623 12.1633 20.3031 12.1398L22.5116 10.8707C22.5346 10.8574 22.5514 10.8356 22.5583 10.81L23.916 5.77C24.067 5.22 24.6405 4.89 25.194 5.04C25.7474 5.19 26.0795 5.76 25.9285 6.31L25.1561 9.16777C25.1329 9.25366 25.225 9.32482 25.3022 9.2807L27.3171 8.13C27.8001 7.86 28.4139 8.02 28.6957 8.5C28.9674 8.98 28.8064 9.59 28.3334 9.86L26.321 11.0093C26.2434 11.0536 26.2584 11.1697 26.3448 11.1928L29.2189 11.96C29.7724 12.11 30.1044 12.68 29.9535 13.23C29.8026 13.78 29.229 14.11 28.6756 13.96L23.6037 12.6106C23.5781 12.6038 23.551 12.6074 23.5281 12.6205L21.3214 13.8887C21.2797 13.9126 21.2611 13.9629 21.2762 14.0085C21.432 14.4764 21.5312 14.9792 21.5312 15.5C21.5312 16.0214 21.4317 16.5158 21.2757 16.9918C21.2607 17.0373 21.2794 17.0872 21.3209 17.1111L23.5281 18.3795C23.551 18.3926 23.5781 18.3962 23.6037 18.3894ZM19.5087 15.5C19.5087 17.1569 18.1572 18.5 16.49 18.5C14.8228 18.5 13.4712 17.1569 13.4712 15.5C13.4712 13.8431 14.8228 12.5 16.49 12.5C18.1572 12.5 19.5087 13.8431 19.5087 15.5Z" fill="url(#paint13_radial_7159_2162)"/>
<path fill-rule="evenodd" clip-rule="evenodd" d="M23.6037 18.3894L28.6756 17.04C29.229 16.89 29.8126 17.19 29.9636 17.75C30.1145 18.31 29.7824 18.87 29.229 19.02L26.3548 19.7872C26.2685 19.8103 26.2534 19.9264 26.331 19.9707L28.3435 21.12C28.8265 21.4 28.9976 22.01 28.7158 22.49C28.4341 22.97 27.8203 23.14 27.3373 22.86L25.3224 21.7093C25.2451 21.6652 25.153 21.7363 25.1762 21.8222L25.9486 24.68C26.0996 25.24 25.7776 25.8 25.2141 25.95C24.6506 26.1 24.0871 25.77 23.9361 25.22L22.5784 20.18C22.5715 20.1544 22.5547 20.1326 22.5317 20.1193L20.3232 18.8502C20.2824 18.8267 20.2308 18.835 20.1988 18.8694C19.5089 19.6098 18.6122 20.1573 17.5863 20.3831C17.5398 20.3933 17.5062 20.4342 17.5062 20.4818V22.9884C17.5062 23.015 17.5169 23.0406 17.5358 23.0593L21.2495 26.75C21.652 27.15 21.652 27.81 21.2495 28.21C20.847 28.61 20.1829 28.61 19.7804 28.21L17.6767 26.1194C17.6136 26.0567 17.5062 26.1014 17.5062 26.1904V28.5C17.5062 29.05 17.0534 29.5 16.5 29.5C15.9466 29.5 15.4938 29.05 15.4938 28.5V26.2004C15.4938 26.1114 15.3863 26.0667 15.3233 26.1294L13.2196 28.22C12.8171 28.62 12.153 28.62 11.7505 28.22C11.348 27.82 11.348 27.16 11.7505 26.76L15.4642 23.0693C15.4831 23.0506 15.4938 23.025 15.4938 22.9984V20.4919C15.4938 20.4443 15.4601 20.4034 15.4135 20.3932C14.3787 20.1675 13.4907 19.6199 12.8011 18.8793C12.7691 18.8449 12.7176 18.8367 12.6768 18.86L10.4785 20.1194C10.4554 20.1326 10.4385 20.1544 10.4316 20.1801L9.07391 25.22C8.92298 25.77 8.34942 26.1 7.79598 25.95C7.24255 25.8 6.91049 25.23 7.06142 24.68L7.83354 21.8233C7.85679 21.7373 7.76436 21.6661 7.68712 21.7106L5.6728 22.87C5.18981 23.14 4.576 22.98 4.29425 22.5C4.0125 22.02 4.18356 21.41 4.6565 21.15L6.67039 19.9908C6.7477 19.9463 6.73248 19.8305 6.6463 19.8075L3.771 19.04C3.21757 18.89 2.88551 18.32 3.03644 17.77C3.18738 17.22 3.76094 16.89 4.31437 17.04L9.38628 18.3894C9.41179 18.3962 9.43894 18.3926 9.46182 18.3795L11.6685 17.1113C11.7102 17.0874 11.7289 17.0371 11.7137 16.9915C11.5579 16.5236 11.4587 16.0208 11.4587 15.5C11.4587 14.9807 11.5574 14.4792 11.7124 14.0292C11.7282 13.9833 11.7097 13.9323 11.6676 13.9081L9.46182 12.6405C9.43894 12.6274 9.41179 12.6238 9.38628 12.6306L4.31437 13.98C3.75088 14.13 3.18738 13.8 3.03644 13.25C2.88551 12.69 3.21757 12.13 3.771 11.98L6.6463 11.2125C6.73248 11.1895 6.7477 11.0737 6.67039 11.0292L4.6565 9.87C4.18356 9.59 4.0125 8.98 4.29425 8.5C4.56594 8.02 5.18981 7.86 5.66274 8.13L7.68746 9.29016C7.76471 9.33442 7.85694 9.26325 7.83371 9.1773L7.06142 6.32C6.91049 5.77 7.24255 5.21 7.79598 5.06C8.34942 4.91 8.91291 5.24 9.06385 5.79L10.4215 10.8299C10.4285 10.8556 10.4453 10.8774 10.4684 10.8906L12.6668 12.15C12.7076 12.1733 12.759 12.1651 12.7911 12.1307C13.481 11.3902 14.3777 10.8427 15.4036 10.6169C15.4501 10.6067 15.4837 10.5658 15.4837 10.5182V8.0116C15.4837 7.98497 15.4731 7.95944 15.4542 7.94067L11.7405 4.25C11.338 3.85 11.338 3.19 11.7405 2.79C12.143 2.39 12.8071 2.39 13.2096 2.79L15.3132 4.88057C15.3763 4.94326 15.4837 4.89858 15.4837 4.80964V2.5C15.4837 1.95 15.9365 1.5 16.4899 1.5C17.0434 1.5 17.4962 1.95 17.4962 2.5V4.80964C17.4962 4.89858 17.6036 4.94326 17.6667 4.88057L19.7703 2.79C20.1728 2.39 20.8369 2.39 21.2394 2.79C21.6419 3.19 21.6419 3.85 21.2394 4.25L17.5257 7.94067C17.5068 7.95944 17.4962 7.98497 17.4962 8.0116V10.5182C17.4962 10.5658 17.5298 10.6067 17.5762 10.6169C18.6018 10.8426 19.498 11.3895 20.1786 12.1205C20.2107 12.155 20.2623 12.1633 20.3031 12.1398L22.5116 10.8707C22.5346 10.8574 22.5514 10.8356 22.5583 10.81L23.916 5.77C24.067 5.22 24.6405 4.89 25.194 5.04C25.7474 5.19 26.0795 5.76 25.9285 6.31L25.1561 9.16777C25.1329 9.25366 25.225 9.32482 25.3022 9.2807L27.3171 8.13C27.8001 7.86 28.4139 8.02 28.6957 8.5C28.9674 8.98 28.8064 9.59 28.3334 9.86L26.321 11.0093C26.2434 11.0536 26.2584 11.1697 26.3448 11.1928L29.2189 11.96C29.7724 12.11 30.1044 12.68 29.9535 13.23C29.8026 13.78 29.229 14.11 28.6756 13.96L23.6037 12.6106C23.5781 12.6038 23.551 12.6074 23.5281 12.6205L21.3214 13.8887C21.2797 13.9126 21.2611 13.9629 21.2762 14.0085C21.432 14.4764 21.5312 14.9792 21.5312 15.5C21.5312 16.0214 21.4317 16.5158 21.2757 16.9918C21.2607 17.0373 21.2794 17.0872 21.3209 17.1111L23.5281 18.3795C23.551 18.3926 23.5781 18.3962 23.6037 18.3894ZM19.5087 15.5C19.5087 17.1569 18.1572 18.5 16.49 18.5C14.8228 18.5 13.4712 17.1569 13.4712 15.5C13.4712 13.8431 14.8228 12.5 16.49 12.5C18.1572 12.5 19.5087 13.8431 19.5087 15.5Z" fill="url(#paint14_radial_7159_2162)" fill-opacity="0.8"/>
<path fill-rule="evenodd" clip-rule="evenodd" d="M23.6037 18.3894L28.6756 17.04C29.229 16.89 29.8126 17.19 29.9636 17.75C30.1145 18.31 29.7824 18.87 29.229 19.02L26.3548 19.7872C26.2685 19.8103 26.2534 19.9264 26.331 19.9707L28.3435 21.12C28.8265 21.4 28.9976 22.01 28.7158 22.49C28.4341 22.97 27.8203 23.14 27.3373 22.86L25.3224 21.7093C25.2451 21.6652 25.153 21.7363 25.1762 21.8222L25.9486 24.68C26.0996 25.24 25.7776 25.8 25.2141 25.95C24.6506 26.1 24.0871 25.77 23.9361 25.22L22.5784 20.18C22.5715 20.1544 22.5547 20.1326 22.5317 20.1193L20.3232 18.8502C20.2824 18.8267 20.2308 18.835 20.1988 18.8694C19.5089 19.6098 18.6122 20.1573 17.5863 20.3831C17.5398 20.3933 17.5062 20.4342 17.5062 20.4818V22.9884C17.5062 23.015 17.5169 23.0406 17.5358 23.0593L21.2495 26.75C21.652 27.15 21.652 27.81 21.2495 28.21C20.847 28.61 20.1829 28.61 19.7804 28.21L17.6767 26.1194C17.6136 26.0567 17.5062 26.1014 17.5062 26.1904V28.5C17.5062 29.05 17.0534 29.5 16.5 29.5C15.9466 29.5 15.4938 29.05 15.4938 28.5V26.2004C15.4938 26.1114 15.3863 26.0667 15.3233 26.1294L13.2196 28.22C12.8171 28.62 12.153 28.62 11.7505 28.22C11.348 27.82 11.348 27.16 11.7505 26.76L15.4642 23.0693C15.4831 23.0506 15.4938 23.025 15.4938 22.9984V20.4919C15.4938 20.4443 15.4601 20.4034 15.4135 20.3932C14.3787 20.1675 13.4907 19.6199 12.8011 18.8793C12.7691 18.8449 12.7176 18.8367 12.6768 18.86L10.4785 20.1194C10.4554 20.1326 10.4385 20.1544 10.4316 20.1801L9.07391 25.22C8.92298 25.77 8.34942 26.1 7.79598 25.95C7.24255 25.8 6.91049 25.23 7.06142 24.68L7.83354 21.8233C7.85679 21.7373 7.76436 21.6661 7.68712 21.7106L5.6728 22.87C5.18981 23.14 4.576 22.98 4.29425 22.5C4.0125 22.02 4.18356 21.41 4.6565 21.15L6.67039 19.9908C6.7477 19.9463 6.73248 19.8305 6.6463 19.8075L3.771 19.04C3.21757 18.89 2.88551 18.32 3.03644 17.77C3.18738 17.22 3.76094 16.89 4.31437 17.04L9.38628 18.3894C9.41179 18.3962 9.43894 18.3926 9.46182 18.3795L11.6685 17.1113C11.7102 17.0874 11.7289 17.0371 11.7137 16.9915C11.5579 16.5236 11.4587 16.0208 11.4587 15.5C11.4587 14.9807 11.5574 14.4792 11.7124 14.0292C11.7282 13.9833 11.7097 13.9323 11.6676 13.9081L9.46182 12.6405C9.43894 12.6274 9.41179 12.6238 9.38628 12.6306L4.31437 13.98C3.75088 14.13 3.18738 13.8 3.03644 13.25C2.88551 12.69 3.21757 12.13 3.771 11.98L6.6463 11.2125C6.73248 11.1895 6.7477 11.0737 6.67039 11.0292L4.6565 9.87C4.18356 9.59 4.0125 8.98 4.29425 8.5C4.56594 8.02 5.18981 7.86 5.66274 8.13L7.68746 9.29016C7.76471 9.33442 7.85694 9.26325 7.83371 9.1773L7.06142 6.32C6.91049 5.77 7.24255 5.21 7.79598 5.06C8.34942 4.91 8.91291 5.24 9.06385 5.79L10.4215 10.8299C10.4285 10.8556 10.4453 10.8774 10.4684 10.8906L12.6668 12.15C12.7076 12.1733 12.759 12.1651 12.7911 12.1307C13.481 11.3902 14.3777 10.8427 15.4036 10.6169C15.4501 10.6067 15.4837 10.5658 15.4837 10.5182V8.0116C15.4837 7.98497 15.4731 7.95944 15.4542 7.94067L11.7405 4.25C11.338 3.85 11.338 3.19 11.7405 2.79C12.143 2.39 12.8071 2.39 13.2096 2.79L15.3132 4.88057C15.3763 4.94326 15.4837 4.89858 15.4837 4.80964V2.5C15.4837 1.95 15.9365 1.5 16.4899 1.5C17.0434 1.5 17.4962 1.95 17.4962 2.5V4.80964C17.4962 4.89858 17.6036 4.94326 17.6667 4.88057L19.7703 2.79C20.1728 2.39 20.8369 2.39 21.2394 2.79C21.6419 3.19 21.6419 3.85 21.2394 4.25L17.5257 7.94067C17.5068 7.95944 17.4962 7.98497 17.4962 8.0116V10.5182C17.4962 10.5658 17.5298 10.6067 17.5762 10.6169C18.6018 10.8426 19.498 11.3895 20.1786 12.1205C20.2107 12.155 20.2623 12.1633 20.3031 12.1398L22.5116 10.8707C22.5346 10.8574 22.5514 10.8356 22.5583 10.81L23.916 5.77C24.067 5.22 24.6405 4.89 25.194 5.04C25.7474 5.19 26.0795 5.76 25.9285 6.31L25.1561 9.16777C25.1329 9.25366 25.225 9.32482 25.3022 9.2807L27.3171 8.13C27.8001 7.86 28.4139 8.02 28.6957 8.5C28.9674 8.98 28.8064 9.59 28.3334 9.86L26.321 11.0093C26.2434 11.0536 26.2584 11.1697 26.3448 11.1928L29.2189 11.96C29.7724 12.11 30.1044 12.68 29.9535 13.23C29.8026 13.78 29.229 14.11 28.6756 13.96L23.6037 12.6106C23.5781 12.6038 23.551 12.6074 23.5281 12.6205L21.3214 13.8887C21.2797 13.9126 21.2611 13.9629 21.2762 14.0085C21.432 14.4764 21.5312 14.9792 21.5312 15.5C21.5312 16.0214 21.4317 16.5158 21.2757 16.9918C21.2607 17.0373 21.2794 17.0872 21.3209 17.1111L23.5281 18.3795C23.551 18.3926 23.5781 18.3962 23.6037 18.3894ZM19.5087 15.5C19.5087 17.1569 18.1572 18.5 16.49 18.5C14.8228 18.5 13.4712 17.1569 13.4712 15.5C13.4712 13.8431 14.8228 12.5 16.49 12.5C18.1572 12.5 19.5087 13.8431 19.5087 15.5Z" fill="url(#paint15_radial_7159_2162)"/>
<path fill-rule="evenodd" clip-rule="evenodd" d="M23.6037 18.3894L28.6756 17.04C29.229 16.89 29.8126 17.19 29.9636 17.75C30.1145 18.31 29.7824 18.87 29.229 19.02L26.3548 19.7872C26.2685 19.8103 26.2534 19.9264 26.331 19.9707L28.3435 21.12C28.8265 21.4 28.9976 22.01 28.7158 22.49C28.4341 22.97 27.8203 23.14 27.3373 22.86L25.3224 21.7093C25.2451 21.6652 25.153 21.7363 25.1762 21.8222L25.9486 24.68C26.0996 25.24 25.7776 25.8 25.2141 25.95C24.6506 26.1 24.0871 25.77 23.9361 25.22L22.5784 20.18C22.5715 20.1544 22.5547 20.1326 22.5317 20.1193L20.3232 18.8502C20.2824 18.8267 20.2308 18.835 20.1988 18.8694C19.5089 19.6098 18.6122 20.1573 17.5863 20.3831C17.5398 20.3933 17.5062 20.4342 17.5062 20.4818V22.9884C17.5062 23.015 17.5169 23.0406 17.5358 23.0593L21.2495 26.75C21.652 27.15 21.652 27.81 21.2495 28.21C20.847 28.61 20.1829 28.61 19.7804 28.21L17.6767 26.1194C17.6136 26.0567 17.5062 26.1014 17.5062 26.1904V28.5C17.5062 29.05 17.0534 29.5 16.5 29.5C15.9466 29.5 15.4938 29.05 15.4938 28.5V26.2004C15.4938 26.1114 15.3863 26.0667 15.3233 26.1294L13.2196 28.22C12.8171 28.62 12.153 28.62 11.7505 28.22C11.348 27.82 11.348 27.16 11.7505 26.76L15.4642 23.0693C15.4831 23.0506 15.4938 23.025 15.4938 22.9984V20.4919C15.4938 20.4443 15.4601 20.4034 15.4135 20.3932C14.3787 20.1675 13.4907 19.6199 12.8011 18.8793C12.7691 18.8449 12.7176 18.8367 12.6768 18.86L10.4785 20.1194C10.4554 20.1326 10.4385 20.1544 10.4316 20.1801L9.07391 25.22C8.92298 25.77 8.34942 26.1 7.79598 25.95C7.24255 25.8 6.91049 25.23 7.06142 24.68L7.83354 21.8233C7.85679 21.7373 7.76436 21.6661 7.68712 21.7106L5.6728 22.87C5.18981 23.14 4.576 22.98 4.29425 22.5C4.0125 22.02 4.18356 21.41 4.6565 21.15L6.67039 19.9908C6.7477 19.9463 6.73248 19.8305 6.6463 19.8075L3.771 19.04C3.21757 18.89 2.88551 18.32 3.03644 17.77C3.18738 17.22 3.76094 16.89 4.31437 17.04L9.38628 18.3894C9.41179 18.3962 9.43894 18.3926 9.46182 18.3795L11.6685 17.1113C11.7102 17.0874 11.7289 17.0371 11.7137 16.9915C11.5579 16.5236 11.4587 16.0208 11.4587 15.5C11.4587 14.9807 11.5574 14.4792 11.7124 14.0292C11.7282 13.9833 11.7097 13.9323 11.6676 13.9081L9.46182 12.6405C9.43894 12.6274 9.41179 12.6238 9.38628 12.6306L4.31437 13.98C3.75088 14.13 3.18738 13.8 3.03644 13.25C2.88551 12.69 3.21757 12.13 3.771 11.98L6.6463 11.2125C6.73248 11.1895 6.7477 11.0737 6.67039 11.0292L4.6565 9.87C4.18356 9.59 4.0125 8.98 4.29425 8.5C4.56594 8.02 5.18981 7.86 5.66274 8.13L7.68746 9.29016C7.76471 9.33442 7.85694 9.26325 7.83371 9.1773L7.06142 6.32C6.91049 5.77 7.24255 5.21 7.79598 5.06C8.34942 4.91 8.91291 5.24 9.06385 5.79L10.4215 10.8299C10.4285 10.8556 10.4453 10.8774 10.4684 10.8906L12.6668 12.15C12.7076 12.1733 12.759 12.1651 12.7911 12.1307C13.481 11.3902 14.3777 10.8427 15.4036 10.6169C15.4501 10.6067 15.4837 10.5658 15.4837 10.5182V8.0116C15.4837 7.98497 15.4731 7.95944 15.4542 7.94067L11.7405 4.25C11.338 3.85 11.338 3.19 11.7405 2.79C12.143 2.39 12.8071 2.39 13.2096 2.79L15.3132 4.88057C15.3763 4.94326 15.4837 4.89858 15.4837 4.80964V2.5C15.4837 1.95 15.9365 1.5 16.4899 1.5C17.0434 1.5 17.4962 1.95 17.4962 2.5V4.80964C17.4962 4.89858 17.6036 4.94326 17.6667 4.88057L19.7703 2.79C20.1728 2.39 20.8369 2.39 21.2394 2.79C21.6419 3.19 21.6419 3.85 21.2394 4.25L17.5257 7.94067C17.5068 7.95944 17.4962 7.98497 17.4962 8.0116V10.5182C17.4962 10.5658 17.5298 10.6067 17.5762 10.6169C18.6018 10.8426 19.498 11.3895 20.1786 12.1205C20.2107 12.155 20.2623 12.1633 20.3031 12.1398L22.5116 10.8707C22.5346 10.8574 22.5514 10.8356 22.5583 10.81L23.916 5.77C24.067 5.22 24.6405 4.89 25.194 5.04C25.7474 5.19 26.0795 5.76 25.9285 6.31L25.1561 9.16777C25.1329 9.25366 25.225 9.32482 25.3022 9.2807L27.3171 8.13C27.8001 7.86 28.4139 8.02 28.6957 8.5C28.9674 8.98 28.8064 9.59 28.3334 9.86L26.321 11.0093C26.2434 11.0536 26.2584 11.1697 26.3448 11.1928L29.2189 11.96C29.7724 12.11 30.1044 12.68 29.9535 13.23C29.8026 13.78 29.229 14.11 28.6756 13.96L23.6037 12.6106C23.5781 12.6038 23.551 12.6074 23.5281 12.6205L21.3214 13.8887C21.2797 13.9126 21.2611 13.9629 21.2762 14.0085C21.432 14.4764 21.5312 14.9792 21.5312 15.5C21.5312 16.0214 21.4317 16.5158 21.2757 16.9918C21.2607 17.0373 21.2794 17.0872 21.3209 17.1111L23.5281 18.3795C23.551 18.3926 23.5781 18.3962 23.6037 18.3894ZM19.5087 15.5C19.5087 17.1569 18.1572 18.5 16.49 18.5C14.8228 18.5 13.4712 17.1569 13.4712 15.5C13.4712 13.8431 14.8228 12.5 16.49 12.5C18.1572 12.5 19.5087 13.8431 19.5087 15.5Z" fill="url(#paint16_radial_7159_2162)"/>
<path fill-rule="evenodd" clip-rule="evenodd" d="M23.6037 18.3894L28.6756 17.04C29.229 16.89 29.8126 17.19 29.9636 17.75C30.1145 18.31 29.7824 18.87 29.229 19.02L26.3548 19.7872C26.2685 19.8103 26.2534 19.9264 26.331 19.9707L28.3435 21.12C28.8265 21.4 28.9976 22.01 28.7158 22.49C28.4341 22.97 27.8203 23.14 27.3373 22.86L25.3224 21.7093C25.2451 21.6652 25.153 21.7363 25.1762 21.8222L25.9486 24.68C26.0996 25.24 25.7776 25.8 25.2141 25.95C24.6506 26.1 24.0871 25.77 23.9361 25.22L22.5784 20.18C22.5715 20.1544 22.5547 20.1326 22.5317 20.1193L20.3232 18.8502C20.2824 18.8267 20.2308 18.835 20.1988 18.8694C19.5089 19.6098 18.6122 20.1573 17.5863 20.3831C17.5398 20.3933 17.5062 20.4342 17.5062 20.4818V22.9884C17.5062 23.015 17.5169 23.0406 17.5358 23.0593L21.2495 26.75C21.652 27.15 21.652 27.81 21.2495 28.21C20.847 28.61 20.1829 28.61 19.7804 28.21L17.6767 26.1194C17.6136 26.0567 17.5062 26.1014 17.5062 26.1904V28.5C17.5062 29.05 17.0534 29.5 16.5 29.5C15.9466 29.5 15.4938 29.05 15.4938 28.5V26.2004C15.4938 26.1114 15.3863 26.0667 15.3233 26.1294L13.2196 28.22C12.8171 28.62 12.153 28.62 11.7505 28.22C11.348 27.82 11.348 27.16 11.7505 26.76L15.4642 23.0693C15.4831 23.0506 15.4938 23.025 15.4938 22.9984V20.4919C15.4938 20.4443 15.4601 20.4034 15.4135 20.3932C14.3787 20.1675 13.4907 19.6199 12.8011 18.8793C12.7691 18.8449 12.7176 18.8367 12.6768 18.86L10.4785 20.1194C10.4554 20.1326 10.4385 20.1544 10.4316 20.1801L9.07391 25.22C8.92298 25.77 8.34942 26.1 7.79598 25.95C7.24255 25.8 6.91049 25.23 7.06142 24.68L7.83354 21.8233C7.85679 21.7373 7.76436 21.6661 7.68712 21.7106L5.6728 22.87C5.18981 23.14 4.576 22.98 4.29425 22.5C4.0125 22.02 4.18356 21.41 4.6565 21.15L6.67039 19.9908C6.7477 19.9463 6.73248 19.8305 6.6463 19.8075L3.771 19.04C3.21757 18.89 2.88551 18.32 3.03644 17.77C3.18738 17.22 3.76094 16.89 4.31437 17.04L9.38628 18.3894C9.41179 18.3962 9.43894 18.3926 9.46182 18.3795L11.6685 17.1113C11.7102 17.0874 11.7289 17.0371 11.7137 16.9915C11.5579 16.5236 11.4587 16.0208 11.4587 15.5C11.4587 14.9807 11.5574 14.4792 11.7124 14.0292C11.7282 13.9833 11.7097 13.9323 11.6676 13.9081L9.46182 12.6405C9.43894 12.6274 9.41179 12.6238 9.38628 12.6306L4.31437 13.98C3.75088 14.13 3.18738 13.8 3.03644 13.25C2.88551 12.69 3.21757 12.13 3.771 11.98L6.6463 11.2125C6.73248 11.1895 6.7477 11.0737 6.67039 11.0292L4.6565 9.87C4.18356 9.59 4.0125 8.98 4.29425 8.5C4.56594 8.02 5.18981 7.86 5.66274 8.13L7.68746 9.29016C7.76471 9.33442 7.85694 9.26325 7.83371 9.1773L7.06142 6.32C6.91049 5.77 7.24255 5.21 7.79598 5.06C8.34942 4.91 8.91291 5.24 9.06385 5.79L10.4215 10.8299C10.4285 10.8556 10.4453 10.8774 10.4684 10.8906L12.6668 12.15C12.7076 12.1733 12.759 12.1651 12.7911 12.1307C13.481 11.3902 14.3777 10.8427 15.4036 10.6169C15.4501 10.6067 15.4837 10.5658 15.4837 10.5182V8.0116C15.4837 7.98497 15.4731 7.95944 15.4542 7.94067L11.7405 4.25C11.338 3.85 11.338 3.19 11.7405 2.79C12.143 2.39 12.8071 2.39 13.2096 2.79L15.3132 4.88057C15.3763 4.94326 15.4837 4.89858 15.4837 4.80964V2.5C15.4837 1.95 15.9365 1.5 16.4899 1.5C17.0434 1.5 17.4962 1.95 17.4962 2.5V4.80964C17.4962 4.89858 17.6036 4.94326 17.6667 4.88057L19.7703 2.79C20.1728 2.39 20.8369 2.39 21.2394 2.79C21.6419 3.19 21.6419 3.85 21.2394 4.25L17.5257 7.94067C17.5068 7.95944 17.4962 7.98497 17.4962 8.0116V10.5182C17.4962 10.5658 17.5298 10.6067 17.5762 10.6169C18.6018 10.8426 19.498 11.3895 20.1786 12.1205C20.2107 12.155 20.2623 12.1633 20.3031 12.1398L22.5116 10.8707C22.5346 10.8574 22.5514 10.8356 22.5583 10.81L23.916 5.77C24.067 5.22 24.6405 4.89 25.194 5.04C25.7474 5.19 26.0795 5.76 25.9285 6.31L25.1561 9.16777C25.1329 9.25366 25.225 9.32482 25.3022 9.2807L27.3171 8.13C27.8001 7.86 28.4139 8.02 28.6957 8.5C28.9674 8.98 28.8064 9.59 28.3334 9.86L26.321 11.0093C26.2434 11.0536 26.2584 11.1697 26.3448 11.1928L29.2189 11.96C29.7724 12.11 30.1044 12.68 29.9535 13.23C29.8026 13.78 29.229 14.11 28.6756 13.96L23.6037 12.6106C23.5781 12.6038 23.551 12.6074 23.5281 12.6205L21.3214 13.8887C21.2797 13.9126 21.2611 13.9629 21.2762 14.0085C21.432 14.4764 21.5312 14.9792 21.5312 15.5C21.5312 16.0214 21.4317 16.5158 21.2757 16.9918C21.2607 17.0373 21.2794 17.0872 21.3209 17.1111L23.5281 18.3795C23.551 18.3926 23.5781 18.3962 23.6037 18.3894ZM19.5087 15.5C19.5087 17.1569 18.1572 18.5 16.49 18.5C14.8228 18.5 13.4712 17.1569 13.4712 15.5C13.4712 13.8431 14.8228 12.5 16.49 12.5C18.1572 12.5 19.5087 13.8431 19.5087 15.5Z" fill="url(#paint17_radial_7159_2162)"/>
<path fill-rule="evenodd" clip-rule="evenodd" d="M23.6037 18.3894L28.6756 17.04C29.229 16.89 29.8126 17.19 29.9636 17.75C30.1145 18.31 29.7824 18.87 29.229 19.02L26.3548 19.7872C26.2685 19.8103 26.2534 19.9264 26.331 19.9707L28.3435 21.12C28.8265 21.4 28.9976 22.01 28.7158 22.49C28.4341 22.97 27.8203 23.14 27.3373 22.86L25.3224 21.7093C25.2451 21.6652 25.153 21.7363 25.1762 21.8222L25.9486 24.68C26.0996 25.24 25.7776 25.8 25.2141 25.95C24.6506 26.1 24.0871 25.77 23.9361 25.22L22.5784 20.18C22.5715 20.1544 22.5547 20.1326 22.5317 20.1193L20.3232 18.8502C20.2824 18.8267 20.2308 18.835 20.1988 18.8694C19.5089 19.6098 18.6122 20.1573 17.5863 20.3831C17.5398 20.3933 17.5062 20.4342 17.5062 20.4818V22.9884C17.5062 23.015 17.5169 23.0406 17.5358 23.0593L21.2495 26.75C21.652 27.15 21.652 27.81 21.2495 28.21C20.847 28.61 20.1829 28.61 19.7804 28.21L17.6767 26.1194C17.6136 26.0567 17.5062 26.1014 17.5062 26.1904V28.5C17.5062 29.05 17.0534 29.5 16.5 29.5C15.9466 29.5 15.4938 29.05 15.4938 28.5V26.2004C15.4938 26.1114 15.3863 26.0667 15.3233 26.1294L13.2196 28.22C12.8171 28.62 12.153 28.62 11.7505 28.22C11.348 27.82 11.348 27.16 11.7505 26.76L15.4642 23.0693C15.4831 23.0506 15.4938 23.025 15.4938 22.9984V20.4919C15.4938 20.4443 15.4601 20.4034 15.4135 20.3932C14.3787 20.1675 13.4907 19.6199 12.8011 18.8793C12.7691 18.8449 12.7176 18.8367 12.6768 18.86L10.4785 20.1194C10.4554 20.1326 10.4385 20.1544 10.4316 20.1801L9.07391 25.22C8.92298 25.77 8.34942 26.1 7.79598 25.95C7.24255 25.8 6.91049 25.23 7.06142 24.68L7.83354 21.8233C7.85679 21.7373 7.76436 21.6661 7.68712 21.7106L5.6728 22.87C5.18981 23.14 4.576 22.98 4.29425 22.5C4.0125 22.02 4.18356 21.41 4.6565 21.15L6.67039 19.9908C6.7477 19.9463 6.73248 19.8305 6.6463 19.8075L3.771 19.04C3.21757 18.89 2.88551 18.32 3.03644 17.77C3.18738 17.22 3.76094 16.89 4.31437 17.04L9.38628 18.3894C9.41179 18.3962 9.43894 18.3926 9.46182 18.3795L11.6685 17.1113C11.7102 17.0874 11.7289 17.0371 11.7137 16.9915C11.5579 16.5236 11.4587 16.0208 11.4587 15.5C11.4587 14.9807 11.5574 14.4792 11.7124 14.0292C11.7282 13.9833 11.7097 13.9323 11.6676 13.9081L9.46182 12.6405C9.43894 12.6274 9.41179 12.6238 9.38628 12.6306L4.31437 13.98C3.75088 14.13 3.18738 13.8 3.03644 13.25C2.88551 12.69 3.21757 12.13 3.771 11.98L6.6463 11.2125C6.73248 11.1895 6.7477 11.0737 6.67039 11.0292L4.6565 9.87C4.18356 9.59 4.0125 8.98 4.29425 8.5C4.56594 8.02 5.18981 7.86 5.66274 8.13L7.68746 9.29016C7.76471 9.33442 7.85694 9.26325 7.83371 9.1773L7.06142 6.32C6.91049 5.77 7.24255 5.21 7.79598 5.06C8.34942 4.91 8.91291 5.24 9.06385 5.79L10.4215 10.8299C10.4285 10.8556 10.4453 10.8774 10.4684 10.8906L12.6668 12.15C12.7076 12.1733 12.759 12.1651 12.7911 12.1307C13.481 11.3902 14.3777 10.8427 15.4036 10.6169C15.4501 10.6067 15.4837 10.5658 15.4837 10.5182V8.0116C15.4837 7.98497 15.4731 7.95944 15.4542 7.94067L11.7405 4.25C11.338 3.85 11.338 3.19 11.7405 2.79C12.143 2.39 12.8071 2.39 13.2096 2.79L15.3132 4.88057C15.3763 4.94326 15.4837 4.89858 15.4837 4.80964V2.5C15.4837 1.95 15.9365 1.5 16.4899 1.5C17.0434 1.5 17.4962 1.95 17.4962 2.5V4.80964C17.4962 4.89858 17.6036 4.94326 17.6667 4.88057L19.7703 2.79C20.1728 2.39 20.8369 2.39 21.2394 2.79C21.6419 3.19 21.6419 3.85 21.2394 4.25L17.5257 7.94067C17.5068 7.95944 17.4962 7.98497 17.4962 8.0116V10.5182C17.4962 10.5658 17.5298 10.6067 17.5762 10.6169C18.6018 10.8426 19.498 11.3895 20.1786 12.1205C20.2107 12.155 20.2623 12.1633 20.3031 12.1398L22.5116 10.8707C22.5346 10.8574 22.5514 10.8356 22.5583 10.81L23.916 5.77C24.067 5.22 24.6405 4.89 25.194 5.04C25.7474 5.19 26.0795 5.76 25.9285 6.31L25.1561 9.16777C25.1329 9.25366 25.225 9.32482 25.3022 9.2807L27.3171 8.13C27.8001 7.86 28.4139 8.02 28.6957 8.5C28.9674 8.98 28.8064 9.59 28.3334 9.86L26.321 11.0093C26.2434 11.0536 26.2584 11.1697 26.3448 11.1928L29.2189 11.96C29.7724 12.11 30.1044 12.68 29.9535 13.23C29.8026 13.78 29.229 14.11 28.6756 13.96L23.6037 12.6106C23.5781 12.6038 23.551 12.6074 23.5281 12.6205L21.3214 13.8887C21.2797 13.9126 21.2611 13.9629 21.2762 14.0085C21.432 14.4764 21.5312 14.9792 21.5312 15.5C21.5312 16.0214 21.4317 16.5158 21.2757 16.9918C21.2607 17.0373 21.2794 17.0872 21.3209 17.1111L23.5281 18.3795C23.551 18.3926 23.5781 18.3962 23.6037 18.3894ZM19.5087 15.5C19.5087 17.1569 18.1572 18.5 16.49 18.5C14.8228 18.5 13.4712 17.1569 13.4712 15.5C13.4712 13.8431 14.8228 12.5 16.49 12.5C18.1572 12.5 19.5087 13.8431 19.5087 15.5Z" fill="url(#paint18_radial_7159_2162)"/>
<defs>
<linearGradient id="paint0_linear_7159_2162" x1="21.6439" y1="20.0064" x2="10.9078" y2="20.0718" gradientUnits="userSpaceOnUse">
<stop offset="0.272241" stop-color="#43C4F5"/>
<stop offset="1" stop-color="#3D8DF3"/>
</linearGradient>
<linearGradient id="paint1_linear_7159_2162" x1="24.7833" y1="20.0064" x2="16.5003" y2="20.0569" gradientUnits="userSpaceOnUse">
<stop stop-color="#43C4F5"/>
<stop offset="1" stop-color="#43C4F5" stop-opacity="0"/>
</linearGradient>
<radialGradient id="paint2_radial_7159_2162" cx="0" cy="0" r="1" gradientUnits="userSpaceOnUse" gradientTransform="translate(30.3991 17.7822) rotate(165.719) scale(1.53599 1.63195)">
<stop stop-color="#76E4FF"/>
<stop offset="1" stop-color="#76E4FF" stop-opacity="0"/>
</radialGradient>
<radialGradient id="paint3_radial_7159_2162" cx="0" cy="0" r="1" gradientUnits="userSpaceOnUse" gradientTransform="translate(26.0714 5.07949) rotate(114.944) scale(2.54161 2.21738)">
<stop stop-color="#6EECFF"/>
<stop offset="1" stop-color="#6EECFF" stop-opacity="0"/>
</radialGradient>
<radialGradient id="paint4_radial_7159_2162" cx="0" cy="0" r="1" gradientUnits="userSpaceOnUse" gradientTransform="translate(28.9063 8.241) rotate(146.976) scale(1.49086 1.30067)">
<stop stop-color="#6EECFF"/>
<stop offset="1" stop-color="#6EECFF" stop-opacity="0"/>
</radialGradient>
<radialGradient id="paint5_radial_7159_2162" cx="0" cy="0" r="1" gradientUnits="userSpaceOnUse" gradientTransform="translate(21.4242 2.44805) rotate(136.169) scale(2.02067 2.06021)">
<stop stop-color="#78E5FF"/>
<stop offset="1" stop-color="#78E5FF" stop-opacity="0"/>
</radialGradient>
<radialGradient id="paint6_radial_7159_2162" cx="0" cy="0" r="1" gradientUnits="userSpaceOnUse" gradientTransform="translate(17 23.5) rotate(-180) scale(1 9.39781)">
<stop stop-color="#84CDFF"/>
<stop offset="0.586376" stop-color="#84CDFF" stop-opacity="0"/>
</radialGradient>
<radialGradient id="paint7_radial_7159_2162" cx="0" cy="0" r="1" gradientUnits="userSpaceOnUse" gradientTransform="translate(19 25.5) rotate(135) scale(0.707107 6.03108)">
<stop stop-color="#84CDFF"/>
<stop offset="0.562501" stop-color="#84CDFF" stop-opacity="0"/>
</radialGradient>
<radialGradient id="paint8_radial_7159_2162" cx="0" cy="0" r="1" gradientUnits="userSpaceOnUse" gradientTransform="translate(26.5 18.5) rotate(75.9637) scale(2.06155 17.5835)">
<stop stop-color="#84CDFF"/>
<stop offset="0.237132" stop-color="#84CDFF" stop-opacity="0"/>
</radialGradient>
<radialGradient id="paint9_radial_7159_2162" cx="0" cy="0" r="1" gradientUnits="userSpaceOnUse" gradientTransform="translate(24 23) rotate(-18.4349) scale(1.58114 13.4859)">
<stop stop-color="#84CDFF"/>
<stop offset="0.237132" stop-color="#84CDFF" stop-opacity="0"/>
</radialGradient>
<radialGradient id="paint10_radial_7159_2162" cx="0" cy="0" r="1" gradientUnits="userSpaceOnUse" gradientTransform="translate(24 19.5) rotate(116.565) scale(1.11803 10.5071)">
<stop stop-color="#84CDFF"/>
<stop offset="0.586376" stop-color="#84CDFF" stop-opacity="0"/>
</radialGradient>
<radialGradient id="paint11_radial_7159_2162" cx="0" cy="0" r="1" gradientUnits="userSpaceOnUse" gradientTransform="translate(17.0102 6.51608) rotate(-0.716165) scale(1.64889 15.496)">
<stop stop-color="#84CDFF"/>
<stop offset="0.337078" stop-color="#84CDFF" stop-opacity="0"/>
</radialGradient>
<radialGradient id="paint12_radial_7159_2162" cx="0" cy="0" r="1" gradientUnits="userSpaceOnUse" gradientTransform="translate(14 5) rotate(-45) scale(2.82843 16.8601)">
<stop stop-color="#84CDFF"/>
<stop offset="0.152344" stop-color="#84CDFF" stop-opacity="0"/>
</radialGradient>
<radialGradient id="paint13_radial_7159_2162" cx="0" cy="0" r="1" gradientUnits="userSpaceOnUse" gradientTransform="translate(10 11.5) rotate(-63.435) scale(1.11803 10.5071)">
<stop stop-color="#63A7FF"/>
<stop offset="0.406252" stop-color="#63A7FF" stop-opacity="0"/>
</radialGradient>
<radialGradient id="paint14_radial_7159_2162" cx="0" cy="0" r="1" gradientUnits="userSpaceOnUse" gradientTransform="translate(7 18.5) rotate(-71.5651) scale(1.58114 12.5305)">
<stop stop-color="#63A7FF"/>
<stop offset="0.234374" stop-color="#63A7FF" stop-opacity="0"/>
</radialGradient>
<radialGradient id="paint15_radial_7159_2162" cx="0" cy="0" r="1" gradientUnits="userSpaceOnUse" gradientTransform="translate(27 12.5) rotate(104.036) scale(2.06155 17.5835)">
<stop stop-color="#84CDFF"/>
<stop offset="0.246323" stop-color="#84CDFF" stop-opacity="0"/>
</radialGradient>
<radialGradient id="paint16_radial_7159_2162" cx="0" cy="0" r="1" gradientUnits="userSpaceOnUse" gradientTransform="translate(24 8) rotate(11.31) scale(2.54951 21.7454)">
<stop stop-color="#84CDFF"/>
<stop offset="0.246323" stop-color="#84CDFF" stop-opacity="0"/>
</radialGradient>
<radialGradient id="paint17_radial_7159_2162" cx="0" cy="0" r="1" gradientUnits="userSpaceOnUse" gradientTransform="translate(25 10.5) rotate(59.0363) scale(2.91548 24.8668)">
<stop stop-color="#84CDFF"/>
<stop offset="0.246323" stop-color="#84CDFF" stop-opacity="0"/>
</radialGradient>
<radialGradient id="paint18_radial_7159_2162" cx="0" cy="0" r="1" gradientUnits="userSpaceOnUse" gradientTransform="translate(16.5 15.5) rotate(90) scale(5 4.82143)">
<stop offset="0.594098" stop-color="#7BD2FB" stop-opacity="0"/>
<stop offset="0.711456" stop-color="#7BD2FB" stop-opacity="0.5"/>
<stop offset="0.776654" stop-color="#7BD2FB" stop-opacity="0.8"/>
<stop offset="0.837506" stop-color="#7BD2FB" stop-opacity="0.5"/>
<stop offset="0.967903" stop-color="#7BD2FB" stop-opacity="0"/>
</radialGradient>
</defs>
</svg>
