<svg width="256" height="256" viewBox="0 0 256 256" fill="none" xmlns="http://www.w3.org/2000/svg">
<path fill-rule="evenodd" clip-rule="evenodd" d="M188.829 147.115L229.404 136.32C233.832 135.12 238.501 137.52 239.708 142C240.916 146.48 238.259 150.96 233.832 152.16L210.839 158.298C210.148 158.482 210.027 159.411 210.648 159.766L226.748 168.96C230.612 171.2 231.98 176.08 229.726 179.92C227.473 183.76 222.562 185.12 218.698 182.88L202.579 173.674C201.961 173.321 201.224 173.891 201.41 174.578L207.589 197.44C208.797 201.92 206.221 206.4 201.713 207.6C197.205 208.8 192.697 206.16 191.489 201.76L180.628 161.44C180.572 161.235 180.438 161.061 180.254 160.955L162.586 150.801C162.259 150.614 161.847 150.68 161.59 150.955C156.071 156.879 148.898 161.258 140.69 163.065C140.319 163.147 140.05 163.474 140.05 163.854V183.907C140.05 184.12 140.135 184.324 140.286 184.475L169.996 214C173.216 217.2 173.216 222.48 169.996 225.68C166.776 228.88 161.463 228.88 158.243 225.68L141.414 208.955C140.909 208.454 140.05 208.811 140.05 209.523V228C140.05 232.4 136.427 236 132 236C127.573 236 123.95 232.4 123.95 228V209.603C123.95 208.891 123.091 208.534 122.586 209.035L105.757 225.76C102.537 228.96 97.2242 228.96 94.0042 225.76C90.7842 222.56 90.7842 217.28 94.0042 214.08L123.714 184.555C123.865 184.404 123.95 184.2 123.95 183.987V163.935C123.95 163.554 123.681 163.227 123.308 163.146C115.03 161.34 107.925 156.959 102.409 151.035C102.153 150.759 101.741 150.693 101.415 150.88L83.8276 160.955C83.643 161.061 83.5081 161.235 83.4528 161.441L72.5913 201.76C71.3838 206.16 66.7953 208.8 62.3679 207.6C57.9404 206.4 55.2839 201.84 56.4914 197.44L62.6683 174.587C62.8543 173.898 62.1149 173.329 61.4969 173.685L45.3824 182.96C41.5185 185.12 36.608 183.84 34.354 180C32.1 176.16 33.4685 171.28 37.252 169.2L53.3631 159.927C53.9816 159.571 53.8598 158.644 53.1704 158.46L30.168 152.32C25.7405 151.12 23.0841 146.56 24.2915 142.16C25.499 137.76 30.0875 135.12 34.515 136.32L75.0903 147.115C75.2943 147.17 75.5115 147.141 75.6946 147.036L93.3483 136.891C93.6819 136.699 93.8311 136.297 93.7095 135.932C92.4635 132.189 91.6697 128.166 91.6697 124C91.6697 119.846 92.4591 115.834 93.6992 112.234C93.8258 111.866 93.6776 111.459 93.3405 111.265L75.6946 101.124C75.5115 101.019 75.2943 100.99 75.0903 101.045L34.515 111.84C30.007 113.04 25.499 110.4 24.2915 106C23.0841 101.52 25.7405 97.04 30.168 95.84L53.1704 89.6997C53.8598 89.5157 53.9816 88.5894 53.3631 88.2334L37.252 78.96C33.4685 76.72 32.1 71.84 34.354 68C36.5275 64.16 41.5185 62.88 45.3019 65.04L61.4997 74.3213C62.1177 74.6754 62.8555 74.106 62.6697 73.4184L56.4914 50.56C55.2839 46.16 57.9404 41.68 62.3679 40.48C66.7953 39.28 71.3033 41.92 72.5108 46.32L83.3723 86.6391C83.4276 86.8445 83.5625 87.0194 83.7471 87.1252L101.334 97.1998C101.661 97.3867 102.072 97.3206 102.329 97.0454C107.848 91.1216 115.022 86.7417 123.229 84.9353C123.601 84.8535 123.87 84.5264 123.87 84.1457V64.0928C123.87 63.8798 123.785 63.6756 123.633 63.5254L93.9237 34C90.7037 30.8 90.7037 25.52 93.9237 22.32C97.1437 19.12 102.457 19.12 105.677 22.32L122.506 39.0445C123.01 39.5461 123.87 39.1886 123.87 38.4771V20C123.87 15.6 127.492 12 131.919 12C136.347 12 139.969 15.6 139.969 20V38.4771C139.969 39.1886 140.829 39.5461 141.333 39.0445L158.162 22.32C161.382 19.12 166.695 19.12 169.915 22.32C173.135 25.52 173.135 30.8 169.915 34L140.206 63.5254C140.054 63.6756 139.969 63.8798 139.969 64.0928V84.1457C139.969 84.5264 140.238 84.8535 140.61 84.9353C148.814 86.7409 155.984 91.1161 161.429 96.9642C161.686 97.2399 162.098 97.306 162.425 97.1184L180.093 86.9653C180.277 86.8595 180.411 86.6848 180.467 86.4797L191.328 46.16C192.536 41.76 197.124 39.12 201.552 40.32C205.979 41.52 208.636 46.08 207.428 50.48L201.249 73.3422C201.063 74.0293 201.8 74.5986 202.418 74.2456L218.537 65.04C222.401 62.88 227.312 64.16 229.566 68C231.739 71.84 230.451 76.72 226.668 78.88L210.568 88.0745C209.947 88.429 210.067 89.3577 210.758 89.5421L233.751 95.68C238.179 96.88 240.835 101.44 239.628 105.84C238.42 110.24 233.832 112.88 229.404 111.68L188.829 100.885C188.625 100.83 188.408 100.859 188.225 100.964L170.571 111.109C170.238 111.301 170.088 111.703 170.21 112.068C171.456 115.811 172.25 119.834 172.25 124C172.25 128.171 171.454 132.127 170.205 135.935C170.086 136.299 170.236 136.698 170.568 136.889L188.225 147.036C188.408 147.141 188.625 147.17 188.829 147.115ZM156.07 124C156.07 137.255 145.257 148 131.92 148C118.582 148 107.77 137.255 107.77 124C107.77 110.745 118.582 100 131.92 100C145.257 100 156.07 110.745 156.07 124Z" fill="url(#paint0_linear_7159_2162)"/>
<path fill-rule="evenodd" clip-rule="evenodd" d="M188.829 147.115L229.404 136.32C233.832 135.12 238.501 137.52 239.708 142C240.916 146.48 238.259 150.96 233.832 152.16L210.839 158.298C210.148 158.482 210.027 159.411 210.648 159.766L226.748 168.96C230.612 171.2 231.98 176.08 229.726 179.92C227.473 183.76 222.562 185.12 218.698 182.88L202.579 173.674C201.961 173.321 201.224 173.891 201.41 174.578L207.589 197.44C208.797 201.92 206.221 206.4 201.713 207.6C197.205 208.8 192.697 206.16 191.489 201.76L180.628 161.44C180.572 161.235 180.438 161.061 180.254 160.955L162.586 150.801C162.259 150.614 161.847 150.68 161.59 150.955C156.071 156.879 148.898 161.258 140.69 163.065C140.319 163.147 140.05 163.474 140.05 163.854V183.907C140.05 184.12 140.135 184.324 140.286 184.475L169.996 214C173.216 217.2 173.216 222.48 169.996 225.68C166.776 228.88 161.463 228.88 158.243 225.68L141.414 208.955C140.909 208.454 140.05 208.811 140.05 209.523V228C140.05 232.4 136.427 236 132 236C127.573 236 123.95 232.4 123.95 228V209.603C123.95 208.891 123.091 208.534 122.586 209.035L105.757 225.76C102.537 228.96 97.2242 228.96 94.0042 225.76C90.7842 222.56 90.7842 217.28 94.0042 214.08L123.714 184.555C123.865 184.404 123.95 184.2 123.95 183.987V163.935C123.95 163.554 123.681 163.227 123.308 163.146C115.03 161.34 107.925 156.959 102.409 151.035C102.153 150.759 101.741 150.693 101.415 150.88L83.8276 160.955C83.643 161.061 83.5081 161.235 83.4528 161.441L72.5913 201.76C71.3838 206.16 66.7953 208.8 62.3679 207.6C57.9404 206.4 55.2839 201.84 56.4914 197.44L62.6683 174.587C62.8543 173.898 62.1149 173.329 61.4969 173.685L45.3824 182.96C41.5185 185.12 36.608 183.84 34.354 180C32.1 176.16 33.4685 171.28 37.252 169.2L53.3631 159.927C53.9816 159.571 53.8598 158.644 53.1704 158.46L30.168 152.32C25.7405 151.12 23.0841 146.56 24.2915 142.16C25.499 137.76 30.0875 135.12 34.515 136.32L75.0903 147.115C75.2943 147.17 75.5115 147.141 75.6946 147.036L93.3483 136.891C93.6819 136.699 93.8311 136.297 93.7095 135.932C92.4635 132.189 91.6697 128.166 91.6697 124C91.6697 119.846 92.4591 115.834 93.6992 112.234C93.8258 111.866 93.6776 111.459 93.3405 111.265L75.6946 101.124C75.5115 101.019 75.2943 100.99 75.0903 101.045L34.515 111.84C30.007 113.04 25.499 110.4 24.2915 106C23.0841 101.52 25.7405 97.04 30.168 95.84L53.1704 89.6997C53.8598 89.5157 53.9816 88.5894 53.3631 88.2334L37.252 78.96C33.4685 76.72 32.1 71.84 34.354 68C36.5275 64.16 41.5185 62.88 45.3019 65.04L61.4997 74.3213C62.1177 74.6754 62.8555 74.106 62.6697 73.4184L56.4914 50.56C55.2839 46.16 57.9404 41.68 62.3679 40.48C66.7953 39.28 71.3033 41.92 72.5108 46.32L83.3723 86.6391C83.4276 86.8445 83.5625 87.0194 83.7471 87.1252L101.334 97.1998C101.661 97.3867 102.072 97.3206 102.329 97.0454C107.848 91.1216 115.022 86.7417 123.229 84.9353C123.601 84.8535 123.87 84.5264 123.87 84.1457V64.0928C123.87 63.8798 123.785 63.6756 123.633 63.5254L93.9237 34C90.7037 30.8 90.7037 25.52 93.9237 22.32C97.1437 19.12 102.457 19.12 105.677 22.32L122.506 39.0445C123.01 39.5461 123.87 39.1886 123.87 38.4771V20C123.87 15.6 127.492 12 131.919 12C136.347 12 139.969 15.6 139.969 20V38.4771C139.969 39.1886 140.829 39.5461 141.333 39.0445L158.162 22.32C161.382 19.12 166.695 19.12 169.915 22.32C173.135 25.52 173.135 30.8 169.915 34L140.206 63.5254C140.054 63.6756 139.969 63.8798 139.969 64.0928V84.1457C139.969 84.5264 140.238 84.8535 140.61 84.9353C148.814 86.7409 155.984 91.1161 161.429 96.9642C161.686 97.2399 162.098 97.306 162.425 97.1184L180.093 86.9653C180.277 86.8595 180.411 86.6848 180.467 86.4797L191.328 46.16C192.536 41.76 197.124 39.12 201.552 40.32C205.979 41.52 208.636 46.08 207.428 50.48L201.249 73.3422C201.063 74.0293 201.8 74.5986 202.418 74.2456L218.537 65.04C222.401 62.88 227.312 64.16 229.566 68C231.739 71.84 230.451 76.72 226.668 78.88L210.568 88.0745C209.947 88.429 210.067 89.3577 210.758 89.5421L233.751 95.68C238.179 96.88 240.835 101.44 239.628 105.84C238.42 110.24 233.832 112.88 229.404 111.68L188.829 100.885C188.625 100.83 188.408 100.859 188.225 100.964L170.571 111.109C170.238 111.301 170.088 111.703 170.21 112.068C171.456 115.811 172.25 119.834 172.25 124C172.25 128.171 171.454 132.127 170.205 135.935C170.086 136.299 170.236 136.698 170.568 136.889L188.225 147.036C188.408 147.141 188.625 147.17 188.829 147.115ZM156.07 124C156.07 137.255 145.257 148 131.92 148C118.582 148 107.77 137.255 107.77 124C107.77 110.745 118.582 100 131.92 100C145.257 100 156.07 110.745 156.07 124Z" fill="url(#paint1_linear_7159_2162)"/>
<path fill-rule="evenodd" clip-rule="evenodd" d="M188.829 147.115L229.404 136.32C233.832 135.12 238.501 137.52 239.708 142C240.916 146.48 238.259 150.96 233.832 152.16L210.839 158.298C210.148 158.482 210.027 159.411 210.648 159.766L226.748 168.96C230.612 171.2 231.98 176.08 229.726 179.92C227.473 183.76 222.562 185.12 218.698 182.88L202.579 173.674C201.961 173.321 201.224 173.891 201.41 174.578L207.589 197.44C208.797 201.92 206.221 206.4 201.713 207.6C197.205 208.8 192.697 206.16 191.489 201.76L180.628 161.44C180.572 161.235 180.438 161.061 180.254 160.955L162.586 150.801C162.259 150.614 161.847 150.68 161.59 150.955C156.071 156.879 148.898 161.258 140.69 163.065C140.319 163.147 140.05 163.474 140.05 163.854V183.907C140.05 184.12 140.135 184.324 140.286 184.475L169.996 214C173.216 217.2 173.216 222.48 169.996 225.68C166.776 228.88 161.463 228.88 158.243 225.68L141.414 208.955C140.909 208.454 140.05 208.811 140.05 209.523V228C140.05 232.4 136.427 236 132 236C127.573 236 123.95 232.4 123.95 228V209.603C123.95 208.891 123.091 208.534 122.586 209.035L105.757 225.76C102.537 228.96 97.2242 228.96 94.0042 225.76C90.7842 222.56 90.7842 217.28 94.0042 214.08L123.714 184.555C123.865 184.404 123.95 184.2 123.95 183.987V163.935C123.95 163.554 123.681 163.227 123.308 163.146C115.03 161.34 107.925 156.959 102.409 151.035C102.153 150.759 101.741 150.693 101.415 150.88L83.8276 160.955C83.643 161.061 83.5081 161.235 83.4528 161.441L72.5913 201.76C71.3838 206.16 66.7953 208.8 62.3679 207.6C57.9404 206.4 55.2839 201.84 56.4914 197.44L62.6683 174.587C62.8543 173.898 62.1149 173.329 61.4969 173.685L45.3824 182.96C41.5185 185.12 36.608 183.84 34.354 180C32.1 176.16 33.4685 171.28 37.252 169.2L53.3631 159.927C53.9816 159.571 53.8598 158.644 53.1704 158.46L30.168 152.32C25.7405 151.12 23.0841 146.56 24.2915 142.16C25.499 137.76 30.0875 135.12 34.515 136.32L75.0903 147.115C75.2943 147.17 75.5115 147.141 75.6946 147.036L93.3483 136.891C93.6819 136.699 93.8311 136.297 93.7095 135.932C92.4635 132.189 91.6697 128.166 91.6697 124C91.6697 119.846 92.4591 115.834 93.6992 112.234C93.8258 111.866 93.6776 111.459 93.3405 111.265L75.6946 101.124C75.5115 101.019 75.2943 100.99 75.0903 101.045L34.515 111.84C30.007 113.04 25.499 110.4 24.2915 106C23.0841 101.52 25.7405 97.04 30.168 95.84L53.1704 89.6997C53.8598 89.5157 53.9816 88.5894 53.3631 88.2334L37.252 78.96C33.4685 76.72 32.1 71.84 34.354 68C36.5275 64.16 41.5185 62.88 45.3019 65.04L61.4997 74.3213C62.1177 74.6754 62.8555 74.106 62.6697 73.4184L56.4914 50.56C55.2839 46.16 57.9404 41.68 62.3679 40.48C66.7953 39.28 71.3033 41.92 72.5108 46.32L83.3723 86.6391C83.4276 86.8445 83.5625 87.0194 83.7471 87.1252L101.334 97.1998C101.661 97.3867 102.072 97.3206 102.329 97.0454C107.848 91.1216 115.022 86.7417 123.229 84.9353C123.601 84.8535 123.87 84.5264 123.87 84.1457V64.0928C123.87 63.8798 123.785 63.6756 123.633 63.5254L93.9237 34C90.7037 30.8 90.7037 25.52 93.9237 22.32C97.1437 19.12 102.457 19.12 105.677 22.32L122.506 39.0445C123.01 39.5461 123.87 39.1886 123.87 38.4771V20C123.87 15.6 127.492 12 131.919 12C136.347 12 139.969 15.6 139.969 20V38.4771C139.969 39.1886 140.829 39.5461 141.333 39.0445L158.162 22.32C161.382 19.12 166.695 19.12 169.915 22.32C173.135 25.52 173.135 30.8 169.915 34L140.206 63.5254C140.054 63.6756 139.969 63.8798 139.969 64.0928V84.1457C139.969 84.5264 140.238 84.8535 140.61 84.9353C148.814 86.7409 155.984 91.1161 161.429 96.9642C161.686 97.2399 162.098 97.306 162.425 97.1184L180.093 86.9653C180.277 86.8595 180.411 86.6848 180.467 86.4797L191.328 46.16C192.536 41.76 197.124 39.12 201.552 40.32C205.979 41.52 208.636 46.08 207.428 50.48L201.249 73.3422C201.063 74.0293 201.8 74.5986 202.418 74.2456L218.537 65.04C222.401 62.88 227.312 64.16 229.566 68C231.739 71.84 230.451 76.72 226.668 78.88L210.568 88.0745C209.947 88.429 210.067 89.3577 210.758 89.5421L233.751 95.68C238.179 96.88 240.835 101.44 239.628 105.84C238.42 110.24 233.832 112.88 229.404 111.68L188.829 100.885C188.625 100.83 188.408 100.859 188.225 100.964L170.571 111.109C170.238 111.301 170.088 111.703 170.21 112.068C171.456 115.811 172.25 119.834 172.25 124C172.25 128.171 171.454 132.127 170.205 135.935C170.086 136.299 170.236 136.698 170.568 136.889L188.225 147.036C188.408 147.141 188.625 147.17 188.829 147.115ZM156.07 124C156.07 137.255 145.257 148 131.92 148C118.582 148 107.77 137.255 107.77 124C107.77 110.745 118.582 100 131.92 100C145.257 100 156.07 110.745 156.07 124Z" fill="url(#paint2_radial_7159_2162)"/>
<path fill-rule="evenodd" clip-rule="evenodd" d="M188.829 147.115L229.404 136.32C233.832 135.12 238.501 137.52 239.708 142C240.916 146.48 238.259 150.96 233.832 152.16L210.839 158.298C210.148 158.482 210.027 159.411 210.648 159.766L226.748 168.96C230.612 171.2 231.98 176.08 229.726 179.92C227.473 183.76 222.562 185.12 218.698 182.88L202.579 173.674C201.961 173.321 201.224 173.891 201.41 174.578L207.589 197.44C208.797 201.92 206.221 206.4 201.713 207.6C197.205 208.8 192.697 206.16 191.489 201.76L180.628 161.44C180.572 161.235 180.438 161.061 180.254 160.955L162.586 150.801C162.259 150.614 161.847 150.68 161.59 150.955C156.071 156.879 148.898 161.258 140.69 163.065C140.319 163.147 140.05 163.474 140.05 163.854V183.907C140.05 184.12 140.135 184.324 140.286 184.475L169.996 214C173.216 217.2 173.216 222.48 169.996 225.68C166.776 228.88 161.463 228.88 158.243 225.68L141.414 208.955C140.909 208.454 140.05 208.811 140.05 209.523V228C140.05 232.4 136.427 236 132 236C127.573 236 123.95 232.4 123.95 228V209.603C123.95 208.891 123.091 208.534 122.586 209.035L105.757 225.76C102.537 228.96 97.2242 228.96 94.0042 225.76C90.7842 222.56 90.7842 217.28 94.0042 214.08L123.714 184.555C123.865 184.404 123.95 184.2 123.95 183.987V163.935C123.95 163.554 123.681 163.227 123.308 163.146C115.03 161.34 107.925 156.959 102.409 151.035C102.153 150.759 101.741 150.693 101.415 150.88L83.8276 160.955C83.643 161.061 83.5081 161.235 83.4528 161.441L72.5913 201.76C71.3838 206.16 66.7953 208.8 62.3679 207.6C57.9404 206.4 55.2839 201.84 56.4914 197.44L62.6683 174.587C62.8543 173.898 62.1149 173.329 61.4969 173.685L45.3824 182.96C41.5185 185.12 36.608 183.84 34.354 180C32.1 176.16 33.4685 171.28 37.252 169.2L53.3631 159.927C53.9816 159.571 53.8598 158.644 53.1704 158.46L30.168 152.32C25.7405 151.12 23.0841 146.56 24.2915 142.16C25.499 137.76 30.0875 135.12 34.515 136.32L75.0903 147.115C75.2943 147.17 75.5115 147.141 75.6946 147.036L93.3483 136.891C93.6819 136.699 93.8311 136.297 93.7095 135.932C92.4635 132.189 91.6697 128.166 91.6697 124C91.6697 119.846 92.4591 115.834 93.6992 112.234C93.8258 111.866 93.6776 111.459 93.3405 111.265L75.6946 101.124C75.5115 101.019 75.2943 100.99 75.0903 101.045L34.515 111.84C30.007 113.04 25.499 110.4 24.2915 106C23.0841 101.52 25.7405 97.04 30.168 95.84L53.1704 89.6997C53.8598 89.5157 53.9816 88.5894 53.3631 88.2334L37.252 78.96C33.4685 76.72 32.1 71.84 34.354 68C36.5275 64.16 41.5185 62.88 45.3019 65.04L61.4997 74.3213C62.1177 74.6754 62.8555 74.106 62.6697 73.4184L56.4914 50.56C55.2839 46.16 57.9404 41.68 62.3679 40.48C66.7953 39.28 71.3033 41.92 72.5108 46.32L83.3723 86.6391C83.4276 86.8445 83.5625 87.0194 83.7471 87.1252L101.334 97.1998C101.661 97.3867 102.072 97.3206 102.329 97.0454C107.848 91.1216 115.022 86.7417 123.229 84.9353C123.601 84.8535 123.87 84.5264 123.87 84.1457V64.0928C123.87 63.8798 123.785 63.6756 123.633 63.5254L93.9237 34C90.7037 30.8 90.7037 25.52 93.9237 22.32C97.1437 19.12 102.457 19.12 105.677 22.32L122.506 39.0445C123.01 39.5461 123.87 39.1886 123.87 38.4771V20C123.87 15.6 127.492 12 131.919 12C136.347 12 139.969 15.6 139.969 20V38.4771C139.969 39.1886 140.829 39.5461 141.333 39.0445L158.162 22.32C161.382 19.12 166.695 19.12 169.915 22.32C173.135 25.52 173.135 30.8 169.915 34L140.206 63.5254C140.054 63.6756 139.969 63.8798 139.969 64.0928V84.1457C139.969 84.5264 140.238 84.8535 140.61 84.9353C148.814 86.7409 155.984 91.1161 161.429 96.9642C161.686 97.2399 162.098 97.306 162.425 97.1184L180.093 86.9653C180.277 86.8595 180.411 86.6848 180.467 86.4797L191.328 46.16C192.536 41.76 197.124 39.12 201.552 40.32C205.979 41.52 208.636 46.08 207.428 50.48L201.249 73.3422C201.063 74.0293 201.8 74.5986 202.418 74.2456L218.537 65.04C222.401 62.88 227.312 64.16 229.566 68C231.739 71.84 230.451 76.72 226.668 78.88L210.568 88.0745C209.947 88.429 210.067 89.3577 210.758 89.5421L233.751 95.68C238.179 96.88 240.835 101.44 239.628 105.84C238.42 110.24 233.832 112.88 229.404 111.68L188.829 100.885C188.625 100.83 188.408 100.859 188.225 100.964L170.571 111.109C170.238 111.301 170.088 111.703 170.21 112.068C171.456 115.811 172.25 119.834 172.25 124C172.25 128.171 171.454 132.127 170.205 135.935C170.086 136.299 170.236 136.698 170.568 136.889L188.225 147.036C188.408 147.141 188.625 147.17 188.829 147.115ZM156.07 124C156.07 137.255 145.257 148 131.92 148C118.582 148 107.77 137.255 107.77 124C107.77 110.745 118.582 100 131.92 100C145.257 100 156.07 110.745 156.07 124Z" fill="url(#paint3_radial_7159_2162)"/>
<path fill-rule="evenodd" clip-rule="evenodd" d="M188.829 147.115L229.404 136.32C233.832 135.12 238.501 137.52 239.708 142C240.916 146.48 238.259 150.96 233.832 152.16L210.839 158.298C210.148 158.482 210.027 159.411 210.648 159.766L226.748 168.96C230.612 171.2 231.98 176.08 229.726 179.92C227.473 183.76 222.562 185.12 218.698 182.88L202.579 173.674C201.961 173.321 201.224 173.891 201.41 174.578L207.589 197.44C208.797 201.92 206.221 206.4 201.713 207.6C197.205 208.8 192.697 206.16 191.489 201.76L180.628 161.44C180.572 161.235 180.438 161.061 180.254 160.955L162.586 150.801C162.259 150.614 161.847 150.68 161.59 150.955C156.071 156.879 148.898 161.258 140.69 163.065C140.319 163.147 140.05 163.474 140.05 163.854V183.907C140.05 184.12 140.135 184.324 140.286 184.475L169.996 214C173.216 217.2 173.216 222.48 169.996 225.68C166.776 228.88 161.463 228.88 158.243 225.68L141.414 208.955C140.909 208.454 140.05 208.811 140.05 209.523V228C140.05 232.4 136.427 236 132 236C127.573 236 123.95 232.4 123.95 228V209.603C123.95 208.891 123.091 208.534 122.586 209.035L105.757 225.76C102.537 228.96 97.2242 228.96 94.0042 225.76C90.7842 222.56 90.7842 217.28 94.0042 214.08L123.714 184.555C123.865 184.404 123.95 184.2 123.95 183.987V163.935C123.95 163.554 123.681 163.227 123.308 163.146C115.03 161.34 107.925 156.959 102.409 151.035C102.153 150.759 101.741 150.693 101.415 150.88L83.8276 160.955C83.643 161.061 83.5081 161.235 83.4528 161.441L72.5913 201.76C71.3838 206.16 66.7953 208.8 62.3679 207.6C57.9404 206.4 55.2839 201.84 56.4914 197.44L62.6683 174.587C62.8543 173.898 62.1149 173.329 61.4969 173.685L45.3824 182.96C41.5185 185.12 36.608 183.84 34.354 180C32.1 176.16 33.4685 171.28 37.252 169.2L53.3631 159.927C53.9816 159.571 53.8598 158.644 53.1704 158.46L30.168 152.32C25.7405 151.12 23.0841 146.56 24.2915 142.16C25.499 137.76 30.0875 135.12 34.515 136.32L75.0903 147.115C75.2943 147.17 75.5115 147.141 75.6946 147.036L93.3483 136.891C93.6819 136.699 93.8311 136.297 93.7095 135.932C92.4635 132.189 91.6697 128.166 91.6697 124C91.6697 119.846 92.4591 115.834 93.6992 112.234C93.8258 111.866 93.6776 111.459 93.3405 111.265L75.6946 101.124C75.5115 101.019 75.2943 100.99 75.0903 101.045L34.515 111.84C30.007 113.04 25.499 110.4 24.2915 106C23.0841 101.52 25.7405 97.04 30.168 95.84L53.1704 89.6997C53.8598 89.5157 53.9816 88.5894 53.3631 88.2334L37.252 78.96C33.4685 76.72 32.1 71.84 34.354 68C36.5275 64.16 41.5185 62.88 45.3019 65.04L61.4997 74.3213C62.1177 74.6754 62.8555 74.106 62.6697 73.4184L56.4914 50.56C55.2839 46.16 57.9404 41.68 62.3679 40.48C66.7953 39.28 71.3033 41.92 72.5108 46.32L83.3723 86.6391C83.4276 86.8445 83.5625 87.0194 83.7471 87.1252L101.334 97.1998C101.661 97.3867 102.072 97.3206 102.329 97.0454C107.848 91.1216 115.022 86.7417 123.229 84.9353C123.601 84.8535 123.87 84.5264 123.87 84.1457V64.0928C123.87 63.8798 123.785 63.6756 123.633 63.5254L93.9237 34C90.7037 30.8 90.7037 25.52 93.9237 22.32C97.1437 19.12 102.457 19.12 105.677 22.32L122.506 39.0445C123.01 39.5461 123.87 39.1886 123.87 38.4771V20C123.87 15.6 127.492 12 131.919 12C136.347 12 139.969 15.6 139.969 20V38.4771C139.969 39.1886 140.829 39.5461 141.333 39.0445L158.162 22.32C161.382 19.12 166.695 19.12 169.915 22.32C173.135 25.52 173.135 30.8 169.915 34L140.206 63.5254C140.054 63.6756 139.969 63.8798 139.969 64.0928V84.1457C139.969 84.5264 140.238 84.8535 140.61 84.9353C148.814 86.7409 155.984 91.1161 161.429 96.9642C161.686 97.2399 162.098 97.306 162.425 97.1184L180.093 86.9653C180.277 86.8595 180.411 86.6848 180.467 86.4797L191.328 46.16C192.536 41.76 197.124 39.12 201.552 40.32C205.979 41.52 208.636 46.08 207.428 50.48L201.249 73.3422C201.063 74.0293 201.8 74.5986 202.418 74.2456L218.537 65.04C222.401 62.88 227.312 64.16 229.566 68C231.739 71.84 230.451 76.72 226.668 78.88L210.568 88.0745C209.947 88.429 210.067 89.3577 210.758 89.5421L233.751 95.68C238.179 96.88 240.835 101.44 239.628 105.84C238.42 110.24 233.832 112.88 229.404 111.68L188.829 100.885C188.625 100.83 188.408 100.859 188.225 100.964L170.571 111.109C170.238 111.301 170.088 111.703 170.21 112.068C171.456 115.811 172.25 119.834 172.25 124C172.25 128.171 171.454 132.127 170.205 135.935C170.086 136.299 170.236 136.698 170.568 136.889L188.225 147.036C188.408 147.141 188.625 147.17 188.829 147.115ZM156.07 124C156.07 137.255 145.257 148 131.92 148C118.582 148 107.77 137.255 107.77 124C107.77 110.745 118.582 100 131.92 100C145.257 100 156.07 110.745 156.07 124Z" fill="url(#paint4_radial_7159_2162)"/>
<path fill-rule="evenodd" clip-rule="evenodd" d="M188.829 147.115L229.404 136.32C233.832 135.12 238.501 137.52 239.708 142C240.916 146.48 238.259 150.96 233.832 152.16L210.839 158.298C210.148 158.482 210.027 159.411 210.648 159.766L226.748 168.96C230.612 171.2 231.98 176.08 229.726 179.92C227.473 183.76 222.562 185.12 218.698 182.88L202.579 173.674C201.961 173.321 201.224 173.891 201.41 174.578L207.589 197.44C208.797 201.92 206.221 206.4 201.713 207.6C197.205 208.8 192.697 206.16 191.489 201.76L180.628 161.44C180.572 161.235 180.438 161.061 180.254 160.955L162.586 150.801C162.259 150.614 161.847 150.68 161.59 150.955C156.071 156.879 148.898 161.258 140.69 163.065C140.319 163.147 140.05 163.474 140.05 163.854V183.907C140.05 184.12 140.135 184.324 140.286 184.475L169.996 214C173.216 217.2 173.216 222.48 169.996 225.68C166.776 228.88 161.463 228.88 158.243 225.68L141.414 208.955C140.909 208.454 140.05 208.811 140.05 209.523V228C140.05 232.4 136.427 236 132 236C127.573 236 123.95 232.4 123.95 228V209.603C123.95 208.891 123.091 208.534 122.586 209.035L105.757 225.76C102.537 228.96 97.2242 228.96 94.0042 225.76C90.7842 222.56 90.7842 217.28 94.0042 214.08L123.714 184.555C123.865 184.404 123.95 184.2 123.95 183.987V163.935C123.95 163.554 123.681 163.227 123.308 163.146C115.03 161.34 107.925 156.959 102.409 151.035C102.153 150.759 101.741 150.693 101.415 150.88L83.8276 160.955C83.643 161.061 83.5081 161.235 83.4528 161.441L72.5913 201.76C71.3838 206.16 66.7953 208.8 62.3679 207.6C57.9404 206.4 55.2839 201.84 56.4914 197.44L62.6683 174.587C62.8543 173.898 62.1149 173.329 61.4969 173.685L45.3824 182.96C41.5185 185.12 36.608 183.84 34.354 180C32.1 176.16 33.4685 171.28 37.252 169.2L53.3631 159.927C53.9816 159.571 53.8598 158.644 53.1704 158.46L30.168 152.32C25.7405 151.12 23.0841 146.56 24.2915 142.16C25.499 137.76 30.0875 135.12 34.515 136.32L75.0903 147.115C75.2943 147.17 75.5115 147.141 75.6946 147.036L93.3483 136.891C93.6819 136.699 93.8311 136.297 93.7095 135.932C92.4635 132.189 91.6697 128.166 91.6697 124C91.6697 119.846 92.4591 115.834 93.6992 112.234C93.8258 111.866 93.6776 111.459 93.3405 111.265L75.6946 101.124C75.5115 101.019 75.2943 100.99 75.0903 101.045L34.515 111.84C30.007 113.04 25.499 110.4 24.2915 106C23.0841 101.52 25.7405 97.04 30.168 95.84L53.1704 89.6997C53.8598 89.5157 53.9816 88.5894 53.3631 88.2334L37.252 78.96C33.4685 76.72 32.1 71.84 34.354 68C36.5275 64.16 41.5185 62.88 45.3019 65.04L61.4997 74.3213C62.1177 74.6754 62.8555 74.106 62.6697 73.4184L56.4914 50.56C55.2839 46.16 57.9404 41.68 62.3679 40.48C66.7953 39.28 71.3033 41.92 72.5108 46.32L83.3723 86.6391C83.4276 86.8445 83.5625 87.0194 83.7471 87.1252L101.334 97.1998C101.661 97.3867 102.072 97.3206 102.329 97.0454C107.848 91.1216 115.022 86.7417 123.229 84.9353C123.601 84.8535 123.87 84.5264 123.87 84.1457V64.0928C123.87 63.8798 123.785 63.6756 123.633 63.5254L93.9237 34C90.7037 30.8 90.7037 25.52 93.9237 22.32C97.1437 19.12 102.457 19.12 105.677 22.32L122.506 39.0445C123.01 39.5461 123.87 39.1886 123.87 38.4771V20C123.87 15.6 127.492 12 131.919 12C136.347 12 139.969 15.6 139.969 20V38.4771C139.969 39.1886 140.829 39.5461 141.333 39.0445L158.162 22.32C161.382 19.12 166.695 19.12 169.915 22.32C173.135 25.52 173.135 30.8 169.915 34L140.206 63.5254C140.054 63.6756 139.969 63.8798 139.969 64.0928V84.1457C139.969 84.5264 140.238 84.8535 140.61 84.9353C148.814 86.7409 155.984 91.1161 161.429 96.9642C161.686 97.2399 162.098 97.306 162.425 97.1184L180.093 86.9653C180.277 86.8595 180.411 86.6848 180.467 86.4797L191.328 46.16C192.536 41.76 197.124 39.12 201.552 40.32C205.979 41.52 208.636 46.08 207.428 50.48L201.249 73.3422C201.063 74.0293 201.8 74.5986 202.418 74.2456L218.537 65.04C222.401 62.88 227.312 64.16 229.566 68C231.739 71.84 230.451 76.72 226.668 78.88L210.568 88.0745C209.947 88.429 210.067 89.3577 210.758 89.5421L233.751 95.68C238.179 96.88 240.835 101.44 239.628 105.84C238.42 110.24 233.832 112.88 229.404 111.68L188.829 100.885C188.625 100.83 188.408 100.859 188.225 100.964L170.571 111.109C170.238 111.301 170.088 111.703 170.21 112.068C171.456 115.811 172.25 119.834 172.25 124C172.25 128.171 171.454 132.127 170.205 135.935C170.086 136.299 170.236 136.698 170.568 136.889L188.225 147.036C188.408 147.141 188.625 147.17 188.829 147.115ZM156.07 124C156.07 137.255 145.257 148 131.92 148C118.582 148 107.77 137.255 107.77 124C107.77 110.745 118.582 100 131.92 100C145.257 100 156.07 110.745 156.07 124Z" fill="url(#paint5_radial_7159_2162)"/>
<path fill-rule="evenodd" clip-rule="evenodd" d="M188.829 147.115L229.404 136.32C233.832 135.12 238.501 137.52 239.708 142C240.916 146.48 238.259 150.96 233.832 152.16L210.839 158.298C210.148 158.482 210.027 159.411 210.648 159.766L226.748 168.96C230.612 171.2 231.98 176.08 229.726 179.92C227.473 183.76 222.562 185.12 218.698 182.88L202.579 173.674C201.961 173.321 201.224 173.891 201.41 174.578L207.589 197.44C208.797 201.92 206.221 206.4 201.713 207.6C197.205 208.8 192.697 206.16 191.489 201.76L180.628 161.44C180.572 161.235 180.438 161.061 180.254 160.955L162.586 150.801C162.259 150.614 161.847 150.68 161.59 150.955C156.071 156.879 148.898 161.258 140.69 163.065C140.319 163.147 140.05 163.474 140.05 163.854V183.907C140.05 184.12 140.135 184.324 140.286 184.475L169.996 214C173.216 217.2 173.216 222.48 169.996 225.68C166.776 228.88 161.463 228.88 158.243 225.68L141.414 208.955C140.909 208.454 140.05 208.811 140.05 209.523V228C140.05 232.4 136.427 236 132 236C127.573 236 123.95 232.4 123.95 228V209.603C123.95 208.891 123.091 208.534 122.586 209.035L105.757 225.76C102.537 228.96 97.2242 228.96 94.0042 225.76C90.7842 222.56 90.7842 217.28 94.0042 214.08L123.714 184.555C123.865 184.404 123.95 184.2 123.95 183.987V163.935C123.95 163.554 123.681 163.227 123.308 163.146C115.03 161.34 107.925 156.959 102.409 151.035C102.153 150.759 101.741 150.693 101.415 150.88L83.8276 160.955C83.643 161.061 83.5081 161.235 83.4528 161.441L72.5913 201.76C71.3838 206.16 66.7953 208.8 62.3679 207.6C57.9404 206.4 55.2839 201.84 56.4914 197.44L62.6683 174.587C62.8543 173.898 62.1149 173.329 61.4969 173.685L45.3824 182.96C41.5185 185.12 36.608 183.84 34.354 180C32.1 176.16 33.4685 171.28 37.252 169.2L53.3631 159.927C53.9816 159.571 53.8598 158.644 53.1704 158.46L30.168 152.32C25.7405 151.12 23.0841 146.56 24.2915 142.16C25.499 137.76 30.0875 135.12 34.515 136.32L75.0903 147.115C75.2943 147.17 75.5115 147.141 75.6946 147.036L93.3483 136.891C93.6819 136.699 93.8311 136.297 93.7095 135.932C92.4635 132.189 91.6697 128.166 91.6697 124C91.6697 119.846 92.4591 115.834 93.6992 112.234C93.8258 111.866 93.6776 111.459 93.3405 111.265L75.6946 101.124C75.5115 101.019 75.2943 100.99 75.0903 101.045L34.515 111.84C30.007 113.04 25.499 110.4 24.2915 106C23.0841 101.52 25.7405 97.04 30.168 95.84L53.1704 89.6997C53.8598 89.5157 53.9816 88.5894 53.3631 88.2334L37.252 78.96C33.4685 76.72 32.1 71.84 34.354 68C36.5275 64.16 41.5185 62.88 45.3019 65.04L61.4997 74.3213C62.1177 74.6754 62.8555 74.106 62.6697 73.4184L56.4914 50.56C55.2839 46.16 57.9404 41.68 62.3679 40.48C66.7953 39.28 71.3033 41.92 72.5108 46.32L83.3723 86.6391C83.4276 86.8445 83.5625 87.0194 83.7471 87.1252L101.334 97.1998C101.661 97.3867 102.072 97.3206 102.329 97.0454C107.848 91.1216 115.022 86.7417 123.229 84.9353C123.601 84.8535 123.87 84.5264 123.87 84.1457V64.0928C123.87 63.8798 123.785 63.6756 123.633 63.5254L93.9237 34C90.7037 30.8 90.7037 25.52 93.9237 22.32C97.1437 19.12 102.457 19.12 105.677 22.32L122.506 39.0445C123.01 39.5461 123.87 39.1886 123.87 38.4771V20C123.87 15.6 127.492 12 131.919 12C136.347 12 139.969 15.6 139.969 20V38.4771C139.969 39.1886 140.829 39.5461 141.333 39.0445L158.162 22.32C161.382 19.12 166.695 19.12 169.915 22.32C173.135 25.52 173.135 30.8 169.915 34L140.206 63.5254C140.054 63.6756 139.969 63.8798 139.969 64.0928V84.1457C139.969 84.5264 140.238 84.8535 140.61 84.9353C148.814 86.7409 155.984 91.1161 161.429 96.9642C161.686 97.2399 162.098 97.306 162.425 97.1184L180.093 86.9653C180.277 86.8595 180.411 86.6848 180.467 86.4797L191.328 46.16C192.536 41.76 197.124 39.12 201.552 40.32C205.979 41.52 208.636 46.08 207.428 50.48L201.249 73.3422C201.063 74.0293 201.8 74.5986 202.418 74.2456L218.537 65.04C222.401 62.88 227.312 64.16 229.566 68C231.739 71.84 230.451 76.72 226.668 78.88L210.568 88.0745C209.947 88.429 210.067 89.3577 210.758 89.5421L233.751 95.68C238.179 96.88 240.835 101.44 239.628 105.84C238.42 110.24 233.832 112.88 229.404 111.68L188.829 100.885C188.625 100.83 188.408 100.859 188.225 100.964L170.571 111.109C170.238 111.301 170.088 111.703 170.21 112.068C171.456 115.811 172.25 119.834 172.25 124C172.25 128.171 171.454 132.127 170.205 135.935C170.086 136.299 170.236 136.698 170.568 136.889L188.225 147.036C188.408 147.141 188.625 147.17 188.829 147.115ZM156.07 124C156.07 137.255 145.257 148 131.92 148C118.582 148 107.77 137.255 107.77 124C107.77 110.745 118.582 100 131.92 100C145.257 100 156.07 110.745 156.07 124Z" fill="url(#paint6_radial_7159_2162)"/>
<path fill-rule="evenodd" clip-rule="evenodd" d="M188.829 147.115L229.404 136.32C233.832 135.12 238.501 137.52 239.708 142C240.916 146.48 238.259 150.96 233.832 152.16L210.839 158.298C210.148 158.482 210.027 159.411 210.648 159.766L226.748 168.96C230.612 171.2 231.98 176.08 229.726 179.92C227.473 183.76 222.562 185.12 218.698 182.88L202.579 173.674C201.961 173.321 201.224 173.891 201.41 174.578L207.589 197.44C208.797 201.92 206.221 206.4 201.713 207.6C197.205 208.8 192.697 206.16 191.489 201.76L180.628 161.44C180.572 161.235 180.438 161.061 180.254 160.955L162.586 150.801C162.259 150.614 161.847 150.68 161.59 150.955C156.071 156.879 148.898 161.258 140.69 163.065C140.319 163.147 140.05 163.474 140.05 163.854V183.907C140.05 184.12 140.135 184.324 140.286 184.475L169.996 214C173.216 217.2 173.216 222.48 169.996 225.68C166.776 228.88 161.463 228.88 158.243 225.68L141.414 208.955C140.909 208.454 140.05 208.811 140.05 209.523V228C140.05 232.4 136.427 236 132 236C127.573 236 123.95 232.4 123.95 228V209.603C123.95 208.891 123.091 208.534 122.586 209.035L105.757 225.76C102.537 228.96 97.2242 228.96 94.0042 225.76C90.7842 222.56 90.7842 217.28 94.0042 214.08L123.714 184.555C123.865 184.404 123.95 184.2 123.95 183.987V163.935C123.95 163.554 123.681 163.227 123.308 163.146C115.03 161.34 107.925 156.959 102.409 151.035C102.153 150.759 101.741 150.693 101.415 150.88L83.8276 160.955C83.643 161.061 83.5081 161.235 83.4528 161.441L72.5913 201.76C71.3838 206.16 66.7953 208.8 62.3679 207.6C57.9404 206.4 55.2839 201.84 56.4914 197.44L62.6683 174.587C62.8543 173.898 62.1149 173.329 61.4969 173.685L45.3824 182.96C41.5185 185.12 36.608 183.84 34.354 180C32.1 176.16 33.4685 171.28 37.252 169.2L53.3631 159.927C53.9816 159.571 53.8598 158.644 53.1704 158.46L30.168 152.32C25.7405 151.12 23.0841 146.56 24.2915 142.16C25.499 137.76 30.0875 135.12 34.515 136.32L75.0903 147.115C75.2943 147.17 75.5115 147.141 75.6946 147.036L93.3483 136.891C93.6819 136.699 93.8311 136.297 93.7095 135.932C92.4635 132.189 91.6697 128.166 91.6697 124C91.6697 119.846 92.4591 115.834 93.6992 112.234C93.8258 111.866 93.6776 111.459 93.3405 111.265L75.6946 101.124C75.5115 101.019 75.2943 100.99 75.0903 101.045L34.515 111.84C30.007 113.04 25.499 110.4 24.2915 106C23.0841 101.52 25.7405 97.04 30.168 95.84L53.1704 89.6997C53.8598 89.5157 53.9816 88.5894 53.3631 88.2334L37.252 78.96C33.4685 76.72 32.1 71.84 34.354 68C36.5275 64.16 41.5185 62.88 45.3019 65.04L61.4997 74.3213C62.1177 74.6754 62.8555 74.106 62.6697 73.4184L56.4914 50.56C55.2839 46.16 57.9404 41.68 62.3679 40.48C66.7953 39.28 71.3033 41.92 72.5108 46.32L83.3723 86.6391C83.4276 86.8445 83.5625 87.0194 83.7471 87.1252L101.334 97.1998C101.661 97.3867 102.072 97.3206 102.329 97.0454C107.848 91.1216 115.022 86.7417 123.229 84.9353C123.601 84.8535 123.87 84.5264 123.87 84.1457V64.0928C123.87 63.8798 123.785 63.6756 123.633 63.5254L93.9237 34C90.7037 30.8 90.7037 25.52 93.9237 22.32C97.1437 19.12 102.457 19.12 105.677 22.32L122.506 39.0445C123.01 39.5461 123.87 39.1886 123.87 38.4771V20C123.87 15.6 127.492 12 131.919 12C136.347 12 139.969 15.6 139.969 20V38.4771C139.969 39.1886 140.829 39.5461 141.333 39.0445L158.162 22.32C161.382 19.12 166.695 19.12 169.915 22.32C173.135 25.52 173.135 30.8 169.915 34L140.206 63.5254C140.054 63.6756 139.969 63.8798 139.969 64.0928V84.1457C139.969 84.5264 140.238 84.8535 140.61 84.9353C148.814 86.7409 155.984 91.1161 161.429 96.9642C161.686 97.2399 162.098 97.306 162.425 97.1184L180.093 86.9653C180.277 86.8595 180.411 86.6848 180.467 86.4797L191.328 46.16C192.536 41.76 197.124 39.12 201.552 40.32C205.979 41.52 208.636 46.08 207.428 50.48L201.249 73.3422C201.063 74.0293 201.8 74.5986 202.418 74.2456L218.537 65.04C222.401 62.88 227.312 64.16 229.566 68C231.739 71.84 230.451 76.72 226.668 78.88L210.568 88.0745C209.947 88.429 210.067 89.3577 210.758 89.5421L233.751 95.68C238.179 96.88 240.835 101.44 239.628 105.84C238.42 110.24 233.832 112.88 229.404 111.68L188.829 100.885C188.625 100.83 188.408 100.859 188.225 100.964L170.571 111.109C170.238 111.301 170.088 111.703 170.21 112.068C171.456 115.811 172.25 119.834 172.25 124C172.25 128.171 171.454 132.127 170.205 135.935C170.086 136.299 170.236 136.698 170.568 136.889L188.225 147.036C188.408 147.141 188.625 147.17 188.829 147.115ZM156.07 124C156.07 137.255 145.257 148 131.92 148C118.582 148 107.77 137.255 107.77 124C107.77 110.745 118.582 100 131.92 100C145.257 100 156.07 110.745 156.07 124Z" fill="url(#paint7_radial_7159_2162)"/>
<path fill-rule="evenodd" clip-rule="evenodd" d="M188.829 147.115L229.404 136.32C233.832 135.12 238.501 137.52 239.708 142C240.916 146.48 238.259 150.96 233.832 152.16L210.839 158.298C210.148 158.482 210.027 159.411 210.648 159.766L226.748 168.96C230.612 171.2 231.98 176.08 229.726 179.92C227.473 183.76 222.562 185.12 218.698 182.88L202.579 173.674C201.961 173.321 201.224 173.891 201.41 174.578L207.589 197.44C208.797 201.92 206.221 206.4 201.713 207.6C197.205 208.8 192.697 206.16 191.489 201.76L180.628 161.44C180.572 161.235 180.438 161.061 180.254 160.955L162.586 150.801C162.259 150.614 161.847 150.68 161.59 150.955C156.071 156.879 148.898 161.258 140.69 163.065C140.319 163.147 140.05 163.474 140.05 163.854V183.907C140.05 184.12 140.135 184.324 140.286 184.475L169.996 214C173.216 217.2 173.216 222.48 169.996 225.68C166.776 228.88 161.463 228.88 158.243 225.68L141.414 208.955C140.909 208.454 140.05 208.811 140.05 209.523V228C140.05 232.4 136.427 236 132 236C127.573 236 123.95 232.4 123.95 228V209.603C123.95 208.891 123.091 208.534 122.586 209.035L105.757 225.76C102.537 228.96 97.2242 228.96 94.0042 225.76C90.7842 222.56 90.7842 217.28 94.0042 214.08L123.714 184.555C123.865 184.404 123.95 184.2 123.95 183.987V163.935C123.95 163.554 123.681 163.227 123.308 163.146C115.03 161.34 107.925 156.959 102.409 151.035C102.153 150.759 101.741 150.693 101.415 150.88L83.8276 160.955C83.643 161.061 83.5081 161.235 83.4528 161.441L72.5913 201.76C71.3838 206.16 66.7953 208.8 62.3679 207.6C57.9404 206.4 55.2839 201.84 56.4914 197.44L62.6683 174.587C62.8543 173.898 62.1149 173.329 61.4969 173.685L45.3824 182.96C41.5185 185.12 36.608 183.84 34.354 180C32.1 176.16 33.4685 171.28 37.252 169.2L53.3631 159.927C53.9816 159.571 53.8598 158.644 53.1704 158.46L30.168 152.32C25.7405 151.12 23.0841 146.56 24.2915 142.16C25.499 137.76 30.0875 135.12 34.515 136.32L75.0903 147.115C75.2943 147.17 75.5115 147.141 75.6946 147.036L93.3483 136.891C93.6819 136.699 93.8311 136.297 93.7095 135.932C92.4635 132.189 91.6697 128.166 91.6697 124C91.6697 119.846 92.4591 115.834 93.6992 112.234C93.8258 111.866 93.6776 111.459 93.3405 111.265L75.6946 101.124C75.5115 101.019 75.2943 100.99 75.0903 101.045L34.515 111.84C30.007 113.04 25.499 110.4 24.2915 106C23.0841 101.52 25.7405 97.04 30.168 95.84L53.1704 89.6997C53.8598 89.5157 53.9816 88.5894 53.3631 88.2334L37.252 78.96C33.4685 76.72 32.1 71.84 34.354 68C36.5275 64.16 41.5185 62.88 45.3019 65.04L61.4997 74.3213C62.1177 74.6754 62.8555 74.106 62.6697 73.4184L56.4914 50.56C55.2839 46.16 57.9404 41.68 62.3679 40.48C66.7953 39.28 71.3033 41.92 72.5108 46.32L83.3723 86.6391C83.4276 86.8445 83.5625 87.0194 83.7471 87.1252L101.334 97.1998C101.661 97.3867 102.072 97.3206 102.329 97.0454C107.848 91.1216 115.022 86.7417 123.229 84.9353C123.601 84.8535 123.87 84.5264 123.87 84.1457V64.0928C123.87 63.8798 123.785 63.6756 123.633 63.5254L93.9237 34C90.7037 30.8 90.7037 25.52 93.9237 22.32C97.1437 19.12 102.457 19.12 105.677 22.32L122.506 39.0445C123.01 39.5461 123.87 39.1886 123.87 38.4771V20C123.87 15.6 127.492 12 131.919 12C136.347 12 139.969 15.6 139.969 20V38.4771C139.969 39.1886 140.829 39.5461 141.333 39.0445L158.162 22.32C161.382 19.12 166.695 19.12 169.915 22.32C173.135 25.52 173.135 30.8 169.915 34L140.206 63.5254C140.054 63.6756 139.969 63.8798 139.969 64.0928V84.1457C139.969 84.5264 140.238 84.8535 140.61 84.9353C148.814 86.7409 155.984 91.1161 161.429 96.9642C161.686 97.2399 162.098 97.306 162.425 97.1184L180.093 86.9653C180.277 86.8595 180.411 86.6848 180.467 86.4797L191.328 46.16C192.536 41.76 197.124 39.12 201.552 40.32C205.979 41.52 208.636 46.08 207.428 50.48L201.249 73.3422C201.063 74.0293 201.8 74.5986 202.418 74.2456L218.537 65.04C222.401 62.88 227.312 64.16 229.566 68C231.739 71.84 230.451 76.72 226.668 78.88L210.568 88.0745C209.947 88.429 210.067 89.3577 210.758 89.5421L233.751 95.68C238.179 96.88 240.835 101.44 239.628 105.84C238.42 110.24 233.832 112.88 229.404 111.68L188.829 100.885C188.625 100.83 188.408 100.859 188.225 100.964L170.571 111.109C170.238 111.301 170.088 111.703 170.21 112.068C171.456 115.811 172.25 119.834 172.25 124C172.25 128.171 171.454 132.127 170.205 135.935C170.086 136.299 170.236 136.698 170.568 136.889L188.225 147.036C188.408 147.141 188.625 147.17 188.829 147.115ZM156.07 124C156.07 137.255 145.257 148 131.92 148C118.582 148 107.77 137.255 107.77 124C107.77 110.745 118.582 100 131.92 100C145.257 100 156.07 110.745 156.07 124Z" fill="url(#paint8_radial_7159_2162)"/>
<path fill-rule="evenodd" clip-rule="evenodd" d="M188.829 147.115L229.404 136.32C233.832 135.12 238.501 137.52 239.708 142C240.916 146.48 238.259 150.96 233.832 152.16L210.839 158.298C210.148 158.482 210.027 159.411 210.648 159.766L226.748 168.96C230.612 171.2 231.98 176.08 229.726 179.92C227.473 183.76 222.562 185.12 218.698 182.88L202.579 173.674C201.961 173.321 201.224 173.891 201.41 174.578L207.589 197.44C208.797 201.92 206.221 206.4 201.713 207.6C197.205 208.8 192.697 206.16 191.489 201.76L180.628 161.44C180.572 161.235 180.438 161.061 180.254 160.955L162.586 150.801C162.259 150.614 161.847 150.68 161.59 150.955C156.071 156.879 148.898 161.258 140.69 163.065C140.319 163.147 140.05 163.474 140.05 163.854V183.907C140.05 184.12 140.135 184.324 140.286 184.475L169.996 214C173.216 217.2 173.216 222.48 169.996 225.68C166.776 228.88 161.463 228.88 158.243 225.68L141.414 208.955C140.909 208.454 140.05 208.811 140.05 209.523V228C140.05 232.4 136.427 236 132 236C127.573 236 123.95 232.4 123.95 228V209.603C123.95 208.891 123.091 208.534 122.586 209.035L105.757 225.76C102.537 228.96 97.2242 228.96 94.0042 225.76C90.7842 222.56 90.7842 217.28 94.0042 214.08L123.714 184.555C123.865 184.404 123.95 184.2 123.95 183.987V163.935C123.95 163.554 123.681 163.227 123.308 163.146C115.03 161.34 107.925 156.959 102.409 151.035C102.153 150.759 101.741 150.693 101.415 150.88L83.8276 160.955C83.643 161.061 83.5081 161.235 83.4528 161.441L72.5913 201.76C71.3838 206.16 66.7953 208.8 62.3679 207.6C57.9404 206.4 55.2839 201.84 56.4914 197.44L62.6683 174.587C62.8543 173.898 62.1149 173.329 61.4969 173.685L45.3824 182.96C41.5185 185.12 36.608 183.84 34.354 180C32.1 176.16 33.4685 171.28 37.252 169.2L53.3631 159.927C53.9816 159.571 53.8598 158.644 53.1704 158.46L30.168 152.32C25.7405 151.12 23.0841 146.56 24.2915 142.16C25.499 137.76 30.0875 135.12 34.515 136.32L75.0903 147.115C75.2943 147.17 75.5115 147.141 75.6946 147.036L93.3483 136.891C93.6819 136.699 93.8311 136.297 93.7095 135.932C92.4635 132.189 91.6697 128.166 91.6697 124C91.6697 119.846 92.4591 115.834 93.6992 112.234C93.8258 111.866 93.6776 111.459 93.3405 111.265L75.6946 101.124C75.5115 101.019 75.2943 100.99 75.0903 101.045L34.515 111.84C30.007 113.04 25.499 110.4 24.2915 106C23.0841 101.52 25.7405 97.04 30.168 95.84L53.1704 89.6997C53.8598 89.5157 53.9816 88.5894 53.3631 88.2334L37.252 78.96C33.4685 76.72 32.1 71.84 34.354 68C36.5275 64.16 41.5185 62.88 45.3019 65.04L61.4997 74.3213C62.1177 74.6754 62.8555 74.106 62.6697 73.4184L56.4914 50.56C55.2839 46.16 57.9404 41.68 62.3679 40.48C66.7953 39.28 71.3033 41.92 72.5108 46.32L83.3723 86.6391C83.4276 86.8445 83.5625 87.0194 83.7471 87.1252L101.334 97.1998C101.661 97.3867 102.072 97.3206 102.329 97.0454C107.848 91.1216 115.022 86.7417 123.229 84.9353C123.601 84.8535 123.87 84.5264 123.87 84.1457V64.0928C123.87 63.8798 123.785 63.6756 123.633 63.5254L93.9237 34C90.7037 30.8 90.7037 25.52 93.9237 22.32C97.1437 19.12 102.457 19.12 105.677 22.32L122.506 39.0445C123.01 39.5461 123.87 39.1886 123.87 38.4771V20C123.87 15.6 127.492 12 131.919 12C136.347 12 139.969 15.6 139.969 20V38.4771C139.969 39.1886 140.829 39.5461 141.333 39.0445L158.162 22.32C161.382 19.12 166.695 19.12 169.915 22.32C173.135 25.52 173.135 30.8 169.915 34L140.206 63.5254C140.054 63.6756 139.969 63.8798 139.969 64.0928V84.1457C139.969 84.5264 140.238 84.8535 140.61 84.9353C148.814 86.7409 155.984 91.1161 161.429 96.9642C161.686 97.2399 162.098 97.306 162.425 97.1184L180.093 86.9653C180.277 86.8595 180.411 86.6848 180.467 86.4797L191.328 46.16C192.536 41.76 197.124 39.12 201.552 40.32C205.979 41.52 208.636 46.08 207.428 50.48L201.249 73.3422C201.063 74.0293 201.8 74.5986 202.418 74.2456L218.537 65.04C222.401 62.88 227.312 64.16 229.566 68C231.739 71.84 230.451 76.72 226.668 78.88L210.568 88.0745C209.947 88.429 210.067 89.3577 210.758 89.5421L233.751 95.68C238.179 96.88 240.835 101.44 239.628 105.84C238.42 110.24 233.832 112.88 229.404 111.68L188.829 100.885C188.625 100.83 188.408 100.859 188.225 100.964L170.571 111.109C170.238 111.301 170.088 111.703 170.21 112.068C171.456 115.811 172.25 119.834 172.25 124C172.25 128.171 171.454 132.127 170.205 135.935C170.086 136.299 170.236 136.698 170.568 136.889L188.225 147.036C188.408 147.141 188.625 147.17 188.829 147.115ZM156.07 124C156.07 137.255 145.257 148 131.92 148C118.582 148 107.77 137.255 107.77 124C107.77 110.745 118.582 100 131.92 100C145.257 100 156.07 110.745 156.07 124Z" fill="url(#paint9_radial_7159_2162)"/>
<path fill-rule="evenodd" clip-rule="evenodd" d="M188.829 147.115L229.404 136.32C233.832 135.12 238.501 137.52 239.708 142C240.916 146.48 238.259 150.96 233.832 152.16L210.839 158.298C210.148 158.482 210.027 159.411 210.648 159.766L226.748 168.96C230.612 171.2 231.98 176.08 229.726 179.92C227.473 183.76 222.562 185.12 218.698 182.88L202.579 173.674C201.961 173.321 201.224 173.891 201.41 174.578L207.589 197.44C208.797 201.92 206.221 206.4 201.713 207.6C197.205 208.8 192.697 206.16 191.489 201.76L180.628 161.44C180.572 161.235 180.438 161.061 180.254 160.955L162.586 150.801C162.259 150.614 161.847 150.68 161.59 150.955C156.071 156.879 148.898 161.258 140.69 163.065C140.319 163.147 140.05 163.474 140.05 163.854V183.907C140.05 184.12 140.135 184.324 140.286 184.475L169.996 214C173.216 217.2 173.216 222.48 169.996 225.68C166.776 228.88 161.463 228.88 158.243 225.68L141.414 208.955C140.909 208.454 140.05 208.811 140.05 209.523V228C140.05 232.4 136.427 236 132 236C127.573 236 123.95 232.4 123.95 228V209.603C123.95 208.891 123.091 208.534 122.586 209.035L105.757 225.76C102.537 228.96 97.2242 228.96 94.0042 225.76C90.7842 222.56 90.7842 217.28 94.0042 214.08L123.714 184.555C123.865 184.404 123.95 184.2 123.95 183.987V163.935C123.95 163.554 123.681 163.227 123.308 163.146C115.03 161.34 107.925 156.959 102.409 151.035C102.153 150.759 101.741 150.693 101.415 150.88L83.8276 160.955C83.643 161.061 83.5081 161.235 83.4528 161.441L72.5913 201.76C71.3838 206.16 66.7953 208.8 62.3679 207.6C57.9404 206.4 55.2839 201.84 56.4914 197.44L62.6683 174.587C62.8543 173.898 62.1149 173.329 61.4969 173.685L45.3824 182.96C41.5185 185.12 36.608 183.84 34.354 180C32.1 176.16 33.4685 171.28 37.252 169.2L53.3631 159.927C53.9816 159.571 53.8598 158.644 53.1704 158.46L30.168 152.32C25.7405 151.12 23.0841 146.56 24.2915 142.16C25.499 137.76 30.0875 135.12 34.515 136.32L75.0903 147.115C75.2943 147.17 75.5115 147.141 75.6946 147.036L93.3483 136.891C93.6819 136.699 93.8311 136.297 93.7095 135.932C92.4635 132.189 91.6697 128.166 91.6697 124C91.6697 119.846 92.4591 115.834 93.6992 112.234C93.8258 111.866 93.6776 111.459 93.3405 111.265L75.6946 101.124C75.5115 101.019 75.2943 100.99 75.0903 101.045L34.515 111.84C30.007 113.04 25.499 110.4 24.2915 106C23.0841 101.52 25.7405 97.04 30.168 95.84L53.1704 89.6997C53.8598 89.5157 53.9816 88.5894 53.3631 88.2334L37.252 78.96C33.4685 76.72 32.1 71.84 34.354 68C36.5275 64.16 41.5185 62.88 45.3019 65.04L61.4997 74.3213C62.1177 74.6754 62.8555 74.106 62.6697 73.4184L56.4914 50.56C55.2839 46.16 57.9404 41.68 62.3679 40.48C66.7953 39.28 71.3033 41.92 72.5108 46.32L83.3723 86.6391C83.4276 86.8445 83.5625 87.0194 83.7471 87.1252L101.334 97.1998C101.661 97.3867 102.072 97.3206 102.329 97.0454C107.848 91.1216 115.022 86.7417 123.229 84.9353C123.601 84.8535 123.87 84.5264 123.87 84.1457V64.0928C123.87 63.8798 123.785 63.6756 123.633 63.5254L93.9237 34C90.7037 30.8 90.7037 25.52 93.9237 22.32C97.1437 19.12 102.457 19.12 105.677 22.32L122.506 39.0445C123.01 39.5461 123.87 39.1886 123.87 38.4771V20C123.87 15.6 127.492 12 131.919 12C136.347 12 139.969 15.6 139.969 20V38.4771C139.969 39.1886 140.829 39.5461 141.333 39.0445L158.162 22.32C161.382 19.12 166.695 19.12 169.915 22.32C173.135 25.52 173.135 30.8 169.915 34L140.206 63.5254C140.054 63.6756 139.969 63.8798 139.969 64.0928V84.1457C139.969 84.5264 140.238 84.8535 140.61 84.9353C148.814 86.7409 155.984 91.1161 161.429 96.9642C161.686 97.2399 162.098 97.306 162.425 97.1184L180.093 86.9653C180.277 86.8595 180.411 86.6848 180.467 86.4797L191.328 46.16C192.536 41.76 197.124 39.12 201.552 40.32C205.979 41.52 208.636 46.08 207.428 50.48L201.249 73.3422C201.063 74.0293 201.8 74.5986 202.418 74.2456L218.537 65.04C222.401 62.88 227.312 64.16 229.566 68C231.739 71.84 230.451 76.72 226.668 78.88L210.568 88.0745C209.947 88.429 210.067 89.3577 210.758 89.5421L233.751 95.68C238.179 96.88 240.835 101.44 239.628 105.84C238.42 110.24 233.832 112.88 229.404 111.68L188.829 100.885C188.625 100.83 188.408 100.859 188.225 100.964L170.571 111.109C170.238 111.301 170.088 111.703 170.21 112.068C171.456 115.811 172.25 119.834 172.25 124C172.25 128.171 171.454 132.127 170.205 135.935C170.086 136.299 170.236 136.698 170.568 136.889L188.225 147.036C188.408 147.141 188.625 147.17 188.829 147.115ZM156.07 124C156.07 137.255 145.257 148 131.92 148C118.582 148 107.77 137.255 107.77 124C107.77 110.745 118.582 100 131.92 100C145.257 100 156.07 110.745 156.07 124Z" fill="url(#paint10_radial_7159_2162)"/>
<path fill-rule="evenodd" clip-rule="evenodd" d="M188.829 147.115L229.404 136.32C233.832 135.12 238.501 137.52 239.708 142C240.916 146.48 238.259 150.96 233.832 152.16L210.839 158.298C210.148 158.482 210.027 159.411 210.648 159.766L226.748 168.96C230.612 171.2 231.98 176.08 229.726 179.92C227.473 183.76 222.562 185.12 218.698 182.88L202.579 173.674C201.961 173.321 201.224 173.891 201.41 174.578L207.589 197.44C208.797 201.92 206.221 206.4 201.713 207.6C197.205 208.8 192.697 206.16 191.489 201.76L180.628 161.44C180.572 161.235 180.438 161.061 180.254 160.955L162.586 150.801C162.259 150.614 161.847 150.68 161.59 150.955C156.071 156.879 148.898 161.258 140.69 163.065C140.319 163.147 140.05 163.474 140.05 163.854V183.907C140.05 184.12 140.135 184.324 140.286 184.475L169.996 214C173.216 217.2 173.216 222.48 169.996 225.68C166.776 228.88 161.463 228.88 158.243 225.68L141.414 208.955C140.909 208.454 140.05 208.811 140.05 209.523V228C140.05 232.4 136.427 236 132 236C127.573 236 123.95 232.4 123.95 228V209.603C123.95 208.891 123.091 208.534 122.586 209.035L105.757 225.76C102.537 228.96 97.2242 228.96 94.0042 225.76C90.7842 222.56 90.7842 217.28 94.0042 214.08L123.714 184.555C123.865 184.404 123.95 184.2 123.95 183.987V163.935C123.95 163.554 123.681 163.227 123.308 163.146C115.03 161.34 107.925 156.959 102.409 151.035C102.153 150.759 101.741 150.693 101.415 150.88L83.8276 160.955C83.643 161.061 83.5081 161.235 83.4528 161.441L72.5913 201.76C71.3838 206.16 66.7953 208.8 62.3679 207.6C57.9404 206.4 55.2839 201.84 56.4914 197.44L62.6683 174.587C62.8543 173.898 62.1149 173.329 61.4969 173.685L45.3824 182.96C41.5185 185.12 36.608 183.84 34.354 180C32.1 176.16 33.4685 171.28 37.252 169.2L53.3631 159.927C53.9816 159.571 53.8598 158.644 53.1704 158.46L30.168 152.32C25.7405 151.12 23.0841 146.56 24.2915 142.16C25.499 137.76 30.0875 135.12 34.515 136.32L75.0903 147.115C75.2943 147.17 75.5115 147.141 75.6946 147.036L93.3483 136.891C93.6819 136.699 93.8311 136.297 93.7095 135.932C92.4635 132.189 91.6697 128.166 91.6697 124C91.6697 119.846 92.4591 115.834 93.6992 112.234C93.8258 111.866 93.6776 111.459 93.3405 111.265L75.6946 101.124C75.5115 101.019 75.2943 100.99 75.0903 101.045L34.515 111.84C30.007 113.04 25.499 110.4 24.2915 106C23.0841 101.52 25.7405 97.04 30.168 95.84L53.1704 89.6997C53.8598 89.5157 53.9816 88.5894 53.3631 88.2334L37.252 78.96C33.4685 76.72 32.1 71.84 34.354 68C36.5275 64.16 41.5185 62.88 45.3019 65.04L61.4997 74.3213C62.1177 74.6754 62.8555 74.106 62.6697 73.4184L56.4914 50.56C55.2839 46.16 57.9404 41.68 62.3679 40.48C66.7953 39.28 71.3033 41.92 72.5108 46.32L83.3723 86.6391C83.4276 86.8445 83.5625 87.0194 83.7471 87.1252L101.334 97.1998C101.661 97.3867 102.072 97.3206 102.329 97.0454C107.848 91.1216 115.022 86.7417 123.229 84.9353C123.601 84.8535 123.87 84.5264 123.87 84.1457V64.0928C123.87 63.8798 123.785 63.6756 123.633 63.5254L93.9237 34C90.7037 30.8 90.7037 25.52 93.9237 22.32C97.1437 19.12 102.457 19.12 105.677 22.32L122.506 39.0445C123.01 39.5461 123.87 39.1886 123.87 38.4771V20C123.87 15.6 127.492 12 131.919 12C136.347 12 139.969 15.6 139.969 20V38.4771C139.969 39.1886 140.829 39.5461 141.333 39.0445L158.162 22.32C161.382 19.12 166.695 19.12 169.915 22.32C173.135 25.52 173.135 30.8 169.915 34L140.206 63.5254C140.054 63.6756 139.969 63.8798 139.969 64.0928V84.1457C139.969 84.5264 140.238 84.8535 140.61 84.9353C148.814 86.7409 155.984 91.1161 161.429 96.9642C161.686 97.2399 162.098 97.306 162.425 97.1184L180.093 86.9653C180.277 86.8595 180.411 86.6848 180.467 86.4797L191.328 46.16C192.536 41.76 197.124 39.12 201.552 40.32C205.979 41.52 208.636 46.08 207.428 50.48L201.249 73.3422C201.063 74.0293 201.8 74.5986 202.418 74.2456L218.537 65.04C222.401 62.88 227.312 64.16 229.566 68C231.739 71.84 230.451 76.72 226.668 78.88L210.568 88.0745C209.947 88.429 210.067 89.3577 210.758 89.5421L233.751 95.68C238.179 96.88 240.835 101.44 239.628 105.84C238.42 110.24 233.832 112.88 229.404 111.68L188.829 100.885C188.625 100.83 188.408 100.859 188.225 100.964L170.571 111.109C170.238 111.301 170.088 111.703 170.21 112.068C171.456 115.811 172.25 119.834 172.25 124C172.25 128.171 171.454 132.127 170.205 135.935C170.086 136.299 170.236 136.698 170.568 136.889L188.225 147.036C188.408 147.141 188.625 147.17 188.829 147.115ZM156.07 124C156.07 137.255 145.257 148 131.92 148C118.582 148 107.77 137.255 107.77 124C107.77 110.745 118.582 100 131.92 100C145.257 100 156.07 110.745 156.07 124Z" fill="url(#paint11_radial_7159_2162)"/>
<path fill-rule="evenodd" clip-rule="evenodd" d="M188.829 147.115L229.404 136.32C233.832 135.12 238.501 137.52 239.708 142C240.916 146.48 238.259 150.96 233.832 152.16L210.839 158.298C210.148 158.482 210.027 159.411 210.648 159.766L226.748 168.96C230.612 171.2 231.98 176.08 229.726 179.92C227.473 183.76 222.562 185.12 218.698 182.88L202.579 173.674C201.961 173.321 201.224 173.891 201.41 174.578L207.589 197.44C208.797 201.92 206.221 206.4 201.713 207.6C197.205 208.8 192.697 206.16 191.489 201.76L180.628 161.44C180.572 161.235 180.438 161.061 180.254 160.955L162.586 150.801C162.259 150.614 161.847 150.68 161.59 150.955C156.071 156.879 148.898 161.258 140.69 163.065C140.319 163.147 140.05 163.474 140.05 163.854V183.907C140.05 184.12 140.135 184.324 140.286 184.475L169.996 214C173.216 217.2 173.216 222.48 169.996 225.68C166.776 228.88 161.463 228.88 158.243 225.68L141.414 208.955C140.909 208.454 140.05 208.811 140.05 209.523V228C140.05 232.4 136.427 236 132 236C127.573 236 123.95 232.4 123.95 228V209.603C123.95 208.891 123.091 208.534 122.586 209.035L105.757 225.76C102.537 228.96 97.2242 228.96 94.0042 225.76C90.7842 222.56 90.7842 217.28 94.0042 214.08L123.714 184.555C123.865 184.404 123.95 184.2 123.95 183.987V163.935C123.95 163.554 123.681 163.227 123.308 163.146C115.03 161.34 107.925 156.959 102.409 151.035C102.153 150.759 101.741 150.693 101.415 150.88L83.8276 160.955C83.643 161.061 83.5081 161.235 83.4528 161.441L72.5913 201.76C71.3838 206.16 66.7953 208.8 62.3679 207.6C57.9404 206.4 55.2839 201.84 56.4914 197.44L62.6683 174.587C62.8543 173.898 62.1149 173.329 61.4969 173.685L45.3824 182.96C41.5185 185.12 36.608 183.84 34.354 180C32.1 176.16 33.4685 171.28 37.252 169.2L53.3631 159.927C53.9816 159.571 53.8598 158.644 53.1704 158.46L30.168 152.32C25.7405 151.12 23.0841 146.56 24.2915 142.16C25.499 137.76 30.0875 135.12 34.515 136.32L75.0903 147.115C75.2943 147.17 75.5115 147.141 75.6946 147.036L93.3483 136.891C93.6819 136.699 93.8311 136.297 93.7095 135.932C92.4635 132.189 91.6697 128.166 91.6697 124C91.6697 119.846 92.4591 115.834 93.6992 112.234C93.8258 111.866 93.6776 111.459 93.3405 111.265L75.6946 101.124C75.5115 101.019 75.2943 100.99 75.0903 101.045L34.515 111.84C30.007 113.04 25.499 110.4 24.2915 106C23.0841 101.52 25.7405 97.04 30.168 95.84L53.1704 89.6997C53.8598 89.5157 53.9816 88.5894 53.3631 88.2334L37.252 78.96C33.4685 76.72 32.1 71.84 34.354 68C36.5275 64.16 41.5185 62.88 45.3019 65.04L61.4997 74.3213C62.1177 74.6754 62.8555 74.106 62.6697 73.4184L56.4914 50.56C55.2839 46.16 57.9404 41.68 62.3679 40.48C66.7953 39.28 71.3033 41.92 72.5108 46.32L83.3723 86.6391C83.4276 86.8445 83.5625 87.0194 83.7471 87.1252L101.334 97.1998C101.661 97.3867 102.072 97.3206 102.329 97.0454C107.848 91.1216 115.022 86.7417 123.229 84.9353C123.601 84.8535 123.87 84.5264 123.87 84.1457V64.0928C123.87 63.8798 123.785 63.6756 123.633 63.5254L93.9237 34C90.7037 30.8 90.7037 25.52 93.9237 22.32C97.1437 19.12 102.457 19.12 105.677 22.32L122.506 39.0445C123.01 39.5461 123.87 39.1886 123.87 38.4771V20C123.87 15.6 127.492 12 131.919 12C136.347 12 139.969 15.6 139.969 20V38.4771C139.969 39.1886 140.829 39.5461 141.333 39.0445L158.162 22.32C161.382 19.12 166.695 19.12 169.915 22.32C173.135 25.52 173.135 30.8 169.915 34L140.206 63.5254C140.054 63.6756 139.969 63.8798 139.969 64.0928V84.1457C139.969 84.5264 140.238 84.8535 140.61 84.9353C148.814 86.7409 155.984 91.1161 161.429 96.9642C161.686 97.2399 162.098 97.306 162.425 97.1184L180.093 86.9653C180.277 86.8595 180.411 86.6848 180.467 86.4797L191.328 46.16C192.536 41.76 197.124 39.12 201.552 40.32C205.979 41.52 208.636 46.08 207.428 50.48L201.249 73.3422C201.063 74.0293 201.8 74.5986 202.418 74.2456L218.537 65.04C222.401 62.88 227.312 64.16 229.566 68C231.739 71.84 230.451 76.72 226.668 78.88L210.568 88.0745C209.947 88.429 210.067 89.3577 210.758 89.5421L233.751 95.68C238.179 96.88 240.835 101.44 239.628 105.84C238.42 110.24 233.832 112.88 229.404 111.68L188.829 100.885C188.625 100.83 188.408 100.859 188.225 100.964L170.571 111.109C170.238 111.301 170.088 111.703 170.21 112.068C171.456 115.811 172.25 119.834 172.25 124C172.25 128.171 171.454 132.127 170.205 135.935C170.086 136.299 170.236 136.698 170.568 136.889L188.225 147.036C188.408 147.141 188.625 147.17 188.829 147.115ZM156.07 124C156.07 137.255 145.257 148 131.92 148C118.582 148 107.77 137.255 107.77 124C107.77 110.745 118.582 100 131.92 100C145.257 100 156.07 110.745 156.07 124Z" fill="url(#paint12_radial_7159_2162)"/>
<path fill-rule="evenodd" clip-rule="evenodd" d="M188.829 147.115L229.404 136.32C233.832 135.12 238.501 137.52 239.708 142C240.916 146.48 238.259 150.96 233.832 152.16L210.839 158.298C210.148 158.482 210.027 159.411 210.648 159.766L226.748 168.96C230.612 171.2 231.98 176.08 229.726 179.92C227.473 183.76 222.562 185.12 218.698 182.88L202.579 173.674C201.961 173.321 201.224 173.891 201.41 174.578L207.589 197.44C208.797 201.92 206.221 206.4 201.713 207.6C197.205 208.8 192.697 206.16 191.489 201.76L180.628 161.44C180.572 161.235 180.438 161.061 180.254 160.955L162.586 150.801C162.259 150.614 161.847 150.68 161.59 150.955C156.071 156.879 148.898 161.258 140.69 163.065C140.319 163.147 140.05 163.474 140.05 163.854V183.907C140.05 184.12 140.135 184.324 140.286 184.475L169.996 214C173.216 217.2 173.216 222.48 169.996 225.68C166.776 228.88 161.463 228.88 158.243 225.68L141.414 208.955C140.909 208.454 140.05 208.811 140.05 209.523V228C140.05 232.4 136.427 236 132 236C127.573 236 123.95 232.4 123.95 228V209.603C123.95 208.891 123.091 208.534 122.586 209.035L105.757 225.76C102.537 228.96 97.2242 228.96 94.0042 225.76C90.7842 222.56 90.7842 217.28 94.0042 214.08L123.714 184.555C123.865 184.404 123.95 184.2 123.95 183.987V163.935C123.95 163.554 123.681 163.227 123.308 163.146C115.03 161.34 107.925 156.959 102.409 151.035C102.153 150.759 101.741 150.693 101.415 150.88L83.8276 160.955C83.643 161.061 83.5081 161.235 83.4528 161.441L72.5913 201.76C71.3838 206.16 66.7953 208.8 62.3679 207.6C57.9404 206.4 55.2839 201.84 56.4914 197.44L62.6683 174.587C62.8543 173.898 62.1149 173.329 61.4969 173.685L45.3824 182.96C41.5185 185.12 36.608 183.84 34.354 180C32.1 176.16 33.4685 171.28 37.252 169.2L53.3631 159.927C53.9816 159.571 53.8598 158.644 53.1704 158.46L30.168 152.32C25.7405 151.12 23.0841 146.56 24.2915 142.16C25.499 137.76 30.0875 135.12 34.515 136.32L75.0903 147.115C75.2943 147.17 75.5115 147.141 75.6946 147.036L93.3483 136.891C93.6819 136.699 93.8311 136.297 93.7095 135.932C92.4635 132.189 91.6697 128.166 91.6697 124C91.6697 119.846 92.4591 115.834 93.6992 112.234C93.8258 111.866 93.6776 111.459 93.3405 111.265L75.6946 101.124C75.5115 101.019 75.2943 100.99 75.0903 101.045L34.515 111.84C30.007 113.04 25.499 110.4 24.2915 106C23.0841 101.52 25.7405 97.04 30.168 95.84L53.1704 89.6997C53.8598 89.5157 53.9816 88.5894 53.3631 88.2334L37.252 78.96C33.4685 76.72 32.1 71.84 34.354 68C36.5275 64.16 41.5185 62.88 45.3019 65.04L61.4997 74.3213C62.1177 74.6754 62.8555 74.106 62.6697 73.4184L56.4914 50.56C55.2839 46.16 57.9404 41.68 62.3679 40.48C66.7953 39.28 71.3033 41.92 72.5108 46.32L83.3723 86.6391C83.4276 86.8445 83.5625 87.0194 83.7471 87.1252L101.334 97.1998C101.661 97.3867 102.072 97.3206 102.329 97.0454C107.848 91.1216 115.022 86.7417 123.229 84.9353C123.601 84.8535 123.87 84.5264 123.87 84.1457V64.0928C123.87 63.8798 123.785 63.6756 123.633 63.5254L93.9237 34C90.7037 30.8 90.7037 25.52 93.9237 22.32C97.1437 19.12 102.457 19.12 105.677 22.32L122.506 39.0445C123.01 39.5461 123.87 39.1886 123.87 38.4771V20C123.87 15.6 127.492 12 131.919 12C136.347 12 139.969 15.6 139.969 20V38.4771C139.969 39.1886 140.829 39.5461 141.333 39.0445L158.162 22.32C161.382 19.12 166.695 19.12 169.915 22.32C173.135 25.52 173.135 30.8 169.915 34L140.206 63.5254C140.054 63.6756 139.969 63.8798 139.969 64.0928V84.1457C139.969 84.5264 140.238 84.8535 140.61 84.9353C148.814 86.7409 155.984 91.1161 161.429 96.9642C161.686 97.2399 162.098 97.306 162.425 97.1184L180.093 86.9653C180.277 86.8595 180.411 86.6848 180.467 86.4797L191.328 46.16C192.536 41.76 197.124 39.12 201.552 40.32C205.979 41.52 208.636 46.08 207.428 50.48L201.249 73.3422C201.063 74.0293 201.8 74.5986 202.418 74.2456L218.537 65.04C222.401 62.88 227.312 64.16 229.566 68C231.739 71.84 230.451 76.72 226.668 78.88L210.568 88.0745C209.947 88.429 210.067 89.3577 210.758 89.5421L233.751 95.68C238.179 96.88 240.835 101.44 239.628 105.84C238.42 110.24 233.832 112.88 229.404 111.68L188.829 100.885C188.625 100.83 188.408 100.859 188.225 100.964L170.571 111.109C170.238 111.301 170.088 111.703 170.21 112.068C171.456 115.811 172.25 119.834 172.25 124C172.25 128.171 171.454 132.127 170.205 135.935C170.086 136.299 170.236 136.698 170.568 136.889L188.225 147.036C188.408 147.141 188.625 147.17 188.829 147.115ZM156.07 124C156.07 137.255 145.257 148 131.92 148C118.582 148 107.77 137.255 107.77 124C107.77 110.745 118.582 100 131.92 100C145.257 100 156.07 110.745 156.07 124Z" fill="url(#paint13_radial_7159_2162)"/>
<path fill-rule="evenodd" clip-rule="evenodd" d="M188.829 147.115L229.404 136.32C233.832 135.12 238.501 137.52 239.708 142C240.916 146.48 238.259 150.96 233.832 152.16L210.839 158.298C210.148 158.482 210.027 159.411 210.648 159.766L226.748 168.96C230.612 171.2 231.98 176.08 229.726 179.92C227.473 183.76 222.562 185.12 218.698 182.88L202.579 173.674C201.961 173.321 201.224 173.891 201.41 174.578L207.589 197.44C208.797 201.92 206.221 206.4 201.713 207.6C197.205 208.8 192.697 206.16 191.489 201.76L180.628 161.44C180.572 161.235 180.438 161.061 180.254 160.955L162.586 150.801C162.259 150.614 161.847 150.68 161.59 150.955C156.071 156.879 148.898 161.258 140.69 163.065C140.319 163.147 140.05 163.474 140.05 163.854V183.907C140.05 184.12 140.135 184.324 140.286 184.475L169.996 214C173.216 217.2 173.216 222.48 169.996 225.68C166.776 228.88 161.463 228.88 158.243 225.68L141.414 208.955C140.909 208.454 140.05 208.811 140.05 209.523V228C140.05 232.4 136.427 236 132 236C127.573 236 123.95 232.4 123.95 228V209.603C123.95 208.891 123.091 208.534 122.586 209.035L105.757 225.76C102.537 228.96 97.2242 228.96 94.0042 225.76C90.7842 222.56 90.7842 217.28 94.0042 214.08L123.714 184.555C123.865 184.404 123.95 184.2 123.95 183.987V163.935C123.95 163.554 123.681 163.227 123.308 163.146C115.03 161.34 107.925 156.959 102.409 151.035C102.153 150.759 101.741 150.693 101.415 150.88L83.8276 160.955C83.643 161.061 83.5081 161.235 83.4528 161.441L72.5913 201.76C71.3838 206.16 66.7953 208.8 62.3679 207.6C57.9404 206.4 55.2839 201.84 56.4914 197.44L62.6683 174.587C62.8543 173.898 62.1149 173.329 61.4969 173.685L45.3824 182.96C41.5185 185.12 36.608 183.84 34.354 180C32.1 176.16 33.4685 171.28 37.252 169.2L53.3631 159.927C53.9816 159.571 53.8598 158.644 53.1704 158.46L30.168 152.32C25.7405 151.12 23.0841 146.56 24.2915 142.16C25.499 137.76 30.0875 135.12 34.515 136.32L75.0903 147.115C75.2943 147.17 75.5115 147.141 75.6946 147.036L93.3483 136.891C93.6819 136.699 93.8311 136.297 93.7095 135.932C92.4635 132.189 91.6697 128.166 91.6697 124C91.6697 119.846 92.4591 115.834 93.6992 112.234C93.8258 111.866 93.6776 111.459 93.3405 111.265L75.6946 101.124C75.5115 101.019 75.2943 100.99 75.0903 101.045L34.515 111.84C30.007 113.04 25.499 110.4 24.2915 106C23.0841 101.52 25.7405 97.04 30.168 95.84L53.1704 89.6997C53.8598 89.5157 53.9816 88.5894 53.3631 88.2334L37.252 78.96C33.4685 76.72 32.1 71.84 34.354 68C36.5275 64.16 41.5185 62.88 45.3019 65.04L61.4997 74.3213C62.1177 74.6754 62.8555 74.106 62.6697 73.4184L56.4914 50.56C55.2839 46.16 57.9404 41.68 62.3679 40.48C66.7953 39.28 71.3033 41.92 72.5108 46.32L83.3723 86.6391C83.4276 86.8445 83.5625 87.0194 83.7471 87.1252L101.334 97.1998C101.661 97.3867 102.072 97.3206 102.329 97.0454C107.848 91.1216 115.022 86.7417 123.229 84.9353C123.601 84.8535 123.87 84.5264 123.87 84.1457V64.0928C123.87 63.8798 123.785 63.6756 123.633 63.5254L93.9237 34C90.7037 30.8 90.7037 25.52 93.9237 22.32C97.1437 19.12 102.457 19.12 105.677 22.32L122.506 39.0445C123.01 39.5461 123.87 39.1886 123.87 38.4771V20C123.87 15.6 127.492 12 131.919 12C136.347 12 139.969 15.6 139.969 20V38.4771C139.969 39.1886 140.829 39.5461 141.333 39.0445L158.162 22.32C161.382 19.12 166.695 19.12 169.915 22.32C173.135 25.52 173.135 30.8 169.915 34L140.206 63.5254C140.054 63.6756 139.969 63.8798 139.969 64.0928V84.1457C139.969 84.5264 140.238 84.8535 140.61 84.9353C148.814 86.7409 155.984 91.1161 161.429 96.9642C161.686 97.2399 162.098 97.306 162.425 97.1184L180.093 86.9653C180.277 86.8595 180.411 86.6848 180.467 86.4797L191.328 46.16C192.536 41.76 197.124 39.12 201.552 40.32C205.979 41.52 208.636 46.08 207.428 50.48L201.249 73.3422C201.063 74.0293 201.8 74.5986 202.418 74.2456L218.537 65.04C222.401 62.88 227.312 64.16 229.566 68C231.739 71.84 230.451 76.72 226.668 78.88L210.568 88.0745C209.947 88.429 210.067 89.3577 210.758 89.5421L233.751 95.68C238.179 96.88 240.835 101.44 239.628 105.84C238.42 110.24 233.832 112.88 229.404 111.68L188.829 100.885C188.625 100.83 188.408 100.859 188.225 100.964L170.571 111.109C170.238 111.301 170.088 111.703 170.21 112.068C171.456 115.811 172.25 119.834 172.25 124C172.25 128.171 171.454 132.127 170.205 135.935C170.086 136.299 170.236 136.698 170.568 136.889L188.225 147.036C188.408 147.141 188.625 147.17 188.829 147.115ZM156.07 124C156.07 137.255 145.257 148 131.92 148C118.582 148 107.77 137.255 107.77 124C107.77 110.745 118.582 100 131.92 100C145.257 100 156.07 110.745 156.07 124Z" fill="url(#paint14_radial_7159_2162)" fill-opacity="0.8"/>
<path fill-rule="evenodd" clip-rule="evenodd" d="M188.829 147.115L229.404 136.32C233.832 135.12 238.501 137.52 239.708 142C240.916 146.48 238.259 150.96 233.832 152.16L210.839 158.298C210.148 158.482 210.027 159.411 210.648 159.766L226.748 168.96C230.612 171.2 231.98 176.08 229.726 179.92C227.473 183.76 222.562 185.12 218.698 182.88L202.579 173.674C201.961 173.321 201.224 173.891 201.41 174.578L207.589 197.44C208.797 201.92 206.221 206.4 201.713 207.6C197.205 208.8 192.697 206.16 191.489 201.76L180.628 161.44C180.572 161.235 180.438 161.061 180.254 160.955L162.586 150.801C162.259 150.614 161.847 150.68 161.59 150.955C156.071 156.879 148.898 161.258 140.69 163.065C140.319 163.147 140.05 163.474 140.05 163.854V183.907C140.05 184.12 140.135 184.324 140.286 184.475L169.996 214C173.216 217.2 173.216 222.48 169.996 225.68C166.776 228.88 161.463 228.88 158.243 225.68L141.414 208.955C140.909 208.454 140.05 208.811 140.05 209.523V228C140.05 232.4 136.427 236 132 236C127.573 236 123.95 232.4 123.95 228V209.603C123.95 208.891 123.091 208.534 122.586 209.035L105.757 225.76C102.537 228.96 97.2242 228.96 94.0042 225.76C90.7842 222.56 90.7842 217.28 94.0042 214.08L123.714 184.555C123.865 184.404 123.95 184.2 123.95 183.987V163.935C123.95 163.554 123.681 163.227 123.308 163.146C115.03 161.34 107.925 156.959 102.409 151.035C102.153 150.759 101.741 150.693 101.415 150.88L83.8276 160.955C83.643 161.061 83.5081 161.235 83.4528 161.441L72.5913 201.76C71.3838 206.16 66.7953 208.8 62.3679 207.6C57.9404 206.4 55.2839 201.84 56.4914 197.44L62.6683 174.587C62.8543 173.898 62.1149 173.329 61.4969 173.685L45.3824 182.96C41.5185 185.12 36.608 183.84 34.354 180C32.1 176.16 33.4685 171.28 37.252 169.2L53.3631 159.927C53.9816 159.571 53.8598 158.644 53.1704 158.46L30.168 152.32C25.7405 151.12 23.0841 146.56 24.2915 142.16C25.499 137.76 30.0875 135.12 34.515 136.32L75.0903 147.115C75.2943 147.17 75.5115 147.141 75.6946 147.036L93.3483 136.891C93.6819 136.699 93.8311 136.297 93.7095 135.932C92.4635 132.189 91.6697 128.166 91.6697 124C91.6697 119.846 92.4591 115.834 93.6992 112.234C93.8258 111.866 93.6776 111.459 93.3405 111.265L75.6946 101.124C75.5115 101.019 75.2943 100.99 75.0903 101.045L34.515 111.84C30.007 113.04 25.499 110.4 24.2915 106C23.0841 101.52 25.7405 97.04 30.168 95.84L53.1704 89.6997C53.8598 89.5157 53.9816 88.5894 53.3631 88.2334L37.252 78.96C33.4685 76.72 32.1 71.84 34.354 68C36.5275 64.16 41.5185 62.88 45.3019 65.04L61.4997 74.3213C62.1177 74.6754 62.8555 74.106 62.6697 73.4184L56.4914 50.56C55.2839 46.16 57.9404 41.68 62.3679 40.48C66.7953 39.28 71.3033 41.92 72.5108 46.32L83.3723 86.6391C83.4276 86.8445 83.5625 87.0194 83.7471 87.1252L101.334 97.1998C101.661 97.3867 102.072 97.3206 102.329 97.0454C107.848 91.1216 115.022 86.7417 123.229 84.9353C123.601 84.8535 123.87 84.5264 123.87 84.1457V64.0928C123.87 63.8798 123.785 63.6756 123.633 63.5254L93.9237 34C90.7037 30.8 90.7037 25.52 93.9237 22.32C97.1437 19.12 102.457 19.12 105.677 22.32L122.506 39.0445C123.01 39.5461 123.87 39.1886 123.87 38.4771V20C123.87 15.6 127.492 12 131.919 12C136.347 12 139.969 15.6 139.969 20V38.4771C139.969 39.1886 140.829 39.5461 141.333 39.0445L158.162 22.32C161.382 19.12 166.695 19.12 169.915 22.32C173.135 25.52 173.135 30.8 169.915 34L140.206 63.5254C140.054 63.6756 139.969 63.8798 139.969 64.0928V84.1457C139.969 84.5264 140.238 84.8535 140.61 84.9353C148.814 86.7409 155.984 91.1161 161.429 96.9642C161.686 97.2399 162.098 97.306 162.425 97.1184L180.093 86.9653C180.277 86.8595 180.411 86.6848 180.467 86.4797L191.328 46.16C192.536 41.76 197.124 39.12 201.552 40.32C205.979 41.52 208.636 46.08 207.428 50.48L201.249 73.3422C201.063 74.0293 201.8 74.5986 202.418 74.2456L218.537 65.04C222.401 62.88 227.312 64.16 229.566 68C231.739 71.84 230.451 76.72 226.668 78.88L210.568 88.0745C209.947 88.429 210.067 89.3577 210.758 89.5421L233.751 95.68C238.179 96.88 240.835 101.44 239.628 105.84C238.42 110.24 233.832 112.88 229.404 111.68L188.829 100.885C188.625 100.83 188.408 100.859 188.225 100.964L170.571 111.109C170.238 111.301 170.088 111.703 170.21 112.068C171.456 115.811 172.25 119.834 172.25 124C172.25 128.171 171.454 132.127 170.205 135.935C170.086 136.299 170.236 136.698 170.568 136.889L188.225 147.036C188.408 147.141 188.625 147.17 188.829 147.115ZM156.07 124C156.07 137.255 145.257 148 131.92 148C118.582 148 107.77 137.255 107.77 124C107.77 110.745 118.582 100 131.92 100C145.257 100 156.07 110.745 156.07 124Z" fill="url(#paint15_radial_7159_2162)"/>
<path fill-rule="evenodd" clip-rule="evenodd" d="M188.829 147.115L229.404 136.32C233.832 135.12 238.501 137.52 239.708 142C240.916 146.48 238.259 150.96 233.832 152.16L210.839 158.298C210.148 158.482 210.027 159.411 210.648 159.766L226.748 168.96C230.612 171.2 231.98 176.08 229.726 179.92C227.473 183.76 222.562 185.12 218.698 182.88L202.579 173.674C201.961 173.321 201.224 173.891 201.41 174.578L207.589 197.44C208.797 201.92 206.221 206.4 201.713 207.6C197.205 208.8 192.697 206.16 191.489 201.76L180.628 161.44C180.572 161.235 180.438 161.061 180.254 160.955L162.586 150.801C162.259 150.614 161.847 150.68 161.59 150.955C156.071 156.879 148.898 161.258 140.69 163.065C140.319 163.147 140.05 163.474 140.05 163.854V183.907C140.05 184.12 140.135 184.324 140.286 184.475L169.996 214C173.216 217.2 173.216 222.48 169.996 225.68C166.776 228.88 161.463 228.88 158.243 225.68L141.414 208.955C140.909 208.454 140.05 208.811 140.05 209.523V228C140.05 232.4 136.427 236 132 236C127.573 236 123.95 232.4 123.95 228V209.603C123.95 208.891 123.091 208.534 122.586 209.035L105.757 225.76C102.537 228.96 97.2242 228.96 94.0042 225.76C90.7842 222.56 90.7842 217.28 94.0042 214.08L123.714 184.555C123.865 184.404 123.95 184.2 123.95 183.987V163.935C123.95 163.554 123.681 163.227 123.308 163.146C115.03 161.34 107.925 156.959 102.409 151.035C102.153 150.759 101.741 150.693 101.415 150.88L83.8276 160.955C83.643 161.061 83.5081 161.235 83.4528 161.441L72.5913 201.76C71.3838 206.16 66.7953 208.8 62.3679 207.6C57.9404 206.4 55.2839 201.84 56.4914 197.44L62.6683 174.587C62.8543 173.898 62.1149 173.329 61.4969 173.685L45.3824 182.96C41.5185 185.12 36.608 183.84 34.354 180C32.1 176.16 33.4685 171.28 37.252 169.2L53.3631 159.927C53.9816 159.571 53.8598 158.644 53.1704 158.46L30.168 152.32C25.7405 151.12 23.0841 146.56 24.2915 142.16C25.499 137.76 30.0875 135.12 34.515 136.32L75.0903 147.115C75.2943 147.17 75.5115 147.141 75.6946 147.036L93.3483 136.891C93.6819 136.699 93.8311 136.297 93.7095 135.932C92.4635 132.189 91.6697 128.166 91.6697 124C91.6697 119.846 92.4591 115.834 93.6992 112.234C93.8258 111.866 93.6776 111.459 93.3405 111.265L75.6946 101.124C75.5115 101.019 75.2943 100.99 75.0903 101.045L34.515 111.84C30.007 113.04 25.499 110.4 24.2915 106C23.0841 101.52 25.7405 97.04 30.168 95.84L53.1704 89.6997C53.8598 89.5157 53.9816 88.5894 53.3631 88.2334L37.252 78.96C33.4685 76.72 32.1 71.84 34.354 68C36.5275 64.16 41.5185 62.88 45.3019 65.04L61.4997 74.3213C62.1177 74.6754 62.8555 74.106 62.6697 73.4184L56.4914 50.56C55.2839 46.16 57.9404 41.68 62.3679 40.48C66.7953 39.28 71.3033 41.92 72.5108 46.32L83.3723 86.6391C83.4276 86.8445 83.5625 87.0194 83.7471 87.1252L101.334 97.1998C101.661 97.3867 102.072 97.3206 102.329 97.0454C107.848 91.1216 115.022 86.7417 123.229 84.9353C123.601 84.8535 123.87 84.5264 123.87 84.1457V64.0928C123.87 63.8798 123.785 63.6756 123.633 63.5254L93.9237 34C90.7037 30.8 90.7037 25.52 93.9237 22.32C97.1437 19.12 102.457 19.12 105.677 22.32L122.506 39.0445C123.01 39.5461 123.87 39.1886 123.87 38.4771V20C123.87 15.6 127.492 12 131.919 12C136.347 12 139.969 15.6 139.969 20V38.4771C139.969 39.1886 140.829 39.5461 141.333 39.0445L158.162 22.32C161.382 19.12 166.695 19.12 169.915 22.32C173.135 25.52 173.135 30.8 169.915 34L140.206 63.5254C140.054 63.6756 139.969 63.8798 139.969 64.0928V84.1457C139.969 84.5264 140.238 84.8535 140.61 84.9353C148.814 86.7409 155.984 91.1161 161.429 96.9642C161.686 97.2399 162.098 97.306 162.425 97.1184L180.093 86.9653C180.277 86.8595 180.411 86.6848 180.467 86.4797L191.328 46.16C192.536 41.76 197.124 39.12 201.552 40.32C205.979 41.52 208.636 46.08 207.428 50.48L201.249 73.3422C201.063 74.0293 201.8 74.5986 202.418 74.2456L218.537 65.04C222.401 62.88 227.312 64.16 229.566 68C231.739 71.84 230.451 76.72 226.668 78.88L210.568 88.0745C209.947 88.429 210.067 89.3577 210.758 89.5421L233.751 95.68C238.179 96.88 240.835 101.44 239.628 105.84C238.42 110.24 233.832 112.88 229.404 111.68L188.829 100.885C188.625 100.83 188.408 100.859 188.225 100.964L170.571 111.109C170.238 111.301 170.088 111.703 170.21 112.068C171.456 115.811 172.25 119.834 172.25 124C172.25 128.171 171.454 132.127 170.205 135.935C170.086 136.299 170.236 136.698 170.568 136.889L188.225 147.036C188.408 147.141 188.625 147.17 188.829 147.115ZM156.07 124C156.07 137.255 145.257 148 131.92 148C118.582 148 107.77 137.255 107.77 124C107.77 110.745 118.582 100 131.92 100C145.257 100 156.07 110.745 156.07 124Z" fill="url(#paint16_radial_7159_2162)"/>
<path fill-rule="evenodd" clip-rule="evenodd" d="M188.829 147.115L229.404 136.32C233.832 135.12 238.501 137.52 239.708 142C240.916 146.48 238.259 150.96 233.832 152.16L210.839 158.298C210.148 158.482 210.027 159.411 210.648 159.766L226.748 168.96C230.612 171.2 231.98 176.08 229.726 179.92C227.473 183.76 222.562 185.12 218.698 182.88L202.579 173.674C201.961 173.321 201.224 173.891 201.41 174.578L207.589 197.44C208.797 201.92 206.221 206.4 201.713 207.6C197.205 208.8 192.697 206.16 191.489 201.76L180.628 161.44C180.572 161.235 180.438 161.061 180.254 160.955L162.586 150.801C162.259 150.614 161.847 150.68 161.59 150.955C156.071 156.879 148.898 161.258 140.69 163.065C140.319 163.147 140.05 163.474 140.05 163.854V183.907C140.05 184.12 140.135 184.324 140.286 184.475L169.996 214C173.216 217.2 173.216 222.48 169.996 225.68C166.776 228.88 161.463 228.88 158.243 225.68L141.414 208.955C140.909 208.454 140.05 208.811 140.05 209.523V228C140.05 232.4 136.427 236 132 236C127.573 236 123.95 232.4 123.95 228V209.603C123.95 208.891 123.091 208.534 122.586 209.035L105.757 225.76C102.537 228.96 97.2242 228.96 94.0042 225.76C90.7842 222.56 90.7842 217.28 94.0042 214.08L123.714 184.555C123.865 184.404 123.95 184.2 123.95 183.987V163.935C123.95 163.554 123.681 163.227 123.308 163.146C115.03 161.34 107.925 156.959 102.409 151.035C102.153 150.759 101.741 150.693 101.415 150.88L83.8276 160.955C83.643 161.061 83.5081 161.235 83.4528 161.441L72.5913 201.76C71.3838 206.16 66.7953 208.8 62.3679 207.6C57.9404 206.4 55.2839 201.84 56.4914 197.44L62.6683 174.587C62.8543 173.898 62.1149 173.329 61.4969 173.685L45.3824 182.96C41.5185 185.12 36.608 183.84 34.354 180C32.1 176.16 33.4685 171.28 37.252 169.2L53.3631 159.927C53.9816 159.571 53.8598 158.644 53.1704 158.46L30.168 152.32C25.7405 151.12 23.0841 146.56 24.2915 142.16C25.499 137.76 30.0875 135.12 34.515 136.32L75.0903 147.115C75.2943 147.17 75.5115 147.141 75.6946 147.036L93.3483 136.891C93.6819 136.699 93.8311 136.297 93.7095 135.932C92.4635 132.189 91.6697 128.166 91.6697 124C91.6697 119.846 92.4591 115.834 93.6992 112.234C93.8258 111.866 93.6776 111.459 93.3405 111.265L75.6946 101.124C75.5115 101.019 75.2943 100.99 75.0903 101.045L34.515 111.84C30.007 113.04 25.499 110.4 24.2915 106C23.0841 101.52 25.7405 97.04 30.168 95.84L53.1704 89.6997C53.8598 89.5157 53.9816 88.5894 53.3631 88.2334L37.252 78.96C33.4685 76.72 32.1 71.84 34.354 68C36.5275 64.16 41.5185 62.88 45.3019 65.04L61.4997 74.3213C62.1177 74.6754 62.8555 74.106 62.6697 73.4184L56.4914 50.56C55.2839 46.16 57.9404 41.68 62.3679 40.48C66.7953 39.28 71.3033 41.92 72.5108 46.32L83.3723 86.6391C83.4276 86.8445 83.5625 87.0194 83.7471 87.1252L101.334 97.1998C101.661 97.3867 102.072 97.3206 102.329 97.0454C107.848 91.1216 115.022 86.7417 123.229 84.9353C123.601 84.8535 123.87 84.5264 123.87 84.1457V64.0928C123.87 63.8798 123.785 63.6756 123.633 63.5254L93.9237 34C90.7037 30.8 90.7037 25.52 93.9237 22.32C97.1437 19.12 102.457 19.12 105.677 22.32L122.506 39.0445C123.01 39.5461 123.87 39.1886 123.87 38.4771V20C123.87 15.6 127.492 12 131.919 12C136.347 12 139.969 15.6 139.969 20V38.4771C139.969 39.1886 140.829 39.5461 141.333 39.0445L158.162 22.32C161.382 19.12 166.695 19.12 169.915 22.32C173.135 25.52 173.135 30.8 169.915 34L140.206 63.5254C140.054 63.6756 139.969 63.8798 139.969 64.0928V84.1457C139.969 84.5264 140.238 84.8535 140.61 84.9353C148.814 86.7409 155.984 91.1161 161.429 96.9642C161.686 97.2399 162.098 97.306 162.425 97.1184L180.093 86.9653C180.277 86.8595 180.411 86.6848 180.467 86.4797L191.328 46.16C192.536 41.76 197.124 39.12 201.552 40.32C205.979 41.52 208.636 46.08 207.428 50.48L201.249 73.3422C201.063 74.0293 201.8 74.5986 202.418 74.2456L218.537 65.04C222.401 62.88 227.312 64.16 229.566 68C231.739 71.84 230.451 76.72 226.668 78.88L210.568 88.0745C209.947 88.429 210.067 89.3577 210.758 89.5421L233.751 95.68C238.179 96.88 240.835 101.44 239.628 105.84C238.42 110.24 233.832 112.88 229.404 111.68L188.829 100.885C188.625 100.83 188.408 100.859 188.225 100.964L170.571 111.109C170.238 111.301 170.088 111.703 170.21 112.068C171.456 115.811 172.25 119.834 172.25 124C172.25 128.171 171.454 132.127 170.205 135.935C170.086 136.299 170.236 136.698 170.568 136.889L188.225 147.036C188.408 147.141 188.625 147.17 188.829 147.115ZM156.07 124C156.07 137.255 145.257 148 131.92 148C118.582 148 107.77 137.255 107.77 124C107.77 110.745 118.582 100 131.92 100C145.257 100 156.07 110.745 156.07 124Z" fill="url(#paint17_radial_7159_2162)"/>
<path fill-rule="evenodd" clip-rule="evenodd" d="M188.829 147.115L229.404 136.32C233.832 135.12 238.501 137.52 239.708 142C240.916 146.48 238.259 150.96 233.832 152.16L210.839 158.298C210.148 158.482 210.027 159.411 210.648 159.766L226.748 168.96C230.612 171.2 231.98 176.08 229.726 179.92C227.473 183.76 222.562 185.12 218.698 182.88L202.579 173.674C201.961 173.321 201.224 173.891 201.41 174.578L207.589 197.44C208.797 201.92 206.221 206.4 201.713 207.6C197.205 208.8 192.697 206.16 191.489 201.76L180.628 161.44C180.572 161.235 180.438 161.061 180.254 160.955L162.586 150.801C162.259 150.614 161.847 150.68 161.59 150.955C156.071 156.879 148.898 161.258 140.69 163.065C140.319 163.147 140.05 163.474 140.05 163.854V183.907C140.05 184.12 140.135 184.324 140.286 184.475L169.996 214C173.216 217.2 173.216 222.48 169.996 225.68C166.776 228.88 161.463 228.88 158.243 225.68L141.414 208.955C140.909 208.454 140.05 208.811 140.05 209.523V228C140.05 232.4 136.427 236 132 236C127.573 236 123.95 232.4 123.95 228V209.603C123.95 208.891 123.091 208.534 122.586 209.035L105.757 225.76C102.537 228.96 97.2242 228.96 94.0042 225.76C90.7842 222.56 90.7842 217.28 94.0042 214.08L123.714 184.555C123.865 184.404 123.95 184.2 123.95 183.987V163.935C123.95 163.554 123.681 163.227 123.308 163.146C115.03 161.34 107.925 156.959 102.409 151.035C102.153 150.759 101.741 150.693 101.415 150.88L83.8276 160.955C83.643 161.061 83.5081 161.235 83.4528 161.441L72.5913 201.76C71.3838 206.16 66.7953 208.8 62.3679 207.6C57.9404 206.4 55.2839 201.84 56.4914 197.44L62.6683 174.587C62.8543 173.898 62.1149 173.329 61.4969 173.685L45.3824 182.96C41.5185 185.12 36.608 183.84 34.354 180C32.1 176.16 33.4685 171.28 37.252 169.2L53.3631 159.927C53.9816 159.571 53.8598 158.644 53.1704 158.46L30.168 152.32C25.7405 151.12 23.0841 146.56 24.2915 142.16C25.499 137.76 30.0875 135.12 34.515 136.32L75.0903 147.115C75.2943 147.17 75.5115 147.141 75.6946 147.036L93.3483 136.891C93.6819 136.699 93.8311 136.297 93.7095 135.932C92.4635 132.189 91.6697 128.166 91.6697 124C91.6697 119.846 92.4591 115.834 93.6992 112.234C93.8258 111.866 93.6776 111.459 93.3405 111.265L75.6946 101.124C75.5115 101.019 75.2943 100.99 75.0903 101.045L34.515 111.84C30.007 113.04 25.499 110.4 24.2915 106C23.0841 101.52 25.7405 97.04 30.168 95.84L53.1704 89.6997C53.8598 89.5157 53.9816 88.5894 53.3631 88.2334L37.252 78.96C33.4685 76.72 32.1 71.84 34.354 68C36.5275 64.16 41.5185 62.88 45.3019 65.04L61.4997 74.3213C62.1177 74.6754 62.8555 74.106 62.6697 73.4184L56.4914 50.56C55.2839 46.16 57.9404 41.68 62.3679 40.48C66.7953 39.28 71.3033 41.92 72.5108 46.32L83.3723 86.6391C83.4276 86.8445 83.5625 87.0194 83.7471 87.1252L101.334 97.1998C101.661 97.3867 102.072 97.3206 102.329 97.0454C107.848 91.1216 115.022 86.7417 123.229 84.9353C123.601 84.8535 123.87 84.5264 123.87 84.1457V64.0928C123.87 63.8798 123.785 63.6756 123.633 63.5254L93.9237 34C90.7037 30.8 90.7037 25.52 93.9237 22.32C97.1437 19.12 102.457 19.12 105.677 22.32L122.506 39.0445C123.01 39.5461 123.87 39.1886 123.87 38.4771V20C123.87 15.6 127.492 12 131.919 12C136.347 12 139.969 15.6 139.969 20V38.4771C139.969 39.1886 140.829 39.5461 141.333 39.0445L158.162 22.32C161.382 19.12 166.695 19.12 169.915 22.32C173.135 25.52 173.135 30.8 169.915 34L140.206 63.5254C140.054 63.6756 139.969 63.8798 139.969 64.0928V84.1457C139.969 84.5264 140.238 84.8535 140.61 84.9353C148.814 86.7409 155.984 91.1161 161.429 96.9642C161.686 97.2399 162.098 97.306 162.425 97.1184L180.093 86.9653C180.277 86.8595 180.411 86.6848 180.467 86.4797L191.328 46.16C192.536 41.76 197.124 39.12 201.552 40.32C205.979 41.52 208.636 46.08 207.428 50.48L201.249 73.3422C201.063 74.0293 201.8 74.5986 202.418 74.2456L218.537 65.04C222.401 62.88 227.312 64.16 229.566 68C231.739 71.84 230.451 76.72 226.668 78.88L210.568 88.0745C209.947 88.429 210.067 89.3577 210.758 89.5421L233.751 95.68C238.179 96.88 240.835 101.44 239.628 105.84C238.42 110.24 233.832 112.88 229.404 111.68L188.829 100.885C188.625 100.83 188.408 100.859 188.225 100.964L170.571 111.109C170.238 111.301 170.088 111.703 170.21 112.068C171.456 115.811 172.25 119.834 172.25 124C172.25 128.171 171.454 132.127 170.205 135.935C170.086 136.299 170.236 136.698 170.568 136.889L188.225 147.036C188.408 147.141 188.625 147.17 188.829 147.115ZM156.07 124C156.07 137.255 145.257 148 131.92 148C118.582 148 107.77 137.255 107.77 124C107.77 110.745 118.582 100 131.92 100C145.257 100 156.07 110.745 156.07 124Z" fill="url(#paint18_radial_7159_2162)"/>
<defs>
<linearGradient id="paint0_linear_7159_2162" x1="173.151" y1="160.051" x2="87.2623" y2="160.574" gradientUnits="userSpaceOnUse">
<stop offset="0.272241" stop-color="#43C4F5"/>
<stop offset="1" stop-color="#3D8DF3"/>
</linearGradient>
<linearGradient id="paint1_linear_7159_2162" x1="198.267" y1="160.051" x2="132.002" y2="160.455" gradientUnits="userSpaceOnUse">
<stop stop-color="#43C4F5"/>
<stop offset="1" stop-color="#43C4F5" stop-opacity="0"/>
</linearGradient>
<radialGradient id="paint2_radial_7159_2162" cx="0" cy="0" r="1" gradientUnits="userSpaceOnUse" gradientTransform="translate(243.193 142.258) rotate(165.719) scale(12.2879 13.0556)">
<stop stop-color="#76E4FF"/>
<stop offset="1" stop-color="#76E4FF" stop-opacity="0"/>
</radialGradient>
<radialGradient id="paint3_radial_7159_2162" cx="0" cy="0" r="1" gradientUnits="userSpaceOnUse" gradientTransform="translate(208.571 40.6359) rotate(114.944) scale(20.3329 17.7391)">
<stop stop-color="#6EECFF"/>
<stop offset="1" stop-color="#6EECFF" stop-opacity="0"/>
</radialGradient>
<radialGradient id="paint4_radial_7159_2162" cx="0" cy="0" r="1" gradientUnits="userSpaceOnUse" gradientTransform="translate(231.25 65.928) rotate(146.976) scale(11.9269 10.4054)">
<stop stop-color="#6EECFF"/>
<stop offset="1" stop-color="#6EECFF" stop-opacity="0"/>
</radialGradient>
<radialGradient id="paint5_radial_7159_2162" cx="0" cy="0" r="1" gradientUnits="userSpaceOnUse" gradientTransform="translate(171.393 19.5844) rotate(136.169) scale(16.1654 16.4817)">
<stop stop-color="#78E5FF"/>
<stop offset="1" stop-color="#78E5FF" stop-opacity="0"/>
</radialGradient>
<radialGradient id="paint6_radial_7159_2162" cx="0" cy="0" r="1" gradientUnits="userSpaceOnUse" gradientTransform="translate(136 188) rotate(-180) scale(8 75.1825)">
<stop stop-color="#84CDFF"/>
<stop offset="0.586376" stop-color="#84CDFF" stop-opacity="0"/>
</radialGradient>
<radialGradient id="paint7_radial_7159_2162" cx="0" cy="0" r="1" gradientUnits="userSpaceOnUse" gradientTransform="translate(152 204) rotate(135) scale(5.65686 48.2487)">
<stop stop-color="#84CDFF"/>
<stop offset="0.562501" stop-color="#84CDFF" stop-opacity="0"/>
</radialGradient>
<radialGradient id="paint8_radial_7159_2162" cx="0" cy="0" r="1" gradientUnits="userSpaceOnUse" gradientTransform="translate(212 148) rotate(75.9637) scale(16.4924 140.668)">
<stop stop-color="#84CDFF"/>
<stop offset="0.237132" stop-color="#84CDFF" stop-opacity="0"/>
</radialGradient>
<radialGradient id="paint9_radial_7159_2162" cx="0" cy="0" r="1" gradientUnits="userSpaceOnUse" gradientTransform="translate(192 184) rotate(-18.4349) scale(12.6491 107.887)">
<stop stop-color="#84CDFF"/>
<stop offset="0.237132" stop-color="#84CDFF" stop-opacity="0"/>
</radialGradient>
<radialGradient id="paint10_radial_7159_2162" cx="0" cy="0" r="1" gradientUnits="userSpaceOnUse" gradientTransform="translate(192 156) rotate(116.565) scale(8.94427 84.0565)">
<stop stop-color="#84CDFF"/>
<stop offset="0.586376" stop-color="#84CDFF" stop-opacity="0"/>
</radialGradient>
<radialGradient id="paint11_radial_7159_2162" cx="0" cy="0" r="1" gradientUnits="userSpaceOnUse" gradientTransform="translate(136.081 52.1286) rotate(-0.716165) scale(13.1912 123.968)">
<stop stop-color="#84CDFF"/>
<stop offset="0.337078" stop-color="#84CDFF" stop-opacity="0"/>
</radialGradient>
<radialGradient id="paint12_radial_7159_2162" cx="0" cy="0" r="1" gradientUnits="userSpaceOnUse" gradientTransform="translate(112 40) rotate(-45) scale(22.6274 134.881)">
<stop stop-color="#84CDFF"/>
<stop offset="0.152344" stop-color="#84CDFF" stop-opacity="0"/>
</radialGradient>
<radialGradient id="paint13_radial_7159_2162" cx="0" cy="0" r="1" gradientUnits="userSpaceOnUse" gradientTransform="translate(80 92) rotate(-63.435) scale(8.94428 84.0566)">
<stop stop-color="#63A7FF"/>
<stop offset="0.406252" stop-color="#63A7FF" stop-opacity="0"/>
</radialGradient>
<radialGradient id="paint14_radial_7159_2162" cx="0" cy="0" r="1" gradientUnits="userSpaceOnUse" gradientTransform="translate(56 148) rotate(-71.5651) scale(12.6491 100.244)">
<stop stop-color="#63A7FF"/>
<stop offset="0.234374" stop-color="#63A7FF" stop-opacity="0"/>
</radialGradient>
<radialGradient id="paint15_radial_7159_2162" cx="0" cy="0" r="1" gradientUnits="userSpaceOnUse" gradientTransform="translate(216 100) rotate(104.036) scale(16.4924 140.668)">
<stop stop-color="#84CDFF"/>
<stop offset="0.246323" stop-color="#84CDFF" stop-opacity="0"/>
</radialGradient>
<radialGradient id="paint16_radial_7159_2162" cx="0" cy="0" r="1" gradientUnits="userSpaceOnUse" gradientTransform="translate(192 64) rotate(11.31) scale(20.3961 173.963)">
<stop stop-color="#84CDFF"/>
<stop offset="0.246323" stop-color="#84CDFF" stop-opacity="0"/>
</radialGradient>
<radialGradient id="paint17_radial_7159_2162" cx="0" cy="0" r="1" gradientUnits="userSpaceOnUse" gradientTransform="translate(200 84) rotate(59.0363) scale(23.3238 198.934)">
<stop stop-color="#84CDFF"/>
<stop offset="0.246323" stop-color="#84CDFF" stop-opacity="0"/>
</radialGradient>
<radialGradient id="paint18_radial_7159_2162" cx="0" cy="0" r="1" gradientUnits="userSpaceOnUse" gradientTransform="translate(132 124) rotate(90) scale(40 38.5714)">
<stop offset="0.594098" stop-color="#7BD2FB" stop-opacity="0"/>
<stop offset="0.711456" stop-color="#7BD2FB" stop-opacity="0.5"/>
<stop offset="0.776654" stop-color="#7BD2FB" stop-opacity="0.8"/>
<stop offset="0.837506" stop-color="#7BD2FB" stop-opacity="0.5"/>
<stop offset="0.967903" stop-color="#7BD2FB" stop-opacity="0"/>
</radialGradient>
</defs>
</svg>
