<svg width="256" height="256" viewBox="0 0 256 256" fill="none" xmlns="http://www.w3.org/2000/svg">
<path d="M7.9721 39.9367C0 55.5828 0 76.0647 0 117.029V138.971C0 179.935 0 200.417 7.9721 216.063C14.9845 229.826 26.174 241.015 39.9367 248.028C55.5828 256 76.0647 256 117.029 256H138.971C179.935 256 200.417 256 216.063 248.028C229.826 241.015 241.015 229.826 248.028 216.063C256 200.417 256 179.935 256 138.971V117.029C256 76.0647 256 55.5828 248.028 39.9367C241.015 26.174 229.826 14.9845 216.063 7.9721C200.417 0 179.935 0 138.971 0H117.029C76.0647 0 55.5828 0 39.9367 7.9721C26.174 14.9845 14.9845 26.174 7.9721 39.9367Z" fill="url(#paint0_linear_7159_5261)"/>
<path d="M2.42489 57.4128C0 71.1937 0 89.4791 0 117.028V138.971C0 179.935 0 200.417 7.9721 216.063C14.9845 229.826 26.174 241.015 39.9367 248.028C55.5828 256 76.0647 256 117.029 256H138.971C179.935 256 200.417 256 216.063 248.028C229.826 241.015 241.015 229.826 248.028 216.063C256 200.417 256 179.935 256 138.971V117.028C256 76.0643 256 55.5824 248.028 39.9363C241.259 26.6524 230.6 15.7659 217.49 8.71875L2.42489 57.4128Z" fill="url(#paint1_linear_7159_5261)"/>
<path d="M253.352 199.808C252.176 205.986 250.479 211.253 248.028 216.062C241.016 229.825 229.826 241.014 216.063 248.027C200.885 255.76 181.157 255.992 142.594 255.999H128.536V227.078L253.352 199.808Z" fill="url(#paint2_linear_7159_5261)"/>
<path d="M138.971 0H117.028C109.059 0 101.865 0 95.3303 0.0587034V36.3019L217.466 8.70631C217.002 8.45673 216.534 8.21197 216.063 7.97209C207.377 3.54635 197.201 1.57758 182.857 0.701779C171.363 0 157.194 0 138.971 0Z" fill="url(#paint3_linear_7159_5261)"/>
<path d="M256 140.556C255.999 168.036 255.95 186.15 253.351 199.808L209.941 209.293V144.602L256 133.891V140.556Z" fill="url(#paint4_linear_7159_5261)"/>
<path fill-rule="evenodd" clip-rule="evenodd" d="M118.317 104.026C118.317 98.1504 123.121 95.8905 131.078 95.8905C142.487 95.8905 156.899 99.3557 168.309 105.533V70.1268C155.849 65.1549 143.538 63.1963 131.078 63.1963C100.602 63.1963 80.3347 79.1667 80.3347 105.834C80.3347 147.418 137.383 140.788 137.383 158.718C137.383 165.648 131.378 167.908 122.971 167.908C110.51 167.908 94.5968 162.785 81.9861 155.855V191.713C95.9479 197.74 110.06 200.301 122.971 200.301C154.197 200.301 175.665 184.782 175.665 157.814C175.515 112.916 118.317 120.901 118.317 104.026Z" fill="white"/>
<defs>
<linearGradient id="paint0_linear_7159_5261" x1="0" y1="0" x2="84.0837" y2="59.4477" gradientUnits="userSpaceOnUse">
<stop stop-color="#392993"/>
<stop offset="1" stop-color="#4B47B9"/>
</linearGradient>
<linearGradient id="paint1_linear_7159_5261" x1="9.64018" y1="60.109" x2="195.261" y2="213.22" gradientUnits="userSpaceOnUse">
<stop stop-color="#594BB9"/>
<stop offset="1" stop-color="#60A8F2"/>
</linearGradient>
<linearGradient id="paint2_linear_7159_5261" x1="128.536" y1="228.15" x2="256" y2="255.999" gradientUnits="userSpaceOnUse">
<stop stop-color="#61A2EF"/>
<stop offset="1" stop-color="#58E6FD"/>
</linearGradient>
<linearGradient id="paint3_linear_7159_5261" x1="95.3303" y1="18.2092" x2="256" y2="-2.40862e-07" gradientUnits="userSpaceOnUse">
<stop stop-color="#534EBE"/>
<stop offset="1" stop-color="#6875E2"/>
</linearGradient>
<linearGradient id="paint4_linear_7159_5261" x1="209.941" y1="145.137" x2="256" y2="200.301" gradientUnits="userSpaceOnUse">
<stop stop-color="#71A5F3"/>
<stop offset="1" stop-color="#6CC3FA"/>
</linearGradient>
</defs>
</svg>
