<svg width="256" height="256" viewBox="0 0 256 256" fill="none" xmlns="http://www.w3.org/2000/svg">
<path d="M128 256C198.692 256 256 198.692 256 128C256 57.3077 198.692 0 128 0C57.3077 0 0 57.3077 0 128C0 198.692 57.3077 256 128 256Z" fill="url(#paint0_linear_7159_5250)"/>
<path d="M47.6705 134.262C62.6336 126.019 79.3365 119.141 94.9429 112.226C121.792 100.902 148.748 89.7731 175.975 79.4126C181.273 77.6472 190.791 75.9208 191.725 83.7715C191.214 94.884 189.111 105.931 187.669 116.979C184.009 141.273 179.779 165.485 175.653 189.699C174.232 197.765 164.128 201.94 157.663 196.778C142.126 186.284 126.469 175.891 111.131 165.153C106.106 160.047 110.765 152.715 115.253 149.07C128.05 136.458 141.621 125.744 153.749 112.481C157.02 104.581 147.354 111.239 144.166 113.279C126.647 125.351 109.557 138.161 91.0864 148.771C81.6517 153.965 70.6555 149.526 61.2251 146.628C52.7695 143.127 40.379 139.6 47.6697 134.262L47.6705 134.262Z" fill="white"/>
<defs>
<linearGradient id="paint0_linear_7159_5250" x1="96.0149" y1="10.6752" x2="32.0149" y2="160" gradientUnits="userSpaceOnUse">
<stop stop-color="#37AEE2"/>
<stop offset="1" stop-color="#1E96C8"/>
</linearGradient>
</defs>
</svg>
