<svg width="256" height="256" viewBox="0 0 256 256" fill="none" xmlns="http://www.w3.org/2000/svg">
<circle cx="128" cy="128" r="128" fill="#303030"/>
<path fill-rule="evenodd" clip-rule="evenodd" d="M113.062 110.32V103.829C110.809 103.51 108.538 103.345 106.263 103.334C78.442 103.334 55.808 125.972 55.808 153.793C55.808 170.859 64.3372 185.966 77.3483 195.101C68.6363 185.784 63.7928 173.503 63.7999 160.748C63.7999 133.323 85.7898 110.96 113.062 110.32Z" fill="#00F2EA"/>
<path fill-rule="evenodd" clip-rule="evenodd" d="M114.251 183.79C126.664 183.79 136.79 173.916 137.251 161.61L137.293 51.755H157.362C156.933 49.4614 156.717 47.1332 156.714 44.7998H129.305L129.259 154.658C128.802 166.96 118.672 176.831 106.263 176.831C102.537 176.832 98.8679 175.925 95.5729 174.186C97.7004 177.155 100.504 179.574 103.752 181.244C107 182.914 110.599 183.787 114.251 183.79ZM194.853 89.0428V82.9373C187.477 82.9443 180.26 80.7987 174.086 76.7635C179.499 82.9959 186.787 87.3043 194.856 89.0428" fill="#00F2EA"/>
<path fill-rule="evenodd" clip-rule="evenodd" d="M174.083 76.7597C168.033 69.8367 164.7 60.9532 164.704 51.7589H157.36C158.311 56.8408 160.284 61.6768 163.158 65.9742C166.033 70.2715 169.749 73.9407 174.083 76.7597ZM106.262 130.747C100.153 130.755 94.2962 133.184 89.9764 137.504C85.657 141.824 83.2272 147.68 83.2199 153.789C83.2241 157.992 84.3764 162.113 86.5528 165.708C88.7291 169.303 91.8464 172.234 95.5678 174.186C92.7342 170.279 91.2085 165.575 91.2081 160.749C91.214 154.639 93.6435 148.781 97.9633 144.461C102.283 140.14 108.14 137.71 114.25 137.703C116.624 137.703 118.899 138.095 121.049 138.77V110.785C118.797 110.466 116.525 110.3 114.25 110.29C113.85 110.29 113.457 110.312 113.061 110.32V131.815C110.862 131.115 108.569 130.755 106.262 130.747Z" fill="#FF004F"/>
<path fill-rule="evenodd" clip-rule="evenodd" d="M194.853 89.0429V110.347C180.638 110.347 167.47 105.8 156.715 98.0829V153.79C156.715 181.61 134.085 204.245 106.264 204.245C95.513 204.245 85.5433 200.853 77.3494 195.098C82.0603 200.178 87.7696 204.231 94.1198 207.002C100.47 209.772 107.324 211.201 114.252 211.2C142.073 211.2 164.707 188.566 164.707 160.749V105.042C175.818 113.031 189.16 117.322 202.845 117.306V89.8891C200.101 89.8891 197.433 89.5916 194.853 89.0391" fill="#FF004F"/>
<path fill-rule="evenodd" clip-rule="evenodd" d="M156.715 153.789V98.0827C167.825 106.073 181.168 110.363 194.853 110.347V89.0427C186.784 87.3024 179.498 82.9926 174.086 76.7596C169.752 73.9406 166.035 70.2714 163.161 65.9741C160.287 61.6767 158.314 56.8407 157.363 51.7588H137.294L137.252 161.613C136.791 173.916 126.665 183.79 114.252 183.79C110.6 183.787 107.001 182.913 103.753 181.243C100.506 179.573 97.702 177.154 95.5742 174.186C91.852 172.235 88.7337 169.303 86.5567 165.709C84.3796 162.114 83.2266 157.992 83.2224 153.789C83.2294 147.68 85.6592 141.824 89.979 137.504C94.2984 133.184 100.155 130.755 106.264 130.747C108.635 130.747 110.91 131.136 113.063 131.815V110.32C85.7909 110.96 63.801 133.324 63.801 160.748C63.801 174.011 68.9536 186.085 77.3495 195.101C85.8134 201.06 95.9135 204.253 106.264 204.244C134.085 204.244 156.715 181.61 156.715 153.789Z" fill="white"/>
</svg>
