<svg width="32" height="32" viewBox="0 0 32 32" fill="none" xmlns="http://www.w3.org/2000/svg">
<circle cx="16" cy="16" r="16" fill="#349DF0"/>
<path d="M16.088 11.8821L16.1348 12.6433L15.3545 12.5501C12.514 12.1928 10.0324 10.981 7.92545 8.94582L6.89537 7.936L6.63005 8.68172C6.06819 10.344 6.42716 12.0996 7.5977 13.2803C8.22198 13.9328 8.08152 14.026 7.00462 13.6376C6.63005 13.5133 6.3023 13.4201 6.27108 13.4667C6.16183 13.5755 6.53641 14.9892 6.83294 15.5485C7.23873 16.3253 8.06591 17.0865 8.97113 17.5371L9.73588 17.8944L8.83066 17.9099C7.95666 17.9099 7.92545 17.9255 8.01909 18.2517C8.33123 19.2615 9.5642 20.3335 10.9376 20.7996L11.9053 21.1258L11.0625 21.623C9.81392 22.3376 8.34684 22.7415 6.87977 22.7726C6.17744 22.7881 5.59998 22.8503 5.59998 22.8969C5.59998 23.0522 7.50405 23.9222 8.61216 24.264C11.9365 25.2738 15.8851 24.8389 18.8505 23.1144C20.9575 21.8871 23.0644 19.448 24.0477 17.0865C24.5783 15.8281 25.109 13.5289 25.109 12.4258C25.109 11.7112 25.1558 11.618 26.0298 10.7635C26.5448 10.2664 27.0286 9.72261 27.1223 9.56725C27.2784 9.27207 27.2628 9.27207 26.4668 9.53618C25.1402 10.0023 24.9529 9.94011 25.6084 9.241C26.0922 8.74386 26.6697 7.84279 26.6697 7.57868C26.6697 7.53207 26.4356 7.60975 26.1703 7.74957C25.8893 7.90493 25.265 8.13797 24.7968 8.27779L23.954 8.54189L23.1893 8.02922C22.7679 7.74957 22.1748 7.43886 21.8627 7.34564C21.0667 7.12814 19.8493 7.15922 19.1314 7.40779C17.1805 8.10689 15.9475 9.90904 16.088 11.8821Z" fill="white"/>
</svg>
