<svg width="256" height="256" viewBox="0 0 256 256" fill="none" xmlns="http://www.w3.org/2000/svg">
<path d="M40.08 239.5H215.92C229.2 239.5 240 228.7 240 215.42V160C240 151.2 232.88 144 224 144H32C23.2 144 16 151.12 16 160V215.42C16 228.78 26.8 239.5 40.08 239.5Z" fill="url(#paint0_linear_7159_2163)"/>
<path d="M40.08 239.5H215.92C229.2 239.5 240 228.7 240 215.42V160C240 151.2 232.88 144 224 144H32C23.2 144 16 151.12 16 160V215.42C16 228.78 26.8 239.5 40.08 239.5Z" fill="url(#paint1_linear_7159_2163)"/>
<path d="M40.08 239.5H215.92C229.2 239.5 240 228.7 240 215.42V160C240 151.2 232.88 144 224 144H32C23.2 144 16 151.12 16 160V215.42C16 228.78 26.8 239.5 40.08 239.5Z" fill="url(#paint2_linear_7159_2163)"/>
<path d="M40.08 239.5H215.92C229.2 239.5 240 228.7 240 215.42V160C240 151.2 232.88 144 224 144H32C23.2 144 16 151.12 16 160V215.42C16 228.78 26.8 239.5 40.08 239.5Z" fill="url(#paint3_linear_7159_2163)"/>
<path d="M40.08 239.5H215.92C229.2 239.5 240 228.7 240 215.42V160C240 151.2 232.88 144 224 144H32C23.2 144 16 151.12 16 160V215.42C16 228.78 26.8 239.5 40.08 239.5Z" fill="url(#paint4_radial_7159_2163)"/>
<path d="M40.08 239.5H215.92C229.2 239.5 240 228.7 240 215.42V160C240 151.2 232.88 144 224 144H32C23.2 144 16 151.12 16 160V215.42C16 228.78 26.8 239.5 40.08 239.5Z" fill="url(#paint5_linear_7159_2163)"/>
<path d="M40.08 239.5H215.92C229.2 239.5 240 228.7 240 215.42V160C240 151.2 232.88 144 224 144H32C23.2 144 16 151.12 16 160V215.42C16 228.78 26.8 239.5 40.08 239.5Z" fill="url(#paint6_radial_7159_2163)" fill-opacity="0.4"/>
<path d="M40.08 239.5H215.92C229.2 239.5 240 228.7 240 215.42V160C240 151.2 232.88 144 224 144H32C23.2 144 16 151.12 16 160V215.42C16 228.78 26.8 239.5 40.08 239.5Z" fill="url(#paint7_radial_7159_2163)" fill-opacity="0.8"/>
<path d="M40.08 239.5H215.92C229.2 239.5 240 228.7 240 215.42V160C240 151.2 232.88 144 224 144H32C23.2 144 16 151.12 16 160V215.42C16 228.78 26.8 239.5 40.08 239.5Z" fill="url(#paint8_radial_7159_2163)"/>
<path d="M40.08 239.5H215.92C229.2 239.5 240 228.7 240 215.42V160C240 151.2 232.88 144 224 144H32C23.2 144 16 151.12 16 160V215.42C16 228.78 26.8 239.5 40.08 239.5Z" fill="url(#paint9_radial_7159_2163)"/>
<path d="M40.08 239.5H215.92C229.2 239.5 240 228.7 240 215.42V160C240 151.2 232.88 144 224 144H32C23.2 144 16 151.12 16 160V215.42C16 228.78 26.8 239.5 40.08 239.5Z" fill="url(#paint10_radial_7159_2163)"/>
<path d="M40.08 239.5H215.92C229.2 239.5 240 228.7 240 215.42V160C240 151.2 232.88 144 224 144H32C23.2 144 16 151.12 16 160V215.42C16 228.78 26.8 239.5 40.08 239.5Z" fill="url(#paint11_radial_7159_2163)"/>
<path d="M40.08 239.5H215.92C229.2 239.5 240 228.7 240 215.42V160C240 151.2 232.88 144 224 144H32C23.2 144 16 151.12 16 160V215.42C16 228.78 26.8 239.5 40.08 239.5Z" fill="url(#paint12_radial_7159_2163)"/>
<path d="M194 63.0203L56.9598 200.06C55.3598 201.66 55.3598 204.22 56.9598 205.82C58.5598 207.42 61.1198 207.42 62.7198 205.82L199.76 68.7803C201.36 67.1803 201.36 64.6203 199.76 63.0203C198.16 61.4203 195.6 61.4203 194 63.0203Z" fill="url(#paint13_linear_7159_2163)"/>
<path d="M194 63.0203L56.9598 200.06C55.3598 201.66 55.3598 204.22 56.9598 205.82C58.5598 207.42 61.1198 207.42 62.7198 205.82L199.76 68.7803C201.36 67.1803 201.36 64.6203 199.76 63.0203C198.16 61.4203 195.6 61.4203 194 63.0203Z" fill="url(#paint14_linear_7159_2163)"/>
<path d="M194 63.0203L56.9598 200.06C55.3598 201.66 55.3598 204.22 56.9598 205.82C58.5598 207.42 61.1198 207.42 62.7198 205.82L199.76 68.7803C201.36 67.1803 201.36 64.6203 199.76 63.0203C198.16 61.4203 195.6 61.4203 194 63.0203Z" fill="url(#paint15_radial_7159_2163)"/>
<path d="M194 63.0203L56.9598 200.06C55.3598 201.66 55.3598 204.22 56.9598 205.82C58.5598 207.42 61.1198 207.42 62.7198 205.82L199.76 68.7803C201.36 67.1803 201.36 64.6203 199.76 63.0203C198.16 61.4203 195.6 61.4203 194 63.0203Z" fill="url(#paint16_linear_7159_2163)"/>
<path d="M194 63.0203L56.9598 200.06C55.3598 201.66 55.3598 204.22 56.9598 205.82C58.5598 207.42 61.1198 207.42 62.7198 205.82L199.76 68.7803C201.36 67.1803 201.36 64.6203 199.76 63.0203C198.16 61.4203 195.6 61.4203 194 63.0203Z" fill="url(#paint17_radial_7159_2163)"/>
<path d="M194 63.0203L56.9598 200.06C55.3598 201.66 55.3598 204.22 56.9598 205.82C58.5598 207.42 61.1198 207.42 62.7198 205.82L199.76 68.7803C201.36 67.1803 201.36 64.6203 199.76 63.0203C198.16 61.4203 195.6 61.4203 194 63.0203Z" fill="url(#paint18_radial_7159_2163)"/>
<path d="M194 63.0203L56.9598 200.06C55.3598 201.66 55.3598 204.22 56.9598 205.82C58.5598 207.42 61.1198 207.42 62.7198 205.82L199.76 68.7803C201.36 67.1803 201.36 64.6203 199.76 63.0203C198.16 61.4203 195.6 61.4203 194 63.0203Z" fill="url(#paint19_linear_7159_2163)"/>
<path d="M194 63.0203L56.9598 200.06C55.3598 201.66 55.3598 204.22 56.9598 205.82C58.5598 207.42 61.1198 207.42 62.7198 205.82L199.76 68.7803C201.36 67.1803 201.36 64.6203 199.76 63.0203C198.16 61.4203 195.6 61.4203 194 63.0203Z" fill="url(#paint20_radial_7159_2163)"/>
<path d="M182.56 206.78C188.64 212.86 198.16 213.34 202.72 207.42C233.92 166.62 230.64 107.74 193.04 70.1401C155.44 32.5401 96.3999 29.1801 55.5999 60.3801C49.6799 64.8601 50.1599 74.3801 56.2399 80.4601L62.3199 86.5401L122.951 147.684L176.4 200.62L182.56 206.78Z" fill="url(#paint21_linear_7159_2163)"/>
<path d="M182.56 206.78C188.64 212.86 198.16 213.34 202.72 207.42C233.92 166.62 230.64 107.74 193.04 70.1401C155.44 32.5401 96.3999 29.1801 55.5999 60.3801C49.6799 64.8601 50.1599 74.3801 56.2399 80.4601L62.3199 86.5401L122.951 147.684L176.4 200.62L182.56 206.78Z" fill="url(#paint22_radial_7159_2163)"/>
<path d="M182.56 206.78C188.64 212.86 198.16 213.34 202.72 207.42C233.92 166.62 230.64 107.74 193.04 70.1401C155.44 32.5401 96.3999 29.1801 55.5999 60.3801C49.6799 64.8601 50.1599 74.3801 56.2399 80.4601L62.3199 86.5401L122.951 147.684L176.4 200.62L182.56 206.78Z" fill="url(#paint23_linear_7159_2163)"/>
<path d="M182.56 206.78C188.64 212.86 198.16 213.34 202.72 207.42C233.92 166.62 230.64 107.74 193.04 70.1401C155.44 32.5401 96.3999 29.1801 55.5999 60.3801C49.6799 64.8601 50.1599 74.3801 56.2399 80.4601L62.3199 86.5401L122.951 147.684L176.4 200.62L182.56 206.78Z" fill="url(#paint24_linear_7159_2163)"/>
<path d="M182.56 206.78C188.64 212.86 198.16 213.34 202.72 207.42C233.92 166.62 230.64 107.74 193.04 70.1401C155.44 32.5401 96.3999 29.1801 55.5999 60.3801C49.6799 64.8601 50.1599 74.3801 56.2399 80.4601L62.3199 86.5401L122.951 147.684L176.4 200.62L182.56 206.78Z" fill="url(#paint25_radial_7159_2163)"/>
<path d="M182.56 206.78C188.64 212.86 198.16 213.34 202.72 207.42C233.92 166.62 230.64 107.74 193.04 70.1401C155.44 32.5401 96.3999 29.1801 55.5999 60.3801C49.6799 64.8601 50.1599 74.3801 56.2399 80.4601L62.3199 86.5401L122.951 147.684L176.4 200.62L182.56 206.78Z" fill="url(#paint26_radial_7159_2163)"/>
<path d="M193.865 71.15C224.148 102.911 216.496 160.444 176.32 200.62L147.714 171.994L147.76 171.98C187.433 132.308 207.588 87.8317 193.865 71.15Z" fill="url(#paint27_linear_7159_2163)"/>
<path d="M193.865 71.15C224.148 102.911 216.496 160.444 176.32 200.62L147.714 171.994L147.76 171.98C187.433 132.308 207.588 87.8317 193.865 71.15Z" fill="url(#paint28_linear_7159_2163)"/>
<path d="M191.677 68.9642C159.911 38.7179 102.482 46.3781 62.3203 86.5401L90.7271 115.159C130.433 75.4648 174.969 55.2333 191.677 68.9642Z" fill="url(#paint29_linear_7159_2163)"/>
<path d="M191.677 68.9642C159.911 38.7179 102.482 46.3781 62.3203 86.5401L90.7271 115.159C130.433 75.4648 174.969 55.2333 191.677 68.9642Z" fill="url(#paint30_linear_7159_2163)"/>
<defs>
<linearGradient id="paint0_linear_7159_2163" x1="216.149" y1="232.992" x2="96.2311" y2="165.838" gradientUnits="userSpaceOnUse">
<stop stop-color="#FFC250"/>
<stop offset="1" stop-color="#FFB000"/>
</linearGradient>
<linearGradient id="paint1_linear_7159_2163" x1="245.491" y1="198.241" x2="209.925" y2="198.241" gradientUnits="userSpaceOnUse">
<stop stop-color="#FFE273" stop-opacity="0.62"/>
<stop offset="1" stop-color="#FFE273" stop-opacity="0"/>
</linearGradient>
<linearGradient id="paint2_linear_7159_2163" x1="239.672" y1="198.241" x2="234.364" y2="198.241" gradientUnits="userSpaceOnUse">
<stop offset="0.0603049" stop-color="#FFE273"/>
<stop offset="0.702028" stop-color="#FFE273" stop-opacity="0.195296"/>
<stop offset="1" stop-color="#FFE273" stop-opacity="0"/>
</linearGradient>
<linearGradient id="paint3_linear_7159_2163" x1="177.814" y1="244.672" x2="177.814" y2="231.782" gradientUnits="userSpaceOnUse">
<stop offset="0.0603049" stop-color="#FFE273"/>
<stop offset="0.702028" stop-color="#FFE273" stop-opacity="0.195296"/>
<stop offset="1" stop-color="#FFE273" stop-opacity="0"/>
</linearGradient>
<radialGradient id="paint4_radial_7159_2163" cx="0" cy="0" r="1" gradientUnits="userSpaceOnUse" gradientTransform="translate(233.668 233.931) rotate(-131.878) scale(11.9528 28.036)">
<stop offset="0.0603049" stop-color="#FFE273"/>
<stop offset="0.702028" stop-color="#FFE273" stop-opacity="0.195296"/>
<stop offset="1" stop-color="#FFE273" stop-opacity="0"/>
</radialGradient>
<linearGradient id="paint5_linear_7159_2163" x1="137.524" y1="133.461" x2="137.524" y2="208.402" gradientUnits="userSpaceOnUse">
<stop stop-color="#FFE273" stop-opacity="0.62"/>
<stop offset="1" stop-color="#FFE273" stop-opacity="0"/>
</linearGradient>
<radialGradient id="paint6_radial_7159_2163" cx="0" cy="0" r="1" gradientUnits="userSpaceOnUse" gradientTransform="translate(112.711 196.217) rotate(180) scale(101.87 24.8914)">
<stop stop-color="#D7731C"/>
<stop offset="0.47907" stop-color="#D7731C" stop-opacity="0.558829"/>
<stop offset="0.820164" stop-color="#D7731C" stop-opacity="0.147746"/>
<stop offset="1" stop-color="#D7731C" stop-opacity="0"/>
</radialGradient>
<radialGradient id="paint7_radial_7159_2163" cx="0" cy="0" r="1" gradientUnits="userSpaceOnUse" gradientTransform="translate(139.105 198.442) rotate(-177.494) scale(80.1343 21.9877)">
<stop stop-color="#D7731C" stop-opacity="0.68"/>
<stop offset="0.420948" stop-color="#D7731C" stop-opacity="0.558829"/>
<stop offset="0.808064" stop-color="#D7731C" stop-opacity="0.147746"/>
<stop offset="1" stop-color="#D7731C" stop-opacity="0"/>
</radialGradient>
<radialGradient id="paint8_radial_7159_2163" cx="0" cy="0" r="1" gradientUnits="userSpaceOnUse" gradientTransform="translate(169.009 201.159) rotate(-177.595) scale(51.134 12.5477)">
<stop stop-color="#D7731C"/>
<stop offset="0.331283" stop-color="#D7731C" stop-opacity="0.716603"/>
<stop offset="0.796174" stop-color="#D7731C" stop-opacity="0.12"/>
<stop offset="1" stop-color="#D7731C" stop-opacity="0"/>
</radialGradient>
<radialGradient id="paint9_radial_7159_2163" cx="0" cy="0" r="1" gradientUnits="userSpaceOnUse" gradientTransform="translate(179.71 205.119) rotate(172.179) scale(40.0784 12.3445)">
<stop stop-color="#D7731C"/>
<stop offset="0.356078" stop-color="#D7731C" stop-opacity="0.75818"/>
<stop offset="0.783927" stop-color="#D7731C" stop-opacity="0.142029"/>
<stop offset="1" stop-color="#D7731C" stop-opacity="0"/>
</radialGradient>
<radialGradient id="paint10_radial_7159_2163" cx="0" cy="0" r="1" gradientUnits="userSpaceOnUse" gradientTransform="translate(157.996 168.233) rotate(93.3678) scale(20.9685 88.006)">
<stop offset="0.0603049" stop-color="#FFE273" stop-opacity="0.65"/>
<stop offset="0.687467" stop-color="#FFE273" stop-opacity="0.195296"/>
<stop offset="1" stop-color="#FFE273" stop-opacity="0"/>
</radialGradient>
<radialGradient id="paint11_radial_7159_2163" cx="0" cy="0" r="1" gradientUnits="userSpaceOnUse" gradientTransform="translate(187.462 233.496) rotate(-99.4623) scale(27.6596 116.088)">
<stop offset="0.0603049" stop-color="#FFE273" stop-opacity="0.65"/>
<stop offset="0.687467" stop-color="#FFE273" stop-opacity="0.195296"/>
<stop offset="1" stop-color="#FFE273" stop-opacity="0"/>
</radialGradient>
<radialGradient id="paint12_radial_7159_2163" cx="0" cy="0" r="1" gradientUnits="userSpaceOnUse" gradientTransform="translate(211.927 203.449) rotate(3.74299) scale(24.6005 103.25)">
<stop offset="0.0603049" stop-color="#FFE273" stop-opacity="0.65"/>
<stop offset="0.687467" stop-color="#FFE273" stop-opacity="0.195296"/>
<stop offset="1" stop-color="#FFE273" stop-opacity="0"/>
</radialGradient>
<linearGradient id="paint13_linear_7159_2163" x1="199.977" y1="63.0981" x2="57.1668" y2="205.908" gradientUnits="userSpaceOnUse">
<stop stop-color="#A66459"/>
<stop offset="0.588542" stop-color="#8A3F42"/>
<stop offset="1" stop-color="#7B4230"/>
</linearGradient>
<linearGradient id="paint14_linear_7159_2163" x1="81.6467" y1="173.976" x2="88.5417" y2="180.909" gradientUnits="userSpaceOnUse">
<stop offset="0.0180493" stop-color="#7F5951" stop-opacity="0"/>
<stop offset="0.247686" stop-color="#7F5951" stop-opacity="0.430027"/>
<stop offset="0.448063" stop-color="#7F5951"/>
<stop offset="0.519826" stop-color="#7F5951" stop-opacity="0.85"/>
<stop offset="0.691794" stop-color="#7F5951" stop-opacity="0.384758"/>
<stop offset="1" stop-color="#7F5951" stop-opacity="0"/>
</linearGradient>
<radialGradient id="paint15_radial_7159_2163" cx="0" cy="0" r="1" gradientUnits="userSpaceOnUse" gradientTransform="translate(120.298 143.81) rotate(82.7316) scale(63.7223)">
<stop stop-color="#8A3F42"/>
<stop offset="1" stop-color="#8A3F42" stop-opacity="0"/>
</radialGradient>
<linearGradient id="paint16_linear_7159_2163" x1="92.3406" y1="176.828" x2="90.1611" y2="174.688" gradientUnits="userSpaceOnUse">
<stop stop-color="#8A3F42"/>
<stop offset="1" stop-color="#8A3F42" stop-opacity="0"/>
</linearGradient>
<radialGradient id="paint17_radial_7159_2163" cx="0" cy="0" r="1" gradientUnits="userSpaceOnUse" gradientTransform="translate(198.702 64.0828) rotate(137.366) scale(28.329)">
<stop stop-color="#A66459"/>
<stop offset="1" stop-color="#A66459" stop-opacity="0"/>
</radialGradient>
<radialGradient id="paint18_radial_7159_2163" cx="0" cy="0" r="1" gradientUnits="userSpaceOnUse" gradientTransform="translate(200.494 62.4986) rotate(139.857) scale(7.37107 4.72617)">
<stop stop-color="#C18E80"/>
<stop offset="0.993283" stop-color="#C18E80" stop-opacity="0"/>
</radialGradient>
<linearGradient id="paint19_linear_7159_2163" x1="109.636" y1="159.705" x2="107.569" y2="157.631" gradientUnits="userSpaceOnUse">
<stop offset="0.167047" stop-color="#7F431C"/>
<stop offset="0.731012" stop-color="#7F431C" stop-opacity="0.259538"/>
<stop offset="1" stop-color="#7F431C" stop-opacity="0"/>
</linearGradient>
<radialGradient id="paint20_radial_7159_2163" cx="0" cy="0" r="1" gradientUnits="userSpaceOnUse" gradientTransform="translate(57.049 206.65) rotate(-56.9761) scale(5.3769 22.2919)">
<stop stop-color="#7F431C"/>
<stop offset="0.731012" stop-color="#7F431C" stop-opacity="0.259538"/>
<stop offset="1" stop-color="#7F431C" stop-opacity="0"/>
</radialGradient>
<linearGradient id="paint21_linear_7159_2163" x1="177.039" y1="115.003" x2="105.539" y2="131.503" gradientUnits="userSpaceOnUse">
<stop stop-color="#FF6072"/>
<stop offset="1" stop-color="#EC3A51"/>
</linearGradient>
<radialGradient id="paint22_radial_7159_2163" cx="0" cy="0" r="1" gradientUnits="userSpaceOnUse" gradientTransform="translate(129.461 154.074) rotate(-23.1654) scale(102.73 162.025)">
<stop offset="0.767914" stop-color="#EA596B" stop-opacity="0"/>
<stop offset="1" stop-color="#EA596B"/>
</radialGradient>
<linearGradient id="paint23_linear_7159_2163" x1="104.714" y1="141.36" x2="127.872" y2="118.202" gradientUnits="userSpaceOnUse">
<stop stop-color="#CB3A43"/>
<stop offset="0.481167" stop-color="#D92E49"/>
<stop offset="0.666151" stop-color="#D92E49" stop-opacity="0.205341"/>
<stop offset="0.746861" stop-color="#D92E49" stop-opacity="0"/>
</linearGradient>
<linearGradient id="paint24_linear_7159_2163" x1="237.531" y1="186.313" x2="181.226" y2="145.9" gradientUnits="userSpaceOnUse">
<stop stop-color="#EE442B"/>
<stop offset="1" stop-color="#EE442B" stop-opacity="0"/>
</linearGradient>
<radialGradient id="paint25_radial_7159_2163" cx="0" cy="0" r="1" gradientUnits="userSpaceOnUse" gradientTransform="translate(163.539 139.503) rotate(-119.416) scale(107.912 180.029)">
<stop stop-color="#CA3E4B" stop-opacity="0"/>
<stop offset="0.611421" stop-color="#CA3E4B" stop-opacity="0"/>
<stop offset="1" stop-color="#CA3E4B"/>
</radialGradient>
<radialGradient id="paint26_radial_7159_2163" cx="0" cy="0" r="1" gradientUnits="userSpaceOnUse" gradientTransform="translate(50.8864 78.8755) rotate(-39.1737) scale(22.0514 43.83)">
<stop stop-color="#C9B9C9" stop-opacity="0.41"/>
<stop offset="0.878771" stop-color="#D4C9DC" stop-opacity="0"/>
</radialGradient>
<linearGradient id="paint27_linear_7159_2163" x1="120.54" y1="145.503" x2="192.04" y2="74.0026" gradientUnits="userSpaceOnUse">
<stop stop-color="#E5DFEA"/>
<stop offset="1" stop-color="#FEFCFF"/>
</linearGradient>
<linearGradient id="paint28_linear_7159_2163" x1="109.54" y1="152.003" x2="131.79" y2="129.753" gradientUnits="userSpaceOnUse">
<stop offset="0.323696" stop-color="#C9B9C9"/>
<stop offset="0.61236" stop-color="#D4C9DC"/>
<stop offset="0.774058" stop-color="#D4C9DC" stop-opacity="0.30057"/>
<stop offset="0.878771" stop-color="#D4C9DC" stop-opacity="0"/>
</linearGradient>
<linearGradient id="paint29_linear_7159_2163" x1="120.54" y1="145.503" x2="192.04" y2="74.0026" gradientUnits="userSpaceOnUse">
<stop stop-color="#E5DFEA"/>
<stop offset="1" stop-color="#FEFCFF"/>
</linearGradient>
<linearGradient id="paint30_linear_7159_2163" x1="109.54" y1="152.003" x2="131.79" y2="129.753" gradientUnits="userSpaceOnUse">
<stop offset="0.323696" stop-color="#C9B9C9"/>
<stop offset="0.61236" stop-color="#D4C9DC"/>
<stop offset="0.774058" stop-color="#D4C9DC" stop-opacity="0.30057"/>
<stop offset="0.878771" stop-color="#D4C9DC" stop-opacity="0"/>
</linearGradient>
</defs>
</svg>
