<svg width="256" height="256" viewBox="0 0 256 256" fill="none" xmlns="http://www.w3.org/2000/svg">
<path d="M146.865 170.667C168.589 170.667 182.803 158.906 182.88 140.67C182.964 117.527 153.691 116.245 153.891 105.9C153.96 102.764 156.689 99.417 162.67 98.5654C165.63 98.1355 173.801 97.8062 183.064 102.485L186.7 83.8955C181.719 81.9058 175.315 80 167.344 80C146.896 80 132.513 91.922 132.397 108.986C132.252 121.616 142.66 128.664 150.501 132.854C158.557 137.154 161.263 139.911 161.232 143.755C161.171 149.64 154.806 152.237 148.849 152.338C138.456 152.515 132.413 149.261 127.608 146.799L123.864 166.013C128.684 168.449 137.61 170.574 146.865 170.667ZM97.1973 81.6006H75.4736L53.9414 141.292L45.2314 90.5381C44.209 84.8725 40.1731 81.6006 35.6914 81.6006H0.492187L0 84.1475C7.22579 85.8673 15.4355 88.6408 20.4092 91.6084C23.4533 93.421 24.322 95.0063 25.3213 99.3145L41.8184 169.3H63.6807L97.1973 81.6006ZM126.755 81.6006H106.076L88.9648 169.3H109.651L126.755 81.6006ZM207.832 156.207H234.36L236.867 169.3H256L239.304 81.6006H221.639C217.672 81.6006 214.328 84.1391 212.837 88.0342L181.803 169.3H203.512L207.832 156.207ZM224.674 105.292L230.939 138.224H213.781L224.674 105.292Z" fill="url(#paint0_linear_7159_5260)"/>
<defs>
<linearGradient id="paint0_linear_7159_5260" x1="0.446203" y1="107.887" x2="81.13" y2="3.44212" gradientUnits="userSpaceOnUse">
<stop stop-color="#222357"/>
<stop offset="1" stop-color="#254AA5"/>
</linearGradient>
</defs>
</svg>
