<svg width="32" height="32" viewBox="0 0 32 32" fill="none" xmlns="http://www.w3.org/2000/svg">
<path d="M18.3584 21.3335C21.0737 21.3334 22.8507 19.8629 22.8604 17.5835C22.8707 14.691 19.2116 14.5307 19.2363 13.2378C19.245 12.8458 19.5864 12.4272 20.334 12.3208C20.7041 12.2671 21.7252 12.2263 22.8828 12.811L23.3379 10.4868C22.7152 10.2381 21.9144 10.0005 20.918 10.0005C18.362 10.0005 16.5642 11.4905 16.5498 13.6235C16.5316 15.2021 17.8324 16.0832 18.8125 16.6069C19.8193 17.1443 20.158 17.4888 20.1543 17.9692C20.1466 18.7047 19.351 19.0297 18.6064 19.0425C17.3074 19.0646 16.5517 18.6578 15.9512 18.3501L15.4834 20.7515C16.0859 21.056 17.2016 21.3219 18.3584 21.3335ZM12.1494 10.2007H9.43457L6.74219 17.6616L5.6543 11.3169C5.52642 10.6091 5.02184 10.2009 4.46191 10.2007H0.0615234L0 10.5181C0.9032 10.733 1.92907 11.0807 2.55078 11.4517C2.9313 11.6782 3.04012 11.876 3.16504 12.4146L5.22754 21.1626H7.95996L12.1494 10.2007ZM15.8447 10.2007H13.2598L11.1211 21.1626H13.7061L15.8447 10.2007ZM25.9795 19.5259H29.2949L29.6084 21.1626H32L29.9131 10.2007H27.7051C27.2093 10.2007 26.7909 10.5175 26.6045 11.0044L22.7256 21.1626H25.4395L25.9795 19.5259ZM28.084 13.1616L28.8672 17.2778H26.7227L28.084 13.1616Z" fill="url(#paint0_linear_7159_5260)"/>
<defs>
<linearGradient id="paint0_linear_7159_5260" x1="0.0557754" y1="13.4862" x2="10.1408" y2="0.430747" gradientUnits="userSpaceOnUse">
<stop stop-color="#222357"/>
<stop offset="1" stop-color="#254AA5"/>
</linearGradient>
</defs>
</svg>
