<svg width="32" height="32" viewBox="0 0 32 32" fill="none" xmlns="http://www.w3.org/2000/svg">
<path d="M16 32C24.8366 32 32 24.8366 32 16C32 7.16344 24.8366 0 16 0C7.16344 0 0 7.16344 0 16C0 24.8366 7.16344 32 16 32Z" fill="#25D366"/>
<path d="M16.5271 5.8667C19.0722 5.8678 21.4613 6.85842 23.2576 8.65674C25.0538 10.455 26.0428 12.8461 26.0417 15.3882C26.0394 20.6325 21.7725 24.8997 16.5271 24.9019H16.5232C14.9311 24.9013 13.3668 24.5015 11.9773 23.7437L6.93335 25.0669L8.28296 20.1362C7.45052 18.6935 7.01274 17.057 7.01343 15.3804C7.01551 10.1347 11.2831 5.86681 16.5271 5.8667ZM16.53 7.47412C12.1685 7.47438 8.62181 11.0207 8.61987 15.3804C8.61926 16.8746 9.03728 18.3303 9.82886 19.5894L10.0164 19.8882L9.21753 22.8062L12.2107 22.021L12.4998 22.1929C13.7138 22.9132 15.1053 23.2949 16.5242 23.2954H16.5271C20.8856 23.2954 24.4335 19.7475 24.4353 15.3872C24.4361 13.2742 23.6138 11.2872 22.1208 9.79248C20.6279 8.2979 18.6421 7.47485 16.53 7.47412ZM13.615 10.9946C13.7608 11.0018 13.9564 10.94 14.1492 11.4028C14.3473 11.8788 14.8231 13.0495 14.8826 13.1685C14.9419 13.2874 14.9812 13.4259 14.9021 13.5845C14.8229 13.7429 14.7835 13.8423 14.6648 13.981C14.546 14.1197 14.4153 14.2914 14.3083 14.3979C14.1893 14.5165 14.0652 14.6453 14.2039 14.8833C14.3428 15.1218 14.8198 15.8998 15.5261 16.5298C16.4341 17.3397 17.2005 17.5905 17.4382 17.7095C17.6758 17.8284 17.8142 17.8085 17.9529 17.6499C18.0916 17.4911 18.5473 16.9562 18.7058 16.7183C18.8643 16.4804 19.0231 16.5198 19.241 16.5991C19.4601 16.6791 20.6274 17.2537 20.865 17.3726C21.1024 17.4914 21.2605 17.551 21.3201 17.6499C21.3795 17.749 21.3804 18.2254 21.1824 18.7808C20.9842 19.336 20.0337 19.8424 19.5769 19.9106C19.1674 19.9718 18.6491 19.9978 18.0798 19.8169C17.7346 19.7074 17.2915 19.5608 16.7244 19.3159C14.3398 18.2861 12.7827 15.8848 12.6638 15.7261C12.5445 15.5669 11.6931 14.4368 11.6931 13.2671C11.6932 12.0971 12.3073 11.5217 12.5251 11.2837C12.743 11.0459 13.0005 10.9868 13.1589 10.9868C13.3174 10.9868 13.4765 10.9877 13.615 10.9946Z" fill="white"/>
</svg>
