<svg width="256" height="256" viewBox="0 0 256 256" fill="none" xmlns="http://www.w3.org/2000/svg">
<g clip-path="url(#clip0_7159_2145)">
<path d="M127.991 239.982C202.667 239.982 239.982 189.842 239.982 127.991C239.982 66.1401 202.667 16 127.991 16C53.3155 16 16 66.1401 16 127.991C16 189.842 53.3155 239.982 127.991 239.982Z" fill="url(#paint0_radial_7159_2145)"/>
<path d="M127.991 239.982C202.667 239.982 239.982 189.842 239.982 127.991C239.982 66.1401 202.667 16 127.991 16C53.3155 16 16 66.1401 16 127.991C16 189.842 53.3155 239.982 127.991 239.982Z" fill="url(#paint1_radial_7159_2145)"/>
<path d="M127.991 239.982C202.667 239.982 239.982 189.842 239.982 127.991C239.982 66.1401 202.667 16 127.991 16C53.3155 16 16 66.1401 16 127.991C16 189.842 53.3155 239.982 127.991 239.982Z" fill="url(#paint2_radial_7159_2145)"/>
<path d="M127.991 239.982C202.667 239.982 239.982 189.842 239.982 127.991C239.982 66.1401 202.667 16 127.991 16C53.3155 16 16 66.1401 16 127.991C16 189.842 53.3155 239.982 127.991 239.982Z" fill="url(#paint3_radial_7159_2145)" fill-opacity="0.6"/>
<path d="M127.991 239.982C202.667 239.982 239.982 189.842 239.982 127.991C239.982 66.1401 202.667 16 127.991 16C53.3155 16 16 66.1401 16 127.991C16 189.842 53.3155 239.982 127.991 239.982Z" fill="url(#paint4_radial_7159_2145)"/>
<path d="M127.991 239.982C202.667 239.982 239.982 189.842 239.982 127.991C239.982 66.1401 202.667 16 127.991 16C53.3155 16 16 66.1401 16 127.991C16 189.842 53.3155 239.982 127.991 239.982Z" fill="url(#paint5_radial_7159_2145)"/>
<path d="M127.991 239.982C202.667 239.982 239.982 189.842 239.982 127.991C239.982 66.1401 202.667 16 127.991 16C53.3155 16 16 66.1401 16 127.991C16 189.842 53.3155 239.982 127.991 239.982Z" fill="url(#paint6_radial_7159_2145)"/>
<path d="M127.991 239.982C202.667 239.982 239.982 189.842 239.982 127.991C239.982 66.1401 202.667 16 127.991 16C53.3155 16 16 66.1401 16 127.991C16 189.842 53.3155 239.982 127.991 239.982Z" fill="url(#paint7_radial_7159_2145)"/>
<path d="M127.991 239.982C202.667 239.982 239.982 189.842 239.982 127.991C239.982 66.1401 202.667 16 127.991 16C53.3155 16 16 66.1401 16 127.991C16 189.842 53.3155 239.982 127.991 239.982Z" fill="url(#paint8_radial_7159_2145)"/>
<path d="M127.991 239.982C202.667 239.982 239.982 189.842 239.982 127.991C239.982 66.1401 202.667 16 127.991 16C53.3155 16 16 66.1401 16 127.991C16 189.842 53.3155 239.982 127.991 239.982Z" fill="url(#paint9_radial_7159_2145)"/>
<path d="M127.991 239.982C202.667 239.982 239.982 189.842 239.982 127.991C239.982 66.1401 202.667 16 127.991 16C53.3155 16 16 66.1401 16 127.991C16 189.842 53.3155 239.982 127.991 239.982Z" fill="url(#paint10_radial_7159_2145)"/>
<path d="M127.991 239.982C202.667 239.982 239.982 189.842 239.982 127.991C239.982 66.1401 202.667 16 127.991 16C53.3155 16 16 66.1401 16 127.991C16 189.842 53.3155 239.982 127.991 239.982Z" fill="url(#paint11_radial_7159_2145)"/>
<path d="M127.991 239.982C202.667 239.982 239.982 189.842 239.982 127.991C239.982 66.1401 202.667 16 127.991 16C53.3155 16 16 66.1401 16 127.991C16 189.842 53.3155 239.982 127.991 239.982Z" fill="url(#paint12_radial_7159_2145)"/>
<path d="M127.991 239.982C202.667 239.982 239.982 189.842 239.982 127.991C239.982 66.1401 202.667 16 127.991 16C53.3155 16 16 66.1401 16 127.991C16 189.842 53.3155 239.982 127.991 239.982Z" fill="url(#paint13_radial_7159_2145)"/>
<path d="M127.991 239.982C202.667 239.982 239.982 189.842 239.982 127.991C239.982 66.1401 202.667 16 127.991 16C53.3155 16 16 66.1401 16 127.991C16 189.842 53.3155 239.982 127.991 239.982Z" fill="url(#paint14_radial_7159_2145)"/>
<path d="M127.991 239.982C202.667 239.982 239.982 189.842 239.982 127.991C239.982 66.1401 202.667 16 127.991 16C53.3155 16 16 66.1401 16 127.991C16 189.842 53.3155 239.982 127.991 239.982Z" fill="url(#paint15_radial_7159_2145)"/>
<path d="M127.991 239.982C202.667 239.982 239.982 189.842 239.982 127.991C239.982 66.1401 202.667 16 127.991 16C53.3155 16 16 66.1401 16 127.991C16 189.842 53.3155 239.982 127.991 239.982Z" fill="url(#paint16_radial_7159_2145)"/>
<path d="M127.991 239.982C202.667 239.982 239.982 189.842 239.982 127.991C239.982 66.1401 202.667 16 127.991 16C53.3155 16 16 66.1401 16 127.991C16 189.842 53.3155 239.982 127.991 239.982Z" fill="url(#paint17_radial_7159_2145)"/>
<path d="M127.991 239.982C202.667 239.982 239.982 189.842 239.982 127.991C239.982 66.1401 202.667 16 127.991 16C53.3155 16 16 66.1401 16 127.991C16 189.842 53.3155 239.982 127.991 239.982Z" fill="url(#paint18_radial_7159_2145)"/>
<path d="M108 144C108 144 120 132 120 116C120 96.1177 103.882 80 84 80C64.1177 80 48 96.1177 48 116C48 132 56.3381 139.041 56.3381 139.041C56.3381 139.041 72.4422 134.694 84 136C100 137.808 108 144 108 144Z" fill="white"/>
<path d="M104 114C104 122.837 96.8366 130 88 130C79.1634 130 72 122.837 72 114C72 105.163 79.1634 98 88 98C96.8366 98 104 105.163 104 114Z" fill="url(#paint19_linear_7159_2145)"/>
<path fill-rule="evenodd" clip-rule="evenodd" d="M172 111.999C161.817 111.999 158.336 119.45 157.792 121.939C156.854 126.225 153.054 128.831 149.304 127.759C145.553 126.688 143.273 122.345 144.211 118.058C145.999 109.881 154.185 96 172 96C189.815 96 198.001 109.881 199.789 118.058C200.727 122.345 198.447 126.688 194.696 127.759C190.946 128.831 187.146 126.225 186.208 121.939C185.664 119.45 182.183 111.999 172 111.999Z" fill="url(#paint20_radial_7159_2145)"/>
<path d="M128 208C72 208 72 152 72 152H184C184 152 184 208 128 208Z" fill="url(#paint21_radial_7159_2145)"/>
<path fill-rule="evenodd" clip-rule="evenodd" d="M191.445 79.9009C196.188 84.404 199.057 89.8219 200.204 93.2649C200.903 95.3607 203.168 96.4933 205.264 95.7947C207.36 95.0961 208.492 92.8309 207.794 90.7351C206.275 86.1781 202.743 79.596 196.953 74.0991C191.095 68.5376 182.816 64 171.999 64C169.79 64 167.999 65.7909 167.999 68C167.999 70.2091 169.79 72 171.999 72C180.382 72 186.77 75.4624 191.445 79.9009Z" fill="url(#paint22_radial_7159_2145)"/>
<path fill-rule="evenodd" clip-rule="evenodd" d="M191.445 79.9009C196.188 84.404 199.057 89.8219 200.204 93.2649C200.903 95.3607 203.168 96.4933 205.264 95.7947C207.36 95.0961 208.492 92.8309 207.794 90.7351C206.275 86.1781 202.743 79.596 196.953 74.0991C191.095 68.5376 182.816 64 171.999 64C169.79 64 167.999 65.7909 167.999 68C167.999 70.2091 169.79 72 171.999 72C180.382 72 186.77 75.4624 191.445 79.9009Z" fill="url(#paint23_radial_7159_2145)"/>
<path fill-rule="evenodd" clip-rule="evenodd" d="M64.5551 63.9009C59.8119 68.404 56.9435 73.8219 55.7958 77.2649C55.0972 79.3607 52.8319 80.4933 50.7362 79.7947C48.6404 79.0961 47.5078 76.8309 48.2064 74.7351C49.7253 70.1781 53.2569 63.596 59.0471 58.0991C64.9052 52.5376 73.1843 48 84.0011 48C86.2102 48 88.0011 49.7909 88.0011 52C88.0011 54.2091 86.2102 56 84.0011 56C75.6178 56 69.2303 59.4624 64.5551 63.9009Z" fill="url(#paint24_radial_7159_2145)"/>
<path fill-rule="evenodd" clip-rule="evenodd" d="M64.5551 63.9009C59.8119 68.404 56.9435 73.8219 55.7958 77.2649C55.0972 79.3607 52.8319 80.4933 50.7362 79.7947C48.6404 79.0961 47.5078 76.8309 48.2064 74.7351C49.7253 70.1781 53.2569 63.596 59.0471 58.0991C64.9052 52.5376 73.1843 48 84.0011 48C86.2102 48 88.0011 49.7909 88.0011 52C88.0011 54.2091 86.2102 56 84.0011 56C75.6178 56 69.2303 59.4624 64.5551 63.9009Z" fill="url(#paint25_radial_7159_2145)"/>
<path d="M184 152C184 152 183.999 156.994 182.508 164H73.4922C72.0007 156.994 72 152 72 152H184Z" fill="url(#paint26_linear_7159_2145)"/>
</g>
<defs>
<radialGradient id="paint0_radial_7159_2145" cx="0" cy="0" r="1" gradientUnits="userSpaceOnUse" gradientTransform="translate(204 72) rotate(132.839) scale(300.027)">
<stop stop-color="#FFF478"/>
<stop offset="0.474827" stop-color="#FFB02E"/>
<stop offset="1" stop-color="#F70A8D"/>
</radialGradient>
<radialGradient id="paint1_radial_7159_2145" cx="0" cy="0" r="1" gradientUnits="userSpaceOnUse" gradientTransform="translate(204 72) rotate(131.878) scale(311.589)">
<stop stop-color="#FFF478"/>
<stop offset="0.474827" stop-color="#FFB02E"/>
<stop offset="1" stop-color="#F70A8D"/>
</radialGradient>
<radialGradient id="paint2_radial_7159_2145" cx="0" cy="0" r="1" gradientUnits="userSpaceOnUse" gradientTransform="translate(128 100) rotate(101.31) scale(142.773 182.864)">
<stop offset="0.787821" stop-color="#F59639" stop-opacity="0"/>
<stop offset="0.972509" stop-color="#FF7DCE"/>
</radialGradient>
<radialGradient id="paint3_radial_7159_2145" cx="0" cy="0" r="1" gradientUnits="userSpaceOnUse" gradientTransform="translate(144 112) rotate(135) scale(328.098)">
<stop offset="0.314853" stop-opacity="0"/>
<stop offset="1"/>
</radialGradient>
<radialGradient id="paint4_radial_7159_2145" cx="0" cy="0" r="1" gradientUnits="userSpaceOnUse" gradientTransform="translate(128 136) rotate(77.692) scale(225.175)">
<stop offset="0.507903" stop-color="#7D6133" stop-opacity="0"/>
<stop offset="1" stop-color="#715B32"/>
</radialGradient>
<radialGradient id="paint5_radial_7159_2145" cx="0" cy="0" r="1" gradientUnits="userSpaceOnUse" gradientTransform="translate(132 132) rotate(55.7131) scale(106.508 77.2025)">
<stop stop-color="#FFB849"/>
<stop offset="1" stop-color="#FFB847" stop-opacity="0"/>
</radialGradient>
<radialGradient id="paint6_radial_7159_2145" cx="0" cy="0" r="1" gradientUnits="userSpaceOnUse" gradientTransform="translate(164 144) rotate(9.86581) scale(93.3809)">
<stop stop-color="#FFA64B"/>
<stop offset="0.900412" stop-color="#FFAE46" stop-opacity="0"/>
</radialGradient>
<radialGradient id="paint7_radial_7159_2145" cx="0" cy="0" r="1" gradientUnits="userSpaceOnUse" gradientTransform="translate(140 120) rotate(43.9708) scale(472.424)">
<stop offset="0.185425" stop-opacity="0"/>
<stop offset="1" stop-opacity="0.4"/>
</radialGradient>
<radialGradient id="paint8_radial_7159_2145" cx="0" cy="0" r="1" gradientUnits="userSpaceOnUse" gradientTransform="translate(93.3803 118.158) rotate(86.5467) scale(30.0736 30.4965)">
<stop stop-color="#B3671F"/>
<stop offset="0.392157" stop-color="#B3671F"/>
<stop offset="0.643397" stop-color="#B3671F" stop-opacity="0.446091"/>
<stop offset="0.806763" stop-color="#B3671F" stop-opacity="0.179254"/>
<stop offset="1" stop-color="#B3671F" stop-opacity="0"/>
</radialGradient>
<radialGradient id="paint9_radial_7159_2145" cx="0" cy="0" r="1" gradientUnits="userSpaceOnUse" gradientTransform="translate(71.2828 113.17) rotate(89.9138) scale(38.1744 32.8942)">
<stop offset="0.47452" stop-color="#B3671F"/>
<stop offset="0.781916" stop-color="#B3671F" stop-opacity="0.236695"/>
<stop offset="0.873485" stop-color="#B3671F" stop-opacity="0.0865443"/>
<stop offset="0.948588" stop-color="#B3671F" stop-opacity="0"/>
</radialGradient>
<radialGradient id="paint10_radial_7159_2145" cx="0" cy="0" r="1" gradientUnits="userSpaceOnUse" gradientTransform="translate(186.879 121.018) rotate(46.1017) scale(13.9498 11.3055)">
<stop stop-color="#D0782E"/>
<stop offset="1" stop-color="#D0782E" stop-opacity="0"/>
</radialGradient>
<radialGradient id="paint11_radial_7159_2145" cx="0" cy="0" r="1" gradientUnits="userSpaceOnUse" gradientTransform="translate(176.637 113.242) rotate(34.5742) scale(17.0449 5.8398)">
<stop stop-color="#D0782E"/>
<stop offset="1" stop-color="#D0782E" stop-opacity="0"/>
</radialGradient>
<radialGradient id="paint12_radial_7159_2145" cx="0" cy="0" r="1" gradientUnits="userSpaceOnUse" gradientTransform="translate(167.534 108.311) rotate(24.7395) scale(21.3 8.74376)">
<stop stop-color="#D0782E"/>
<stop offset="1" stop-color="#D0782E" stop-opacity="0"/>
</radialGradient>
<radialGradient id="paint13_radial_7159_2145" cx="0" cy="0" r="1" gradientUnits="userSpaceOnUse" gradientTransform="translate(141.386 119.798) rotate(105.124) scale(12.7618 9.4187)">
<stop stop-color="#E7982E"/>
<stop offset="1" stop-color="#E39632" stop-opacity="0"/>
</radialGradient>
<radialGradient id="paint14_radial_7159_2145" cx="0" cy="0" r="1" gradientUnits="userSpaceOnUse" gradientTransform="translate(199.942 94.5711) rotate(54.1967) scale(7.59525)">
<stop stop-color="#E7982E"/>
<stop offset="1" stop-color="#E39632" stop-opacity="0"/>
</radialGradient>
<radialGradient id="paint15_radial_7159_2145" cx="0" cy="0" r="1" gradientUnits="userSpaceOnUse" gradientTransform="translate(193.681 84.5737) rotate(67.5573) scale(15.0776 6.2312)">
<stop stop-color="#E7982E"/>
<stop offset="1" stop-color="#E39632" stop-opacity="0"/>
</radialGradient>
<radialGradient id="paint16_radial_7159_2145" cx="0" cy="0" r="1" gradientUnits="userSpaceOnUse" gradientTransform="translate(182.977 75.4853) rotate(35.24) scale(24.8519 10.807)">
<stop stop-color="#E2981B"/>
<stop offset="1" stop-color="#FFDC64" stop-opacity="0"/>
</radialGradient>
<radialGradient id="paint17_radial_7159_2145" cx="0" cy="0" r="1" gradientUnits="userSpaceOnUse" gradientTransform="translate(173.585 72.0518) rotate(28.8386) scale(18.2142 7.93666)">
<stop stop-color="#E2981B"/>
<stop offset="1" stop-color="#FFDC64" stop-opacity="0"/>
</radialGradient>
<radialGradient id="paint18_radial_7159_2145" cx="0" cy="0" r="1" gradientUnits="userSpaceOnUse" gradientTransform="translate(65.7963 79.8691) rotate(-8.56089) scale(35.6232)">
<stop stop-color="#D59A13"/>
<stop offset="1" stop-color="#D59A13" stop-opacity="0"/>
</radialGradient>
<linearGradient id="paint19_linear_7159_2145" x1="100.308" y1="98" x2="86.8339" y2="124.274" gradientUnits="userSpaceOnUse">
<stop stop-color="#553B3E"/>
<stop offset="1" stop-color="#3D2432"/>
</linearGradient>
<radialGradient id="paint20_radial_7159_2145" cx="0" cy="0" r="1" gradientUnits="userSpaceOnUse" gradientTransform="translate(172 119.999) rotate(90) scale(31.9981 41.0124)">
<stop offset="0.337213" stop-color="#4D274B"/>
<stop offset="0.628228" stop-color="#514047"/>
<stop offset="1" stop-color="#4E2553"/>
<stop offset="1" stop-color="#4A342F"/>
</radialGradient>
<radialGradient id="paint21_radial_7159_2145" cx="0" cy="0" r="1" gradientUnits="userSpaceOnUse" gradientTransform="translate(128 220.444) rotate(-90) scale(68.4444 136.889)">
<stop stop-color="#F70A8D"/>
<stop offset="1" stop-color="#89029C"/>
</radialGradient>
<radialGradient id="paint22_radial_7159_2145" cx="0" cy="0" r="1" gradientUnits="userSpaceOnUse" gradientTransform="translate(177.787 91.9843) rotate(-145.524) scale(31.5325 28.8791)">
<stop offset="0.641397" stop-color="#2F1F2A"/>
<stop offset="0.822285" stop-color="#51394C"/>
<stop offset="0.881253" stop-color="#50394C"/>
<stop offset="1" stop-color="#442E3E"/>
</radialGradient>
<radialGradient id="paint23_radial_7159_2145" cx="0" cy="0" r="1" gradientUnits="userSpaceOnUse" gradientTransform="translate(186.494 80.0005) rotate(129.805) scale(32.4215 26.1572)">
<stop offset="0.645531" stop-color="#362530" stop-opacity="0"/>
<stop offset="1" stop-color="#342330"/>
</radialGradient>
<radialGradient id="paint24_radial_7159_2145" cx="0" cy="0" r="1" gradientUnits="userSpaceOnUse" gradientTransform="translate(78.8531 78.5252) rotate(-124.747) scale(27.2815 34.2811)">
<stop offset="0.552138" stop-color="#4A2F37"/>
<stop offset="0.822285" stop-color="#51394C"/>
<stop offset="0.881253" stop-color="#50394C"/>
<stop offset="1" stop-color="#4D3635"/>
</radialGradient>
<radialGradient id="paint25_radial_7159_2145" cx="0" cy="0" r="1" gradientUnits="userSpaceOnUse" gradientTransform="translate(86.0226 52.9899) rotate(-176.165) scale(3.31185 6.22855)">
<stop stop-color="#5A4950"/>
<stop offset="1" stop-color="#5D4C4F" stop-opacity="0"/>
</radialGradient>
<linearGradient id="paint26_linear_7159_2145" x1="128" y1="152" x2="128" y2="164" gradientUnits="userSpaceOnUse">
<stop stop-color="#ECCDFF"/>
<stop offset="1" stop-color="white"/>
</linearGradient>
<clipPath id="clip0_7159_2145">
<rect width="256" height="256" fill="white"/>
</clipPath>
</defs>
</svg>
