<svg width="256" height="256" viewBox="0 0 256 256" fill="none" xmlns="http://www.w3.org/2000/svg">
<g clip-path="url(#clip0_7159_2148)">
<path d="M127.991 239.982C202.667 239.982 239.982 189.842 239.982 127.991C239.982 66.1401 202.667 16 127.991 16C53.3155 16 16 66.1401 16 127.991C16 189.842 53.3155 239.982 127.991 239.982Z" fill="url(#paint0_radial_7159_2148)"/>
<path d="M127.991 239.982C202.667 239.982 239.982 189.842 239.982 127.991C239.982 66.1401 202.667 16 127.991 16C53.3155 16 16 66.1401 16 127.991C16 189.842 53.3155 239.982 127.991 239.982Z" fill="url(#paint1_radial_7159_2148)"/>
<path d="M127.991 239.982C202.667 239.982 239.982 189.842 239.982 127.991C239.982 66.1401 202.667 16 127.991 16C53.3155 16 16 66.1401 16 127.991C16 189.842 53.3155 239.982 127.991 239.982Z" fill="url(#paint2_radial_7159_2148)" fill-opacity="0.6"/>
<path d="M127.991 239.982C202.667 239.982 239.982 189.842 239.982 127.991C239.982 66.1401 202.667 16 127.991 16C53.3155 16 16 66.1401 16 127.991C16 189.842 53.3155 239.982 127.991 239.982Z" fill="url(#paint3_radial_7159_2148)"/>
<path d="M127.991 239.982C202.667 239.982 239.982 189.842 239.982 127.991C239.982 66.1401 202.667 16 127.991 16C53.3155 16 16 66.1401 16 127.991C16 189.842 53.3155 239.982 127.991 239.982Z" fill="url(#paint4_radial_7159_2148)"/>
<path d="M127.991 239.982C202.667 239.982 239.982 189.842 239.982 127.991C239.982 66.1401 202.667 16 127.991 16C53.3155 16 16 66.1401 16 127.991C16 189.842 53.3155 239.982 127.991 239.982Z" fill="url(#paint5_radial_7159_2148)"/>
<path d="M127.991 239.982C202.667 239.982 239.982 189.842 239.982 127.991C239.982 66.1401 202.667 16 127.991 16C53.3155 16 16 66.1401 16 127.991C16 189.842 53.3155 239.982 127.991 239.982Z" fill="url(#paint6_radial_7159_2148)"/>
<path fill-rule="evenodd" clip-rule="evenodd" d="M88.7501 113.25C97.5204 113.25 100.338 118.828 100.736 120.429C101.801 124.717 106.141 127.329 110.429 126.264C114.717 125.199 117.329 120.859 116.264 116.571C114.467 109.339 106.313 97.25 88.7501 97.25C71.1871 97.25 63.0329 109.339 61.2361 116.571C60.1708 120.859 62.7833 125.199 67.0713 126.264C71.3592 127.329 75.6988 124.717 76.7641 120.429C77.1617 118.828 79.9797 113.25 88.7501 113.25Z" fill="url(#paint7_radial_7159_2148)"/>
<path d="M150.45 137.365C157.57 134.725 165.25 133.125 173.33 133.125C181.41 133.125 189.09 134.645 196.13 137.365C202.93 131.125 207.25 122.325 207.25 112.325C207.25 93.5252 192.05 78.3252 173.25 78.3252C154.45 78.3252 139.25 93.5252 139.25 112.325C139.33 122.325 143.65 131.205 150.45 137.365Z" fill="white"/>
<path d="M169.67 128C178.506 128 185.67 120.837 185.67 112C185.67 103.163 178.506 96 169.67 96C160.833 96 153.67 103.163 153.67 112C153.67 120.837 160.833 128 169.67 128Z" fill="url(#paint8_linear_7159_2148)"/>
<path fill-rule="evenodd" clip-rule="evenodd" d="M88 68C88 65.7909 86.2091 64 84 64C77.806 64 70.06 66.2744 63.3232 70.6442C56.5368 75.0461 50.4242 81.8109 48.1194 91.0299C47.5836 93.173 48.8867 95.3448 51.0299 95.8806C53.173 96.4164 55.3448 95.1133 55.8806 92.9701C57.5758 86.1891 62.1298 80.9539 67.6768 77.3558C73.2734 73.7256 79.5273 72 84 72C86.2091 72 88 70.2091 88 68Z" fill="url(#paint9_linear_7159_2148)"/>
<path fill-rule="evenodd" clip-rule="evenodd" d="M191.446 63.9009C196.189 68.404 199.057 73.8219 200.205 77.2649C200.904 79.3607 203.169 80.4933 205.265 79.7947C207.361 79.0961 208.493 76.8309 207.795 74.7351C206.276 70.1781 202.744 63.596 196.954 58.0991C191.096 52.5376 182.817 48 172 48C169.791 48 168 49.7909 168 52C168 54.2091 169.791 56 172 56C180.383 56 186.771 59.4624 191.446 63.9009Z" fill="url(#paint10_linear_7159_2148)"/>
<path d="M127.99 208C71.9902 208 71.9902 152 71.9902 152H183.99C183.99 152 183.99 208 127.99 208Z" fill="url(#paint11_radial_7159_2148)"/>
<path d="M128.124 232C161.724 232 167.084 198.4 168.124 190C168.924 183.2 165.324 179.76 161.404 177.44C157.484 175.12 145.724 172.96 128.124 172.96C110.524 172.96 98.844 175.12 94.844 177.44C90.844 179.76 87.244 183.2 88.124 190C89.164 198.4 94.524 232 128.124 232Z" fill="url(#paint12_radial_7159_2148)"/>
<g opacity="0.5" filter="url(#filter0_f_7159_2148)">
<path d="M144 212C152 208 160 200 160 188" stroke="white"/>
</g>
<path d="M182.87 163.44C183.59 159.76 183.99 155.92 183.99 152C146.71 152 94.7102 152 71.9902 152C71.9902 155.92 72.3902 159.68 73.1102 163.44H182.87Z" fill="url(#paint13_linear_7159_2148)"/>
</g>
<defs>
<filter id="filter0_f_7159_2148" x="142.776" y="187" width="18.7236" height="26.4473" filterUnits="userSpaceOnUse" color-interpolation-filters="sRGB">
<feFlood flood-opacity="0" result="BackgroundImageFix"/>
<feBlend mode="normal" in="SourceGraphic" in2="BackgroundImageFix" result="shape"/>
<feGaussianBlur stdDeviation="0.5" result="effect1_foregroundBlur_7159_2148"/>
</filter>
<radialGradient id="paint0_radial_7159_2148" cx="0" cy="0" r="1" gradientUnits="userSpaceOnUse" gradientTransform="translate(204 72) rotate(131.878) scale(311.589)">
<stop stop-color="#FFF478"/>
<stop offset="0.474827" stop-color="#FFB02E"/>
<stop offset="1" stop-color="#F70A8D"/>
</radialGradient>
<radialGradient id="paint1_radial_7159_2148" cx="0" cy="0" r="1" gradientUnits="userSpaceOnUse" gradientTransform="translate(128 100) rotate(101.31) scale(142.773 182.864)">
<stop offset="0.787821" stop-color="#F59639" stop-opacity="0"/>
<stop offset="0.972509" stop-color="#FF7DCE"/>
</radialGradient>
<radialGradient id="paint2_radial_7159_2148" cx="0" cy="0" r="1" gradientUnits="userSpaceOnUse" gradientTransform="translate(144 112) rotate(135) scale(328.098)">
<stop offset="0.314853" stop-opacity="0"/>
<stop offset="1"/>
</radialGradient>
<radialGradient id="paint3_radial_7159_2148" cx="0" cy="0" r="1" gradientUnits="userSpaceOnUse" gradientTransform="translate(128 136) rotate(77.692) scale(225.175)">
<stop offset="0.507903" stop-color="#7D6133" stop-opacity="0"/>
<stop offset="1" stop-color="#715B32"/>
</radialGradient>
<radialGradient id="paint4_radial_7159_2148" cx="0" cy="0" r="1" gradientUnits="userSpaceOnUse" gradientTransform="translate(132 132) rotate(55.7131) scale(106.508 77.2025)">
<stop stop-color="#FFB849"/>
<stop offset="1" stop-color="#FFB847" stop-opacity="0"/>
</radialGradient>
<radialGradient id="paint5_radial_7159_2148" cx="0" cy="0" r="1" gradientUnits="userSpaceOnUse" gradientTransform="translate(164 144) rotate(9.86581) scale(93.3809)">
<stop stop-color="#FFA64B"/>
<stop offset="0.900412" stop-color="#FFAE46" stop-opacity="0"/>
</radialGradient>
<radialGradient id="paint6_radial_7159_2148" cx="0" cy="0" r="1" gradientUnits="userSpaceOnUse" gradientTransform="translate(140 120) rotate(43.9708) scale(472.424)">
<stop offset="0.185425" stop-opacity="0"/>
<stop offset="1" stop-opacity="0.4"/>
</radialGradient>
<radialGradient id="paint7_radial_7159_2148" cx="0" cy="0" r="1" gradientUnits="userSpaceOnUse" gradientTransform="translate(88.7501 118.5) rotate(90) scale(26.5 38.5735)">
<stop offset="0.337213" stop-color="#4D274B"/>
<stop offset="0.628228" stop-color="#514047"/>
<stop offset="1" stop-color="#4E2553"/>
<stop offset="1" stop-color="#4A342F"/>
</radialGradient>
<linearGradient id="paint8_linear_7159_2148" x1="181.978" y1="96" x2="168.504" y2="122.274" gradientUnits="userSpaceOnUse">
<stop stop-color="#553B3E"/>
<stop offset="1" stop-color="#3D2432"/>
</linearGradient>
<linearGradient id="paint9_linear_7159_2148" x1="81.3333" y1="99.2" x2="81.3333" y2="84.8" gradientUnits="userSpaceOnUse">
<stop offset="0.0299084" stop-color="#524049"/>
<stop offset="1" stop-color="#4A2C42"/>
</linearGradient>
<linearGradient id="paint10_linear_7159_2148" x1="201.333" y1="83.2" x2="201.333" y2="68.8" gradientUnits="userSpaceOnUse">
<stop offset="0.0299084" stop-color="#524049"/>
<stop offset="1" stop-color="#4A2C42"/>
</linearGradient>
<radialGradient id="paint11_radial_7159_2148" cx="0" cy="0" r="1" gradientUnits="userSpaceOnUse" gradientTransform="translate(127.99 220.444) rotate(-90) scale(68.4444 136.889)">
<stop stop-color="#F70A8D"/>
<stop offset="1" stop-color="#89029C"/>
</radialGradient>
<radialGradient id="paint12_radial_7159_2148" cx="0" cy="0" r="1" gradientUnits="userSpaceOnUse" gradientTransform="translate(132 240) rotate(-93.0128) scale(76.1052 132.303)">
<stop stop-color="#FF1C4A"/>
<stop offset="0.765733" stop-color="#FF2B8F"/>
<stop offset="0.864496" stop-color="#BB0773"/>
<stop offset="0.886239" stop-color="#9F0762"/>
</radialGradient>
<linearGradient id="paint13_linear_7159_2148" x1="127.99" y1="152" x2="127.99" y2="163.44" gradientUnits="userSpaceOnUse">
<stop stop-color="#ECCDFF"/>
<stop offset="1" stop-color="white"/>
</linearGradient>
<clipPath id="clip0_7159_2148">
<rect width="256" height="256" fill="white"/>
</clipPath>
</defs>
</svg>
