<svg width="256" height="256" viewBox="0 0 256 256" fill="none" xmlns="http://www.w3.org/2000/svg">
<path d="M202.658 189.938C202.658 198.592 195.107 205.637 185.775 205.637H173.576C173.997 206.946 174.24 208.316 174.24 209.761V241.144C174.24 249.347 167.063 256 158.217 256C149.387 256 142.225 249.347 142.225 241.144V209.761C142.225 208.316 142.452 206.946 142.857 205.637H113.143C113.548 206.946 113.791 208.316 113.791 209.761V241.144C113.791 249.347 106.614 256 97.7839 256C88.954 256 81.7761 249.347 81.7761 241.144V209.761C81.7761 208.316 82.0034 206.946 82.4246 205.637H70.241C60.9087 205.637 53.3425 198.592 53.3425 189.938V80.9326H202.658V189.938ZM26.6746 80.9326C35.5042 80.9328 42.6647 87.5851 42.6648 95.7881V159.382C42.6648 167.585 35.5043 174.238 26.6746 174.238C17.8284 174.238 10.6667 167.585 10.6667 159.382V95.7881C10.6669 87.585 17.8285 80.9326 26.6746 80.9326ZM229.343 80.9326C238.172 80.9327 245.334 87.5851 245.334 95.7881V159.382C245.334 167.585 238.172 174.238 229.343 174.238C220.496 174.238 213.335 167.585 213.335 159.382V95.7881C213.335 87.585 220.496 80.9326 229.343 80.9326ZM172.912 1.1123C173.706 -0.0314079 175.375 -0.347655 176.59 0.419922C177.821 1.17252 178.161 2.70773 177.335 3.85156L170.692 13.124L167.711 17.248L164.729 21.4326C187.347 31.2313 202.658 49.7902 202.658 71.0283H53.3425C53.3425 49.7902 68.653 31.2313 91.2869 21.4326L88.2898 17.248L85.3083 13.124L78.6658 3.85156C77.8558 2.70764 78.1958 1.1725 79.4109 0.419922C80.6422 -0.332634 82.2945 -0.0314715 83.1208 1.1123L90.2498 11.0469L93.2468 15.2158L96.2771 19.4609C105.917 15.984 116.675 14.042 128 14.042C139.341 14.042 150.083 15.984 159.723 19.4609L162.769 15.2158L172.912 1.1123ZM96.0017 36.3486C91.5786 36.3486 87.9978 39.6604 87.9978 43.7695C87.998 47.8785 91.5787 51.2051 96.0017 51.2051C100.425 51.205 104.005 47.8785 104.006 43.7695C104.006 39.6604 100.425 36.3487 96.0017 36.3486ZM159.999 36.3486C155.576 36.3486 151.995 39.6604 151.995 43.7695C151.995 47.8785 155.576 51.2051 159.999 51.2051C164.422 51.205 168.003 47.8785 168.003 43.7695C168.003 39.6604 164.422 36.3487 159.999 36.3486Z" fill="#A4C639"/>
</svg>
