<svg width="256" height="256" viewBox="0 0 256 256" fill="none" xmlns="http://www.w3.org/2000/svg">
<path d="M179.722 59.9238C196.684 59.9239 214.653 69.4524 227.441 85.8896C185.517 109.582 192.305 171.312 234.666 187.825C228.842 201.132 226.039 207.077 218.536 218.863C208.07 235.316 193.312 255.802 175.007 255.953C158.76 256.134 154.57 245.04 132.514 245.176C110.457 245.296 105.858 256.164 89.5823 255.998C71.2917 255.832 57.3074 237.348 46.8411 220.896C17.5586 174.925 14.4783 120.962 32.5354 92.2568C45.3812 71.8757 65.6429 59.9541 84.678 59.9541C104.048 59.9543 116.237 70.9119 132.28 70.9121C147.84 70.9121 157.315 59.9238 179.722 59.9238ZM174.817 0C177.05 15.549 170.876 30.782 162.731 41.5596C154.016 53.1199 138.994 62.0614 124.441 61.5947C121.784 46.7079 128.587 31.3695 136.864 21.0586C145.943 9.67899 161.504 0.948433 174.817 0Z" fill="black"/>
</svg>
