<svg width="256" height="256" viewBox="0 0 256 256" fill="none" xmlns="http://www.w3.org/2000/svg">
<path fill-rule="evenodd" clip-rule="evenodd" d="M99.2546 18.57C112.636 -6.34029 147.647 -6.14985 160.769 18.9046L172.321 40.9609L198.583 38.1285C225.029 35.2761 244.8 62.4797 234.545 87.6113L224.864 111.338L245.625 130.967C263.821 148.171 257.042 179.096 233.412 186.681L206.284 195.389L204.833 224.319C203.565 249.604 176.11 264.059 155.298 250.401L128.24 232.643L100.365 250.803C79.6261 264.314 52.3498 250.007 50.9314 224.874L49.261 195.275L22.761 186.936C-1.33798 179.353 -7.96927 147.63 10.9857 130.604L31.5506 112.133L21.724 86.7878C12.0254 61.7728 31.6921 35.1391 57.8322 37.8881L87.2172 40.9783L99.2546 18.57ZM79.8867 54.6244L56.4021 52.1547C40.7181 50.5053 28.918 66.4855 34.7372 81.4945L42.7247 102.096L51.3845 94.318C60.563 86.0739 68.2679 76.2536 74.1528 65.2984L79.8867 54.6244ZM48.21 116.244L60.6162 105.101C71.0185 95.7576 79.7506 84.6279 86.4203 72.212L95.0135 56.2152L117.933 58.6255C126.118 59.4863 134.368 59.4753 142.552 58.5927L164.431 56.2329L173.117 72.8174C179.376 84.7684 187.539 95.5658 197.268 104.765L208.166 115.069L202.614 128.676C197.33 141.626 194.269 155.412 193.566 169.429L192.801 184.688L174.214 190.655C164.251 193.853 154.743 198.38 145.933 204.119L128.267 215.628L111.245 204.457C102.153 198.49 92.3111 193.819 81.9895 190.571L62.6777 184.494L61.7439 167.948C61.0091 154.927 58.2391 142.112 53.5394 129.99L48.21 116.244ZM37.0359 126.281L20.2173 141.387C9.50369 151.01 13.2518 168.941 26.873 173.227L48.399 180.001L47.7655 168.775C47.1171 157.287 44.6729 145.979 40.5262 135.283L37.0359 126.281ZM63.5397 199.768L64.9098 224.046C65.7115 238.252 81.1286 246.338 92.8507 238.702L115.243 224.114L103.691 216.533C95.669 211.268 86.9848 207.146 77.8775 204.28L63.5397 199.768ZM141.264 224.158L162.851 238.325C174.615 246.045 190.133 237.875 190.85 223.584L192.034 199.964L178.401 204.34C169.611 207.162 161.221 211.156 153.448 216.221L141.264 224.158ZM207.05 180.114L229.225 172.996C242.581 168.708 246.412 151.229 236.127 141.505L219.117 125.422L215.533 134.207C210.871 145.633 208.17 157.797 207.55 170.165L207.05 180.114ZM213.913 100.985L221.627 82.0809C227.779 67.002 215.917 50.6798 200.049 52.3913L179.47 54.6108L185.455 66.0376C190.978 76.5826 198.181 86.1097 206.765 94.2264L213.913 100.985ZM157.282 42.5831L141.085 44.3299C133.865 45.1087 126.585 45.1184 119.363 44.3588L102.344 42.5691L111.522 25.4836C119.551 10.5375 140.557 10.6517 148.431 25.6844L157.282 42.5831Z" fill="url(#paint0_linear_7159_5286)"/>
<path fill-rule="evenodd" clip-rule="evenodd" d="M99.2546 18.57C112.636 -6.34029 147.647 -6.14985 160.769 18.9046L172.321 40.9609L198.583 38.1285C225.029 35.2761 244.8 62.4797 234.545 87.6113L224.864 111.338L245.625 130.967C263.821 148.171 257.042 179.096 233.412 186.681L206.284 195.389L204.833 224.319C203.565 249.604 176.11 264.059 155.298 250.401L128.24 232.643L100.365 250.803C79.6261 264.314 52.3498 250.007 50.9314 224.874L49.261 195.275L22.761 186.936C-1.33798 179.353 -7.96927 147.63 10.9857 130.604L31.5506 112.133L21.724 86.7878C12.0254 61.7728 31.6921 35.1391 57.8322 37.8881L87.2172 40.9783L99.2546 18.57ZM79.8867 54.6244L56.4021 52.1547C40.7181 50.5053 28.918 66.4855 34.7372 81.4945L42.7247 102.096L51.3845 94.318C60.563 86.0739 68.2679 76.2536 74.1528 65.2984L79.8867 54.6244ZM48.21 116.244L60.6162 105.101C71.0185 95.7576 79.7506 84.6279 86.4203 72.212L95.0135 56.2152L117.933 58.6255C126.118 59.4863 134.368 59.4753 142.552 58.5927L164.431 56.2329L173.117 72.8174C179.376 84.7684 187.539 95.5658 197.268 104.765L208.166 115.069L202.614 128.676C197.33 141.626 194.269 155.412 193.566 169.429L192.801 184.688L174.214 190.655C164.251 193.853 154.743 198.38 145.933 204.119L128.267 215.628L111.245 204.457C102.153 198.49 92.3111 193.819 81.9895 190.571L62.6777 184.494L61.7439 167.948C61.0091 154.927 58.2391 142.112 53.5394 129.99L48.21 116.244ZM37.0359 126.281L20.2173 141.387C9.50369 151.01 13.2518 168.941 26.873 173.227L48.399 180.001L47.7655 168.775C47.1171 157.287 44.6729 145.979 40.5262 135.283L37.0359 126.281ZM63.5397 199.768L64.9098 224.046C65.7115 238.252 81.1286 246.338 92.8507 238.702L115.243 224.114L103.691 216.533C95.669 211.268 86.9848 207.146 77.8775 204.28L63.5397 199.768ZM141.264 224.158L162.851 238.325C174.615 246.045 190.133 237.875 190.85 223.584L192.034 199.964L178.401 204.34C169.611 207.162 161.221 211.156 153.448 216.221L141.264 224.158ZM207.05 180.114L229.225 172.996C242.581 168.708 246.412 151.229 236.127 141.505L219.117 125.422L215.533 134.207C210.871 145.633 208.17 157.797 207.55 170.165L207.05 180.114ZM213.913 100.985L221.627 82.0809C227.779 67.002 215.917 50.6798 200.049 52.3913L179.47 54.6108L185.455 66.0376C190.978 76.5826 198.181 86.1097 206.765 94.2264L213.913 100.985ZM157.282 42.5831L141.085 44.3299C133.865 45.1087 126.585 45.1184 119.363 44.3588L102.344 42.5691L111.522 25.4836C119.551 10.5375 140.557 10.6517 148.431 25.6844L157.282 42.5831Z" fill="url(#paint1_linear_7159_5286)"/>
<defs>
<linearGradient id="paint0_linear_7159_5286" x1="196.267" y1="21.8182" x2="68.9519" y2="247.763" gradientUnits="userSpaceOnUse">
<stop stop-color="#FF1080"/>
<stop offset="0.963543" stop-color="#42C4FF"/>
</linearGradient>
<linearGradient id="paint1_linear_7159_5286" x1="55.4667" y1="32" x2="259.214" y2="181.061" gradientUnits="userSpaceOnUse">
<stop stop-color="#FF9124"/>
<stop offset="0.225429" stop-color="#FF9798" stop-opacity="0.519085"/>
<stop offset="0.375" stop-color="#EE988B" stop-opacity="0.2"/>
<stop offset="0.515" stop-color="#ED90A9" stop-opacity="0"/>
<stop offset="0.610586" stop-color="#EC88C5" stop-opacity="0.2"/>
<stop offset="1" stop-color="#EA7AFA"/>
</linearGradient>
</defs>
</svg>
