<svg width="256" height="256" viewBox="0 0 256 256" fill="none" xmlns="http://www.w3.org/2000/svg">
<g clip-path="url(#clip0_7159_5289)">
<path d="M0 64C0 28.6538 28.6538 0 64 0H192C227.346 0 256 28.6538 256 64V192C256 227.346 227.346 256 192 256H64C28.6538 256 0 227.346 0 192V64Z" fill="white"/>
<path d="M0 64C0 28.6538 28.6538 0 64 0H192C227.346 0 256 28.6538 256 64V192C256 227.346 227.346 256 192 256H64C28.6538 256 0 227.346 0 192V64Z" fill="url(#paint0_radial_7159_5289)"/>
<path d="M0 64C0 28.6538 28.6538 0 64 0H192C227.346 0 256 28.6538 256 64V192C256 227.346 227.346 256 192 256H64C28.6538 256 0 227.346 0 192V64Z" fill="url(#paint1_radial_7159_5289)"/>
<path d="M0 64C0 28.6538 28.6538 0 64 0H192C227.346 0 256 28.6538 256 64V192C256 227.346 227.346 256 192 256H64C28.6538 256 0 227.346 0 192V64Z" fill="url(#paint2_radial_7159_5289)"/>
<path d="M0 64C0 28.6538 28.6538 0 64 0H192C227.346 0 256 28.6538 256 64V192C256 227.346 227.346 256 192 256H64C28.6538 256 0 227.346 0 192V64Z" fill="url(#paint3_radial_7159_5289)"/>
<path d="M0 64C0 28.6538 28.6538 0 64 0H192C227.346 0 256 28.6538 256 64V192C256 227.346 227.346 256 192 256H64C28.6538 256 0 227.346 0 192V64Z" fill="url(#paint4_radial_7159_5289)"/>
<path d="M0 64C0 28.6538 28.6538 0 64 0H192C227.346 0 256 28.6538 256 64V192C256 227.346 227.346 256 192 256H64C28.6538 256 0 227.346 0 192V64Z" fill="url(#paint5_radial_7159_5289)"/>
<path d="M0 64C0 28.6538 28.6538 0 64 0H192C227.346 0 256 28.6538 256 64V192C256 227.346 227.346 256 192 256H64C28.6538 256 0 227.346 0 192V64Z" fill="url(#paint6_radial_7159_5289)"/>
<path d="M0 64C0 28.6538 28.6538 0 64 0H192C227.346 0 256 28.6538 256 64V192C256 227.346 227.346 256 192 256H64C28.6538 256 0 227.346 0 192V64Z" fill="url(#paint7_radial_7159_5289)" style="mix-blend-mode:soft-light"/>
<path d="M223.921 123.942C222.85 98.8547 212 75.1849 193.695 58.0033C175.391 40.8217 151.087 31.4949 125.992 32.0211C100.897 32.5473 77.0058 42.8846 59.437 60.8184C41.8682 78.7522 32.0192 102.856 32 127.966C32 128.149 32.2941 138.925 33.0335 144.206C33.8285 149.773 37.5411 161.05 37.9307 161.273C45.7183 182.331 60.6339 199.994 80.0863 211.195C99.5387 222.395 122.299 226.425 144.412 222.584C166.526 218.743 186.596 207.273 201.135 190.168C215.674 173.063 223.765 151.404 224 128.952C224 128.753 223.936 124.26 223.921 123.942ZM128.083 209.889C114.341 209.899 100.817 206.449 88.7581 199.857C76.6987 193.265 66.4918 183.743 59.0776 172.168C63.9604 174.16 69.1725 175.22 74.445 175.294C93.5249 175.103 110.053 169.313 125.524 159.126C130.58 155.801 137.623 150.004 142.505 146.449L130.969 135.951C119.577 144.063 101.499 157.01 87.3557 159.285C71.8374 161.782 56.9232 158.036 49.7046 143.379C47.7403 139.302 46.536 134.901 46.151 130.392C46.151 129.596 46.1112 128.753 46.1112 127.926C46.1112 125.652 46.2146 123.393 46.3974 121.166C47.9 110.493 53.767 100.632 64.3564 96.3452C75.4864 91.8439 86.5607 93.013 97.2455 97.9358C110.268 103.901 120.102 114.096 130.516 123.512C140.183 132.261 150.391 140.373 159.756 149.447C174.75 164.033 190.761 165.44 202.988 161.233C196.542 175.72 186.036 188.026 172.741 196.662C159.447 205.298 143.935 209.892 128.083 209.889ZM202.622 144.675L202.551 144.731C199.7 146.906 196.171 148.002 192.59 147.824H192.343C190.848 147.827 189.358 147.646 187.907 147.284H187.82C176.745 145.081 168.485 138.066 160.384 130.877C147.879 119.743 135.819 108.155 122.908 97.562C111.428 88.0981 98.2631 82.03 83.015 80.3281C74.3973 79.3578 63.1401 83.2627 57.8295 85.6247C65.7934 72.387 77.3327 61.6686 91.1186 54.7034C104.905 47.7383 120.377 44.8097 135.753 46.2548C151.13 47.7 165.786 53.4602 178.034 62.8721C190.282 72.284 199.624 84.9649 204.984 99.4548C197.471 96.7667 186.436 95.3511 176.952 100.894C169.757 105.093 163.103 109.245 155.32 114.637C159.112 118.263 166.617 124.809 166.617 124.809C170.059 122.312 184.735 110.493 193.416 110.859C195.628 110.858 197.814 111.33 199.827 112.246C201.84 113.161 203.634 114.497 205.087 116.164C207.067 118.065 208.596 120.385 209.562 122.955C210.529 125.524 210.908 128.278 210.671 131.013C210.435 133.748 209.589 136.396 208.197 138.761C206.804 141.127 204.899 143.15 202.622 144.683V144.675Z" fill="white"/>
</g>
<defs>
<radialGradient id="paint0_radial_7159_5289" cx="0" cy="0" r="1" gradientUnits="userSpaceOnUse" gradientTransform="translate(226.844 21.6889) rotate(137.811) scale(210.185)">
<stop stop-color="#F7306E"/>
<stop offset="1" stop-color="#F7306E" stop-opacity="0"/>
</radialGradient>
<radialGradient id="paint1_radial_7159_5289" cx="0" cy="0" r="1" gradientUnits="userSpaceOnUse" gradientTransform="translate(226.844 21.6889) rotate(137.811) scale(210.185)">
<stop stop-color="#F7306E"/>
<stop offset="1" stop-color="#F7306E" stop-opacity="0"/>
</radialGradient>
<radialGradient id="paint2_radial_7159_5289" cx="0" cy="0" r="1" gradientUnits="userSpaceOnUse" gradientTransform="translate(221.511 219.022) rotate(-130.284) scale(174.318)">
<stop stop-color="#EB78F9"/>
<stop offset="1" stop-color="#EB78F9" stop-opacity="0"/>
</radialGradient>
<radialGradient id="paint3_radial_7159_5289" cx="0" cy="0" r="1" gradientUnits="userSpaceOnUse" gradientTransform="translate(221.511 219.022) rotate(-130.284) scale(174.318)">
<stop stop-color="#EB78F9"/>
<stop offset="1" stop-color="#EB78F9" stop-opacity="0"/>
</radialGradient>
<radialGradient id="paint4_radial_7159_5289" cx="0" cy="0" r="1" gradientTransform="matrix(196.267 -204.444 214.726 197.421 33.0667 235.733)" gradientUnits="userSpaceOnUse">
<stop stop-color="#00AEFF"/>
<stop offset="1" stop-color="#3963F9" stop-opacity="0"/>
</radialGradient>
<radialGradient id="paint5_radial_7159_5289" cx="0" cy="0" r="1" gradientUnits="userSpaceOnUse" gradientTransform="translate(26.6667 19.2) rotate(42.3246) scale(161.585)">
<stop stop-color="#F1A455"/>
<stop offset="1" stop-color="#F1A455" stop-opacity="0"/>
</radialGradient>
<radialGradient id="paint6_radial_7159_5289" cx="0" cy="0" r="1" gradientUnits="userSpaceOnUse" gradientTransform="translate(26.6667 19.2) rotate(42.3246) scale(161.585)">
<stop stop-color="#F1A455"/>
<stop offset="1" stop-color="#F1A455" stop-opacity="0"/>
</radialGradient>
<radialGradient id="paint7_radial_7159_5289" cx="0" cy="0" r="1" gradientTransform="matrix(256 -75.0222 82.8771 261.758 -6.04443 158.578)" gradientUnits="userSpaceOnUse">
<stop stop-color="#FFF8E4"/>
<stop offset="1" stop-color="#FFF8E4" stop-opacity="0"/>
</radialGradient>
<clipPath id="clip0_7159_5289">
<rect width="256" height="256" fill="white"/>
</clipPath>
</defs>
</svg>
