<svg width="256" height="256" viewBox="0 0 256 256" fill="none" xmlns="http://www.w3.org/2000/svg">
<path d="M0 128C0 57.3076 57.3076 0 128 0C198.692 0 256 57.3076 256 128C256 198.692 198.692 256 128 256C57.3076 256 0 198.692 0 128Z" fill="#2E2882"/>
<path d="M162.818 171.874L176.764 162.879V172.963L130.228 200.533L83.6931 172.963V162.879L97.6394 171.874L130.228 145.156L162.818 171.874ZM130.133 139.391V139.392L97.6384 166.188L51.2 136.232L83.3103 110.826L130.133 139.391ZM209.066 136.231L162.628 166.188L130.133 139.392V139.391L176.958 110.827L209.066 136.231ZM130.132 82.2617L83.3103 110.826L51.2 85.4229L97.6384 55.4668L130.132 82.2617ZM209.066 85.4229L176.957 110.826L130.134 82.2617L162.629 55.4668L209.066 85.4229Z" fill="#FEB0A5"/>
</svg>
