<svg width="256" height="256" viewBox="0 0 256 256" fill="none" xmlns="http://www.w3.org/2000/svg">
<path d="M0 128C0 57.3077 57.3077 0 128 0C198.692 0 256 57.3077 256 128C256 198.692 198.692 256 128 256C57.3077 256 0 198.692 0 128Z" fill="#303030"/>
<path d="M99.1999 217.6C115.106 217.6 128 204.706 128 188.8V160H99.1999C83.2941 160 70.3999 172.894 70.3999 188.8C70.3999 204.706 83.2941 217.6 99.1999 217.6Z" fill="#0ACF83"/>
<path d="M70.3999 131.2C70.3999 115.295 83.2941 102.4 99.1999 102.4H128V160H99.1999C83.2941 160 70.3999 147.106 70.3999 131.2Z" fill="#A259FF"/>
<path d="M70.3999 73.6008C70.3999 57.695 83.2941 44.8008 99.1999 44.8008H128V102.401H99.1999C83.2941 102.401 70.3999 89.5066 70.3999 73.6008Z" fill="#F25022"/>
<path d="M128 44.8008H156.8C172.706 44.8008 185.6 57.695 185.6 73.6008C185.6 89.5066 172.706 102.401 156.8 102.401H128V44.8008Z" fill="#FF7262"/>
<path d="M185.6 131.2C185.6 147.106 172.706 160 156.8 160C140.894 160 128 147.106 128 131.2C128 115.295 140.894 102.4 156.8 102.4C172.706 102.4 185.6 115.295 185.6 131.2Z" fill="#1ABCFE"/>
</svg>
