<svg width="256" height="256" viewBox="0 0 256 256" fill="none" xmlns="http://www.w3.org/2000/svg">
<path fill-rule="evenodd" clip-rule="evenodd" d="M127.988 0C57.3071 0 0 57.3071 0 128.004C0 184.557 36.6725 232.529 87.5361 249.462C93.9403 250.633 96.274 246.681 96.274 243.286C96.274 240.253 96.164 232.199 96.1012 221.52C60.4974 229.252 52.9853 204.358 52.9853 204.358C47.1626 189.578 38.7705 185.641 38.7705 185.641C27.1488 177.697 39.6506 177.854 39.6506 177.854C52.4981 178.765 59.2558 191.047 59.2558 191.047C70.6733 210.605 89.2177 204.956 96.5098 201.687C97.6727 193.412 100.973 187.77 104.635 184.572C76.213 181.343 46.3297 170.358 46.3297 121.309C46.3297 107.338 51.3194 95.9126 59.5073 86.9625C58.1872 83.7251 53.7947 70.7125 60.7567 53.0874C60.7567 53.0874 71.5062 49.6457 95.9597 66.21C106.167 63.3733 117.121 61.9511 128.004 61.9039C138.871 61.9511 149.825 63.3733 160.048 66.21C184.486 49.6457 195.212 53.0874 195.212 53.0874C202.197 70.7125 197.805 83.7251 196.485 86.9625C204.688 95.9126 209.647 107.338 209.647 121.309C209.647 170.483 179.716 181.303 151.2 184.47C155.797 188.423 159.891 196.233 159.891 208.177C159.891 225.284 159.734 239.09 159.734 243.286C159.734 246.712 162.036 250.696 168.535 249.447C219.359 232.481 256 184.541 256 128.004C256 57.3071 198.685 0 127.988 0Z" fill="black"/>
</svg>
