<svg width="256" height="256" viewBox="0 0 256 256" fill="none" xmlns="http://www.w3.org/2000/svg">
<path d="M98.8699 164.722L183.977 103.296C188.15 100.285 194.113 101.46 196.102 106.137C206.565 130.806 201.89 160.451 181.072 180.805C160.254 201.159 131.288 205.623 104.812 195.456L75.8894 208.549C117.373 236.271 167.747 229.416 199.225 198.618C224.194 174.205 231.927 140.929 224.697 110.922L224.762 110.985C214.276 66.9027 227.34 49.2823 254.1 13.2513C254.733 12.397 255.366 11.5427 256 10.667L220.786 45.0961V44.9893L98.8484 164.744" fill="black"/>
<path d="M81.3069 179.652C51.5321 151.843 56.6656 108.807 82.0711 83.9892C100.857 65.6211 131.637 58.1245 158.506 69.1452L187.363 56.1168C182.165 52.4433 175.501 48.492 167.856 45.7155C133.298 31.8114 91.9232 38.7314 63.8307 66.1764C36.8087 92.5962 28.311 133.219 42.9034 167.883C53.8039 193.791 35.9348 212.115 17.9346 230.612C11.5559 237.168 5.15537 243.726 0 250.667L81.2847 179.673" fill="black"/>
</svg>
