<svg width="257" height="551" viewBox="0 0 257 551" fill="none" xmlns="http://www.w3.org/2000/svg">
<path d="M41.6544 226.661C49.7949 246.854 67.7944 293.931 65.6236 320.695C62.9101 354.149 52.9607 399.357 48.4382 430.099C43.9157 460.841 48.4382 527.749 48.4382 547.641M105.422 125.395C105.012 132.327 106.848 148.722 90.3351 158.849C79.696 157.195 60.3278 156.548 48.4382 158.849C35.5031 161.351 17.2344 169.587 0.500122 177.209" stroke="black" stroke-linecap="round" stroke-linejoin="round"/>
<path d="M128.453 0.5C141.689 0.5 153.709 7.59307 162.436 19.1328C171.163 30.6727 176.576 46.6371 176.576 64.292C176.576 81.9512 171.161 99.6907 162.417 113.003C153.667 126.325 141.645 135.131 128.453 135.131C115.262 135.131 103.241 126.325 94.4905 113.003C85.7467 99.6907 80.3313 81.9512 80.3313 64.292C80.3314 46.6372 85.7438 30.6727 94.4709 19.1328C103.198 7.59314 115.218 0.500093 128.453 0.5Z" fill="url(#paint0_linear_7159_4491)" stroke="black"/>
<path d="M118.126 493.9C118.126 497.699 116.755 520.888 113.099 550.2M133.663 493.9C133.663 497.699 135.034 520.888 138.69 550.2" stroke="black" stroke-linecap="round" stroke-linejoin="round"/>
<path d="M215.253 226.661C207.112 246.854 189.113 293.931 191.284 320.695C193.997 354.149 203.947 399.357 208.469 430.099C212.992 460.841 208.469 527.749 208.469 547.641M151.485 125.395C151.895 132.327 150.059 148.722 166.572 158.849C177.211 157.195 196.579 156.548 208.469 158.849C221.404 161.351 239.673 169.587 256.407 177.209" stroke="black" stroke-linecap="round" stroke-linejoin="round"/>
<defs>
<linearGradient id="paint0_linear_7159_4491" x1="100.901" y1="15.3392" x2="151.636" y2="127.701" gradientUnits="userSpaceOnUse">
<stop stop-opacity="0.1"/>
<stop offset="1" stop-opacity="0"/>
</linearGradient>
</defs>
</svg>
