<svg width="256" height="256" viewBox="0 0 256 256" fill="none" xmlns="http://www.w3.org/2000/svg">
<path d="M146.794 48C134.468 48.0251 122.37 51.3473 111.744 57.6255C101.117 63.9037 92.3448 72.9117 86.3272 83.7244C81.1475 81.1892 75.4632 79.8678 69.7021 79.8596C60.6723 79.8835 51.9446 83.1305 45.0755 89.0216C38.2064 94.9126 33.6425 103.065 32.1978 112.024C22.6596 116.038 14.5145 122.796 8.78586 131.449C3.0572 140.102 0.000566338 150.263 0 160.657C0.0134567 174.637 5.54977 188.039 15.3917 197.917C25.2337 207.795 38.5756 213.34 52.4842 213.333C54.6852 213.313 56.8828 213.154 59.0639 212.857H204.895C205.661 212.912 206.428 212.949 207.196 212.968C207.927 212.948 208.658 212.911 209.388 212.857H212.88V212.596C224.754 211.184 235.702 205.422 243.65 196.402C251.597 187.382 255.992 175.731 256 163.657V163.562C255.972 152.095 251.988 140.996 244.734 132.175C237.479 123.354 227.407 117.362 216.25 115.23C215.588 97.165 207.978 80.063 195.023 67.5234C182.069 54.9839 164.779 47.9851 146.794 48Z" fill="url(#paint0_linear_7159_5278)"/>
<defs>
<linearGradient id="paint0_linear_7159_5278" x1="256.777" y1="163.79" x2="-0.0950503" y2="160.265" gradientUnits="userSpaceOnUse">
<stop stop-color="#3E82F4"/>
<stop offset="1" stop-color="#93DCF7"/>
</linearGradient>
</defs>
</svg>
