<svg width="256" height="256" viewBox="0 0 256 256" fill="none" xmlns="http://www.w3.org/2000/svg">
<line y1="128.493" x2="256" y2="128.493" stroke="black"/>
<line x1="16.903" y1="64.4283" x2="238.606" y2="192.428" stroke="black"/>
<line x1="63.7373" y1="17.3018" x2="191.737" y2="239.004" stroke="black"/>
<line x1="37.1418" y1="37.8418" x2="218.161" y2="218.861" stroke="black"/>
<line x1="94.3958" y1="4.48973" x2="160.653" y2="251.767" stroke="black"/>
<line x1="160.817" y1="4.14406" x2="94.5589" y2="251.421" stroke="black"/>
<line x1="128.492" y1="256" x2="128.492" y2="1.99823e-08" stroke="black"/>
<line x1="64.4255" y1="239.099" x2="192.426" y2="17.3961" stroke="black"/>
<line x1="17.5587" y1="192.333" x2="239.261" y2="64.3326" stroke="black"/>
<line x1="37.8377" y1="218.856" x2="218.857" y2="37.8371" stroke="black"/>
<line x1="4.49071" y1="161.602" x2="251.768" y2="95.3443" stroke="black"/>
<line x1="4.40077" y1="95.2534" x2="251.678" y2="161.511" stroke="black"/>
<line x1="0.993809" y1="112.077" x2="254.88" y2="144.908" stroke="black"/>
<line x1="25.9743" y1="50.7022" x2="229.431" y2="206.077" stroke="black"/>
<line x1="78.465" y1="9.97849" x2="176.976" y2="246.266" stroke="black"/>
<line x1="49.4565" y1="26.9369" x2="205.766" y2="229.676" stroke="black"/>
<line x1="110.512" y1="1.2041" x2="144.511" y2="254.936" stroke="black"/>
<line x1="176.429" y1="9.37875" x2="79.0071" y2="246.117" stroke="black"/>
<line x1="112.074" y1="255.003" x2="144.905" y2="1.11714" stroke="black"/>
<line x1="50.7031" y1="230.031" x2="206.078" y2="26.5749" stroke="black"/>
<line x1="10.2204" y1="177.638" x2="246.507" y2="79.127" stroke="black"/>
<line x1="26.9313" y1="206.543" x2="229.671" y2="50.2335" stroke="black"/>
<line x1="1.20319" y1="145.49" x2="254.935" y2="111.491" stroke="black"/>
<line x1="9.62265" y1="79.6763" x2="246.361" y2="177.099" stroke="black"/>
</svg>
