<svg width="256" height="256" viewBox="0 0 256 256" fill="none" xmlns="http://www.w3.org/2000/svg">
<path d="M0 128C0 57.3076 57.3076 0 128 0C198.692 0 256 57.3076 256 128C256 198.692 198.692 256 128 256C57.3076 256 0 198.692 0 128Z" fill="#0077B5"/>
<path d="M161.67 103.969C180.758 103.969 195.068 116.428 195.068 143.198L195.067 193.171H166.062V146.543C166.062 134.831 161.863 126.839 151.362 126.839C143.349 126.839 138.575 132.226 136.479 137.43C135.712 139.295 135.523 141.893 135.523 144.498V193.173H106.513C106.514 192.958 106.895 114.185 106.513 106.018H135.523V118.362C139.373 112.428 146.269 103.969 161.67 103.969ZM90.4561 193.171H61.4482V106.016H90.4561V193.171ZM76.1445 64C86.0677 64.0001 92.1789 70.5092 92.3672 79.0547C92.367 87.4231 86.0675 94.1191 75.9531 94.1191H75.7676C66.0292 94.1191 59.7335 87.4231 59.7334 79.0547C59.7334 70.5091 66.2212 64 76.1445 64Z" fill="white"/>
</svg>
