<svg width="256" height="256" viewBox="0 0 256 256" fill="none" xmlns="http://www.w3.org/2000/svg">
<path d="M128 0C55.904 0 0 52.8273 0 124.149C0 161.458 15.296 193.711 40.192 215.981C42.272 217.837 43.552 220.46 43.616 223.276L44.32 246.058C44.544 253.322 52.032 258.057 58.688 255.113L84.096 243.914C86.24 242.954 88.672 242.794 90.944 243.402C102.624 246.602 115.04 248.33 128 248.33C200.096 248.33 256 195.503 256 124.181C256 52.8593 200.096 0 128 0Z" fill="url(#paint0_radial_7159_5270)"/>
<path d="M51.136 160.466L88.736 100.823C94.72 91.3201 107.52 88.9843 116.512 95.7037L146.432 118.134C149.184 120.182 152.96 120.182 155.68 118.102L196.064 87.4484C201.44 83.3528 208.48 89.8162 204.896 95.5437L167.264 155.154C161.28 164.658 148.48 166.993 139.488 160.274L109.568 137.844C106.816 135.796 103.04 135.796 100.32 137.876L59.936 168.529C54.56 172.625 47.52 166.193 51.136 160.466Z" fill="white"/>
<defs>
<radialGradient id="paint0_radial_7159_5270" cx="0" cy="0" r="1" gradientUnits="userSpaceOnUse" gradientTransform="translate(49.28 254.583) scale(278.938 278.912)">
<stop stop-color="#0099FF"/>
<stop offset="0.6098" stop-color="#A033FF"/>
<stop offset="0.9348" stop-color="#FF5280"/>
<stop offset="1" stop-color="#FF7061"/>
</radialGradient>
</defs>
</svg>
