<svg width="256" height="256" viewBox="0 0 256 256" fill="none" xmlns="http://www.w3.org/2000/svg">
<path d="M131.474 79.803C111.061 52.9137 93.9917 42.667 73.5621 42.667C31.9118 42.667 0 98.7441 0 158.098C0 195.241 17.3683 218.667 46.4604 218.667C67.3987 218.667 82.4576 208.455 109.228 160.041C109.228 160.041 120.387 139.654 128.065 125.609C130.754 130.102 133.582 134.937 136.564 140.134L149.119 161.983C173.572 204.319 187.198 218.667 211.886 218.667C240.228 218.667 256 194.921 256 157.007C256 94.8598 223.369 42.667 183.728 42.667C162.737 42.667 146.329 59.0244 131.474 79.803ZM170.731 142.501L155.721 116.603C151.66 109.769 147.768 103.487 144.012 97.7303C157.538 76.1281 168.698 65.3657 181.969 65.3657C209.54 65.3657 231.598 107.363 231.598 158.948C231.598 178.611 225.371 190.021 212.473 190.021C200.11 190.021 194.204 181.575 170.731 142.501ZM27.6877 158.584C27.6877 115.494 48.4542 71.4342 73.2099 71.4342C86.6153 71.4342 97.8177 79.4439 114.978 104.858C98.6836 130.714 88.8133 146.931 88.8133 146.931C67.1095 182.131 59.6004 190.021 47.5168 190.021C35.0794 190.021 27.6877 178.726 27.6877 158.584Z" fill="#1080F8"/>
<path d="M0 158.098C0 98.7441 31.9118 42.667 73.5621 42.667L73.2099 71.4342C48.4542 71.4342 27.6877 115.494 27.6877 158.584C27.6877 178.726 35.0794 190.021 47.5168 190.021L46.4604 218.667C17.3683 218.667 0 195.241 0 158.098Z" fill="url(#paint0_linear_7159_5235)"/>
<path d="M73.5624 42.667C93.992 42.667 111.062 52.9137 131.474 79.803C140.34 91.4815 148.21 103.962 155.721 116.603L170.731 142.501C194.204 181.575 200.111 190.021 212.473 190.021L211.886 218.667C187.199 218.667 173.572 204.319 149.119 161.983L136.564 140.134C133.582 134.937 130.755 130.102 128.065 125.609C125.493 121.312 119.508 111.568 114.978 104.858C97.8179 79.4439 86.6156 71.4342 73.2102 71.4342L73.5624 42.667Z" fill="url(#paint1_linear_7159_5235)"/>
<path d="M256 157.007C256 194.921 240.228 218.667 211.886 218.667L212.473 190.021C225.372 190.021 231.598 178.611 231.598 158.948L256 157.007Z" fill="url(#paint2_linear_7159_5235)"/>
<defs>
<linearGradient id="paint0_linear_7159_5235" x1="73.562" y1="71.4515" x2="65.8392" y2="156.772" gradientUnits="userSpaceOnUse">
<stop stop-color="#0C64DD"/>
<stop offset="1" stop-color="#1080F8"/>
</linearGradient>
<linearGradient id="paint1_linear_7159_5235" x1="131.473" y1="80.1849" x2="215.982" y2="187.212" gradientUnits="userSpaceOnUse">
<stop stop-color="#0C64DD"/>
<stop offset="1" stop-color="#1076EE"/>
</linearGradient>
<linearGradient id="paint2_linear_7159_5235" x1="212.451" y1="190.009" x2="233.293" y2="161.907" gradientUnits="userSpaceOnUse">
<stop stop-color="#1077EF"/>
<stop offset="1" stop-color="#1080F8" stop-opacity="0"/>
</linearGradient>
</defs>
</svg>
