<svg width="256" height="256" viewBox="0 0 256 256" fill="none" xmlns="http://www.w3.org/2000/svg">
<path d="M0 128C0 57.3076 57.3076 0 128 0C198.692 0 256 57.3076 256 128C256 198.692 198.692 256 128 256C57.3076 256 0 198.692 0 128Z" fill="#E60019"/>
<path d="M110.05 195.528C125.307 195.637 126.889 195.61 127.298 195.201C127.706 194.792 127.734 189.534 127.734 129.914C127.734 85.7171 127.653 64.8991 127.462 64.5176C127.189 64.0272 126.725 64.0001 110.759 64.0273C97.7884 64.0546 93.8913 64.1358 92.1747 64.4355C79.0682 66.7789 68.5234 76.4802 65.1991 89.2324C64.0002 93.8373 63.9183 96.5358 64.0546 132.258C64.1363 165.064 64.1639 165.827 64.7089 168.361C67.7334 182.013 77.4339 191.741 91.2216 194.956C93.0199 195.365 95.3095 195.447 110.05 195.528ZM105.745 184.901C95.5268 184.792 94.4361 184.737 92.3925 184.22C83.6187 181.958 77.1067 175.201 75.2811 166.399C74.6817 163.645 74.6816 95.8586 75.2538 93.1562C76.8887 85.4995 82.2018 79.1502 89.368 76.2891C92.9648 74.8449 94.6276 74.6815 106.29 74.6543L116.835 74.627L116.835 185.037L105.745 184.901Z" fill="white"/>
<path d="M94.5182 91.2757C92.8015 91.6026 90.1857 92.9106 88.796 94.1367C85.9349 96.6164 84.518 100.131 84.736 104.273C84.845 106.426 84.9812 106.998 85.8532 108.742C87.1338 111.385 89.0685 113.32 91.7116 114.628C93.5372 115.527 94.0004 115.636 96.371 115.718C98.5237 115.799 99.2866 115.718 100.731 115.227C106.644 113.238 110.213 107.488 109.205 101.603C108.033 94.6 101.385 89.9132 94.5182 91.2757Z" fill="white"/>
<path d="M141.249 195.446C141.984 195.719 163.13 195.61 165.746 195.338C176.809 194.084 186.563 187.354 191.877 177.354C192.558 176.073 193.457 173.92 193.921 172.585C195.637 167.463 195.583 168.824 195.583 129.669C195.583 98.4157 195.528 93.7558 195.146 91.7666C192.449 77.5703 181.631 66.8616 167.408 64.4092C165.501 64.0822 162.557 64 153.075 64C146.535 64 141.085 64.0824 141.004 64.1914C140.895 64.3384 140.813 93.8498 140.813 129.832C140.813 189.237 140.841 195.278 141.249 195.446ZM170.105 149.151C163.293 150.922 156.046 146.808 154.056 140.051C153.457 137.98 153.484 134.492 154.165 132.366C156.209 125.691 163.293 121.767 170.105 123.538C174.356 124.655 177.844 127.898 179.26 132.04C180.16 134.601 180.132 138.361 179.233 140.704C177.571 145.009 174.301 148.034 170.105 149.151Z" fill="white"/>
</svg>
