<svg width="256" height="256" viewBox="0 0 256 256" fill="none" xmlns="http://www.w3.org/2000/svg">
<path d="M81.9394 247.322L86.3018 219.141L76.5845 218.912H30.1833L62.4298 10.961C62.5299 10.3333 62.8552 9.74791 63.3306 9.33223C63.806 8.91655 64.4149 8.6875 65.0488 8.6875H143.288C169.262 8.6875 187.187 14.1847 196.545 25.0348C200.933 30.1248 203.727 35.4438 205.078 41.2973C206.496 47.4392 206.521 54.7772 205.136 63.7271L205.036 64.3803V70.115L209.424 72.643C213.119 74.6366 216.055 76.9186 218.307 79.5314C222.06 83.8834 224.488 89.4145 225.514 95.9721C226.573 102.716 226.223 110.741 224.488 119.827C222.486 130.278 219.249 139.381 214.879 146.829C210.858 153.692 205.737 159.385 199.656 163.796C193.851 167.987 186.953 171.168 179.154 173.204C171.597 175.206 162.981 176.215 153.53 176.215H147.442C143.087 176.215 138.859 177.81 135.539 180.669C132.211 183.587 130.009 187.575 129.333 191.935L128.874 194.472L121.167 244.141L120.817 245.965C120.725 246.542 120.567 246.83 120.333 247.025C120.125 247.204 119.824 247.322 119.532 247.322H81.9394Z" fill="#253B80"/>
<path d="M213.577 65.041C213.344 66.5595 213.077 68.112 212.777 69.7068C202.459 123.584 167.16 142.197 122.076 142.197H99.1218C93.6084 142.197 88.9624 146.269 88.1033 151.8L76.3508 227.606L73.0227 249.094C72.4639 252.725 75.2164 256 78.8197 256H119.532C124.353 256 128.449 252.437 129.208 247.601L129.608 245.498L137.274 196.023L137.766 193.308C138.516 188.456 142.62 184.893 147.441 184.893H153.53C192.975 184.893 223.853 168.605 232.878 121.472C236.649 101.782 234.697 85.3415 224.721 73.7788C221.702 70.2922 217.956 67.3994 213.577 65.041Z" fill="#179BD7"/>
<path d="M202.784 60.664C201.207 60.1975 199.581 59.7733 197.912 59.3915C196.236 59.0183 194.518 58.6874 192.749 58.399C186.56 57.381 179.779 56.8975 172.514 56.8975H111.191C109.681 56.8975 108.246 57.2453 106.962 57.873C104.134 59.2558 102.032 61.979 101.523 65.3129L88.4781 149.348L88.1028 151.8C88.9619 146.269 93.6079 142.197 99.1213 142.197H122.076C167.159 142.197 202.458 123.576 212.776 69.7072C213.085 68.1124 213.343 66.5599 213.577 65.0414C210.966 63.6332 208.138 62.4286 205.094 61.4021C204.343 61.1476 203.568 60.9016 202.784 60.664Z" fill="#222D65"/>
<path d="M106.962 57.8815C108.255 57.2537 109.681 56.9059 111.191 56.9059H172.514C179.779 56.9059 186.561 57.3894 192.75 58.4074C194.518 58.6959 196.236 59.0267 197.913 59.4C199.581 59.7817 201.207 60.2059 202.784 60.6725C203.568 60.91 204.344 61.156 205.103 61.402C208.147 62.4285 210.975 63.6416 213.585 65.0414C216.655 45.1311 213.56 31.5748 202.976 19.2995C191.307 5.7856 170.246 0 143.296 0H65.0568C59.5517 0 54.8557 4.07198 54.005 9.61157L21.4166 219.7C20.7743 223.857 23.9272 227.607 28.0477 227.607H76.3506L88.4784 149.348L101.524 65.3128C102.033 61.9789 104.135 59.2558 106.962 57.8815Z" fill="#253B80"/>
</svg>
