<svg width="256" height="256" viewBox="0 0 256 256" fill="none" xmlns="http://www.w3.org/2000/svg">
<path d="M128 255.789C198.692 255.789 256 198.529 256 127.895C256 57.2604 198.692 0 128 0C57.3076 0 0 57.2604 0 127.895C0 198.529 57.3076 255.789 128 255.789Z" fill="white"/>
<path d="M128 0C57.3103 0 0 57.2632 0 127.895C0 182.105 33.7119 228.421 81.33 247.053C80.1712 236.947 79.223 221.368 81.7514 210.316C84.0691 200.316 96.7111 146.737 96.7111 146.737C96.7111 146.737 92.9185 139.053 92.9185 127.789C92.9185 110 103.243 96.7368 116.095 96.7368C127.052 96.7368 132.319 104.947 132.319 114.737C132.319 125.684 125.366 142.105 121.679 157.368C118.624 170.105 128.105 180.526 140.642 180.526C163.398 180.526 180.886 156.526 180.886 122C180.886 91.3684 158.867 70 127.368 70C90.9169 70 69.5309 97.2632 69.5309 125.474C69.5309 136.421 73.7449 148.211 79.0123 154.632C80.0658 155.895 80.1712 157.053 79.8551 158.316C78.907 162.316 76.6946 171.053 76.2732 172.842C75.7465 175.158 74.3769 175.684 71.9539 174.526C55.9407 167.053 45.9325 143.789 45.9325 124.947C45.9325 84.6316 75.2197 47.5789 130.528 47.5789C174.881 47.5789 209.435 79.1579 209.435 121.474C209.435 165.579 181.623 201.053 143.065 201.053C130.107 201.053 117.886 194.316 113.778 186.316C113.778 186.316 107.351 210.737 105.771 216.737C102.927 227.895 95.1309 241.789 89.8634 250.316C101.873 254 114.515 256 127.789 256C198.479 256 255.789 198.737 255.789 128.105C256 57.2631 198.69 0 128 0Z" fill="#E60019"/>
</svg>
