<svg width="256" height="256" viewBox="0 0 256 256" fill="none" xmlns="http://www.w3.org/2000/svg">
<path d="M0 128C0 57.3077 57.3077 0 128 0C198.692 0 256 57.3077 256 128C256 198.692 198.692 256 128 256C57.3077 256 0 198.692 0 128Z" fill="#FFE300"/>
<path d="M196.647 164.666C171.87 152.672 167.921 134.153 167.745 132.78C167.533 131.116 167.292 129.808 169.127 128.116C170.897 126.48 178.75 121.62 180.929 120.099C184.53 117.581 186.116 115.067 184.947 111.976C184.13 109.838 182.139 109.033 180.042 109.033C179.38 109.035 178.721 109.109 178.076 109.254C174.118 110.112 170.276 112.095 168.052 112.631C167.785 112.7 167.51 112.736 167.234 112.741C166.049 112.741 165.599 112.214 165.714 110.787C165.991 106.462 166.58 98.0201 165.898 90.1347C164.962 79.2851 161.462 73.9097 157.313 69.155C155.306 66.8494 145.985 56.9443 127.998 56.9443C110.011 56.9443 100.703 66.8494 98.7083 69.1267C94.5467 73.8809 91.0512 79.2563 90.1232 90.1059C89.4405 97.9918 90.0539 106.429 90.3072 110.758C90.3888 112.116 89.9723 112.712 88.7867 112.712C88.5104 112.708 88.2363 112.67 87.9691 112.602C85.7493 112.066 81.9067 110.084 77.9493 109.225C77.304 109.08 76.6448 109.007 75.9829 109.005C73.8779 109.005 71.8949 109.822 71.0773 111.948C69.9083 115.038 71.4864 117.552 75.1003 120.071C77.2789 121.591 85.1317 126.448 86.9019 128.087C88.7333 129.78 88.4965 131.088 88.2837 132.751C88.1077 134.145 84.1547 152.664 59.3819 164.637C57.9307 165.341 55.4619 166.829 59.8155 169.232C66.6501 173.009 71.2 172.605 74.7365 174.882C77.7371 176.815 75.9627 180.985 78.1456 182.489C80.8272 184.341 88.7536 182.359 98.9941 185.74C107.579 188.568 112.795 196.56 128.019 196.56C143.242 196.56 148.61 188.532 157.043 185.74C167.263 182.359 175.206 184.341 177.892 182.489C180.07 180.985 178.3 176.815 181.301 174.882C184.837 172.605 189.383 173.009 196.222 169.232C200.567 166.857 198.098 165.369 196.647 164.666Z" fill="white"/>
<path fill-rule="evenodd" clip-rule="evenodd" d="M201.787 157.271C204.198 158.612 206.316 160.23 207.428 163.255C208.675 166.641 207.91 170.475 204.869 173.729L204.828 173.778C203.601 175.136 202.149 176.273 200.535 177.138C197.335 178.895 193.93 180.252 190.398 181.177C189.722 181.358 189.08 181.651 188.501 182.044C187.896 182.579 187.645 183.245 187.332 184.075C187.095 184.703 186.822 185.425 186.334 186.254C185.497 187.714 184.346 188.971 182.966 189.933C179.662 192.214 175.951 192.358 172.018 192.509L172.007 192.509C168.457 192.644 164.434 192.797 159.84 194.316C157.988 194.929 156.022 196.135 153.745 197.533L153.731 197.542C148.185 200.938 140.595 205.586 127.991 205.586C115.375 205.586 107.837 200.955 102.331 197.57C100.038 196.147 98.0592 194.929 96.1541 194.299C91.5552 192.783 87.5285 192.627 83.976 192.493H83.9757C80.0436 192.341 76.3317 192.198 73.0288 189.917C71.8629 189.108 70.8592 188.087 70.0688 186.908C69.3018 185.797 68.9484 184.857 68.6508 184.066C68.3378 183.234 68.0867 182.566 67.4811 182.036C66.8635 181.623 66.1808 181.318 65.4619 181.132C61.9771 180.21 58.6176 178.866 55.4587 177.13C53.9403 176.322 52.5604 175.277 51.3707 174.036C48.1289 170.708 47.295 166.759 48.5704 163.288C50.0149 159.363 53.1447 157.793 56.4276 156.147C56.991 155.864 57.559 155.579 58.1237 155.28C65.4005 151.327 71.0992 146.389 75.0805 140.563C76.216 138.919 77.2021 137.178 78.0283 135.359C78.4165 134.297 78.4085 133.72 78.1467 133.185C77.8661 132.747 77.4955 132.375 77.0592 132.093C75.8123 131.267 74.5413 130.442 73.6704 129.877C73.3485 129.667 73.0398 129.465 72.7454 129.273C71.5667 128.503 70.6169 127.882 69.9627 127.425C66.8763 125.266 64.7179 122.973 63.3648 120.41C62.4251 118.636 61.8789 116.681 61.7627 114.676C61.6459 112.673 61.9627 110.667 62.6901 108.796C64.7259 103.416 69.8155 100.076 75.976 100.076C77.2747 100.075 78.5696 100.212 79.8389 100.485C80.1787 100.559 80.5136 100.636 80.8448 100.722C80.7915 97.0635 80.8736 93.1595 81.2005 89.3371C82.3616 75.9125 87.0667 68.8565 91.9723 63.24C95.1163 59.7104 98.824 56.7264 102.944 54.4101C110.396 50.1585 118.797 48 127.999 48C137.201 48 145.643 50.1585 153.087 54.4101C157.197 56.7259 160.897 59.704 164.038 63.2235C168.944 68.8405 173.649 75.8837 174.81 89.3211C175.137 93.1429 175.219 97.0267 175.162 100.706C175.493 100.62 175.832 100.542 176.172 100.469C177.441 100.196 178.736 100.059 180.035 100.06C186.191 100.06 191.273 103.4 193.316 108.78C194.041 110.65 194.354 112.654 194.235 114.655C194.116 116.658 193.567 118.61 192.626 120.381C191.276 122.945 189.118 125.238 186.031 127.396C185.214 127.978 183.947 128.798 182.347 129.834L182.324 129.849C181.42 130.434 180.088 131.3 178.796 132.155C178.41 132.418 178.083 132.759 177.835 133.156C177.586 133.671 177.57 134.235 177.917 135.229C178.755 137.086 179.757 138.865 180.914 140.543C184.985 146.503 190.855 151.531 198.373 155.517C198.755 155.716 199.138 155.908 199.52 156.1C199.869 156.276 200.216 156.451 200.56 156.629C200.916 156.793 201.333 157.005 201.787 157.271ZM186.832 172.852C189.412 172.164 192.47 171.35 196.215 169.281C200.569 166.857 198.099 165.369 196.636 164.637C171.859 152.663 167.91 134.145 167.734 132.751C167.727 132.695 167.719 132.639 167.712 132.583C167.508 130.998 167.343 129.722 169.116 128.087C170.319 126.972 174.335 124.37 177.467 122.341C178.942 121.386 180.22 120.557 180.918 120.07C184.527 117.553 186.105 115.038 184.936 111.948C184.118 109.822 182.136 109.004 180.03 109.004C179.369 109.006 178.71 109.081 178.065 109.225C175.732 109.731 173.439 110.628 171.494 111.388C170.14 111.918 168.954 112.382 168.041 112.602C167.773 112.671 167.499 112.708 167.223 112.712C166.037 112.712 165.609 112.185 165.702 110.758C165.712 110.606 165.722 110.449 165.733 110.287C166.02 105.84 166.545 97.7143 165.886 90.1056C164.958 79.2565 161.459 73.8805 157.301 69.1264C155.307 66.8496 145.908 56.9851 127.983 56.9851C110.057 56.9851 100.684 66.8907 98.6885 69.1755C94.5355 73.9296 91.04 79.3056 90.104 90.1547C89.4765 97.4026 89.9439 105.116 90.2203 109.679C90.2447 110.08 90.2675 110.457 90.288 110.807C90.3696 112.164 89.9525 112.761 88.7669 112.761C88.4912 112.756 88.2171 112.719 87.9493 112.651C87.0392 112.431 85.8562 111.968 84.5044 111.439C82.5592 110.678 80.2646 109.781 77.9301 109.274C77.2848 109.13 76.6251 109.055 75.9637 109.053C73.8709 109.053 71.8757 109.859 71.0581 111.997C69.8891 115.087 71.4752 117.602 75.0805 120.119C75.7789 120.607 77.0599 121.437 78.5366 122.395C81.6681 124.424 85.6798 127.025 86.8827 128.136C88.6548 129.773 88.49 131.051 88.2852 132.64C88.2783 132.693 88.2714 132.747 88.2645 132.801C88.0885 134.174 84.1355 152.692 59.3627 164.686C57.9115 165.389 55.4421 166.877 59.7957 169.281C63.5311 171.334 66.5827 172.144 69.1601 172.829C71.299 173.396 73.1113 173.878 74.7168 174.91C76.3393 175.956 76.5669 177.655 76.7782 179.233C76.9577 180.574 77.1256 181.827 78.1264 182.518C79.2904 183.32 81.4417 183.403 84.3378 183.514C88.1243 183.659 93.184 183.852 98.9749 185.768C101.882 186.726 104.407 188.278 107.067 189.912C112.261 193.104 117.964 196.609 128.011 196.609C138.095 196.609 143.86 193.071 149.066 189.876C151.703 188.257 154.197 186.727 157.036 185.788C162.837 183.873 167.896 183.679 171.679 183.534C174.574 183.423 176.722 183.341 177.884 182.538C178.887 181.847 179.054 180.594 179.233 179.254C179.443 177.675 179.669 175.976 181.294 174.931C182.894 173.901 184.7 173.419 186.832 172.852Z" fill="black"/>
</svg>
