<svg width="256" height="256" viewBox="0 0 256 256" fill="none" xmlns="http://www.w3.org/2000/svg">
<path d="M0 128C0 57.3076 57.3076 0 128 0C198.692 0 256 57.3076 256 128C256 198.692 198.692 256 128 256C57.3076 256 0 198.692 0 128Z" fill="#303030"/>
<path d="M169.536 121.768C168.789 121.415 168.029 121.076 167.26 120.752C165.92 96.4787 152.431 82.5825 129.781 82.4403C129.678 82.4397 129.576 82.4397 129.474 82.4397C115.926 82.4397 104.659 88.1256 97.7235 98.4721L110.18 106.874C115.361 99.1455 123.492 97.4979 129.479 97.4979C129.549 97.4979 129.618 97.4979 129.687 97.4985C137.144 97.5453 142.772 99.6773 146.414 103.835C149.065 106.862 150.838 111.045 151.716 116.324C145.103 115.219 137.953 114.879 130.308 115.31C108.773 116.53 94.9292 128.878 95.859 146.038C96.3309 154.742 100.741 162.23 108.276 167.121C114.648 171.256 122.853 173.279 131.381 172.821C142.644 172.214 151.479 167.989 157.643 160.263C162.324 154.397 165.284 146.794 166.592 137.215C171.959 140.399 175.937 144.591 178.134 149.629C181.869 158.193 182.087 172.267 170.408 183.741C160.175 193.792 147.874 198.141 129.285 198.275C108.664 198.125 93.0693 191.623 82.9299 178.949C73.4351 167.081 68.5281 149.94 68.3451 128C68.5281 106.061 73.4351 88.9191 82.9299 77.0516C93.0693 64.378 108.664 57.8759 129.285 57.7252C150.055 57.877 165.922 64.4105 176.449 77.1452C181.611 83.3902 185.503 91.2437 188.069 100.401L202.667 96.5712C199.557 85.3001 194.663 75.5876 188.004 67.5328C174.507 51.2063 154.769 42.8405 129.336 42.667H129.234C103.853 42.8399 84.3348 51.2375 71.2227 67.6264C59.5548 82.2105 53.5361 102.503 53.3339 127.94L53.3333 128L53.3339 128.06C53.5361 153.497 59.5548 173.791 71.2227 188.375C84.3348 204.763 103.853 213.161 129.234 213.334H129.336C151.901 213.18 167.807 207.371 180.91 194.499C198.053 177.659 197.537 156.551 191.887 143.592C187.833 134.3 180.104 126.752 169.536 121.768ZM130.575 157.784C121.137 158.307 111.332 154.142 110.848 145.22C110.49 138.605 115.636 131.223 131.154 130.344C132.931 130.243 134.675 130.194 136.389 130.194C142.025 130.194 147.299 130.732 152.093 131.763C150.304 153.72 139.816 157.286 130.575 157.784Z" fill="white"/>
</svg>
