<svg width="256" height="256" viewBox="0 0 256 256" fill="none" xmlns="http://www.w3.org/2000/svg">
<circle cx="128" cy="128" r="128" fill="#349DF0"/>
<path d="M128.704 95.0546L129.079 101.145L122.836 100.399C100.112 97.5403 80.2595 87.846 63.4038 71.5646L55.1632 63.4861L53.0406 69.4518C48.5457 82.7503 51.4174 96.7946 60.7818 106.24C65.7761 111.46 64.6523 112.206 56.0372 109.099C53.0406 108.105 50.4186 107.359 50.1689 107.732C49.2949 108.602 52.2914 119.912 54.6637 124.386C57.91 130.6 64.5275 136.69 71.7692 140.295L77.8872 143.153L70.6455 143.277C63.6535 143.277 63.4038 143.402 64.1529 146.012C66.6501 154.09 76.5138 162.666 87.5013 166.395L95.2424 169.005L88.5001 172.982C78.5115 178.699 66.7749 181.93 55.0383 182.179C49.4197 182.303 44.8 182.8 44.8 183.173C44.8 184.416 60.0326 191.376 68.8975 194.11C95.4921 202.189 127.081 198.709 150.804 184.913C167.66 175.095 184.516 155.582 192.382 136.69C196.627 126.623 200.872 108.229 200.872 99.4046C200.872 93.6875 201.246 92.9418 208.238 86.106C212.359 82.1289 216.229 77.7789 216.979 76.536C218.227 74.1746 218.102 74.1746 211.735 76.2875C201.122 80.016 199.623 79.5189 204.867 73.9261C208.738 69.9489 213.358 62.7403 213.358 60.6275C213.358 60.2546 211.485 60.8761 209.362 61.9946C207.115 63.2375 202.12 65.1018 198.375 66.2203L191.632 68.3332L185.514 64.2318C182.143 61.9946 177.399 59.5089 174.902 58.7632C168.534 57.0232 158.795 57.2718 153.051 59.2603C137.444 64.8532 127.581 79.2703 128.704 95.0546Z" fill="white"/>
</svg>
