<svg width="400" height="40" viewBox="0 0 400 40" fill="none" xmlns="http://www.w3.org/2000/svg">
<g clip-path="url(#clip0_7159_4489)">
<path d="M0 19.5L-4.37114e-08 20.5" stroke="black" stroke-linecap="round"/>
<path d="M4 19.5L4 20.5" stroke="black" stroke-linecap="round"/>
<path d="M8 19.5L8 20.5" stroke="black" stroke-linecap="round"/>
<path d="M12 19.5L12 20.5" stroke="black" stroke-linecap="round"/>
<path d="M16 19.5L16 20.5" stroke="black" stroke-linecap="round"/>
<path d="M20 19.5L20 20.5" stroke="black" stroke-linecap="round"/>
<path d="M24 19L24 21" stroke="black" stroke-linecap="round"/>
<path d="M28 18L28 22" stroke="black" stroke-linecap="round"/>
<path d="M32 17L32 23" stroke="black" stroke-linecap="round"/>
<path d="M36 14L36 26" stroke="black" stroke-linecap="round"/>
<path d="M40 17L40 23" stroke="black" stroke-linecap="round"/>
<path d="M44 14L44 26" stroke="black" stroke-linecap="round"/>
<path d="M48 10L48 30" stroke="black" stroke-linecap="round"/>
<path d="M52 12L52 28" stroke="black" stroke-linecap="round"/>
<path d="M56 8L56 32" stroke="black" stroke-linecap="round"/>
<path d="M60 4L60 36" stroke="black" stroke-linecap="round"/>
<path d="M64 12L64 28" stroke="black" stroke-linecap="round"/>
<path d="M68 13L68 27" stroke="black" stroke-linecap="round"/>
<path d="M72 11L72 29" stroke="black" stroke-linecap="round"/>
<path d="M76 16L76 24" stroke="black" stroke-linecap="round"/>
<path d="M80 16L80 24" stroke="black" stroke-linecap="round"/>
<path d="M84 17L84 23" stroke="black" stroke-linecap="round"/>
<path d="M88 14L88 26" stroke="black" stroke-linecap="round"/>
<path d="M92 10L92 30" stroke="black" stroke-linecap="round"/>
<path d="M96 12L96 28" stroke="black" stroke-linecap="round"/>
<path d="M100 8L100 32" stroke="black" stroke-linecap="round"/>
<path d="M104 4L104 36" stroke="black" stroke-linecap="round"/>
<path d="M108 12L108 28" stroke="black" stroke-linecap="round"/>
<path d="M112 13L112 27" stroke="black" stroke-linecap="round"/>
<path d="M116 11L116 29" stroke="black" stroke-linecap="round"/>
<path d="M120 16L120 24" stroke="black" stroke-linecap="round"/>
<path d="M124 18L124 22" stroke="black" stroke-linecap="round"/>
<path d="M128 19L128 21" stroke="black" stroke-linecap="round"/>
<path d="M132 19.5L132 20.5" stroke="black" stroke-linecap="round"/>
<path d="M136 19.5L136 20.5" stroke="black" stroke-linecap="round"/>
<path d="M140 19.5L140 20.5" stroke="black" stroke-linecap="round"/>
<path d="M144 19.5L144 20.5" stroke="black" stroke-linecap="round"/>
<path d="M148 19.5L148 20.5" stroke="black" stroke-linecap="round"/>
<path d="M152 19.5L152 20.5" stroke="black" stroke-linecap="round"/>
<path d="M156 19.5L156 20.5" stroke="black" stroke-linecap="round"/>
<path d="M160 19.5L160 20.5" stroke="black" stroke-linecap="round"/>
<path d="M164 19.5L164 20.5" stroke="black" stroke-linecap="round"/>
<path d="M168 19.5L168 20.5" stroke="black" stroke-linecap="round"/>
<path d="M172 19.5L172 20.5" stroke="black" stroke-linecap="round"/>
<path d="M176 19.5L176 20.5" stroke="black" stroke-linecap="round"/>
<path d="M180 19.5L180 20.5" stroke="black" stroke-linecap="round"/>
<path d="M184 19.5L184 20.5" stroke="black" stroke-linecap="round"/>
<path d="M188 19.5L188 20.5" stroke="black" stroke-linecap="round"/>
<path d="M192 19.5L192 20.5" stroke="black" stroke-linecap="round"/>
<path d="M196 19.5L196 20.5" stroke="black" stroke-linecap="round"/>
<path d="M200 19.5L200 20.5" stroke="black" stroke-linecap="round"/>
<path d="M204 19.5L204 20.5" stroke="black" stroke-linecap="round"/>
<path d="M208 19.5L208 20.5" stroke="black" stroke-linecap="round"/>
<path d="M212 19.5L212 20.5" stroke="black" stroke-linecap="round"/>
<path d="M216 19.5L216 20.5" stroke="black" stroke-linecap="round"/>
<path d="M220 19.5L220 20.5" stroke="black" stroke-linecap="round"/>
<path d="M224 19.5L224 20.5" stroke="black" stroke-linecap="round"/>
<path d="M228 19.5L228 20.5" stroke="black" stroke-linecap="round"/>
<path d="M232 19.5L232 20.5" stroke="black" stroke-linecap="round"/>
<path d="M236 19.5L236 20.5" stroke="black" stroke-linecap="round"/>
<path d="M240 19.5L240 20.5" stroke="black" stroke-linecap="round"/>
<path d="M244 19.5L244 20.5" stroke="black" stroke-linecap="round"/>
<path d="M248 19.5L248 20.5" stroke="black" stroke-linecap="round"/>
<path d="M252 19.5L252 20.5" stroke="black" stroke-linecap="round"/>
<path d="M256 19.5L256 20.5" stroke="black" stroke-linecap="round"/>
<path d="M260 19.5L260 20.5" stroke="black" stroke-linecap="round"/>
<path d="M264 19.5L264 20.5" stroke="black" stroke-linecap="round"/>
<path d="M268 19.5L268 20.5" stroke="black" stroke-linecap="round"/>
<path d="M272 19.5L272 20.5" stroke="black" stroke-linecap="round"/>
<path d="M276 19.5L276 20.5" stroke="black" stroke-linecap="round"/>
<path d="M280 19.5L280 20.5" stroke="black" stroke-linecap="round"/>
<path d="M284 19.5L284 20.5" stroke="black" stroke-linecap="round"/>
<path d="M288 19.5L288 20.5" stroke="black" stroke-linecap="round"/>
<path d="M292 19.5L292 20.5" stroke="black" stroke-linecap="round"/>
<path d="M296 19.5L296 20.5" stroke="black" stroke-linecap="round"/>
<path d="M300 19.5L300 20.5" stroke="black" stroke-linecap="round"/>
<path d="M304 19.5L304 20.5" stroke="black" stroke-linecap="round"/>
<path d="M308 19.5L308 20.5" stroke="black" stroke-linecap="round"/>
<path d="M312 19.5L312 20.5" stroke="black" stroke-linecap="round"/>
<path d="M316 19.5L316 20.5" stroke="black" stroke-linecap="round"/>
<path d="M320 19.5L320 20.5" stroke="black" stroke-linecap="round"/>
<path d="M324 19.5L324 20.5" stroke="black" stroke-linecap="round"/>
<path d="M328 19.5L328 20.5" stroke="black" stroke-linecap="round"/>
<path d="M332 19.5L332 20.5" stroke="black" stroke-linecap="round"/>
<path d="M336 19.5L336 20.5" stroke="black" stroke-linecap="round"/>
<path d="M340 19.5L340 20.5" stroke="black" stroke-linecap="round"/>
<path d="M344 19.5L344 20.5" stroke="black" stroke-linecap="round"/>
<path d="M348 19.5L348 20.5" stroke="black" stroke-linecap="round"/>
<path d="M352 19.5L352 20.5" stroke="black" stroke-linecap="round"/>
<path d="M356 19.5L356 20.5" stroke="black" stroke-linecap="round"/>
<path d="M360 19.5L360 20.5" stroke="black" stroke-linecap="round"/>
<path d="M364 19.5L364 20.5" stroke="black" stroke-linecap="round"/>
<path d="M368 19.5L368 20.5" stroke="black" stroke-linecap="round"/>
<path d="M372 19.5L372 20.5" stroke="black" stroke-linecap="round"/>
<path d="M376 19.5L376 20.5" stroke="black" stroke-linecap="round"/>
<path d="M380 19.5L380 20.5" stroke="black" stroke-linecap="round"/>
<path d="M384 19.5L384 20.5" stroke="black" stroke-linecap="round"/>
<path d="M388 19.5L388 20.5" stroke="black" stroke-linecap="round"/>
<path d="M392 19.5L392 20.5" stroke="black" stroke-linecap="round"/>
<path d="M396 19.5L396 20.5" stroke="black" stroke-linecap="round"/>
<path d="M400 19.5L400 20.5" stroke="black" stroke-linecap="round"/>
</g>
<defs>
<clipPath id="clip0_7159_4489">
<rect width="400" height="40" fill="white"/>
</clipPath>
</defs>
</svg>
