<svg width="256" height="256" viewBox="0 0 256 256" fill="none" xmlns="http://www.w3.org/2000/svg">
<path d="M128 256C198.692 256 256 198.692 256 128C256 57.3076 198.692 0 128 0C57.3076 0 0 57.3076 0 128C0 198.692 57.3076 256 128 256Z" fill="#25D366"/>
<path d="M132.219 46.9336C152.58 46.9425 171.689 54.8691 186.059 69.2559C200.43 83.642 208.34 102.765 208.332 123.102C208.315 165.058 174.184 199.197 132.219 199.214H132.187C119.449 199.209 106.932 196.013 95.8153 189.949L55.4667 200.533L66.2645 161.093C59.6039 149.55 56.0987 136.456 56.1044 123.042C56.1211 81.0764 90.266 46.9336 132.219 46.9336ZM132.244 59.7891C97.349 59.7891 68.9698 88.1661 68.9559 123.046C68.951 134.999 72.2952 146.641 78.6278 156.713L80.1317 159.106L73.7411 182.451L97.6844 176.17L99.995 177.541C109.708 183.305 120.841 186.355 132.193 186.359H132.219C167.087 186.359 195.466 157.98 195.48 123.098C195.487 106.194 188.913 90.2996 176.969 78.3418C165.025 66.384 149.141 59.7949 132.244 59.7891ZM105.271 87.8926C106.539 87.8926 107.809 87.9043 108.917 87.96C110.084 88.0185 111.651 87.5164 113.195 91.2246C114.78 95.0327 118.584 104.394 119.059 105.346C119.535 106.298 119.851 107.408 119.218 108.678C118.584 109.946 118.267 110.74 117.316 111.85C116.366 112.96 115.319 114.329 114.464 115.182C113.512 116.13 112.521 117.159 113.63 119.062C114.739 120.966 118.555 127.194 124.209 132.237C131.473 138.717 137.602 140.725 139.504 141.677C141.405 142.629 142.514 142.47 143.623 141.201C144.732 139.932 148.378 135.648 149.645 133.744C150.913 131.841 152.181 132.158 153.924 132.792C155.667 133.427 165.018 138.028 166.92 138.979C168.821 139.932 170.089 140.408 170.564 141.201C171.039 141.995 171.039 145.802 169.455 150.245C167.869 154.687 160.272 158.741 156.618 159.287C153.342 159.777 149.195 159.982 144.64 158.534C141.877 157.658 138.335 156.487 133.798 154.527C114.721 146.29 102.261 127.083 101.309 125.812C100.358 124.542 93.5438 115.499 93.5438 106.138C93.5438 96.7777 98.4567 92.1766 100.2 90.2725C101.943 88.3686 104.004 87.8927 105.271 87.8926Z" fill="white"/>
</svg>
