<svg width="256" height="256" viewBox="0 0 256 256" fill="none" xmlns="http://www.w3.org/2000/svg">
<path d="M0 128C0 57.3076 57.3076 0 128 0C198.692 0 256 57.3076 256 128C256 198.692 198.692 256 128 256C57.3076 256 0 198.692 0 128Z" fill="#FF0000"/>
<path d="M193.413 96.3902C191.843 90.3582 187.217 85.6082 181.342 83.9962C170.695 81.0664 128 81.0664 128 81.0664C128 81.0664 85.3046 81.0664 74.6573 83.9962C68.7825 85.6082 64.1559 90.3582 62.5857 96.3902C59.7333 107.323 59.7333 130.133 59.7333 130.133C59.7333 130.133 59.7333 152.943 62.5857 163.876C64.1559 169.908 68.7825 174.658 74.6573 176.271C85.3046 179.2 128 179.2 128 179.2C128 179.2 170.695 179.2 181.342 176.271C187.217 174.658 191.843 169.908 193.413 163.876C196.267 152.943 196.267 130.133 196.267 130.133C196.267 130.133 196.267 107.323 193.413 96.3902Z" fill="white"/>
<path d="M115.2 153.6V110.934L149.333 132.268L115.2 153.6Z" fill="#FF0000"/>
</svg>
