<svg width="256" height="256" viewBox="0 0 256 256" fill="none" xmlns="http://www.w3.org/2000/svg">
<path d="M217.6 89.5996C238.808 89.5996 256 106.792 256 128C256 149.207 238.808 166.4 217.6 166.4L38.4 166.4C17.1923 166.4 -9.27019e-07 149.207 0 128C9.27019e-07 106.792 17.1923 89.5996 38.4 89.5996L217.6 89.5996Z" fill="#4C98FD"/>
<path d="M89.6003 38.4C89.6003 17.1923 106.793 0 128 0C149.208 0 166.4 17.1923 166.4 38.4V217.6C166.4 238.808 149.208 256 128 256C106.793 256 89.6003 238.808 89.6003 217.6V38.4Z" fill="#4C98FD"/>
<path d="M89.6003 38.4C89.6003 17.1923 106.793 0 128 0C149.208 0 166.4 17.1923 166.4 38.4V217.6C166.4 238.808 149.208 256 128 256C106.793 256 89.6003 238.808 89.6003 217.6V38.4Z" fill="white" fill-opacity="0.4" style="mix-blend-mode:screen"/>
<path d="M218.516 164.208C233.513 179.205 233.513 203.519 218.516 218.516C203.519 233.512 179.205 233.512 164.208 218.516L37.4909 91.7981C22.4943 76.8015 22.4943 52.4872 37.4909 37.4906C52.4875 22.494 76.8018 22.494 91.7984 37.4906L218.516 164.208Z" fill="#4C98FD"/>
<path d="M218.516 164.208C233.513 179.205 233.513 203.519 218.516 218.516C203.519 233.512 179.205 233.512 164.208 218.516L37.4909 91.7981C22.4943 76.8015 22.4943 52.4872 37.4909 37.4906C52.4875 22.494 76.8018 22.494 91.7984 37.4906L218.516 164.208Z" fill="white" fill-opacity="0.2" style="mix-blend-mode:soft-light"/>
<path d="M164.208 37.4906C179.205 22.494 203.519 22.494 218.516 37.4906C233.513 52.4872 233.513 76.8015 218.516 91.7981L91.7984 218.516C76.8018 233.512 52.4875 233.512 37.4909 218.516C22.4943 203.519 22.4943 179.205 37.4909 164.208L164.208 37.4906Z" fill="#4C98FD"/>
<path d="M164.208 37.4906C179.205 22.494 203.519 22.494 218.516 37.4906C233.513 52.4872 233.513 76.8015 218.516 91.7981L91.7984 218.516C76.8018 233.512 52.4875 233.512 37.4909 218.516C22.4943 203.519 22.4943 179.205 37.4909 164.208L164.208 37.4906Z" fill="white" fill-opacity="0.3" style="mix-blend-mode:overlay"/>
<path fill-rule="evenodd" clip-rule="evenodd" d="M128 38.4004C125.172 38.4004 122.88 40.6927 122.88 43.5204V110.695C122.88 112.246 122.88 113.022 122.573 113.381C122.307 113.692 121.908 113.858 121.499 113.825C121.028 113.788 120.48 113.24 119.384 112.143L71.8837 64.6436C69.8842 62.6442 66.6424 62.6442 64.6429 64.6436C62.6435 66.6431 62.6435 69.8849 64.6429 71.8844L112.143 119.384C113.239 120.481 113.788 121.029 113.825 121.5C113.857 121.908 113.692 122.308 113.38 122.574C113.021 122.88 112.245 122.88 110.695 122.88H43.5197C40.692 122.88 38.3997 125.173 38.3997 128C38.3997 130.828 40.692 133.12 43.5197 133.12H110.695C112.246 133.12 113.021 133.12 113.38 133.427C113.692 133.693 113.857 134.092 113.825 134.501C113.788 134.972 113.239 135.52 112.143 136.617L64.6429 184.116C62.6434 186.116 62.6434 189.358 64.6429 191.357C66.6424 193.357 69.8842 193.357 71.8837 191.357L119.384 143.857C120.48 142.761 121.028 142.212 121.499 142.175C121.908 142.143 122.307 142.309 122.573 142.62C122.88 142.979 122.88 143.755 122.88 145.306V212.48C122.88 215.308 125.172 217.6 128 217.6C130.827 217.6 133.12 215.308 133.12 212.48V145.305C133.12 143.755 133.12 142.979 133.426 142.62C133.692 142.308 134.092 142.143 134.5 142.175C134.971 142.212 135.519 142.761 136.616 143.857L184.116 191.357C186.115 193.357 189.357 193.357 191.356 191.357C193.356 189.358 193.356 186.116 191.356 184.116L143.857 136.617C142.76 135.52 142.212 134.972 142.175 134.501C142.142 134.092 142.308 133.693 142.619 133.427C142.978 133.12 143.754 133.12 145.305 133.12H212.48C215.307 133.12 217.6 130.828 217.6 128C217.6 125.173 215.307 122.88 212.48 122.88H145.305C143.754 122.88 142.978 122.88 142.619 122.574C142.308 122.308 142.142 121.908 142.175 121.5C142.212 121.029 142.76 120.481 143.857 119.384L191.356 71.8844C193.356 69.8849 193.356 66.6431 191.356 64.6436C189.357 62.6441 186.115 62.6441 184.116 64.6436L136.616 112.143C135.519 113.24 134.971 113.788 134.5 113.826C134.092 113.858 133.692 113.692 133.426 113.381C133.12 113.022 133.12 112.246 133.12 110.695V43.5204C133.12 40.6927 130.827 38.4004 128 38.4004Z" fill="white"/>
</svg>
